<svg xmlns="http://www.w3.org/2000/svg" width="392" height="643"><defs><style>.cls-2{fill:#fff}.cls-3{fill:#f4f4f4}.cls-7{fill:#4d0000}.cls-9{fill:#026400}.cls-12{fill:none}.cls-14{fill:#fa7d8e}.cls-15{fill:#363636}.cls-16{stroke:none}</style><linearGradient id="linear-gradient" x1=".5" x2=".5" y2="1" gradientUnits="objectBoundingBox"><stop offset="0" stop-color="#fa709a"/><stop offset="1" stop-color="#fee140"/></linearGradient><filter id="Path_698" x="154" y="150" width="82" height="82" filterUnits="userSpaceOnUse"><feOffset dy="3"/><feGaussianBlur stdDeviation="3" result="blur"/><feFlood flood-opacity=".059"/><feComposite operator="in" in2="blur"/><feComposite in="SourceGraphic"/></filter><filter id="Path_699" x="23" y="37" width="62" height="62" filterUnits="userSpaceOnUse"><feOffset dy="3"/><feGaussianBlur stdDeviation="3" result="blur-2"/><feFlood flood-opacity=".059"/><feComposite operator="in" in2="blur-2"/><feComposite in="SourceGraphic"/></filter><filter id="Path_700" x="23" y="239" width="346" height="89" filterUnits="userSpaceOnUse"><feOffset dy="3"/><feGaussianBlur stdDeviation="3" result="blur-3"/><feFlood flood-opacity=".059"/><feComposite operator="in" in2="blur-3"/><feComposite in="SourceGraphic"/></filter><filter id="Path_708" x="23" y="326" width="346" height="89" filterUnits="userSpaceOnUse"><feOffset dy="3"/><feGaussianBlur stdDeviation="3" result="blur-4"/><feFlood flood-opacity=".059"/><feComposite operator="in" in2="blur-4"/><feComposite in="SourceGraphic"/></filter><filter id="Path_716" x="23" y="413" width="346" height="89" filterUnits="userSpaceOnUse"><feOffset dy="3"/><feGaussianBlur stdDeviation="3" result="blur-5"/><feFlood flood-opacity=".059"/><feComposite operator="in" in2="blur-5"/><feComposite in="SourceGraphic"/></filter><filter id="Path_724" x="23" y="500" width="346" height="89" filterUnits="userSpaceOnUse"><feOffset dy="3"/><feGaussianBlur stdDeviation="3" result="blur-6"/><feFlood flood-opacity=".059"/><feComposite operator="in" in2="blur-6"/><feComposite in="SourceGraphic"/></filter><clipPath id="clip-feature02img-2"><path d="M0 0h392v643H0z"/></clipPath></defs><g id="feature02img-2" clip-path="url(#clip-feature02img-2)"><path id="background" class="cls-2" d="M4 0h384a4 4 0 0 1 4 4v635a4 4 0 0 1-4 4H4a4 4 0 0 1-4-4V4a4 4 0 0 1 4-4z"/><path id="Path_684" data-name="Path 684" class="cls-3" d="M4 0h8a4 4 0 0 1 4 4v635a4 4 0 0 1-4 4H4a4 4 0 0 1-4-4V4a4 4 0 0 1 4-4z" transform="translate(376)"/><path id="Path_685" data-name="Path 685" class="cls-3" d="M4 0h8a4 4 0 0 1 4 4v635a4 4 0 0 1-4 4H4a4 4 0 0 1-4-4V4a4 4 0 0 1 4-4z"/><path id="Path_686" data-name="Path 686" class="cls-3" d="M4 0h384a4 4 0 0 1 4 4v8a4 4 0 0 1-4 4H4a4 4 0 0 1-4-4V4a4 4 0 0 1 4-4z" transform="translate(0 627)"/><path id="tab" class="cls-3" d="M4 0h384a4 4 0 0 1 4 4v23H0V4a4 4 0 0 1 4-4z"/><g id="Path_687" data-name="Path 687" fill="#ffc12f"><path class="cls-16" d="M6.5 12.5c-3.308 0-6-2.692-6-6s2.692-6 6-6 6 2.692 6 6-2.692 6-6 6z" transform="translate(37 7)"/><path d="M6.5 1A5.506 5.506 0 0 0 1 6.5C1 9.533 3.467 12 6.5 12S12 9.533 12 6.5 9.533 1 6.5 1m0-1a6.5 6.5 0 1 1 0 13 6.5 6.5 0 0 1 0-13z" fill="#e19f1b" transform="translate(37 7)"/></g><path id="Path_688" data-name="Path 688" d="M0 0h7v1H0z" transform="translate(40 13)" fill="#995700"/><g id="Path_689" data-name="Path 689" fill="#ff625a"><path class="cls-16" d="M6.5 12.5c-3.308 0-6-2.692-6-6s2.692-6 6-6 6 2.692 6 6-2.692 6-6 6z" transform="translate(16 7)"/><path d="M6.5 1A5.506 5.506 0 0 0 1 6.5C1 9.533 3.467 12 6.5 12S12 9.533 12 6.5 9.533 1 6.5 1m0-1a6.5 6.5 0 1 1 0 13 6.5 6.5 0 0 1 0-13z" fill="#e2483f" transform="translate(16 7)"/></g><path id="Path_690" data-name="Path 690" class="cls-7" d="M0 0h7v1H0z" transform="rotate(45 -2.693 29.936)"/><path id="Path_691" data-name="Path 691" class="cls-7" d="M0 0h7v1H0z" transform="rotate(-45 28.692 -15.936)"/><g id="Path_692" data-name="Path 692" fill="#2acf42"><path class="cls-16" d="M6.5 12.5c-3.308 0-6-2.692-6-6s2.692-6 6-6 6 2.692 6 6-2.692 6-6 6z" transform="translate(58 7)"/><path d="M6.5 1A5.506 5.506 0 0 0 1 6.5C1 9.533 3.467 12 6.5 12S12 9.533 12 6.5 9.533 1 6.5 1m0-1a6.5 6.5 0 1 1 0 13 6.5 6.5 0 0 1 0-13z" fill="#1eaa26" transform="translate(58 7)"/></g><path id="Path_693" data-name="Path 693" class="cls-9" d="M0 0h7v1H0z" transform="rotate(90 27.5 37.5)"/><path id="Path_694" data-name="Path 694" class="cls-9" d="M0 0h7v1H0z" transform="translate(61 13)"/><path id="Path_695" data-name="Path 695" d="M-25.324 0h-1.4v-8.073h-2.786v-1.209h6.968v1.209h-2.782zm5.424-9.88v2.639q0 .325-.026.65t-.052.533h.091a2.121 2.121 0 0 1 .9-.8 2.845 2.845 0 0 1 1.229-.266 2.677 2.677 0 0 1 1.892.611 2.553 2.553 0 0 1 .656 1.95V0h-1.365v-4.368q0-1.638-1.443-1.638a1.6 1.6 0 0 0-1.482.65 3.485 3.485 0 0 0-.4 1.833V0h-1.378v-9.88zm9.568 2.743a2.822 2.822 0 0 1 2.171.852 3.27 3.27 0 0 1 .793 2.32v.754h-4.706a2.406 2.406 0 0 0 .566 1.651A1.981 1.981 0 0 0-10-.988a5.29 5.29 0 0 0 1.2-.124 6.191 6.191 0 0 0 1.085-.37v1.144a4.9 4.9 0 0 1-1.06.358 6.363 6.363 0 0 1-1.274.11 3.853 3.853 0 0 1-1.794-.4 2.863 2.863 0 0 1-1.216-1.2 4.064 4.064 0 0 1-.436-1.976 4.567 4.567 0 0 1 .4-2 2.925 2.925 0 0 1 1.1-1.254 3.1 3.1 0 0 1 1.66-.437zm0 1.066a1.549 1.549 0 0 0-1.189.481 2.228 2.228 0 0 0-.526 1.365h3.3a2.231 2.231 0 0 0-.4-1.332 1.388 1.388 0 0 0-1.188-.514zM1 0H-.4v-8.073h-2.785v-1.209h6.968v1.209H1zm6.852-7.137a4.219 4.219 0 0 1 .767.065l-.143 1.287a2.689 2.689 0 0 0-.7-.091 1.958 1.958 0 0 0-.988.26 1.964 1.964 0 0 0-.734.747 2.329 2.329 0 0 0-.28 1.177V0h-1.38v-7.007h1.092l.182 1.248h.052a3.242 3.242 0 0 1 .871-.969 2.045 2.045 0 0 1 1.261-.409zm4.524 0a2.9 2.9 0 0 1 1.97.579A2.3 2.3 0 0 1 15-4.745V0h-.975l-.273-.975H13.7a3.131 3.131 0 0 1-.955.839 2.977 2.977 0 0 1-1.383.266 2.393 2.393 0 0 1-1.573-.514 1.96 1.96 0 0 1-.624-1.605 1.845 1.845 0 0 1 .812-1.631 4.72 4.72 0 0 1 2.477-.6l1.2-.039v-.39A1.413 1.413 0 0 0 13.3-5.74a1.418 1.418 0 0 0-.988-.319 3.39 3.39 0 0 0-1.027.156 6.979 6.979 0 0 0-.949.377l-.442-1a5.609 5.609 0 0 1 1.138-.436 5.091 5.091 0 0 1 1.344-.175zm1.261 3.77l-.936.026a3.086 3.086 0 0 0-1.658.4 1.143 1.143 0 0 0-.462.962.932.932 0 0 0 .325.793 1.359 1.359 0 0 0 .845.247 2.015 2.015 0 0 0 1.349-.452 1.685 1.685 0 0 0 .54-1.365zM19.942.13A3.2 3.2 0 0 1 17.6-.734a3.669 3.669 0 0 1-.884-2.723 4.478 4.478 0 0 1 .429-2.106 2.728 2.728 0 0 1 1.185-1.19 3.732 3.732 0 0 1 1.716-.384 4.936 4.936 0 0 1 1.1.117 3.823 3.823 0 0 1 .854.286l-.42 1.118q-.364-.13-.767-.24a2.945 2.945 0 0 0-.78-.11q-1.9 0-1.9 2.5a3 3 0 0 0 .468 1.82 1.615 1.615 0 0 0 1.378.624 3.739 3.739 0 0 0 1.027-.13 3.978 3.978 0 0 0 .834-.348v1.2a2.941 2.941 0 0 1-.819.325 4.788 4.788 0 0 1-1.079.105zm4.914-10.01v4.94q0 .26-.026.624t-.039.65h.039q.143-.195.4-.513t.448-.526l2.145-2.3h1.6L26.6-4l3 4h-1.624l-2.314-3.133-.806.676V0h-1.365v-9.88z" transform="translate(196 19)" fill="#4d4c4d"/><path id="Path_696" data-name="Path 696" d="M0 0h360v160H0z" transform="translate(16 27)" fill="url(#linear-gradient)"/><path id="Path_697" data-name="Path 697" class="cls-2" d="M17.76-14.336a6.259 6.259 0 0 1-2.06 5.088 7.729 7.729 0 0 1-5.14 1.728H6.752v4.992h3.456V0h-8.9v-2.528H3.84v-15.744H1.312V-20.8h9.056q3.872 0 5.632 1.872a6.453 6.453 0 0 1 1.76 4.592zm-3.1.064a3.924 3.924 0 0 0-1.092-2.928 4.877 4.877 0 0 0-3.52-1.072h-3.3v8.256h3.36q4.548 0 4.548-4.256zm13.312-.256a4.234 4.234 0 0 1 2.56.768l.576 4-2.208.26-.544-2.464a2.915 2.915 0 0 0-1.12-.224 2.257 2.257 0 0 0-1.824.912 3.679 3.679 0 0 0-.74 2.376v6.72h3.072V0h-8.192v-2.176h2.3V-12.1h-2.4v-2.2h5.028v2.624a4.865 4.865 0 0 1 1.3-2.032 3.1 3.1 0 0 1 2.188-.82zm19.74 7.392A7.369 7.369 0 0 1 45.68-1.76 7.155 7.155 0 0 1 40.32.32a6.768 6.768 0 0 1-5.168-2.02 7.42 7.42 0 0 1-1.9-5.312 8.244 8.244 0 0 1 1.824-5.376 6.6 6.6 0 0 1 5.44-2.24A6.531 6.531 0 0 1 45.92-12.4a8.133 8.133 0 0 1 1.792 5.264zm-2.944-.1a5.6 5.6 0 0 0-1.168-3.74 3.921 3.921 0 0 0-3.152-1.376 3.754 3.754 0 0 0-3.184 1.452 6 6 0 0 0-1.1 3.728 6.249 6.249 0 0 0 1.072 3.7 3.643 3.643 0 0 0 3.184 1.52 3.809 3.809 0 0 0 3.212-1.488 6.072 6.072 0 0 0 1.136-3.792zm7.008-10.432v-3.3h2.944v3.3zM54.72.16q0 4.064-1.664 5.664a5.787 5.787 0 0 1-4.768 1.312l-.1-1.984a5.436 5.436 0 0 0 1.728-.288 2.581 2.581 0 0 0 1.428-1.344A7.544 7.544 0 0 0 51.9.16V-12.1h-2.88v-2.2h5.7zm16.352-4.384a4.858 4.858 0 0 1-1.824 3.2A6.554 6.554 0 0 1 64.9.32a6.924 6.924 0 0 1-5.024-1.856 7.136 7.136 0 0 1-1.92-5.376 8.371 8.371 0 0 1 1.792-5.5 6.074 6.074 0 0 1 4.96-2.176 5.823 5.823 0 0 1 4.576 1.824 6.517 6.517 0 0 1 1.664 4.416 9.311 9.311 0 0 1-.192 1.824H60.9q.192 4.544 4.192 4.544a3.534 3.534 0 0 0 2.512-.8 3.939 3.939 0 0 0 1.132-1.92zm-3.04-4.192a4.246 4.246 0 0 0-.688-2.7 2.948 2.948 0 0 0-2.7-1.3A3.1 3.1 0 0 0 62-11.248a5.693 5.693 0 0 0-1.072 2.832zM86.016-4.96a7.009 7.009 0 0 1-1.68 3.584A5.591 5.591 0 0 1 79.808.32a6.493 6.493 0 0 1-4.848-1.872 7.328 7.328 0 0 1-1.84-5.36 8.322 8.322 0 0 1 1.824-5.456 6.216 6.216 0 0 1 5.088-2.224 10.4 10.4 0 0 1 2.592.32 7.08 7.08 0 0 1 2.368 1.12l.576 3.712-2.268.256-.512-2.4a5.455 5.455 0 0 0-2.784-.7 3.313 3.313 0 0 0-2.976 1.456 6.712 6.712 0 0 0-.96 3.76 6.055 6.055 0 0 0 1.024 3.744 3.548 3.548 0 0 0 3.008 1.34q2.976 0 3.552-3.456zm12.992.928Q98.4.32 94.208.32a4.723 4.723 0 0 1-3.44-1.2 4.453 4.453 0 0 1-1.232-3.344v-7.936h-2.208v-2.14h2.208v-4.512h2.784v4.512h5.472v2.144H92.32v7.52q0 2.56 2.208 2.56a2.543 2.543 0 0 0 1.408-.464 3.161 3.161 0 0 0 .992-2.16zm13.12-.16a3.777 3.777 0 0 1-1.776 3.328 7.942 7.942 0 0 1-4.5 1.184 10.544 10.544 0 0 1-5.6-1.408l.448-3.456 2.208.224-.064 1.856a4.951 4.951 0 0 0 1.392.448 8.855 8.855 0 0 0 1.488.128 5.826 5.826 0 0 0 2.48-.512 1.681 1.681 0 0 0 1.1-1.6 1.52 1.52 0 0 0-.9-1.488 8.347 8.347 0 0 0-2.224-.656q-1.328-.224-2.64-.56a5.091 5.091 0 0 1-2.208-1.152 3.191 3.191 0 0 1-.9-2.48 3.421 3.421 0 0 1 1.776-3.328 8.07 8.07 0 0 1 3.792-.928 10.092 10.092 0 0 1 2.768.368 11.4 11.4 0 0 1 2.352.944l.32 3.456-2.24.256-.32-2.24a6.47 6.47 0 0 0-2.752-.608 3.831 3.831 0 0 0-1.952.448 1.571 1.571 0 0 0-.768 1.472 1.442 1.442 0 0 0 .88 1.408 8.137 8.137 0 0 0 2.176.624 25 25 0 0 1 2.592.56 5.019 5.019 0 0 1 2.176 1.184 3.324 3.324 0 0 1 .896 2.528z" transform="translate(140 118)"/><g filter="url(#Path_698)"><path id="Path_698-2" data-name="Path 698" class="cls-2" d="M32 0A32 32 0 1 1 0 32 32 32 0 0 1 32 0z" transform="translate(163 156)"/></g><path id="Path_63" data-name="Path 63" d="M19 13h-6v6h-2v-6H5v-2h6V5h2v6h6z" transform="translate(183 176)"/><path id="Path_64" data-name="Path 64" class="cls-12" d="M0 0h24v24H0z" transform="translate(183 176)"/><g filter="url(#Path_699)"><path id="Path_699-2" data-name="Path 699" class="cls-2" d="M22 0A22 22 0 1 1 0 22 22 22 0 0 1 22 0z" transform="rotate(-90 59.5 27.5)"/></g><path id="Path_73" data-name="Path 73" class="cls-12" d="M0 0h20v20H0z" transform="rotate(180 32 37.5)"/><path id="Path_74" data-name="Path 74" d="M3 18h14v-2H3zm0-5h14v-2H3zm0-7v2h14V6z" transform="rotate(180 32 38.5)" fill="#242424"/><g filter="url(#Path_700)"><path id="Path_700-2" data-name="Path 700" class="cls-2" d="M2 0h324a2 2 0 0 1 2 2v67a2 2 0 0 1-2 2H2a2 2 0 0 1-2-2V2a2 2 0 0 1 2-2z" transform="translate(32 245)"/></g><path id="Path_701" data-name="Path 701" class="cls-14" d="M-14.136-3.552H-16.2V0h-3.528v-3.552h-7.32v-2.52l7.512-11.064h3.336V-6.36h2.064zm-5.592-2.808v-2.9q0-.552.024-1.344t.06-1.476q.036-.684.06-.9h-.1q-.216.48-.468.936t-.564.936l-3.14 4.748zM-11.064 0l6.432-14.088h-8.448v-3.048H-.792v2.28L-7.272 0z" transform="translate(227 297)"/><path id="Path_702" data-name="Path 702" class="cls-14" d="M-14.52 0H-26.5v-2.52l4.3-4.344q1.3-1.344 2.088-2.244a7.752 7.752 0 0 0 1.152-1.632 3.514 3.514 0 0 0 .36-1.572 1.956 1.956 0 0 0-.564-1.536 2.2 2.2 0 0 0-1.524-.5 4.338 4.338 0 0 0-1.92.456 10.357 10.357 0 0 0-1.968 1.3l-1.968-2.328a15.974 15.974 0 0 1 1.56-1.188 7.565 7.565 0 0 1 1.932-.912 8.716 8.716 0 0 1 2.628-.348 6.349 6.349 0 0 1 2.892.612A4.614 4.614 0 0 1-15.66-15.1a4.33 4.33 0 0 1 .66 2.356 5.916 5.916 0 0 1-.564 2.592A9.509 9.509 0 0 1-17.2-7.824q-1.068 1.152-2.58 2.544l-2.208 2.064v.168h7.464zM-.408-3.552h-2.064V0H-6v-3.552h-7.32v-2.52l7.512-11.064h3.336V-6.36h2.064zM-6-6.36v-2.9q0-.552.024-1.344t.06-1.476q.036-.684.06-.9h-.1q-.216.48-.468.936t-.564.936l-3.14 4.748z" transform="translate(296 297)"/><path id="Path_703" data-name="Path 703" class="cls-15" d="M13.224 0H7.8v-1.368h1.872v-4.968a3.383 3.383 0 0 0-.708-2.436 2.454 2.454 0 0 0-1.812-.708 2.947 2.947 0 0 0-2.268.948 3.259 3.259 0 0 0-.924 2.124v5.04h1.848V0h-5.4v-1.368h1.848v-13.776H.408v-1.368H3.96v7.752A3.967 3.967 0 0 1 7.7-10.9a3.744 3.744 0 0 1 2.616.96 4 4 0 0 1 1.056 3.1v5.472h1.848zm7.032-10.872a2.789 2.789 0 0 1 1.824.552l.408 2.688-1.368.168-.408-1.824a2.438 2.438 0 0 0-.816-.144 1.921 1.921 0 0 0-1.56.78 3.147 3.147 0 0 0-.624 2.028v5.256h2.472V0H14.16v-1.368h1.872v-7.944h-1.92v-1.368h3.5v1.92a3.469 3.469 0 0 1 1.02-1.5 2.407 2.407 0 0 1 1.624-.612zM33.1-3.1a2.8 2.8 0 0 1-1.312 2.452A5.615 5.615 0 0 1 28.56.24a8.61 8.61 0 0 1-2.244-.3A6.3 6.3 0 0 1 24.5-.816l.34-2.424 1.344.144-.072 1.416a5.436 5.436 0 0 0 2.376.528 4.372 4.372 0 0 0 2-.444 1.44 1.44 0 0 0 .876-1.356A1.3 1.3 0 0 0 30.7-4.2a5.457 5.457 0 0 0-1.668-.528q-1-.168-2-.408a3.859 3.859 0 0 1-1.68-.828 2.315 2.315 0 0 1-.68-1.836 2.517 2.517 0 0 1 1.248-2.4 5.476 5.476 0 0 1 2.712-.7 7.274 7.274 0 0 1 2.076.288 7.006 7.006 0 0 1 1.644.7l.264 2.5-1.392.168-.264-1.732a4.636 4.636 0 0 0-2.184-.524 3.211 3.211 0 0 0-1.656.384 1.3 1.3 0 0 0-.648 1.2 1.228 1.228 0 0 0 .672 1.188 5.465 5.465 0 0 0 1.656.5q.984.156 1.968.4a3.718 3.718 0 0 1 1.656.852A2.427 2.427 0 0 1 33.1-3.1z" transform="translate(227 296)"/><path id="Path_704" data-name="Path 704" class="cls-15" d="M20.5 0h-5.116v-1.368h1.56v-4.968a3.464 3.464 0 0 0-.684-2.436 2.315 2.315 0 0 0-1.74-.708 2.61 2.61 0 0 0-2.256 1.1 3.821 3.821 0 0 0-.816 2.112v4.9H13.3V0H8.208v-1.368h1.536v-4.968a3.5 3.5 0 0 0-.672-2.448 2.267 2.267 0 0 0-1.7-.7A2.634 2.634 0 0 0 5.1-8.412a3.882 3.882 0 0 0-.828 2.1v4.944H6.24V0H.72v-1.368h1.872v-7.944H.7v-1.368h3.572v1.992a4.646 4.646 0 0 1 1.416-1.584 3.662 3.662 0 0 1 2.16-.624 3.788 3.788 0 0 1 2.172.624 3.177 3.177 0 0 1 1.26 1.944 4.477 4.477 0 0 1 1.428-1.848 3.756 3.756 0 0 1 2.34-.72 3.584 3.584 0 0 1 2.556.96 4.087 4.087 0 0 1 1.02 3.1v5.472H20.5zm2.736-13.44v-2.184h1.824v2.184zM26.952 0h-5.424v-1.368H23.4v-7.944h-1.92v-1.368h3.6v9.312h1.872zm14.016 0h-5.4v-1.368h1.848v-4.968a3.422 3.422 0 0 0-.7-2.436 2.384 2.384 0 0 0-1.776-.708 3 3 0 0 0-2.316.948A3.31 3.31 0 0 0 31.7-6.36v4.992h1.872V0h-5.42v-1.368h1.872v-7.944H28.1v-1.368h3.6v1.9a3.944 3.944 0 0 1 3.748-2.12 3.744 3.744 0 0 1 2.616.96 4 4 0 0 1 1.056 3.1v5.472h1.848z" transform="translate(296 296)"/><path id="Path_705" data-name="Path 705" class="cls-15" d="M8.512 6.756l-1.12.1-.28-1.848H5.04v6.888h1.568V13H2.24v-1.106h1.526V5.006H1.68L1.4 6.854l-1.106-.1L.56 3.9h7.672zM16.59 13h-3.262v-.952h1.022v-2.7A1.94 1.94 0 0 0 13.972 8a1.306 1.306 0 0 0-.994-.4 1.563 1.563 0 0 0-1.218.511 1.814 1.814 0 0 0-.49 1.169v2.772h1.022V13H9.044v-.952h1.008V4.334H9.044v-.966h2.226V7.82a2.294 2.294 0 0 1 2.142-1.2 2.235 2.235 0 0 1 1.54.56 2.226 2.226 0 0 1 .63 1.75v3.122h1.008zm6.342-1.848a2.125 2.125 0 0 1-.8 1.4 2.867 2.867 0 0 1-1.9.588 3.029 3.029 0 0 1-2.2-.812 3.122 3.122 0 0 1-.84-2.352 3.662 3.662 0 0 1 .784-2.408 2.657 2.657 0 0 1 2.17-.952 2.547 2.547 0 0 1 2 .8 2.851 2.851 0 0 1 .728 1.932 4.074 4.074 0 0 1-.084.8h-4.31q.084 1.988 1.834 1.988a1.546 1.546 0 0 0 1.1-.35 1.723 1.723 0 0 0 .5-.84zM21.6 9.318a1.858 1.858 0 0 0-.3-1.183 1.29 1.29 0 0 0-1.183-.567 1.354 1.354 0 0 0-1.155.511 2.491 2.491 0 0 0-.469 1.239zm13.3-2.562l-1.12.1-.28-1.85h-2.07v6.888H33V13h-4.37v-1.106h1.526V5.006H28.07l-.28 1.848-1.106-.1.266-2.854h7.672zm4.312-.112a1.853 1.853 0 0 1 1.12.336l.252 1.75-.966.112-.238-1.078a1.275 1.275 0 0 0-.49-.1.988.988 0 0 0-.8.4 1.61 1.61 0 0 0-.322 1.043v2.94h1.344V13h-3.58v-.952h1.008v-4.34h-1.05v-.966h2.2V7.89a2.128 2.128 0 0 1 .565-.89 1.357 1.357 0 0 1 .959-.356zm2.954.574a4.17 4.17 0 0 1 1.134-.469 5.176 5.176 0 0 1 1.211-.133 2.557 2.557 0 0 1 1.687.518 1.958 1.958 0 0 1 .623 1.6v2.9q0 .616.49.616a1.044 1.044 0 0 0 .378-.07l.014.728a1.719 1.719 0 0 1-.91.238q-1.134 0-1.2-1.26v-.014a2.913 2.913 0 0 1-.805.882 2.08 2.08 0 0 1-1.281.392 2.424 2.424 0 0 1-1.281-.392 1.48 1.48 0 0 1-.637-1.372 1.492 1.492 0 0 1 .931-1.547 5.339 5.339 0 0 1 1.995-.371 8.648 8.648 0 0 1 1.078.056v-.468A2.155 2.155 0 0 0 45.346 8q-.238-.434-1.064-.434a2.455 2.455 0 0 0-1.134.238l-.238 1.024-.994-.112zm3.416 3.374v-.364q-.252-.028-.525-.049t-.553-.021a2.962 2.962 0 0 0-1.148.21.842.842 0 0 0-.5.868.831.831 0 0 0 .315.728 1.213 1.213 0 0 0 .721.224 1.744 1.744 0 0 0 1.12-.42 1.59 1.59 0 0 0 .572-1.176zm8.456.238a3.066 3.066 0 0 1-.735 1.568 2.446 2.446 0 0 1-1.981.742 2.841 2.841 0 0 1-2.121-.819 3.206 3.206 0 0 1-.8-2.345 3.641 3.641 0 0 1 .8-2.387 2.719 2.719 0 0 1 2.226-.973 4.548 4.548 0 0 1 1.134.14 3.1 3.1 0 0 1 1.036.49l.252 1.624-.994.112-.224-1.05a2.386 2.386 0 0 0-1.218-.308 1.449 1.449 0 0 0-1.3.637 2.936 2.936 0 0 0-.42 1.645 2.649 2.649 0 0 0 .448 1.638 1.552 1.552 0 0 0 1.316.588q1.3 0 1.554-1.512zM61.684 13h-3.038v-.952h.84l-1.526-1.876H56.9v1.876h.812V13H54.67v-.952h1.008V4.334h-1.05v-.966H56.9v5.908H58l1.29-1.568h-.91v-.966h2.982v.966h-.868l-1.582 1.9 1.988 2.44h.784zm12.068 0h-3.346v-1.106h1.078l-.56-1.512h-3.668l-.6 1.512h1.19V13h-3.32v-1.106h.84l2.87-6.888h-1.4V3.9h2.744l3.276 7.994h.9zM70.56 9.43l-1.386-3.7h-.084l-1.456 3.7zm10.374.28a4.285 4.285 0 0 1-.686 2.359 2.4 2.4 0 0 1-2.184 1.071 2.191 2.191 0 0 1-2.016-1.022V15h1.358v.98h-3.6V15h1.024V7.708h-1.064v-.966h2.282v1.274a2.959 2.959 0 0 1 .8-.98 2.135 2.135 0 0 1 1.386-.42 2.523 2.523 0 0 1 1.953.819 3.246 3.246 0 0 1 .747 2.275zm-1.288.112a2.4 2.4 0 0 0-.5-1.638 1.634 1.634 0 0 0-1.281-.56 1.553 1.553 0 0 0-1.288.63 2.321 2.321 0 0 0-.518 1.358l-.014.728a1.744 1.744 0 0 0 .5 1.288 1.693 1.693 0 0 0 1.246.5 1.572 1.572 0 0 0 1.393-.665 2.845 2.845 0 0 0 .462-1.641zm9.072-.112a4.285 4.285 0 0 1-.686 2.359 2.4 2.4 0 0 1-2.184 1.071 2.191 2.191 0 0 1-2.016-1.022V15h1.358v.98h-3.6V15h1.022V7.708H81.55v-.966h2.282v1.274a2.959 2.959 0 0 1 .8-.98 2.135 2.135 0 0 1 1.386-.42 2.523 2.523 0 0 1 1.953.819 3.246 3.246 0 0 1 .747 2.275zm-1.288.112a2.4 2.4 0 0 0-.5-1.638 1.634 1.634 0 0 0-1.281-.56 1.553 1.553 0 0 0-1.288.63 2.321 2.321 0 0 0-.518 1.358l-.014.728a1.744 1.744 0 0 0 .5 1.288 1.693 1.693 0 0 0 1.246.5 1.572 1.572 0 0 0 1.393-.665 2.845 2.845 0 0 0 .462-1.641z" transform="translate(48 271)"/><path id="Path_706" data-name="Path 706" class="cls-14" d="M5.69-4.43a1.94 1.94 0 0 1-.685 1.615 2.561 2.561 0 0 1-1.645.545h-1.1v1.32H3.3V0H.4v-.95h.75v-4.6H.4v-.95h2.9a2.476 2.476 0 0 1 1.8.58 2 2 0 0 1 .59 1.49zm-1.19.02a1.125 1.125 0 0 0-.305-.84 1.432 1.432 0 0 0-1.025-.3h-.91v2.34h.91a1.362 1.362 0 0 0 1.02-.325 1.215 1.215 0 0 0 .31-.875zm4.42-.15a1.528 1.528 0 0 1 .84.25l.19 1.4-.83.1-.17-.77a.793.793 0 0 0-.34-.1.63.63 0 0 0-.485.23.928.928 0 0 0-.2.64v1.99h.89V0H6.18v-.82h.67v-2.84h-.7v-.83h1.69v.84a1.56 1.56 0 0 1 .385-.65.94.94 0 0 1 .695-.26zm6.23 2.32a2.254 2.254 0 0 1-.665 1.7A2.374 2.374 0 0 1 12.76.1a2.247 2.247 0 0 1-1.655-.62 2.26 2.26 0 0 1-.625-1.68 2.541 2.541 0 0 1 .59-1.685 2.152 2.152 0 0 1 1.75-.705 2.142 2.142 0 0 1 1.75.7 2.506 2.506 0 0 1 .58 1.65zm-1.11-.03a1.583 1.583 0 0 0-.345-1.1 1.153 1.153 0 0 0-.895-.38 1.071 1.071 0 0 0-.89.4 1.7 1.7 0 0 0-.32 1.085 1.85 1.85 0 0 0 .31 1.085 1.029 1.029 0 0 0 .9.44 1.088 1.088 0 0 0 .91-.425 1.75 1.75 0 0 0 .33-1.105zm2.26-3.15V-6.6h1.09v1.18zm1.09 5.37a2.718 2.718 0 0 1-.5 1.83 1.819 1.819 0 0 1-1.62.45l-.03-.73a1.268 1.268 0 0 0 .745-.235q.335-.235.335-1.315v-3.61h-.81v-.83h1.88zm5.14-1.32a1.53 1.53 0 0 1-.58 1.03 2.145 2.145 0 0 1-1.43.44 2.3 2.3 0 0 1-1.61-.575 2.18 2.18 0 0 1-.63-1.695 2.6 2.6 0 0 1 .575-1.72 1.974 1.974 0 0 1 1.605-.69 1.973 1.973 0 0 1 1.475.555 1.958 1.958 0 0 1 .555 1.405 3.265 3.265 0 0 1-.06.6H19.4q.09 1.26 1.2 1.26a.961.961 0 0 0 .745-.25 1.243 1.243 0 0 0 .295-.53zm-1.14-1.31a1.16 1.16 0 0 0-.185-.755.824.824 0 0 0-.755-.355.87.87 0 0 0-.73.32 1.581 1.581 0 0 0-.31.79zm5.85 1.07a2.205 2.205 0 0 1-.53 1.155A1.816 1.816 0 0 1 25.23.1a2.168 2.168 0 0 1-1.565-.58 2.233 2.233 0 0 1-.6-1.69 2.44 2.44 0 0 1 .625-1.75 2.148 2.148 0 0 1 1.635-.66 3.288 3.288 0 0 1 .8.1 2.974 2.974 0 0 1 .79.33l.18 1.26-.86.09-.15-.74a1.761 1.761 0 0 0-.78-.18q-1.12 0-1.12 1.5 0 1.46 1.15 1.46.84 0 1.01-1.02zm4.13.29A1.446 1.446 0 0 1 29.79.1a1.654 1.654 0 0 1-1.145-.38 1.348 1.348 0 0 1-.425-1.06V-3.7h-.66v-.79h.66v-1.39h1.07v1.39h1.67v.79h-1.67v2.19q0 .71.62.71a.76.76 0 0 0 .38-.125q.21-.125.29-.645zm9.21-4.23h-.75V0l-.64.01-3.6-4.51h-.04v3.55h.95V0h-2.71v-.95h.72v-4.6h-.82v-.95h1.63l3.43 4.3h.04v-3.35h-.95v-.95h2.74zm.78 1.39a4.383 4.383 0 0 1 .89-.33 4.028 4.028 0 0 1 .9-.09 1.942 1.942 0 0 1 1.235.38 1.359 1.359 0 0 1 .485 1.14v2.02q0 .4.33.4a.875.875 0 0 0 .23-.04l.01.59a1.418 1.418 0 0 1-.72.19.841.841 0 0 1-.92-.89v-.02a2.13 2.13 0 0 1-.565.63 1.443 1.443 0 0 1-.9.28 1.725 1.725 0 0 1-.925-.285 1.08 1.08 0 0 1-.455-1 1.059 1.059 0 0 1 .66-1.1 3.8 3.8 0 0 1 1.43-.265q.19 0 .39.01t.37.03v-.25a1.779 1.779 0 0 0-.14-.72q-.14-.32-.7-.32a2.469 2.469 0 0 0-.395.03 1.147 1.147 0 0 0-.355.12l-.18.69-.86-.09zm2.44 2.38v-.16l-.35-.04a3.349 3.349 0 0 0-.37-.02 1.743 1.743 0 0 0-.715.14.551.551 0 0 0-.315.56q0 .61.65.61a1.128 1.128 0 0 0 .72-.275 1.1 1.1 0 0 0 .38-.815zM54.2 0h-1.98v-.82h.25v-1.76a1.41 1.41 0 0 0-.225-.905.787.787 0 0 0-.635-.265.871.871 0 0 0-.775.36 1.483 1.483 0 0 0-.255.82v1.75h.67V0h-1.98v-.82h.24v-1.76a1.41 1.41 0 0 0-.225-.905.776.776 0 0 0-.625-.265.878.878 0 0 0-.77.355 1.437 1.437 0 0 0-.26.815v1.76h.84V0h-2.58v-.82h.67v-2.84h-.66v-.83h1.73v.74a1.727 1.727 0 0 1 .56-.6 1.514 1.514 0 0 1 .85-.23 1.689 1.689 0 0 1 .9.245 1.3 1.3 0 0 1 .56.765 1.744 1.744 0 0 1 .58-.735 1.544 1.544 0 0 1 .93-.275 1.6 1.6 0 0 1 1.07.39 1.513 1.513 0 0 1 .46 1.22v2.15h.66zm4.63-1.37a1.53 1.53 0 0 1-.58 1.03 2.145 2.145 0 0 1-1.43.44 2.3 2.3 0 0 1-1.61-.575 2.18 2.18 0 0 1-.63-1.695 2.6 2.6 0 0 1 .575-1.72 1.974 1.974 0 0 1 1.6-.69 1.973 1.973 0 0 1 1.475.555 1.958 1.958 0 0 1 .56 1.405 3.265 3.265 0 0 1-.06.6H55.7q.09 1.26 1.2 1.26a.961.961 0 0 0 .745-.25 1.243 1.243 0 0 0 .3-.53zm-1.14-1.31a1.16 1.16 0 0 0-.185-.755.824.824 0 0 0-.755-.355.87.87 0 0 0-.73.32 1.581 1.581 0 0 0-.31.79z" transform="translate(48 266)"/><path id="Path_707" data-name="Path 707" class="cls-14" d="M6.18-4.38l-.96.08-.2-1.25H3.75v4.6h1.09V0H1.59v-.95h1.05v-4.6H1.36l-.2 1.25-.95-.08.2-2.12h5.57zm1.15-1.04V-6.6h1.09v1.18zM9.12 0h-2.4v-.82h.67v-2.84h-.71v-.83h1.77v3.67h.67zm8.79 0h-1.98v-.82h.25v-1.76a1.41 1.41 0 0 0-.225-.905.787.787 0 0 0-.635-.265.871.871 0 0 0-.775.36 1.483 1.483 0 0 0-.255.82v1.75h.67V0h-1.98v-.82h.24v-1.76a1.41 1.41 0 0 0-.22-.905.776.776 0 0 0-.625-.265.878.878 0 0 0-.77.355 1.437 1.437 0 0 0-.26.815v1.76h.84V0H9.6v-.82h.67v-2.84h-.66v-.83h1.73v.74a1.727 1.727 0 0 1 .56-.6 1.514 1.514 0 0 1 .85-.23 1.689 1.689 0 0 1 .9.245 1.3 1.3 0 0 1 .56.765 1.744 1.744 0 0 1 .58-.735 1.544 1.544 0 0 1 .93-.275 1.6 1.6 0 0 1 1.07.39 1.513 1.513 0 0 1 .46 1.22v2.15h.66zm4.63-1.37a1.53 1.53 0 0 1-.58 1.03 2.145 2.145 0 0 1-1.43.44 2.3 2.3 0 0 1-1.61-.575 2.18 2.18 0 0 1-.63-1.695 2.6 2.6 0 0 1 .575-1.72 1.974 1.974 0 0 1 1.605-.69 1.973 1.973 0 0 1 1.475.555A1.958 1.958 0 0 1 22.5-2.62a3.265 3.265 0 0 1-.06.6h-3.03q.09 1.26 1.2 1.26a.961.961 0 0 0 .745-.25 1.243 1.243 0 0 0 .3-.53zM21.4-2.68a1.16 1.16 0 0 0-.185-.755.824.824 0 0 0-.755-.355.87.87 0 0 0-.73.32 1.581 1.581 0 0 0-.31.79z" transform="translate(200 266)"/><g filter="url(#Path_708)"><path id="Path_708-2" data-name="Path 708" class="cls-2" d="M2 0h324a2 2 0 0 1 2 2v67a2 2 0 0 1-2 2H2a2 2 0 0 1-2-2V2a2 2 0 0 1 2-2z" transform="translate(32 332)"/></g><path id="Path_709" data-name="Path 709" class="cls-14" d="M-14.52 0H-26.5v-2.52l4.3-4.344q1.3-1.344 2.088-2.244a7.752 7.752 0 0 0 1.152-1.632 3.514 3.514 0 0 0 .36-1.572 1.956 1.956 0 0 0-.564-1.536 2.2 2.2 0 0 0-1.524-.5 4.338 4.338 0 0 0-1.92.456 10.357 10.357 0 0 0-1.968 1.3l-1.968-2.328a15.974 15.974 0 0 1 1.56-1.188 7.565 7.565 0 0 1 1.932-.912 8.716 8.716 0 0 1 2.628-.348 6.349 6.349 0 0 1 2.892.612A4.614 4.614 0 0 1-15.66-15.1a4.33 4.33 0 0 1 .66 2.356 5.916 5.916 0 0 1-.564 2.592A9.509 9.509 0 0 1-17.2-7.824q-1.068 1.152-2.58 2.544l-2.208 2.064v.168h7.464zm3.456 0l6.432-14.088h-8.448v-3.048H-.792v2.28L-7.272 0z" transform="translate(227 384)"/><path id="Path_710" data-name="Path 710" class="cls-14" d="M-14.52 0H-26.5v-2.52l4.3-4.344q1.3-1.344 2.088-2.244a7.752 7.752 0 0 0 1.152-1.632 3.514 3.514 0 0 0 .36-1.572 1.956 1.956 0 0 0-.564-1.536 2.2 2.2 0 0 0-1.524-.5 4.338 4.338 0 0 0-1.92.456 10.357 10.357 0 0 0-1.968 1.3l-1.968-2.328a15.974 15.974 0 0 1 1.56-1.188 7.565 7.565 0 0 1 1.932-.912 8.716 8.716 0 0 1 2.628-.348 6.349 6.349 0 0 1 2.892.612A4.614 4.614 0 0 1-15.66-15.1a4.33 4.33 0 0 1 .66 2.356 5.916 5.916 0 0 1-.564 2.592A9.509 9.509 0 0 1-17.2-7.824q-1.068 1.152-2.58 2.544l-2.208 2.064v.168h7.464zm7.992-10.944a6.244 6.244 0 0 1 2.784.6 4.6 4.6 0 0 1 1.932 1.752A5.362 5.362 0 0 1-1.1-5.736a5.668 5.668 0 0 1-1.728 4.38A7.291 7.291 0 0 1-7.944.24 12.774 12.774 0 0 1-10.476 0a8 8 0 0 1-2.076-.7v-3.12a10.435 10.435 0 0 0 2.136.78 9.377 9.377 0 0 0 2.352.324 3.952 3.952 0 0 0 2.46-.66 2.433 2.433 0 0 0 .852-2.052q0-2.592-3.432-2.592a7.717 7.717 0 0 0-1.392.132q-.72.132-1.2.252l-1.44-.768.648-8.736h9.288v3.072H-8.4l-.312 3.36.876-.156a7.836 7.836 0 0 1 1.308-.08z" transform="translate(296 384)"/><path id="Path_711" data-name="Path 711" class="cls-15" d="M13.224 0H7.8v-1.368h1.872v-4.968a3.383 3.383 0 0 0-.708-2.436 2.454 2.454 0 0 0-1.812-.708 2.947 2.947 0 0 0-2.268.948 3.259 3.259 0 0 0-.924 2.124v5.04h1.848V0h-5.4v-1.368h1.848v-13.776H.408v-1.368H3.96v7.752A3.967 3.967 0 0 1 7.7-10.9a3.744 3.744 0 0 1 2.616.96 4 4 0 0 1 1.056 3.1v5.472h1.848zm7.032-10.872a2.789 2.789 0 0 1 1.824.552l.408 2.688-1.368.168-.408-1.824a2.438 2.438 0 0 0-.816-.144 1.921 1.921 0 0 0-1.56.78 3.147 3.147 0 0 0-.624 2.028v5.256h2.472V0H14.16v-1.368h1.872v-7.944h-1.92v-1.368h3.5v1.92a3.469 3.469 0 0 1 1.02-1.5 2.407 2.407 0 0 1 1.624-.612zM33.1-3.1a2.8 2.8 0 0 1-1.312 2.452A5.615 5.615 0 0 1 28.56.24a8.61 8.61 0 0 1-2.244-.3A6.3 6.3 0 0 1 24.5-.816l.34-2.424 1.344.144-.072 1.416a5.436 5.436 0 0 0 2.376.528 4.372 4.372 0 0 0 2-.444 1.44 1.44 0 0 0 .876-1.356A1.3 1.3 0 0 0 30.7-4.2a5.457 5.457 0 0 0-1.668-.528q-1-.168-2-.408a3.859 3.859 0 0 1-1.68-.828 2.315 2.315 0 0 1-.68-1.836 2.517 2.517 0 0 1 1.248-2.4 5.476 5.476 0 0 1 2.712-.7 7.274 7.274 0 0 1 2.076.288 7.006 7.006 0 0 1 1.644.7l.264 2.5-1.392.168-.264-1.732a4.636 4.636 0 0 0-2.184-.524 3.211 3.211 0 0 0-1.656.384 1.3 1.3 0 0 0-.648 1.2 1.228 1.228 0 0 0 .672 1.188 5.465 5.465 0 0 0 1.656.5q.984.156 1.968.4a3.718 3.718 0 0 1 1.656.852A2.427 2.427 0 0 1 33.1-3.1z" transform="translate(227 383)"/><path id="Path_712" data-name="Path 712" class="cls-15" d="M20.5 0h-5.116v-1.368h1.56v-4.968a3.464 3.464 0 0 0-.684-2.436 2.315 2.315 0 0 0-1.74-.708 2.61 2.61 0 0 0-2.256 1.1 3.821 3.821 0 0 0-.816 2.112v4.9H13.3V0H8.208v-1.368h1.536v-4.968a3.5 3.5 0 0 0-.672-2.448 2.267 2.267 0 0 0-1.7-.7A2.634 2.634 0 0 0 5.1-8.412a3.882 3.882 0 0 0-.828 2.1v4.944H6.24V0H.72v-1.368h1.872v-7.944H.7v-1.368h3.572v1.992a4.646 4.646 0 0 1 1.416-1.584 3.662 3.662 0 0 1 2.16-.624 3.788 3.788 0 0 1 2.172.624 3.177 3.177 0 0 1 1.26 1.944 4.477 4.477 0 0 1 1.428-1.848 3.756 3.756 0 0 1 2.34-.72 3.584 3.584 0 0 1 2.556.96 4.087 4.087 0 0 1 1.02 3.1v5.472H20.5zm2.736-13.44v-2.184h1.824v2.184zM26.952 0h-5.424v-1.368H23.4v-7.944h-1.92v-1.368h3.6v9.312h1.872zm14.016 0h-5.4v-1.368h1.848v-4.968a3.422 3.422 0 0 0-.7-2.436 2.384 2.384 0 0 0-1.776-.708 3 3 0 0 0-2.316.948A3.31 3.31 0 0 0 31.7-6.36v4.992h1.872V0h-5.42v-1.368h1.872v-7.944H28.1v-1.368h3.6v1.9a3.944 3.944 0 0 1 3.748-2.12 3.744 3.744 0 0 1 2.616.96 4 4 0 0 1 1.056 3.1v5.472h1.848z" transform="translate(296 383)"/><path id="Path_713" data-name="Path 713" class="cls-15" d="M7.224 13H.574v-1.106H1.68V5.006H.574V3.9H4.4v1.106H2.954v6.888h3.164L6.4 9.906 7.5 10zm1.54-5.782a4.17 4.17 0 0 1 1.127-.469 5.176 5.176 0 0 1 1.209-.133 2.557 2.557 0 0 1 1.687.518 1.958 1.958 0 0 1 .623 1.6v2.9q0 .616.49.616a1.044 1.044 0 0 0 .378-.07l.014.728a1.719 1.719 0 0 1-.91.238q-1.134 0-1.2-1.26v-.014a2.913 2.913 0 0 1-.805.882 2.08 2.08 0 0 1-1.281.392 2.424 2.424 0 0 1-1.281-.392 1.48 1.48 0 0 1-.637-1.372 1.492 1.492 0 0 1 .931-1.547 5.339 5.339 0 0 1 1.991-.377 8.648 8.648 0 0 1 1.078.056v-.462A2.155 2.155 0 0 0 11.942 8q-.238-.434-1.064-.434a2.455 2.455 0 0 0-1.134.238l-.238 1.024-.994-.112zm3.416 3.374v-.364q-.252-.028-.525-.049t-.553-.021a2.962 2.962 0 0 0-1.148.21.842.842 0 0 0-.5.868.831.831 0 0 0 .315.728 1.213 1.213 0 0 0 .721.224 1.744 1.744 0 0 0 1.12-.42 1.59 1.59 0 0 0 .57-1.176zM22.5 13h-3.25v-.952h1.008v-2.7A1.992 1.992 0 0 0 19.894 8a1.245 1.245 0 0 0-.966-.4 1.586 1.586 0 0 0-1.246.518 1.874 1.874 0 0 0-.49 1.2v2.73H18.2V13h-3.248v-.952h1.008v-4.34h-1.05v-.966h2.282v1.064a2.249 2.249 0 0 1 2.128-1.19 2.235 2.235 0 0 1 1.54.56 2.226 2.226 0 0 1 .63 1.75v3.122h1.01zm7.714 0h-2.228v-1.232a2.942 2.942 0 0 1-.819.966 2.216 2.216 0 0 1-1.393.406 2.455 2.455 0 0 1-1.946-.833 3.36 3.36 0 0 1-.728-2.289 4.314 4.314 0 0 1 .665-2.345 2.347 2.347 0 0 1 2.149-1.057 2.191 2.191 0 0 1 2.072 1.12v-3.4h-1.442v-.968H29.2v8.68h1.008zm-2.226-2.884V9.36a1.743 1.743 0 0 0-.532-1.26 1.71 1.71 0 0 0-1.218-.476 1.574 1.574 0 0 0-1.379.672 2.815 2.815 0 0 0-.469 1.652 2.351 2.351 0 0 0 .5 1.624 1.61 1.61 0 0 0 1.246.56 1.587 1.587 0 0 0 1.309-.658 2.351 2.351 0 0 0 .541-1.358zm3.822-4.844V3.83h1.274v1.442zM34.132 13H30.87v-.952h1.022v-4.34h-1.064v-.966h2.3v5.306h1.008zm8.246 0H39.13v-.952h1.008v-2.7A1.992 1.992 0 0 0 39.774 8a1.245 1.245 0 0 0-.966-.4 1.586 1.586 0 0 0-1.246.518 1.874 1.874 0 0 0-.49 1.2v2.73h1.008V13h-3.248v-.952h1.008v-4.34h-1.05v-.966h2.282v1.064a2.458 2.458 0 0 1 3.668-.63 2.226 2.226 0 0 1 .63 1.75v3.122h1.008zm7.672-5.292h-.966v5.138a3.391 3.391 0 0 1-.819 2.38 3.035 3.035 0 0 1-2.359.9 3.693 3.693 0 0 1-1.792-.441 2.282 2.282 0 0 1-1.106-1.421l.952-.49a1.929 1.929 0 0 0 .812 1.008 2.251 2.251 0 0 0 1.162.322 1.809 1.809 0 0 0 1.386-.588 2.4 2.4 0 0 0 .546-1.694v-1.05a2.646 2.646 0 0 1-.8.91 2.3 2.3 0 0 1-1.386.378 2.627 2.627 0 0 1-1.911-.777 3.03 3.03 0 0 1-.791-2.261 4.156 4.156 0 0 1 .7-2.345 2.364 2.364 0 0 1 2.114-1.057 2.179 2.179 0 0 1 2.072 1.106v-.98h2.186zm-2.184 2.464V9.36a1.652 1.652 0 0 0-.5-1.26 1.71 1.71 0 0 0-1.218-.476 1.54 1.54 0 0 0-1.372.665 2.878 2.878 0 0 0-.448 1.645 2.275 2.275 0 0 0 .483 1.6 1.555 1.555 0 0 0 1.183.518 1.681 1.681 0 0 0 1.344-.588 2.07 2.07 0 0 0 .528-1.292zm13.2-3.444a2.738 2.738 0 0 1-.9 2.226 3.381 3.381 0 0 1-2.247.756h-1.667v2.184h1.512V13h-3.892v-1.106h1.106V5.006h-1.106V3.9h3.962a3.247 3.247 0 0 1 2.464.819 2.823 2.823 0 0 1 .77 2.009zm-1.358.028a1.717 1.717 0 0 0-.476-1.281 2.134 2.134 0 0 0-1.54-.469h-1.44v3.612h1.47q1.988 0 1.988-1.862zm2.73.462a4.17 4.17 0 0 1 1.127-.469 5.176 5.176 0 0 1 1.211-.133 2.557 2.557 0 0 1 1.687.518 1.958 1.958 0 0 1 .623 1.6v2.9q0 .616.49.616a1.044 1.044 0 0 0 .378-.07l.014.728a1.719 1.719 0 0 1-.91.238q-1.134 0-1.2-1.26v-.014a2.913 2.913 0 0 1-.805.882 2.08 2.08 0 0 1-1.281.392 2.424 2.424 0 0 1-1.281-.392 1.48 1.48 0 0 1-.637-1.372 1.492 1.492 0 0 1 .931-1.547 5.339 5.339 0 0 1 1.995-.371 8.648 8.648 0 0 1 1.078.056v-.468A2.155 2.155 0 0 0 65.618 8q-.238-.434-1.064-.434a2.455 2.455 0 0 0-1.134.238l-.238 1.022-.994-.112zm3.416 3.374v-.364q-.252-.028-.525-.049t-.553-.021a2.962 2.962 0 0 0-1.148.21.842.842 0 0 0-.5.868.831.831 0 0 0 .315.728 1.213 1.213 0 0 0 .721.224 1.744 1.744 0 0 0 1.12-.42 1.59 1.59 0 0 0 .572-1.176zm9.886-2.884h-.966v5.138a3.391 3.391 0 0 1-.819 2.38 3.035 3.035 0 0 1-2.359.9 3.693 3.693 0 0 1-1.792-.441A2.282 2.282 0 0 1 68.7 14.26l.952-.49a1.929 1.929 0 0 0 .812 1.008 2.251 2.251 0 0 0 1.162.322 1.809 1.809 0 0 0 1.386-.588 2.4 2.4 0 0 0 .546-1.694v-1.05a2.646 2.646 0 0 1-.8.91 2.3 2.3 0 0 1-1.386.378 2.627 2.627 0 0 1-1.911-.777 3.03 3.03 0 0 1-.791-2.261 4.156 4.156 0 0 1 .7-2.345 2.364 2.364 0 0 1 2.114-1.057 2.179 2.179 0 0 1 2.072 1.106v-.98h2.184zm-2.184 2.464V9.36a1.652 1.652 0 0 0-.5-1.26 1.71 1.71 0 0 0-1.218-.476 1.54 1.54 0 0 0-1.372.665 2.878 2.878 0 0 0-.448 1.645 2.275 2.275 0 0 0 .483 1.6 1.555 1.555 0 0 0 1.183.518 1.681 1.681 0 0 0 1.344-.588 2.07 2.07 0 0 0 .528-1.292zm8.61.98a2.125 2.125 0 0 1-.8 1.4 2.867 2.867 0 0 1-1.9.588 3.029 3.029 0 0 1-2.2-.812 3.122 3.122 0 0 1-.84-2.352 3.662 3.662 0 0 1 .784-2.408 2.657 2.657 0 0 1 2.17-.952 2.547 2.547 0 0 1 2 .8 2.851 2.851 0 0 1 .728 1.932 4.073 4.073 0 0 1-.084.8h-4.31q.084 1.988 1.834 1.988a1.546 1.546 0 0 0 1.1-.35 1.723 1.723 0 0 0 .5-.84zm-1.33-1.834a1.858 1.858 0 0 0-.3-1.183 1.29 1.29 0 0 0-1.183-.567 1.354 1.354 0 0 0-1.155.511 2.491 2.491 0 0 0-.469 1.239zM98.35 5.006h-.756L95.144 13h-.98L91.84 6.126h-.056L89.544 13h-.994l-2.6-7.994h-.784V3.9h3.29v1.106H87.3l1.75 5.908h.07l1.96-5.908h-.85V3.9h3.276v1.106h-.826l1.96 5.964h.07l1.61-5.964h-1.232V3.9h3.262zm5.516 6.146a2.125 2.125 0 0 1-.8 1.4 2.867 2.867 0 0 1-1.9.588 3.029 3.029 0 0 1-2.2-.812 3.122 3.122 0 0 1-.84-2.352 3.662 3.662 0 0 1 .784-2.408 2.657 2.657 0 0 1 2.17-.952 2.547 2.547 0 0 1 2 .8 2.851 2.851 0 0 1 .728 1.932 4.074 4.074 0 0 1-.084.8h-4.31q.084 1.988 1.834 1.988a1.546 1.546 0 0 0 1.1-.35 1.723 1.723 0 0 0 .5-.84zm-1.33-1.834a1.858 1.858 0 0 0-.3-1.183 1.29 1.29 0 0 0-1.183-.567 1.354 1.354 0 0 0-1.155.511 2.491 2.491 0 0 0-.469 1.239zm8.848.406a4.327 4.327 0 0 1-.672 2.345 2.341 2.341 0 0 1-2.142 1.071 2.224 2.224 0 0 1-2.142-1.148l-.063.5-.063.5h-1.232q.07-.434.14-.91a6.441 6.441 0 0 0 .07-.938v-6.81h-1.008v-.966h2.24V8a2.924 2.924 0 0 1 .791-.973 2.178 2.178 0 0 1 1.407-.413 2.507 2.507 0 0 1 1.918.812 3.243 3.243 0 0 1 .756 2.298zm-1.288.1a2.4 2.4 0 0 0-.5-1.638 1.589 1.589 0 0 0-1.239-.56 1.61 1.61 0 0 0-1.344.63 2.192 2.192 0 0 0-.5 1.316v.7a1.865 1.865 0 0 0 .5 1.323 1.669 1.669 0 0 0 1.274.539 1.521 1.521 0 0 0 1.358-.672 2.886 2.886 0 0 0 .455-1.64zM9.338 25.436a4.559 4.559 0 0 1-1.218 3.3A4.46 4.46 0 0 1 4.746 30H.574v-1.092H1.68v-6.916H.574V20.9h4.1a4.53 4.53 0 0 1 3.458 1.274 4.558 4.558 0 0 1 1.206 3.262zm-1.358.014a3.589 3.589 0 0 0-.854-2.534 3.208 3.208 0 0 0-2.478-.924H2.954v6.916h1.694A3.249 3.249 0 0 0 7.126 28a3.574 3.574 0 0 0 .854-2.55zm8.064 2.7a2.125 2.125 0 0 1-.8 1.4 2.867 2.867 0 0 1-1.9.588 3.029 3.029 0 0 1-2.2-.812 3.122 3.122 0 0 1-.84-2.352 3.662 3.662 0 0 1 .784-2.408 2.657 2.657 0 0 1 2.17-.952 2.547 2.547 0 0 1 2 .8 2.851 2.851 0 0 1 .728 1.932 4.074 4.074 0 0 1-.084.8h-4.31q.084 1.988 1.834 1.988a1.546 1.546 0 0 0 1.1-.35 1.723 1.723 0 0 0 .5-.84zm-1.33-1.834a1.858 1.858 0 0 0-.3-1.183 1.29 1.29 0 0 0-1.183-.567 1.354 1.354 0 0 0-1.155.511 2.491 2.491 0 0 0-.469 1.239zm7.49 1.848a1.652 1.652 0 0 1-.777 1.456 3.475 3.475 0 0 1-1.967.518 4.613 4.613 0 0 1-2.45-.616l.2-1.512.966.1-.028.812a2.166 2.166 0 0 0 .609.2 3.874 3.874 0 0 0 .651.056 2.549 2.549 0 0 0 1.085-.224.736.736 0 0 0 .483-.7.665.665 0 0 0-.392-.651 3.652 3.652 0 0 0-.973-.287q-.581-.1-1.155-.245a2.227 2.227 0 0 1-.966-.5 1.4 1.4 0 0 1-.392-1.085 1.5 1.5 0 0 1 .777-1.456 3.531 3.531 0 0 1 1.659-.406 4.415 4.415 0 0 1 1.211.161 4.986 4.986 0 0 1 1.029.413l.14 1.512-.98.112-.14-.98a2.831 2.831 0 0 0-1.2-.266 1.676 1.676 0 0 0-.854.2.687.687 0 0 0-.336.644.631.631 0 0 0 .385.616 3.56 3.56 0 0 0 .952.273 10.936 10.936 0 0 1 1.134.245 2.2 2.2 0 0 1 .952.518 1.454 1.454 0 0 1 .373 1.094zm1.89-5.894v-1.44h1.274v1.442zM26.418 30h-3.262v-.952h1.022v-4.34h-1.064v-.966h2.3v5.306h1.008zm7.812-5.292h-.966v5.138a3.391 3.391 0 0 1-.819 2.38 3.035 3.035 0 0 1-2.359.9 3.693 3.693 0 0 1-1.792-.441 2.282 2.282 0 0 1-1.106-1.421l.952-.49a1.929 1.929 0 0 0 .812 1.008 2.251 2.251 0 0 0 1.162.322 1.809 1.809 0 0 0 1.386-.588 2.4 2.4 0 0 0 .546-1.694v-1.05a2.646 2.646 0 0 1-.8.91 2.3 2.3 0 0 1-1.386.378 2.627 2.627 0 0 1-1.911-.777 3.03 3.03 0 0 1-.791-2.261 4.156 4.156 0 0 1 .7-2.345 2.364 2.364 0 0 1 2.114-1.057 2.179 2.179 0 0 1 2.072 1.106v-.98h2.186zm-2.184 2.464v-.812a1.652 1.652 0 0 0-.5-1.26 1.71 1.71 0 0 0-1.218-.476 1.54 1.54 0 0 0-1.372.665 2.878 2.878 0 0 0-.448 1.645 2.275 2.275 0 0 0 .483 1.6 1.555 1.555 0 0 0 1.183.518 1.681 1.681 0 0 0 1.344-.588 2.07 2.07 0 0 0 .528-1.292zM42.42 30h-3.248v-.952h1.008v-2.7A1.992 1.992 0 0 0 39.816 25a1.245 1.245 0 0 0-.966-.4 1.586 1.586 0 0 0-1.246.518 1.874 1.874 0 0 0-.49 1.2v2.73h1.008V30h-3.248v-.952h1.008v-4.34h-1.05v-.966h2.282v1.064a2.458 2.458 0 0 1 3.668-.63 2.226 2.226 0 0 1 .63 1.75v3.122h1.008z" transform="translate(48 358)"/><path id="Path_714" data-name="Path 714" class="cls-14" d="M5.69-4.43a1.94 1.94 0 0 1-.685 1.615 2.561 2.561 0 0 1-1.645.545h-1.1v1.32H3.3V0H.4v-.95h.75v-4.6H.4v-.95h2.9a2.476 2.476 0 0 1 1.8.58 2 2 0 0 1 .59 1.49zm-1.19.02a1.125 1.125 0 0 0-.305-.84 1.432 1.432 0 0 0-1.025-.3h-.91v2.34h.91a1.362 1.362 0 0 0 1.02-.325 1.215 1.215 0 0 0 .31-.875zm4.42-.15a1.528 1.528 0 0 1 .84.25l.19 1.4-.83.1-.17-.77a.793.793 0 0 0-.34-.1.63.63 0 0 0-.485.23.928.928 0 0 0-.2.64v1.99h.89V0H6.18v-.82h.67v-2.84h-.7v-.83h1.69v.84a1.56 1.56 0 0 1 .385-.65.94.94 0 0 1 .695-.26zm6.23 2.32a2.254 2.254 0 0 1-.665 1.7A2.374 2.374 0 0 1 12.76.1a2.247 2.247 0 0 1-1.655-.62 2.26 2.26 0 0 1-.625-1.68 2.541 2.541 0 0 1 .59-1.685 2.152 2.152 0 0 1 1.75-.705 2.142 2.142 0 0 1 1.75.7 2.506 2.506 0 0 1 .58 1.65zm-1.11-.03a1.583 1.583 0 0 0-.345-1.1 1.153 1.153 0 0 0-.895-.38 1.071 1.071 0 0 0-.89.4 1.7 1.7 0 0 0-.32 1.085 1.85 1.85 0 0 0 .31 1.085 1.029 1.029 0 0 0 .9.44 1.088 1.088 0 0 0 .91-.425 1.75 1.75 0 0 0 .33-1.105zm2.26-3.15V-6.6h1.09v1.18zm1.09 5.37a2.718 2.718 0 0 1-.5 1.83 1.819 1.819 0 0 1-1.62.45l-.03-.73a1.268 1.268 0 0 0 .745-.235q.335-.235.335-1.315v-3.61h-.81v-.83h1.88zm5.14-1.32a1.53 1.53 0 0 1-.58 1.03 2.145 2.145 0 0 1-1.43.44 2.3 2.3 0 0 1-1.61-.575 2.18 2.18 0 0 1-.63-1.695 2.6 2.6 0 0 1 .575-1.72 1.974 1.974 0 0 1 1.605-.69 1.973 1.973 0 0 1 1.475.555 1.958 1.958 0 0 1 .555 1.405 3.265 3.265 0 0 1-.06.6H19.4q.09 1.26 1.2 1.26a.961.961 0 0 0 .745-.25 1.243 1.243 0 0 0 .295-.53zm-1.14-1.31a1.16 1.16 0 0 0-.185-.755.824.824 0 0 0-.755-.355.87.87 0 0 0-.73.32 1.581 1.581 0 0 0-.31.79zm5.85 1.07a2.205 2.205 0 0 1-.53 1.155A1.816 1.816 0 0 1 25.23.1a2.168 2.168 0 0 1-1.565-.58 2.233 2.233 0 0 1-.6-1.69 2.44 2.44 0 0 1 .625-1.75 2.148 2.148 0 0 1 1.635-.66 3.288 3.288 0 0 1 .8.1 2.974 2.974 0 0 1 .79.33l.18 1.26-.86.09-.15-.74a1.761 1.761 0 0 0-.78-.18q-1.12 0-1.12 1.5 0 1.46 1.15 1.46.84 0 1.01-1.02zm4.13.29A1.446 1.446 0 0 1 29.79.1a1.654 1.654 0 0 1-1.145-.38 1.348 1.348 0 0 1-.425-1.06V-3.7h-.66v-.79h.66v-1.39h1.07v1.39h1.67v.79h-1.67v2.19q0 .71.62.71a.76.76 0 0 0 .38-.125q.21-.125.29-.645zm9.21-4.23h-.75V0l-.64.01-3.6-4.51h-.04v3.55h.95V0h-2.71v-.95h.72v-4.6h-.82v-.95h1.63l3.43 4.3h.04v-3.35h-.95v-.95h2.74zm.78 1.39a4.383 4.383 0 0 1 .89-.33 4.028 4.028 0 0 1 .9-.09 1.942 1.942 0 0 1 1.235.38 1.359 1.359 0 0 1 .485 1.14v2.02q0 .4.33.4a.875.875 0 0 0 .23-.04l.01.59a1.418 1.418 0 0 1-.72.19.841.841 0 0 1-.92-.89v-.02a2.13 2.13 0 0 1-.565.63 1.443 1.443 0 0 1-.9.28 1.725 1.725 0 0 1-.925-.285 1.08 1.08 0 0 1-.455-1 1.059 1.059 0 0 1 .66-1.1 3.8 3.8 0 0 1 1.43-.265q.19 0 .39.01t.37.03v-.25a1.779 1.779 0 0 0-.14-.72q-.14-.32-.7-.32a2.469 2.469 0 0 0-.395.03 1.147 1.147 0 0 0-.355.12l-.18.69-.86-.09zm2.44 2.38v-.16l-.35-.04a3.349 3.349 0 0 0-.37-.02 1.743 1.743 0 0 0-.715.14.551.551 0 0 0-.315.56q0 .61.65.61a1.128 1.128 0 0 0 .72-.275 1.1 1.1 0 0 0 .38-.815zM54.2 0h-1.98v-.82h.25v-1.76a1.41 1.41 0 0 0-.225-.905.787.787 0 0 0-.635-.265.871.871 0 0 0-.775.36 1.483 1.483 0 0 0-.255.82v1.75h.67V0h-1.98v-.82h.24v-1.76a1.41 1.41 0 0 0-.225-.905.776.776 0 0 0-.625-.265.878.878 0 0 0-.77.355 1.437 1.437 0 0 0-.26.815v1.76h.84V0h-2.58v-.82h.67v-2.84h-.66v-.83h1.73v.74a1.727 1.727 0 0 1 .56-.6 1.514 1.514 0 0 1 .85-.23 1.689 1.689 0 0 1 .9.245 1.3 1.3 0 0 1 .56.765 1.744 1.744 0 0 1 .58-.735 1.544 1.544 0 0 1 .93-.275 1.6 1.6 0 0 1 1.07.39 1.513 1.513 0 0 1 .46 1.22v2.15h.66zm4.63-1.37a1.53 1.53 0 0 1-.58 1.03 2.145 2.145 0 0 1-1.43.44 2.3 2.3 0 0 1-1.61-.575 2.18 2.18 0 0 1-.63-1.695 2.6 2.6 0 0 1 .575-1.72 1.974 1.974 0 0 1 1.6-.69 1.973 1.973 0 0 1 1.475.555 1.958 1.958 0 0 1 .56 1.405 3.265 3.265 0 0 1-.06.6H55.7q.09 1.26 1.2 1.26a.961.961 0 0 0 .745-.25 1.243 1.243 0 0 0 .3-.53zm-1.14-1.31a1.16 1.16 0 0 0-.185-.755.824.824 0 0 0-.755-.355.87.87 0 0 0-.73.32 1.581 1.581 0 0 0-.31.79z" transform="translate(48 353)"/><path id="Path_715" data-name="Path 715" class="cls-14" d="M6.18-4.38l-.96.08-.2-1.25H3.75v4.6h1.09V0H1.59v-.95h1.05v-4.6H1.36l-.2 1.25-.95-.08.2-2.12h5.57zm1.15-1.04V-6.6h1.09v1.18zM9.12 0h-2.4v-.82h.67v-2.84h-.71v-.83h1.77v3.67h.67zm8.79 0h-1.98v-.82h.25v-1.76a1.41 1.41 0 0 0-.225-.905.787.787 0 0 0-.635-.265.871.871 0 0 0-.775.36 1.483 1.483 0 0 0-.255.82v1.75h.67V0h-1.98v-.82h.24v-1.76a1.41 1.41 0 0 0-.22-.905.776.776 0 0 0-.625-.265.878.878 0 0 0-.77.355 1.437 1.437 0 0 0-.26.815v1.76h.84V0H9.6v-.82h.67v-2.84h-.66v-.83h1.73v.74a1.727 1.727 0 0 1 .56-.6 1.514 1.514 0 0 1 .85-.23 1.689 1.689 0 0 1 .9.245 1.3 1.3 0 0 1 .56.765 1.744 1.744 0 0 1 .58-.735 1.544 1.544 0 0 1 .93-.275 1.6 1.6 0 0 1 1.07.39 1.513 1.513 0 0 1 .46 1.22v2.15h.66zm4.63-1.37a1.53 1.53 0 0 1-.58 1.03 2.145 2.145 0 0 1-1.43.44 2.3 2.3 0 0 1-1.61-.575 2.18 2.18 0 0 1-.63-1.695 2.6 2.6 0 0 1 .575-1.72 1.974 1.974 0 0 1 1.605-.69 1.973 1.973 0 0 1 1.475.555A1.958 1.958 0 0 1 22.5-2.62a3.265 3.265 0 0 1-.06.6h-3.03q.09 1.26 1.2 1.26a.961.961 0 0 0 .745-.25 1.243 1.243 0 0 0 .3-.53zM21.4-2.68a1.16 1.16 0 0 0-.185-.755.824.824 0 0 0-.755-.355.87.87 0 0 0-.73.32 1.581 1.581 0 0 0-.31.79z" transform="translate(200 353)"/><g filter="url(#Path_716)"><path id="Path_716-2" data-name="Path 716" class="cls-2" d="M2 0h324a2 2 0 0 1 2 2v67a2 2 0 0 1-2 2H2a2 2 0 0 1-2-2V2a2 2 0 0 1 2-2z" transform="translate(32 419)"/></g><path id="Path_717" data-name="Path 717" class="cls-14" d="M-17.544 0h-3.624v-9.912q0-.6.024-1.62t.072-1.788q-.12.144-.516.516t-.732.66l-1.968 1.584-1.752-2.184 5.52-4.392h2.976zm13.728 0H-7.44v-9.912q0-.6.024-1.62t.072-1.788q-.12.144-.516.516t-.732.66l-1.968 1.584-1.752-2.184 5.52-4.392h2.976z" transform="translate(227 471)"/><path id="Path_718" data-name="Path 718" class="cls-14" d="M-20.256-10.944a6.244 6.244 0 0 1 2.784.6 4.6 4.6 0 0 1 1.932 1.752 5.362 5.362 0 0 1 .708 2.856 5.668 5.668 0 0 1-1.728 4.38A7.291 7.291 0 0 1-21.672.24 12.774 12.774 0 0 1-24.2 0a8 8 0 0 1-2.08-.7v-3.12a10.435 10.435 0 0 0 2.136.78 9.377 9.377 0 0 0 2.352.324 3.952 3.952 0 0 0 2.46-.66 2.433 2.433 0 0 0 .852-2.052q0-2.592-3.432-2.592a7.717 7.717 0 0 0-1.392.132q-.72.132-1.2.252l-1.44-.768.648-8.736h9.288v3.072h-6.12l-.312 3.36.876-.156a7.836 7.836 0 0 1 1.308-.08zM-.408-3.552h-2.064V0H-6v-3.552h-7.32v-2.52l7.512-11.064h3.336V-6.36h2.064zM-6-6.36v-2.9q0-.552.024-1.344t.06-1.476q.036-.684.06-.9h-.1q-.216.48-.468.936t-.564.936l-3.14 4.748z" transform="translate(296 471)"/><path id="Path_719" data-name="Path 719" class="cls-15" d="M13.224 0H7.8v-1.368h1.872v-4.968a3.383 3.383 0 0 0-.708-2.436 2.454 2.454 0 0 0-1.812-.708 2.947 2.947 0 0 0-2.268.948 3.259 3.259 0 0 0-.924 2.124v5.04h1.848V0h-5.4v-1.368h1.848v-13.776H.408v-1.368H3.96v7.752A3.967 3.967 0 0 1 7.7-10.9a3.744 3.744 0 0 1 2.616.96 4 4 0 0 1 1.056 3.1v5.472h1.848zm7.032-10.872a2.789 2.789 0 0 1 1.824.552l.408 2.688-1.368.168-.408-1.824a2.438 2.438 0 0 0-.816-.144 1.921 1.921 0 0 0-1.56.78 3.147 3.147 0 0 0-.624 2.028v5.256h2.472V0H14.16v-1.368h1.872v-7.944h-1.92v-1.368h3.5v1.92a3.469 3.469 0 0 1 1.02-1.5 2.407 2.407 0 0 1 1.624-.612zM33.1-3.1a2.8 2.8 0 0 1-1.312 2.452A5.615 5.615 0 0 1 28.56.24a8.61 8.61 0 0 1-2.244-.3A6.3 6.3 0 0 1 24.5-.816l.34-2.424 1.344.144-.072 1.416a5.436 5.436 0 0 0 2.376.528 4.372 4.372 0 0 0 2-.444 1.44 1.44 0 0 0 .876-1.356A1.3 1.3 0 0 0 30.7-4.2a5.457 5.457 0 0 0-1.668-.528q-1-.168-2-.408a3.859 3.859 0 0 1-1.68-.828 2.315 2.315 0 0 1-.68-1.836 2.517 2.517 0 0 1 1.248-2.4 5.476 5.476 0 0 1 2.712-.7 7.274 7.274 0 0 1 2.076.288 7.006 7.006 0 0 1 1.644.7l.264 2.5-1.392.168-.264-1.732a4.636 4.636 0 0 0-2.184-.524 3.211 3.211 0 0 0-1.656.384 1.3 1.3 0 0 0-.648 1.2 1.228 1.228 0 0 0 .672 1.188 5.465 5.465 0 0 0 1.656.5q.984.156 1.968.4a3.718 3.718 0 0 1 1.656.852A2.427 2.427 0 0 1 33.1-3.1z" transform="translate(227 470)"/><path id="Path_720" data-name="Path 720" class="cls-15" d="M20.5 0h-5.116v-1.368h1.56v-4.968a3.464 3.464 0 0 0-.684-2.436 2.315 2.315 0 0 0-1.74-.708 2.61 2.61 0 0 0-2.256 1.1 3.821 3.821 0 0 0-.816 2.112v4.9H13.3V0H8.208v-1.368h1.536v-4.968a3.5 3.5 0 0 0-.672-2.448 2.267 2.267 0 0 0-1.7-.7A2.634 2.634 0 0 0 5.1-8.412a3.882 3.882 0 0 0-.828 2.1v4.944H6.24V0H.72v-1.368h1.872v-7.944H.7v-1.368h3.572v1.992a4.646 4.646 0 0 1 1.416-1.584 3.662 3.662 0 0 1 2.16-.624 3.788 3.788 0 0 1 2.172.624 3.177 3.177 0 0 1 1.26 1.944 4.477 4.477 0 0 1 1.428-1.848 3.756 3.756 0 0 1 2.34-.72 3.584 3.584 0 0 1 2.556.96 4.087 4.087 0 0 1 1.02 3.1v5.472H20.5zm2.736-13.44v-2.184h1.824v2.184zM26.952 0h-5.424v-1.368H23.4v-7.944h-1.92v-1.368h3.6v9.312h1.872zm14.016 0h-5.4v-1.368h1.848v-4.968a3.422 3.422 0 0 0-.7-2.436 2.384 2.384 0 0 0-1.776-.708 3 3 0 0 0-2.316.948A3.31 3.31 0 0 0 31.7-6.36v4.992h1.872V0h-5.42v-1.368h1.872v-7.944H28.1v-1.368h3.6v1.9a3.944 3.944 0 0 1 3.748-2.12 3.744 3.744 0 0 1 2.616.96 4 4 0 0 1 1.056 3.1v5.472h1.848z" transform="translate(296 470)"/><path id="Path_721" data-name="Path 721" class="cls-15" d="M7.77 6.728a2.738 2.738 0 0 1-.9 2.226 3.381 3.381 0 0 1-2.25.756H2.954v2.184h1.512V13H.574v-1.106H1.68V5.006H.574V3.9h3.962A3.247 3.247 0 0 1 7 4.719a2.823 2.823 0 0 1 .77 2.009zm-1.358.028a1.717 1.717 0 0 0-.476-1.281A2.134 2.134 0 0 0 4.4 5.006H2.954v3.612h1.47q1.988 0 1.988-1.862zm7.658 4.4a2.125 2.125 0 0 1-.8 1.4 2.867 2.867 0 0 1-1.9.588 3.029 3.029 0 0 1-2.2-.812 3.122 3.122 0 0 1-.84-2.352 3.662 3.662 0 0 1 .784-2.408 2.657 2.657 0 0 1 2.17-.952 2.547 2.547 0 0 1 2 .8 2.851 2.851 0 0 1 .728 1.932 4.074 4.074 0 0 1-.084.8h-4.31q.084 1.988 1.834 1.988a1.546 1.546 0 0 0 1.1-.35 1.723 1.723 0 0 0 .5-.84zm-1.33-1.838a1.858 1.858 0 0 0-.3-1.183 1.29 1.29 0 0 0-1.183-.567 1.354 1.354 0 0 0-1.155.511 2.491 2.491 0 0 0-.469 1.239zm5.866-2.674a1.853 1.853 0 0 1 1.12.336l.252 1.75-.966.112-.238-1.078a1.275 1.275 0 0 0-.49-.1.988.988 0 0 0-.8.4 1.61 1.61 0 0 0-.322 1.043v2.94h1.344V13h-3.582v-.952h1.008v-4.34h-1.05v-.966h2.2V7.89a2.128 2.128 0 0 1 .565-.89 1.357 1.357 0 0 1 .959-.356zm7.588 4.522a1.652 1.652 0 0 1-.777 1.456 3.475 3.475 0 0 1-1.967.518 4.613 4.613 0 0 1-2.45-.616l.2-1.512.966.1-.028.812a2.166 2.166 0 0 0 .609.2 3.874 3.874 0 0 0 .651.056 2.549 2.549 0 0 0 1.085-.224.736.736 0 0 0 .483-.7.665.665 0 0 0-.392-.651 3.652 3.652 0 0 0-.973-.287q-.581-.1-1.155-.245a2.227 2.227 0 0 1-.966-.5 1.4 1.4 0 0 1-.392-1.085 1.5 1.5 0 0 1 .777-1.456 3.531 3.531 0 0 1 1.659-.406 4.415 4.415 0 0 1 1.211.161 4.986 4.986 0 0 1 1.029.413l.136 1.5-.98.112-.14-.98a2.831 2.831 0 0 0-1.2-.266 1.676 1.676 0 0 0-.854.2.687.687 0 0 0-.336.644.631.631 0 0 0 .385.616 3.56 3.56 0 0 0 .952.273 10.937 10.937 0 0 1 1.134.245 2.2 2.2 0 0 1 .952.518 1.454 1.454 0 0 1 .381 1.104zm7.266-1.288a3.224 3.224 0 0 1-.889 2.352 3.13 3.13 0 0 1-2.345.91 2.961 2.961 0 0 1-2.261-.882 3.246 3.246 0 0 1-.833-2.324 3.607 3.607 0 0 1 .8-2.352 2.889 2.889 0 0 1 2.38-.98 2.857 2.857 0 0 1 2.366.973 3.558 3.558 0 0 1 .782 2.303zm-1.288-.042a2.45 2.45 0 0 0-.511-1.636 1.715 1.715 0 0 0-1.379-.6 1.642 1.642 0 0 0-1.393.637 2.625 2.625 0 0 0-.483 1.631 2.734 2.734 0 0 0 .469 1.617 1.594 1.594 0 0 0 1.393.665 1.666 1.666 0 0 0 1.407-.651 2.656 2.656 0 0 0 .497-1.663zM41.874 13h-3.248v-.952h1.008v-2.7A1.992 1.992 0 0 0 39.27 8a1.245 1.245 0 0 0-.966-.4 1.586 1.586 0 0 0-1.246.518 1.874 1.874 0 0 0-.49 1.2v2.73h1.008V13h-3.248v-.952h1.008v-4.34h-1.05v-.966h2.282v1.064a2.458 2.458 0 0 1 3.668-.63 2.226 2.226 0 0 1 .63 1.75v3.122h1.008zm1.232-5.782a4.17 4.17 0 0 1 1.127-.469 5.176 5.176 0 0 1 1.211-.133 2.557 2.557 0 0 1 1.687.518 1.958 1.958 0 0 1 .623 1.6v2.9q0 .616.49.616a1.044 1.044 0 0 0 .378-.07l.014.728a1.719 1.719 0 0 1-.91.238q-1.134 0-1.2-1.26v-.014a2.913 2.913 0 0 1-.805.882 2.08 2.08 0 0 1-1.281.392 2.424 2.424 0 0 1-1.281-.392 1.48 1.48 0 0 1-.637-1.372 1.492 1.492 0 0 1 .931-1.547 5.339 5.339 0 0 1 1.995-.371 8.648 8.648 0 0 1 1.078.056v-.468A2.155 2.155 0 0 0 46.284 8q-.238-.434-1.064-.434a2.455 2.455 0 0 0-1.134.238l-.238 1.022-.994-.112zm3.416 3.374v-.364q-.252-.028-.522-.049t-.553-.021a2.962 2.962 0 0 0-1.148.21.842.842 0 0 0-.5.868.831.831 0 0 0 .315.728 1.213 1.213 0 0 0 .721.224 1.744 1.744 0 0 0 1.12-.42 1.59 1.59 0 0 0 .567-1.176zM52.4 13h-3.246v-.952h1.008V4.334h-1.05v-.966h2.282v8.68H52.4zm11.076-6.272a2.738 2.738 0 0 1-.9 2.226 3.381 3.381 0 0 1-2.247.756H58.66v2.184h1.512V13H56.28v-1.106h1.106V5.006H56.28V3.9h3.962a3.247 3.247 0 0 1 2.464.819 2.823 2.823 0 0 1 .77 2.009zm-1.358.028a1.717 1.717 0 0 0-.476-1.281 2.134 2.134 0 0 0-1.54-.469H58.66v3.612h1.47q1.988 0 1.988-1.862zm8.232 3.122a3.224 3.224 0 0 1-.889 2.352 3.13 3.13 0 0 1-2.345.91 2.961 2.961 0 0 1-2.261-.882 3.246 3.246 0 0 1-.833-2.324 3.607 3.607 0 0 1 .8-2.352A2.889 2.889 0 0 1 67.2 6.6a2.857 2.857 0 0 1 2.366.973 3.558 3.558 0 0 1 .784 2.305zm-1.288-.042a2.45 2.45 0 0 0-.511-1.636 1.715 1.715 0 0 0-1.379-.6 1.642 1.642 0 0 0-1.393.637 2.625 2.625 0 0 0-.479 1.627 2.734 2.734 0 0 0 .469 1.617 1.594 1.594 0 0 0 1.393.665 1.666 1.666 0 0 0 1.407-.651 2.656 2.656 0 0 0 .493-1.659zM74.9 6.644a1.853 1.853 0 0 1 1.12.336l.252 1.75-.966.112-.238-1.078a1.275 1.275 0 0 0-.49-.1.988.988 0 0 0-.8.4 1.61 1.61 0 0 0-.322 1.043v2.94H74.8V13h-3.582v-.952h1.008v-4.34h-1.05v-.966h2.2V7.89a2.128 2.128 0 0 1 .565-.89 1.357 1.357 0 0 1 .959-.356zm7.154 4.592a1.938 1.938 0 0 1-2.1 1.9 2.066 2.066 0 0 1-1.505-.525 1.948 1.948 0 0 1-.539-1.463V7.68h-.966v-.938h.966V4.768h1.218v1.974h2.394v.938h-2.394v3.29q0 1.12.966 1.12a1.113 1.113 0 0 0 .616-.2 1.383 1.383 0 0 0 .434-.945zm3.682-8.008a3.48 3.48 0 0 1 .833.1 1.929 1.929 0 0 1 .749.378l.252 1.524-.98.126-.266-1.05a2.073 2.073 0 0 0-.658-.1q-.994 0-.994 1.288v1.248h1.61v.938h-1.61v4.368h1.316V13h-3.556v-.952h1.022V7.68h-.868v-.938h.868V5.636A2.4 2.4 0 0 1 84.1 3.9a2.171 2.171 0 0 1 1.636-.672zm7.588 6.65a3.224 3.224 0 0 1-.889 2.352 3.13 3.13 0 0 1-2.345.91 2.961 2.961 0 0 1-2.261-.882A3.246 3.246 0 0 1 87 9.934a3.607 3.607 0 0 1 .8-2.352 2.889 2.889 0 0 1 2.38-.98 2.857 2.857 0 0 1 2.366.973 3.558 3.558 0 0 1 .778 2.303zm-1.288-.042a2.45 2.45 0 0 0-.511-1.636 1.715 1.715 0 0 0-1.379-.6 1.642 1.642 0 0 0-1.393.637 2.625 2.625 0 0 0-.483 1.631 2.734 2.734 0 0 0 .469 1.617 1.594 1.594 0 0 0 1.393.665 1.666 1.666 0 0 0 1.407-.651 2.656 2.656 0 0 0 .497-1.663zM97.3 13h-3.248v-.952h1.008V4.334h-1.05v-.966h2.282v8.68H97.3zm1.68-7.728V3.83h1.274v1.442zM101.3 13h-3.258v-.952h1.022v-4.34H98v-.966h2.3v5.306h1zm7.056-3.122a3.224 3.224 0 0 1-.889 2.352 3.13 3.13 0 0 1-2.345.91 2.961 2.961 0 0 1-2.261-.882 3.246 3.246 0 0 1-.833-2.324 3.607 3.607 0 0 1 .8-2.352 2.889 2.889 0 0 1 2.38-.98 2.857 2.857 0 0 1 2.366.973 3.558 3.558 0 0 1 .786 2.303zm-1.288-.042a2.45 2.45 0 0 0-.511-1.638 1.715 1.715 0 0 0-1.379-.6 1.642 1.642 0 0 0-1.393.637 2.625 2.625 0 0 0-.483 1.631 2.734 2.734 0 0 0 .469 1.617 1.594 1.594 0 0 0 1.393.665 1.666 1.666 0 0 0 1.407-.651 2.656 2.656 0 0 0 .501-1.661z" transform="translate(48 445)"/><path id="Path_722" data-name="Path 722" class="cls-14" d="M5.69-4.43a1.94 1.94 0 0 1-.685 1.615 2.561 2.561 0 0 1-1.645.545h-1.1v1.32H3.3V0H.4v-.95h.75v-4.6H.4v-.95h2.9a2.476 2.476 0 0 1 1.8.58 2 2 0 0 1 .59 1.49zm-1.19.02a1.125 1.125 0 0 0-.305-.84 1.432 1.432 0 0 0-1.025-.3h-.91v2.34h.91a1.362 1.362 0 0 0 1.02-.325 1.215 1.215 0 0 0 .31-.875zm4.42-.15a1.528 1.528 0 0 1 .84.25l.19 1.4-.83.1-.17-.77a.793.793 0 0 0-.34-.1.63.63 0 0 0-.485.23.928.928 0 0 0-.2.64v1.99h.89V0H6.18v-.82h.67v-2.84h-.7v-.83h1.69v.84a1.56 1.56 0 0 1 .385-.65.94.94 0 0 1 .695-.26zm6.23 2.32a2.254 2.254 0 0 1-.665 1.7A2.374 2.374 0 0 1 12.76.1a2.247 2.247 0 0 1-1.655-.62 2.26 2.26 0 0 1-.625-1.68 2.541 2.541 0 0 1 .59-1.685 2.152 2.152 0 0 1 1.75-.705 2.142 2.142 0 0 1 1.75.7 2.506 2.506 0 0 1 .58 1.65zm-1.11-.03a1.583 1.583 0 0 0-.345-1.1 1.153 1.153 0 0 0-.895-.38 1.071 1.071 0 0 0-.89.4 1.7 1.7 0 0 0-.32 1.085 1.85 1.85 0 0 0 .31 1.085 1.029 1.029 0 0 0 .9.44 1.088 1.088 0 0 0 .91-.425 1.75 1.75 0 0 0 .33-1.105zm2.26-3.15V-6.6h1.09v1.18zm1.09 5.37a2.718 2.718 0 0 1-.5 1.83 1.819 1.819 0 0 1-1.62.45l-.03-.73a1.268 1.268 0 0 0 .745-.235q.335-.235.335-1.315v-3.61h-.81v-.83h1.88zm5.14-1.32a1.53 1.53 0 0 1-.58 1.03 2.145 2.145 0 0 1-1.43.44 2.3 2.3 0 0 1-1.61-.575 2.18 2.18 0 0 1-.63-1.695 2.6 2.6 0 0 1 .575-1.72 1.974 1.974 0 0 1 1.605-.69 1.973 1.973 0 0 1 1.475.555 1.958 1.958 0 0 1 .555 1.405 3.265 3.265 0 0 1-.06.6H19.4q.09 1.26 1.2 1.26a.961.961 0 0 0 .745-.25 1.243 1.243 0 0 0 .295-.53zm-1.14-1.31a1.16 1.16 0 0 0-.185-.755.824.824 0 0 0-.755-.355.87.87 0 0 0-.73.32 1.581 1.581 0 0 0-.31.79zm5.85 1.07a2.205 2.205 0 0 1-.53 1.155A1.816 1.816 0 0 1 25.23.1a2.168 2.168 0 0 1-1.565-.58 2.233 2.233 0 0 1-.6-1.69 2.44 2.44 0 0 1 .625-1.75 2.148 2.148 0 0 1 1.635-.66 3.288 3.288 0 0 1 .8.1 2.974 2.974 0 0 1 .79.33l.18 1.26-.86.09-.15-.74a1.761 1.761 0 0 0-.78-.18q-1.12 0-1.12 1.5 0 1.46 1.15 1.46.84 0 1.01-1.02zm4.13.29A1.446 1.446 0 0 1 29.79.1a1.654 1.654 0 0 1-1.145-.38 1.348 1.348 0 0 1-.425-1.06V-3.7h-.66v-.79h.66v-1.39h1.07v1.39h1.67v.79h-1.67v2.19q0 .71.62.71a.76.76 0 0 0 .38-.125q.21-.125.29-.645zm9.21-4.23h-.75V0l-.64.01-3.6-4.51h-.04v3.55h.95V0h-2.71v-.95h.72v-4.6h-.82v-.95h1.63l3.43 4.3h.04v-3.35h-.95v-.95h2.74zm.78 1.39a4.383 4.383 0 0 1 .89-.33 4.028 4.028 0 0 1 .9-.09 1.942 1.942 0 0 1 1.235.38 1.359 1.359 0 0 1 .485 1.14v2.02q0 .4.33.4a.875.875 0 0 0 .23-.04l.01.59a1.418 1.418 0 0 1-.72.19.841.841 0 0 1-.92-.89v-.02a2.13 2.13 0 0 1-.565.63 1.443 1.443 0 0 1-.9.28 1.725 1.725 0 0 1-.925-.285 1.08 1.08 0 0 1-.455-1 1.059 1.059 0 0 1 .66-1.1 3.8 3.8 0 0 1 1.43-.265q.19 0 .39.01t.37.03v-.25a1.779 1.779 0 0 0-.14-.72q-.14-.32-.7-.32a2.469 2.469 0 0 0-.395.03 1.147 1.147 0 0 0-.355.12l-.18.69-.86-.09zm2.44 2.38v-.16l-.35-.04a3.349 3.349 0 0 0-.37-.02 1.743 1.743 0 0 0-.715.14.551.551 0 0 0-.315.56q0 .61.65.61a1.128 1.128 0 0 0 .72-.275 1.1 1.1 0 0 0 .38-.815zM54.2 0h-1.98v-.82h.25v-1.76a1.41 1.41 0 0 0-.225-.905.787.787 0 0 0-.635-.265.871.871 0 0 0-.775.36 1.483 1.483 0 0 0-.255.82v1.75h.67V0h-1.98v-.82h.24v-1.76a1.41 1.41 0 0 0-.225-.905.776.776 0 0 0-.625-.265.878.878 0 0 0-.77.355 1.437 1.437 0 0 0-.26.815v1.76h.84V0h-2.58v-.82h.67v-2.84h-.66v-.83h1.73v.74a1.727 1.727 0 0 1 .56-.6 1.514 1.514 0 0 1 .85-.23 1.689 1.689 0 0 1 .9.245 1.3 1.3 0 0 1 .56.765 1.744 1.744 0 0 1 .58-.735 1.544 1.544 0 0 1 .93-.275 1.6 1.6 0 0 1 1.07.39 1.513 1.513 0 0 1 .46 1.22v2.15h.66zm4.63-1.37a1.53 1.53 0 0 1-.58 1.03 2.145 2.145 0 0 1-1.43.44 2.3 2.3 0 0 1-1.61-.575 2.18 2.18 0 0 1-.63-1.695 2.6 2.6 0 0 1 .575-1.72 1.974 1.974 0 0 1 1.6-.69 1.973 1.973 0 0 1 1.475.555 1.958 1.958 0 0 1 .56 1.405 3.265 3.265 0 0 1-.06.6H55.7q.09 1.26 1.2 1.26a.961.961 0 0 0 .745-.25 1.243 1.243 0 0 0 .3-.53zm-1.14-1.31a1.16 1.16 0 0 0-.185-.755.824.824 0 0 0-.755-.355.87.87 0 0 0-.73.32 1.581 1.581 0 0 0-.31.79z" transform="translate(48 440)"/><path id="Path_723" data-name="Path 723" class="cls-14" d="M6.18-4.38l-.96.08-.2-1.25H3.75v4.6h1.09V0H1.59v-.95h1.05v-4.6H1.36l-.2 1.25-.95-.08.2-2.12h5.57zm1.15-1.04V-6.6h1.09v1.18zM9.12 0h-2.4v-.82h.67v-2.84h-.71v-.83h1.77v3.67h.67zm8.79 0h-1.98v-.82h.25v-1.76a1.41 1.41 0 0 0-.225-.905.787.787 0 0 0-.635-.265.871.871 0 0 0-.775.36 1.483 1.483 0 0 0-.255.82v1.75h.67V0h-1.98v-.82h.24v-1.76a1.41 1.41 0 0 0-.22-.905.776.776 0 0 0-.625-.265.878.878 0 0 0-.77.355 1.437 1.437 0 0 0-.26.815v1.76h.84V0H9.6v-.82h.67v-2.84h-.66v-.83h1.73v.74a1.727 1.727 0 0 1 .56-.6 1.514 1.514 0 0 1 .85-.23 1.689 1.689 0 0 1 .9.245 1.3 1.3 0 0 1 .56.765 1.744 1.744 0 0 1 .58-.735 1.544 1.544 0 0 1 .93-.275 1.6 1.6 0 0 1 1.07.39 1.513 1.513 0 0 1 .46 1.22v2.15h.66zm4.63-1.37a1.53 1.53 0 0 1-.58 1.03 2.145 2.145 0 0 1-1.43.44 2.3 2.3 0 0 1-1.61-.575 2.18 2.18 0 0 1-.63-1.695 2.6 2.6 0 0 1 .575-1.72 1.974 1.974 0 0 1 1.605-.69 1.973 1.973 0 0 1 1.475.555A1.958 1.958 0 0 1 22.5-2.62a3.265 3.265 0 0 1-.06.6h-3.03q.09 1.26 1.2 1.26a.961.961 0 0 0 .745-.25 1.243 1.243 0 0 0 .3-.53zM21.4-2.68a1.16 1.16 0 0 0-.185-.755.824.824 0 0 0-.755-.355.87.87 0 0 0-.73.32 1.581 1.581 0 0 0-.31.79z" transform="translate(200 440)"/><g filter="url(#Path_724)"><path id="Path_724-2" data-name="Path 724" class="cls-2" d="M2 0h324a2 2 0 0 1 2 2v67a2 2 0 0 1-2 2H2a2 2 0 0 1-2-2V2a2 2 0 0 1 2-2z" transform="translate(32 506)"/></g><path id="Path_725" data-name="Path 725" class="cls-14" d="M-14.616-8.568A16.653 16.653 0 0 1-15.2-3.84a5.9 5.9 0 0 1-1.912 3.024A5.445 5.445 0 0 1-20.616.24a4.944 4.944 0 0 1-4.536-2.328 12.312 12.312 0 0 1-1.44-6.48 17.11 17.11 0 0 1 .576-4.74 5.841 5.841 0 0 1 1.9-3.036 5.445 5.445 0 0 1 3.5-1.056 4.979 4.979 0 0 1 4.536 2.328 12.2 12.2 0 0 1 1.464 6.504zm-8.376 0a14.483 14.483 0 0 0 .5 4.4 1.886 1.886 0 0 0 1.872 1.476 1.908 1.908 0 0 0 1.872-1.464 13.845 13.845 0 0 0 .528-4.416 13.981 13.981 0 0 0-.528-4.416 1.914 1.914 0 0 0-1.872-1.488 1.889 1.889 0 0 0-1.872 1.488 14.607 14.607 0 0 0-.5 4.42zM-1.464-13.3a3.8 3.8 0 0 1-1.068 2.832A5.539 5.539 0 0 1-5.16-9.024v.072A5.488 5.488 0 0 1-2.04-7.68 3.5 3.5 0 0 1-.96-4.992a5 5 0 0 1-.732 2.676A4.909 4.909 0 0 1-3.948-.444 9.645 9.645 0 0 1-7.872.24a12.329 12.329 0 0 1-4.944-.94v-3.068a10.74 10.74 0 0 0 2.3.84 9.689 9.689 0 0 0 2.256.288 4.224 4.224 0 0 0 2.724-.672 2.367 2.367 0 0 0 .78-1.9 2.01 2.01 0 0 0-.36-1.2 2.221 2.221 0 0 0-1.26-.756 9.743 9.743 0 0 0-2.504-.248h-1.3V-10.2h1.32a7.443 7.443 0 0 0 2.412-.3 2.039 2.039 0 0 0 1.128-.816 2.32 2.32 0 0 0 .3-1.188 1.838 1.838 0 0 0-.564-1.428 2.764 2.764 0 0 0-1.884-.516 4.942 4.942 0 0 0-2.136.432 13.842 13.842 0 0 0-1.512.816l-1.68-2.5a9.492 9.492 0 0 1 2.364-1.2 9.7 9.7 0 0 1 3.228-.48 7.264 7.264 0 0 1 4.188 1.068A3.448 3.448 0 0 1-1.464-13.3z" transform="translate(227 558)"/><path id="Path_726" data-name="Path 726" class="cls-14" d="M-17.544 0h-3.624v-9.912q0-.6.024-1.62t.072-1.788q-.12.144-.516.516t-.732.66l-1.968 1.584-1.752-2.184 5.52-4.392h2.976zm10.68-17.352a7.816 7.816 0 0 1 2.724.452 4.541 4.541 0 0 1 1.992 1.38 3.5 3.5 0 0 1 .756 2.292 3.683 3.683 0 0 1-.876 2.544 7.064 7.064 0 0 1-2.2 1.632 12.116 12.116 0 0 1 1.74 1.116 5.322 5.322 0 0 1 1.344 1.5 3.81 3.81 0 0 1 .52 1.996 4.135 4.135 0 0 1-.756 2.472A4.858 4.858 0 0 1-3.732-.336 7.955 7.955 0 0 1-6.864.24a7.1 7.1 0 0 1-4.452-1.224 4.025 4.025 0 0 1-1.572-3.36 4.149 4.149 0 0 1 .96-2.844A7.411 7.411 0 0 1-9.6-8.952a7.58 7.58 0 0 1-1.956-1.74 4 4 0 0 1-.8-2.556 3.43 3.43 0 0 1 .768-2.268A4.612 4.612 0 0 1-9.564-16.9a7.874 7.874 0 0 1 2.7-.452zm-.024 2.64a2.3 2.3 0 0 0-1.476.468 1.552 1.552 0 0 0-.588 1.284 1.832 1.832 0 0 0 .624 1.44 6.44 6.44 0 0 0 1.464.96 6.255 6.255 0 0 0 1.44-.924A1.85 1.85 0 0 0-4.8-12.96a1.539 1.539 0 0 0-.6-1.284 2.346 2.346 0 0 0-1.488-.468zM-9.528-4.56a1.983 1.983 0 0 0 .66 1.536 2.82 2.82 0 0 0 1.956.6A3.031 3.031 0 0 0-4.9-3a1.921 1.921 0 0 0 .672-1.536 1.8 1.8 0 0 0-.384-1.14 4.279 4.279 0 0 0-.96-.888q-.576-.4-1.152-.732l-.312-.168A6.19 6.19 0 0 0-8.844-6.24a2.31 2.31 0 0 0-.684 1.68z" transform="translate(296 558)"/><path id="Path_727" data-name="Path 727" class="cls-15" d="M13.224 0H7.8v-1.368h1.872v-4.968a3.383 3.383 0 0 0-.708-2.436 2.454 2.454 0 0 0-1.812-.708 2.947 2.947 0 0 0-2.268.948 3.259 3.259 0 0 0-.924 2.124v5.04h1.848V0h-5.4v-1.368h1.848v-13.776H.408v-1.368H3.96v7.752A3.967 3.967 0 0 1 7.7-10.9a3.744 3.744 0 0 1 2.616.96 4 4 0 0 1 1.056 3.1v5.472h1.848zm7.032-10.872a2.789 2.789 0 0 1 1.824.552l.408 2.688-1.368.168-.408-1.824a2.438 2.438 0 0 0-.816-.144 1.921 1.921 0 0 0-1.56.78 3.147 3.147 0 0 0-.624 2.028v5.256h2.472V0H14.16v-1.368h1.872v-7.944h-1.92v-1.368h3.5v1.92a3.469 3.469 0 0 1 1.02-1.5 2.407 2.407 0 0 1 1.624-.612zM33.1-3.1a2.8 2.8 0 0 1-1.312 2.452A5.615 5.615 0 0 1 28.56.24a8.61 8.61 0 0 1-2.244-.3A6.3 6.3 0 0 1 24.5-.816l.34-2.424 1.344.144-.072 1.416a5.436 5.436 0 0 0 2.376.528 4.372 4.372 0 0 0 2-.444 1.44 1.44 0 0 0 .876-1.356A1.3 1.3 0 0 0 30.7-4.2a5.457 5.457 0 0 0-1.668-.528q-1-.168-2-.408a3.859 3.859 0 0 1-1.68-.828 2.315 2.315 0 0 1-.68-1.836 2.517 2.517 0 0 1 1.248-2.4 5.476 5.476 0 0 1 2.712-.7 7.274 7.274 0 0 1 2.076.288 7.006 7.006 0 0 1 1.644.7l.264 2.5-1.392.168-.264-1.732a4.636 4.636 0 0 0-2.184-.524 3.211 3.211 0 0 0-1.656.384 1.3 1.3 0 0 0-.648 1.2 1.228 1.228 0 0 0 .672 1.188 5.465 5.465 0 0 0 1.656.5q.984.156 1.968.4a3.718 3.718 0 0 1 1.656.852A2.427 2.427 0 0 1 33.1-3.1z" transform="translate(227 557)"/><path id="Path_728" data-name="Path 728" class="cls-15" d="M20.5 0h-5.116v-1.368h1.56v-4.968a3.464 3.464 0 0 0-.684-2.436 2.315 2.315 0 0 0-1.74-.708 2.61 2.61 0 0 0-2.256 1.1 3.821 3.821 0 0 0-.816 2.112v4.9H13.3V0H8.208v-1.368h1.536v-4.968a3.5 3.5 0 0 0-.672-2.448 2.267 2.267 0 0 0-1.7-.7A2.634 2.634 0 0 0 5.1-8.412a3.882 3.882 0 0 0-.828 2.1v4.944H6.24V0H.72v-1.368h1.872v-7.944H.7v-1.368h3.572v1.992a4.646 4.646 0 0 1 1.416-1.584 3.662 3.662 0 0 1 2.16-.624 3.788 3.788 0 0 1 2.172.624 3.177 3.177 0 0 1 1.26 1.944 4.477 4.477 0 0 1 1.428-1.848 3.756 3.756 0 0 1 2.34-.72 3.584 3.584 0 0 1 2.556.96 4.087 4.087 0 0 1 1.02 3.1v5.472H20.5zm2.736-13.44v-2.184h1.824v2.184zM26.952 0h-5.424v-1.368H23.4v-7.944h-1.92v-1.368h3.6v9.312h1.872zm14.016 0h-5.4v-1.368h1.848v-4.968a3.422 3.422 0 0 0-.7-2.436 2.384 2.384 0 0 0-1.776-.708 3 3 0 0 0-2.316.948A3.31 3.31 0 0 0 31.7-6.36v4.992h1.872V0h-5.42v-1.368h1.872v-7.944H28.1v-1.368h3.6v1.9a3.944 3.944 0 0 1 3.748-2.12 3.744 3.744 0 0 1 2.616.96 4 4 0 0 1 1.056 3.1v5.472h1.848z" transform="translate(296 557)"/><path id="Path_729" data-name="Path 729" class="cls-15" d="M9.576 5.006h-.868v4.256a5.2 5.2 0 0 1-.336 1.855 3.07 3.07 0 0 1-1.148 1.456A3.833 3.833 0 0 1 5 13.14a3.229 3.229 0 0 1-2.835-1.127 4.408 4.408 0 0 1-.791-2.6V5.006h-.9V3.9H3.85v1.106h-1.2v4.368a2.943 2.943 0 0 0 .577 1.926 2.229 2.229 0 0 0 1.827.707q2.45 0 2.45-2.744V5.006H6.286V3.9h3.29zM18.928 13H15.6v-1.106h.994L14.476 9.15l-1.988 2.744h.98V13h-3.332v-1.106h.952l2.744-3.584L11.2 5.006h-.9V3.9h3.262v1.106h-.9l1.926 2.464 1.806-2.464h-.84V3.9h3.22v1.106h-.966l-2.576 3.276 2.856 3.612h.84zm12.334-4.564a4.559 4.559 0 0 1-1.218 3.3A4.46 4.46 0 0 1 26.67 13H22.5v-1.092h1.1V4.992h-1.1V3.9h4.1a4.53 4.53 0 0 1 3.458 1.274 4.558 4.558 0 0 1 1.204 3.262zM29.9 8.45a3.589 3.589 0 0 0-.854-2.534 3.208 3.208 0 0 0-2.478-.924h-1.69v6.916h1.694a3.249 3.249 0 0 0 2.478-.9 3.574 3.574 0 0 0 .85-2.558zm8.064 2.7a2.125 2.125 0 0 1-.8 1.4 2.868 2.868 0 0 1-1.9.588 3.029 3.029 0 0 1-2.2-.812 3.122 3.122 0 0 1-.84-2.352 3.662 3.662 0 0 1 .784-2.408 2.657 2.657 0 0 1 2.17-.952 2.547 2.547 0 0 1 2 .8 2.851 2.851 0 0 1 .728 1.932 4.073 4.073 0 0 1-.084.8h-4.306q.084 1.988 1.834 1.988a1.546 1.546 0 0 0 1.1-.35 1.723 1.723 0 0 0 .5-.84zm-1.33-1.834a1.858 1.858 0 0 0-.3-1.183 1.29 1.29 0 0 0-1.183-.567A1.354 1.354 0 0 0 34 8.079a2.491 2.491 0 0 0-.469 1.239zm7.49 1.848a1.652 1.652 0 0 1-.777 1.456 3.475 3.475 0 0 1-1.967.518 4.613 4.613 0 0 1-2.45-.616l.2-1.512.966.1-.028.812a2.166 2.166 0 0 0 .609.2 3.874 3.874 0 0 0 .651.056 2.549 2.549 0 0 0 1.085-.224.736.736 0 0 0 .483-.7.665.665 0 0 0-.396-.654 3.652 3.652 0 0 0-.973-.287q-.581-.1-1.155-.245a2.227 2.227 0 0 1-.966-.5 1.4 1.4 0 0 1-.392-1.085 1.5 1.5 0 0 1 .786-1.461 3.531 3.531 0 0 1 1.659-.406 4.415 4.415 0 0 1 1.211.161 4.986 4.986 0 0 1 1.029.413l.14 1.512-.98.112-.14-.98a2.831 2.831 0 0 0-1.2-.266 1.676 1.676 0 0 0-.854.2.687.687 0 0 0-.336.644.631.631 0 0 0 .385.616 3.56 3.56 0 0 0 .952.273 10.937 10.937 0 0 1 1.134.245 2.2 2.2 0 0 1 .952.518 1.454 1.454 0 0 1 .376 1.102zm1.89-5.894V3.83h1.274v1.442zM48.342 13H45.08v-.952h1.02v-4.34h-1.062v-.966h2.3v5.306h1.008zm7.812-5.292h-.966v5.138a3.391 3.391 0 0 1-.819 2.38 3.035 3.035 0 0 1-2.359.9 3.693 3.693 0 0 1-1.792-.441 2.282 2.282 0 0 1-1.106-1.421l.952-.49a1.929 1.929 0 0 0 .812 1.008 2.251 2.251 0 0 0 1.162.322 1.809 1.809 0 0 0 1.386-.588 2.4 2.4 0 0 0 .546-1.694v-1.05a2.646 2.646 0 0 1-.8.91 2.3 2.3 0 0 1-1.386.378 2.627 2.627 0 0 1-1.911-.777 3.03 3.03 0 0 1-.791-2.261 4.156 4.156 0 0 1 .7-2.345A2.364 2.364 0 0 1 51.9 6.616a2.179 2.179 0 0 1 2.07 1.106v-.98h2.184zm-2.184 2.464V9.36a1.652 1.652 0 0 0-.5-1.26 1.71 1.71 0 0 0-1.218-.476 1.54 1.54 0 0 0-1.372.665 2.878 2.878 0 0 0-.448 1.645 2.275 2.275 0 0 0 .483 1.6 1.555 1.555 0 0 0 1.183.518 1.681 1.681 0 0 0 1.344-.588 2.07 2.07 0 0 0 .528-1.292zM64.344 13H61.1v-.952h1v-2.7A1.992 1.992 0 0 0 61.74 8a1.245 1.245 0 0 0-.966-.4 1.586 1.586 0 0 0-1.246.518 1.874 1.874 0 0 0-.49 1.2v2.73h1.008V13H56.8v-.952h1.008v-4.34h-1.05v-.966h2.282v1.064a2.458 2.458 0 0 1 3.668-.63 2.226 2.226 0 0 1 .63 1.75v3.122h1.008zm6.832-9.772a3.48 3.48 0 0 1 .833.1 1.929 1.929 0 0 1 .749.378l.252 1.524-.98.126-.266-1.05a2.073 2.073 0 0 0-.658-.1q-.994 0-.994 1.288v1.248h1.61v.938h-1.61v4.368h1.316V13h-3.556v-.952h1.022V7.68h-.868v-.938h.868V5.636a2.4 2.4 0 0 1 .644-1.736 2.171 2.171 0 0 1 1.638-.672zm7.588 6.65a3.224 3.224 0 0 1-.889 2.352 3.13 3.13 0 0 1-2.345.91 2.961 2.961 0 0 1-2.261-.882 3.246 3.246 0 0 1-.833-2.324 3.607 3.607 0 0 1 .8-2.352 2.889 2.889 0 0 1 2.38-.98 2.857 2.857 0 0 1 2.366.973 3.558 3.558 0 0 1 .782 2.303zm-1.288-.042a2.45 2.45 0 0 0-.511-1.636 1.715 1.715 0 0 0-1.379-.6 1.642 1.642 0 0 0-1.393.637 2.625 2.625 0 0 0-.483 1.631 2.734 2.734 0 0 0 .469 1.617 1.594 1.594 0 0 0 1.393.665 1.666 1.666 0 0 0 1.407-.651 2.656 2.656 0 0 0 .497-1.663zm5.838-3.192a1.853 1.853 0 0 1 1.12.336l.252 1.75-.966.112-.238-1.078a1.275 1.275 0 0 0-.49-.1.988.988 0 0 0-.8.4 1.61 1.61 0 0 0-.322 1.043v2.94h1.344V13h-3.582v-.952h1.008v-4.34h-1.05v-.966h2.2V7.89a2.128 2.128 0 0 1 .565-.89 1.357 1.357 0 0 1 .959-.356zm12.208-.07l-1.12.112-.28-1.68H90.93v3.248H95v1.092h-4.07v2.548h1.57V13h-3.95v-1.106h1.106V5.006H88.55V3.9h6.678zm6.846 3.3a3.224 3.224 0 0 1-.889 2.352 3.13 3.13 0 0 1-2.345.91 2.961 2.961 0 0 1-2.261-.882 3.246 3.246 0 0 1-.833-2.324 3.607 3.607 0 0 1 .8-2.352 2.889 2.889 0 0 1 2.38-.98 2.857 2.857 0 0 1 2.366.973 3.558 3.558 0 0 1 .782 2.307zm-1.288-.042a2.45 2.45 0 0 0-.511-1.638 1.715 1.715 0 0 0-1.379-.6 1.642 1.642 0 0 0-1.393.637 2.625 2.625 0 0 0-.483 1.631 2.734 2.734 0 0 0 .469 1.617 1.594 1.594 0 0 0 1.393.665 1.666 1.666 0 0 0 1.407-.651 2.656 2.656 0 0 0 .497-1.657zm8.512.042a3.224 3.224 0 0 1-.889 2.352 3.13 3.13 0 0 1-2.345.91 2.961 2.961 0 0 1-2.261-.882 3.246 3.246 0 0 1-.833-2.324 3.607 3.607 0 0 1 .8-2.352 2.889 2.889 0 0 1 2.38-.98 2.857 2.857 0 0 1 2.366.973 3.558 3.558 0 0 1 .782 2.307zm-1.292-.038a2.45 2.45 0 0 0-.511-1.638 1.715 1.715 0 0 0-1.379-.6 1.642 1.642 0 0 0-1.393.637 2.625 2.625 0 0 0-.483 1.631 2.734 2.734 0 0 0 .469 1.617 1.594 1.594 0 0 0 1.393.665 1.666 1.666 0 0 0 1.407-.651 2.656 2.656 0 0 0 .497-1.661zM117.614 13h-2.226v-1.232a2.942 2.942 0 0 1-.819.966 2.216 2.216 0 0 1-1.393.406 2.455 2.455 0 0 1-1.946-.833 3.36 3.36 0 0 1-.728-2.289 4.314 4.314 0 0 1 .665-2.345 2.347 2.347 0 0 1 2.149-1.057 2.191 2.191 0 0 1 2.072 1.12v-3.4h-1.442v-.968h2.66v8.68h1.008zm-2.226-2.884V9.36a1.743 1.743 0 0 0-.532-1.26 1.71 1.71 0 0 0-1.218-.476 1.574 1.574 0 0 0-1.379.672 2.815 2.815 0 0 0-.469 1.652 2.351 2.351 0 0 0 .5 1.624 1.61 1.61 0 0 0 1.246.56 1.587 1.587 0 0 0 1.309-.658 2.351 2.351 0 0 0 .543-1.358zM8.036 27.382a2.525 2.525 0 0 1-.763 1.855A3.109 3.109 0 0 1 4.984 30H.574v-1.106H1.68v-6.888H.574V20.9h4.354a3.078 3.078 0 0 1 2.044.595 2.1 2.1 0 0 1 .266 2.842 1.891 1.891 0 0 1-1.148.679v.056a2.107 2.107 0 0 1 1.463.784 2.472 2.472 0 0 1 .483 1.526zm-1.722-4a1.193 1.193 0 0 0-.448-1.082 2.169 2.169 0 0 0-1.2-.294H2.954v2.8h1.638q1.722 0 1.722-1.428zm.35 3.948q0-1.5-1.68-1.5h-2.03v3.066h1.764a2.414 2.414 0 0 0 1.428-.371 1.371 1.371 0 0 0 .518-1.199zm5.39 2.67H8.806v-.952h1.008v-7.714h-1.05v-.966h2.282v8.68h1.008zm7.056-3.122a3.224 3.224 0 0 1-.889 2.352 3.13 3.13 0 0 1-2.345.91 2.961 2.961 0 0 1-2.261-.882 3.246 3.246 0 0 1-.833-2.324 3.607 3.607 0 0 1 .8-2.352 2.889 2.889 0 0 1 2.38-.98 2.857 2.857 0 0 1 2.366.973 3.558 3.558 0 0 1 .782 2.303zm-1.288-.042a2.45 2.45 0 0 0-.511-1.638 1.715 1.715 0 0 0-1.379-.6 1.642 1.642 0 0 0-1.393.637 2.625 2.625 0 0 0-.483 1.631 2.734 2.734 0 0 0 .469 1.617 1.594 1.594 0 0 0 1.393.665 1.666 1.666 0 0 0 1.407-.651 2.656 2.656 0 0 0 .497-1.661zm9.268-2.128h-.966v5.138a3.391 3.391 0 0 1-.819 2.38 3.035 3.035 0 0 1-2.359.9 3.693 3.693 0 0 1-1.792-.441 2.282 2.282 0 0 1-1.106-1.421L21 30.77a1.929 1.929 0 0 0 .812 1.008 2.251 2.251 0 0 0 1.162.322 1.809 1.809 0 0 0 1.386-.588 2.4 2.4 0 0 0 .546-1.694v-1.05a2.646 2.646 0 0 1-.8.91 2.3 2.3 0 0 1-1.386.378 2.627 2.627 0 0 1-1.911-.777 3.03 3.03 0 0 1-.791-2.261 4.156 4.156 0 0 1 .7-2.345 2.364 2.364 0 0 1 2.114-1.057 2.179 2.179 0 0 1 2.072 1.106v-.98h2.186zm-2.184 2.464v-.812a1.652 1.652 0 0 0-.5-1.26 1.71 1.71 0 0 0-1.218-.476 1.54 1.54 0 0 0-1.372.665 2.878 2.878 0 0 0-.448 1.645 2.275 2.275 0 0 0 .483 1.6 1.555 1.555 0 0 0 1.183.518 1.681 1.681 0 0 0 1.344-.588 2.07 2.07 0 0 0 .528-1.292z" transform="translate(48 532)"/><path id="Path_730" data-name="Path 730" class="cls-14" d="M5.69-4.43a1.94 1.94 0 0 1-.685 1.615 2.561 2.561 0 0 1-1.645.545h-1.1v1.32H3.3V0H.4v-.95h.75v-4.6H.4v-.95h2.9a2.476 2.476 0 0 1 1.8.58 2 2 0 0 1 .59 1.49zm-1.19.02a1.125 1.125 0 0 0-.305-.84 1.432 1.432 0 0 0-1.025-.3h-.91v2.34h.91a1.362 1.362 0 0 0 1.02-.325 1.215 1.215 0 0 0 .31-.875zm4.42-.15a1.528 1.528 0 0 1 .84.25l.19 1.4-.83.1-.17-.77a.793.793 0 0 0-.34-.1.63.63 0 0 0-.485.23.928.928 0 0 0-.2.64v1.99h.89V0H6.18v-.82h.67v-2.84h-.7v-.83h1.69v.84a1.56 1.56 0 0 1 .385-.65.94.94 0 0 1 .695-.26zm6.23 2.32a2.254 2.254 0 0 1-.665 1.7A2.374 2.374 0 0 1 12.76.1a2.247 2.247 0 0 1-1.655-.62 2.26 2.26 0 0 1-.625-1.68 2.541 2.541 0 0 1 .59-1.685 2.152 2.152 0 0 1 1.75-.705 2.142 2.142 0 0 1 1.75.7 2.506 2.506 0 0 1 .58 1.65zm-1.11-.03a1.583 1.583 0 0 0-.345-1.1 1.153 1.153 0 0 0-.895-.38 1.071 1.071 0 0 0-.89.4 1.7 1.7 0 0 0-.32 1.085 1.85 1.85 0 0 0 .31 1.085 1.029 1.029 0 0 0 .9.44 1.088 1.088 0 0 0 .91-.425 1.75 1.75 0 0 0 .33-1.105zm2.26-3.15V-6.6h1.09v1.18zm1.09 5.37a2.718 2.718 0 0 1-.5 1.83 1.819 1.819 0 0 1-1.62.45l-.03-.73a1.268 1.268 0 0 0 .745-.235q.335-.235.335-1.315v-3.61h-.81v-.83h1.88zm5.14-1.32a1.53 1.53 0 0 1-.58 1.03 2.145 2.145 0 0 1-1.43.44 2.3 2.3 0 0 1-1.61-.575 2.18 2.18 0 0 1-.63-1.695 2.6 2.6 0 0 1 .575-1.72 1.974 1.974 0 0 1 1.605-.69 1.973 1.973 0 0 1 1.475.555 1.958 1.958 0 0 1 .555 1.405 3.265 3.265 0 0 1-.06.6H19.4q.09 1.26 1.2 1.26a.961.961 0 0 0 .745-.25 1.243 1.243 0 0 0 .295-.53zm-1.14-1.31a1.16 1.16 0 0 0-.185-.755.824.824 0 0 0-.755-.355.87.87 0 0 0-.73.32 1.581 1.581 0 0 0-.31.79zm5.85 1.07a2.205 2.205 0 0 1-.53 1.155A1.816 1.816 0 0 1 25.23.1a2.168 2.168 0 0 1-1.565-.58 2.233 2.233 0 0 1-.6-1.69 2.44 2.44 0 0 1 .625-1.75 2.148 2.148 0 0 1 1.635-.66 3.288 3.288 0 0 1 .8.1 2.974 2.974 0 0 1 .79.33l.18 1.26-.86.09-.15-.74a1.761 1.761 0 0 0-.78-.18q-1.12 0-1.12 1.5 0 1.46 1.15 1.46.84 0 1.01-1.02zm4.13.29A1.446 1.446 0 0 1 29.79.1a1.654 1.654 0 0 1-1.145-.38 1.348 1.348 0 0 1-.425-1.06V-3.7h-.66v-.79h.66v-1.39h1.07v1.39h1.67v.79h-1.67v2.19q0 .71.62.71a.76.76 0 0 0 .38-.125q.21-.125.29-.645zm9.21-4.23h-.75V0l-.64.01-3.6-4.51h-.04v3.55h.95V0h-2.71v-.95h.72v-4.6h-.82v-.95h1.63l3.43 4.3h.04v-3.35h-.95v-.95h2.74zm.78 1.39a4.383 4.383 0 0 1 .89-.33 4.028 4.028 0 0 1 .9-.09 1.942 1.942 0 0 1 1.235.38 1.359 1.359 0 0 1 .485 1.14v2.02q0 .4.33.4a.875.875 0 0 0 .23-.04l.01.59a1.418 1.418 0 0 1-.72.19.841.841 0 0 1-.92-.89v-.02a2.13 2.13 0 0 1-.565.63 1.443 1.443 0 0 1-.9.28 1.725 1.725 0 0 1-.925-.285 1.08 1.08 0 0 1-.455-1 1.059 1.059 0 0 1 .66-1.1 3.8 3.8 0 0 1 1.43-.265q.19 0 .39.01t.37.03v-.25a1.779 1.779 0 0 0-.14-.72q-.14-.32-.7-.32a2.469 2.469 0 0 0-.395.03 1.147 1.147 0 0 0-.355.12l-.18.69-.86-.09zm2.44 2.38v-.16l-.35-.04a3.349 3.349 0 0 0-.37-.02 1.743 1.743 0 0 0-.715.14.551.551 0 0 0-.315.56q0 .61.65.61a1.128 1.128 0 0 0 .72-.275 1.1 1.1 0 0 0 .38-.815zM54.2 0h-1.98v-.82h.25v-1.76a1.41 1.41 0 0 0-.225-.905.787.787 0 0 0-.635-.265.871.871 0 0 0-.775.36 1.483 1.483 0 0 0-.255.82v1.75h.67V0h-1.98v-.82h.24v-1.76a1.41 1.41 0 0 0-.225-.905.776.776 0 0 0-.625-.265.878.878 0 0 0-.77.355 1.437 1.437 0 0 0-.26.815v1.76h.84V0h-2.58v-.82h.67v-2.84h-.66v-.83h1.73v.74a1.727 1.727 0 0 1 .56-.6 1.514 1.514 0 0 1 .85-.23 1.689 1.689 0 0 1 .9.245 1.3 1.3 0 0 1 .56.765 1.744 1.744 0 0 1 .58-.735 1.544 1.544 0 0 1 .93-.275 1.6 1.6 0 0 1 1.07.39 1.513 1.513 0 0 1 .46 1.22v2.15h.66zm4.63-1.37a1.53 1.53 0 0 1-.58 1.03 2.145 2.145 0 0 1-1.43.44 2.3 2.3 0 0 1-1.61-.575 2.18 2.18 0 0 1-.63-1.695 2.6 2.6 0 0 1 .575-1.72 1.974 1.974 0 0 1 1.6-.69 1.973 1.973 0 0 1 1.475.555 1.958 1.958 0 0 1 .56 1.405 3.265 3.265 0 0 1-.06.6H55.7q.09 1.26 1.2 1.26a.961.961 0 0 0 .745-.25 1.243 1.243 0 0 0 .3-.53zm-1.14-1.31a1.16 1.16 0 0 0-.185-.755.824.824 0 0 0-.755-.355.87.87 0 0 0-.73.32 1.581 1.581 0 0 0-.31.79z" transform="translate(48 527)"/><path id="Path_731" data-name="Path 731" class="cls-14" d="M6.18-4.38l-.96.08-.2-1.25H3.75v4.6h1.09V0H1.59v-.95h1.05v-4.6H1.36l-.2 1.25-.95-.08.2-2.12h5.57zm1.15-1.04V-6.6h1.09v1.18zM9.12 0h-2.4v-.82h.67v-2.84h-.71v-.83h1.77v3.67h.67zm8.79 0h-1.98v-.82h.25v-1.76a1.41 1.41 0 0 0-.225-.905.787.787 0 0 0-.635-.265.871.871 0 0 0-.775.36 1.483 1.483 0 0 0-.255.82v1.75h.67V0h-1.98v-.82h.24v-1.76a1.41 1.41 0 0 0-.22-.905.776.776 0 0 0-.625-.265.878.878 0 0 0-.77.355 1.437 1.437 0 0 0-.26.815v1.76h.84V0H9.6v-.82h.67v-2.84h-.66v-.83h1.73v.74a1.727 1.727 0 0 1 .56-.6 1.514 1.514 0 0 1 .85-.23 1.689 1.689 0 0 1 .9.245 1.3 1.3 0 0 1 .56.765 1.744 1.744 0 0 1 .58-.735 1.544 1.544 0 0 1 .93-.275 1.6 1.6 0 0 1 1.07.39 1.513 1.513 0 0 1 .46 1.22v2.15h.66zm4.63-1.37a1.53 1.53 0 0 1-.58 1.03 2.145 2.145 0 0 1-1.43.44 2.3 2.3 0 0 1-1.61-.575 2.18 2.18 0 0 1-.63-1.695 2.6 2.6 0 0 1 .575-1.72 1.974 1.974 0 0 1 1.605-.69 1.973 1.973 0 0 1 1.475.555A1.958 1.958 0 0 1 22.5-2.62a3.265 3.265 0 0 1-.06.6h-3.03q.09 1.26 1.2 1.26a.961.961 0 0 0 .745-.25 1.243 1.243 0 0 0 .3-.53zM21.4-2.68a1.16 1.16 0 0 0-.185-.755.824.824 0 0 0-.755-.355.87.87 0 0 0-.73.32 1.581 1.581 0 0 0-.31.79z" transform="translate(200 527)"/></g></svg>