<svg xmlns="http://www.w3.org/2000/svg" width="392" height="643"><defs><style>.cls-2{fill:#fff}.cls-3{fill:#f4f4f4}.cls-7{fill:#4d0000}.cls-9{fill:#026400}.cls-17{font-weight:500;font-family:ZillaSlab-Medium,Zilla Slab}.cls-13{fill:none}.cls-15,.cls-18{fill:#fa7d8e}.cls-15,.cls-16{font-size:24px}.cls-15{font-family:NotoSans-Bold,Noto Sans;font-weight:700}.cls-16,.cls-17{fill:#363636}.cls-16{font-family:ZillaSlab-Regular,Zilla Slab}.cls-17{font-size:14px}.cls-18{font-size:10px;font-family:ZillaSlab-SemiBold,Zilla Slab;font-weight:600}.cls-19{stroke:none}</style><linearGradient id="linear-gradient" x1=".5" x2=".5" y2="1" gradientUnits="objectBoundingBox"><stop offset="0" stop-color="#fa709a"/><stop offset="1" stop-color="#fee140"/></linearGradient><filter id="Ellipse_10" x="154" y="150" width="82" height="82" filterUnits="userSpaceOnUse"><feOffset dy="3"/><feGaussianBlur stdDeviation="3" result="blur"/><feFlood flood-opacity=".059"/><feComposite operator="in" in2="blur"/><feComposite in="SourceGraphic"/></filter><filter id="Ellipse_10-2" x="23" y="37" width="62" height="62" filterUnits="userSpaceOnUse"><feOffset dy="3"/><feGaussianBlur stdDeviation="3" result="blur-2"/><feFlood flood-opacity=".059"/><feComposite operator="in" in2="blur-2"/><feComposite in="SourceGraphic"/></filter><filter id="Rectangle_45" x="23" y="239" width="346" height="89" filterUnits="userSpaceOnUse"><feOffset dy="3"/><feGaussianBlur stdDeviation="3" result="blur-3"/><feFlood flood-opacity=".059"/><feComposite operator="in" in2="blur-3"/><feComposite in="SourceGraphic"/></filter><filter id="Rectangle_45-2" x="23" y="326" width="346" height="89" filterUnits="userSpaceOnUse"><feOffset dy="3"/><feGaussianBlur stdDeviation="3" result="blur-4"/><feFlood flood-opacity=".059"/><feComposite operator="in" in2="blur-4"/><feComposite in="SourceGraphic"/></filter><filter id="Rectangle_45-3" x="23" y="413" width="346" height="89" filterUnits="userSpaceOnUse"><feOffset dy="3"/><feGaussianBlur stdDeviation="3" result="blur-5"/><feFlood flood-opacity=".059"/><feComposite operator="in" in2="blur-5"/><feComposite in="SourceGraphic"/></filter><filter id="Rectangle_45-4" x="23" y="500" width="346" height="89" filterUnits="userSpaceOnUse"><feOffset dy="3"/><feGaussianBlur stdDeviation="3" result="blur-6"/><feFlood flood-opacity=".059"/><feComposite operator="in" in2="blur-6"/><feComposite in="SourceGraphic"/></filter><clipPath id="clip-feature02img-2"><path d="M0 0h392v643H0z"/></clipPath></defs><g id="feature02img-2" clip-path="url(#clip-feature02img-2)"><rect id="background" class="cls-2" width="392" height="643" rx="4"/><g id="frame"><g id="frame-2" data-name="frame"><rect id="Rectangle_123" data-name="Rectangle 123" class="cls-3" width="16" height="643" rx="4" transform="translate(376)"/><rect id="Rectangle_122" data-name="Rectangle 122" class="cls-3" width="16" height="643" rx="4"/><rect id="Rectangle_124" data-name="Rectangle 124" class="cls-3" width="392" height="16" rx="4" transform="translate(0 627)"/></g><g id="app-bar"><path id="tab" class="cls-3" d="M4 0h384a4 4 0 0 1 4 4v23H0V4a4 4 0 0 1 4-4z"/><g id="minimise_" data-name="minimise" transform="translate(37 7)"><g id="Ellipse_24" data-name="Ellipse 24" fill="#ffc12f" stroke="#e19f1b"><circle class="cls-19" cx="6.5" cy="6.5" r="6.5"/><circle class="cls-13" cx="6.5" cy="6.5" r="6"/></g><path id="Rectangle_116" data-name="Rectangle 116" transform="translate(3 6)" fill="#995700" d="M0 0h7v1H0z"/></g><g id="close" transform="translate(16 7)"><g id="Ellipse_23" data-name="Ellipse 23" fill="#ff625a" stroke="#e2483f"><circle class="cls-19" cx="6.5" cy="6.5" r="6.5"/><circle class="cls-13" cx="6.5" cy="6.5" r="6"/></g><path id="Rectangle_117" data-name="Rectangle 117" class="cls-7" transform="rotate(45 -2.243 7.122)" d="M0 0h7v1H0z"/><path id="Rectangle_118" data-name="Rectangle 118" class="cls-7" transform="rotate(-45 12.242 -.122)" d="M0 0h7v1H0z"/></g><g id="fullscreen" transform="translate(58 7)"><g id="Ellipse_25" data-name="Ellipse 25" fill="#2acf42" stroke="#1eaa26"><circle class="cls-19" cx="6.5" cy="6.5" r="6.5"/><circle class="cls-13" cx="6.5" cy="6.5" r="6"/></g><path id="Rectangle_120" data-name="Rectangle 120" class="cls-9" transform="rotate(90 2 5)" d="M0 0h7v1H0z"/><path id="Rectangle_119" data-name="Rectangle 119" class="cls-9" transform="translate(3 6)" d="M0 0h7v1H0z"/></g><text id="The_Track" data-name="The Track" transform="translate(196 19)" font-weight="500" fill="#4d4c4d" font-size="13" font-family="NotoSans-Medium,Noto Sans"><tspan x="-29.679" y="0">The Track</tspan></text></g></g><path id="Rectangle_40" data-name="Rectangle 40" transform="translate(16 27)" fill="url(#linear-gradient)" d="M0 0h360v160H0z"/><text id="Projects" transform="translate(140 118)" font-family="ZillaSlab-Medium,Zilla Slab" font-size="32" font-weight="500" fill="#fff"><tspan x="0" y="0">Projects</tspan></text><g id="Group_58" data-name="Group 58" transform="translate(10 -10)"><g transform="translate(-10 10)" filter="url(#Ellipse_10)"><circle id="Ellipse_10-3" data-name="Ellipse 10" class="cls-2" cx="32" cy="32" r="32" transform="translate(163 156)"/></g><g id="baseline-add-24px" transform="translate(173 186)"><path id="Path_63" data-name="Path 63" d="M19 13h-6v6h-2v-6H5v-2h6V5h2v6h6z"/><path id="Path_64" data-name="Path 64" class="cls-13" d="M0 0h24v24H0z"/></g></g><g id="Group_67" data-name="Group 67" transform="rotate(-90 53 187)"><g transform="rotate(90 53 187)" filter="url(#Ellipse_10-2)"><circle id="Ellipse_10-4" data-name="Ellipse 10" class="cls-2" cx="22" cy="22" r="22" transform="rotate(-90 59.5 27.5)"/></g><g id="baseline-menu-24px" transform="rotate(-90 181.5 16.5)"><path id="Path_73" data-name="Path 73" class="cls-13" d="M0 0h20v20H0z"/><path id="Path_74" data-name="Path 74" d="M3 18h14v-2H3zm0-5h14v-2H3zm0-7v2h14V6z" transform="translate(0 -2)" fill="#242424"/></g></g><g id="Group_70" data-name="Group 70" transform="translate(16 -17)"><g transform="translate(-16 17)" filter="url(#Rectangle_45)"><rect id="Rectangle_45-5" data-name="Rectangle 45" class="cls-2" width="328" height="71" rx="2" transform="translate(32 245)"/></g><g id="Group_64" data-name="Group 64" transform="translate(85 2)"><text id="_47" data-name="47" class="cls-15" transform="translate(126 312)"><tspan x="-27.456" y="0">47</tspan></text><text id="_24" data-name="24" class="cls-15" transform="translate(195 312)"><tspan x="-27.456" y="0">24</tspan></text><text id="hrs" class="cls-16" transform="translate(126 311)"><tspan x="0" y="0">hrs</tspan></text><text id="min" class="cls-16" transform="translate(195 311)"><tspan x="0" y="0">min</tspan></text></g><text id="The_Track_App" data-name="The Track App" class="cls-17" transform="translate(32 288)"><tspan x="0" y="13">The Track App</tspan></text><text id="Project_Name" data-name="Project Name" class="cls-18" transform="translate(32 283)"><tspan x="0" y="0">Project Name</tspan></text><text id="Time" class="cls-18" transform="translate(184 283)"><tspan x="0" y="0">Time</tspan></text></g><g id="Group_135" data-name="Group 135" transform="translate(16 70)"><g transform="translate(-16 -70)" filter="url(#Rectangle_45-2)"><rect id="Rectangle_45-6" data-name="Rectangle 45" class="cls-2" width="328" height="71" rx="2" transform="translate(32 332)"/></g><g id="Group_64-2" data-name="Group 64" transform="translate(85 2)"><text id="_27" data-name="27" class="cls-15" transform="translate(126 312)"><tspan x="-27.456" y="0">27</tspan></text><text id="_25" data-name="25" class="cls-15" transform="translate(195 312)"><tspan x="-27.456" y="0">25</tspan></text><text id="hrs-2" data-name="hrs" class="cls-16" transform="translate(126 311)"><tspan x="0" y="0">hrs</tspan></text><text id="min-2" data-name="min" class="cls-16" transform="translate(195 311)"><tspan x="0" y="0">min</tspan></text></g><text id="Landing_Page_Web_Design" data-name="Landing Page Web Design" class="cls-17" transform="translate(32 288)"><tspan x="0" y="13">Landing Page Web </tspan><tspan x="0" y="30">Design</tspan></text><text id="Project_Name-2" data-name="Project Name" class="cls-18" transform="translate(32 283)"><tspan x="0" y="0">Project Name</tspan></text><text id="Time-2" data-name="Time" class="cls-18" transform="translate(184 283)"><tspan x="0" y="0">Time</tspan></text></g><g id="Group_136" data-name="Group 136" transform="translate(16 157)"><g transform="translate(-16 -157)" filter="url(#Rectangle_45-3)"><rect id="Rectangle_45-7" data-name="Rectangle 45" class="cls-2" width="328" height="71" rx="2" transform="translate(32 419)"/></g><g id="Group_64-3" data-name="Group 64" transform="translate(85 2)"><text id="_11" data-name="11" class="cls-15" transform="translate(126 312)"><tspan x="-27.456" y="0">11</tspan></text><text id="_54" data-name="54" class="cls-15" transform="translate(195 312)"><tspan x="-27.456" y="0">54</tspan></text><text id="hrs-3" data-name="hrs" class="cls-16" transform="translate(126 311)"><tspan x="0" y="0">hrs</tspan></text><text id="min-3" data-name="min" class="cls-16" transform="translate(195 311)"><tspan x="0" y="0">min</tspan></text></g><text id="Personal_Portfolio" data-name="Personal Portfolio" class="cls-17" transform="translate(32 288)"><tspan x="0" y="13">Personal Portfolio</tspan></text><text id="Project_Name-3" data-name="Project Name" class="cls-18" transform="translate(32 283)"><tspan x="0" y="0">Project Name</tspan></text><text id="Time-3" data-name="Time" class="cls-18" transform="translate(184 283)"><tspan x="0" y="0">Time</tspan></text></g><g id="Group_137" data-name="Group 137" transform="translate(16 244)"><g transform="translate(-16 -244)" filter="url(#Rectangle_45-4)"><rect id="Rectangle_45-8" data-name="Rectangle 45" class="cls-2" width="328" height="71" rx="2" transform="translate(32 506)"/></g><g id="Group_64-4" data-name="Group 64" transform="translate(85 2)"><text id="_03" data-name="3" class="cls-15" transform="translate(126 312)"><tspan x="-27.456" y="0">03</tspan></text><text id="_18" data-name="18" class="cls-15" transform="translate(195 312)"><tspan x="-27.456" y="0">18</tspan></text><text id="hrs-4" data-name="hrs" class="cls-16" transform="translate(126 311)"><tspan x="0" y="0">hrs</tspan></text><text id="min-4" data-name="min" class="cls-16" transform="translate(195 311)"><tspan x="0" y="0">min</tspan></text></g><text id="UX_Design_for_Food_Blog" data-name="UX Design for Food Blog" class="cls-17" transform="translate(32 288)"><tspan x="0" y="13">UX Design for Food </tspan><tspan x="0" y="30">Blog</tspan></text><text id="Project_Name-4" data-name="Project Name" class="cls-18" transform="translate(32 283)"><tspan x="0" y="0">Project Name</tspan></text><text id="Time-4" data-name="Time" class="cls-18" transform="translate(184 283)"><tspan x="0" y="0">Time</tspan></text></g></g></svg>