<svg xmlns="http://www.w3.org/2000/svg" width="392" height="643"><defs><style>.cls-2{fill:#fff}.cls-5{fill:none}.cls-6{fill:#363636}.cls-7{fill:#39d0c4}.cls-9{fill:#f4f4f4}.cls-13{fill:#4d0000}.cls-15{fill:#026400}.cls-17{stroke:none}</style><linearGradient id="linear-gradient" x1=".5" x2=".5" y2="1" gradientUnits="objectBoundingBox"><stop offset="0" stop-color="#3976ff"/><stop offset="1" stop-color="#3961e8"/></linearGradient><filter id="Path_446" x="155" y="155" width="82" height="82" filterUnits="userSpaceOnUse"><feOffset dy="3"/><feGaussianBlur stdDeviation="3" result="blur"/><feFlood flood-opacity=".059"/><feComposite operator="in" in2="blur"/><feComposite in="SourceGraphic"/></filter><filter id="Path_447" x="23" y="248" width="346" height="69" filterUnits="userSpaceOnUse"><feOffset/><feGaussianBlur stdDeviation="3" result="blur-2"/><feFlood flood-opacity=".059"/><feComposite operator="in" in2="blur-2"/><feComposite in="SourceGraphic"/></filter><filter id="Path_448" x="23" y="359" width="346" height="332" filterUnits="userSpaceOnUse"><feOffset dy="3"/><feGaussianBlur stdDeviation="3" result="blur-3"/><feFlood flood-opacity=".059"/><feComposite operator="in" in2="blur-3"/><feComposite in="SourceGraphic"/></filter><filter id="Path_488" x="23" y="37" width="62" height="62" filterUnits="userSpaceOnUse"><feOffset dy="3"/><feGaussianBlur stdDeviation="3" result="blur-4"/><feFlood flood-opacity=".059"/><feComposite operator="in" in2="blur-4"/><feComposite in="SourceGraphic"/></filter><clipPath id="clip-feature03img-0"><path d="M0 0h392v643H0z"/></clipPath></defs><g id="feature03img-0" clip-path="url(#clip-feature03img-0)"><path id="background" class="cls-2" d="M4 0h384a4 4 0 0 1 4 4v1274a4 4 0 0 1-4 4H4a4 4 0 0 1-4-4V4a4 4 0 0 1 4-4z"/><path id="Path_444" data-name="Path 444" d="M0 0h360v166H0z" transform="translate(16 27)" fill="url(#linear-gradient)"/><path id="Path_445" data-name="Path 445" class="cls-2" d="M-122.556 0h-11.4v-1.9h1.9v-11.8h-1.9v-1.9h6.552v1.9h-2.472v11.8h5.424l.48-3.408 1.9.168zm2.64-9.912a7.149 7.149 0 0 1 1.932-.8 8.874 8.874 0 0 1 2.076-.228 4.384 4.384 0 0 1 2.892.888 3.356 3.356 0 0 1 1.068 2.736v4.968q0 1.056.84 1.056a1.79 1.79 0 0 0 .648-.12l.024 1.248A2.946 2.946 0 0 1-112 .24q-1.944 0-2.064-2.16v-.024a4.993 4.993 0 0 1-1.38 1.512 3.566 3.566 0 0 1-2.2.672 4.156 4.156 0 0 1-2.2-.672 2.537 2.537 0 0 1-1.092-2.352 2.558 2.558 0 0 1 1.6-2.652 9.153 9.153 0 0 1 3.42-.636 14.825 14.825 0 0 1 1.848.1v-.792a3.7 3.7 0 0 0-.408-1.8q-.408-.744-1.824-.744a4.209 4.209 0 0 0-1.944.408l-.408 1.752-1.7-.192zm5.856 5.784v-.624q-.432-.048-.9-.084t-.948-.036a5.078 5.078 0 0 0-1.968.36 1.444 1.444 0 0 0-.864 1.488 1.425 1.425 0 0 0 .54 1.248 2.079 2.079 0 0 0 1.236.384 2.989 2.989 0 0 0 1.92-.72 2.726 2.726 0 0 0 .984-2.016zM-96.372 0h-5.568v-1.632h1.728v-4.632a3.416 3.416 0 0 0-.624-2.316 2.134 2.134 0 0 0-1.656-.684 2.719 2.719 0 0 0-2.136.888 3.212 3.212 0 0 0-.84 2.064v4.68h1.728V0h-5.568v-1.632h1.728v-7.44h-1.8v-1.656h3.912V-8.9a3.856 3.856 0 0 1 3.648-2.04 3.832 3.832 0 0 1 2.64.96 3.816 3.816 0 0 1 1.08 3v5.352h1.728zm13.224 0h-3.816v-2.112a5.043 5.043 0 0 1-1.4 1.656 3.8 3.8 0 0 1-2.388.7 4.209 4.209 0 0 1-3.336-1.428 5.761 5.761 0 0 1-1.252-3.928 7.4 7.4 0 0 1 1.14-4.02 4.023 4.023 0 0 1 3.684-1.812 3.757 3.757 0 0 1 3.552 1.92v-5.832h-2.472v-1.656h4.56v14.88h1.728zm-3.816-4.944v-1.3a2.988 2.988 0 0 0-.912-2.16 2.931 2.931 0 0 0-2.088-.816 2.7 2.7 0 0 0-2.364 1.152 4.826 4.826 0 0 0-.8 2.832 4.03 4.03 0 0 0 .864 2.784 2.76 2.76 0 0 0 2.136.96 2.72 2.72 0 0 0 2.244-1.128 4.031 4.031 0 0 0 .92-2.324zm6.552-8.3v-2.476h2.184v2.472zM-76.428 0h-5.592v-1.632h1.752v-7.44h-1.824v-1.656h3.936v9.1h1.728zm14.136 0h-5.568v-1.632h1.728v-4.632a3.416 3.416 0 0 0-.624-2.316 2.134 2.134 0 0 0-1.656-.684 2.719 2.719 0 0 0-2.136.888 3.212 3.212 0 0 0-.84 2.064v4.68h1.728V0h-5.568v-1.632h1.728v-7.44h-1.8v-1.656h3.912V-8.9a3.856 3.856 0 0 1 3.648-2.04 3.832 3.832 0 0 1 2.64.96 3.816 3.816 0 0 1 1.08 3v5.352h1.728zm13.152-9.072h-1.66v8.808a5.812 5.812 0 0 1-1.4 4.08 5.2 5.2 0 0 1-4.044 1.536 6.332 6.332 0 0 1-3.072-.752 3.912 3.912 0 0 1-1.9-2.436l1.632-.84a3.307 3.307 0 0 0 1.392 1.728A3.858 3.858 0 0 0-56.2 3.6a3.1 3.1 0 0 0 2.38-1.008 4.116 4.116 0 0 0 .936-2.9v-1.8a4.536 4.536 0 0 1-1.368 1.56A3.945 3.945 0 0 1-56.628.1 4.5 4.5 0 0 1-59.9-1.236a5.2 5.2 0 0 1-1.36-3.876 7.125 7.125 0 0 1 1.2-4.02 4.053 4.053 0 0 1 3.624-1.812 3.736 3.736 0 0 1 3.552 1.9v-1.68h3.744zm-3.744 4.224V-6.24a2.832 2.832 0 0 0-.864-2.16 2.931 2.931 0 0 0-2.088-.816 2.64 2.64 0 0 0-2.352 1.14 4.934 4.934 0 0 0-.768 2.82 3.9 3.9 0 0 0 .828 2.736 2.666 2.666 0 0 0 2.028.888 2.882 2.882 0 0 0 2.3-1.008 3.549 3.549 0 0 0 .916-2.208zm22.632-5.9A4.694 4.694 0 0 1-31.8-6.936a5.8 5.8 0 0 1-3.852 1.3h-2.856V-1.9h2.592V0h-6.672v-1.9h1.9v-11.8h-1.9v-1.9h6.788a5.566 5.566 0 0 1 4.224 1.4 4.84 4.84 0 0 1 1.324 3.448zm-2.328.048a2.943 2.943 0 0 0-.816-2.2 3.658 3.658 0 0 0-2.64-.8h-2.472v6.192h2.52q3.408-.004 3.408-3.192zm4.68.792a7.149 7.149 0 0 1 1.932-.8 8.874 8.874 0 0 1 2.076-.228 4.384 4.384 0 0 1 2.892.88 3.356 3.356 0 0 1 1.068 2.736v4.968q0 1.056.84 1.056a1.79 1.79 0 0 0 .648-.12l.024 1.248a2.946 2.946 0 0 1-1.56.408q-1.944 0-2.064-2.16v-.024a4.993 4.993 0 0 1-1.38 1.512 3.566 3.566 0 0 1-2.2.672 4.156 4.156 0 0 1-2.2-.672 2.537 2.537 0 0 1-1.092-2.352 2.558 2.558 0 0 1 1.6-2.652 9.153 9.153 0 0 1 3.42-.636 14.825 14.825 0 0 1 1.848.1v-.792a3.7 3.7 0 0 0-.408-1.8q-.408-.744-1.824-.744a4.209 4.209 0 0 0-1.94.408l-.408 1.752-1.7-.192zm5.856 5.784v-.624q-.432-.048-.9-.084t-.948-.036a5.078 5.078 0 0 0-1.968.36 1.444 1.444 0 0 0-.864 1.488 1.425 1.425 0 0 0 .54 1.248 2.079 2.079 0 0 0 1.236.384 2.989 2.989 0 0 0 1.92-.72 2.726 2.726 0 0 0 .984-2.02zM-5.1-9.072h-1.656v8.808a5.812 5.812 0 0 1-1.4 4.08A5.2 5.2 0 0 1-12.2 5.352a6.332 6.332 0 0 1-3.076-.752 3.912 3.912 0 0 1-1.9-2.436l1.632-.84a3.307 3.307 0 0 0 1.392 1.728 3.858 3.858 0 0 0 1.992.552 3.1 3.1 0 0 0 2.38-1.012 4.116 4.116 0 0 0 .936-2.9v-1.8a4.536 4.536 0 0 1-1.368 1.56A3.945 3.945 0 0 1-12.588.1a4.5 4.5 0 0 1-3.276-1.332 5.2 5.2 0 0 1-1.356-3.88 7.125 7.125 0 0 1 1.2-4.02 4.053 4.053 0 0 1 3.62-1.812 3.736 3.736 0 0 1 3.552 1.9v-1.68H-5.1zm-3.744 4.224V-6.24a2.832 2.832 0 0 0-.864-2.16 2.931 2.931 0 0 0-2.092-.816 2.64 2.64 0 0 0-2.352 1.14 4.934 4.934 0 0 0-.768 2.82 3.9 3.9 0 0 0 .828 2.736 2.666 2.666 0 0 0 2.028.888 2.882 2.882 0 0 0 2.3-1.008 3.549 3.549 0 0 0 .92-2.208zm14.76 1.68a3.644 3.644 0 0 1-1.368 2.4A4.916 4.916 0 0 1 1.284.24a5.193 5.193 0 0 1-3.768-1.392 5.352 5.352 0 0 1-1.44-4.032A6.278 6.278 0 0 1-2.58-9.312a4.556 4.556 0 0 1 3.72-1.632 4.367 4.367 0 0 1 3.432 1.368A4.888 4.888 0 0 1 5.82-6.264 6.983 6.983 0 0 1 5.676-4.9h-7.392q.144 3.408 3.144 3.408a2.651 2.651 0 0 0 1.884-.6 2.954 2.954 0 0 0 .852-1.44zm-2.28-3.144A3.184 3.184 0 0 0 3.12-8.34a2.211 2.211 0 0 0-2.028-.972 2.321 2.321 0 0 0-1.98.876 4.27 4.27 0 0 0-.8 2.124zM33.66-13.7h-1.3L28.164 0h-1.68L22.5-11.784h-.1L18.564 0h-1.7L12.4-13.7h-1.348v-1.9h5.64v1.9h-1.968l3 10.128h.12L21.2-13.7h-1.46v-1.9h5.616v1.9H23.94L27.3-3.48h.12l2.76-10.22h-2.112v-1.9h5.592zm9.456 10.532a3.644 3.644 0 0 1-1.368 2.4A4.916 4.916 0 0 1 38.484.24a5.193 5.193 0 0 1-3.768-1.392 5.352 5.352 0 0 1-1.44-4.032 6.278 6.278 0 0 1 1.344-4.128 4.556 4.556 0 0 1 3.72-1.632 4.367 4.367 0 0 1 3.432 1.368 4.888 4.888 0 0 1 1.248 3.312 6.983 6.983 0 0 1-.144 1.364h-7.392q.144 3.408 3.144 3.408a2.651 2.651 0 0 0 1.884-.6 2.954 2.954 0 0 0 .852-1.44zm-2.28-3.144a3.184 3.184 0 0 0-.516-2.028 2.211 2.211 0 0 0-2.028-.972 2.321 2.321 0 0 0-1.98.876 4.27 4.27 0 0 0-.8 2.124zM56-5.616A7.417 7.417 0 0 1 54.852-1.6 4.013 4.013 0 0 1 51.18.24a3.812 3.812 0 0 1-3.672-1.968l-.108.864-.108.864H45.18q.12-.744.24-1.56a11.042 11.042 0 0 0 .12-1.608v-11.688h-1.728v-1.656h3.84v7.944a5.013 5.013 0 0 1 1.356-1.668 3.734 3.734 0 0 1 2.412-.708 4.3 4.3 0 0 1 3.288 1.392A5.56 5.56 0 0 1 56-5.616zm-2.2.168a4.107 4.107 0 0 0-.852-2.808 2.724 2.724 0 0 0-2.124-.96 2.759 2.759 0 0 0-2.3 1.08 3.758 3.758 0 0 0-.864 2.256v1.2a3.2 3.2 0 0 0 .864 2.268 2.862 2.862 0 0 0 2.184.924 2.608 2.608 0 0 0 2.32-1.152 4.948 4.948 0 0 0 .772-2.808zm24.188-2.376A7.816 7.816 0 0 1 75.9-2.172 7.645 7.645 0 0 1 70.116 0h-7.152v-1.872h1.9v-11.856h-1.9V-15.6H70a7.766 7.766 0 0 1 5.928 2.184 7.813 7.813 0 0 1 2.06 5.592zM75.66-7.8a6.153 6.153 0 0 0-1.46-4.344 5.5 5.5 0 0 0-4.248-1.584h-2.9v11.856h2.9A5.569 5.569 0 0 0 74.2-3.42a6.127 6.127 0 0 0 1.46-4.38zm13.824 4.632a3.644 3.644 0 0 1-1.368 2.4A4.916 4.916 0 0 1 84.852.24a5.193 5.193 0 0 1-3.768-1.392 5.352 5.352 0 0 1-1.44-4.032 6.278 6.278 0 0 1 1.344-4.128 4.556 4.556 0 0 1 3.72-1.632 4.367 4.367 0 0 1 3.432 1.368 4.888 4.888 0 0 1 1.248 3.312 6.983 6.983 0 0 1-.144 1.364h-7.392Q82-1.488 85-1.488a2.651 2.651 0 0 0 1.884-.6 2.954 2.954 0 0 0 .852-1.44zM87.2-6.312a3.184 3.184 0 0 0-.516-2.028 2.211 2.211 0 0 0-2.028-.972 2.321 2.321 0 0 0-1.98.876 4.27 4.27 0 0 0-.8 2.124zm12.84 3.168a2.832 2.832 0 0 1-1.332 2.5A5.957 5.957 0 0 1 95.34.24a7.908 7.908 0 0 1-4.2-1.056l.336-2.592 1.656.168-.048 1.392a3.713 3.713 0 0 0 1.044.336 6.641 6.641 0 0 0 1.116.1A4.37 4.37 0 0 0 97.1-1.8a1.261 1.261 0 0 0 .832-1.2 1.14 1.14 0 0 0-.672-1.116 6.261 6.261 0 0 0-1.668-.492q-1-.168-1.98-.42a3.818 3.818 0 0 1-1.656-.864 2.393 2.393 0 0 1-.672-1.86 2.566 2.566 0 0 1 1.332-2.5 6.053 6.053 0 0 1 2.844-.7 7.569 7.569 0 0 1 2.076.276 8.548 8.548 0 0 1 1.764.716l.24 2.592-1.68.192-.24-1.68a4.853 4.853 0 0 0-2.064-.456 2.873 2.873 0 0 0-1.464.336 1.178 1.178 0 0 0-.576 1.1 1.082 1.082 0 0 0 .66 1.056 6.1 6.1 0 0 0 1.632.468 18.748 18.748 0 0 1 1.944.42 3.764 3.764 0 0 1 1.632.888 2.493 2.493 0 0 1 .66 1.9zm3.24-10.1v-2.476h2.184v2.472zM107.268 0h-5.592v-1.632h1.752v-7.44H101.6v-1.656h3.936v9.1h1.728zm13.392-9.072H119v8.808a5.812 5.812 0 0 1-1.4 4.08 5.2 5.2 0 0 1-4.044 1.536 6.332 6.332 0 0 1-3.072-.756 3.912 3.912 0 0 1-1.9-2.436l1.632-.84a3.307 3.307 0 0 0 1.392 1.728 3.858 3.858 0 0 0 1.992.552 3.1 3.1 0 0 0 2.376-1.008 4.116 4.116 0 0 0 .936-2.9v-1.8a4.536 4.536 0 0 1-1.368 1.56 3.946 3.946 0 0 1-2.372.648 4.5 4.5 0 0 1-3.272-1.336 5.2 5.2 0 0 1-1.356-3.876 7.125 7.125 0 0 1 1.2-4.02 4.053 4.053 0 0 1 3.624-1.812 3.736 3.736 0 0 1 3.552 1.9v-1.68h3.744zm-3.744 4.224V-6.24a2.832 2.832 0 0 0-.864-2.16 2.931 2.931 0 0 0-2.088-.816 2.64 2.64 0 0 0-2.352 1.14 4.934 4.934 0 0 0-.768 2.82 3.9 3.9 0 0 0 .828 2.736 2.666 2.666 0 0 0 2.028.888A2.882 2.882 0 0 0 116-2.64a3.549 3.549 0 0 0 .916-2.208zM134.7 0h-5.568v-1.632h1.728v-4.632a3.416 3.416 0 0 0-.624-2.316 2.134 2.134 0 0 0-1.656-.684 2.719 2.719 0 0 0-2.136.888 3.212 3.212 0 0 0-.84 2.064v4.68h1.728V0h-5.568v-1.632h1.728v-7.44h-1.8v-1.656h3.908V-8.9a3.856 3.856 0 0 1 3.648-2.04 3.832 3.832 0 0 1 2.64.96 3.816 3.816 0 0 1 1.08 3v5.352h1.732z" transform="translate(196 119)"/><g filter="url(#Path_446)"><path id="Path_446-2" data-name="Path 446" class="cls-2" d="M32 0A32 32 0 1 1 0 32 32 32 0 0 1 32 0z" transform="translate(164 161)"/></g><path id="Path_67" data-name="Path 67" d="M8 5v14l11-7z" transform="translate(184 181)" fill="#39d07f"/><path id="Path_68" data-name="Path 68" class="cls-5" d="M0 0h24v24H0z" transform="translate(184 181)"/><g filter="url(#Path_447)"><path id="Path_447-2" data-name="Path 447" class="cls-2" d="M2 0h324a2 2 0 0 1 2 2v47a2 2 0 0 1-2 2H2a2 2 0 0 1-2-2V2a2 2 0 0 1 2-2z" transform="translate(32 257)"/></g><g filter="url(#Path_448)"><path id="Path_448-2" data-name="Path 448" class="cls-2" d="M2 0h324a2 2 0 0 1 2 2v310a2 2 0 0 1-2 2H2a2 2 0 0 1-2-2V2a2 2 0 0 1 2-2z" transform="translate(32 365)"/></g><path id="Path_449" data-name="Path 449" class="cls-6" d="M8.88-7.168a3.129 3.129 0 0 1-1.032 2.544 3.865 3.865 0 0 1-2.568.864h-1.9v2.5H5.1V0H.656v-1.264H1.92v-7.872H.656V-10.4h4.528A3.711 3.711 0 0 1 8-9.464a3.226 3.226 0 0 1 .88 2.296zm-1.552.032A1.962 1.962 0 0 0 6.784-8.6a2.439 2.439 0 0 0-1.76-.536H3.376v4.128h1.68q2.272 0 2.272-2.128zm6.656-.128a2.117 2.117 0 0 1 1.28.384l.288 2-1.1.128-.272-1.232a1.458 1.458 0 0 0-.56-.112 1.129 1.129 0 0 0-.912.456 1.839 1.839 0 0 0-.368 1.192v3.36h1.536V0h-4.1v-1.088h1.152v-4.96h-1.2v-1.1h2.512v1.308a2.432 2.432 0 0 1 .648-1.016 1.55 1.55 0 0 1 1.096-.408zm9.872 3.7A3.684 3.684 0 0 1 22.84-.88 3.577 3.577 0 0 1 20.16.16a3.384 3.384 0 0 1-2.584-1.008 3.71 3.71 0 0 1-.952-2.652 4.122 4.122 0 0 1 .912-2.688 3.3 3.3 0 0 1 2.72-1.12A3.265 3.265 0 0 1 22.96-6.2a4.067 4.067 0 0 1 .896 2.632zm-1.472-.048a2.8 2.8 0 0 0-.584-1.876 1.961 1.961 0 0 0-1.576-.688 1.877 1.877 0 0 0-1.592.728 3 3 0 0 0-.552 1.864 3.124 3.124 0 0 0 .536 1.848 1.821 1.821 0 0 0 1.592.76 1.9 1.9 0 0 0 1.608-.744 3.036 3.036 0 0 0 .568-1.896zm3.5-5.216v-1.652h1.476v1.648zM27.36.08a3.855 3.855 0 0 1-.832 2.832 2.893 2.893 0 0 1-2.384.656l-.044-.992a2.718 2.718 0 0 0 .864-.144 1.29 1.29 0 0 0 .712-.672 3.772 3.772 0 0 0 .28-1.68v-6.128h-1.44v-1.1h2.844zm8.176-2.192a2.429 2.429 0 0 1-.912 1.6 3.277 3.277 0 0 1-2.176.672 3.462 3.462 0 0 1-2.512-.928 3.568 3.568 0 0 1-.96-2.688 4.185 4.185 0 0 1 .9-2.752A3.037 3.037 0 0 1 32.352-7.3a2.911 2.911 0 0 1 2.288.912 3.259 3.259 0 0 1 .832 2.208 4.656 4.656 0 0 1-.1.912h-4.924q.1 2.272 2.1 2.272a1.767 1.767 0 0 0 1.256-.4 1.97 1.97 0 0 0 .568-.96zm-1.52-2.1a2.123 2.123 0 0 0-.344-1.352 1.474 1.474 0 0 0-1.352-.648 1.548 1.548 0 0 0-1.32.588 2.846 2.846 0 0 0-.536 1.416zm8.992 1.732a3.5 3.5 0 0 1-.84 1.792A2.8 2.8 0 0 1 39.9.16a3.247 3.247 0 0 1-2.42-.936 3.664 3.664 0 0 1-.92-2.68 4.161 4.161 0 0 1 .912-2.728A3.108 3.108 0 0 1 40.016-7.3a5.2 5.2 0 0 1 1.3.16 3.54 3.54 0 0 1 1.184.56l.288 1.856-1.136.128-.256-1.2A2.727 2.727 0 0 0 40-6.144a1.656 1.656 0 0 0-1.488.728 3.356 3.356 0 0 0-.48 1.88 3.027 3.027 0 0 0 .512 1.872 1.774 1.774 0 0 0 1.5.672q1.488 0 1.776-1.728zm6.5.464A2.215 2.215 0 0 1 47.1.16a2.361 2.361 0 0 1-1.72-.6 2.226 2.226 0 0 1-.616-1.672V-6.08h-1.1v-1.072h1.1v-2.256h1.396v2.256h2.74v1.072h-2.74v3.76q0 1.28 1.1 1.28a1.271 1.271 0 0 0 .7-.232 1.581 1.581 0 0 0 .5-1.08zm9.52 0A2.215 2.215 0 0 1 56.624.16a2.361 2.361 0 0 1-1.72-.6 2.226 2.226 0 0 1-.616-1.672V-6.08h-1.1v-1.072h1.1v-2.256h1.392v2.256h2.736v1.072H55.68v3.76q0 1.28 1.1 1.28a1.271 1.271 0 0 0 .7-.232 1.581 1.581 0 0 0 .5-1.08zm1.612-6.816v-1.648h1.46v1.648zM63.3 0h-3.732v-1.088h1.168v-4.96H59.52v-1.1h2.624v6.064H63.3zm14.028 0h-3.3v-1.088h.736v-3.088a2.309 2.309 0 0 0-.404-1.544 1.4 1.4 0 0 0-1.1-.456 1.559 1.559 0 0 0-1.38.676 2.51 2.51 0 0 0-.472 1.36v3.056h1.152V0h-3.3v-1.088H70v-3.088a2.3 2.3 0 0 0-.408-1.552 1.391 1.391 0 0 0-1.08-.448 1.576 1.576 0 0 0-1.376.656 2.4 2.4 0 0 0-.48 1.344v3.088h1.328V0H64.1v-1.088h1.152v-4.96H64.08v-1.1h2.576v1.264a2.836 2.836 0 0 1 .912-1.016 2.444 2.444 0 0 1 1.408-.4 2.572 2.572 0 0 1 1.44.408 2.12 2.12 0 0 1 .864 1.256 2.914 2.914 0 0 1 .944-1.2 2.476 2.476 0 0 1 1.52-.464 2.454 2.454 0 0 1 1.712.64 2.577 2.577 0 0 1 .7 2v3.568h1.168zm7.232-2.112a2.429 2.429 0 0 1-.912 1.6 3.277 3.277 0 0 1-2.176.672 3.462 3.462 0 0 1-2.512-.928A3.568 3.568 0 0 1 78-3.456a4.185 4.185 0 0 1 .9-2.752A3.037 3.037 0 0 1 81.376-7.3a2.911 2.911 0 0 1 2.288.912 3.259 3.259 0 0 1 .836 2.212 4.655 4.655 0 0 1-.1.912h-4.928q.1 2.272 2.1 2.272a1.767 1.767 0 0 0 1.256-.4 1.97 1.97 0 0 0 .568-.96zm-1.52-2.1a2.123 2.123 0 0 0-.34-1.348 1.474 1.474 0 0 0-1.352-.648 1.548 1.548 0 0 0-1.32.584 2.846 2.846 0 0 0-.536 1.416z" transform="translate(48 288)"/><path id="Path_450" data-name="Path 450" class="cls-6" d="M11.44 0H7.488v-1.264h1.248v-3.408h-5.36v3.408h1.248V0H.656v-1.264H1.92v-7.872H.656V-10.4h3.968v1.264H3.376V-5.9h5.36v-3.236H7.488V-10.4h3.952v1.264h-1.248v7.872h1.248zm7.44-2.112a2.429 2.429 0 0 1-.912 1.6 3.277 3.277 0 0 1-2.176.672 3.462 3.462 0 0 1-2.512-.928 3.568 3.568 0 0 1-.96-2.688 4.185 4.185 0 0 1 .9-2.752A3.037 3.037 0 0 1 15.7-7.3a2.911 2.911 0 0 1 2.288.912 3.259 3.259 0 0 1 .832 2.208 4.656 4.656 0 0 1-.1.912h-4.928q.1 2.272 2.1 2.272a1.767 1.767 0 0 0 1.256-.4 1.97 1.97 0 0 0 .568-.96zm-1.52-2.1a2.123 2.123 0 0 0-.344-1.352 1.474 1.474 0 0 0-1.352-.648 1.548 1.548 0 0 0-1.32.584 2.846 2.846 0 0 0-.536 1.416zm6.7-3.056a2.117 2.117 0 0 1 1.28.384l.288 2-1.1.128-.272-1.232A1.458 1.458 0 0 0 23.7-6.1a1.129 1.129 0 0 0-.912.456 1.839 1.839 0 0 0-.368 1.192v3.36h1.536V0h-4.1v-1.088h1.152v-4.96h-1.2v-1.1h2.512v1.308a2.432 2.432 0 0 1 .648-1.016 1.55 1.55 0 0 1 1.096-.408zm9.872 3.7A3.684 3.684 0 0 1 32.92-.88 3.577 3.577 0 0 1 30.24.16a3.384 3.384 0 0 1-2.584-1.008A3.71 3.71 0 0 1 26.7-3.5a4.122 4.122 0 0 1 .912-2.688 3.3 3.3 0 0 1 2.72-1.12A3.265 3.265 0 0 1 33.04-6.2a4.067 4.067 0 0 1 .896 2.632zm-1.472-.048a2.8 2.8 0 0 0-.584-1.872 1.961 1.961 0 0 0-1.576-.688 1.877 1.877 0 0 0-1.592.728 3 3 0 0 0-.552 1.864 3.124 3.124 0 0 0 .544 1.848 1.821 1.821 0 0 0 1.592.76A1.9 1.9 0 0 0 31.9-1.72a3.036 3.036 0 0 0 .564-1.896zm13.44.64a2.747 2.747 0 0 1-1.06 2.328 4.44 4.44 0 0 1-2.76.808 7.594 7.594 0 0 1-1.968-.248 4.2 4.2 0 0 1-1.472-.664l.24-2.208 1.168.112-.032 1.3a3.642 3.642 0 0 0 1.016.36A5.446 5.446 0 0 0 42-1.1a3.414 3.414 0 0 0 1.672-.376 1.409 1.409 0 0 0 .68-1.352 1.407 1.407 0 0 0-.76-1.432 7.984 7.984 0 0 0-1.7-.536 14.086 14.086 0 0 1-1.48-.4 2.732 2.732 0 0 1-1.216-.792A2.357 2.357 0 0 1 38.7-7.6a2.527 2.527 0 0 1 1.04-2.256 4.179 4.179 0 0 1 2.4-.7 6.367 6.367 0 0 1 1.808.264 3.85 3.85 0 0 1 1.392.68l.1 2.128-1.168.112-.172-1.46a3.282 3.282 0 0 0-.944-.352 4.656 4.656 0 0 0-.912-.1 2.456 2.456 0 0 0-1.432.384 1.294 1.294 0 0 0-.552 1.136 1.188 1.188 0 0 0 .672 1.192 7.733 7.733 0 0 0 1.488.5q.672.144 1.488.392a3.255 3.255 0 0 1 1.408.856 2.544 2.544 0 0 1 .584 1.848zm7.728.864a2.429 2.429 0 0 1-.912 1.6 3.277 3.277 0 0 1-2.172.672 3.462 3.462 0 0 1-2.512-.928 3.568 3.568 0 0 1-.96-2.688 4.185 4.185 0 0 1 .9-2.752A3.037 3.037 0 0 1 50.448-7.3a2.911 2.911 0 0 1 2.288.912 3.259 3.259 0 0 1 .832 2.208 4.656 4.656 0 0 1-.1.912h-4.924q.1 2.272 2.1 2.272a1.767 1.767 0 0 0 1.256-.4 1.97 1.97 0 0 0 .568-.96zm-1.52-2.1a2.123 2.123 0 0 0-.344-1.352 1.474 1.474 0 0 0-1.352-.648 1.548 1.548 0 0 0-1.32.584 2.846 2.846 0 0 0-.536 1.416zM61.1-2.48a3.5 3.5 0 0 1-.84 1.792A2.8 2.8 0 0 1 58 .16a3.247 3.247 0 0 1-2.424-.936 3.664 3.664 0 0 1-.92-2.68 4.161 4.161 0 0 1 .912-2.728A3.108 3.108 0 0 1 58.112-7.3a5.2 5.2 0 0 1 1.3.16 3.54 3.54 0 0 1 1.184.56l.284 1.86-1.136.128-.256-1.2a2.727 2.727 0 0 0-1.388-.352 1.656 1.656 0 0 0-1.488.728 3.356 3.356 0 0 0-.48 1.88 3.027 3.027 0 0 0 .512 1.872 1.774 1.774 0 0 0 1.5.672q1.488 0 1.776-1.728zm6.5.464A2.215 2.215 0 0 1 65.2.16a2.361 2.361 0 0 1-1.72-.6 2.226 2.226 0 0 1-.616-1.672V-6.08h-1.1v-1.072h1.1v-2.256h1.392v2.256h2.736v1.072h-2.736v3.76q0 1.28 1.1 1.28a1.271 1.271 0 0 0 .7-.232 1.581 1.581 0 0 0 .5-1.08zm1.616-6.816v-1.648h1.456v1.648zM71.872 0h-3.728v-1.088h1.168v-4.96H68.1v-1.1h2.62v6.064h1.152zm8.064-3.568A3.684 3.684 0 0 1 78.92-.88 3.577 3.577 0 0 1 76.24.16a3.384 3.384 0 0 1-2.584-1.008A3.71 3.71 0 0 1 72.7-3.5a4.122 4.122 0 0 1 .912-2.688 3.3 3.3 0 0 1 2.72-1.12A3.265 3.265 0 0 1 79.04-6.2a4.067 4.067 0 0 1 .896 2.632zm-1.472-.048a2.8 2.8 0 0 0-.584-1.872 1.961 1.961 0 0 0-1.58-.688 1.877 1.877 0 0 0-1.592.728 3 3 0 0 0-.552 1.864 3.124 3.124 0 0 0 .544 1.848 1.821 1.821 0 0 0 1.592.76A1.9 1.9 0 0 0 77.9-1.72a3.036 3.036 0 0 0 .564-1.896zM89.552 0H85.84v-1.088h1.152v-3.088a2.277 2.277 0 0 0-.416-1.544 1.422 1.422 0 0 0-1.1-.456 1.813 1.813 0 0 0-1.424.592 2.142 2.142 0 0 0-.56 1.376v3.12h1.148V0h-3.712v-1.088h1.152v-4.96h-1.2v-1.1h2.608v1.216A2.571 2.571 0 0 1 85.92-7.3a2.555 2.555 0 0 1 1.76.64 2.544 2.544 0 0 1 .72 2v3.568h1.152z" transform="translate(48 396)"/><path id="Path_451" data-name="Path 451" class="cls-7" d="M-9.68 0h-7.984v-1.68l2.864-2.9q.864-.9 1.392-1.5a5.168 5.168 0 0 0 .768-1.08 2.343 2.343 0 0 0 .24-1.048 1.3 1.3 0 0 0-.376-1.024 1.469 1.469 0 0 0-1.016-.336 2.892 2.892 0 0 0-1.28.3 6.9 6.9 0 0 0-1.312.864L-17.7-9.952a10.649 10.649 0 0 1 1.04-.792 5.043 5.043 0 0 1 1.288-.608 5.811 5.811 0 0 1 1.752-.232 4.232 4.232 0 0 1 1.928.408 3.076 3.076 0 0 1 1.248 1.1A2.887 2.887 0 0 1-10-8.5a3.944 3.944 0 0 1-.376 1.728 6.339 6.339 0 0 1-1.088 1.552q-.712.768-1.72 1.7l-1.472 1.376v.112h4.976zm2.3 0l4.288-9.392H-8.72v-2.032h8.192V-9.9L-4.848 0z" transform="translate(268 289)"/><path id="Path_452" data-name="Path 452" class="cls-7" d="M-9.68 0h-7.984v-1.68l2.864-2.9q.864-.9 1.392-1.5a5.168 5.168 0 0 0 .768-1.08 2.343 2.343 0 0 0 .24-1.048 1.3 1.3 0 0 0-.376-1.024 1.469 1.469 0 0 0-1.016-.336 2.892 2.892 0 0 0-1.28.3 6.9 6.9 0 0 0-1.312.864L-17.7-9.952a10.649 10.649 0 0 1 1.04-.792 5.043 5.043 0 0 1 1.288-.608 5.811 5.811 0 0 1 1.752-.232 4.232 4.232 0 0 1 1.928.408 3.076 3.076 0 0 1 1.248 1.1A2.887 2.887 0 0 1-10-8.5a3.944 3.944 0 0 1-.376 1.728 6.339 6.339 0 0 1-1.088 1.552q-.712.768-1.72 1.7l-1.472 1.376v.112h4.976zm5.328-7.3a4.163 4.163 0 0 1 1.852.4 3.064 3.064 0 0 1 1.292 1.172 3.575 3.575 0 0 1 .472 1.9A3.779 3.779 0 0 1-1.888-.9 4.861 4.861 0 0 1-5.3.16 8.516 8.516 0 0 1-6.984 0a5.336 5.336 0 0 1-1.384-.464v-2.08a6.957 6.957 0 0 0 1.424.52 6.251 6.251 0 0 0 1.568.216 2.635 2.635 0 0 0 1.64-.44 1.622 1.622 0 0 0 .568-1.368q0-1.728-2.288-1.728a5.145 5.145 0 0 0-.928.088q-.48.088-.8.168l-.96-.512.432-5.824h6.192v2.048H-5.6l-.208 2.24.584-.1a5.224 5.224 0 0 1 .872-.064z" transform="translate(317 289)"/><path id="Path_453" data-name="Path 453" class="cls-6" d="M8.816 0H5.2v-.912h1.248v-3.312a2.255 2.255 0 0 0-.472-1.624 1.636 1.636 0 0 0-1.208-.472 1.965 1.965 0 0 0-1.512.632 2.173 2.173 0 0 0-.616 1.416v3.36h1.232V0h-3.6v-.912H1.5V-10.1H.272v-.912H2.64v5.172a2.645 2.645 0 0 1 2.5-1.424 2.5 2.5 0 0 1 1.744.64 2.668 2.668 0 0 1 .7 2.064v3.648h1.232zM13.5-7.248a1.859 1.859 0 0 1 1.216.368l.272 1.792-.912.112-.272-1.216a1.625 1.625 0 0 0-.544-.1 1.281 1.281 0 0 0-1.04.52 2.1 2.1 0 0 0-.416 1.352v3.5h1.648V0H9.44v-.912h1.248v-5.3h-1.28v-.908h2.336v1.28a2.313 2.313 0 0 1 .68-1 1.6 1.6 0 0 1 1.076-.408zm8.56 5.184a1.869 1.869 0 0 1-.872 1.632A3.743 3.743 0 0 1 19.04.16a5.74 5.74 0 0 1-1.5-.2 4.2 4.2 0 0 1-1.208-.5l.228-1.62.9.1-.048.944a3.624 3.624 0 0 0 1.584.352 2.915 2.915 0 0 0 1.336-.3.96.96 0 0 0 .584-.9.864.864 0 0 0-.448-.832 3.638 3.638 0 0 0-1.112-.352q-.664-.112-1.336-.272a2.573 2.573 0 0 1-1.12-.552 1.543 1.543 0 0 1-.452-1.228 1.678 1.678 0 0 1 .832-1.6 3.651 3.651 0 0 1 1.808-.464 4.849 4.849 0 0 1 1.384.192 4.67 4.67 0 0 1 1.1.464l.176 1.664-.928.112-.18-1.152a3.091 3.091 0 0 0-1.456-.352 2.141 2.141 0 0 0-1.1.256.864.864 0 0 0-.432.8.819.819 0 0 0 .448.792 3.643 3.643 0 0 0 1.1.336q.656.1 1.312.264a2.479 2.479 0 0 1 1.1.568 1.618 1.618 0 0 1 .452 1.256z" transform="translate(268 288)"/><path id="Path_454" data-name="Path 454" class="cls-6" d="M13.664 0h-3.408v-.912H11.3v-3.312a2.309 2.309 0 0 0-.456-1.624A1.544 1.544 0 0 0 9.68-6.32a1.74 1.74 0 0 0-1.5.736 2.547 2.547 0 0 0-.544 1.408v3.264h1.228V0H5.472v-.912H6.5v-3.312a2.334 2.334 0 0 0-.448-1.632 1.512 1.512 0 0 0-1.14-.464 1.756 1.756 0 0 0-1.512.712 2.588 2.588 0 0 0-.552 1.4v3.3H4.16V0H.48v-.912h1.248v-5.3H.464v-.908h2.384v1.328a3.1 3.1 0 0 1 .944-1.056 2.441 2.441 0 0 1 1.44-.416 2.525 2.525 0 0 1 1.448.416 2.118 2.118 0 0 1 .84 1.3 2.985 2.985 0 0 1 .952-1.232 2.5 2.5 0 0 1 1.56-.48 2.389 2.389 0 0 1 1.7.64 2.725 2.725 0 0 1 .68 2.064v3.644h1.248zm1.824-8.96v-1.456H16.7v1.456zM17.968 0h-3.616v-.912H15.6v-5.3h-1.28v-.908h2.4v6.208h1.248zm9.344 0h-3.6v-.912h1.232v-3.312a2.282 2.282 0 0 0-.464-1.624 1.589 1.589 0 0 0-1.18-.472 2 2 0 0 0-1.544.632 2.207 2.207 0 0 0-.616 1.448v3.328h1.248V0h-3.62v-.912h1.248v-5.3h-1.28v-.908h2.4v1.264a2.629 2.629 0 0 1 2.5-1.408 2.5 2.5 0 0 1 1.744.64 2.668 2.668 0 0 1 .7 2.064v3.648h1.232z" transform="translate(317 288)"/><path id="Path_455" data-name="Path 455" class="cls-7" d="M-9.744-5.712a11.1 11.1 0 0 1-.392 3.152 3.936 3.936 0 0 1-1.272 2.016 3.63 3.63 0 0 1-2.336.7 3.3 3.3 0 0 1-3.024-1.552 8.208 8.208 0 0 1-.96-4.32 11.407 11.407 0 0 1 .384-3.16A3.894 3.894 0 0 1-16.08-10.9a3.63 3.63 0 0 1 2.336-.7 3.319 3.319 0 0 1 3.024 1.552 8.135 8.135 0 0 1 .976 4.336zm-5.584 0a9.655 9.655 0 0 0 .336 2.936 1.257 1.257 0 0 0 1.248.984 1.272 1.272 0 0 0 1.244-.976 9.23 9.23 0 0 0 .352-2.944 9.32 9.32 0 0 0-.352-2.944 1.276 1.276 0 0 0-1.248-.992 1.259 1.259 0 0 0-1.248.992 9.738 9.738 0 0 0-.332 2.944zM-.528 0h-7.984v-1.68l2.864-2.9q.864-.9 1.392-1.5a5.168 5.168 0 0 0 .768-1.08 2.343 2.343 0 0 0 .24-1.048 1.3 1.3 0 0 0-.376-1.024 1.469 1.469 0 0 0-1.016-.336 2.892 2.892 0 0 0-1.28.3 6.9 6.9 0 0 0-1.312.868l-1.312-1.552a10.649 10.649 0 0 1 1.04-.792 5.043 5.043 0 0 1 1.288-.608 5.811 5.811 0 0 1 1.752-.232 4.232 4.232 0 0 1 1.928.408 3.076 3.076 0 0 1 1.248 1.1A2.887 2.887 0 0 1-.848-8.5a3.944 3.944 0 0 1-.376 1.728 6.339 6.339 0 0 1-1.088 1.556q-.712.768-1.72 1.7L-5.5-2.144v.112h4.972z" transform="translate(268 397)"/><path id="Path_456" data-name="Path 456" class="cls-7" d="M-10.128-8.864a2.535 2.535 0 0 1-.712 1.888 3.693 3.693 0 0 1-1.752.96v.048a3.659 3.659 0 0 1 2.08.848 2.334 2.334 0 0 1 .72 1.792 3.332 3.332 0 0 1-.488 1.784A3.273 3.273 0 0 1-11.784-.3 6.43 6.43 0 0 1-14.4.16a8.22 8.22 0 0 1-3.3-.624v-2.048a7.16 7.16 0 0 0 1.536.56 6.459 6.459 0 0 0 1.5.192 2.816 2.816 0 0 0 1.816-.448 1.578 1.578 0 0 0 .52-1.264 1.34 1.34 0 0 0-.24-.8 1.481 1.481 0 0 0-.84-.5 6.5 6.5 0 0 0-1.672-.168h-.864V-6.8h.88a4.962 4.962 0 0 0 1.616-.2 1.359 1.359 0 0 0 .752-.544 1.547 1.547 0 0 0 .2-.792 1.226 1.226 0 0 0-.376-.952 1.843 1.843 0 0 0-1.256-.344 3.294 3.294 0 0 0-1.424.288 9.228 9.228 0 0 0-1.008.544l-1.12-1.664a6.328 6.328 0 0 1 1.576-.8 6.464 6.464 0 0 1 2.152-.32 4.843 4.843 0 0 1 2.792.712 2.3 2.3 0 0 1 1.032 2.008zm9.536 3.152A11.1 11.1 0 0 1-.984-2.56 3.936 3.936 0 0 1-2.256-.544a3.63 3.63 0 0 1-2.336.7 3.3 3.3 0 0 1-3.024-1.548 8.208 8.208 0 0 1-.96-4.32 11.407 11.407 0 0 1 .384-3.16A3.894 3.894 0 0 1-6.928-10.9a3.63 3.63 0 0 1 2.336-.7 3.319 3.319 0 0 1 3.024 1.552 8.135 8.135 0 0 1 .976 4.336zm-5.584 0a9.655 9.655 0 0 0 .336 2.936 1.257 1.257 0 0 0 1.248.984 1.272 1.272 0 0 0 1.248-.976 9.23 9.23 0 0 0 .352-2.944 9.32 9.32 0 0 0-.352-2.944 1.276 1.276 0 0 0-1.248-.992 1.259 1.259 0 0 0-1.248.992 9.738 9.738 0 0 0-.336 2.944z" transform="translate(317 397)"/><path id="Path_457" data-name="Path 457" class="cls-6" d="M8.816 0H5.2v-.912h1.248v-3.312a2.255 2.255 0 0 0-.472-1.624 1.636 1.636 0 0 0-1.208-.472 1.965 1.965 0 0 0-1.512.632 2.173 2.173 0 0 0-.616 1.416v3.36h1.232V0h-3.6v-.912H1.5V-10.1H.272v-.912H2.64v5.172a2.645 2.645 0 0 1 2.5-1.424 2.5 2.5 0 0 1 1.744.64 2.668 2.668 0 0 1 .7 2.064v3.648h1.232zM13.5-7.248a1.859 1.859 0 0 1 1.216.368l.272 1.792-.912.112-.272-1.216a1.625 1.625 0 0 0-.544-.1 1.281 1.281 0 0 0-1.04.52 2.1 2.1 0 0 0-.416 1.352v3.5h1.648V0H9.44v-.912h1.248v-5.3h-1.28v-.908h2.336v1.28a2.313 2.313 0 0 1 .68-1 1.6 1.6 0 0 1 1.076-.408zm8.56 5.184a1.869 1.869 0 0 1-.872 1.632A3.743 3.743 0 0 1 19.04.16a5.74 5.74 0 0 1-1.5-.2 4.2 4.2 0 0 1-1.208-.5l.228-1.62.9.1-.048.944a3.624 3.624 0 0 0 1.584.352 2.915 2.915 0 0 0 1.336-.3.96.96 0 0 0 .584-.9.864.864 0 0 0-.448-.832 3.638 3.638 0 0 0-1.112-.352q-.664-.112-1.336-.272a2.573 2.573 0 0 1-1.12-.552 1.543 1.543 0 0 1-.452-1.228 1.678 1.678 0 0 1 .832-1.6 3.651 3.651 0 0 1 1.808-.464 4.849 4.849 0 0 1 1.384.192 4.67 4.67 0 0 1 1.1.464l.176 1.664-.928.112-.18-1.152a3.091 3.091 0 0 0-1.456-.352 2.141 2.141 0 0 0-1.1.256.864.864 0 0 0-.432.8.819.819 0 0 0 .448.792 3.643 3.643 0 0 0 1.1.336q.656.1 1.312.264a2.479 2.479 0 0 1 1.1.568 1.618 1.618 0 0 1 .452 1.256z" transform="translate(268 396)"/><path id="Path_458" data-name="Path 458" class="cls-6" d="M13.664 0h-3.408v-.912H11.3v-3.312a2.309 2.309 0 0 0-.456-1.624A1.544 1.544 0 0 0 9.68-6.32a1.74 1.74 0 0 0-1.5.736 2.547 2.547 0 0 0-.544 1.408v3.264h1.228V0H5.472v-.912H6.5v-3.312a2.334 2.334 0 0 0-.448-1.632 1.512 1.512 0 0 0-1.14-.464 1.756 1.756 0 0 0-1.512.712 2.588 2.588 0 0 0-.552 1.4v3.3H4.16V0H.48v-.912h1.248v-5.3H.464v-.908h2.384v1.328a3.1 3.1 0 0 1 .944-1.056 2.441 2.441 0 0 1 1.44-.416 2.525 2.525 0 0 1 1.448.416 2.118 2.118 0 0 1 .84 1.3 2.985 2.985 0 0 1 .952-1.232 2.5 2.5 0 0 1 1.56-.48 2.389 2.389 0 0 1 1.7.64 2.725 2.725 0 0 1 .68 2.064v3.644h1.248zm1.824-8.96v-1.456H16.7v1.456zM17.968 0h-3.616v-.912H15.6v-5.3h-1.28v-.908h2.4v6.208h1.248zm9.344 0h-3.6v-.912h1.232v-3.312a2.282 2.282 0 0 0-.464-1.624 1.589 1.589 0 0 0-1.18-.472 2 2 0 0 0-1.544.632 2.207 2.207 0 0 0-.616 1.448v3.328h1.248V0h-3.62v-.912h1.248v-5.3h-1.28v-.908h2.4v1.264a2.629 2.629 0 0 1 2.5-1.408 2.5 2.5 0 0 1 1.744.64 2.668 2.668 0 0 1 .7 2.064v3.648h1.232z" transform="translate(317 396)"/><path id="Path_459" data-name="Path 459" class="cls-2" d="M2 0h324a2 2 0 0 1 2 2v47a2 2 0 0 1-2 2H2a2 2 0 0 1-2-2V2a2 2 0 0 1 2-2z" transform="translate(32 416)"/><path id="Path_460" data-name="Path 460" class="cls-6" d="M5.936 0H.8v-1.264h1.888v-5.808H.8v-1.264h3.344v7.072h1.792zm7.056 2.1h-1.456V-.512H6.7l-.16-1.232 3.568-6.592h2.88v6.592h1.652L14.5-.512H13zm-1.456-3.84v-5.348h-.72l-2.88 5.344zM15.84 0v-1.984h1.824V0zm11.184-4.112A4.437 4.437 0 0 1 25.976-.96 3.824 3.824 0 0 1 23.04.16a3.67 3.67 0 0 1-2.888-1.12 4.522 4.522 0 0 1-1-3.12 4.881 4.881 0 0 1 1.008-3.168A3.562 3.562 0 0 1 23.1-8.5a3.475 3.475 0 0 1 2.968 1.264 5.037 5.037 0 0 1 .956 3.124zm-1.552-.08q0-3.024-2.368-3.024-2.384 0-2.384 3.04 0 3.056 2.368 3.056a2.186 2.186 0 0 0 1.752-.736 3.545 3.545 0 0 0 .632-2.336zm3.312-3.536a6.532 6.532 0 0 1 1.344-.544 5.356 5.356 0 0 1 1.5-.224 3.526 3.526 0 0 1 2.176.648 2.24 2.24 0 0 1 .864 1.912A2.527 2.527 0 0 1 34.24-4.5a2.843 2.843 0 0 1-1.52 1.016v.064a2.694 2.694 0 0 1 1.856.952 2.783 2.783 0 0 1 .512 1.64 2.784 2.784 0 0 1-.984 2.28 3.917 3.917 0 0 1-2.568.808 3.484 3.484 0 0 1-2.344-.688 2.722 2.722 0 0 1-.936-1.744l1.152-.388a2.583 2.583 0 0 0 .64 1.088 1.947 1.947 0 0 0 1.456.48A1.837 1.837 0 0 0 33.112.4a2.3 2.3 0 0 0 .424-1.344 1.57 1.57 0 0 0-.664-1.376 4.193 4.193 0 0 0-2.2-.512v-1.024a2.515 2.515 0 0 0 1.968-.672 1.992 1.992 0 0 0 .48-1.2q0-1.52-1.728-1.52a3.721 3.721 0 0 0-.744.088 2.9 2.9 0 0 0-.76.264l-.256 1.264-1.152-.128zM36.544 0v-1.984h1.824V0zm3.824-7.824a6.35 6.35 0 0 1 1.488-.5 7.2 7.2 0 0 1 1.472-.176 2.984 2.984 0 0 1 2.352.8 2.519 2.519 0 0 1 .688 1.672 2.886 2.886 0 0 1-.784 1.968A8.85 8.85 0 0 1 43.7-2.488q-1.1.7-2.024 1.224h3.952l.128-1.168 1.184.1L46.752 0h-6.72L39.9-1.136q2.16-1.44 3.536-2.5a2.9 2.9 0 0 0 1.376-2.2q0-1.408-1.76-1.408a4.078 4.078 0 0 0-.768.088 3.954 3.954 0 0 0-.816.248l-.256 1.184-1.132-.132zm15.7 3.712A4.437 4.437 0 0 1 55.016-.96 3.824 3.824 0 0 1 52.08.16a3.67 3.67 0 0 1-2.888-1.12 4.522 4.522 0 0 1-1-3.12A4.881 4.881 0 0 1 49.2-7.248 3.562 3.562 0 0 1 52.144-8.5a3.475 3.475 0 0 1 2.968 1.264 5.037 5.037 0 0 1 .952 3.124zm-1.552-.08q0-3.024-2.368-3.024-2.384 0-2.384 3.04 0 3.056 2.368 3.056a2.186 2.186 0 0 0 1.752-.736 3.545 3.545 0 0 0 .628-2.336zM62.672 0h-5.136v-1.264h1.888v-5.808h-1.888v-1.264h3.344v7.072h1.792zm1.008-5.008a3.708 3.708 0 0 1 .856-2.472 3.229 3.229 0 0 1 2.616-1.02 2.989 2.989 0 0 1 2.864 1.44 7.448 7.448 0 0 1 .8 3.648 8.421 8.421 0 0 1-.872 3.988 3.167 3.167 0 0 1-3.064 1.648A3.617 3.617 0 0 1 63.872.816l.848-.864A2.674 2.674 0 0 0 66.928.976a1.825 1.825 0 0 0 1.808-1.032 7.629 7.629 0 0 0 .544-3.016v-.352a2.884 2.884 0 0 1-.88 1.112 2.791 2.791 0 0 1-1.792.5 2.547 2.547 0 0 1-2.264-.968 3.85 3.85 0 0 1-.664-2.228zm1.488-.064a2.384 2.384 0 0 0 .424 1.512 1.722 1.722 0 0 0 1.432.536 1.912 1.912 0 0 0 1.64-.656 2.669 2.669 0 0 0 .552-1.36 3.032 3.032 0 0 0-.576-1.576 1.827 1.827 0 0 0-1.52-.584 1.8 1.8 0 0 0-1.5.568 2.456 2.456 0 0 0-.452 1.56zM72.32 0v-1.984h1.824V0z" transform="translate(48 447)"/><path id="Path_461" data-name="Path 461" class="cls-7" d="M5.936 0H.8v-1.264h1.888v-5.808H.8v-1.264h3.344v7.072h1.792zM13.9-1.056a3.054 3.054 0 0 1-.976 2.472 3.884 3.884 0 0 1-2.592.824 3.524 3.524 0 0 1-2.328-.68A2.731 2.731 0 0 1 7.04-.176L8.208-.56A2.18 2.18 0 0 0 8.864.552a1.981 1.981 0 0 0 1.392.456A2 2 0 0 0 11.84.44a2.145 2.145 0 0 0 .5-1.464 1.662 1.662 0 0 0-.912-1.736A5.555 5.555 0 0 0 9.3-3.136q-.32 0-.68.016t-.7.048l-.48-.464v-4.8h5.968l.176 2.416-1.216.112-.192-1.28H8.784v2.752q.176-.016.368-.016h.368a8.52 8.52 0 0 1 2.12.256 3.175 3.175 0 0 1 1.632.968 3.028 3.028 0 0 1 .628 2.072zm1.6-4.112v-1.984h1.7v1.984zM15.5 0v-1.984h1.7V0zm3.78-7.728a6.532 6.532 0 0 1 1.344-.544 5.356 5.356 0 0 1 1.5-.224 3.526 3.526 0 0 1 2.176.648 2.24 2.24 0 0 1 .864 1.912 2.527 2.527 0 0 1-.428 1.436 2.843 2.843 0 0 1-1.52 1.016v.064a2.694 2.694 0 0 1 1.856.952 2.783 2.783 0 0 1 .512 1.64 2.784 2.784 0 0 1-.984 2.28 3.917 3.917 0 0 1-2.568.808 3.484 3.484 0 0 1-2.344-.688 2.722 2.722 0 0 1-.936-1.744L19.9-.56a2.583 2.583 0 0 0 .64 1.088 1.947 1.947 0 0 0 1.46.48A1.837 1.837 0 0 0 23.608.4a2.3 2.3 0 0 0 .424-1.344 1.57 1.57 0 0 0-.664-1.376 4.193 4.193 0 0 0-2.2-.512v-1.024a2.515 2.515 0 0 0 1.968-.672 1.992 1.992 0 0 0 .48-1.2q0-1.52-1.728-1.52a3.721 3.721 0 0 0-.744.088 2.9 2.9 0 0 0-.76.264l-.256 1.264-1.152-.128zm15.488 3.616A4.437 4.437 0 0 1 33.72-.96 3.824 3.824 0 0 1 30.784.16 3.67 3.67 0 0 1 27.9-.96a4.522 4.522 0 0 1-1-3.12 4.881 4.881 0 0 1 1-3.168A3.562 3.562 0 0 1 30.848-8.5a3.475 3.475 0 0 1 2.968 1.264 5.037 5.037 0 0 1 .952 3.124zm-1.552-.08q0-3.024-2.368-3.024-2.384 0-2.384 3.04 0 3.056 2.368 3.056a2.186 2.186 0 0 0 1.752-.736 3.545 3.545 0 0 0 .632-2.336zm3.072-.108h3.744v1.2h-3.744zM46.592 0h-5.136v-1.264h1.888v-5.808h-1.888v-1.264H44.8v7.072h1.792zm7.056 2.1h-1.456V-.512H47.36l-.16-1.232 3.568-6.592h2.88v6.592H55.3l-.148 1.232h-1.5zm-1.456-3.84v-5.348h-.72l-2.88 5.344zm4.5-3.424v-1.988h1.7v1.984zm0 5.168v-1.988h1.7V0zM67.92-4.112A4.437 4.437 0 0 1 66.872-.96 3.824 3.824 0 0 1 63.936.16a3.67 3.67 0 0 1-2.888-1.12 4.522 4.522 0 0 1-1-3.12 4.881 4.881 0 0 1 1.008-3.168A3.562 3.562 0 0 1 64-8.5a3.475 3.475 0 0 1 2.968 1.264 5.037 5.037 0 0 1 .952 3.124zm-1.552-.08q0-3.024-2.368-3.024-2.384 0-2.384 3.04 0 3.056 2.368 3.056a2.186 2.186 0 0 0 1.752-.736 3.545 3.545 0 0 0 .632-2.336zm10.768.08A4.437 4.437 0 0 1 76.088-.96 3.824 3.824 0 0 1 73.152.16a3.67 3.67 0 0 1-2.888-1.12 4.522 4.522 0 0 1-1-3.12 4.881 4.881 0 0 1 1.008-3.168A3.562 3.562 0 0 1 73.216-8.5a3.475 3.475 0 0 1 2.968 1.264 5.037 5.037 0 0 1 .952 3.124zm-1.552-.08q0-3.024-2.368-3.024-2.384 0-2.384 3.04 0 3.056 2.368 3.056a2.186 2.186 0 0 0 1.752-.736 3.545 3.545 0 0 0 .632-2.336z" transform="translate(133 447)"/><path id="Path_462" data-name="Path 462" class="cls-7" d="M-.592-5.712A11.1 11.1 0 0 1-.984-2.56 3.936 3.936 0 0 1-2.256-.544a3.63 3.63 0 0 1-2.336.7 3.3 3.3 0 0 1-3.024-1.548 8.208 8.208 0 0 1-.96-4.32 11.407 11.407 0 0 1 .384-3.16A3.894 3.894 0 0 1-6.928-10.9a3.63 3.63 0 0 1 2.336-.7 3.319 3.319 0 0 1 3.024 1.552 8.135 8.135 0 0 1 .976 4.336zm-5.584 0a9.655 9.655 0 0 0 .336 2.936 1.257 1.257 0 0 0 1.248.984 1.272 1.272 0 0 0 1.248-.976 9.23 9.23 0 0 0 .352-2.944 9.32 9.32 0 0 0-.352-2.944 1.276 1.276 0 0 0-1.248-.992 1.259 1.259 0 0 0-1.248.992 9.738 9.738 0 0 0-.336 2.944z" transform="translate(268 448)"/><path id="Path_463" data-name="Path 463" class="cls-7" d="M-10.128-8.864a2.535 2.535 0 0 1-.712 1.888 3.693 3.693 0 0 1-1.752.96v.048a3.659 3.659 0 0 1 2.08.848 2.334 2.334 0 0 1 .72 1.792 3.332 3.332 0 0 1-.488 1.784A3.273 3.273 0 0 1-11.784-.3 6.43 6.43 0 0 1-14.4.16a8.22 8.22 0 0 1-3.3-.624v-2.048a7.16 7.16 0 0 0 1.536.56 6.459 6.459 0 0 0 1.5.192 2.816 2.816 0 0 0 1.816-.448 1.578 1.578 0 0 0 .52-1.264 1.34 1.34 0 0 0-.24-.8 1.481 1.481 0 0 0-.84-.5 6.5 6.5 0 0 0-1.672-.168h-.864V-6.8h.88a4.962 4.962 0 0 0 1.616-.2 1.359 1.359 0 0 0 .752-.544 1.547 1.547 0 0 0 .2-.792 1.226 1.226 0 0 0-.376-.952 1.843 1.843 0 0 0-1.256-.344 3.294 3.294 0 0 0-1.424.288 9.228 9.228 0 0 0-1.008.544l-1.12-1.664a6.328 6.328 0 0 1 1.576-.8 6.464 6.464 0 0 1 2.152-.32 4.843 4.843 0 0 1 2.792.712 2.3 2.3 0 0 1 1.032 2.008zm9.536 3.152A11.1 11.1 0 0 1-.984-2.56 3.936 3.936 0 0 1-2.256-.544a3.63 3.63 0 0 1-2.336.7 3.3 3.3 0 0 1-3.024-1.548 8.208 8.208 0 0 1-.96-4.32 11.407 11.407 0 0 1 .384-3.16A3.894 3.894 0 0 1-6.928-10.9a3.63 3.63 0 0 1 2.336-.7 3.319 3.319 0 0 1 3.024 1.552 8.135 8.135 0 0 1 .976 4.336zm-5.584 0a9.655 9.655 0 0 0 .336 2.936 1.257 1.257 0 0 0 1.248.984 1.272 1.272 0 0 0 1.248-.976 9.23 9.23 0 0 0 .352-2.944 9.32 9.32 0 0 0-.352-2.944 1.276 1.276 0 0 0-1.248-.992 1.259 1.259 0 0 0-1.248.992 9.738 9.738 0 0 0-.336 2.944z" transform="translate(317 448)"/><path id="Path_464" data-name="Path 464" class="cls-6" d="M8.816 0H5.2v-.912h1.248v-3.312a2.255 2.255 0 0 0-.472-1.624 1.636 1.636 0 0 0-1.208-.472 1.965 1.965 0 0 0-1.512.632 2.173 2.173 0 0 0-.616 1.416v3.36h1.232V0h-3.6v-.912H1.5V-10.1H.272v-.912H2.64v5.172a2.645 2.645 0 0 1 2.5-1.424 2.5 2.5 0 0 1 1.744.64 2.668 2.668 0 0 1 .7 2.064v3.648h1.232zM13.5-7.248a1.859 1.859 0 0 1 1.216.368l.272 1.792-.912.112-.272-1.216a1.625 1.625 0 0 0-.544-.1 1.281 1.281 0 0 0-1.04.52 2.1 2.1 0 0 0-.416 1.352v3.5h1.648V0H9.44v-.912h1.248v-5.3h-1.28v-.908h2.336v1.28a2.313 2.313 0 0 1 .68-1 1.6 1.6 0 0 1 1.076-.408zm8.56 5.184a1.869 1.869 0 0 1-.872 1.632A3.743 3.743 0 0 1 19.04.16a5.74 5.74 0 0 1-1.5-.2 4.2 4.2 0 0 1-1.208-.5l.228-1.62.9.1-.048.944a3.624 3.624 0 0 0 1.584.352 2.915 2.915 0 0 0 1.336-.3.96.96 0 0 0 .584-.9.864.864 0 0 0-.448-.832 3.638 3.638 0 0 0-1.112-.352q-.664-.112-1.336-.272a2.573 2.573 0 0 1-1.12-.552 1.543 1.543 0 0 1-.452-1.228 1.678 1.678 0 0 1 .832-1.6 3.651 3.651 0 0 1 1.808-.464 4.849 4.849 0 0 1 1.384.192 4.67 4.67 0 0 1 1.1.464l.176 1.664-.928.112-.18-1.152a3.091 3.091 0 0 0-1.456-.352 2.141 2.141 0 0 0-1.1.256.864.864 0 0 0-.432.8.819.819 0 0 0 .448.792 3.643 3.643 0 0 0 1.1.336q.656.1 1.312.264a2.479 2.479 0 0 1 1.1.568 1.618 1.618 0 0 1 .452 1.256z" transform="translate(268 447)"/><path id="Path_465" data-name="Path 465" class="cls-6" d="M13.664 0h-3.408v-.912H11.3v-3.312a2.309 2.309 0 0 0-.456-1.624A1.544 1.544 0 0 0 9.68-6.32a1.74 1.74 0 0 0-1.5.736 2.547 2.547 0 0 0-.544 1.408v3.264h1.228V0H5.472v-.912H6.5v-3.312a2.334 2.334 0 0 0-.448-1.632 1.512 1.512 0 0 0-1.14-.464 1.756 1.756 0 0 0-1.512.712 2.588 2.588 0 0 0-.552 1.4v3.3H4.16V0H.48v-.912h1.248v-5.3H.464v-.908h2.384v1.328a3.1 3.1 0 0 1 .944-1.056 2.441 2.441 0 0 1 1.44-.416 2.525 2.525 0 0 1 1.448.416 2.118 2.118 0 0 1 .84 1.3 2.985 2.985 0 0 1 .952-1.232 2.5 2.5 0 0 1 1.56-.48 2.389 2.389 0 0 1 1.7.64 2.725 2.725 0 0 1 .68 2.064v3.644h1.248zm1.824-8.96v-1.456H16.7v1.456zM17.968 0h-3.616v-.912H15.6v-5.3h-1.28v-.908h2.4v6.208h1.248zm9.344 0h-3.6v-.912h1.232v-3.312a2.282 2.282 0 0 0-.464-1.624 1.589 1.589 0 0 0-1.18-.472 2 2 0 0 0-1.544.632 2.207 2.207 0 0 0-.616 1.448v3.328h1.248V0h-3.62v-.912h1.248v-5.3h-1.28v-.908h2.4v1.264a2.629 2.629 0 0 1 2.5-1.408 2.5 2.5 0 0 1 1.744.64 2.668 2.668 0 0 1 .7 2.064v3.648h1.232z" transform="translate(317 447)"/><path id="Path_466" data-name="Path 466" class="cls-2" d="M2 0h324a2 2 0 0 1 2 2v47a2 2 0 0 1-2 2H2a2 2 0 0 1-2-2V2a2 2 0 0 1 2-2z" transform="translate(32 467)"/><path id="Path_467" data-name="Path 467" class="cls-6" d="M5.936 0H.8v-1.264h1.888v-5.808H.8v-1.264h3.344v7.072h1.792zm7.056 2.1h-1.456V-.512H6.7l-.16-1.232 3.568-6.592h2.88v6.592h1.652L14.5-.512H13zm-1.456-3.84v-5.348h-.72l-2.88 5.344zM15.84 0v-1.984h1.824V0zm11.184-4.112A4.437 4.437 0 0 1 25.976-.96 3.824 3.824 0 0 1 23.04.16a3.67 3.67 0 0 1-2.888-1.12 4.522 4.522 0 0 1-1-3.12 4.881 4.881 0 0 1 1.008-3.168A3.562 3.562 0 0 1 23.1-8.5a3.475 3.475 0 0 1 2.968 1.264 5.037 5.037 0 0 1 .956 3.124zm-1.552-.08q0-3.024-2.368-3.024-2.384 0-2.384 3.04 0 3.056 2.368 3.056a2.186 2.186 0 0 0 1.752-.736 3.545 3.545 0 0 0 .632-2.336zm3.312-3.536a6.532 6.532 0 0 1 1.344-.544 5.356 5.356 0 0 1 1.5-.224 3.526 3.526 0 0 1 2.176.648 2.24 2.24 0 0 1 .864 1.912A2.527 2.527 0 0 1 34.24-4.5a2.843 2.843 0 0 1-1.52 1.016v.064a2.694 2.694 0 0 1 1.856.952 2.783 2.783 0 0 1 .512 1.64 2.784 2.784 0 0 1-.984 2.28 3.917 3.917 0 0 1-2.568.808 3.484 3.484 0 0 1-2.344-.688 2.722 2.722 0 0 1-.936-1.744l1.152-.388a2.583 2.583 0 0 0 .64 1.088 1.947 1.947 0 0 0 1.456.48A1.837 1.837 0 0 0 33.112.4a2.3 2.3 0 0 0 .424-1.344 1.57 1.57 0 0 0-.664-1.376 4.193 4.193 0 0 0-2.2-.512v-1.024a2.515 2.515 0 0 0 1.968-.672 1.992 1.992 0 0 0 .48-1.2q0-1.52-1.728-1.52a3.721 3.721 0 0 0-.744.088 2.9 2.9 0 0 0-.76.264l-.256 1.264-1.152-.128zM36.544 0v-1.984h1.824V0zm3.824-7.824a6.35 6.35 0 0 1 1.488-.5 7.2 7.2 0 0 1 1.472-.176 2.984 2.984 0 0 1 2.352.8 2.519 2.519 0 0 1 .688 1.672 2.886 2.886 0 0 1-.784 1.968A8.85 8.85 0 0 1 43.7-2.488q-1.1.7-2.024 1.224h3.952l.128-1.168 1.184.1L46.752 0h-6.72L39.9-1.136q2.16-1.44 3.536-2.5a2.9 2.9 0 0 0 1.376-2.2q0-1.408-1.76-1.408a4.078 4.078 0 0 0-.768.088 3.954 3.954 0 0 0-.816.248l-.256 1.184-1.132-.132zm15.7 3.712A4.437 4.437 0 0 1 55.016-.96 3.824 3.824 0 0 1 52.08.16a3.67 3.67 0 0 1-2.888-1.12 4.522 4.522 0 0 1-1-3.12A4.881 4.881 0 0 1 49.2-7.248 3.562 3.562 0 0 1 52.144-8.5a3.475 3.475 0 0 1 2.968 1.264 5.037 5.037 0 0 1 .952 3.124zm-1.552-.08q0-3.024-2.368-3.024-2.384 0-2.384 3.04 0 3.056 2.368 3.056a2.186 2.186 0 0 0 1.752-.736 3.545 3.545 0 0 0 .628-2.336zM62.672 0h-5.136v-1.264h1.888v-5.808h-1.888v-1.264h3.344v7.072h1.792zm1.008-5.008a3.708 3.708 0 0 1 .856-2.472 3.229 3.229 0 0 1 2.616-1.02 2.989 2.989 0 0 1 2.864 1.44 7.448 7.448 0 0 1 .8 3.648 8.421 8.421 0 0 1-.872 3.988 3.167 3.167 0 0 1-3.064 1.648A3.617 3.617 0 0 1 63.872.816l.848-.864A2.674 2.674 0 0 0 66.928.976a1.825 1.825 0 0 0 1.808-1.032 7.629 7.629 0 0 0 .544-3.016v-.352a2.884 2.884 0 0 1-.88 1.112 2.791 2.791 0 0 1-1.792.5 2.547 2.547 0 0 1-2.264-.968 3.85 3.85 0 0 1-.664-2.228zm1.488-.064a2.384 2.384 0 0 0 .424 1.512 1.722 1.722 0 0 0 1.432.536 1.912 1.912 0 0 0 1.64-.656 2.669 2.669 0 0 0 .552-1.36 3.032 3.032 0 0 0-.576-1.576 1.827 1.827 0 0 0-1.52-.584 1.8 1.8 0 0 0-1.5.568 2.456 2.456 0 0 0-.452 1.56zM72.32 0v-1.984h1.824V0z" transform="translate(48 498)"/><path id="Path_468" data-name="Path 468" class="cls-7" d="M5.936 0H.8v-1.264h1.888v-5.808H.8v-1.264h3.344v7.072h1.792zm1.5-7.824a6.35 6.35 0 0 1 1.488-.5A7.2 7.2 0 0 1 10.4-8.5a2.984 2.984 0 0 1 2.352.792 2.519 2.519 0 0 1 .688 1.672 2.886 2.886 0 0 1-.784 1.968 8.85 8.85 0 0 1-1.88 1.576q-1.1.7-2.024 1.224H12.7l.128-1.168 1.184.1L13.824 0H7.1l-.124-1.136q2.16-1.44 3.536-2.5a2.9 2.9 0 0 0 1.376-2.2q0-1.408-1.76-1.408a4.078 4.078 0 0 0-.768.088 3.954 3.954 0 0 0-.816.248l-.256 1.18-1.136-.128zM15.6-5.168v-1.984h1.7v1.984zM15.6 0v-1.984h1.7V0zm3.776-7.728a6.532 6.532 0 0 1 1.344-.544 5.356 5.356 0 0 1 1.5-.224 3.526 3.526 0 0 1 2.176.648 2.24 2.24 0 0 1 .864 1.912 2.527 2.527 0 0 1-.428 1.436 2.843 2.843 0 0 1-1.52 1.016v.064a2.694 2.694 0 0 1 1.856.952 2.783 2.783 0 0 1 .512 1.64 2.784 2.784 0 0 1-.984 2.28 3.917 3.917 0 0 1-2.568.808 3.484 3.484 0 0 1-2.344-.688 2.722 2.722 0 0 1-.936-1.744L20-.56a2.583 2.583 0 0 0 .64 1.088 1.947 1.947 0 0 0 1.456.48A1.837 1.837 0 0 0 23.7.4a2.3 2.3 0 0 0 .424-1.344 1.57 1.57 0 0 0-.664-1.376 4.193 4.193 0 0 0-2.2-.512v-1.024a2.515 2.515 0 0 0 1.968-.672 1.992 1.992 0 0 0 .48-1.2q0-1.52-1.728-1.52a3.721 3.721 0 0 0-.744.088 2.9 2.9 0 0 0-.76.264l-.256 1.264-1.148-.128zm15.488 3.616A4.437 4.437 0 0 1 33.816-.96 3.824 3.824 0 0 1 30.88.16a3.67 3.67 0 0 1-2.888-1.12 4.522 4.522 0 0 1-1-3.12A4.881 4.881 0 0 1 28-7.248 3.562 3.562 0 0 1 30.944-8.5a3.475 3.475 0 0 1 2.968 1.264 5.037 5.037 0 0 1 .952 3.124zm-1.552-.08q0-3.024-2.368-3.024-2.384 0-2.384 3.04 0 3.056 2.368 3.056a2.186 2.186 0 0 0 1.752-.736 3.545 3.545 0 0 0 .632-2.336zm3.072-.108h3.744v1.2h-3.744zM46.688 0h-5.136v-1.264h1.888v-5.808h-1.888v-1.264H44.9v7.072h1.792zM48.1-7.728a6.532 6.532 0 0 1 1.344-.544 5.356 5.356 0 0 1 1.5-.224 3.526 3.526 0 0 1 2.176.648 2.24 2.24 0 0 1 .864 1.912 2.527 2.527 0 0 1-.432 1.436 2.843 2.843 0 0 1-1.52 1.016v.064a2.694 2.694 0 0 1 1.856.952A2.783 2.783 0 0 1 54.4-.832a2.784 2.784 0 0 1-.984 2.28 3.917 3.917 0 0 1-2.568.808 3.484 3.484 0 0 1-2.348-.688 2.722 2.722 0 0 1-.936-1.744L48.72-.56a2.583 2.583 0 0 0 .64 1.088 1.947 1.947 0 0 0 1.456.48A1.837 1.837 0 0 0 52.424.4a2.3 2.3 0 0 0 .424-1.344 1.57 1.57 0 0 0-.664-1.376 4.193 4.193 0 0 0-2.2-.512v-1.024a2.515 2.515 0 0 0 1.968-.672 1.992 1.992 0 0 0 .48-1.2q0-1.52-1.728-1.52a3.721 3.721 0 0 0-.744.088 2.9 2.9 0 0 0-.76.264l-.256 1.264-1.152-.128zm7.952 2.56v-1.984h1.7v1.984zm0 5.168v-1.984h1.7V0zM67.28-4.112A4.437 4.437 0 0 1 66.232-.96 3.824 3.824 0 0 1 63.3.16a3.67 3.67 0 0 1-2.892-1.12 4.522 4.522 0 0 1-1-3.12 4.881 4.881 0 0 1 1.008-3.168A3.562 3.562 0 0 1 63.36-8.5a3.475 3.475 0 0 1 2.968 1.264 5.037 5.037 0 0 1 .952 3.124zm-1.552-.08q0-3.024-2.368-3.024-2.384 0-2.384 3.04 0 3.056 2.368 3.056a2.186 2.186 0 0 0 1.756-.736 3.545 3.545 0 0 0 .628-2.336zm10.768.08A4.437 4.437 0 0 1 75.448-.96 3.824 3.824 0 0 1 72.512.16a3.67 3.67 0 0 1-2.888-1.12 4.522 4.522 0 0 1-1-3.12 4.881 4.881 0 0 1 1.008-3.168A3.562 3.562 0 0 1 72.576-8.5a3.475 3.475 0 0 1 2.968 1.264 5.037 5.037 0 0 1 .956 3.124zm-1.552-.08q0-3.024-2.368-3.024-2.384 0-2.384 3.04 0 3.056 2.368 3.056a2.186 2.186 0 0 0 1.752-.736 3.545 3.545 0 0 0 .632-2.336z" transform="translate(133 498)"/><path id="Path_469" data-name="Path 469" class="cls-7" d="M-.592-5.712A11.1 11.1 0 0 1-.984-2.56 3.936 3.936 0 0 1-2.256-.544a3.63 3.63 0 0 1-2.336.7 3.3 3.3 0 0 1-3.024-1.548 8.208 8.208 0 0 1-.96-4.32 11.407 11.407 0 0 1 .384-3.16A3.894 3.894 0 0 1-6.928-10.9a3.63 3.63 0 0 1 2.336-.7 3.319 3.319 0 0 1 3.024 1.552 8.135 8.135 0 0 1 .976 4.336zm-5.584 0a9.655 9.655 0 0 0 .336 2.936 1.257 1.257 0 0 0 1.248.984 1.272 1.272 0 0 0 1.248-.976 9.23 9.23 0 0 0 .352-2.944 9.32 9.32 0 0 0-.352-2.944 1.276 1.276 0 0 0-1.248-.992 1.259 1.259 0 0 0-1.248.992 9.738 9.738 0 0 0-.336 2.944z" transform="translate(268 499)"/><path id="Path_470" data-name="Path 470" class="cls-7" d="M-10.128-8.864a2.535 2.535 0 0 1-.712 1.888 3.693 3.693 0 0 1-1.752.96v.048a3.659 3.659 0 0 1 2.08.848 2.334 2.334 0 0 1 .72 1.792 3.332 3.332 0 0 1-.488 1.784A3.273 3.273 0 0 1-11.784-.3 6.43 6.43 0 0 1-14.4.16a8.22 8.22 0 0 1-3.3-.624v-2.048a7.16 7.16 0 0 0 1.536.56 6.459 6.459 0 0 0 1.5.192 2.816 2.816 0 0 0 1.816-.448 1.578 1.578 0 0 0 .52-1.264 1.34 1.34 0 0 0-.24-.8 1.481 1.481 0 0 0-.84-.5 6.5 6.5 0 0 0-1.672-.168h-.864V-6.8h.88a4.962 4.962 0 0 0 1.616-.2 1.359 1.359 0 0 0 .752-.544 1.547 1.547 0 0 0 .2-.792 1.226 1.226 0 0 0-.376-.952 1.843 1.843 0 0 0-1.256-.344 3.294 3.294 0 0 0-1.424.288 9.228 9.228 0 0 0-1.008.544l-1.12-1.664a6.328 6.328 0 0 1 1.576-.8 6.464 6.464 0 0 1 2.152-.32 4.843 4.843 0 0 1 2.792.712 2.3 2.3 0 0 1 1.032 2.008zm9.536 3.152A11.1 11.1 0 0 1-.984-2.56 3.936 3.936 0 0 1-2.256-.544a3.63 3.63 0 0 1-2.336.7 3.3 3.3 0 0 1-3.024-1.548 8.208 8.208 0 0 1-.96-4.32 11.407 11.407 0 0 1 .384-3.16A3.894 3.894 0 0 1-6.928-10.9a3.63 3.63 0 0 1 2.336-.7 3.319 3.319 0 0 1 3.024 1.552 8.135 8.135 0 0 1 .976 4.336zm-5.584 0a9.655 9.655 0 0 0 .336 2.936 1.257 1.257 0 0 0 1.248.984 1.272 1.272 0 0 0 1.248-.976 9.23 9.23 0 0 0 .352-2.944 9.32 9.32 0 0 0-.352-2.944 1.276 1.276 0 0 0-1.248-.992 1.259 1.259 0 0 0-1.248.992 9.738 9.738 0 0 0-.336 2.944z" transform="translate(317 499)"/><path id="Path_471" data-name="Path 471" class="cls-6" d="M8.816 0H5.2v-.912h1.248v-3.312a2.255 2.255 0 0 0-.472-1.624 1.636 1.636 0 0 0-1.208-.472 1.965 1.965 0 0 0-1.512.632 2.173 2.173 0 0 0-.616 1.416v3.36h1.232V0h-3.6v-.912H1.5V-10.1H.272v-.912H2.64v5.172a2.645 2.645 0 0 1 2.5-1.424 2.5 2.5 0 0 1 1.744.64 2.668 2.668 0 0 1 .7 2.064v3.648h1.232zM13.5-7.248a1.859 1.859 0 0 1 1.216.368l.272 1.792-.912.112-.272-1.216a1.625 1.625 0 0 0-.544-.1 1.281 1.281 0 0 0-1.04.52 2.1 2.1 0 0 0-.416 1.352v3.5h1.648V0H9.44v-.912h1.248v-5.3h-1.28v-.908h2.336v1.28a2.313 2.313 0 0 1 .68-1 1.6 1.6 0 0 1 1.076-.408zm8.56 5.184a1.869 1.869 0 0 1-.872 1.632A3.743 3.743 0 0 1 19.04.16a5.74 5.74 0 0 1-1.5-.2 4.2 4.2 0 0 1-1.208-.5l.228-1.62.9.1-.048.944a3.624 3.624 0 0 0 1.584.352 2.915 2.915 0 0 0 1.336-.3.96.96 0 0 0 .584-.9.864.864 0 0 0-.448-.832 3.638 3.638 0 0 0-1.112-.352q-.664-.112-1.336-.272a2.573 2.573 0 0 1-1.12-.552 1.543 1.543 0 0 1-.452-1.228 1.678 1.678 0 0 1 .832-1.6 3.651 3.651 0 0 1 1.808-.464 4.849 4.849 0 0 1 1.384.192 4.67 4.67 0 0 1 1.1.464l.176 1.664-.928.112-.18-1.152a3.091 3.091 0 0 0-1.456-.352 2.141 2.141 0 0 0-1.1.256.864.864 0 0 0-.432.8.819.819 0 0 0 .448.792 3.643 3.643 0 0 0 1.1.336q.656.1 1.312.264a2.479 2.479 0 0 1 1.1.568 1.618 1.618 0 0 1 .452 1.256z" transform="translate(268 498)"/><path id="Path_472" data-name="Path 472" class="cls-6" d="M13.664 0h-3.408v-.912H11.3v-3.312a2.309 2.309 0 0 0-.456-1.624A1.544 1.544 0 0 0 9.68-6.32a1.74 1.74 0 0 0-1.5.736 2.547 2.547 0 0 0-.544 1.408v3.264h1.228V0H5.472v-.912H6.5v-3.312a2.334 2.334 0 0 0-.448-1.632 1.512 1.512 0 0 0-1.14-.464 1.756 1.756 0 0 0-1.512.712 2.588 2.588 0 0 0-.552 1.4v3.3H4.16V0H.48v-.912h1.248v-5.3H.464v-.908h2.384v1.328a3.1 3.1 0 0 1 .944-1.056 2.441 2.441 0 0 1 1.44-.416 2.525 2.525 0 0 1 1.448.416 2.118 2.118 0 0 1 .84 1.3 2.985 2.985 0 0 1 .952-1.232 2.5 2.5 0 0 1 1.56-.48 2.389 2.389 0 0 1 1.7.64 2.725 2.725 0 0 1 .68 2.064v3.644h1.248zm1.824-8.96v-1.456H16.7v1.456zM17.968 0h-3.616v-.912H15.6v-5.3h-1.28v-.908h2.4v6.208h1.248zm9.344 0h-3.6v-.912h1.232v-3.312a2.282 2.282 0 0 0-.464-1.624 1.589 1.589 0 0 0-1.18-.472 2 2 0 0 0-1.544.632 2.207 2.207 0 0 0-.616 1.448v3.328h1.248V0h-3.62v-.912h1.248v-5.3h-1.28v-.908h2.4v1.264a2.629 2.629 0 0 1 2.5-1.408 2.5 2.5 0 0 1 1.744.64 2.668 2.668 0 0 1 .7 2.064v3.648h1.232z" transform="translate(317 498)"/><path id="Path_473" data-name="Path 473" class="cls-2" d="M2 0h324a2 2 0 0 1 2 2v47a2 2 0 0 1-2 2H2a2 2 0 0 1-2-2V2a2 2 0 0 1 2-2z" transform="translate(32 518)"/><path id="Path_474" data-name="Path 474" class="cls-6" d="M5.936 0H.8v-1.264h1.888v-5.808H.8v-1.264h3.344v7.072h1.792zm7.056 2.1h-1.456V-.512H6.7l-.16-1.232 3.568-6.592h2.88v6.592h1.652L14.5-.512H13zm-1.456-3.84v-5.348h-.72l-2.88 5.344zM15.84 0v-1.984h1.824V0zm11.184-4.112A4.437 4.437 0 0 1 25.976-.96 3.824 3.824 0 0 1 23.04.16a3.67 3.67 0 0 1-2.888-1.12 4.522 4.522 0 0 1-1-3.12 4.881 4.881 0 0 1 1.008-3.168A3.562 3.562 0 0 1 23.1-8.5a3.475 3.475 0 0 1 2.968 1.264 5.037 5.037 0 0 1 .956 3.124zm-1.552-.08q0-3.024-2.368-3.024-2.384 0-2.384 3.04 0 3.056 2.368 3.056a2.186 2.186 0 0 0 1.752-.736 3.545 3.545 0 0 0 .632-2.336zm3.312-3.536a6.532 6.532 0 0 1 1.344-.544 5.356 5.356 0 0 1 1.5-.224 3.526 3.526 0 0 1 2.176.648 2.24 2.24 0 0 1 .864 1.912A2.527 2.527 0 0 1 34.24-4.5a2.843 2.843 0 0 1-1.52 1.016v.064a2.694 2.694 0 0 1 1.856.952 2.783 2.783 0 0 1 .512 1.64 2.784 2.784 0 0 1-.984 2.28 3.917 3.917 0 0 1-2.568.808 3.484 3.484 0 0 1-2.344-.688 2.722 2.722 0 0 1-.936-1.744l1.152-.388a2.583 2.583 0 0 0 .64 1.088 1.947 1.947 0 0 0 1.456.48A1.837 1.837 0 0 0 33.112.4a2.3 2.3 0 0 0 .424-1.344 1.57 1.57 0 0 0-.664-1.376 4.193 4.193 0 0 0-2.2-.512v-1.024a2.515 2.515 0 0 0 1.968-.672 1.992 1.992 0 0 0 .48-1.2q0-1.52-1.728-1.52a3.721 3.721 0 0 0-.744.088 2.9 2.9 0 0 0-.76.264l-.256 1.264-1.152-.128zM36.544 0v-1.984h1.824V0zm3.824-7.824a6.35 6.35 0 0 1 1.488-.5 7.2 7.2 0 0 1 1.472-.176 2.984 2.984 0 0 1 2.352.8 2.519 2.519 0 0 1 .688 1.672 2.886 2.886 0 0 1-.784 1.968A8.85 8.85 0 0 1 43.7-2.488q-1.1.7-2.024 1.224h3.952l.128-1.168 1.184.1L46.752 0h-6.72L39.9-1.136q2.16-1.44 3.536-2.5a2.9 2.9 0 0 0 1.376-2.2q0-1.408-1.76-1.408a4.078 4.078 0 0 0-.768.088 3.954 3.954 0 0 0-.816.248l-.256 1.184-1.132-.132zm15.7 3.712A4.437 4.437 0 0 1 55.016-.96 3.824 3.824 0 0 1 52.08.16a3.67 3.67 0 0 1-2.888-1.12 4.522 4.522 0 0 1-1-3.12A4.881 4.881 0 0 1 49.2-7.248 3.562 3.562 0 0 1 52.144-8.5a3.475 3.475 0 0 1 2.968 1.264 5.037 5.037 0 0 1 .952 3.124zm-1.552-.08q0-3.024-2.368-3.024-2.384 0-2.384 3.04 0 3.056 2.368 3.056a2.186 2.186 0 0 0 1.752-.736 3.545 3.545 0 0 0 .628-2.336zM62.672 0h-5.136v-1.264h1.888v-5.808h-1.888v-1.264h3.344v7.072h1.792zm1.008-5.008a3.708 3.708 0 0 1 .856-2.472 3.229 3.229 0 0 1 2.616-1.02 2.989 2.989 0 0 1 2.864 1.44 7.448 7.448 0 0 1 .8 3.648 8.421 8.421 0 0 1-.872 3.988 3.167 3.167 0 0 1-3.064 1.648A3.617 3.617 0 0 1 63.872.816l.848-.864A2.674 2.674 0 0 0 66.928.976a1.825 1.825 0 0 0 1.808-1.032 7.629 7.629 0 0 0 .544-3.016v-.352a2.884 2.884 0 0 1-.88 1.112 2.791 2.791 0 0 1-1.792.5 2.547 2.547 0 0 1-2.264-.968 3.85 3.85 0 0 1-.664-2.228zm1.488-.064a2.384 2.384 0 0 0 .424 1.512 1.722 1.722 0 0 0 1.432.536 1.912 1.912 0 0 0 1.64-.656 2.669 2.669 0 0 0 .552-1.36 3.032 3.032 0 0 0-.576-1.576 1.827 1.827 0 0 0-1.52-.584 1.8 1.8 0 0 0-1.5.568 2.456 2.456 0 0 0-.452 1.56zM72.32 0v-1.984h1.824V0z" transform="translate(48 549)"/><path id="Path_475" data-name="Path 475" class="cls-7" d="M5.936 0H.8v-1.264h1.888v-5.808H.8v-1.264h3.344v7.072h1.792zm6.256 0H7.056v-1.264h1.888v-5.808H7.056v-1.264H10.4v7.072h1.792zm1.328-5.168v-1.984h1.7v1.984zm0 5.168v-1.984h1.7V0zm3.78-7.728a6.532 6.532 0 0 1 1.344-.544 5.356 5.356 0 0 1 1.5-.224 3.526 3.526 0 0 1 2.176.648 2.24 2.24 0 0 1 .864 1.912 2.527 2.527 0 0 1-.432 1.436 2.843 2.843 0 0 1-1.52 1.016v.064a2.694 2.694 0 0 1 1.856.952A2.783 2.783 0 0 1 23.6-.832a2.784 2.784 0 0 1-.984 2.28 3.917 3.917 0 0 1-2.568.808 3.484 3.484 0 0 1-2.348-.688 2.722 2.722 0 0 1-.936-1.744L17.92-.56a2.583 2.583 0 0 0 .64 1.088 1.947 1.947 0 0 0 1.456.48A1.837 1.837 0 0 0 21.624.4a2.3 2.3 0 0 0 .424-1.344 1.57 1.57 0 0 0-.664-1.376 4.193 4.193 0 0 0-2.2-.512v-1.024a2.515 2.515 0 0 0 1.968-.672 1.992 1.992 0 0 0 .48-1.2q0-1.52-1.728-1.52a3.721 3.721 0 0 0-.744.088 2.9 2.9 0 0 0-.76.264l-.256 1.264-1.152-.128zm15.484 3.616A4.437 4.437 0 0 1 31.736-.96 3.824 3.824 0 0 1 28.8.16a3.67 3.67 0 0 1-2.888-1.12 4.522 4.522 0 0 1-1-3.12 4.881 4.881 0 0 1 1.008-3.168A3.562 3.562 0 0 1 28.864-8.5a3.475 3.475 0 0 1 2.968 1.264 5.037 5.037 0 0 1 .952 3.124zm-1.552-.08q0-3.024-2.368-3.024-2.384 0-2.384 3.04 0 3.056 2.368 3.056a2.186 2.186 0 0 0 1.752-.736 3.545 3.545 0 0 0 .632-2.336zM34.3-4.3h3.744v1.2H34.3zM44.608 0h-5.136v-1.264h1.888v-5.808h-1.888v-1.264h3.344v7.072h1.792zm1.408-7.728a6.532 6.532 0 0 1 1.344-.544 5.356 5.356 0 0 1 1.5-.224 3.526 3.526 0 0 1 2.176.648 2.24 2.24 0 0 1 .864 1.912 2.527 2.527 0 0 1-.428 1.436 2.843 2.843 0 0 1-1.52 1.016v.064a2.694 2.694 0 0 1 1.856.952 2.783 2.783 0 0 1 .512 1.64 2.784 2.784 0 0 1-.984 2.28 3.917 3.917 0 0 1-2.568.808 3.484 3.484 0 0 1-2.344-.688 2.722 2.722 0 0 1-.936-1.744L46.64-.56a2.583 2.583 0 0 0 .64 1.088 1.947 1.947 0 0 0 1.456.48A1.837 1.837 0 0 0 50.344.4a2.3 2.3 0 0 0 .424-1.344A1.57 1.57 0 0 0 50.1-2.32a4.193 4.193 0 0 0-2.2-.512v-1.024a2.515 2.515 0 0 0 1.968-.672 1.992 1.992 0 0 0 .48-1.2q0-1.52-1.728-1.52a3.721 3.721 0 0 0-.744.088 2.9 2.9 0 0 0-.76.264l-.256 1.264-1.148-.128zm7.952 2.56v-1.984h1.7v1.984zm0 5.168v-1.984h1.7V0zM65.2-4.112A4.437 4.437 0 0 1 64.152-.96 3.824 3.824 0 0 1 61.216.16a3.67 3.67 0 0 1-2.888-1.12 4.522 4.522 0 0 1-1-3.12 4.881 4.881 0 0 1 1.008-3.168A3.562 3.562 0 0 1 61.28-8.5a3.475 3.475 0 0 1 2.968 1.264 5.037 5.037 0 0 1 .952 3.124zm-1.552-.08q0-3.024-2.368-3.024-2.384 0-2.384 3.04 0 3.056 2.368 3.056a2.186 2.186 0 0 0 1.752-.736 3.545 3.545 0 0 0 .632-2.336zm10.768.08A4.437 4.437 0 0 1 73.368-.96 3.824 3.824 0 0 1 70.432.16a3.67 3.67 0 0 1-2.888-1.12 4.522 4.522 0 0 1-1-3.12 4.881 4.881 0 0 1 1.008-3.168A3.562 3.562 0 0 1 70.5-8.5a3.475 3.475 0 0 1 2.968 1.264 5.037 5.037 0 0 1 .948 3.124zm-1.552-.08q0-3.024-2.368-3.024-2.384 0-2.384 3.04 0 3.056 2.368 3.056a2.186 2.186 0 0 0 1.752-.736 3.545 3.545 0 0 0 .632-2.336z" transform="translate(133 549)"/><path id="Path_476" data-name="Path 476" class="cls-7" d="M-.592-5.712A11.1 11.1 0 0 1-.984-2.56 3.936 3.936 0 0 1-2.256-.544a3.63 3.63 0 0 1-2.336.7 3.3 3.3 0 0 1-3.024-1.548 8.208 8.208 0 0 1-.96-4.32 11.407 11.407 0 0 1 .384-3.16A3.894 3.894 0 0 1-6.928-10.9a3.63 3.63 0 0 1 2.336-.7 3.319 3.319 0 0 1 3.024 1.552 8.135 8.135 0 0 1 .976 4.336zm-5.584 0a9.655 9.655 0 0 0 .336 2.936 1.257 1.257 0 0 0 1.248.984 1.272 1.272 0 0 0 1.248-.976 9.23 9.23 0 0 0 .352-2.944 9.32 9.32 0 0 0-.352-2.944 1.276 1.276 0 0 0-1.248-.992 1.259 1.259 0 0 0-1.248.992 9.738 9.738 0 0 0-.336 2.944z" transform="translate(268 550)"/><path id="Path_477" data-name="Path 477" class="cls-7" d="M-10.128-8.864a2.535 2.535 0 0 1-.712 1.888 3.693 3.693 0 0 1-1.752.96v.048a3.659 3.659 0 0 1 2.08.848 2.334 2.334 0 0 1 .72 1.792 3.332 3.332 0 0 1-.488 1.784A3.273 3.273 0 0 1-11.784-.3 6.43 6.43 0 0 1-14.4.16a8.22 8.22 0 0 1-3.3-.624v-2.048a7.16 7.16 0 0 0 1.536.56 6.459 6.459 0 0 0 1.5.192 2.816 2.816 0 0 0 1.816-.448 1.578 1.578 0 0 0 .52-1.264 1.34 1.34 0 0 0-.24-.8 1.481 1.481 0 0 0-.84-.5 6.5 6.5 0 0 0-1.672-.168h-.864V-6.8h.88a4.962 4.962 0 0 0 1.616-.2 1.359 1.359 0 0 0 .752-.544 1.547 1.547 0 0 0 .2-.792 1.226 1.226 0 0 0-.376-.952 1.843 1.843 0 0 0-1.256-.344 3.294 3.294 0 0 0-1.424.288 9.228 9.228 0 0 0-1.008.544l-1.12-1.664a6.328 6.328 0 0 1 1.576-.8 6.464 6.464 0 0 1 2.152-.32 4.843 4.843 0 0 1 2.792.712 2.3 2.3 0 0 1 1.032 2.008zm9.536 3.152A11.1 11.1 0 0 1-.984-2.56 3.936 3.936 0 0 1-2.256-.544a3.63 3.63 0 0 1-2.336.7 3.3 3.3 0 0 1-3.024-1.548 8.208 8.208 0 0 1-.96-4.32 11.407 11.407 0 0 1 .384-3.16A3.894 3.894 0 0 1-6.928-10.9a3.63 3.63 0 0 1 2.336-.7 3.319 3.319 0 0 1 3.024 1.552 8.135 8.135 0 0 1 .976 4.336zm-5.584 0a9.655 9.655 0 0 0 .336 2.936 1.257 1.257 0 0 0 1.248.984 1.272 1.272 0 0 0 1.248-.976 9.23 9.23 0 0 0 .352-2.944 9.32 9.32 0 0 0-.352-2.944 1.276 1.276 0 0 0-1.248-.992 1.259 1.259 0 0 0-1.248.992 9.738 9.738 0 0 0-.336 2.944z" transform="translate(317 550)"/><path id="Path_478" data-name="Path 478" class="cls-6" d="M8.816 0H5.2v-.912h1.248v-3.312a2.255 2.255 0 0 0-.472-1.624 1.636 1.636 0 0 0-1.208-.472 1.965 1.965 0 0 0-1.512.632 2.173 2.173 0 0 0-.616 1.416v3.36h1.232V0h-3.6v-.912H1.5V-10.1H.272v-.912H2.64v5.172a2.645 2.645 0 0 1 2.5-1.424 2.5 2.5 0 0 1 1.744.64 2.668 2.668 0 0 1 .7 2.064v3.648h1.232zM13.5-7.248a1.859 1.859 0 0 1 1.216.368l.272 1.792-.912.112-.272-1.216a1.625 1.625 0 0 0-.544-.1 1.281 1.281 0 0 0-1.04.52 2.1 2.1 0 0 0-.416 1.352v3.5h1.648V0H9.44v-.912h1.248v-5.3h-1.28v-.908h2.336v1.28a2.313 2.313 0 0 1 .68-1 1.6 1.6 0 0 1 1.076-.408zm8.56 5.184a1.869 1.869 0 0 1-.872 1.632A3.743 3.743 0 0 1 19.04.16a5.74 5.74 0 0 1-1.5-.2 4.2 4.2 0 0 1-1.208-.5l.228-1.62.9.1-.048.944a3.624 3.624 0 0 0 1.584.352 2.915 2.915 0 0 0 1.336-.3.96.96 0 0 0 .584-.9.864.864 0 0 0-.448-.832 3.638 3.638 0 0 0-1.112-.352q-.664-.112-1.336-.272a2.573 2.573 0 0 1-1.12-.552 1.543 1.543 0 0 1-.452-1.228 1.678 1.678 0 0 1 .832-1.6 3.651 3.651 0 0 1 1.808-.464 4.849 4.849 0 0 1 1.384.192 4.67 4.67 0 0 1 1.1.464l.176 1.664-.928.112-.18-1.152a3.091 3.091 0 0 0-1.456-.352 2.141 2.141 0 0 0-1.1.256.864.864 0 0 0-.432.8.819.819 0 0 0 .448.792 3.643 3.643 0 0 0 1.1.336q.656.1 1.312.264a2.479 2.479 0 0 1 1.1.568 1.618 1.618 0 0 1 .452 1.256z" transform="translate(268 549)"/><path id="Path_479" data-name="Path 479" class="cls-6" d="M13.664 0h-3.408v-.912H11.3v-3.312a2.309 2.309 0 0 0-.456-1.624A1.544 1.544 0 0 0 9.68-6.32a1.74 1.74 0 0 0-1.5.736 2.547 2.547 0 0 0-.544 1.408v3.264h1.228V0H5.472v-.912H6.5v-3.312a2.334 2.334 0 0 0-.448-1.632 1.512 1.512 0 0 0-1.14-.464 1.756 1.756 0 0 0-1.512.712 2.588 2.588 0 0 0-.552 1.4v3.3H4.16V0H.48v-.912h1.248v-5.3H.464v-.908h2.384v1.328a3.1 3.1 0 0 1 .944-1.056 2.441 2.441 0 0 1 1.44-.416 2.525 2.525 0 0 1 1.448.416 2.118 2.118 0 0 1 .84 1.3 2.985 2.985 0 0 1 .952-1.232 2.5 2.5 0 0 1 1.56-.48 2.389 2.389 0 0 1 1.7.64 2.725 2.725 0 0 1 .68 2.064v3.644h1.248zm1.824-8.96v-1.456H16.7v1.456zM17.968 0h-3.616v-.912H15.6v-5.3h-1.28v-.908h2.4v6.208h1.248zm9.344 0h-3.6v-.912h1.232v-3.312a2.282 2.282 0 0 0-.464-1.624 1.589 1.589 0 0 0-1.18-.472 2 2 0 0 0-1.544.632 2.207 2.207 0 0 0-.616 1.448v3.328h1.248V0h-3.62v-.912h1.248v-5.3h-1.28v-.908h2.4v1.264a2.629 2.629 0 0 1 2.5-1.408 2.5 2.5 0 0 1 1.744.64 2.668 2.668 0 0 1 .7 2.064v3.648h1.232z" transform="translate(317 549)"/><path id="Path_480" data-name="Path 480" class="cls-2" d="M2 0h324a2 2 0 0 1 2 2v47a2 2 0 0 1-2 2H2a2 2 0 0 1-2-2V2a2 2 0 0 1 2-2z" transform="translate(32 569)"/><path id="Path_481" data-name="Path 481" class="cls-6" d="M5.936 0H.8v-1.264h1.888v-5.808H.8v-1.264h3.344v7.072h1.792zm7.056 2.1h-1.456V-.512H6.7l-.16-1.232 3.568-6.592h2.88v6.592h1.652L14.5-.512H13zm-1.456-3.84v-5.348h-.72l-2.88 5.344zM15.84 0v-1.984h1.824V0zm11.184-4.112A4.437 4.437 0 0 1 25.976-.96 3.824 3.824 0 0 1 23.04.16a3.67 3.67 0 0 1-2.888-1.12 4.522 4.522 0 0 1-1-3.12 4.881 4.881 0 0 1 1.008-3.168A3.562 3.562 0 0 1 23.1-8.5a3.475 3.475 0 0 1 2.968 1.264 5.037 5.037 0 0 1 .956 3.124zm-1.552-.08q0-3.024-2.368-3.024-2.384 0-2.384 3.04 0 3.056 2.368 3.056a2.186 2.186 0 0 0 1.752-.736 3.545 3.545 0 0 0 .632-2.336zm3.312-3.536a6.532 6.532 0 0 1 1.344-.544 5.356 5.356 0 0 1 1.5-.224 3.526 3.526 0 0 1 2.176.648 2.24 2.24 0 0 1 .864 1.912A2.527 2.527 0 0 1 34.24-4.5a2.843 2.843 0 0 1-1.52 1.016v.064a2.694 2.694 0 0 1 1.856.952 2.783 2.783 0 0 1 .512 1.64 2.784 2.784 0 0 1-.984 2.28 3.917 3.917 0 0 1-2.568.808 3.484 3.484 0 0 1-2.344-.688 2.722 2.722 0 0 1-.936-1.744l1.152-.388a2.583 2.583 0 0 0 .64 1.088 1.947 1.947 0 0 0 1.456.48A1.837 1.837 0 0 0 33.112.4a2.3 2.3 0 0 0 .424-1.344 1.57 1.57 0 0 0-.664-1.376 4.193 4.193 0 0 0-2.2-.512v-1.024a2.515 2.515 0 0 0 1.968-.672 1.992 1.992 0 0 0 .48-1.2q0-1.52-1.728-1.52a3.721 3.721 0 0 0-.744.088 2.9 2.9 0 0 0-.76.264l-.256 1.264-1.152-.128zM36.544 0v-1.984h1.824V0zm3.824-7.824a6.35 6.35 0 0 1 1.488-.5 7.2 7.2 0 0 1 1.472-.176 2.984 2.984 0 0 1 2.352.8 2.519 2.519 0 0 1 .688 1.672 2.886 2.886 0 0 1-.784 1.968A8.85 8.85 0 0 1 43.7-2.488q-1.1.7-2.024 1.224h3.952l.128-1.168 1.184.1L46.752 0h-6.72L39.9-1.136q2.16-1.44 3.536-2.5a2.9 2.9 0 0 0 1.376-2.2q0-1.408-1.76-1.408a4.078 4.078 0 0 0-.768.088 3.954 3.954 0 0 0-.816.248l-.256 1.184-1.132-.132zm15.7 3.712A4.437 4.437 0 0 1 55.016-.96 3.824 3.824 0 0 1 52.08.16a3.67 3.67 0 0 1-2.888-1.12 4.522 4.522 0 0 1-1-3.12A4.881 4.881 0 0 1 49.2-7.248 3.562 3.562 0 0 1 52.144-8.5a3.475 3.475 0 0 1 2.968 1.264 5.037 5.037 0 0 1 .952 3.124zm-1.552-.08q0-3.024-2.368-3.024-2.384 0-2.384 3.04 0 3.056 2.368 3.056a2.186 2.186 0 0 0 1.752-.736 3.545 3.545 0 0 0 .628-2.336zM62.672 0h-5.136v-1.264h1.888v-5.808h-1.888v-1.264h3.344v7.072h1.792zm1.008-5.008a3.708 3.708 0 0 1 .856-2.472 3.229 3.229 0 0 1 2.616-1.02 2.989 2.989 0 0 1 2.864 1.44 7.448 7.448 0 0 1 .8 3.648 8.421 8.421 0 0 1-.872 3.988 3.167 3.167 0 0 1-3.064 1.648A3.617 3.617 0 0 1 63.872.816l.848-.864A2.674 2.674 0 0 0 66.928.976a1.825 1.825 0 0 0 1.808-1.032 7.629 7.629 0 0 0 .544-3.016v-.352a2.884 2.884 0 0 1-.88 1.112 2.791 2.791 0 0 1-1.792.5 2.547 2.547 0 0 1-2.264-.968 3.85 3.85 0 0 1-.664-2.228zm1.488-.064a2.384 2.384 0 0 0 .424 1.512 1.722 1.722 0 0 0 1.432.536 1.912 1.912 0 0 0 1.64-.656 2.669 2.669 0 0 0 .552-1.36 3.032 3.032 0 0 0-.576-1.576 1.827 1.827 0 0 0-1.52-.584 1.8 1.8 0 0 0-1.5.568 2.456 2.456 0 0 0-.452 1.56zM72.32 0v-1.984h1.824V0z" transform="translate(48 600)"/><path id="Path_482" data-name="Path 482" class="cls-7" d="M5.936 0H.8v-1.264h1.888v-5.808H.8v-1.264h3.344v7.072h1.792zM14.8-4.112A4.437 4.437 0 0 1 13.752-.96 3.824 3.824 0 0 1 10.816.16 3.67 3.67 0 0 1 7.928-.96a4.522 4.522 0 0 1-1-3.12 4.881 4.881 0 0 1 1.008-3.168A3.562 3.562 0 0 1 10.88-8.5a3.475 3.475 0 0 1 2.968 1.264 5.037 5.037 0 0 1 .952 3.124zm-1.552-.08q0-3.024-2.368-3.024-2.38 0-2.38 3.04 0 3.056 2.368 3.056a2.186 2.186 0 0 0 1.752-.736 3.545 3.545 0 0 0 .628-2.336zm3.232-.976v-1.984h1.7v1.984zm0 5.168v-1.984h1.7V0zm11.232-4.112A4.437 4.437 0 0 1 26.664-.96 3.824 3.824 0 0 1 23.728.16 3.67 3.67 0 0 1 20.84-.96a4.522 4.522 0 0 1-1-3.12 4.881 4.881 0 0 1 1.008-3.168A3.562 3.562 0 0 1 23.792-8.5a3.475 3.475 0 0 1 2.968 1.268 5.037 5.037 0 0 1 .952 3.12zm-1.552-.08q0-3.024-2.368-3.024-2.384 0-2.384 3.04 0 3.056 2.368 3.056a2.186 2.186 0 0 0 1.752-.736 3.545 3.545 0 0 0 .632-2.336zm10.768.08A4.437 4.437 0 0 1 35.88-.96 3.824 3.824 0 0 1 32.944.16a3.67 3.67 0 0 1-2.888-1.12 4.522 4.522 0 0 1-1-3.12 4.881 4.881 0 0 1 1.008-3.168A3.562 3.562 0 0 1 33.008-8.5a3.475 3.475 0 0 1 2.968 1.264 5.037 5.037 0 0 1 .952 3.124zm-1.552-.08q0-3.024-2.368-3.024-2.384 0-2.384 3.04 0 3.056 2.368 3.056a2.186 2.186 0 0 0 1.752-.736 3.545 3.545 0 0 0 .632-2.336zm3.072-.108h3.744v1.2h-3.744zM48.752 0h-5.136v-1.264H45.5v-5.808h-1.884v-1.264h3.344v7.072h1.792zm8.864-4.112A4.437 4.437 0 0 1 56.568-.96 3.824 3.824 0 0 1 53.632.16a3.67 3.67 0 0 1-2.888-1.12 4.522 4.522 0 0 1-1-3.12 4.881 4.881 0 0 1 1.008-3.168A3.562 3.562 0 0 1 53.7-8.5a3.475 3.475 0 0 1 2.968 1.264 5.037 5.037 0 0 1 .948 3.124zm-1.552-.08q0-3.024-2.368-3.024-2.384 0-2.384 3.04 0 3.056 2.368 3.056a2.186 2.186 0 0 0 1.752-.736 3.545 3.545 0 0 0 .632-2.336zm3.236-.976v-1.984H61v1.984zM59.3 0v-1.984H61V0zm3.776-7.728a6.532 6.532 0 0 1 1.344-.544 5.356 5.356 0 0 1 1.5-.224 3.526 3.526 0 0 1 2.176.648 2.24 2.24 0 0 1 .864 1.912 2.527 2.527 0 0 1-.432 1.436 2.843 2.843 0 0 1-1.52 1.016v.064a2.694 2.694 0 0 1 1.856.952 2.783 2.783 0 0 1 .512 1.64 2.784 2.784 0 0 1-.984 2.28 3.917 3.917 0 0 1-2.568.808 3.484 3.484 0 0 1-2.344-.688 2.722 2.722 0 0 1-.936-1.744L63.7-.56a2.583 2.583 0 0 0 .64 1.088 1.947 1.947 0 0 0 1.456.48A1.837 1.837 0 0 0 67.4.4a2.3 2.3 0 0 0 .424-1.344 1.57 1.57 0 0 0-.664-1.376 4.193 4.193 0 0 0-2.2-.512v-1.024a2.515 2.515 0 0 0 1.968-.672 1.992 1.992 0 0 0 .48-1.2q0-1.52-1.728-1.52a3.721 3.721 0 0 0-.744.088 2.9 2.9 0 0 0-.76.264l-.256 1.264-1.152-.128zM78.56-4.112A4.437 4.437 0 0 1 77.512-.96 3.824 3.824 0 0 1 74.576.16a3.67 3.67 0 0 1-2.888-1.12 4.522 4.522 0 0 1-1-3.12A4.881 4.881 0 0 1 71.7-7.248 3.562 3.562 0 0 1 74.64-8.5a3.475 3.475 0 0 1 2.968 1.264 5.037 5.037 0 0 1 .952 3.124zm-1.552-.08q0-3.024-2.368-3.024-2.384 0-2.384 3.04 0 3.056 2.368 3.056a2.186 2.186 0 0 0 1.752-.736 3.545 3.545 0 0 0 .632-2.336z" transform="translate(133 600)"/><path id="Path_483" data-name="Path 483" class="cls-7" d="M-.592-5.712A11.1 11.1 0 0 1-.984-2.56 3.936 3.936 0 0 1-2.256-.544a3.63 3.63 0 0 1-2.336.7 3.3 3.3 0 0 1-3.024-1.548 8.208 8.208 0 0 1-.96-4.32 11.407 11.407 0 0 1 .384-3.16A3.894 3.894 0 0 1-6.928-10.9a3.63 3.63 0 0 1 2.336-.7 3.319 3.319 0 0 1 3.024 1.552 8.135 8.135 0 0 1 .976 4.336zm-5.584 0a9.655 9.655 0 0 0 .336 2.936 1.257 1.257 0 0 0 1.248.984 1.272 1.272 0 0 0 1.248-.976 9.23 9.23 0 0 0 .352-2.944 9.32 9.32 0 0 0-.352-2.944 1.276 1.276 0 0 0-1.248-.992 1.259 1.259 0 0 0-1.248.992 9.738 9.738 0 0 0-.336 2.944z" transform="translate(268 601)"/><path id="Path_484" data-name="Path 484" class="cls-7" d="M-10.128-8.864a2.535 2.535 0 0 1-.712 1.888 3.693 3.693 0 0 1-1.752.96v.048a3.659 3.659 0 0 1 2.08.848 2.334 2.334 0 0 1 .72 1.792 3.332 3.332 0 0 1-.488 1.784A3.273 3.273 0 0 1-11.784-.3 6.43 6.43 0 0 1-14.4.16a8.22 8.22 0 0 1-3.3-.624v-2.048a7.16 7.16 0 0 0 1.536.56 6.459 6.459 0 0 0 1.5.192 2.816 2.816 0 0 0 1.816-.448 1.578 1.578 0 0 0 .52-1.264 1.34 1.34 0 0 0-.24-.8 1.481 1.481 0 0 0-.84-.5 6.5 6.5 0 0 0-1.672-.168h-.864V-6.8h.88a4.962 4.962 0 0 0 1.616-.2 1.359 1.359 0 0 0 .752-.544 1.547 1.547 0 0 0 .2-.792 1.226 1.226 0 0 0-.376-.952 1.843 1.843 0 0 0-1.256-.344 3.294 3.294 0 0 0-1.424.288 9.228 9.228 0 0 0-1.008.544l-1.12-1.664a6.328 6.328 0 0 1 1.576-.8 6.464 6.464 0 0 1 2.152-.32 4.843 4.843 0 0 1 2.792.712 2.3 2.3 0 0 1 1.032 2.008zm9.536 3.152A11.1 11.1 0 0 1-.984-2.56 3.936 3.936 0 0 1-2.256-.544a3.63 3.63 0 0 1-2.336.7 3.3 3.3 0 0 1-3.024-1.548 8.208 8.208 0 0 1-.96-4.32 11.407 11.407 0 0 1 .384-3.16A3.894 3.894 0 0 1-6.928-10.9a3.63 3.63 0 0 1 2.336-.7 3.319 3.319 0 0 1 3.024 1.552 8.135 8.135 0 0 1 .976 4.336zm-5.584 0a9.655 9.655 0 0 0 .336 2.936 1.257 1.257 0 0 0 1.248.984 1.272 1.272 0 0 0 1.248-.976 9.23 9.23 0 0 0 .352-2.944 9.32 9.32 0 0 0-.352-2.944 1.276 1.276 0 0 0-1.248-.992 1.259 1.259 0 0 0-1.248.992 9.738 9.738 0 0 0-.336 2.944z" transform="translate(317 601)"/><path id="Path_485" data-name="Path 485" class="cls-6" d="M8.816 0H5.2v-.912h1.248v-3.312a2.255 2.255 0 0 0-.472-1.624 1.636 1.636 0 0 0-1.208-.472 1.965 1.965 0 0 0-1.512.632 2.173 2.173 0 0 0-.616 1.416v3.36h1.232V0h-3.6v-.912H1.5V-10.1H.272v-.912H2.64v5.172a2.645 2.645 0 0 1 2.5-1.424 2.5 2.5 0 0 1 1.744.64 2.668 2.668 0 0 1 .7 2.064v3.648h1.232zM13.5-7.248a1.859 1.859 0 0 1 1.216.368l.272 1.792-.912.112-.272-1.216a1.625 1.625 0 0 0-.544-.1 1.281 1.281 0 0 0-1.04.52 2.1 2.1 0 0 0-.416 1.352v3.5h1.648V0H9.44v-.912h1.248v-5.3h-1.28v-.908h2.336v1.28a2.313 2.313 0 0 1 .68-1 1.6 1.6 0 0 1 1.076-.408zm8.56 5.184a1.869 1.869 0 0 1-.872 1.632A3.743 3.743 0 0 1 19.04.16a5.74 5.74 0 0 1-1.5-.2 4.2 4.2 0 0 1-1.208-.5l.228-1.62.9.1-.048.944a3.624 3.624 0 0 0 1.584.352 2.915 2.915 0 0 0 1.336-.3.96.96 0 0 0 .584-.9.864.864 0 0 0-.448-.832 3.638 3.638 0 0 0-1.112-.352q-.664-.112-1.336-.272a2.573 2.573 0 0 1-1.12-.552 1.543 1.543 0 0 1-.452-1.228 1.678 1.678 0 0 1 .832-1.6 3.651 3.651 0 0 1 1.808-.464 4.849 4.849 0 0 1 1.384.192 4.67 4.67 0 0 1 1.1.464l.176 1.664-.928.112-.18-1.152a3.091 3.091 0 0 0-1.456-.352 2.141 2.141 0 0 0-1.1.256.864.864 0 0 0-.432.8.819.819 0 0 0 .448.792 3.643 3.643 0 0 0 1.1.336q.656.1 1.312.264a2.479 2.479 0 0 1 1.1.568 1.618 1.618 0 0 1 .452 1.256z" transform="translate(268 600)"/><path id="Path_486" data-name="Path 486" class="cls-6" d="M13.664 0h-3.408v-.912H11.3v-3.312a2.309 2.309 0 0 0-.456-1.624A1.544 1.544 0 0 0 9.68-6.32a1.74 1.74 0 0 0-1.5.736 2.547 2.547 0 0 0-.544 1.408v3.264h1.228V0H5.472v-.912H6.5v-3.312a2.334 2.334 0 0 0-.448-1.632 1.512 1.512 0 0 0-1.14-.464 1.756 1.756 0 0 0-1.512.712 2.588 2.588 0 0 0-.552 1.4v3.3H4.16V0H.48v-.912h1.248v-5.3H.464v-.908h2.384v1.328a3.1 3.1 0 0 1 .944-1.056 2.441 2.441 0 0 1 1.44-.416 2.525 2.525 0 0 1 1.448.416 2.118 2.118 0 0 1 .84 1.3 2.985 2.985 0 0 1 .952-1.232 2.5 2.5 0 0 1 1.56-.48 2.389 2.389 0 0 1 1.7.64 2.725 2.725 0 0 1 .68 2.064v3.644h1.248zm1.824-8.96v-1.456H16.7v1.456zM17.968 0h-3.616v-.912H15.6v-5.3h-1.28v-.908h2.4v6.208h1.248zm9.344 0h-3.6v-.912h1.232v-3.312a2.282 2.282 0 0 0-.464-1.624 1.589 1.589 0 0 0-1.18-.472 2 2 0 0 0-1.544.632 2.207 2.207 0 0 0-.616 1.448v3.328h1.248V0h-3.62v-.912h1.248v-5.3h-1.28v-.908h2.4v1.264a2.629 2.629 0 0 1 2.5-1.408 2.5 2.5 0 0 1 1.744.64 2.668 2.668 0 0 1 .7 2.064v3.648h1.232z" transform="translate(317 600)"/><path id="Path_487" data-name="Path 487" class="cls-7" d="M6-2.232a2.06 2.06 0 0 1-.8 1.746A3.33 3.33 0 0 1 3.132.12a5.7 5.7 0 0 1-1.476-.186 3.15 3.15 0 0 1-1.1-.5L.732-2.22l.876.084-.024.972a2.731 2.731 0 0 0 .762.27 4.084 4.084 0 0 0 .726.066 2.561 2.561 0 0 0 1.254-.282 1.057 1.057 0 0 0 .51-1.014 1.055 1.055 0 0 0-.57-1.076 5.988 5.988 0 0 0-1.278-.4 10.565 10.565 0 0 1-1.11-.3 2.049 2.049 0 0 1-.912-.594A1.767 1.767 0 0 1 .6-5.7a1.9 1.9 0 0 1 .78-1.692 3.134 3.134 0 0 1 1.8-.528 4.775 4.775 0 0 1 1.356.2 2.887 2.887 0 0 1 1.044.51l.072 1.6-.876.084-.132-1.098a2.461 2.461 0 0 0-.708-.264 3.492 3.492 0 0 0-.684-.072 1.842 1.842 0 0 0-1.074.288.971.971 0 0 0-.414.852.891.891 0 0 0 .5.894 5.8 5.8 0 0 0 1.116.378q.5.108 1.116.294a2.441 2.441 0 0 1 1.056.642A1.908 1.908 0 0 1 6-2.232zM13.152 0h-2.8v-.816h.876v-2.316a1.663 1.663 0 0 0-.324-1.158 1.119 1.119 0 0 0-.852-.342 1.34 1.34 0 0 0-1.044.438 1.555 1.555 0 0 0-.42 1v2.378h.876V0h-2.78v-.816h.864v-6.612h-.864v-.828h1.908v3.816a1.966 1.966 0 0 1 1.836-1.032 1.916 1.916 0 0 1 1.32.48 1.908 1.908 0 0 1 .54 1.5v2.676h.864zm5.928-2.676a2.763 2.763 0 0 1-.762 2.016 2.683 2.683 0 0 1-2.01.78 2.538 2.538 0 0 1-1.938-.756 2.782 2.782 0 0 1-.714-1.992 3.092 3.092 0 0 1 .684-2.016 2.476 2.476 0 0 1 2.04-.84 2.449 2.449 0 0 1 2.028.834 3.05 3.05 0 0 1 .672 1.974zm-1.1-.036a2.1 2.1 0 0 0-.438-1.4 1.47 1.47 0 0 0-1.182-.516 1.408 1.408 0 0 0-1.194.546 2.25 2.25 0 0 0-.414 1.4 2.343 2.343 0 0 0 .4 1.386 1.366 1.366 0 0 0 1.194.57 1.428 1.428 0 0 0 1.204-.564 2.277 2.277 0 0 0 .426-1.422zm10.412-1.824h-.576L26.268 0h-.792l-1.56-3.828h-.06L22.344 0h-.756l-1.6-4.536h-.548v-.828h2.616v.828h-.936l.984 3h.06l1.488-3.828h.672l1.608 3.816H26l.828-2.988h-.9v-.828h2.46zm9.072-.84a2.347 2.347 0 0 1-.774 1.908 2.9 2.9 0 0 1-1.926.648h-1.428v1.872h1.3V0H31.3v-.948h.948v-5.9H31.3V-7.8h3.4a2.783 2.783 0 0 1 2.112.7 2.42 2.42 0 0 1 .652 1.724zm-1.164.024a1.471 1.471 0 0 0-.408-1.1 1.829 1.829 0 0 0-1.32-.4h-1.236v3.1H34.6q1.7-.004 1.7-1.6zm4.992-.1a1.588 1.588 0 0 1 .96.288l.216 1.5-.828.1-.2-.924a1.093 1.093 0 0 0-.42-.084.847.847 0 0 0-.684.342 1.38 1.38 0 0 0-.276.894v2.52h1.152V0h-3.076v-.816H39v-3.72h-.9v-.828h1.884v.984a1.824 1.824 0 0 1 .486-.762 1.163 1.163 0 0 1 .822-.306zm7.4 2.772a2.763 2.763 0 0 1-.758 2.02 2.683 2.683 0 0 1-2.01.78 2.538 2.538 0 0 1-1.938-.756 2.782 2.782 0 0 1-.714-1.992 3.092 3.092 0 0 1 .684-2.016A2.476 2.476 0 0 1 46-5.484a2.449 2.449 0 0 1 2.028.834 3.05 3.05 0 0 1 .672 1.974zm-1.1-.036a2.1 2.1 0 0 0-.438-1.4 1.47 1.47 0 0 0-1.182-.516 1.408 1.408 0 0 0-1.194.546 2.25 2.25 0 0 0-.414 1.4 2.343 2.343 0 0 0 .4 1.386 1.366 1.366 0 0 0 1.194.57 1.428 1.428 0 0 0 1.206-.558 2.277 2.277 0 0 0 .428-1.424zm2.628-3.908V-7.86h1.1v1.236zM51.324.06a2.891 2.891 0 0 1-.624 2.124 2.17 2.17 0 0 1-1.788.492l-.036-.744a2.039 2.039 0 0 0 .648-.108.968.968 0 0 0 .534-.5 2.829 2.829 0 0 0 .21-1.26v-4.6h-1.08v-.828h2.136zm6.132-1.644a1.822 1.822 0 0 1-.684 1.2 2.458 2.458 0 0 1-1.632.5 2.6 2.6 0 0 1-1.884-.7 2.676 2.676 0 0 1-.72-2.016 3.139 3.139 0 0 1 .672-2.064 2.278 2.278 0 0 1 1.86-.816 2.183 2.183 0 0 1 1.716.684 2.444 2.444 0 0 1 .624 1.656 3.492 3.492 0 0 1-.072.684h-3.7q.072 1.7 1.572 1.7a1.325 1.325 0 0 0 .942-.3 1.477 1.477 0 0 0 .426-.72zm-1.14-1.572a1.592 1.592 0 0 0-.258-1.014 1.105 1.105 0 0 0-1.014-.486 1.161 1.161 0 0 0-.99.438 2.135 2.135 0 0 0-.4 1.062zm6.744 1.3a2.628 2.628 0 0 1-.63 1.344 2.1 2.1 0 0 1-1.7.636 2.435 2.435 0 0 1-1.818-.7 2.748 2.748 0 0 1-.69-2.01 3.121 3.121 0 0 1 .684-2.046 2.331 2.331 0 0 1 1.908-.834 3.9 3.9 0 0 1 .972.12 2.655 2.655 0 0 1 .888.42l.216 1.392-.852.1-.192-.9a2.045 2.045 0 0 0-1.046-.274 1.242 1.242 0 0 0-1.116.546 2.517 2.517 0 0 0-.36 1.41 2.271 2.271 0 0 0 .384 1.4 1.33 1.33 0 0 0 1.128.5q1.116 0 1.332-1.3zm4.872.348a1.661 1.661 0 0 1-1.8 1.628 1.771 1.771 0 0 1-1.29-.45 1.67 1.67 0 0 1-.462-1.254V-4.56h-.828v-.8h.828v-1.696h1.044v1.692h2.052v.8h-2.052v2.82q0 .96.828.96a.954.954 0 0 0 .528-.174 1.185 1.185 0 0 0 .372-.81zM79.08-6.852h-.936V0h-.66l-4.428-5.8h-.048v4.852H74.2V0h-3.112v-.948h.888v-5.9h-1.008V-7.8h1.8l4.3 5.616h.048v-4.668h-1.168V-7.8h3.132zm5.9 4.176a2.763 2.763 0 0 1-.758 2.016 2.683 2.683 0 0 1-2.01.78 2.538 2.538 0 0 1-1.938-.756 2.782 2.782 0 0 1-.714-1.992 3.092 3.092 0 0 1 .684-2.016 2.476 2.476 0 0 1 2.04-.84 2.449 2.449 0 0 1 2.028.834 3.05 3.05 0 0 1 .672 1.974zm-1.1-.036a2.1 2.1 0 0 0-.438-1.4 1.47 1.47 0 0 0-1.182-.516 1.408 1.408 0 0 0-1.194.546 2.25 2.25 0 0 0-.414 1.4 2.343 2.343 0 0 0 .4 1.386 1.366 1.366 0 0 0 1.194.57 1.428 1.428 0 0 0 1.206-.558 2.277 2.277 0 0 0 .428-1.428zm6.024 1.2A1.661 1.661 0 0 1 88.1.12a1.771 1.771 0 0 1-1.29-.45 1.67 1.67 0 0 1-.462-1.254V-4.56h-.828v-.8h.828v-1.696H87.4v1.692h2.052v.8H87.4v2.82q0 .96.828.96a.954.954 0 0 0 .528-.174 1.185 1.185 0 0 0 .372-.81zm5.328-.072a1.822 1.822 0 0 1-.684 1.2 2.458 2.458 0 0 1-1.632.5 2.6 2.6 0 0 1-1.884-.7 2.676 2.676 0 0 1-.72-2.016 3.139 3.139 0 0 1 .672-2.064 2.278 2.278 0 0 1 1.86-.816 2.183 2.183 0 0 1 1.716.684 2.444 2.444 0 0 1 .624 1.656 3.492 3.492 0 0 1-.072.684h-3.7q.072 1.7 1.572 1.7a1.325 1.325 0 0 0 .942-.3 1.477 1.477 0 0 0 .426-.72zm-1.14-1.572a1.592 1.592 0 0 0-.258-1.014 1.105 1.105 0 0 0-1.014-.486 1.161 1.161 0 0 0-.99.438 2.135 2.135 0 0 0-.4 1.062zM0 1h47.876v1H0zm52.324 0H95.6v1H52.324z" transform="translate(32 330)"/><g filter="url(#Path_488)"><path id="Path_488-2" data-name="Path 488" class="cls-2" d="M22 0A22 22 0 1 1 0 22 22 22 0 0 1 22 0z" transform="translate(32 43)"/></g><path id="Path_73" data-name="Path 73" class="cls-5" d="M0 0h20v20H0z" transform="translate(44 55)"/><path id="Path_74" data-name="Path 74" d="M3 18h14v-2H3zm0-5h14v-2H3zm0-7v2h14V6z" transform="translate(44 53)" fill="#242424"/><path id="Path_489" data-name="Path 489" class="cls-2" d="M2 0h324a2 2 0 0 1 2 2v47a2 2 0 0 1-2 2H2a2 2 0 0 1-2-2V2a2 2 0 0 1 2-2z" transform="translate(32 620)"/><path id="Path_492" data-name="Path 492" class="cls-7" d="M-.592-5.712A11.1 11.1 0 0 1-.984-2.56 3.936 3.936 0 0 1-2.256-.544a3.63 3.63 0 0 1-2.336.7 3.3 3.3 0 0 1-3.024-1.548 8.208 8.208 0 0 1-.96-4.32 11.407 11.407 0 0 1 .384-3.16A3.894 3.894 0 0 1-6.928-10.9a3.63 3.63 0 0 1 2.336-.7 3.319 3.319 0 0 1 3.024 1.552 8.135 8.135 0 0 1 .976 4.336zm-5.584 0a9.655 9.655 0 0 0 .336 2.936 1.257 1.257 0 0 0 1.248.984 1.272 1.272 0 0 0 1.248-.976 9.23 9.23 0 0 0 .352-2.944 9.32 9.32 0 0 0-.352-2.944 1.276 1.276 0 0 0-1.248-.992 1.259 1.259 0 0 0-1.248.992 9.738 9.738 0 0 0-.336 2.944z" transform="translate(268 652)"/><path id="Path_493" data-name="Path 493" class="cls-7" d="M-10.128-8.864a2.535 2.535 0 0 1-.712 1.888 3.693 3.693 0 0 1-1.752.96v.048a3.659 3.659 0 0 1 2.08.848 2.334 2.334 0 0 1 .72 1.792 3.332 3.332 0 0 1-.488 1.784A3.273 3.273 0 0 1-11.784-.3 6.43 6.43 0 0 1-14.4.16a8.22 8.22 0 0 1-3.3-.624v-2.048a7.16 7.16 0 0 0 1.536.56 6.459 6.459 0 0 0 1.5.192 2.816 2.816 0 0 0 1.816-.448 1.578 1.578 0 0 0 .52-1.264 1.34 1.34 0 0 0-.24-.8 1.481 1.481 0 0 0-.84-.5 6.5 6.5 0 0 0-1.672-.168h-.864V-6.8h.88a4.962 4.962 0 0 0 1.616-.2 1.359 1.359 0 0 0 .752-.544 1.547 1.547 0 0 0 .2-.792 1.226 1.226 0 0 0-.376-.952 1.843 1.843 0 0 0-1.256-.344 3.294 3.294 0 0 0-1.424.288 9.228 9.228 0 0 0-1.008.544l-1.12-1.664a6.328 6.328 0 0 1 1.576-.8 6.464 6.464 0 0 1 2.152-.32 4.843 4.843 0 0 1 2.792.712 2.3 2.3 0 0 1 1.032 2.008zm9.536 3.152A11.1 11.1 0 0 1-.984-2.56 3.936 3.936 0 0 1-2.256-.544a3.63 3.63 0 0 1-2.336.7 3.3 3.3 0 0 1-3.024-1.548 8.208 8.208 0 0 1-.96-4.32 11.407 11.407 0 0 1 .384-3.16A3.894 3.894 0 0 1-6.928-10.9a3.63 3.63 0 0 1 2.336-.7 3.319 3.319 0 0 1 3.024 1.552 8.135 8.135 0 0 1 .976 4.336zm-5.584 0a9.655 9.655 0 0 0 .336 2.936 1.257 1.257 0 0 0 1.248.984 1.272 1.272 0 0 0 1.248-.976 9.23 9.23 0 0 0 .352-2.944 9.32 9.32 0 0 0-.352-2.944 1.276 1.276 0 0 0-1.248-.992 1.259 1.259 0 0 0-1.248.992 9.738 9.738 0 0 0-.336 2.944z" transform="translate(317 652)"/><path id="Path_494" data-name="Path 494" class="cls-6" d="M8.816 0H5.2v-.912h1.248v-3.312a2.255 2.255 0 0 0-.472-1.624 1.636 1.636 0 0 0-1.208-.472 1.965 1.965 0 0 0-1.512.632 2.173 2.173 0 0 0-.616 1.416v3.36h1.232V0h-3.6v-.912H1.5V-10.1H.272v-.912H2.64v5.172a2.645 2.645 0 0 1 2.5-1.424 2.5 2.5 0 0 1 1.744.64 2.668 2.668 0 0 1 .7 2.064v3.648h1.232zM13.5-7.248a1.859 1.859 0 0 1 1.216.368l.272 1.792-.912.112-.272-1.216a1.625 1.625 0 0 0-.544-.1 1.281 1.281 0 0 0-1.04.52 2.1 2.1 0 0 0-.416 1.352v3.5h1.648V0H9.44v-.912h1.248v-5.3h-1.28v-.908h2.336v1.28a2.313 2.313 0 0 1 .68-1 1.6 1.6 0 0 1 1.076-.408zm8.56 5.184a1.869 1.869 0 0 1-.872 1.632A3.743 3.743 0 0 1 19.04.16a5.74 5.74 0 0 1-1.5-.2 4.2 4.2 0 0 1-1.208-.5l.228-1.62.9.1-.048.944a3.624 3.624 0 0 0 1.584.352 2.915 2.915 0 0 0 1.336-.3.96.96 0 0 0 .584-.9.864.864 0 0 0-.448-.832 3.638 3.638 0 0 0-1.112-.352q-.664-.112-1.336-.272a2.573 2.573 0 0 1-1.12-.552 1.543 1.543 0 0 1-.452-1.228 1.678 1.678 0 0 1 .832-1.6 3.651 3.651 0 0 1 1.808-.464 4.849 4.849 0 0 1 1.384.192 4.67 4.67 0 0 1 1.1.464l.176 1.664-.928.112-.18-1.152a3.091 3.091 0 0 0-1.456-.352 2.141 2.141 0 0 0-1.1.256.864.864 0 0 0-.432.8.819.819 0 0 0 .448.792 3.643 3.643 0 0 0 1.1.336q.656.1 1.312.264a2.479 2.479 0 0 1 1.1.568 1.618 1.618 0 0 1 .452 1.256z" transform="translate(268 651)"/><path id="Path_495" data-name="Path 495" class="cls-6" d="M13.664 0h-3.408v-.912H11.3v-3.312a2.309 2.309 0 0 0-.456-1.624A1.544 1.544 0 0 0 9.68-6.32a1.74 1.74 0 0 0-1.5.736 2.547 2.547 0 0 0-.544 1.408v3.264h1.228V0H5.472v-.912H6.5v-3.312a2.334 2.334 0 0 0-.448-1.632 1.512 1.512 0 0 0-1.14-.464 1.756 1.756 0 0 0-1.512.712 2.588 2.588 0 0 0-.552 1.4v3.3H4.16V0H.48v-.912h1.248v-5.3H.464v-.908h2.384v1.328a3.1 3.1 0 0 1 .944-1.056 2.441 2.441 0 0 1 1.44-.416 2.525 2.525 0 0 1 1.448.416 2.118 2.118 0 0 1 .84 1.3 2.985 2.985 0 0 1 .952-1.232 2.5 2.5 0 0 1 1.56-.48 2.389 2.389 0 0 1 1.7.64 2.725 2.725 0 0 1 .68 2.064v3.644h1.248zm1.824-8.96v-1.456H16.7v1.456zM17.968 0h-3.616v-.912H15.6v-5.3h-1.28v-.908h2.4v6.208h1.248zm9.344 0h-3.6v-.912h1.232v-3.312a2.282 2.282 0 0 0-.464-1.624 1.589 1.589 0 0 0-1.18-.472 2 2 0 0 0-1.544.632 2.207 2.207 0 0 0-.616 1.448v3.328h1.248V0h-3.62v-.912h1.248v-5.3h-1.28v-.908h2.4v1.264a2.629 2.629 0 0 1 2.5-1.408 2.5 2.5 0 0 1 1.744.64 2.668 2.668 0 0 1 .7 2.064v3.648h1.232z" transform="translate(317 651)"/><path id="Path_496" data-name="Path 496" class="cls-9" d="M4 0h8a4 4 0 0 1 4 4v635a4 4 0 0 1-4 4H4a4 4 0 0 1-4-4V4a4 4 0 0 1 4-4z" transform="translate(376)"/><path id="Path_633" data-name="Path 633" class="cls-9" d="M4 0h8a4 4 0 0 1 4 4v635a4 4 0 0 1-4 4H4a4 4 0 0 1-4-4V4a4 4 0 0 1 4-4z"/><path id="Path_497" data-name="Path 497" class="cls-9" d="M4 0h384a4 4 0 0 1 4 4v8a4 4 0 0 1-4 4H4a4 4 0 0 1-4-4V4a4 4 0 0 1 4-4z" transform="translate(0 627)"/><path id="tab" class="cls-9" d="M4 0h384a4 4 0 0 1 4 4v23H0V4a4 4 0 0 1 4-4z"/><g id="Path_498" data-name="Path 498" fill="#ffc12f"><path class="cls-17" d="M6.5 12.5c-3.308 0-6-2.692-6-6s2.692-6 6-6 6 2.692 6 6-2.692 6-6 6z" transform="translate(37 7)"/><path d="M6.5 1A5.506 5.506 0 0 0 1 6.5C1 9.533 3.467 12 6.5 12S12 9.533 12 6.5 9.533 1 6.5 1m0-1a6.5 6.5 0 1 1 0 13 6.5 6.5 0 0 1 0-13z" fill="#e19f1b" transform="translate(37 7)"/></g><path id="Path_499" data-name="Path 499" d="M0 0h7v1H0z" transform="translate(40 13)" fill="#995700"/><g id="Path_500" data-name="Path 500" fill="#ff625a"><path class="cls-17" d="M6.5 12.5c-3.308 0-6-2.692-6-6s2.692-6 6-6 6 2.692 6 6-2.692 6-6 6z" transform="translate(16 7)"/><path d="M6.5 1A5.506 5.506 0 0 0 1 6.5C1 9.533 3.467 12 6.5 12S12 9.533 12 6.5 9.533 1 6.5 1m0-1a6.5 6.5 0 1 1 0 13 6.5 6.5 0 0 1 0-13z" fill="#e2483f" transform="translate(16 7)"/></g><path id="Path_627" data-name="Path 627" class="cls-13" d="M0 0h7v1H0z" transform="rotate(45 -2.693 29.936)"/><path id="Path_628" data-name="Path 628" class="cls-13" d="M0 0h7v1H0z" transform="rotate(-45 28.692 -15.936)"/><g id="Path_501" data-name="Path 501" fill="#2acf42"><path class="cls-17" d="M6.5 12.5c-3.308 0-6-2.692-6-6s2.692-6 6-6 6 2.692 6 6-2.692 6-6 6z" transform="translate(58 7)"/><path d="M6.5 1A5.506 5.506 0 0 0 1 6.5C1 9.533 3.467 12 6.5 12S12 9.533 12 6.5 9.533 1 6.5 1m0-1a6.5 6.5 0 1 1 0 13 6.5 6.5 0 0 1 0-13z" fill="#1eaa26" transform="translate(58 7)"/></g><path id="Path_502" data-name="Path 502" class="cls-15" d="M0 0h7v1H0z" transform="rotate(90 27.5 37.5)"/><path id="Path_503" data-name="Path 503" class="cls-15" d="M0 0h7v1H0z" transform="translate(61 13)"/><path id="Path_504" data-name="Path 504" d="M-25.324 0h-1.4v-8.073h-2.786v-1.209h6.968v1.209h-2.782zm5.424-9.88v2.639q0 .325-.026.65t-.052.533h.091a2.121 2.121 0 0 1 .9-.8 2.845 2.845 0 0 1 1.229-.266 2.677 2.677 0 0 1 1.892.611 2.553 2.553 0 0 1 .656 1.95V0h-1.365v-4.368q0-1.638-1.443-1.638a1.6 1.6 0 0 0-1.482.65 3.485 3.485 0 0 0-.4 1.833V0h-1.378v-9.88zm9.568 2.743a2.822 2.822 0 0 1 2.171.852 3.27 3.27 0 0 1 .793 2.32v.754h-4.706a2.406 2.406 0 0 0 .566 1.651A1.981 1.981 0 0 0-10-.988a5.29 5.29 0 0 0 1.2-.124 6.191 6.191 0 0 0 1.085-.37v1.144a4.9 4.9 0 0 1-1.06.358 6.363 6.363 0 0 1-1.274.11 3.853 3.853 0 0 1-1.794-.4 2.863 2.863 0 0 1-1.216-1.2 4.064 4.064 0 0 1-.436-1.976 4.567 4.567 0 0 1 .4-2 2.925 2.925 0 0 1 1.1-1.254 3.1 3.1 0 0 1 1.66-.437zm0 1.066a1.549 1.549 0 0 0-1.189.481 2.228 2.228 0 0 0-.526 1.365h3.3a2.231 2.231 0 0 0-.4-1.332 1.388 1.388 0 0 0-1.188-.514zM1 0H-.4v-8.073h-2.785v-1.209h6.968v1.209H1zm6.852-7.137a4.219 4.219 0 0 1 .767.065l-.143 1.287a2.689 2.689 0 0 0-.7-.091 1.958 1.958 0 0 0-.988.26 1.964 1.964 0 0 0-.734.747 2.329 2.329 0 0 0-.28 1.177V0h-1.38v-7.007h1.092l.182 1.248h.052a3.242 3.242 0 0 1 .871-.969 2.045 2.045 0 0 1 1.261-.409zm4.524 0a2.9 2.9 0 0 1 1.97.579A2.3 2.3 0 0 1 15-4.745V0h-.975l-.273-.975H13.7a3.131 3.131 0 0 1-.955.839 2.977 2.977 0 0 1-1.383.266 2.393 2.393 0 0 1-1.573-.514 1.96 1.96 0 0 1-.624-1.605 1.845 1.845 0 0 1 .812-1.631 4.72 4.72 0 0 1 2.477-.6l1.2-.039v-.39A1.413 1.413 0 0 0 13.3-5.74a1.418 1.418 0 0 0-.988-.319 3.39 3.39 0 0 0-1.027.156 6.979 6.979 0 0 0-.949.377l-.442-1a5.609 5.609 0 0 1 1.138-.436 5.091 5.091 0 0 1 1.344-.175zm1.261 3.77l-.936.026a3.086 3.086 0 0 0-1.658.4 1.143 1.143 0 0 0-.462.962.932.932 0 0 0 .325.793 1.359 1.359 0 0 0 .845.247 2.015 2.015 0 0 0 1.349-.452 1.685 1.685 0 0 0 .54-1.365zM19.942.13A3.2 3.2 0 0 1 17.6-.734a3.669 3.669 0 0 1-.884-2.723 4.478 4.478 0 0 1 .429-2.106 2.728 2.728 0 0 1 1.185-1.19 3.732 3.732 0 0 1 1.716-.384 4.936 4.936 0 0 1 1.1.117 3.823 3.823 0 0 1 .854.286l-.42 1.118q-.364-.13-.767-.24a2.945 2.945 0 0 0-.78-.11q-1.9 0-1.9 2.5a3 3 0 0 0 .468 1.82 1.615 1.615 0 0 0 1.378.624 3.739 3.739 0 0 0 1.027-.13 3.978 3.978 0 0 0 .834-.348v1.2a2.941 2.941 0 0 1-.819.325 4.788 4.788 0 0 1-1.079.105zm4.914-10.01v4.94q0 .26-.026.624t-.039.65h.039q.143-.195.4-.513t.448-.526l2.145-2.3h1.6L26.6-4l3 4h-1.624l-2.314-3.133-.806.676V0h-1.365v-9.88z" transform="translate(196 19)" fill="#4d4c4d"/></g></svg>