<svg xmlns="http://www.w3.org/2000/svg" width="392" height="643"><defs><filter id="b" x="23" y="37" width="62" height="62" filterUnits="userSpaceOnUse"><feOffset dy="3"/><feGaussianBlur stdDeviation="3" result="blur"/><feFlood flood-opacity=".059"/><feComposite operator="in" in2="blur"/><feComposite in="SourceGraphic"/></filter><filter id="c" x="23" y="139" width="346" height="500" filterUnits="userSpaceOnUse"><feOffset dy="3"/><feGaussianBlur stdDeviation="3" result="blur-2"/><feFlood flood-color="#39d07f" flood-opacity=".059"/><feComposite operator="in" in2="blur-2"/><feComposite in="SourceGraphic"/></filter><clipPath id="a"><path d="M0 0h392v643H0z"/></clipPath></defs><g clip-path="url(#a)"><rect width="392" height="643" rx="4" fill="#fff"/><path data-name="Rectangle 40" fill="#f039a1" d="M16 27h360v166H16z"/><text transform="translate(196 121)" fill="#fff" font-size="32" font-family="ZillaSlab-Medium, Zilla Slab" font-weight="500"><tspan x="-58.16" y="0">Settings</tspan></text><g data-name="Group 67"><circle data-name="Ellipse 10" cx="22" cy="22" r="22" transform="translate(32 43)" fill="#fff" filter="url(#b)"/><path data-name="Path 73" d="M44 55h20v20H44z" fill="none"/><path data-name="Path 74" d="M47 71h14v-2H47zm0-5h14v-2H47zm0-7v2h14v-2z" fill="#242424"/></g><g data-name="customize section"><rect data-name="Rectangle 57" width="328" height="482" rx="2" transform="translate(32 145)" fill="#fff" filter="url(#c)"/><text data-name="Hero Background" transform="translate(48 243)" fill="#363636" font-size="14" font-family="ZillaSlab-Medium, Zilla Slab" font-weight="500"><tspan x="0" y="0">Hero Background</tspan></text><text data-name="Title Color" transform="translate(48 282)" fill="#363636" font-size="14" font-family="ZillaSlab-Medium, Zilla Slab" font-weight="500"><tspan x="0" y="0">Title Color</tspan></text><text data-name="Title on Hero" transform="translate(48 321)" fill="#363636" font-size="14" font-family="ZillaSlab-Medium, Zilla Slab" font-weight="500"><tspan x="0" y="0">Title on Hero</tspan></text><text data-name="Paragraph Text" transform="translate(48 360)" fill="#363636" font-size="14" font-family="ZillaSlab-Medium, Zilla Slab" font-weight="500"><tspan x="0" y="0">Paragraph Text</tspan></text><text transform="translate(48 399)" fill="#363636" font-size="14" font-family="ZillaSlab-Medium, Zilla Slab" font-weight="500"><tspan x="0" y="0">Accent</tspan></text><text transform="translate(48 438)" fill="#363636" font-size="14" font-family="ZillaSlab-Medium, Zilla Slab" font-weight="500"><tspan x="0" y="0">Success</tspan></text><text transform="translate(48 477)" fill="#363636" font-size="14" font-family="ZillaSlab-Medium, Zilla Slab" font-weight="500"><tspan x="0" y="0">Danger</tspan></text><text data-name="Primary Button Background" transform="translate(48 516)" fill="#363636" font-size="14" font-family="ZillaSlab-Medium, Zilla Slab" font-weight="500"><tspan x="0" y="0">Primary Button Background</tspan></text><text data-name="Secondary Button Background" transform="translate(48 594)" fill="#363636" font-size="14" font-family="ZillaSlab-Medium, Zilla Slab" font-weight="500"><tspan x="0" y="0">Secondary Button Background</tspan></text><text data-name="Strong Color" transform="translate(48 633)" fill="#363636" font-size="14" font-family="ZillaSlab-Medium, Zilla Slab" font-weight="500"><tspan x="0" y="0">Strong Color</tspan></text><text data-name="Primary Button Color" transform="translate(48 555)" fill="#363636" font-size="14" font-family="ZillaSlab-Medium, Zilla Slab" font-weight="500"><tspan x="0" y="0">Primary Button Color</tspan></text><text data-name="#F039A1" transform="translate(344 244)" fill="#f039a1" font-size="16" font-family="ZillaSlab-Medium, Zilla Slab" font-weight="500"><tspan x="-60.928" y="0">#F039A1</tspan></text><text data-name="#363636" transform="translate(344 283)" fill="#363636" font-size="16" font-family="ZillaSlab-Medium, Zilla Slab" font-weight="500"><tspan x="-59.056" y="0">#363636</tspan></text><text data-name="#FFFFFF" transform="translate(344 322)" fill="#363636" font-size="16" font-family="ZillaSlab-Medium, Zilla Slab" font-weight="500"><tspan x="-63.232" y="0">#FFFFFF</tspan></text><text data-name="#BEBEBE" transform="translate(344 361)" fill="#bebebe" font-size="16" font-family="ZillaSlab-Medium, Zilla Slab" font-weight="500"><tspan x="-66.928" y="0">#BEBEBE</tspan></text><text data-name="#39D0C4" transform="translate(344 400)" fill="#39d0c4" font-size="16" font-family="ZillaSlab-Medium, Zilla Slab" font-weight="500"><tspan x="-65.488" y="0">#39D0C4</tspan></text><text data-name="#39D07F" transform="translate(344 439)" fill="#39d07f" font-size="16" font-family="ZillaSlab-Medium, Zilla Slab" font-weight="500"><tspan x="-63.008" y="0">#39D07F</tspan></text><text data-name="#FF5A5A" transform="translate(344 478)" fill="#ff5a5a" font-size="16" font-family="ZillaSlab-Medium, Zilla Slab" font-weight="500"><tspan x="-64.928" y="0">#FF5A5A</tspan></text><text transform="translate(344 517)" fill="#3961e8" font-size="16" font-family="ZillaSlab-Medium, Zilla Slab" font-weight="500"><tspan x="-58.752" y="0">#3961E8</tspan></text><text transform="translate(344 595)" fill="#3961e8" font-size="16" font-family="ZillaSlab-Medium, Zilla Slab" font-weight="500"><tspan x="-58.752" y="0">#3961E8</tspan></text><text data-name="#39D0C4" transform="translate(344 634)" fill="#39d0c4" font-size="16" font-family="ZillaSlab-Medium, Zilla Slab" font-weight="500"><tspan x="-65.488" y="0">#39D0C4</tspan></text><text data-name="#FFFFFF" transform="translate(344 556)" font-size="16" font-family="ZillaSlab-Medium, Zilla Slab" font-weight="500"><tspan x="-63.232" y="0">#FFFFFF</tspan></text><g data-name="Group 88"><text data-name="Customize your app" transform="translate(68 176)" fill="#363636" font-size="16" font-family="ZillaSlab-Medium, Zilla Slab" font-weight="500"><tspan x="0" y="0">Customize your app</tspan></text><path data-name="Path 88" d="M55.184 177.809l.616-.618a.375.375 0 0 0 0-.53l-4.845-4.848h10.67a.375.375 0 0 0 .375-.375v-.875a.375.375 0 0 0-.375-.375h-10.67l4.845-4.848a.375.375 0 0 0 0-.53l-.619-.619a.375.375 0 0 0-.53 0l-6.541 6.544a.375.375 0 0 0 0 .53l6.544 6.544a.375.375 0 0 0 .53 0z" fill="#363636"/><text data-name="Change theme colors of your app to suit your style." transform="translate(68 180)" fill="#bebebe" font-size="12" font-family="ZillaSlab-Medium, Zilla Slab" font-weight="500"><tspan x="0" y="11">Change theme colors of your app to suit your style.</tspan></text></g></g><g data-name="frame" fill="#f4f4f4"><rect data-name="Rectangle 123" width="16" height="643" rx="4" transform="translate(376)"/><rect data-name="Rectangle 122" width="16" height="643" rx="4"/><rect data-name="Rectangle 124" width="392" height="16" rx="4" transform="translate(0 627)"/></g><path d="M4 0h384a4 4 0 0 1 4 4v23H0V4a4 4 0 0 1 4-4z" fill="#f4f4f4"/><g data-name="minimise"><g data-name="Ellipse 24" fill="#ffc12f" stroke="#e19f1b" transform="translate(37 7)"><circle cx="6.5" cy="6.5" r="6.5" stroke="none"/><circle cx="6.5" cy="6.5" r="6" fill="none"/></g><path data-name="Rectangle 116" fill="#995700" d="M40 13h7v1h-7z"/></g><g data-name="Ellipse 23" fill="#ff625a" stroke="#e2483f" transform="translate(16 7)"><circle cx="6.5" cy="6.5" r="6.5" stroke="none"/><circle cx="6.5" cy="6.5" r="6" fill="none"/></g><path data-name="Rectangle 117" fill="#4d0000" d="M20.379 10.672l4.95 4.95-.707.707-4.95-4.95z"/><path data-name="Rectangle 118" fill="#4d0000" d="M19.672 15.621l4.95-4.95.707.707-4.95 4.95z"/><g data-name="Ellipse 25" fill="#2acf42" stroke="#1eaa26" transform="translate(58 7)"><circle cx="6.5" cy="6.5" r="6.5" stroke="none"/><circle cx="6.5" cy="6.5" r="6" fill="none"/></g><path data-name="Rectangle 120" fill="#026400" d="M65 10v7h-1v-7z"/><path data-name="Rectangle 119" fill="#026400" d="M61 13h7v1h-7z"/><text data-name="The Track" transform="translate(196 19)" fill="#4d4c4d" font-size="13" font-family="NotoSans-Medium, Noto Sans" font-weight="500"><tspan x="-29.679" y="0">The Track</tspan></text></g></svg>