<svg xmlns="http://www.w3.org/2000/svg" width="480" height="155"><defs><style>.cls-2{fill:#ff5a5a}</style></defs><g id="Group_153" data-name="Group 153" transform="translate(-100 -100)"><path id="Path_347" data-name="Path 347" d="M12 0h456a12 12 0 0 1 12 12v131a12 12 0 0 1-12 12H12a12 12 0 0 1-12-12V12A12 12 0 0 1 12 0z" transform="translate(100 100)" fill="#fff"/><path id="Path_348" data-name="Path 348" class="cls-2" d="M11.9 0H8.544v-15.168q0-1.216.032-2.192t.1-1.9a10.541 10.541 0 0 1-.864.832q-.448.384-1.024.864l-2.5 2.016-1.728-2.18 6.528-5.12H11.9zm23.268-11.456A22.776 22.776 0 0 1 34.4-5.12a7.93 7.93 0 0 1-2.48 4.032A6.852 6.852 0 0 1 27.424.32a6.3 6.3 0 0 1-5.808-3.12q-1.872-3.12-1.872-8.656a23.234 23.234 0 0 1 .752-6.336 7.8 7.8 0 0 1 2.448-4.016 6.839 6.839 0 0 1 4.48-1.392 6.4 6.4 0 0 1 5.824 3.088q1.92 3.088 1.92 8.656zm-12.032 0a17.789 17.789 0 0 0 .96 6.7 3.373 3.373 0 0 0 3.328 2.224 3.41 3.41 0 0 0 3.328-2.208 17.248 17.248 0 0 0 .992-6.72 17.157 17.157 0 0 0-.992-6.672 3.41 3.41 0 0 0-3.328-2.224 3.373 3.373 0 0 0-3.324 2.228 17.677 17.677 0 0 0-.964 6.672z" transform="translate(124 155)"/><path id="Path_349" data-name="Path 349" d="M12.96 0l-1.824-4.944H4.512L2.688 0H0l6.5-17.208h2.692L15.672 0zm-2.544-7.2l-1.728-4.824q-.1-.264-.264-.792t-.336-1.1q-.168-.576-.264-.936-.192.744-.432 1.584t-.384 1.248L5.28-7.2zm13.728-5.976a4.68 4.68 0 0 1 3.768 1.68 7.625 7.625 0 0 1 1.416 5.016 7.6 7.6 0 0 1-1.44 5A4.682 4.682 0 0 1 24.12.24a4.759 4.759 0 0 1-2.4-.54 4.808 4.808 0 0 1-1.488-1.284h-.168q.048.432.108 1.02a10.412 10.412 0 0 1 .06 1.044v5.28h-2.544v-18.7h2.064l.36 1.728h.12a4.839 4.839 0 0 1 1.476-1.388 4.556 4.556 0 0 1 2.436-.576zm-.6 2.088A2.925 2.925 0 0 0 21-10.056a5.554 5.554 0 0 0-.768 3.168v.388a6.783 6.783 0 0 0 .72 3.456 2.821 2.821 0 0 0 2.64 1.2 2.549 2.549 0 0 0 2.352-1.3 6.582 6.582 0 0 0 .768-3.384 6.164 6.164 0 0 0-.78-3.336 2.635 2.635 0 0 0-2.388-1.224zm15.48-2.088a4.68 4.68 0 0 1 3.768 1.68 7.625 7.625 0 0 1 1.416 5.016 7.6 7.6 0 0 1-1.44 5A4.682 4.682 0 0 1 39 .24a4.759 4.759 0 0 1-2.4-.54 4.808 4.808 0 0 1-1.488-1.284h-.168q.048.432.108 1.02a10.413 10.413 0 0 1 .06 1.044v5.28h-2.544v-18.7h2.064l.36 1.728h.12a4.839 4.839 0 0 1 1.476-1.388 4.556 4.556 0 0 1 2.436-.576zm-.6 2.088a2.925 2.925 0 0 0-2.544 1.032 5.554 5.554 0 0 0-.768 3.168v.388a6.783 6.783 0 0 0 .72 3.456 2.821 2.821 0 0 0 2.64 1.2 2.549 2.549 0 0 0 2.352-1.3 6.582 6.582 0 0 0 .768-3.384 6.164 6.164 0 0 0-.78-3.336 2.635 2.635 0 0 0-2.388-1.224zm29.424 2.352q0 4.344-2.388 6.54A9.509 9.509 0 0 1 58.776 0h-4.8v-17.136h5.3a10.031 10.031 0 0 1 4.536.96 6.874 6.874 0 0 1 2.976 2.832 9.258 9.258 0 0 1 1.06 4.608zm-2.712.072a6.408 6.408 0 0 0-1.56-4.764 6.126 6.126 0 0 0-4.464-1.524h-2.544v12.768h2.088q6.48 0 6.48-6.48zm11.232-4.512a5.209 5.209 0 0 1 4.008 1.576 6.038 6.038 0 0 1 1.464 4.28v1.392h-8.688A4.442 4.442 0 0 0 74.2-2.88 3.658 3.658 0 0 0 77-1.824a9.766 9.766 0 0 0 2.22-.228 11.429 11.429 0 0 0 2-.684v2.112a9.043 9.043 0 0 1-1.968.66A11.747 11.747 0 0 1 76.9.24a7.114 7.114 0 0 1-3.316-.74 5.285 5.285 0 0 1-2.244-2.212 7.5 7.5 0 0 1-.8-3.648 8.432 8.432 0 0 1 .732-3.7 5.4 5.4 0 0 1 2.04-2.316 5.725 5.725 0 0 1 3.056-.8zm0 1.968a2.86 2.86 0 0 0-2.2.888A4.113 4.113 0 0 0 73.2-7.8h6.1a4.119 4.119 0 0 0-.732-2.46 2.562 2.562 0 0 0-2.2-.948zM87.432 0l-4.9-12.936h2.688l2.688 7.56q.24.768.5 1.68a13.1 13.1 0 0 1 .36 1.512h.1a11.4 11.4 0 0 1 .384-1.524q.288-.924.528-1.668l2.688-7.56h2.692L90.24 0zm14.808-13.176a5.209 5.209 0 0 1 4.008 1.572 6.038 6.038 0 0 1 1.464 4.284v1.392h-8.688a4.442 4.442 0 0 0 1.044 3.048 3.658 3.658 0 0 0 2.8 1.056 9.766 9.766 0 0 0 2.22-.228 11.429 11.429 0 0 0 2-.684v2.112a9.043 9.043 0 0 1-1.968.66 11.747 11.747 0 0 1-2.352.2A7.114 7.114 0 0 1 99.456-.5a5.285 5.285 0 0 1-2.244-2.208 7.5 7.5 0 0 1-.8-3.648 8.432 8.432 0 0 1 .732-3.7 5.4 5.4 0 0 1 2.04-2.316 5.725 5.725 0 0 1 3.056-.804zm0 1.968a2.86 2.86 0 0 0-2.2.888 4.113 4.113 0 0 0-.972 2.52h6.1a4.119 4.119 0 0 0-.732-2.46 2.562 2.562 0 0 0-2.196-.948zM113.424 0h-2.544v-18.24h2.544zm15.384-6.48a6.953 6.953 0 0 1-1.656 4.968A5.85 5.85 0 0 1 122.688.24a6.121 6.121 0 0 1-3.108-.78 5.46 5.46 0 0 1-2.136-2.28 7.857 7.857 0 0 1-.78-3.66 6.972 6.972 0 0 1 1.632-4.956 5.824 5.824 0 0 1 4.464-1.74 6.169 6.169 0 0 1 3.132.78 5.475 5.475 0 0 1 2.136 2.268 7.783 7.783 0 0 1 .78 3.648zm-9.528 0a6.03 6.03 0 0 0 .828 3.408 2.945 2.945 0 0 0 2.628 1.224 2.945 2.945 0 0 0 2.628-1.224 6.03 6.03 0 0 0 .828-3.408 5.9 5.9 0 0 0-.828-3.4 3 3 0 0 0-2.652-1.188 2.947 2.947 0 0 0-2.612 1.192 5.966 5.966 0 0 0-.82 3.396zm19.2-6.7a4.68 4.68 0 0 1 3.768 1.68 7.625 7.625 0 0 1 1.416 5.016 7.6 7.6 0 0 1-1.44 5A4.682 4.682 0 0 1 138.456.24a4.759 4.759 0 0 1-2.4-.54 4.808 4.808 0 0 1-1.488-1.284h-.168q.048.432.108 1.02a10.414 10.414 0 0 1 .06 1.044v5.28h-2.544v-18.7h2.064l.36 1.728h.12a4.839 4.839 0 0 1 1.476-1.392 4.556 4.556 0 0 1 2.436-.572zm-.6 2.088a2.925 2.925 0 0 0-2.544 1.032 5.554 5.554 0 0 0-.768 3.168v.392a6.783 6.783 0 0 0 .72 3.456 2.821 2.821 0 0 0 2.64 1.2 2.549 2.549 0 0 0 2.352-1.3 6.582 6.582 0 0 0 .768-3.384 6.164 6.164 0 0 0-.78-3.336 2.635 2.635 0 0 0-2.388-1.224zm23.52-2.088a4.4 4.4 0 0 1 3.288 1.128 5.037 5.037 0 0 1 1.1 3.624V0h-2.544v-8.088q0-3-2.424-3a2.8 2.8 0 0 0-2.472 1.068 5.32 5.32 0 0 0-.744 3.06V0h-2.52v-8.088q0-3-2.448-3a2.651 2.651 0 0 0-2.508 1.176 6.815 6.815 0 0 0-.684 3.384V0H146.9v-12.936h2.016l.36 1.728h.144a3.679 3.679 0 0 1 1.62-1.488 5.038 5.038 0 0 1 2.172-.48q2.976 0 3.936 2.088h.192a3.867 3.867 0 0 1 1.728-1.572 5.433 5.433 0 0 1 2.332-.516zm13.368 0a5.209 5.209 0 0 1 4.008 1.572 6.038 6.038 0 0 1 1.464 4.288v1.392h-8.688A4.442 4.442 0 0 0 172.6-2.88a3.657 3.657 0 0 0 2.8 1.056 9.766 9.766 0 0 0 2.22-.228 11.429 11.429 0 0 0 2-.684v2.112a9.043 9.043 0 0 1-1.968.66 11.747 11.747 0 0 1-2.352.2 7.114 7.114 0 0 1-3.316-.736 5.285 5.285 0 0 1-2.244-2.208 7.5 7.5 0 0 1-.8-3.648 8.432 8.432 0 0 1 .732-3.7 5.4 5.4 0 0 1 2.04-2.316 5.725 5.725 0 0 1 3.056-.804zm0 1.968a2.86 2.86 0 0 0-2.2.888A4.113 4.113 0 0 0 171.6-7.8h6.1a4.119 4.119 0 0 0-.732-2.46 2.562 2.562 0 0 0-2.2-.948zm15.192-1.968a4.86 4.86 0 0 1 3.456 1.128 4.778 4.778 0 0 1 1.2 3.624V0H192.1v-8.064q0-3.024-2.664-3.024a2.987 2.987 0 0 0-2.724 1.176 6.275 6.275 0 0 0-.756 3.384V0h-2.544v-12.936h2.016l.36 1.728h.144a3.744 3.744 0 0 1 1.716-1.488 5.692 5.692 0 0 1 2.312-.48zm13.224 11.356a5.7 5.7 0 0 0 1.944-.312v1.92a4.73 4.73 0 0 1-1.1.324 7.455 7.455 0 0 1-1.392.132 5.036 5.036 0 0 1-1.936-.36 2.9 2.9 0 0 1-1.4-1.248 4.851 4.851 0 0 1-.528-2.472v-7.152h-1.8v-1.152l1.9-.96.888-2.736h1.56v2.9h3.7v1.944h-3.7v7.1a2.1 2.1 0 0 0 .516 1.56 1.858 1.858 0 0 0 1.348.512z" transform="translate(184 147)" fill="#242424"/><path id="Path_350" data-name="Path 350" d="M5.04 17H.608v-.992l1.36-.4V6.984l-1.36-.416v-.992H5.04v.992l-1.34.416v8.624l1.344.4zm5.06-1.216a3.8 3.8 0 0 0 1.3-.208v1.28a3.154 3.154 0 0 1-.736.216 4.97 4.97 0 0 1-.928.088 3.357 3.357 0 0 1-1.288-.24 1.931 1.931 0 0 1-.936-.832 3.234 3.234 0 0 1-.352-1.648V9.672h-1.2V8.9l1.264-.64.584-1.82h1.04v1.936h2.464v1.3H8.848v4.736a1.4 1.4 0 0 0 .344 1.04 1.238 1.238 0 0 0 .908.332zm12.912-1.216a2.225 2.225 0 0 1-.92 1.936 4.4 4.4 0 0 1-2.584.656 8.178 8.178 0 0 1-1.56-.128 4.68 4.68 0 0 1-1.192-.4v-1.488a8.112 8.112 0 0 0 1.32.488 5.4 5.4 0 0 0 1.48.216 2.428 2.428 0 0 0 1.384-.3.955.955 0 0 0 .424-.816.9.9 0 0 0-.16-.52 1.8 1.8 0 0 0-.6-.48 9.841 9.841 0 0 0-1.288-.568 9.41 9.41 0 0 1-1.4-.656 2.6 2.6 0 0 1-.872-.8 2.09 2.09 0 0 1-.3-1.168 1.942 1.942 0 0 1 .9-1.72 4.261 4.261 0 0 1 2.392-.6 6.592 6.592 0 0 1 1.48.16 7.581 7.581 0 0 1 1.352.448l-.56 1.3a9.517 9.517 0 0 0-1.152-.408 4.375 4.375 0 0 0-1.2-.168q-1.568 0-1.568.912a.806.806 0 0 0 .184.528 1.937 1.937 0 0 0 .64.448q.456.224 1.272.544a9.813 9.813 0 0 1 1.352.632 2.524 2.524 0 0 1 .872.792 2.09 2.09 0 0 1 .3 1.16zm5.408-6.352a3.473 3.473 0 0 1 2.672 1.048 4.025 4.025 0 0 1 .976 2.856v.928h-5.796a2.961 2.961 0 0 0 .7 2.032 2.438 2.438 0 0 0 1.864.7 6.511 6.511 0 0 0 1.48-.152 7.619 7.619 0 0 0 1.336-.456v1.408a6.029 6.029 0 0 1-1.312.44 7.831 7.831 0 0 1-1.568.136 4.742 4.742 0 0 1-2.208-.5 3.524 3.524 0 0 1-1.5-1.472 5 5 0 0 1-.536-2.432 5.621 5.621 0 0 1 .488-2.464 3.6 3.6 0 0 1 1.36-1.544 3.817 3.817 0 0 1 2.04-.528zm0 1.312a1.907 1.907 0 0 0-1.464.592 2.742 2.742 0 0 0-.656 1.68h4.064a2.746 2.746 0 0 0-.488-1.64 1.708 1.708 0 0 0-1.46-.632zm9.152-1.312a3.473 3.473 0 0 1 2.668 1.048 4.025 4.025 0 0 1 .976 2.856v.928h-5.792a2.961 2.961 0 0 0 .7 2.032 2.438 2.438 0 0 0 1.864.7 6.511 6.511 0 0 0 1.48-.152 7.62 7.62 0 0 0 1.336-.456v1.408a6.029 6.029 0 0 1-1.312.44 7.831 7.831 0 0 1-1.568.136 4.743 4.743 0 0 1-2.208-.5 3.524 3.524 0 0 1-1.5-1.472 5 5 0 0 1-.536-2.432 5.621 5.621 0 0 1 .488-2.464 3.6 3.6 0 0 1 1.36-1.544 3.817 3.817 0 0 1 2.04-.528zm0 1.312a1.907 1.907 0 0 0-1.464.592 2.742 2.742 0 0 0-.648 1.68h4.06a2.746 2.746 0 0 0-.488-1.64 1.708 1.708 0 0 0-1.464-.632zm15.42-1.312a2.937 2.937 0 0 1 2.192.752 3.358 3.358 0 0 1 .736 2.416V17h-1.7v-5.392q0-2-1.616-2a1.865 1.865 0 0 0-1.648.712 3.546 3.546 0 0 0-.5 2.04V17h-1.68v-5.392q0-2-1.632-2a1.767 1.767 0 0 0-1.672.784 4.543 4.543 0 0 0-.456 2.256V17h-1.7V8.376h1.344l.24 1.152h.1a2.452 2.452 0 0 1 1.08-.992 3.359 3.359 0 0 1 1.448-.32 2.589 2.589 0 0 1 2.632 1.392h.128A2.578 2.578 0 0 1 51.44 8.56a3.622 3.622 0 0 1 1.552-.344zm11.248 6.352a2.225 2.225 0 0 1-.92 1.936 4.4 4.4 0 0 1-2.584.656 8.178 8.178 0 0 1-1.56-.128 4.68 4.68 0 0 1-1.192-.4v-1.488a8.112 8.112 0 0 0 1.32.488 5.4 5.4 0 0 0 1.48.216 2.428 2.428 0 0 0 1.384-.3.955.955 0 0 0 .424-.816.9.9 0 0 0-.16-.52 1.8 1.8 0 0 0-.6-.48 9.841 9.841 0 0 0-1.288-.568 9.41 9.41 0 0 1-1.4-.656 2.6 2.6 0 0 1-.872-.8 2.09 2.09 0 0 1-.3-1.168 1.942 1.942 0 0 1 .9-1.72 4.261 4.261 0 0 1 2.392-.6 6.592 6.592 0 0 1 1.48.16 7.581 7.581 0 0 1 1.352.448l-.56 1.3a9.517 9.517 0 0 0-1.152-.408 4.375 4.375 0 0 0-1.2-.168q-1.568 0-1.568.912a.806.806 0 0 0 .184.528 1.937 1.937 0 0 0 .64.448q.456.224 1.272.544a9.813 9.813 0 0 1 1.352.632 2.524 2.524 0 0 1 .872.792 2.09 2.09 0 0 1 .304 1.16zM72.112 17h-1.7V4.84h1.7zm3.52-11.9a1.063 1.063 0 0 1 .672.224.9.9 0 0 1 .288.752.9.9 0 0 1-.288.744 1.04 1.04 0 0 1-.672.232 1.063 1.063 0 0 1-.688-.232.9.9 0 0 1-.288-.744.9.9 0 0 1 .288-.752 1.087 1.087 0 0 1 .688-.224zm.832 3.28V17h-1.7V8.376zM80.8 4.84v6.08q0 .32-.032.768t-.048.8h.048q.176-.24.488-.632t.552-.648l2.64-2.832h1.968l-3.472 3.7L86.64 17h-2l-2.848-3.856-.992.832V17h-1.68V4.84zm10.656 3.376a3.473 3.473 0 0 1 2.672 1.048 4.025 4.025 0 0 1 .972 2.856v.928h-5.788a2.961 2.961 0 0 0 .7 2.032 2.438 2.438 0 0 0 1.864.7 6.511 6.511 0 0 0 1.48-.152 7.62 7.62 0 0 0 1.336-.456v1.408a6.029 6.029 0 0 1-1.312.44 7.831 7.831 0 0 1-1.568.136 4.742 4.742 0 0 1-2.208-.5 3.524 3.524 0 0 1-1.5-1.472 5 5 0 0 1-.536-2.432 5.621 5.621 0 0 1 .488-2.464 3.6 3.6 0 0 1 1.36-1.544 3.817 3.817 0 0 1 2.04-.528zm0 1.312a1.907 1.907 0 0 0-1.464.592 2.742 2.742 0 0 0-.648 1.68h4.064a2.746 2.746 0 0 0-.488-1.64 1.708 1.708 0 0 0-1.464-.632zm8.608-1.152h1.824l1.792 4.9q.208.56.368 1.072a5.87 5.87 0 0 1 .224 1.024h.064q.08-.416.248-.976t.376-1.136l1.7-4.88h1.824l-3.7 9.792a4.939 4.939 0 0 1-1.24 1.96 2.876 2.876 0 0 1-2.024.712 5.088 5.088 0 0 1-.688-.04q-.288-.04-.5-.088v-1.348q.16.032.416.064a4.254 4.254 0 0 0 .528.032 1.652 1.652 0 0 0 1.184-.424 2.886 2.886 0 0 0 .7-1.112l.36-.928zm17.344 4.3a4.635 4.635 0 0 1-1.1 3.312 3.9 3.9 0 0 1-2.976 1.168 4.08 4.08 0 0 1-2.072-.52 3.64 3.64 0 0 1-1.424-1.52 5.238 5.238 0 0 1-.52-2.44 4.648 4.648 0 0 1 1.088-3.3 3.882 3.882 0 0 1 2.976-1.16 4.113 4.113 0 0 1 2.088.52 3.65 3.65 0 0 1 1.424 1.512 5.189 5.189 0 0 1 .516 2.432zm-6.352 0a4.02 4.02 0 0 0 .552 2.272 2.289 2.289 0 0 0 3.5 0 4.02 4.02 0 0 0 .552-2.272 3.933 3.933 0 0 0-.552-2.264 2 2 0 0 0-1.768-.792 1.965 1.965 0 0 0-1.744.792 3.978 3.978 0 0 0-.54 2.268zm15.92-4.3V17h-1.36l-.24-1.136h-.08a2.443 2.443 0 0 1-1.152.984 3.936 3.936 0 0 1-1.552.312 3.287 3.287 0 0 1-2.32-.744 3.133 3.133 0 0 1-.8-2.392V8.376h1.712v5.392a2.27 2.27 0 0 0 .424 1.5 1.643 1.643 0 0 0 1.32.5 2.039 2.039 0 0 0 1.84-.776 4.089 4.089 0 0 0 .512-2.248V8.376zm10.16-.16a3.575 3.575 0 0 1 2.424.712 2.826 2.826 0 0 1 .808 2.232V17h-1.2l-.336-1.2h-.064a3.854 3.854 0 0 1-1.176 1.032 3.664 3.664 0 0 1-1.7.328 2.946 2.946 0 0 1-1.936-.632 2.412 2.412 0 0 1-.768-1.976 2.271 2.271 0 0 1 1-2.008 5.809 5.809 0 0 1 3.048-.744l1.472-.048v-.48a1.739 1.739 0 0 0-.432-1.336 1.745 1.745 0 0 0-1.216-.392 4.172 4.172 0 0 0-1.264.192 8.589 8.589 0 0 0-1.168.464l-.544-1.232a6.9 6.9 0 0 1 1.4-.536 6.266 6.266 0 0 1 1.652-.216zm1.552 4.64l-1.152.032a3.8 3.8 0 0 0-2.04.5 1.406 1.406 0 0 0-.568 1.184 1.147 1.147 0 0 0 .4.976 1.672 1.672 0 0 0 1.04.3 2.48 2.48 0 0 0 1.656-.56 2.074 2.074 0 0 0 .664-1.68zm8.544-4.64a5.193 5.193 0 0 1 .944.08L148 9.88a3.309 3.309 0 0 0-.864-.112 2.4 2.4 0 0 0-2.12 1.24 2.866 2.866 0 0 0-.344 1.448V17h-1.7V8.376h1.344l.224 1.536h.064a3.99 3.99 0 0 1 1.076-1.192 2.517 2.517 0 0 1 1.552-.504zm5.616 0a3.473 3.473 0 0 1 2.672 1.048 4.025 4.025 0 0 1 .976 2.856v.928H150.7a2.961 2.961 0 0 0 .7 2.032 2.438 2.438 0 0 0 1.864.7 6.511 6.511 0 0 0 1.48-.152 7.62 7.62 0 0 0 1.336-.456v1.408a6.029 6.029 0 0 1-1.312.44 7.831 7.831 0 0 1-1.568.136 4.743 4.743 0 0 1-2.208-.5 3.524 3.524 0 0 1-1.5-1.472 5 5 0 0 1-.536-2.432 5.621 5.621 0 0 1 .488-2.464 3.6 3.6 0 0 1 1.36-1.544 3.817 3.817 0 0 1 2.044-.528zm0 1.312a1.907 1.907 0 0 0-1.464.592 2.742 2.742 0 0 0-.648 1.68h4.064a2.746 2.746 0 0 0-.488-1.64 1.708 1.708 0 0 0-1.464-.632zm10.128-1.312a3.24 3.24 0 0 1 2.3.752 3.185 3.185 0 0 1 .8 2.416V17H164.4v-5.376q0-2.016-1.776-2.016a1.992 1.992 0 0 0-1.816.784 4.184 4.184 0 0 0-.5 2.256V17h-1.7V8.376h1.344l.24 1.152h.1a2.5 2.5 0 0 1 1.144-.992 3.8 3.8 0 0 1 1.54-.32zm6.912-2.64l.112.176a16.329 16.329 0 0 1-.592 1.864q-.384 1.016-.784 1.88h-1.232q.224-.912.448-2t.352-1.92zm4.736 10.208a3.8 3.8 0 0 0 1.3-.208v1.28a3.154 3.154 0 0 1-.736.216 4.97 4.97 0 0 1-.928.088 3.357 3.357 0 0 1-1.288-.24 1.931 1.931 0 0 1-.936-.832 3.234 3.234 0 0 1-.352-1.648V9.672h-1.2V8.9l1.264-.64.592-1.824h1.04v1.94h2.464v1.3h-2.464v4.736a1.4 1.4 0 0 0 .344 1.04 1.238 1.238 0 0 0 .9.332zm10.528-7.568a3.575 3.575 0 0 1 2.424.712 2.826 2.826 0 0 1 .808 2.232V17h-1.2l-.336-1.2h-.064a3.854 3.854 0 0 1-1.176 1.032 3.664 3.664 0 0 1-1.7.328 2.946 2.946 0 0 1-1.936-.632 2.412 2.412 0 0 1-.768-1.976 2.271 2.271 0 0 1 1-2.008 5.809 5.809 0 0 1 3.048-.744l1.472-.048v-.48a1.739 1.739 0 0 0-.432-1.336 1.745 1.745 0 0 0-1.216-.392 4.172 4.172 0 0 0-1.264.192 8.589 8.589 0 0 0-1.168.464l-.544-1.232a6.9 6.9 0 0 1 1.4-.536 6.266 6.266 0 0 1 1.652-.216zm1.552 4.64l-1.152.032a3.8 3.8 0 0 0-2.04.5 1.406 1.406 0 0 0-.568 1.184 1.147 1.147 0 0 0 .4.976 1.672 1.672 0 0 0 1.04.3 2.48 2.48 0 0 0 1.656-.56 2.074 2.074 0 0 0 .664-1.68zm7.76 4.3a3.942 3.942 0 0 1-2.88-1.064 4.516 4.516 0 0 1-1.088-3.352 5.512 5.512 0 0 1 .528-2.592 3.358 3.358 0 0 1 1.456-1.464 4.593 4.593 0 0 1 2.112-.472 6.076 6.076 0 0 1 1.352.144 4.7 4.7 0 0 1 1.048.352l-.512 1.376q-.448-.16-.944-.3a3.625 3.625 0 0 0-.96-.136q-2.336 0-2.336 3.072a3.693 3.693 0 0 0 .576 2.24 1.987 1.987 0 0 0 1.7.768 4.6 4.6 0 0 0 1.264-.16 4.9 4.9 0 0 0 1.024-.416v1.472a3.62 3.62 0 0 1-1.008.4 5.893 5.893 0 0 1-1.332.136zm7.472-1.376a3.8 3.8 0 0 0 1.3-.208v1.28a3.154 3.154 0 0 1-.736.216 4.97 4.97 0 0 1-.928.088 3.357 3.357 0 0 1-1.288-.24 1.931 1.931 0 0 1-.936-.832 3.234 3.234 0 0 1-.352-1.648V9.672h-1.2V8.9l1.264-.64.592-1.824h1.04v1.94h2.464v1.3h-2.464v4.736a1.4 1.4 0 0 0 .344 1.04 1.238 1.238 0 0 0 .9.332zm3.888-10.68a1.063 1.063 0 0 1 .672.224.9.9 0 0 1 .288.752.9.9 0 0 1-.288.744 1.04 1.04 0 0 1-.672.232 1.063 1.063 0 0 1-.688-.232.9.9 0 0 1-.288-.744.9.9 0 0 1 .288-.752 1.087 1.087 0 0 1 .688-.224zm.832 3.28V17h-1.7V8.376zm4.592 8.62l-3.264-8.624h1.792l1.792 5.04q.16.512.336 1.12a8.738 8.738 0 0 1 .24 1.008h.064a7.6 7.6 0 0 1 .256-1.016q.192-.616.352-1.112l1.792-5.04h1.792L213.12 17zm9.872-8.784a3.473 3.473 0 0 1 2.672 1.048 4.025 4.025 0 0 1 .976 2.856v.928h-5.792a2.961 2.961 0 0 0 .7 2.032 2.438 2.438 0 0 0 1.864.7 6.511 6.511 0 0 0 1.48-.152 7.619 7.619 0 0 0 1.336-.456v1.408a6.029 6.029 0 0 1-1.312.44 7.831 7.831 0 0 1-1.568.136 4.743 4.743 0 0 1-2.208-.5 3.524 3.524 0 0 1-1.5-1.472 5 5 0 0 1-.536-2.432 5.621 5.621 0 0 1 .488-2.464 3.6 3.6 0 0 1 1.36-1.544 3.817 3.817 0 0 1 2.04-.528zm0 1.312a1.907 1.907 0 0 0-1.464.592 2.742 2.742 0 0 0-.648 1.68h4.064a2.746 2.746 0 0 0-.488-1.64 1.708 1.708 0 0 0-1.464-.632zm14.128.144h-2.128V17h-1.7V9.672h-1.456v-.8l1.456-.528V7.8a3.063 3.063 0 0 1 .76-2.344 3.023 3.023 0 0 1 2.12-.7 5.063 5.063 0 0 1 1.024.1 6.241 6.241 0 0 1 .784.208l-.432 1.3q-.272-.08-.608-.152a3.274 3.274 0 0 0-.688-.072q-1.264 0-1.264 1.68v.56h2.128zm9.1 3.008a4.635 4.635 0 0 1-1.1 3.312 3.9 3.9 0 0 1-2.976 1.168 4.08 4.08 0 0 1-2.072-.52 3.64 3.64 0 0 1-1.424-1.52 5.238 5.238 0 0 1-.52-2.44 4.648 4.648 0 0 1 1.088-3.3 3.882 3.882 0 0 1 2.976-1.16 4.113 4.113 0 0 1 2.088.52 3.65 3.65 0 0 1 1.424 1.512 5.189 5.189 0 0 1 .52 2.428zm-6.352 0a4.02 4.02 0 0 0 .552 2.272 2.289 2.289 0 0 0 3.5 0 4.02 4.02 0 0 0 .552-2.272 3.933 3.933 0 0 0-.552-2.264 2 2 0 0 0-1.768-.792 1.965 1.965 0 0 0-1.744.792A3.978 3.978 0 0 0 238 12.68zm12.752-4.464a5.193 5.193 0 0 1 .944.08l-.172 1.584a3.309 3.309 0 0 0-.864-.112 2.4 2.4 0 0 0-2.12 1.24 2.866 2.866 0 0 0-.344 1.448V17h-1.7V8.376h1.344l.224 1.536h.064A3.99 3.99 0 0 1 249.2 8.72a2.517 2.517 0 0 1 1.552-.504zm10.048 0a3.575 3.575 0 0 1 2.424.712 2.826 2.826 0 0 1 .808 2.232V17h-1.2l-.336-1.2h-.064a3.854 3.854 0 0 1-1.176 1.032 3.664 3.664 0 0 1-1.7.328 2.946 2.946 0 0 1-1.936-.632 2.412 2.412 0 0 1-.768-1.976 2.271 2.271 0 0 1 1-2.008 5.809 5.809 0 0 1 3.052-.744l1.472-.048v-.48a1.739 1.739 0 0 0-.432-1.336 1.745 1.745 0 0 0-1.216-.392 4.172 4.172 0 0 0-1.264.192 8.588 8.588 0 0 0-1.168.464l-.544-1.232a6.9 6.9 0 0 1 1.4-.536 6.266 6.266 0 0 1 1.652-.216zm1.552 4.64l-1.152.032a3.8 3.8 0 0 0-2.04.5 1.406 1.406 0 0 0-.568 1.184 1.147 1.147 0 0 0 .4.976 1.672 1.672 0 0 0 1.04.3 2.48 2.48 0 0 0 1.656-.56 2.074 2.074 0 0 0 .664-1.68zm15.5 4.128l-1.232-4.3-.256-.952q-.144-.536-.256-1.024t-.176-.76h-.064q-.048.272-.16.76t-.248 1.024q-.136.536-.264.968l-1.28 4.288h-1.888l-2.376-8.628h1.728l1.12 4.368q.176.672.328 1.432t.216 1.224h.064q.048-.272.136-.728t.192-.9q.1-.448.2-.736l1.376-4.656h1.856l1.344 4.656q.1.32.208.76t.2.872q.088.432.12.72h.064q.032-.256.112-.7t.2-.96q.12-.512.232-.976L280.5 8.36h1.712l-2.416 8.624zm7.56-12.144v3.248q0 .4-.032.8t-.064.656h.112a2.61 2.61 0 0 1 1.112-.984 3.5 3.5 0 0 1 1.512-.328 3.3 3.3 0 0 1 2.328.752 3.142 3.142 0 0 1 .808 2.4V17H289.5v-5.376q0-2.016-1.776-2.016a1.973 1.973 0 0 0-1.824.8 4.29 4.29 0 0 0-.5 2.256V17h-1.7V4.84zm9.248.256a1.063 1.063 0 0 1 .672.224.9.9 0 0 1 .288.752.9.9 0 0 1-.288.744 1.04 1.04 0 0 1-.672.232 1.063 1.063 0 0 1-.688-.232.9.9 0 0 1-.288-.744.9.9 0 0 1 .288-.752 1.087 1.087 0 0 1 .688-.22zm.832 3.28V17h-1.7V8.376zM299.84 17h-1.7V4.84h1.7zm6.048-8.784a3.473 3.473 0 0 1 2.672 1.048 4.025 4.025 0 0 1 .976 2.856v.928h-5.792a2.961 2.961 0 0 0 .7 2.032 2.438 2.438 0 0 0 1.864.7 6.511 6.511 0 0 0 1.48-.152 7.619 7.619 0 0 0 1.336-.456v1.408a6.029 6.029 0 0 1-1.312.44 7.832 7.832 0 0 1-1.568.136 4.742 4.742 0 0 1-2.208-.5 3.523 3.523 0 0 1-1.5-1.472A5 5 0 0 1 302 12.76a5.621 5.621 0 0 1 .488-2.464 3.6 3.6 0 0 1 1.36-1.544 3.817 3.817 0 0 1 2.04-.536zm0 1.312a1.907 1.907 0 0 0-1.464.592 2.742 2.742 0 0 0-.648 1.68h4.064a2.746 2.746 0 0 0-.488-1.64 1.708 1.708 0 0 0-1.464-.632zm7.536 5.616l.112.176a16.326 16.326 0 0 1-.592 1.864q-.384 1.016-.784 1.88h-1.232q.224-.928.448-2.008t.352-1.912zM323.888 17h-4.432v-.992l1.36-.4V6.984l-1.36-.416v-.992h4.432v.992l-1.344.416v8.624l1.344.4zm13.168-.016l-1.232-4.3-.256-.952q-.144-.536-.256-1.024t-.176-.76h-.064q-.048.272-.16.76t-.248 1.024q-.136.536-.264.968l-1.28 4.288h-1.888l-2.384-8.628h1.728l1.12 4.368q.176.672.328 1.432t.216 1.224h.064q.048-.272.136-.728t.192-.9q.1-.448.2-.736l1.376-4.656h1.856l1.344 4.656q.1.32.208.76t.2.872q.088.432.12.72H338q.032-.256.112-.7t.2-.96q.12-.512.232-.976L339.7 8.36h1.712l-2.416 8.624zm6.72-11.884a1.063 1.063 0 0 1 .672.224.9.9 0 0 1 .288.752.9.9 0 0 1-.288.744 1.04 1.04 0 0 1-.672.232 1.063 1.063 0 0 1-.688-.232.9.9 0 0 1-.288-.744.9.9 0 0 1 .288-.752 1.087 1.087 0 0 1 .688-.224zm.832 3.28V17h-1.7V8.376zM348.96 17h-1.7V4.84h1.7zm4.352 0h-1.7V4.84h1.7zM7.056 36.568a2.225 2.225 0 0 1-.92 1.936 4.4 4.4 0 0 1-2.584.656 8.178 8.178 0 0 1-1.56-.128 4.68 4.68 0 0 1-1.192-.4v-1.488a8.112 8.112 0 0 0 1.32.488 5.4 5.4 0 0 0 1.48.216 2.428 2.428 0 0 0 1.384-.3.955.955 0 0 0 .424-.816.9.9 0 0 0-.16-.52 1.8 1.8 0 0 0-.6-.48 9.841 9.841 0 0 0-1.288-.572 9.41 9.41 0 0 1-1.4-.656 2.6 2.6 0 0 1-.872-.8 2.09 2.09 0 0 1-.3-1.168 1.942 1.942 0 0 1 .9-1.72 4.261 4.261 0 0 1 2.392-.6 6.592 6.592 0 0 1 1.48.16 7.581 7.581 0 0 1 1.352.448l-.56 1.3a9.517 9.517 0 0 0-1.152-.412 4.375 4.375 0 0 0-1.2-.168q-1.568 0-1.568.912a.806.806 0 0 0 .184.528 1.937 1.937 0 0 0 .64.448q.456.224 1.272.544a9.813 9.813 0 0 1 1.352.632 2.524 2.524 0 0 1 .872.792 2.09 2.09 0 0 1 .304 1.168zm5.12 1.216a3.8 3.8 0 0 0 1.3-.208v1.28a3.153 3.153 0 0 1-.736.216 4.97 4.97 0 0 1-.928.088 3.357 3.357 0 0 1-1.288-.24 1.931 1.931 0 0 1-.936-.832 3.234 3.234 0 0 1-.352-1.648v-4.768h-1.2V30.9l1.264-.64.592-1.824h1.04v1.936h2.464v1.3h-2.468v4.736a1.4 1.4 0 0 0 .344 1.04 1.238 1.238 0 0 0 .904.336zM22.8 34.68a4.635 4.635 0 0 1-1.1 3.312 3.9 3.9 0 0 1-2.98 1.168 4.08 4.08 0 0 1-2.072-.52 3.64 3.64 0 0 1-1.424-1.52 5.238 5.238 0 0 1-.52-2.44 4.648 4.648 0 0 1 1.088-3.3 3.882 3.882 0 0 1 2.976-1.16 4.113 4.113 0 0 1 2.088.52 3.65 3.65 0 0 1 1.424 1.512 5.189 5.189 0 0 1 .52 2.428zm-6.352 0A4.02 4.02 0 0 0 17 36.952a1.963 1.963 0 0 0 1.752.816 1.963 1.963 0 0 0 1.752-.816 4.02 4.02 0 0 0 .552-2.272 3.933 3.933 0 0 0-.552-2.264 2 2 0 0 0-1.768-.792 1.965 1.965 0 0 0-1.744.792 3.978 3.978 0 0 0-.544 2.264zm12.8-4.464a3.12 3.12 0 0 1 2.512 1.12 5.083 5.083 0 0 1 .94 3.344 5.068 5.068 0 0 1-.96 3.336 3.122 3.122 0 0 1-2.512 1.144 3.172 3.172 0 0 1-1.6-.36 3.206 3.206 0 0 1-.992-.856h-.112q.032.288.072.68a6.941 6.941 0 0 1 .04.7v3.52h-1.7V30.376h1.384l.24 1.152h.08a3.226 3.226 0 0 1 .984-.928 3.037 3.037 0 0 1 1.624-.384zm-.4 1.392a1.95 1.95 0 0 0-1.7.688 3.7 3.7 0 0 0-.512 2.112v.256a4.522 4.522 0 0 0 .48 2.3 1.881 1.881 0 0 0 1.76.8 1.7 1.7 0 0 0 1.568-.864 4.388 4.388 0 0 0 .512-2.256 4.109 4.109 0 0 0-.52-2.224 1.757 1.757 0 0 0-1.588-.812zm13.28 6.176a3.8 3.8 0 0 0 1.3-.208v1.28a3.153 3.153 0 0 1-.736.216 4.97 4.97 0 0 1-.928.088 3.357 3.357 0 0 1-1.288-.24 1.931 1.931 0 0 1-.936-.832 3.234 3.234 0 0 1-.352-1.648v-4.768h-1.2V30.9l1.264-.64.592-1.824h1.04v1.936h2.464v1.3H40.88v4.736a1.4 1.4 0 0 0 .344 1.04 1.238 1.238 0 0 0 .904.336zm7.28-7.568a5.193 5.193 0 0 1 .944.08l-.176 1.584a3.309 3.309 0 0 0-.864-.112 2.4 2.4 0 0 0-2.12 1.24 2.866 2.866 0 0 0-.344 1.448V39h-1.7v-8.624H46.5l.224 1.536h.064a3.99 3.99 0 0 1 1.072-1.192 2.517 2.517 0 0 1 1.548-.504zm5.568 0a3.575 3.575 0 0 1 2.424.712 2.826 2.826 0 0 1 .808 2.232V39h-1.2l-.336-1.2h-.064a3.854 3.854 0 0 1-1.176 1.032 3.664 3.664 0 0 1-1.7.328 2.946 2.946 0 0 1-1.936-.632 2.412 2.412 0 0 1-.768-1.976 2.271 2.271 0 0 1 1-2.008 5.809 5.809 0 0 1 3.048-.744l1.472-.048v-.48a1.472 1.472 0 0 0-1.648-1.728 4.172 4.172 0 0 0-1.264.192 8.589 8.589 0 0 0-1.168.464l-.544-1.232a6.9 6.9 0 0 1 1.4-.536 6.266 6.266 0 0 1 1.652-.216zm1.552 4.64l-1.152.032a3.8 3.8 0 0 0-2.04.5 1.406 1.406 0 0 0-.568 1.184 1.147 1.147 0 0 0 .4.976 1.673 1.673 0 0 0 1.04.3 2.48 2.48 0 0 0 1.656-.56 2.074 2.074 0 0 0 .664-1.68zm7.76 4.3a3.942 3.942 0 0 1-2.88-1.064 4.516 4.516 0 0 1-1.088-3.352 5.512 5.512 0 0 1 .528-2.592 3.358 3.358 0 0 1 1.452-1.46 4.593 4.593 0 0 1 2.112-.472 6.075 6.075 0 0 1 1.352.144 4.7 4.7 0 0 1 1.048.352l-.512 1.376q-.448-.16-.944-.3a3.625 3.625 0 0 0-.96-.136q-2.336 0-2.336 3.072a3.693 3.693 0 0 0 .576 2.24 1.987 1.987 0 0 0 1.7.768 4.6 4.6 0 0 0 1.264-.16 4.9 4.9 0 0 0 1.024-.416v1.472a3.62 3.62 0 0 1-1.008.4 5.893 5.893 0 0 1-1.328.132zm6.048-12.32v6.08q0 .32-.032.768t-.048.8h.044q.176-.24.488-.632t.552-.648l2.64-2.832h1.968l-3.472 3.7 3.7 4.928h-2l-2.848-3.856-.992.832V39h-1.68V26.84zm8.128.256a1.063 1.063 0 0 1 .672.224 1.115 1.115 0 0 1 0 1.5 1.04 1.04 0 0 1-.672.232 1.063 1.063 0 0 1-.688-.232 1.115 1.115 0 0 1 0-1.5 1.087 1.087 0 0 1 .688-.216zm.832 3.28V39H77.6v-8.624zm7.024-.16a3.24 3.24 0 0 1 2.3.752 3.185 3.185 0 0 1 .8 2.416V39h-1.68v-5.376q0-2.016-1.776-2.016a1.992 1.992 0 0 0-1.816.784 4.184 4.184 0 0 0-.5 2.256V39h-1.7v-8.624H83.3l.24 1.152h.1a2.5 2.5 0 0 1 1.144-.992 3.8 3.8 0 0 1 1.536-.32zm8.688 0a3.454 3.454 0 0 1 1.5.32 2.92 2.92 0 0 1 1.136.976h.08l.192-1.136H99.3v8.736q0 3.728-3.984 3.728a10.65 10.65 0 0 1-1.712-.128 6.472 6.472 0 0 1-1.44-.4v-1.484a6.019 6.019 0 0 0 1.5.5 8.76 8.76 0 0 0 1.752.168 2.161 2.161 0 0 0 1.624-.6 2.319 2.319 0 0 0 .584-1.688v-.284q0-.208.016-.544t.032-.512H97.6a2.749 2.749 0 0 1-1.1.984 3.409 3.409 0 0 1-1.5.312 3.059 3.059 0 0 1-2.552-1.176 5.19 5.19 0 0 1-.92-3.272 5.3 5.3 0 0 1 .92-3.288 3.028 3.028 0 0 1 2.56-1.208zm.352 1.408a1.751 1.751 0 0 0-1.544.792 4.127 4.127 0 0 0-.536 2.312 4.052 4.052 0 0 0 .536 2.288 1.787 1.787 0 0 0 1.576.784 2.158 2.158 0 0 0 1.736-.648 3.259 3.259 0 0 0 .552-2.12v-.32a3.9 3.9 0 0 0-.56-2.376 2.1 2.1 0 0 0-1.76-.708zm9.44-1.248h1.824l1.792 4.9q.208.56.368 1.072a5.869 5.869 0 0 1 .224 1.024h.064q.08-.416.248-.976t.376-1.136l1.7-4.88h1.824l-3.7 9.792a4.939 4.939 0 0 1-1.24 1.96 2.876 2.876 0 0 1-2.024.712 5.088 5.088 0 0 1-.688-.04q-.288-.04-.5-.088v-1.344q.16.032.416.064a4.254 4.254 0 0 0 .528.032 1.652 1.652 0 0 0 1.184-.424 2.886 2.886 0 0 0 .7-1.112l.352-.928zm17.344 4.3a4.635 4.635 0 0 1-1.1 3.312 3.9 3.9 0 0 1-2.976 1.168 4.08 4.08 0 0 1-2.072-.52 3.64 3.64 0 0 1-1.424-1.52 5.238 5.238 0 0 1-.52-2.44 4.648 4.648 0 0 1 1.088-3.3 3.882 3.882 0 0 1 2.976-1.16 4.113 4.113 0 0 1 2.088.52 3.65 3.65 0 0 1 1.424 1.512 5.189 5.189 0 0 1 .516 2.436zm-6.352 0a4.02 4.02 0 0 0 .552 2.272 2.289 2.289 0 0 0 3.5 0 4.02 4.02 0 0 0 .552-2.272 3.933 3.933 0 0 0-.552-2.264 2 2 0 0 0-1.768-.792 1.965 1.965 0 0 0-1.744.792 3.978 3.978 0 0 0-.54 2.272zm15.92-4.3V39h-1.36l-.24-1.136h-.08a2.443 2.443 0 0 1-1.152.984 3.936 3.936 0 0 1-1.552.312 3.287 3.287 0 0 1-2.32-.744 3.133 3.133 0 0 1-.8-2.392v-5.648h1.712v5.392a2.27 2.27 0 0 0 .424 1.5 1.643 1.643 0 0 0 1.32.5 2.039 2.039 0 0 0 1.84-.776 4.088 4.088 0 0 0 .512-2.248v-4.368zm6.912-.16a5.193 5.193 0 0 1 .944.08l-.176 1.584a3.309 3.309 0 0 0-.864-.112 2.4 2.4 0 0 0-2.12 1.24 2.866 2.866 0 0 0-.344 1.448V39h-1.7v-8.624h1.344l.224 1.536H136a3.99 3.99 0 0 1 1.072-1.192 2.517 2.517 0 0 1 1.552-.504zm9.808 7.568a3.8 3.8 0 0 0 1.3-.208v1.28a3.153 3.153 0 0 1-.736.216 4.97 4.97 0 0 1-.928.088 3.357 3.357 0 0 1-1.288-.24 1.931 1.931 0 0 1-.936-.832 3.234 3.234 0 0 1-.352-1.648v-4.764h-1.2V30.9l1.264-.64.592-1.824h1.04v1.936h2.464v1.3h-2.464v4.736a1.4 1.4 0 0 0 .344 1.04 1.238 1.238 0 0 0 .9.336zm3.888-10.68a1.063 1.063 0 0 1 .672.224 1.115 1.115 0 0 1 0 1.5 1.04 1.04 0 0 1-.672.232 1.063 1.063 0 0 1-.688-.232 1.115 1.115 0 0 1 0-1.5 1.087 1.087 0 0 1 .688-.224zm.832 3.28V39h-1.7v-8.624zm12.32-.16a2.937 2.937 0 0 1 2.192.752 3.358 3.358 0 0 1 .736 2.416V39h-1.7v-5.392q0-2-1.616-2a1.865 1.865 0 0 0-1.648.712 3.546 3.546 0 0 0-.5 2.04V39h-1.68v-5.392q0-2-1.632-2a1.767 1.767 0 0 0-1.672.784 4.543 4.543 0 0 0-.456 2.256V39h-1.7v-8.624h1.344l.24 1.152h.1a2.453 2.453 0 0 1 1.08-.992 3.359 3.359 0 0 1 1.448-.32 2.589 2.589 0 0 1 2.624 1.392h.128a2.578 2.578 0 0 1 1.152-1.048 3.622 3.622 0 0 1 1.56-.344zm8.912 0a3.473 3.473 0 0 1 2.672 1.048 4.025 4.025 0 0 1 .976 2.856v.928h-5.792a2.961 2.961 0 0 0 .7 2.032 2.438 2.438 0 0 0 1.864.7 6.511 6.511 0 0 0 1.48-.152 7.619 7.619 0 0 0 1.336-.456v1.408a6.029 6.029 0 0 1-1.312.44 7.831 7.831 0 0 1-1.568.136 4.743 4.743 0 0 1-2.208-.5 3.524 3.524 0 0 1-1.5-1.472 5 5 0 0 1-.536-2.432 5.621 5.621 0 0 1 .488-2.464 3.6 3.6 0 0 1 1.36-1.544 3.817 3.817 0 0 1 2.04-.532zm0 1.312a1.907 1.907 0 0 0-1.464.592 2.742 2.742 0 0 0-.648 1.68h4.064a2.746 2.746 0 0 0-.488-1.64 1.708 1.708 0 0 0-1.464-.636zm10.784-4.432a1.063 1.063 0 0 1 .672.224 1.115 1.115 0 0 1 0 1.5 1.04 1.04 0 0 1-.672.232 1.063 1.063 0 0 1-.688-.232 1.115 1.115 0 0 1 0-1.5 1.087 1.087 0 0 1 .688-.224zm.832 3.28V39h-1.7v-8.624zm7.024-.16a3.24 3.24 0 0 1 2.3.752 3.185 3.185 0 0 1 .8 2.416V39h-1.68v-5.376q0-2.016-1.776-2.016a1.992 1.992 0 0 0-1.816.784 4.184 4.184 0 0 0-.5 2.256V39h-1.7v-8.624H190l.24 1.152h.1a2.5 2.5 0 0 1 1.144-.992 3.8 3.8 0 0 1 1.54-.32zM207.52 39h-1.68v-7.584q0-.608.016-1.1t.048-.952a5.268 5.268 0 0 1-.432.416q-.224.192-.512.432l-1.248 1.008-.864-1.088 3.264-2.56h1.408zm11.632-5.728a11.388 11.388 0 0 1-.384 3.168 3.965 3.965 0 0 1-1.24 2.016 3.426 3.426 0 0 1-2.248.7 3.148 3.148 0 0 1-2.9-1.56 8.425 8.425 0 0 1-.936-4.328 11.617 11.617 0 0 1 .376-3.168 3.9 3.9 0 0 1 1.22-2 3.42 3.42 0 0 1 2.24-.7 3.2 3.2 0 0 1 2.912 1.544 8.2 8.2 0 0 1 .96 4.328zm-6.016 0a8.9 8.9 0 0 0 .48 3.352 1.687 1.687 0 0 0 1.664 1.112 1.705 1.705 0 0 0 1.664-1.1 8.624 8.624 0 0 0 .5-3.36 8.578 8.578 0 0 0-.5-3.336 1.7 1.7 0 0 0-1.664-1.112 1.687 1.687 0 0 0-1.664 1.112 8.839 8.839 0 0 0-.48 3.332zm17.952 3.3a2.225 2.225 0 0 1-.92 1.936 4.4 4.4 0 0 1-2.584.656 8.178 8.178 0 0 1-1.56-.128 4.68 4.68 0 0 1-1.192-.4v-1.492a8.112 8.112 0 0 0 1.32.488 5.4 5.4 0 0 0 1.48.216 2.428 2.428 0 0 0 1.384-.3.955.955 0 0 0 .424-.816.9.9 0 0 0-.16-.52 1.8 1.8 0 0 0-.6-.48 9.842 9.842 0 0 0-1.288-.568 9.41 9.41 0 0 1-1.4-.656 2.6 2.6 0 0 1-.872-.8 2.09 2.09 0 0 1-.3-1.168 1.942 1.942 0 0 1 .9-1.72 4.261 4.261 0 0 1 2.392-.6 6.592 6.592 0 0 1 1.48.16 7.581 7.581 0 0 1 1.352.448l-.56 1.3a9.517 9.517 0 0 0-1.152-.408 4.375 4.375 0 0 0-1.2-.168q-1.568 0-1.568.912a.806.806 0 0 0 .184.528 1.937 1.937 0 0 0 .64.448q.456.224 1.272.544a9.814 9.814 0 0 1 1.352.632 2.524 2.524 0 0 1 .872.792 2.09 2.09 0 0 1 .304 1.16zm5.408-6.352a3.473 3.473 0 0 1 2.672 1.048 4.025 4.025 0 0 1 .976 2.856v.928h-5.792a2.961 2.961 0 0 0 .7 2.032 2.438 2.438 0 0 0 1.864.7 6.511 6.511 0 0 0 1.48-.152 7.619 7.619 0 0 0 1.336-.456v1.408a6.029 6.029 0 0 1-1.312.44 7.831 7.831 0 0 1-1.568.136 4.743 4.743 0 0 1-2.208-.5 3.524 3.524 0 0 1-1.5-1.472 5 5 0 0 1-.536-2.432 5.621 5.621 0 0 1 .492-2.456 3.6 3.6 0 0 1 1.36-1.544 3.817 3.817 0 0 1 2.04-.54zm0 1.312a1.907 1.907 0 0 0-1.464.592 2.742 2.742 0 0 0-.648 1.68h4.064a2.746 2.746 0 0 0-.488-1.64 1.708 1.708 0 0 0-1.46-.636zm9.232 7.632a3.942 3.942 0 0 1-2.88-1.064 4.516 4.516 0 0 1-1.088-3.352 5.512 5.512 0 0 1 .528-2.592 3.358 3.358 0 0 1 1.456-1.464 4.593 4.593 0 0 1 2.112-.472 6.076 6.076 0 0 1 1.352.144 4.7 4.7 0 0 1 1.048.352l-.512 1.376q-.448-.16-.944-.3a3.625 3.625 0 0 0-.96-.136q-2.336 0-2.336 3.072a3.693 3.693 0 0 0 .576 2.24 1.987 1.987 0 0 0 1.7.768 4.6 4.6 0 0 0 1.264-.16 4.9 4.9 0 0 0 1.024-.416v1.472a3.62 3.62 0 0 1-1.008.4 5.893 5.893 0 0 1-1.332.128zM257.7 34.68a4.635 4.635 0 0 1-1.1 3.312 3.9 3.9 0 0 1-2.976 1.168 4.08 4.08 0 0 1-2.072-.52 3.64 3.64 0 0 1-1.424-1.52 5.238 5.238 0 0 1-.52-2.44 4.648 4.648 0 0 1 1.088-3.3 3.882 3.882 0 0 1 2.976-1.16 4.113 4.113 0 0 1 2.088.52 3.65 3.65 0 0 1 1.424 1.512 5.189 5.189 0 0 1 .516 2.428zm-6.352 0a4.02 4.02 0 0 0 .552 2.272 2.289 2.289 0 0 0 3.5 0 4.02 4.02 0 0 0 .552-2.272 3.933 3.933 0 0 0-.552-2.264 2 2 0 0 0-1.768-.792 1.965 1.965 0 0 0-1.744.792 3.978 3.978 0 0 0-.544 2.264zm12.864-4.464a3.24 3.24 0 0 1 2.3.752 3.185 3.185 0 0 1 .8 2.416V39h-1.68v-5.376q0-2.016-1.776-2.016a1.991 1.991 0 0 0-1.816.784 4.183 4.183 0 0 0-.5 2.256V39h-1.7v-8.624h1.344l.24 1.152h.1a2.5 2.5 0 0 1 1.144-.992 3.8 3.8 0 0 1 1.54-.32zm8.672 8.944a3.12 3.12 0 0 1-2.512-1.12 5.055 5.055 0 0 1-.944-3.328 5.091 5.091 0 0 1 .96-3.36 3.148 3.148 0 0 1 2.528-1.136 3.116 3.116 0 0 1 1.6.368 3.292 3.292 0 0 1 1.008.9h.1q-.032-.224-.08-.656a6.925 6.925 0 0 1-.048-.752V26.84h1.7V39h-1.328l-.288-1.152h-.08a3.2 3.2 0 0 1-.992.928 3.046 3.046 0 0 1-1.628.384zm.4-1.392a2.032 2.032 0 0 0 1.752-.688 3.622 3.622 0 0 0 .52-2.1v-.256a4.5 4.5 0 0 0-.488-2.32 1.935 1.935 0 0 0-1.8-.8 1.737 1.737 0 0 0-1.568.832 4.283 4.283 0 0 0-.528 2.3 4 4 0 0 0 .528 2.24 1.782 1.782 0 0 0 1.58.792zm12.288-1.2a2.225 2.225 0 0 1-.92 1.936 4.4 4.4 0 0 1-2.584.656 8.178 8.178 0 0 1-1.56-.128 4.68 4.68 0 0 1-1.192-.4v-1.488a8.111 8.111 0 0 0 1.32.488 5.4 5.4 0 0 0 1.48.216 2.428 2.428 0 0 0 1.384-.3.955.955 0 0 0 .424-.816.9.9 0 0 0-.16-.52 1.8 1.8 0 0 0-.6-.48 9.842 9.842 0 0 0-1.288-.568 9.412 9.412 0 0 1-1.4-.656 2.6 2.6 0 0 1-.872-.8 2.09 2.09 0 0 1-.3-1.168 1.942 1.942 0 0 1 .9-1.72 4.261 4.261 0 0 1 2.392-.6 6.592 6.592 0 0 1 1.48.16 7.58 7.58 0 0 1 1.352.448l-.56 1.3a9.517 9.517 0 0 0-1.152-.408 4.375 4.375 0 0 0-1.2-.168q-1.568 0-1.568.912a.806.806 0 0 0 .184.528 1.937 1.937 0 0 0 .64.448q.456.224 1.272.544a9.813 9.813 0 0 1 1.352.632 2.524 2.524 0 0 1 .872.792 2.09 2.09 0 0 1 .3 1.16zm1.776 1.488a1.067 1.067 0 0 1 .32-.88 1.191 1.191 0 0 1 .768-.256 1.224 1.224 0 0 1 .776.256 1.053 1.053 0 0 1 .328.88 1.1 1.1 0 0 1-.328.9 1.178 1.178 0 0 1-.776.272 1.147 1.147 0 0 1-.768-.272 1.117 1.117 0 0 1-.324-.9z" transform="translate(184 158)" fill="#363636"/><path id="Path_351" data-name="Path 351" d="M6.352-9.856a2.885 2.885 0 0 0-2.416 1.112A4.85 4.85 0 0 0 3.072-5.7a5.049 5.049 0 0 0 .8 3.04 2.856 2.856 0 0 0 2.464 1.092 6.617 6.617 0 0 0 1.416-.152 12.452 12.452 0 0 0 1.432-.408v1.744a7.01 7.01 0 0 1-1.416.416 9.35 9.35 0 0 1-1.64.128 5.359 5.359 0 0 1-2.912-.728A4.376 4.376 0 0 1 1.5-2.616a7.884 7.884 0 0 1-.56-3.1 7.056 7.056 0 0 1 .628-3.044A4.8 4.8 0 0 1 3.4-10.832a5.481 5.481 0 0 1 2.952-.752 7.623 7.623 0 0 1 1.7.192 6.994 6.994 0 0 1 1.576.56l-.7 1.68q-.608-.272-1.256-.488a4.149 4.149 0 0 0-1.32-.216zM19.2-4.352a4.647 4.647 0 0 1-1.12 3.336A4 4 0 0 1 15.04.16a4.2 4.2 0 0 1-2.112-.528A3.686 3.686 0 0 1 11.472-1.9a5.221 5.221 0 0 1-.528-2.448 4.609 4.609 0 0 1 1.112-3.32 4 4 0 0 1 3.032-1.16 4.279 4.279 0 0 1 2.128.52 3.644 3.644 0 0 1 1.456 1.52 5.172 5.172 0 0 1 .528 2.436zm-6.192 0a3.9 3.9 0 0 0 .492 2.128 1.739 1.739 0 0 0 1.576.752 1.742 1.742 0 0 0 1.568-.752 3.852 3.852 0 0 0 .5-2.128 3.769 3.769 0 0 0-.5-2.112 1.772 1.772 0 0 0-1.588-.736 1.731 1.731 0 0 0-1.568.736 3.869 3.869 0 0 0-.48 2.112zm12.912-4.48a3.257 3.257 0 0 1 2.28.752 3.152 3.152 0 0 1 .824 2.432V0h-2.016v-5.248a2.341 2.341 0 0 0-.384-1.464 1.453 1.453 0 0 0-1.216-.488 1.76 1.76 0 0 0-1.664.768A4.4 4.4 0 0 0 23.3-4.24V0h-2.02v-8.672h1.552l.288 1.136h.112a2.449 2.449 0 0 1 1.144-.984 3.878 3.878 0 0 1 1.544-.312zm8.992 7.376a3.7 3.7 0 0 0 .728-.072 6.336 6.336 0 0 0 .66-.172v1.5a3.207 3.207 0 0 1-.832.256A5.808 5.808 0 0 1 34.4.16a3.614 3.614 0 0 1-1.352-.24 1.9 1.9 0 0 1-.948-.848 3.444 3.444 0 0 1-.352-1.712v-4.512h-1.172v-.88l1.28-.7.64-1.84h1.264v1.9h2.464v1.52H33.76v4.5a1.158 1.158 0 0 0 .328.9 1.184 1.184 0 0 0 .824.296zm4.144-10.56a1.346 1.346 0 0 1 .784.232.931.931 0 0 1 .336.824.953.953 0 0 1-.336.832 1.314 1.314 0 0 1-.784.24 1.3 1.3 0 0 1-.792-.24.964.964 0 0 1-.328-.832.941.941 0 0 1 .328-.824 1.336 1.336 0 0 1 .792-.232zm1.008 3.344V0h-2.016v-8.672zm7.216-.16a3.257 3.257 0 0 1 2.28.752 3.152 3.152 0 0 1 .824 2.432V0h-2.016v-5.248a2.341 2.341 0 0 0-.384-1.464 1.453 1.453 0 0 0-1.216-.488 1.76 1.76 0 0 0-1.664.768 4.4 4.4 0 0 0-.448 2.192V0H42.64v-8.672h1.552l.288 1.136h.112a2.449 2.449 0 0 1 1.144-.984 3.878 3.878 0 0 1 1.544-.312zm13.328.16V0h-1.584l-.272-1.12h-.1a2.4 2.4 0 0 1-1.152.976 4.025 4.025 0 0 1-1.552.3 3.257 3.257 0 0 1-2.28-.752 3.129 3.129 0 0 1-.824-2.416v-5.66h2.016v5.264a2.305 2.305 0 0 0 .384 1.456 1.464 1.464 0 0 0 1.216.48 1.78 1.78 0 0 0 1.672-.768 4.331 4.331 0 0 0 .456-2.192v-4.24zm6.064-.16a3.681 3.681 0 0 1 2.76 1.04 3.968 3.968 0 0 1 1.016 2.9v1.024H64.72a2.643 2.643 0 0 0 .656 1.832 2.286 2.286 0 0 0 1.728.648 6.209 6.209 0 0 0 1.5-.168 8.05 8.05 0 0 0 1.376-.488v1.612a5.9 5.9 0 0 1-1.328.448 8.158 8.158 0 0 1-1.644.144 4.981 4.981 0 0 1-2.256-.488A3.537 3.537 0 0 1 63.224-1.8a5 5 0 0 1-.552-2.472 4.779 4.779 0 0 1 1.1-3.392 3.8 3.8 0 0 1 2.9-1.168zm0 1.488a1.755 1.755 0 0 0-1.32.52 2.421 2.421 0 0 0-.584 1.544H68.5a2.467 2.467 0 0 0-.456-1.48 1.6 1.6 0 0 0-1.372-.584zM80.928 0H78.88v-9.7H75.6v-1.728h8.608V-9.7h-3.28zM89.5-8.832q.208 0 .464.024t.416.056l-.172 1.872q-.16-.032-.392-.056a3.912 3.912 0 0 0-.392-.024 2.779 2.779 0 0 0-1.2.264 2.128 2.128 0 0 0-.9.808 2.564 2.564 0 0 0-.348 1.388V0H84.96v-8.672h1.552l.288 1.5h.1a3.633 3.633 0 0 1 1.056-1.176 2.572 2.572 0 0 1 1.544-.484zm5.616 0a3.863 3.863 0 0 1 2.552.736 2.808 2.808 0 0 1 .872 2.272V0h-1.42l-.4-1.2h-.064a3.815 3.815 0 0 1-1.184 1.032 3.673 3.673 0 0 1-1.7.328A2.876 2.876 0 0 1 91.84-.5a2.528 2.528 0 0 1-.768-2.032 2.279 2.279 0 0 1 .984-2.016A5.757 5.757 0 0 1 95.04-5.3l1.5-.048v-.432a1.51 1.51 0 0 0-.4-1.184 1.639 1.639 0 0 0-1.12-.352 4.26 4.26 0 0 0-1.256.184 9.585 9.585 0 0 0-1.192.456l-.64-1.408a6.638 6.638 0 0 1 1.468-.54 7 7 0 0 1 1.72-.208zM96.544-4.1l-1.056.032a3.252 3.252 0 0 0-1.84.456 1.329 1.329 0 0 0-.512 1.1 1.028 1.028 0 0 0 .36.888 1.573 1.573 0 0 0 .952.264 2.254 2.254 0 0 0 1.488-.5 1.831 1.831 0 0 0 .608-1.5zm8.032 4.26a3.984 3.984 0 0 1-2.936-1.072 4.591 4.591 0 0 1-1.08-3.376 5.491 5.491 0 0 1 .536-2.6 3.372 3.372 0 0 1 1.48-1.472 4.766 4.766 0 0 1 2.16-.472 6.048 6.048 0 0 1 1.448.16 5.318 5.318 0 0 1 1.1.384l-.596 1.588q-.512-.192-1.008-.328a3.571 3.571 0 0 0-.944-.136q-2.112 0-2.112 2.864a3.43 3.43 0 0 0 .536 2.1 1.823 1.823 0 0 0 1.544.7 4.348 4.348 0 0 0 1.288-.176 4.675 4.675 0 0 0 1.064-.48v1.74a3.637 3.637 0 0 1-1.072.44 6.228 6.228 0 0 1-1.408.136zm6.512-12.32v5.776q0 .4-.032.872t-.064.888h.048q.208-.288.48-.656a7.108 7.108 0 0 1 .544-.656l2.56-2.736h2.288l-3.472 3.744L117.136 0h-2.352L112.1-3.712l-1.008.832V0h-2v-12.16zm8.416.144a1.346 1.346 0 0 1 .784.232.931.931 0 0 1 .336.824.953.953 0 0 1-.336.832 1.314 1.314 0 0 1-.784.24 1.3 1.3 0 0 1-.792-.24.964.964 0 0 1-.328-.832.941.941 0 0 1 .328-.824 1.336 1.336 0 0 1 .788-.232zm1.008 3.344V0H118.5v-8.672zm7.216-.16a3.257 3.257 0 0 1 2.28.752 3.152 3.152 0 0 1 .824 2.432V0h-2.016v-5.248a2.341 2.341 0 0 0-.384-1.464 1.453 1.453 0 0 0-1.216-.488 1.76 1.76 0 0 0-1.664.768 4.4 4.4 0 0 0-.452 2.192V0h-2.016v-8.672h1.552l.288 1.136h.112a2.449 2.449 0 0 1 1.144-.984 3.878 3.878 0 0 1 1.548-.312zm8.544 0a2.953 2.953 0 0 1 2.576 1.28h.08l.192-1.12h1.68V.064a3.644 3.644 0 0 1-1.04 2.816 4.486 4.486 0 0 1-3.136.96 11.346 11.346 0 0 1-1.712-.12 6.52 6.52 0 0 1-1.488-.408V1.648a8.115 8.115 0 0 0 1.576.5 8.524 8.524 0 0 0 1.752.176 1.983 1.983 0 0 0 1.5-.552 2.239 2.239 0 0 0 .532-1.612v-.224q0-.24.016-.56a4.675 4.675 0 0 1 .048-.512h-.064a2.749 2.749 0 0 1-1.1.984 3.332 3.332 0 0 1-1.464.312 2.936 2.936 0 0 1-2.48-1.184 5.356 5.356 0 0 1-.9-3.3 5.394 5.394 0 0 1 .9-3.312 2.976 2.976 0 0 1 2.532-1.196zm.528 1.648q-1.888 0-1.888 2.9 0 2.848 1.92 2.848a1.951 1.951 0 0 0 1.56-.584A3.034 3.034 0 0 0 138.9-4v-.3a3.744 3.744 0 0 0-.5-2.208 1.86 1.86 0 0 0-1.6-.676z" transform="translate(184 228)" fill="#39d07f"/><path id="Path_352" data-name="Path 352" class="cls-2" d="M-97.9-3.12A2.9 2.9 0 0 1-99-.72a4.78 4.78 0 0 1-3.056.88 7.251 7.251 0 0 1-3.2-.64V-2.4a13.7 13.7 0 0 0 1.592.584 6.018 6.018 0 0 0 1.752.264 2.288 2.288 0 0 0 1.512-.408 1.322 1.322 0 0 0 .472-1.048 1.312 1.312 0 0 0-.608-1.128 10.173 10.173 0 0 0-1.776-.92 7.991 7.991 0 0 1-1.352-.712 3.491 3.491 0 0 1-1.056-1.072 3 3 0 0 1-.408-1.624 2.779 2.779 0 0 1 1.032-2.288 4.269 4.269 0 0 1 2.76-.832 7.35 7.35 0 0 1 1.7.192 8.911 8.911 0 0 1 1.592.544L-98.7-9.2a10.837 10.837 0 0 0-1.368-.48 5.074 5.074 0 0 0-1.336-.176 1.9 1.9 0 0 0-1.264.368 1.218 1.218 0 0 0-.432.976 1.3 1.3 0 0 0 .24.792 2.191 2.191 0 0 0 .744.6q.5.272 1.3.624a9.531 9.531 0 0 1 1.576.84 3.164 3.164 0 0 1 .992 1.04A2.971 2.971 0 0 1-97.9-3.12zm5.328 1.664a3.7 3.7 0 0 0 .728-.072 6.335 6.335 0 0 0 .664-.168v1.5a3.207 3.207 0 0 1-.832.256 5.808 5.808 0 0 1-1.072.1 3.614 3.614 0 0 1-1.356-.24 1.9 1.9 0 0 1-.952-.848 3.444 3.444 0 0 1-.352-1.712v-4.512h-1.168v-.88l1.28-.7.64-1.84h1.264v1.9h2.464v1.52h-2.464v4.5a1.158 1.158 0 0 0 .328.9 1.184 1.184 0 0 0 .824.296zm10.88-2.9a4.647 4.647 0 0 1-1.12 3.336A4 4 0 0 1-85.856.16a4.2 4.2 0 0 1-2.112-.528A3.686 3.686 0 0 1-89.424-1.9a5.221 5.221 0 0 1-.528-2.448 4.609 4.609 0 0 1 1.112-3.32 4 4 0 0 1 3.032-1.16 4.279 4.279 0 0 1 2.128.52 3.644 3.644 0 0 1 1.456 1.52 5.172 5.172 0 0 1 .524 2.436zm-6.192 0a3.9 3.9 0 0 0 .484 2.132 1.739 1.739 0 0 0 1.576.752 1.742 1.742 0 0 0 1.568-.752 3.852 3.852 0 0 0 .5-2.128 3.769 3.769 0 0 0-.5-2.112A1.772 1.772 0 0 0-85.84-7.2a1.731 1.731 0 0 0-1.568.736 3.869 3.869 0 0 0-.48 2.112zm12.832-4.48A3.014 3.014 0 0 1-72.608-7.7a5.18 5.18 0 0 1 .928 3.352 5.154 5.154 0 0 1-.952 3.368A3.065 3.065 0 0 1-75.1.16a3.012 3.012 0 0 1-1.552-.352 3.246 3.246 0 0 1-.944-.816h-.128q.048.3.088.656A5.96 5.96 0 0 1-77.6.32v3.52h-2.016V-8.672h1.632l.284 1.152h.1a3.325 3.325 0 0 1 .96-.928 2.877 2.877 0 0 1 1.584-.384zm-.58 1.636a1.7 1.7 0 0 0-1.512.64 3.521 3.521 0 0 0-.456 1.936v.256a4.374 4.374 0 0 0 .424 2.136 1.654 1.654 0 0 0 1.576.744 1.514 1.514 0 0 0 1.4-.776 4.185 4.185 0 0 0 .456-2.12 3.959 3.959 0 0 0-.456-2.08 1.562 1.562 0 0 0-1.432-.736zm14.48 7.2H-63.2v-9.7h-3.28v-1.728h8.608V-9.7h-3.28zm8.576-8.832q.208 0 .464.024t.416.056l-.176 1.872q-.16-.032-.392-.056a3.912 3.912 0 0 0-.392-.024 2.779 2.779 0 0 0-1.2.264 2.128 2.128 0 0 0-.9.808A2.564 2.564 0 0 0-55.1-4.5V0h-2.02v-8.672h1.552l.288 1.5h.1a3.633 3.633 0 0 1 1.056-1.176 2.572 2.572 0 0 1 1.548-.484zm5.616 0a3.863 3.863 0 0 1 2.552.736 2.808 2.808 0 0 1 .872 2.272V0h-1.424l-.4-1.2h-.064a3.815 3.815 0 0 1-1.184 1.032A3.673 3.673 0 0 1-48.3.16a2.876 2.876 0 0 1-1.94-.66 2.528 2.528 0 0 1-.768-2.032 2.279 2.279 0 0 1 .984-2.016A5.757 5.757 0 0 1-47.04-5.3l1.5-.048v-.432a1.51 1.51 0 0 0-.4-1.184 1.639 1.639 0 0 0-1.12-.352 4.26 4.26 0 0 0-1.256.184 9.585 9.585 0 0 0-1.192.456l-.64-1.408a6.638 6.638 0 0 1 1.464-.544 7 7 0 0 1 1.724-.204zm1.424 4.732l-1.056.032a3.252 3.252 0 0 0-1.84.456 1.329 1.329 0 0 0-.512 1.1 1.028 1.028 0 0 0 .36.888 1.573 1.573 0 0 0 .952.264 2.254 2.254 0 0 0 1.488-.5 1.831 1.831 0 0 0 .608-1.5zM-37.5.16a3.984 3.984 0 0 1-2.94-1.072 4.591 4.591 0 0 1-1.08-3.376 5.491 5.491 0 0 1 .536-2.6A3.372 3.372 0 0 1-39.5-8.36a4.766 4.766 0 0 1 2.16-.472 6.048 6.048 0 0 1 1.448.16 5.318 5.318 0 0 1 1.1.384l-.6 1.588q-.508-.2-1.008-.332a3.571 3.571 0 0 0-.944-.136q-2.112 0-2.112 2.864a3.43 3.43 0 0 0 .536 2.1 1.824 1.824 0 0 0 1.544.7 4.348 4.348 0 0 0 1.288-.176 4.675 4.675 0 0 0 1.064-.48v1.744a3.637 3.637 0 0 1-1.076.44 6.228 6.228 0 0 1-1.4.136zm6.512-12.32v5.776q0 .4-.032.872t-.064.888h.048q.208-.288.48-.656a7.108 7.108 0 0 1 .544-.656l2.56-2.736h2.288l-3.476 3.744L-24.944 0H-27.3l-2.688-3.712-1.008.832V0h-2v-12.16zm8.416.144a1.346 1.346 0 0 1 .784.232.931.931 0 0 1 .336.824.953.953 0 0 1-.336.832 1.314 1.314 0 0 1-.784.24 1.3 1.3 0 0 1-.792-.24.964.964 0 0 1-.328-.832.941.941 0 0 1 .328-.824 1.336 1.336 0 0 1 .788-.232zm1.008 3.344V0h-2.016v-8.672zm7.216-.16a3.257 3.257 0 0 1 2.28.752 3.152 3.152 0 0 1 .824 2.432V0h-2.016v-5.248a2.341 2.341 0 0 0-.384-1.464 1.453 1.453 0 0 0-1.22-.488 1.76 1.76 0 0 0-1.664.768 4.4 4.4 0 0 0-.448 2.192V0h-2.016v-8.672h1.552l.288 1.136h.112a2.449 2.449 0 0 1 1.14-.984 3.878 3.878 0 0 1 1.548-.312zm8.544 0a2.953 2.953 0 0 1 2.576 1.28h.08l.192-1.12h1.68V.064A3.644 3.644 0 0 1-2.32 2.88a4.486 4.486 0 0 1-3.136.96 11.347 11.347 0 0 1-1.712-.12 6.52 6.52 0 0 1-1.488-.408V1.648a8.115 8.115 0 0 0 1.576.5 8.524 8.524 0 0 0 1.752.176 1.983 1.983 0 0 0 1.5-.552A2.239 2.239 0 0 0-3.3.16v-.224q0-.24.016-.56a4.675 4.675 0 0 1 .048-.512H-3.3a2.749 2.749 0 0 1-1.1.984A3.332 3.332 0 0 1-5.856.16a2.936 2.936 0 0 1-2.48-1.184 5.356 5.356 0 0 1-.9-3.3 5.394 5.394 0 0 1 .9-3.312 2.976 2.976 0 0 1 2.528-1.196zm.528 1.648q-1.888 0-1.888 2.9 0 2.848 1.92 2.848a1.951 1.951 0 0 0 1.56-.584 3.034 3.034 0 0 0 .5-1.98v-.3a3.744 3.744 0 0 0-.5-2.208 1.86 1.86 0 0 0-1.596-.676z" transform="translate(556 228)"/></g></svg>