<svg xmlns="http://www.w3.org/2000/svg" width="392" height="643"><defs><style>.cls-2{fill:#fff}.cls-3{fill:#f4f4f4}.cls-7{fill:#4d0000}.cls-9{fill:#026400}.cls-16{fill:#363636}.cls-18{stroke:none}</style><linearGradient id="linear-gradient" x1=".5" x2=".5" y2="1" gradientUnits="objectBoundingBox"><stop offset="0" stop-color="#3976ff"/><stop offset="1" stop-color="#3961e8"/></linearGradient><filter id="Path_320" x="23" y="37" width="62" height="62" filterUnits="userSpaceOnUse"><feOffset dy="3"/><feGaussianBlur stdDeviation="3" result="blur"/><feFlood flood-opacity=".059"/><feComposite operator="in" in2="blur"/><feComposite in="SourceGraphic"/></filter><filter id="Path_322" x="23" y="139" width="346" height="353" filterUnits="userSpaceOnUse"><feOffset dy="3"/><feGaussianBlur stdDeviation="3" result="blur-2"/><feFlood flood-opacity=".059"/><feComposite operator="in" in2="blur-2"/><feComposite in="SourceGraphic"/></filter><filter id="Path_325" x="39" y="273" width="107" height="48" filterUnits="userSpaceOnUse"><feOffset dy="3"/><feGaussianBlur stdDeviation="3" result="blur-3"/><feFlood flood-opacity=".122"/><feComposite operator="in" in2="blur-3"/><feComposite in="SourceGraphic"/></filter><filter id="Path_327" x="108" y="311" width="86" height="48" filterUnits="userSpaceOnUse"><feOffset dy="3"/><feGaussianBlur stdDeviation="3" result="blur-4"/><feFlood flood-opacity=".122"/><feComposite operator="in" in2="blur-4"/><feComposite in="SourceGraphic"/></filter><filter id="Path_329" x="136" y="273" width="91" height="48" filterUnits="userSpaceOnUse"><feOffset dy="3"/><feGaussianBlur stdDeviation="3" result="blur-5"/><feFlood flood-opacity=".122"/><feComposite operator="in" in2="blur-5"/><feComposite in="SourceGraphic"/></filter><filter id="Path_331" x="40" y="311" width="78" height="48" filterUnits="userSpaceOnUse"><feOffset dy="3"/><feGaussianBlur stdDeviation="3" result="blur-6"/><feFlood flood-opacity=".122"/><feComposite operator="in" in2="blur-6"/><feComposite in="SourceGraphic"/></filter><filter id="Path_333" x="217" y="273" width="114" height="48" filterUnits="userSpaceOnUse"><feOffset dy="3"/><feGaussianBlur stdDeviation="3" result="blur-7"/><feFlood flood-opacity=".122"/><feComposite operator="in" in2="blur-7"/><feComposite in="SourceGraphic"/></filter><clipPath id="clip-settings-distractions_1"><path d="M0 0h392v643H0z"/></clipPath></defs><g id="settings-distractions_1" data-name="settings-distractions – 1" clip-path="url(#clip-settings-distractions_1)"><path id="background" class="cls-2" d="M4 0h384a4 4 0 0 1 4 4v1274a4 4 0 0 1-4 4H4a4 4 0 0 1-4-4V4a4 4 0 0 1 4-4z"/><path id="Path_307" data-name="Path 307" class="cls-3" d="M4 0h8a4 4 0 0 1 4 4v635a4 4 0 0 1-4 4H4a4 4 0 0 1-4-4V4a4 4 0 0 1 4-4z" transform="translate(376)"/><path id="Path_308" data-name="Path 308" class="cls-3" d="M4 0h8a4 4 0 0 1 4 4v635a4 4 0 0 1-4 4H4a4 4 0 0 1-4-4V4a4 4 0 0 1 4-4z"/><path id="Path_309" data-name="Path 309" class="cls-3" d="M4 0h384a4 4 0 0 1 4 4v8a4 4 0 0 1-4 4H4a4 4 0 0 1-4-4V4a4 4 0 0 1 4-4z" transform="translate(0 627)"/><path id="tab" class="cls-3" d="M4 0h384a4 4 0 0 1 4 4v23H0V4a4 4 0 0 1 4-4z"/><g id="Path_310" data-name="Path 310" fill="#ffc12f"><path class="cls-18" d="M6.5 12.5c-3.308 0-6-2.692-6-6s2.692-6 6-6 6 2.692 6 6-2.692 6-6 6z" transform="translate(37 7)"/><path d="M6.5 1A5.506 5.506 0 0 0 1 6.5C1 9.533 3.467 12 6.5 12S12 9.533 12 6.5 9.533 1 6.5 1m0-1a6.5 6.5 0 1 1 0 13 6.5 6.5 0 0 1 0-13z" fill="#e19f1b" transform="translate(37 7)"/></g><path id="Path_311" data-name="Path 311" d="M0 0h7v1H0z" transform="translate(40 13)" fill="#995700"/><g id="Path_312" data-name="Path 312" fill="#ff625a"><path class="cls-18" d="M6.5 12.5c-3.308 0-6-2.692-6-6s2.692-6 6-6 6 2.692 6 6-2.692 6-6 6z" transform="translate(16 7)"/><path d="M6.5 1A5.506 5.506 0 0 0 1 6.5C1 9.533 3.467 12 6.5 12S12 9.533 12 6.5 9.533 1 6.5 1m0-1a6.5 6.5 0 1 1 0 13 6.5 6.5 0 0 1 0-13z" fill="#e2483f" transform="translate(16 7)"/></g><path id="Path_313" data-name="Path 313" class="cls-7" d="M0 0h7v1H0z" transform="rotate(45 -2.693 29.936)"/><path id="Path_314" data-name="Path 314" class="cls-7" d="M0 0h7v1H0z" transform="rotate(-45 28.692 -15.936)"/><g id="Path_315" data-name="Path 315" fill="#2acf42"><path class="cls-18" d="M6.5 12.5c-3.308 0-6-2.692-6-6s2.692-6 6-6 6 2.692 6 6-2.692 6-6 6z" transform="translate(58 7)"/><path d="M6.5 1A5.506 5.506 0 0 0 1 6.5C1 9.533 3.467 12 6.5 12S12 9.533 12 6.5 9.533 1 6.5 1m0-1a6.5 6.5 0 1 1 0 13 6.5 6.5 0 0 1 0-13z" fill="#1eaa26" transform="translate(58 7)"/></g><path id="Path_316" data-name="Path 316" class="cls-9" d="M0 0h7v1H0z" transform="rotate(90 27.5 37.5)"/><path id="Path_317" data-name="Path 317" class="cls-9" d="M0 0h7v1H0z" transform="translate(61 13)"/><path id="Path_318" data-name="Path 318" d="M-25.324 0h-1.4v-8.073h-2.786v-1.209h6.968v1.209h-2.782zm5.424-9.88v2.639q0 .325-.026.65t-.052.533h.091a2.121 2.121 0 0 1 .9-.8 2.845 2.845 0 0 1 1.229-.266 2.677 2.677 0 0 1 1.892.611 2.553 2.553 0 0 1 .656 1.95V0h-1.365v-4.368q0-1.638-1.443-1.638a1.6 1.6 0 0 0-1.482.65 3.485 3.485 0 0 0-.4 1.833V0h-1.378v-9.88zm9.568 2.743a2.822 2.822 0 0 1 2.171.852 3.27 3.27 0 0 1 .793 2.32v.754h-4.706a2.406 2.406 0 0 0 .566 1.651A1.981 1.981 0 0 0-10-.988a5.29 5.29 0 0 0 1.2-.124 6.191 6.191 0 0 0 1.085-.37v1.144a4.9 4.9 0 0 1-1.06.358 6.363 6.363 0 0 1-1.274.11 3.853 3.853 0 0 1-1.794-.4 2.863 2.863 0 0 1-1.216-1.2 4.064 4.064 0 0 1-.436-1.976 4.567 4.567 0 0 1 .4-2 2.925 2.925 0 0 1 1.1-1.254 3.1 3.1 0 0 1 1.66-.437zm0 1.066a1.549 1.549 0 0 0-1.189.481 2.228 2.228 0 0 0-.526 1.365h3.3a2.231 2.231 0 0 0-.4-1.332 1.388 1.388 0 0 0-1.188-.514zM1 0H-.4v-8.073h-2.785v-1.209h6.968v1.209H1zm6.852-7.137a4.219 4.219 0 0 1 .767.065l-.143 1.287a2.689 2.689 0 0 0-.7-.091 1.958 1.958 0 0 0-.988.26 1.964 1.964 0 0 0-.734.747 2.329 2.329 0 0 0-.28 1.177V0h-1.38v-7.007h1.092l.182 1.248h.052a3.242 3.242 0 0 1 .871-.969 2.045 2.045 0 0 1 1.261-.409zm4.524 0a2.9 2.9 0 0 1 1.97.579A2.3 2.3 0 0 1 15-4.745V0h-.975l-.273-.975H13.7a3.131 3.131 0 0 1-.955.839 2.977 2.977 0 0 1-1.383.266 2.393 2.393 0 0 1-1.573-.514 1.96 1.96 0 0 1-.624-1.605 1.845 1.845 0 0 1 .812-1.631 4.72 4.72 0 0 1 2.477-.6l1.2-.039v-.39A1.413 1.413 0 0 0 13.3-5.74a1.418 1.418 0 0 0-.988-.319 3.39 3.39 0 0 0-1.027.156 6.979 6.979 0 0 0-.949.377l-.442-1a5.609 5.609 0 0 1 1.138-.436 5.091 5.091 0 0 1 1.344-.175zm1.261 3.77l-.936.026a3.086 3.086 0 0 0-1.658.4 1.143 1.143 0 0 0-.462.962.932.932 0 0 0 .325.793 1.359 1.359 0 0 0 .845.247 2.015 2.015 0 0 0 1.349-.452 1.685 1.685 0 0 0 .54-1.365zM19.942.13A3.2 3.2 0 0 1 17.6-.734a3.669 3.669 0 0 1-.884-2.723 4.478 4.478 0 0 1 .429-2.106 2.728 2.728 0 0 1 1.185-1.19 3.732 3.732 0 0 1 1.716-.384 4.936 4.936 0 0 1 1.1.117 3.823 3.823 0 0 1 .854.286l-.42 1.118q-.364-.13-.767-.24a2.945 2.945 0 0 0-.78-.11q-1.9 0-1.9 2.5a3 3 0 0 0 .468 1.82 1.615 1.615 0 0 0 1.378.624 3.739 3.739 0 0 0 1.027-.13 3.978 3.978 0 0 0 .834-.348v1.2a2.941 2.941 0 0 1-.819.325 4.788 4.788 0 0 1-1.079.105zm4.914-10.01v4.94q0 .26-.026.624t-.039.65h.039q.143-.195.4-.513t.448-.526l2.145-2.3h1.6L26.6-4l3 4h-1.624l-2.314-3.133-.806.676V0h-1.365v-9.88z" transform="translate(196 19)" fill="#4d4c4d"/><path id="Path_319" data-name="Path 319" d="M0 0h360v166H0z" transform="translate(16 27)" fill="url(#linear-gradient)"/><path id="Path_321" data-name="Path 321" class="cls-2" d="M-42.16-5.952A5.493 5.493 0 0 1-44.288-1.3a8.881 8.881 0 0 1-5.52 1.62 15.188 15.188 0 0 1-3.936-.5 8.4 8.4 0 0 1-2.944-1.32l.48-4.416 2.336.224-.064 2.592a7.283 7.283 0 0 0 2.032.72 10.891 10.891 0 0 0 1.936.176 6.829 6.829 0 0 0 3.344-.752 2.818 2.818 0 0 0 1.36-2.7 2.813 2.813 0 0 0-1.52-2.864 15.967 15.967 0 0 0-3.408-1.08 28.173 28.173 0 0 1-2.96-.8 5.464 5.464 0 0 1-2.432-1.584 4.713 4.713 0 0 1-.976-3.216 5.055 5.055 0 0 1 2.08-4.512 8.358 8.358 0 0 1 4.8-1.408 12.733 12.733 0 0 1 3.616.528 7.7 7.7 0 0 1 2.784 1.36l.192 4.256-2.336.224-.352-2.912a6.563 6.563 0 0 0-1.888-.7 9.311 9.311 0 0 0-1.824-.192 4.911 4.911 0 0 0-2.864.768 2.588 2.588 0 0 0-1.1 2.272 2.376 2.376 0 0 0 1.344 2.384 15.465 15.465 0 0 0 2.976 1.008q1.344.288 2.976.784a6.51 6.51 0 0 1 2.816 1.712 5.087 5.087 0 0 1 1.18 3.676zm15.46 1.728a4.858 4.858 0 0 1-1.824 3.2A6.554 6.554 0 0 1-32.88.32a6.924 6.924 0 0 1-5.02-1.856 7.136 7.136 0 0 1-1.92-5.376 8.371 8.371 0 0 1 1.792-5.5 6.074 6.074 0 0 1 4.96-2.176 5.823 5.823 0 0 1 4.568 1.82 6.517 6.517 0 0 1 1.664 4.416 9.311 9.311 0 0 1-.192 1.824h-9.852q.192 4.544 4.192 4.544a3.534 3.534 0 0 0 2.512-.8A3.939 3.939 0 0 0-29.04-4.7zm-3.04-4.192a4.246 4.246 0 0 0-.688-2.7 2.948 2.948 0 0 0-2.7-1.3 3.1 3.1 0 0 0-2.64 1.168 5.693 5.693 0 0 0-1.072 2.832zm16.128 4.384Q-14.224.32-18.416.32a4.723 4.723 0 0 1-3.44-1.2 4.453 4.453 0 0 1-1.232-3.344v-7.936H-25.3v-2.14h2.208v-4.512h2.792v4.512h5.472v2.144H-20.3v7.52q0 2.56 2.208 2.56a2.543 2.543 0 0 0 1.408-.464A3.161 3.161 0 0 0-15.7-4.7zm12.128 0Q-2.1.32-6.288.32a4.723 4.723 0 0 1-3.44-1.2 4.453 4.453 0 0 1-1.232-3.344v-7.936h-2.208v-2.14h2.208v-4.512h2.784v4.512H-2.7v2.144h-5.476v7.52q0 2.56 2.208 2.56a2.543 2.543 0 0 0 1.408-.468A3.161 3.161 0 0 0-3.568-4.7zm3.228-13.632v-3.3h2.912v3.3zM7.056 0H-.4v-2.176h2.336V-12.1H-.5v-2.2h5.252v12.124h2.3zM25.9 0h-7.42v-2.176h2.3v-6.176a4.554 4.554 0 0 0-.832-3.088 2.845 2.845 0 0 0-2.208-.912 3.625 3.625 0 0 0-2.84 1.184 4.283 4.283 0 0 0-1.12 2.752v6.24h2.3V0H8.656v-2.176h2.3V-12.1H8.56v-2.2h5.216v2.432a5.142 5.142 0 0 1 4.864-2.72 5.109 5.109 0 0 1 3.52 1.28 5.088 5.088 0 0 1 1.44 4v7.136h2.3zm17.54-12.1h-2.208V-.352a7.75 7.75 0 0 1-1.872 5.44 6.937 6.937 0 0 1-5.392 2.048 8.442 8.442 0 0 1-4.1-1.008 5.216 5.216 0 0 1-2.524-3.248l2.176-1.12a4.41 4.41 0 0 0 1.856 2.3 5.144 5.144 0 0 0 2.656.736 4.135 4.135 0 0 0 3.168-1.34 5.488 5.488 0 0 0 1.248-3.872v-2.4a6.047 6.047 0 0 1-1.824 2.08 5.261 5.261 0 0 1-3.168.864 6.006 6.006 0 0 1-4.368-1.776 6.927 6.927 0 0 1-1.808-5.168 9.5 9.5 0 0 1 1.6-5.36 5.4 5.4 0 0 1 4.832-2.416 4.981 4.981 0 0 1 4.736 2.528V-14.3h4.992zm-4.992 5.636V-8.32A3.776 3.776 0 0 0 37.3-11.2a3.908 3.908 0 0 0-2.784-1.088 3.52 3.52 0 0 0-3.136 1.52 6.579 6.579 0 0 0-1.024 3.76 5.2 5.2 0 0 0 1.1 3.648 3.555 3.555 0 0 0 2.7 1.184 3.843 3.843 0 0 0 3.076-1.344 4.732 4.732 0 0 0 1.216-2.944zM57.04-4.192a3.777 3.777 0 0 1-1.776 3.328A7.942 7.942 0 0 1 50.768.32a10.544 10.544 0 0 1-5.6-1.408l.448-3.456 2.208.224-.064 1.856a4.951 4.951 0 0 0 1.392.448 8.855 8.855 0 0 0 1.488.128 5.826 5.826 0 0 0 2.48-.512 1.681 1.681 0 0 0 1.1-1.6 1.52 1.52 0 0 0-.9-1.488 8.347 8.347 0 0 0-2.22-.656q-1.328-.224-2.64-.56a5.091 5.091 0 0 1-2.208-1.152 3.191 3.191 0 0 1-.9-2.48 3.421 3.421 0 0 1 1.776-3.328 8.07 8.07 0 0 1 3.792-.928 10.092 10.092 0 0 1 2.768.368 11.4 11.4 0 0 1 2.352.944l.32 3.456-2.24.256-.32-2.24a6.47 6.47 0 0 0-2.752-.608 3.831 3.831 0 0 0-1.952.448 1.571 1.571 0 0 0-.768 1.472 1.442 1.442 0 0 0 .88 1.408 8.137 8.137 0 0 0 2.176.624 25 25 0 0 1 2.592.56A5.019 5.019 0 0 1 56.16-6.72a3.324 3.324 0 0 1 .88 2.528z" transform="translate(196 121)"/><g filter="url(#Path_320)"><path id="Path_320-2" data-name="Path 320" class="cls-2" d="M22 0A22 22 0 1 1 0 22 22 22 0 0 1 22 0z" transform="translate(32 43)"/></g><path id="Path_73" data-name="Path 73" d="M0 0h20v20H0z" transform="translate(44 55)" fill="none"/><path id="Path_74" data-name="Path 74" d="M3 18h14v-2H3zm0-5h14v-2H3zm0-7v2h14V6z" transform="translate(44 53)" fill="#242424"/><g filter="url(#Path_322)"><path id="Path_322-2" data-name="Path 322" class="cls-2" d="M2 0h324a2 2 0 0 1 2 2v331a2 2 0 0 1-2 2H2a2 2 0 0 1-2-2V2a2 2 0 0 1 2-2z" transform="translate(32 145)"/></g><path id="Path_323" data-name="Path 323" d="M0 0h296" transform="translate(48.5 246.5)" stroke="#bebebe" fill="none"/><path id="Path_324" data-name="Path 324" d="M9.888-7.008l-1.536.128-.32-2H6v7.36h1.744V0h-5.2v-1.52h1.68v-7.36H2.176l-.32 2-1.52-.128.32-3.392h8.912zm8.464 1.136H17.6L15.2 0l-.8 2.064h1.056v1.344h-3.84V2.064h1.216l.7-2-2.54-5.936h-.784v-1.312h3.536v1.312h-.912L14.5-1.984h.1l1.344-3.888h-.824v-1.312h3.232zm8.688 2.1a4.784 4.784 0 0 1-.808 2.736A2.791 2.791 0 0 1 23.744.16a2.465 2.465 0 0 1-2.256-1.12v3.024h1.424v1.344H18.7V2.064h1.072v-7.936h-1.12v-1.312h2.832v1.424a3.1 3.1 0 0 1 .888-1.1 2.464 2.464 0 0 1 1.576-.464 2.884 2.884 0 0 1 2.232.936 3.734 3.734 0 0 1 .86 2.612zm-1.776.172a2.576 2.576 0 0 0-.528-1.752 1.711 1.711 0 0 0-1.344-.6 1.612 1.612 0 0 0-1.36.656A2.641 2.641 0 0 0 21.5-3.76l-.016.56a2 2 0 0 0 .52 1.44 1.767 1.767 0 0 0 1.336.544 1.7 1.7 0 0 0 1.416-.64 2.747 2.747 0 0 0 .508-1.744zm9.456 1.408a2.448 2.448 0 0 1-.928 1.648A3.432 3.432 0 0 1 31.5.16a3.674 3.674 0 0 1-2.576-.92 3.488 3.488 0 0 1-1.004-2.712 4.154 4.154 0 0 1 .92-2.752 3.159 3.159 0 0 1 2.568-1.1 3.157 3.157 0 0 1 2.36.888 3.132 3.132 0 0 1 .888 2.248 5.224 5.224 0 0 1-.1.96h-4.844q.144 2.016 1.92 2.016a1.537 1.537 0 0 0 1.192-.4 1.989 1.989 0 0 0 .472-.848zM32.9-4.288a1.856 1.856 0 0 0-.3-1.212 1.319 1.319 0 0 0-1.208-.568 1.393 1.393 0 0 0-1.168.512 2.529 2.529 0 0 0-.5 1.264zm6.64-2.368a7.013 7.013 0 0 1 1.424-.528 6.445 6.445 0 0 1 1.44-.144 3.108 3.108 0 0 1 1.976.608 2.175 2.175 0 0 1 .772 1.82v3.232q0 .64.528.64a1.4 1.4 0 0 0 .368-.064l.016.944a2.269 2.269 0 0 1-1.152.3 1.345 1.345 0 0 1-1.472-1.416V-1.3a3.409 3.409 0 0 1-.9 1.008 2.309 2.309 0 0 1-1.452.452 2.76 2.76 0 0 1-1.48-.46 1.728 1.728 0 0 1-.728-1.592 1.694 1.694 0 0 1 1.056-1.748 6.084 6.084 0 0 1 2.288-.424q.3 0 .624.016T43.44-4v-.4a2.846 2.846 0 0 0-.224-1.152q-.224-.512-1.12-.512a3.95 3.95 0 0 0-.632.048 1.835 1.835 0 0 0-.568.192l-.288 1.1-1.376-.144zm3.9 3.808V-3.1l-.56-.064a5.359 5.359 0 0 0-.592-.032 2.789 2.789 0 0 0-1.144.224.881.881 0 0 0-.5.9q0 .976 1.04.976a1.8 1.8 0 0 0 1.152-.44 1.756 1.756 0 0 0 .604-1.312zm11.44-.928a4.784 4.784 0 0 1-.808 2.736 2.791 2.791 0 0 1-2.488 1.2 2.465 2.465 0 0 1-2.256-1.12v3.024h1.424v1.344h-4.208V2.064h1.072v-7.936H46.5v-1.312h2.832v1.424a3.1 3.1 0 0 1 .888-1.1 2.464 2.464 0 0 1 1.576-.464 2.884 2.884 0 0 1 2.232.936 3.734 3.734 0 0 1 .852 2.612zM53.1-3.6a2.576 2.576 0 0 0-.528-1.752 1.711 1.711 0 0 0-1.344-.6 1.612 1.612 0 0 0-1.36.656 2.641 2.641 0 0 0-.528 1.536l-.016.56a2 2 0 0 0 .52 1.44 1.767 1.767 0 0 0 1.336.544 1.7 1.7 0 0 0 1.416-.64A2.747 2.747 0 0 0 53.1-3.6zm10.784-.176a4.784 4.784 0 0 1-.804 2.736 2.791 2.791 0 0 1-2.488 1.2 2.465 2.465 0 0 1-2.256-1.12v3.024h1.424v1.344h-4.208V2.064h1.072v-7.936H55.5v-1.312h2.832v1.424a3.1 3.1 0 0 1 .888-1.1 2.464 2.464 0 0 1 1.58-.468 2.884 2.884 0 0 1 2.232.936 3.734 3.734 0 0 1 .856 2.616zm-1.772.176a2.576 2.576 0 0 0-.528-1.752 1.711 1.711 0 0 0-1.344-.6 1.612 1.612 0 0 0-1.36.656 2.641 2.641 0 0 0-.528 1.536l-.016.56a2 2 0 0 0 .52 1.44 1.767 1.767 0 0 0 1.336.544 1.7 1.7 0 0 0 1.416-.64 2.747 2.747 0 0 0 .504-1.744zM76.768 0h-3.84v-1.312h1.056v-2.816a2.219 2.219 0 0 0-.368-1.448A1.284 1.284 0 0 0 72.592-6a1.64 1.64 0 0 0-1.288.528 1.938 1.938 0 0 0-.488 1.3v2.864h1.072V0h-3.856v-1.312H69.1v-4.544h-1.12v-1.328h2.832v1.168A2.548 2.548 0 0 1 73.2-7.328a2.632 2.632 0 0 1 1.76.624 2.42 2.42 0 0 1 .74 1.952v3.44h1.072zm1.344-6.656a7.013 7.013 0 0 1 1.424-.528 6.445 6.445 0 0 1 1.44-.144 3.108 3.108 0 0 1 1.976.608 2.175 2.175 0 0 1 .776 1.82v3.232q0 .64.528.64a1.4 1.4 0 0 0 .368-.064l.016.944a2.269 2.269 0 0 1-1.152.3 1.345 1.345 0 0 1-1.472-1.424V-1.3a3.408 3.408 0 0 1-.9 1.008 2.309 2.309 0 0 1-1.452.452 2.76 2.76 0 0 1-1.48-.46 1.728 1.728 0 0 1-.728-1.592 1.694 1.694 0 0 1 1.056-1.748 6.084 6.084 0 0 1 2.288-.424q.3 0 .624.016t.592.048v-.4a2.846 2.846 0 0 0-.224-1.152q-.224-.512-1.12-.512a3.95 3.95 0 0 0-.632.048 1.835 1.835 0 0 0-.568.192l-.288 1.1-1.376-.144zm3.9 3.808V-3.1l-.56-.064a5.359 5.359 0 0 0-.592-.032 2.789 2.789 0 0 0-1.144.224.881.881 0 0 0-.5.9q0 .976 1.04.976a1.8 1.8 0 0 0 1.152-.44 1.756 1.756 0 0 0 .608-1.312zM98.656 0h-3.168v-1.312h.4v-2.816a2.256 2.256 0 0 0-.36-1.448A1.26 1.26 0 0 0 94.512-6a1.393 1.393 0 0 0-1.24.576 2.372 2.372 0 0 0-.408 1.312v2.8h1.072V0h-3.168v-1.312h.384v-2.816a2.256 2.256 0 0 0-.36-1.448 1.241 1.241 0 0 0-1-.424 1.4 1.4 0 0 0-1.232.568 2.3 2.3 0 0 0-.416 1.3v2.816h1.344V0H85.36v-1.312h1.072v-4.544h-1.056v-1.328h2.768V-6a2.763 2.763 0 0 1 .9-.96 2.422 2.422 0 0 1 1.36-.368 2.7 2.7 0 0 1 1.44.392 2.087 2.087 0 0 1 .9 1.224 2.791 2.791 0 0 1 .928-1.176 2.47 2.47 0 0 1 1.488-.44 2.567 2.567 0 0 1 1.712.624 2.42 2.42 0 0 1 .728 1.952v3.44h1.056zm7.408-2.192a2.448 2.448 0 0 1-.928 1.648 3.432 3.432 0 0 1-2.288.7 3.673 3.673 0 0 1-2.576-.92 3.488 3.488 0 0 1-1.008-2.712 4.154 4.154 0 0 1 .92-2.752 3.159 3.159 0 0 1 2.568-1.1 3.157 3.157 0 0 1 2.36.888A3.132 3.132 0 0 1 106-4.192a5.224 5.224 0 0 1-.1.96h-4.848q.144 2.016 1.92 2.016a1.537 1.537 0 0 0 1.192-.4 1.989 1.989 0 0 0 .472-.848zm-1.824-2.1a1.856 1.856 0 0 0-.3-1.208 1.319 1.319 0 0 0-1.208-.568 1.393 1.393 0 0 0-1.168.512 2.529 2.529 0 0 0-.5 1.264zm13.36.7a3.607 3.607 0 0 1-1.064 2.712 3.8 3.8 0 0 1-2.76 1.04 3.6 3.6 0 0 1-2.648-.992 3.616 3.616 0 0 1-1-2.688 4.065 4.065 0 0 1 .944-2.7 3.444 3.444 0 0 1 2.8-1.128 3.427 3.427 0 0 1 2.8 1.12 4.009 4.009 0 0 1 .928 2.644zm-1.776-.048a2.532 2.532 0 0 0-.552-1.76 1.845 1.845 0 0 0-1.432-.6 1.713 1.713 0 0 0-1.424.648 2.723 2.723 0 0 0-.512 1.736 2.959 2.959 0 0 0 .488 1.728 1.647 1.647 0 0 0 1.448.7 1.741 1.741 0 0 0 1.456-.68 2.8 2.8 0 0 0 .528-1.764zm7.04-3.664a2.445 2.445 0 0 1 1.344.4l.3 2.24-1.328.16-.272-1.232a1.269 1.269 0 0 0-.544-.16 1.008 1.008 0 0 0-.776.368 1.486 1.486 0 0 0-.328 1.024v3.184h1.424V0h-4.204v-1.312h1.072v-4.544h-1.12v-1.328h2.7v1.344a2.5 2.5 0 0 1 .616-1.032 1.5 1.5 0 0 1 1.116-.428zm13.5 7.3h-3.584v-1.308h.832l-1.5-1.792h-1.152v1.792h.8V0h-3.584v-1.312h1.072V-9.7h-1.136v-1.312h2.848v6.672h1.232l1.264-1.52h-.944v-1.324h3.5v1.328h-.9l-1.7 1.984 2.176 2.56h.768zm7.28-2.192a2.448 2.448 0 0 1-.928 1.648 3.432 3.432 0 0 1-2.288.7 3.674 3.674 0 0 1-2.576-.92 3.488 3.488 0 0 1-1.008-2.712 4.154 4.154 0 0 1 .92-2.752 3.159 3.159 0 0 1 2.568-1.1 3.157 3.157 0 0 1 2.36.888 3.132 3.132 0 0 1 .888 2.248 5.224 5.224 0 0 1-.1.96h-4.84q.144 2.016 1.92 2.016a1.537 1.537 0 0 0 1.192-.4 1.989 1.989 0 0 0 .472-.848zm-1.824-2.1a1.856 1.856 0 0 0-.3-1.208 1.319 1.319 0 0 0-1.208-.568 1.393 1.393 0 0 0-1.168.512 2.529 2.529 0 0 0-.5 1.264zm10.208-1.584h-.752L148.88 0l-.8 2.064h1.056v1.344H145.3V2.064h1.216l.7-2-2.544-5.936h-.784v-1.312h3.536v1.312h-.912l1.664 3.888h.1l1.344-3.888h-.82v-1.312h3.232zm12.192 0h-.72L161.488 0h-1.28l-1.984-4.736h-.08L156.272 0h-1.216l-2.064-5.872h-.7v-1.312h3.648v1.312h-1.12l1.1 3.456h.1l1.84-4.768h1.056l2.064 4.72h.1l.864-3.408h-1.072v-1.312h3.36zm7.824 2.288A3.607 3.607 0 0 1 170.98-.88a3.8 3.8 0 0 1-2.756 1.04 3.6 3.6 0 0 1-2.648-.992 3.616 3.616 0 0 1-1-2.688 4.065 4.065 0 0 1 .944-2.7 3.444 3.444 0 0 1 2.8-1.128 3.427 3.427 0 0 1 2.8 1.12 4.009 4.009 0 0 1 .928 2.644zm-1.776-.048a2.532 2.532 0 0 0-.552-1.76 1.845 1.845 0 0 0-1.428-.6 1.713 1.713 0 0 0-1.424.648 2.723 2.723 0 0 0-.512 1.736 2.959 2.959 0 0 0 .488 1.728 1.647 1.647 0 0 0 1.448.7 1.741 1.741 0 0 0 1.456-.68 2.8 2.8 0 0 0 .528-1.764zm7.04-3.664a2.445 2.445 0 0 1 1.344.4l.3 2.24-1.328.16-.272-1.232a1.269 1.269 0 0 0-.544-.16 1.008 1.008 0 0 0-.776.368 1.486 1.486 0 0 0-.328 1.024v3.184h1.424V0h-4.208v-1.312H174v-4.544h-1.12v-1.328h2.7v1.344a2.5 2.5 0 0 1 .616-1.032 1.5 1.5 0 0 1 1.116-.428zM188.16 0h-2.768v-1.376a3.164 3.164 0 0 1-.92 1.08A2.537 2.537 0 0 1 182.9.16a2.789 2.789 0 0 1-2.232-.96 3.922 3.922 0 0 1-.824-2.64 4.811 4.811 0 0 1 .776-2.712 2.713 2.713 0 0 1 2.44-1.176 2.778 2.778 0 0 1 1.432.344 2.414 2.414 0 0 1 .9.92V-9.7h-1.552v-1.312h3.26v9.7h1.056zm-2.768-3.456V-4a1.977 1.977 0 0 0-.544-1.424 1.762 1.762 0 0 0-1.3-.528 1.73 1.73 0 0 0-1.4.648 2.691 2.691 0 0 0-.536 1.768 2.493 2.493 0 0 0 .536 1.728 1.678 1.678 0 0 0 1.288.592 1.661 1.661 0 0 0 1.408-.72 2.622 2.622 0 0 0 .548-1.52z" transform="translate(49 241)" opacity=".1" fill="#363636"/><g filter="url(#Path_325)"><path id="Path_325-2" data-name="Path 325" class="cls-2" d="M15 0h59a15 15 0 0 1 0 30H15a15 15 0 0 1 0-30z" transform="translate(48 279)"/></g><path id="Path_326" data-name="Path 326" class="cls-16" d="M4.844-6.412H2.982V0H1.5v-6.412H.224v-.7L1.5-7.574v-.476a2.68 2.68 0 0 1 .663-2.05 2.645 2.645 0 0 1 1.855-.609 4.43 4.43 0 0 1 .9.084 5.462 5.462 0 0 1 .686.182L5.222-9.31q-.238-.07-.532-.133a2.865 2.865 0 0 0-.6-.063q-1.106 0-1.106 1.47v.49h1.86zm4.242-1.274a3.128 3.128 0 0 1 2.121.623 2.473 2.473 0 0 1 .707 1.953V0h-1.05l-.294-1.05h-.056a3.372 3.372 0 0 1-1.029.9 3.206 3.206 0 0 1-1.491.29A2.578 2.578 0 0 1 6.3-.413a2.111 2.111 0 0 1-.672-1.729A1.987 1.987 0 0 1 6.5-3.9a5.083 5.083 0 0 1 2.67-.65l1.288-.042v-.42a1.522 1.522 0 0 0-.378-1.169 1.527 1.527 0 0 0-1.064-.343 3.651 3.651 0 0 0-1.106.168 7.515 7.515 0 0 0-1.022.406l-.476-1.078A6.041 6.041 0 0 1 7.637-7.5a5.483 5.483 0 0 1 1.449-.186zm1.358 4.06L9.436-3.6a3.323 3.323 0 0 0-1.785.434 1.231 1.231 0 0 0-.5 1.036 1 1 0 0 0 .35.854 1.463 1.463 0 0 0 .91.266 2.17 2.17 0 0 0 1.452-.49 1.815 1.815 0 0 0 .581-1.47zM17.234.14a3.449 3.449 0 0 1-2.52-.931 3.952 3.952 0 0 1-.952-2.933 4.823 4.823 0 0 1 .462-2.268A2.938 2.938 0 0 1 15.5-7.273a4.019 4.019 0 0 1 1.848-.413 5.316 5.316 0 0 1 1.183.126 4.117 4.117 0 0 1 .917.308L19-6.048q-.392-.14-.826-.259a3.172 3.172 0 0 0-.84-.119q-2.044 0-2.044 2.688a3.231 3.231 0 0 0 .5 1.96 1.739 1.739 0 0 0 1.484.672 4.027 4.027 0 0 0 1.106-.14 4.284 4.284 0 0 0 .9-.364v1.288a3.167 3.167 0 0 1-.882.35 5.156 5.156 0 0 1-1.164.112zm6.79-7.826a3.039 3.039 0 0 1 2.338.917 3.522 3.522 0 0 1 .854 2.5v.812h-5.068a2.591 2.591 0 0 0 .609 1.778 2.134 2.134 0 0 0 1.631.616 5.7 5.7 0 0 0 1.3-.133 6.667 6.667 0 0 0 1.169-.4v1.232A5.275 5.275 0 0 1 25.7.021a6.852 6.852 0 0 1-1.368.119A4.15 4.15 0 0 1 22.4-.294a3.083 3.083 0 0 1-1.309-1.288 4.377 4.377 0 0 1-.469-2.128 4.919 4.919 0 0 1 .427-2.156 3.15 3.15 0 0 1 1.19-1.351 3.34 3.34 0 0 1 1.785-.469zm0 1.148a1.669 1.669 0 0 0-1.281.518 2.4 2.4 0 0 0-.567 1.47h3.556a2.4 2.4 0 0 0-.427-1.435 1.494 1.494 0 0 0-1.281-.553zm6.524-4.1v2.562q0 .448-.021.875t-.049.651h.07a2.655 2.655 0 0 1 .868-.8 2.758 2.758 0 0 1 1.414-.322 2.735 2.735 0 0 1 2.191.98 4.4 4.4 0 0 1 .833 2.912 4.425 4.425 0 0 1-.84 2.933 2.748 2.748 0 0 1-2.2.987 2.768 2.768 0 0 1-1.407-.315 2.829 2.829 0 0 1-.861-.749h-.112L30.156 0h-1.092v-10.64zm1.932 4.17a1.659 1.659 0 0 0-1.5.637 3.676 3.676 0 0 0-.434 1.953v.112a3.937 3.937 0 0 0 .413 1.995 1.649 1.649 0 0 0 1.547.693 1.52 1.52 0 0 0 1.365-.7 3.706 3.706 0 0 0 .455-2.016q.002-2.674-1.846-2.674zM44.394-3.78a4.056 4.056 0 0 1-.966 2.9A3.413 3.413 0 0 1 40.824.14a3.57 3.57 0 0 1-1.813-.455 3.185 3.185 0 0 1-1.246-1.33 4.583 4.583 0 0 1-.455-2.135 4.067 4.067 0 0 1 .952-2.891 3.4 3.4 0 0 1 2.6-1.015 3.6 3.6 0 0 1 1.827.455 3.194 3.194 0 0 1 1.246 1.323 4.54 4.54 0 0 1 .459 2.128zm-5.558 0a3.517 3.517 0 0 0 .483 1.988 1.718 1.718 0 0 0 1.533.714 1.718 1.718 0 0 0 1.533-.714 3.517 3.517 0 0 0 .483-1.988 3.441 3.441 0 0 0-.483-1.981 1.753 1.753 0 0 0-1.547-.693 1.719 1.719 0 0 0-1.526.693 3.48 3.48 0 0 0-.476 1.981zm14.084 0a4.056 4.056 0 0 1-.966 2.9A3.413 3.413 0 0 1 49.35.14a3.57 3.57 0 0 1-1.813-.455 3.185 3.185 0 0 1-1.246-1.33 4.583 4.583 0 0 1-.455-2.135 4.067 4.067 0 0 1 .952-2.891 3.4 3.4 0 0 1 2.6-1.015 3.6 3.6 0 0 1 1.827.455 3.194 3.194 0 0 1 1.246 1.323 4.54 4.54 0 0 1 .459 2.128zm-5.558 0a3.517 3.517 0 0 0 .483 1.988 1.718 1.718 0 0 0 1.533.714 1.718 1.718 0 0 0 1.533-.714 3.517 3.517 0 0 0 .483-1.988 3.441 3.441 0 0 0-.483-1.981 1.753 1.753 0 0 0-1.547-.693 1.719 1.719 0 0 0-1.526.693 3.48 3.48 0 0 0-.476 1.981zm8.9-6.86v5.32q0 .28-.028.672t-.042.7h.042q.154-.21.427-.553t.483-.567l2.31-2.478h1.726l-3.038 3.234L61.376 0h-1.75l-2.492-3.374-.868.728V0H54.8v-10.64z" transform="translate(62 300)"/><g filter="url(#Path_327)"><path id="Path_327-2" data-name="Path 327" class="cls-2" d="M15 0h38a15 15 0 0 1 0 30H15a15 15 0 0 1 0-30z" transform="translate(117 317)"/></g><path id="Path_328" data-name="Path 328" class="cls-16" d="M4.886-7.686a4.544 4.544 0 0 1 .826.07L5.558-6.23a2.9 2.9 0 0 0-.756-.1 2.108 2.108 0 0 0-1.064.28 2.115 2.115 0 0 0-.791.805 2.508 2.508 0 0 0-.3 1.267V0H1.162v-7.546h1.176l.2 1.344h.052a3.492 3.492 0 0 1 .938-1.043 2.2 2.2 0 0 1 1.358-.441zm4.914 0a3.039 3.039 0 0 1 2.338.917 3.522 3.522 0 0 1 .854 2.5v.812H7.924a2.591 2.591 0 0 0 .609 1.777 2.134 2.134 0 0 0 1.631.616 5.7 5.7 0 0 0 1.3-.133 6.667 6.667 0 0 0 1.169-.4v1.233a5.275 5.275 0 0 1-1.153.385 6.852 6.852 0 0 1-1.372.119 4.15 4.15 0 0 1-1.932-.434 3.083 3.083 0 0 1-1.309-1.288A4.377 4.377 0 0 1 6.4-3.71a4.919 4.919 0 0 1 .427-2.156 3.15 3.15 0 0 1 1.19-1.351A3.34 3.34 0 0 1 9.8-7.686zm0 1.148a1.669 1.669 0 0 0-1.281.518 2.4 2.4 0 0 0-.567 1.47h3.556a2.4 2.4 0 0 0-.427-1.435A1.494 1.494 0 0 0 9.8-6.538zM17.43.14a2.73 2.73 0 0 1-2.2-.98 4.423 4.423 0 0 1-.826-2.912 4.454 4.454 0 0 1 .84-2.94 2.754 2.754 0 0 1 2.212-.994 2.727 2.727 0 0 1 1.4.322 2.88 2.88 0 0 1 .882.784h.084q-.028-.2-.07-.574a6.063 6.063 0 0 1-.042-.658v-2.828h1.49V0h-1.166l-.252-1.008h-.07a2.8 2.8 0 0 1-.868.812A2.665 2.665 0 0 1 17.43.14zm.35-1.218a1.778 1.778 0 0 0 1.533-.6 3.17 3.17 0 0 0 .455-1.834v-.224a3.936 3.936 0 0 0-.427-2.03 1.693 1.693 0 0 0-1.575-.7 1.52 1.52 0 0 0-1.372.728 3.748 3.748 0 0 0-.462 2.016 3.5 3.5 0 0 0 .462 1.96 1.56 1.56 0 0 0 1.386.684zM26.11.14a2.73 2.73 0 0 1-2.2-.98 4.423 4.423 0 0 1-.826-2.912 4.454 4.454 0 0 1 .84-2.94 2.754 2.754 0 0 1 2.212-.994 2.727 2.727 0 0 1 1.4.322 2.88 2.88 0 0 1 .882.784h.082q-.028-.2-.07-.574a6.063 6.063 0 0 1-.042-.658v-2.828h1.484V0h-1.158l-.252-1.008h-.07a2.8 2.8 0 0 1-.868.812A2.665 2.665 0 0 1 26.11.14zm.35-1.218a1.778 1.778 0 0 0 1.533-.6 3.17 3.17 0 0 0 .455-1.834v-.224a3.937 3.937 0 0 0-.427-2.03 1.693 1.693 0 0 0-1.575-.7 1.52 1.52 0 0 0-1.372.728 3.748 3.748 0 0 0-.462 2.016 3.5 3.5 0 0 0 .462 1.96 1.56 1.56 0 0 0 1.386.684zm6.5-9.338a.93.93 0 0 1 .588.2.784.784 0 0 1 .252.658.787.787 0 0 1-.252.651.91.91 0 0 1-.588.2.93.93 0 0 1-.6-.2.787.787 0 0 1-.252-.651.784.784 0 0 1 .252-.658.951.951 0 0 1 .596-.2zm.728 2.87V0H32.2v-7.546zm5.04 6.482a3.323 3.323 0 0 0 1.134-.182v1.12a2.759 2.759 0 0 1-.644.189A4.349 4.349 0 0 1 38.4.14a2.938 2.938 0 0 1-1.127-.21 1.689 1.689 0 0 1-.817-.73 2.83 2.83 0 0 1-.308-1.442v-4.17H35.1v-.672l1.106-.56.518-1.6h.91v1.694h2.156v1.134h-2.158v4.144a1.222 1.222 0 0 0 .3.91 1.084 1.084 0 0 0 .792.298z" transform="translate(131 338)"/><g filter="url(#Path_329)"><path id="Path_329-2" data-name="Path 329" class="cls-2" d="M15 0h43a15 15 0 0 1 0 30H15a15 15 0 0 1 0-30z" transform="translate(145 279)"/></g><path id="Path_330" data-name="Path 330" class="cls-16" d="M3.878-1.064a3.323 3.323 0 0 0 1.134-.182v1.12a2.759 2.759 0 0 1-.644.189 4.349 4.349 0 0 1-.812.077 2.938 2.938 0 0 1-1.127-.21A1.689 1.689 0 0 1 1.61-.8a2.83 2.83 0 0 1-.31-1.44v-4.172H.252v-.672l1.106-.56.518-1.6h.91v1.694h2.156v1.134H2.786v4.144a1.222 1.222 0 0 0 .3.91 1.084 1.084 0 0 0 .792.298zM12.7-.014L11.62-3.78l-.22-.833q-.126-.469-.224-.9t-.154-.665h-.056q-.042.238-.14.665t-.217.9q-.119.469-.231.847L9.254-.014H7.6L5.516-7.56h1.512l.98 3.822q.154.588.287 1.253t.189 1.071h.056q.042-.238.119-.637t.168-.791q.091-.392.175-.644l1.2-4.074h1.628l1.176 4.074q.084.28.182.665t.175.763q.077.378.1.63h.056q.028-.224.1-.616t.175-.84q.1-.448.2-.854l1.014-3.822h1.5L14.392-.014zm5.88-10.4a.93.93 0 0 1 .588.2.784.784 0 0 1 .252.658.787.787 0 0 1-.252.651.91.91 0 0 1-.588.2.93.93 0 0 1-.6-.2.787.787 0 0 1-.252-.651.784.784 0 0 1 .252-.658.951.951 0 0 1 .598-.202zm.728 2.87V0h-1.486v-7.546zm5.04 6.482a3.323 3.323 0 0 0 1.134-.182v1.12a2.759 2.759 0 0 1-.644.189 4.349 4.349 0 0 1-.812.077A2.938 2.938 0 0 1 22.9-.07a1.689 1.689 0 0 1-.822-.73 2.83 2.83 0 0 1-.308-1.44v-4.172h-1.05v-.672l1.106-.56.518-1.6h.91v1.694h2.156v1.134h-2.156v4.144a1.222 1.222 0 0 0 .3.91 1.084 1.084 0 0 0 .792.298zm5.362 0a3.323 3.323 0 0 0 1.134-.182v1.12a2.759 2.759 0 0 1-.644.187 4.349 4.349 0 0 1-.812.077 2.938 2.938 0 0 1-1.127-.21 1.689 1.689 0 0 1-.821-.73 2.83 2.83 0 0 1-.308-1.442v-4.17h-1.05v-.672l1.106-.56.518-1.6h.91v1.694h2.156v1.134h-2.156v4.144a1.222 1.222 0 0 0 .3.91 1.084 1.084 0 0 0 .792.298zm5.614-6.622a3.039 3.039 0 0 1 2.338.917 3.522 3.522 0 0 1 .854 2.5v.812h-5.07a2.591 2.591 0 0 0 .609 1.778 2.134 2.134 0 0 0 1.631.616 5.7 5.7 0 0 0 1.295-.139 6.667 6.667 0 0 0 1.169-.4v1.236A5.275 5.275 0 0 1 37 .021a6.852 6.852 0 0 1-1.37.119 4.15 4.15 0 0 1-1.93-.434 3.083 3.083 0 0 1-1.309-1.288 4.377 4.377 0 0 1-.471-2.128 4.919 4.919 0 0 1 .427-2.156 3.15 3.15 0 0 1 1.19-1.351 3.34 3.34 0 0 1 1.785-.469zm0 1.148a1.669 1.669 0 0 0-1.281.518 2.4 2.4 0 0 0-.567 1.47h3.554a2.4 2.4 0 0 0-.43-1.437 1.494 1.494 0 0 0-1.278-.553zm8.764-1.148a4.544 4.544 0 0 1 .826.07l-.156 1.384a2.9 2.9 0 0 0-.756-.1 2.108 2.108 0 0 0-1.064.28 2.115 2.115 0 0 0-.791.805 2.508 2.508 0 0 0-.3 1.267V0h-1.485v-7.546h1.176l.2 1.344h.056a3.492 3.492 0 0 1 .938-1.043 2.2 2.2 0 0 1 1.354-.441z" transform="translate(159 300)"/><g filter="url(#Path_331)"><path id="Path_331-2" data-name="Path 331" class="cls-2" d="M15 0h30a15 15 0 0 1 0 30H15a15 15 0 0 1 0-30z" transform="translate(49 317)"/></g><path id="Path_332" data-name="Path 332" class="cls-16" d="M6.174-2.128a1.947 1.947 0 0 1-.805 1.694A3.847 3.847 0 0 1 3.108.14 7.156 7.156 0 0 1 1.743.028 4.1 4.1 0 0 1 .7-.322v-1.3a7.1 7.1 0 0 0 1.155.422 4.726 4.726 0 0 0 1.295.189 2.124 2.124 0 0 0 1.211-.266.835.835 0 0 0 .371-.714.783.783 0 0 0-.14-.455 1.574 1.574 0 0 0-.525-.42 8.611 8.611 0 0 0-1.127-.5 8.234 8.234 0 0 1-1.225-.574 2.271 2.271 0 0 1-.763-.7 1.829 1.829 0 0 1-.266-1.016 1.7 1.7 0 0 1 .791-1.505 3.728 3.728 0 0 1 2.093-.525 5.768 5.768 0 0 1 1.295.14 6.634 6.634 0 0 1 1.183.392l-.49 1.134a8.327 8.327 0 0 0-1.008-.357 3.828 3.828 0 0 0-1.05-.147q-1.372 0-1.372.8a.705.705 0 0 0 .161.462 1.7 1.7 0 0 0 .56.392q.4.2 1.113.476a8.587 8.587 0 0 1 1.183.553 2.209 2.209 0 0 1 .763.693 1.829 1.829 0 0 1 .266 1.02zm5.586-5.558a2.835 2.835 0 0 1 2.016.658 2.787 2.787 0 0 1 .7 2.114V0h-1.47v-4.7q0-1.764-1.554-1.764a1.743 1.743 0 0 0-1.589.686 3.661 3.661 0 0 0-.441 1.974V0H7.938v-7.546h1.176l.21 1.008h.084a2.184 2.184 0 0 1 1-.868 3.32 3.32 0 0 1 1.352-.28zm7.924 0a3.128 3.128 0 0 1 2.121.623 2.473 2.473 0 0 1 .707 1.953V0h-1.05l-.294-1.05h-.056a3.372 3.372 0 0 1-1.029.9 3.206 3.206 0 0 1-1.491.29A2.578 2.578 0 0 1 16.9-.413a2.111 2.111 0 0 1-.672-1.729A1.987 1.987 0 0 1 17.1-3.9a5.083 5.083 0 0 1 2.667-.651l1.288-.042v-.42a1.522 1.522 0 0 0-.378-1.169 1.527 1.527 0 0 0-1.064-.343 3.651 3.651 0 0 0-1.106.168 7.515 7.515 0 0 0-1.022.406l-.475-1.077a6.041 6.041 0 0 1 1.225-.472 5.483 5.483 0 0 1 1.449-.186zm1.358 4.06l-1.008.026a3.323 3.323 0 0 0-1.785.434 1.231 1.231 0 0 0-.5 1.036 1 1 0 0 0 .35.854 1.463 1.463 0 0 0 .91.266 2.17 2.17 0 0 0 1.449-.49 1.815 1.815 0 0 0 .581-1.47zm7.518-4.06a2.73 2.73 0 0 1 2.2.98 4.448 4.448 0 0 1 .826 2.926 4.434 4.434 0 0 1-.84 2.919 2.731 2.731 0 0 1-2.2 1 2.776 2.776 0 0 1-1.4-.315 2.8 2.8 0 0 1-.868-.749h-.1q.028.252.063.6a6.074 6.074 0 0 1 .035.609V3.36h-1.482V-7.546H26l.21 1.008h.07a2.823 2.823 0 0 1 .861-.812 2.658 2.658 0 0 1 1.419-.336zm-.35 1.218a1.706 1.706 0 0 0-1.484.6 3.24 3.24 0 0 0-.448 1.848v.224a3.957 3.957 0 0 0 .42 2.016 1.645 1.645 0 0 0 1.54.7 1.487 1.487 0 0 0 1.372-.756 3.84 3.84 0 0 0 .448-1.974 3.6 3.6 0 0 0-.458-1.944 1.537 1.537 0 0 0-1.39-.714z" transform="translate(63 338)"/><g filter="url(#Path_333)"><path id="Path_333-2" data-name="Path 333" class="cls-2" d="M15 0h66a15 15 0 0 1 0 30H15a15 15 0 0 1 0-30z" transform="translate(226 279)"/></g><path id="Path_334" data-name="Path 334" class="cls-16" d="M1.918-10.416a.93.93 0 0 1 .588.2.784.784 0 0 1 .252.658.787.787 0 0 1-.252.651.91.91 0 0 1-.588.2.93.93 0 0 1-.6-.2.787.787 0 0 1-.252-.651.784.784 0 0 1 .252-.658.951.951 0 0 1 .6-.2zm.728 2.87V0H1.162v-7.546zm6.146-.14a2.835 2.835 0 0 1 2.016.658 2.787 2.787 0 0 1 .7 2.114V0h-1.47v-4.7q0-1.764-1.554-1.764a1.743 1.743 0 0 0-1.584.682 3.661 3.661 0 0 0-.441 1.974V0H4.97v-7.546h1.176l.21 1.008h.084a2.184 2.184 0 0 1 1-.868 3.32 3.32 0 0 1 1.352-.28zM18.8-2.128A1.947 1.947 0 0 1 18-.434a3.847 3.847 0 0 1-2.264.574 7.156 7.156 0 0 1-1.365-.112 4.1 4.1 0 0 1-1.043-.35v-1.3a7.1 7.1 0 0 0 1.155.427 4.726 4.726 0 0 0 1.3.189 2.124 2.124 0 0 0 1.211-.266.835.835 0 0 0 .371-.714.783.783 0 0 0-.14-.455 1.574 1.574 0 0 0-.525-.42 8.611 8.611 0 0 0-1.127-.5 8.234 8.234 0 0 1-1.225-.574 2.271 2.271 0 0 1-.763-.7 1.829 1.829 0 0 1-.266-1.022 1.7 1.7 0 0 1 .791-1.505 3.728 3.728 0 0 1 2.09-.524 5.768 5.768 0 0 1 1.3.14 6.634 6.634 0 0 1 1.183.392l-.49 1.134a8.327 8.327 0 0 0-1.008-.357 3.828 3.828 0 0 0-1.05-.147q-1.372 0-1.372.8a.705.705 0 0 0 .161.462 1.7 1.7 0 0 0 .56.392q.4.2 1.113.476a8.587 8.587 0 0 1 1.183.553 2.209 2.209 0 0 1 .763.693 1.829 1.829 0 0 1 .257 1.02zm4.48 1.064a3.323 3.323 0 0 0 1.134-.182v1.12a2.759 2.759 0 0 1-.644.189 4.349 4.349 0 0 1-.81.077 2.938 2.938 0 0 1-1.127-.21 1.689 1.689 0 0 1-.819-.73 2.83 2.83 0 0 1-.308-1.442v-4.17h-1.05v-.672l1.106-.56.518-1.6h.91v1.694h2.156v1.134H22.19v4.144a1.222 1.222 0 0 0 .3.91 1.084 1.084 0 0 0 .792.298zm5.572-6.622a3.128 3.128 0 0 1 2.121.623 2.473 2.473 0 0 1 .707 1.953V0h-1.05l-.294-1.05h-.056a3.372 3.372 0 0 1-1.029.9 3.206 3.206 0 0 1-1.489.29 2.578 2.578 0 0 1-1.694-.553 2.111 2.111 0 0 1-.668-1.729 1.987 1.987 0 0 1 .871-1.758 5.083 5.083 0 0 1 2.667-.651l1.288-.042v-.42a1.522 1.522 0 0 0-.378-1.169 1.527 1.527 0 0 0-1.064-.343 3.651 3.651 0 0 0-1.106.168 7.515 7.515 0 0 0-1.022.406l-.476-1.077a6.041 6.041 0 0 1 1.225-.472 5.483 5.483 0 0 1 1.449-.186zm1.358 4.06L29.2-3.6a3.323 3.323 0 0 0-1.785.434 1.231 1.231 0 0 0-.5 1.036 1 1 0 0 0 .35.854 1.463 1.463 0 0 0 .91.266 2.17 2.17 0 0 0 1.449-.49 1.815 1.815 0 0 0 .581-1.47zm6.356-4.06a3.023 3.023 0 0 1 1.316.28 2.555 2.555 0 0 1 .994.854h.07l.168-.994h1.2V.1q0 3.262-3.486 3.262a9.319 9.319 0 0 1-1.5-.112 5.663 5.663 0 0 1-1.26-.35V1.6a5.267 5.267 0 0 0 1.309.441 7.665 7.665 0 0 0 1.533.147 1.891 1.891 0 0 0 1.421-.525A2.029 2.029 0 0 0 38.85.182V-.07q0-.182.014-.476t.028-.448h-.056a2.406 2.406 0 0 1-.959.861 2.983 2.983 0 0 1-1.309.273 2.676 2.676 0 0 1-2.233-1.029 4.541 4.541 0 0 1-.805-2.863 4.64 4.64 0 0 1 .805-2.877 2.649 2.649 0 0 1 2.233-1.057zm.308 1.232a1.532 1.532 0 0 0-1.351.693 3.612 3.612 0 0 0-.469 2.023 3.545 3.545 0 0 0 .469 2 1.563 1.563 0 0 0 1.377.688 1.889 1.889 0 0 0 1.519-.567 2.851 2.851 0 0 0 .483-1.855v-.28a3.411 3.411 0 0 0-.49-2.079 1.839 1.839 0 0 0-1.536-.623zm9.492-1.232a4.544 4.544 0 0 1 .826.07L47.04-6.23a2.9 2.9 0 0 0-.756-.1 2.108 2.108 0 0 0-1.064.28 2.115 2.115 0 0 0-.791.805 2.508 2.508 0 0 0-.3 1.267V0h-1.485v-7.546h1.176l.2 1.344h.056a3.492 3.492 0 0 1 .938-1.043 2.2 2.2 0 0 1 1.354-.441zm4.872 0a3.128 3.128 0 0 1 2.121.623 2.473 2.473 0 0 1 .707 1.953V0h-1.05l-.294-1.05h-.056a3.372 3.372 0 0 1-1.029.9 3.206 3.206 0 0 1-1.489.29 2.578 2.578 0 0 1-1.694-.553 2.111 2.111 0 0 1-.672-1.729 1.987 1.987 0 0 1 .875-1.758 5.083 5.083 0 0 1 2.667-.651l1.288-.042v-.42a1.522 1.522 0 0 0-.378-1.169 1.527 1.527 0 0 0-1.064-.343 3.651 3.651 0 0 0-1.106.168 7.516 7.516 0 0 0-1.022.406l-.476-1.078a6.041 6.041 0 0 1 1.225-.471 5.483 5.483 0 0 1 1.449-.186zm1.362 4.06l-1.01.026a3.323 3.323 0 0 0-1.785.434 1.231 1.231 0 0 0-.5 1.036 1 1 0 0 0 .35.854 1.463 1.463 0 0 0 .91.266 2.17 2.17 0 0 0 1.449-.49 1.815 1.815 0 0 0 .581-1.47zm12.208-4.06a2.569 2.569 0 0 1 1.918.658 2.938 2.938 0 0 1 .644 2.114V0h-1.486v-4.718q0-1.75-1.414-1.75a1.632 1.632 0 0 0-1.442.623 3.1 3.1 0 0 0-.434 1.785V0h-1.47v-4.718q0-1.75-1.428-1.75a1.547 1.547 0 0 0-1.463.686 3.975 3.975 0 0 0-.4 1.974V0H56.35v-7.546h1.176l.21 1.008h.084a2.146 2.146 0 0 1 .945-.868 2.939 2.939 0 0 1 1.267-.28 2.265 2.265 0 0 1 2.3 1.218h.112a2.256 2.256 0 0 1 1.008-.917 3.169 3.169 0 0 1 1.354-.301z" transform="translate(240 300)"/><path id="Path_335" data-name="Path 335" class="cls-16" d="M10.672-5.216A5.21 5.21 0 0 1 9.28-1.448 5.1 5.1 0 0 1 5.424 0H.656v-1.248H1.92v-7.9H.656V-10.4h4.688A5.177 5.177 0 0 1 9.3-8.944a5.209 5.209 0 0 1 1.372 3.728zM9.12-5.2a4.1 4.1 0 0 0-.976-2.9 3.666 3.666 0 0 0-2.832-1.052H3.376v7.9h1.936A3.713 3.713 0 0 0 8.144-2.28 4.085 4.085 0 0 0 9.12-5.2zm3.728-3.632v-1.648H14.3v1.648zM15.5 0h-3.724v-1.088h1.168v-4.96h-1.216v-1.1h2.624v6.064H15.5zm6.864-2.1a1.888 1.888 0 0 1-.884 1.668 3.971 3.971 0 0 1-2.248.592 5.272 5.272 0 0 1-2.8-.7l.224-1.728 1.1.112-.032.928a2.476 2.476 0 0 0 .7.224 4.428 4.428 0 0 0 .744.064 2.913 2.913 0 0 0 1.24-.256A.841.841 0 0 0 20.96-2a.76.76 0 0 0-.448-.744 4.174 4.174 0 0 0-1.112-.328q-.664-.112-1.32-.28a2.546 2.546 0 0 1-1.1-.576 1.6 1.6 0 0 1-.448-1.24 1.71 1.71 0 0 1 .888-1.664 4.035 4.035 0 0 1 1.9-.464 5.046 5.046 0 0 1 1.384.184 5.7 5.7 0 0 1 1.176.472l.16 1.728-1.12.128-.16-1.12a3.235 3.235 0 0 0-1.376-.3 1.916 1.916 0 0 0-.976.224.785.785 0 0 0-.384.736.721.721 0 0 0 .44.7 4.069 4.069 0 0 0 1.088.312 12.5 12.5 0 0 1 1.3.28 2.51 2.51 0 0 1 1.088.592 1.662 1.662 0 0 1 .428 1.26zm6.608.08A2.215 2.215 0 0 1 26.576.16a2.361 2.361 0 0 1-1.72-.6 2.226 2.226 0 0 1-.616-1.672V-6.08h-1.1v-1.072h1.1v-2.256h1.392v2.256h2.736v1.072h-2.736v3.76q0 1.28 1.1 1.28a1.271 1.271 0 0 0 .7-.232 1.581 1.581 0 0 0 .5-1.08zm4.7-5.248a2.117 2.117 0 0 1 1.28.384l.288 2-1.1.128-.272-1.232a1.458 1.458 0 0 0-.56-.112 1.129 1.129 0 0 0-.912.456 1.839 1.839 0 0 0-.368 1.192v3.36h1.536V0h-4.1v-1.088h1.152v-4.96h-1.2v-1.1h2.512v1.308a2.432 2.432 0 0 1 .648-1.016 1.55 1.55 0 0 1 1.104-.408zm3.376.656a4.766 4.766 0 0 1 1.288-.536 5.916 5.916 0 0 1 1.392-.152 2.923 2.923 0 0 1 1.928.592 2.237 2.237 0 0 1 .712 1.824v3.312q0 .7.56.7a1.193 1.193 0 0 0 .432-.08l.016.832a1.964 1.964 0 0 1-1.04.272q-1.3 0-1.376-1.44V-1.3a3.329 3.329 0 0 1-.92 1.008 2.378 2.378 0 0 1-1.464.452 2.771 2.771 0 0 1-1.464-.448 1.692 1.692 0 0 1-.728-1.568 1.705 1.705 0 0 1 1.064-1.768 6.1 6.1 0 0 1 2.28-.424 9.883 9.883 0 0 1 1.232.064v-.528a2.463 2.463 0 0 0-.272-1.2q-.272-.5-1.216-.5a2.806 2.806 0 0 0-1.3.272L37.9-4.768 36.768-4.9zm3.9 3.856v-.416q-.288-.032-.6-.056t-.632-.024a3.385 3.385 0 0 0-1.312.24.962.962 0 0 0-.576.992.95.95 0 0 0 .36.832 1.386 1.386 0 0 0 .824.256 1.993 1.993 0 0 0 1.28-.48 1.818 1.818 0 0 0 .668-1.34zm9.664.272a3.5 3.5 0 0 1-.84 1.792A2.8 2.8 0 0 1 47.52.16a3.247 3.247 0 0 1-2.42-.936 3.664 3.664 0 0 1-.92-2.68 4.161 4.161 0 0 1 .912-2.728 3.108 3.108 0 0 1 2.54-1.116 5.2 5.2 0 0 1 1.3.16 3.54 3.54 0 0 1 1.184.56l.284 1.86-1.136.128-.256-1.2a2.727 2.727 0 0 0-1.392-.352 1.656 1.656 0 0 0-1.488.728 3.356 3.356 0 0 0-.48 1.88 3.027 3.027 0 0 0 .512 1.872 1.774 1.774 0 0 0 1.5.672q1.488 0 1.776-1.728zm6.5.464A2.215 2.215 0 0 1 54.72.16 2.361 2.361 0 0 1 53-.44a2.226 2.226 0 0 1-.616-1.672V-6.08h-1.1v-1.072h1.1v-2.256h1.392v2.256h2.736v1.072h-2.736v3.76q0 1.28 1.1 1.28a1.271 1.271 0 0 0 .7-.232 1.581 1.581 0 0 0 .5-1.08zm1.616-6.816v-1.644h1.456v1.648zM61.392 0h-3.728v-1.088h1.168v-4.96h-1.216v-1.1h2.624v6.064h1.152zm8.064-3.568A3.684 3.684 0 0 1 68.44-.88 3.577 3.577 0 0 1 65.76.16a3.384 3.384 0 0 1-2.584-1.008 3.71 3.71 0 0 1-.952-2.652 4.122 4.122 0 0 1 .912-2.688 3.3 3.3 0 0 1 2.72-1.12A3.265 3.265 0 0 1 68.56-6.2a4.067 4.067 0 0 1 .896 2.632zm-1.472-.048a2.8 2.8 0 0 0-.584-1.872 1.961 1.961 0 0 0-1.576-.688 1.877 1.877 0 0 0-1.592.728 3 3 0 0 0-.552 1.864 3.124 3.124 0 0 0 .536 1.848 1.821 1.821 0 0 0 1.592.76 1.9 1.9 0 0 0 1.608-.744 3.036 3.036 0 0 0 .568-1.896zM79.072 0H75.36v-1.088h1.152v-3.088A2.277 2.277 0 0 0 76.1-5.72a1.422 1.422 0 0 0-1.1-.456 1.813 1.813 0 0 0-1.424.592 2.142 2.142 0 0 0-.56 1.376v3.12h1.144V0h-3.712v-1.088H71.6v-4.96h-1.2v-1.1h2.608v1.216A2.571 2.571 0 0 1 75.44-7.3a2.555 2.555 0 0 1 1.76.64 2.544 2.544 0 0 1 .72 2v3.568h1.152zm6.7-2.1a1.888 1.888 0 0 1-.888 1.664A3.971 3.971 0 0 1 82.64.16a5.272 5.272 0 0 1-2.8-.7l.224-1.728 1.1.112-.032.928a2.476 2.476 0 0 0 .7.224 4.428 4.428 0 0 0 .744.064 2.913 2.913 0 0 0 1.24-.256.841.841 0 0 0 .552-.8.76.76 0 0 0-.448-.744 4.174 4.174 0 0 0-1.112-.328q-.664-.112-1.32-.28a2.546 2.546 0 0 1-1.1-.576 1.6 1.6 0 0 1-.448-1.24 1.71 1.71 0 0 1 .888-1.664 4.035 4.035 0 0 1 1.9-.464 5.046 5.046 0 0 1 1.384.184 5.7 5.7 0 0 1 1.176.472l.16 1.728-1.12.128-.168-1.12a3.235 3.235 0 0 0-1.376-.3 1.916 1.916 0 0 0-.976.224.785.785 0 0 0-.384.736.721.721 0 0 0 .44.7 4.069 4.069 0 0 0 1.088.312 12.5 12.5 0 0 1 1.3.28 2.51 2.51 0 0 1 1.088.592 1.662 1.662 0 0 1 .436 1.256z" transform="translate(68 176)"/><path id="Path_336" data-name="Path 336" d="M6.192 11h-5.7v-.948h.948v-5.9H.492V3.2h3.276v.948H2.532v5.9h2.712l.24-1.7.948.084zm1.584-6.624V3.14h1.092v1.236zM9.768 11h-2.8v-.816h.876v-3.72h-.908v-.828H8.9v4.548h.864zm5.148-1.572a1.416 1.416 0 0 1-.666 1.248 2.978 2.978 0 0 1-1.686.444 3.954 3.954 0 0 1-2.1-.528l.168-1.3.828.084-.024.7a1.857 1.857 0 0 0 .522.168 3.321 3.321 0 0 0 .558.048 2.185 2.185 0 0 0 .93-.192.631.631 0 0 0 .414-.6.57.57 0 0 0-.336-.558 3.13 3.13 0 0 0-.834-.242q-.5-.084-.99-.21a1.909 1.909 0 0 1-.828-.432 1.2 1.2 0 0 1-.336-.93 1.283 1.283 0 0 1 .664-1.252 3.026 3.026 0 0 1 1.422-.348 3.784 3.784 0 0 1 1.038.138 4.274 4.274 0 0 1 .882.354l.12 1.3-.84.1-.12-.84a2.426 2.426 0 0 0-1.032-.228 1.437 1.437 0 0 0-.732.168.589.589 0 0 0-.288.552.541.541 0 0 0 .33.528 3.051 3.051 0 0 0 .816.234 9.374 9.374 0 0 1 .972.21 1.882 1.882 0 0 1 .816.444 1.246 1.246 0 0 1 .332.94zm4.956.06a1.661 1.661 0 0 1-1.8 1.632 1.771 1.771 0 0 1-1.29-.45 1.67 1.67 0 0 1-.462-1.254V6.44h-.828v-.8h.828V3.944h1.044v1.692h2.052v.8h-2.052V9.26q0 .96.828.96a.954.954 0 0 0 .528-.174 1.185 1.185 0 0 0 .372-.81zm8.412-1.164a2.763 2.763 0 0 1-.762 2.016 2.683 2.683 0 0 1-2.01.78 2.538 2.538 0 0 1-1.938-.756 2.782 2.782 0 0 1-.714-1.992 3.092 3.092 0 0 1 .684-2.016 2.476 2.476 0 0 1 2.04-.84 2.449 2.449 0 0 1 2.028.834 3.05 3.05 0 0 1 .672 1.974zm-1.1-.036a2.1 2.1 0 0 0-.438-1.4 1.47 1.47 0 0 0-1.182-.516 1.408 1.408 0 0 0-1.194.546 2.25 2.25 0 0 0-.414 1.4 2.343 2.343 0 0 0 .4 1.386 1.366 1.366 0 0 0 1.194.57 1.428 1.428 0 0 0 1.206-.558 2.277 2.277 0 0 0 .424-1.428zm4.632-5.664a2.983 2.983 0 0 1 .714.084 1.653 1.653 0 0 1 .642.324l.216 1.308-.84.108-.228-.9a1.777 1.777 0 0 0-.564-.084q-.852 0-.852 1.1v1.072h1.38v.8H30.9v3.744h1.128V11H28.98v-.816h.876V6.44h-.744v-.8h.744v-.952a2.062 2.062 0 0 1 .552-1.488 1.861 1.861 0 0 1 1.404-.576zM41.772 11h-1.908V9.944a2.522 2.522 0 0 1-.7.828 1.9 1.9 0 0 1-1.194.348 2.1 2.1 0 0 1-1.668-.714 2.88 2.88 0 0 1-.624-1.962 3.7 3.7 0 0 1 .57-2.01 2.012 2.012 0 0 1 1.842-.906 1.878 1.878 0 0 1 1.776.96V3.572h-1.238v-.828h2.28v7.44h.864zm-1.908-2.472V7.88a1.494 1.494 0 0 0-.456-1.08 1.466 1.466 0 0 0-1.044-.408 1.349 1.349 0 0 0-1.182.576 2.413 2.413 0 0 0-.4 1.416 2.015 2.015 0 0 0 .432 1.392 1.38 1.38 0 0 0 1.068.48 1.36 1.36 0 0 0 1.118-.564 2.015 2.015 0 0 0 .464-1.164zm3.276-4.152V3.14h1.092v1.236zM45.132 11h-2.8v-.816h.876v-3.72H42.3v-.828h1.968v4.548h.864zm5.148-1.572a1.416 1.416 0 0 1-.666 1.248 2.978 2.978 0 0 1-1.686.444 3.954 3.954 0 0 1-2.1-.528L46 9.3l.828.084-.024.7a1.857 1.857 0 0 0 .522.168 3.321 3.321 0 0 0 .558.048 2.185 2.185 0 0 0 .93-.192.631.631 0 0 0 .414-.6.57.57 0 0 0-.336-.558 3.13 3.13 0 0 0-.834-.246q-.5-.084-.99-.21a1.909 1.909 0 0 1-.828-.432 1.2 1.2 0 0 1-.336-.93 1.283 1.283 0 0 1 .666-1.248 3.026 3.026 0 0 1 1.422-.348 3.784 3.784 0 0 1 1.038.138 4.274 4.274 0 0 1 .882.354l.12 1.3-.84.1-.12-.84a2.426 2.426 0 0 0-1.032-.228 1.437 1.437 0 0 0-.732.168.589.589 0 0 0-.288.552.541.541 0 0 0 .33.528 3.051 3.051 0 0 0 .816.234 9.374 9.374 0 0 1 .972.21 1.882 1.882 0 0 1 .816.444 1.246 1.246 0 0 1 .326.932zm4.956.06a1.661 1.661 0 0 1-1.8 1.632 1.771 1.771 0 0 1-1.29-.45 1.67 1.67 0 0 1-.462-1.254V6.44h-.828v-.8h.828V3.944h1.044v1.692h2.052v.8h-2.052V9.26q0 .96.828.96a.954.954 0 0 0 .528-.174 1.185 1.185 0 0 0 .372-.81zm3.528-3.936a1.588 1.588 0 0 1 .96.288l.216 1.5-.828.1-.2-.924a1.093 1.093 0 0 0-.42-.084.847.847 0 0 0-.684.342 1.38 1.38 0 0 0-.276.894v2.52h1.148V11h-3.072v-.816h.864v-3.72h-.9v-.828h1.884v.984a1.824 1.824 0 0 1 .486-.762 1.163 1.163 0 0 1 .822-.306zm2.532.492a3.574 3.574 0 0 1 .966-.4 4.437 4.437 0 0 1 1.038-.116 2.192 2.192 0 0 1 1.446.444 1.678 1.678 0 0 1 .534 1.368v2.484q0 .528.42.528a.9.9 0 0 0 .324-.06l.012.624a1.473 1.473 0 0 1-.78.2q-.972 0-1.032-1.08v-.012a2.5 2.5 0 0 1-.69.756 1.783 1.783 0 0 1-1.1.336 2.078 2.078 0 0 1-1.1-.336 1.269 1.269 0 0 1-.546-1.176 1.279 1.279 0 0 1 .8-1.326 4.576 4.576 0 0 1 1.71-.318 7.412 7.412 0 0 1 .924.048v-.4a1.847 1.847 0 0 0-.2-.9q-.2-.372-.912-.372a2.1 2.1 0 0 0-.972.2l-.2.876-.852-.1zm2.928 2.892v-.312q-.216-.024-.45-.042t-.474-.018a2.539 2.539 0 0 0-.984.18.722.722 0 0 0-.432.744.712.712 0 0 0 .27.624 1.04 1.04 0 0 0 .618.192 1.5 1.5 0 0 0 .96-.36 1.363 1.363 0 0 0 .492-1.008zm7.248.2a2.628 2.628 0 0 1-.63 1.344 2.1 2.1 0 0 1-1.7.636 2.435 2.435 0 0 1-1.818-.7 2.748 2.748 0 0 1-.69-2.01 3.121 3.121 0 0 1 .684-2.046 2.331 2.331 0 0 1 1.908-.834 3.9 3.9 0 0 1 .972.12 2.655 2.655 0 0 1 .888.42L71.3 7.46l-.852.1-.192-.9a2.045 2.045 0 0 0-1.044-.264 1.242 1.242 0 0 0-1.116.546 2.517 2.517 0 0 0-.36 1.41 2.27 2.27 0 0 0 .384 1.4 1.33 1.33 0 0 0 1.128.5q1.116 0 1.332-1.3zm4.872.348a1.661 1.661 0 0 1-1.8 1.632 1.771 1.771 0 0 1-1.29-.45 1.67 1.67 0 0 1-.462-1.254V6.44h-.828v-.8h.828V3.944h1.044v1.692h2.052v.8h-2.052V9.26q0 .96.828.96a.954.954 0 0 0 .528-.174 1.185 1.185 0 0 0 .372-.81zm1.212-5.112V3.14h1.092v1.236zM79.548 11h-2.8v-.816h.876v-3.72h-.912v-.828h1.968v4.548h.864zM85.6 8.324a2.763 2.763 0 0 1-.762 2.016 2.683 2.683 0 0 1-2.01.78 2.538 2.538 0 0 1-1.938-.756 2.782 2.782 0 0 1-.714-1.992 3.092 3.092 0 0 1 .684-2.016 2.476 2.476 0 0 1 2.04-.84 2.449 2.449 0 0 1 2.028.834 3.05 3.05 0 0 1 .672 1.974zm-1.1-.036a2.1 2.1 0 0 0-.438-1.4 1.47 1.47 0 0 0-1.182-.516 1.408 1.408 0 0 0-1.194.546 2.25 2.25 0 0 0-.414 1.4 2.343 2.343 0 0 0 .4 1.386 1.366 1.366 0 0 0 1.194.57 1.428 1.428 0 0 0 1.206-.558 2.277 2.277 0 0 0 .42-1.428zM92.808 11h-2.784v-.816h.864V7.868a1.708 1.708 0 0 0-.312-1.158 1.067 1.067 0 0 0-.828-.342 1.359 1.359 0 0 0-1.068.444 1.606 1.606 0 0 0-.42 1.032v2.34h.864V11H86.34v-.816h.86v-3.72h-.9v-.828h1.96v.912a2.107 2.107 0 0 1 3.144-.54 1.908 1.908 0 0 1 .54 1.5v2.676h.864zm5.028-1.572a1.416 1.416 0 0 1-.666 1.248 2.978 2.978 0 0 1-1.686.444 3.954 3.954 0 0 1-2.1-.528l.168-1.3.828.084-.024.7a1.857 1.857 0 0 0 .522.168 3.321 3.321 0 0 0 .558.048 2.185 2.185 0 0 0 .93-.192.631.631 0 0 0 .414-.6.57.57 0 0 0-.336-.558 3.13 3.13 0 0 0-.834-.242q-.5-.084-.99-.21a1.909 1.909 0 0 1-.828-.432 1.2 1.2 0 0 1-.336-.93 1.283 1.283 0 0 1 .666-1.248 3.026 3.026 0 0 1 1.422-.348 3.784 3.784 0 0 1 1.038.138 4.274 4.274 0 0 1 .882.354l.12 1.3-.84.1-.12-.84a2.426 2.426 0 0 0-1.032-.228 1.437 1.437 0 0 0-.732.168.589.589 0 0 0-.288.552.541.541 0 0 0 .33.528 3.051 3.051 0 0 0 .816.234 9.374 9.374 0 0 1 .972.21 1.882 1.882 0 0 1 .816.444 1.246 1.246 0 0 1 .33.936zm7.548.06a1.661 1.661 0 0 1-1.8 1.632 1.771 1.771 0 0 1-1.29-.45 1.67 1.67 0 0 1-.462-1.254V6.44H101v-.8h.828V3.944h1.044v1.692h2.052v.8h-2.052V9.26q0 .96.828.96a.954.954 0 0 0 .528-.174 1.185 1.185 0 0 0 .372-.81zm5.82-1.164a2.763 2.763 0 0 1-.762 2.016 2.683 2.683 0 0 1-2.01.78 2.538 2.538 0 0 1-1.938-.756 2.782 2.782 0 0 1-.714-1.992 3.092 3.092 0 0 1 .684-2.016 2.476 2.476 0 0 1 2.04-.84 2.449 2.449 0 0 1 2.028.834 3.05 3.05 0 0 1 .668 1.974zm-1.1-.036a2.1 2.1 0 0 0-.438-1.4 1.47 1.47 0 0 0-1.182-.516 1.408 1.408 0 0 0-1.194.546 2.25 2.25 0 0 0-.414 1.4 2.343 2.343 0 0 0 .4 1.386 1.366 1.366 0 0 0 1.194.57 1.428 1.428 0 0 0 1.206-.558 2.277 2.277 0 0 0 .424-1.428zm7.6-2.736a1.588 1.588 0 0 1 .96.288l.216 1.5-.828.1-.2-.924a1.093 1.093 0 0 0-.42-.084.847.847 0 0 0-.684.342 1.38 1.38 0 0 0-.276.894v2.52h1.152V11h-3.084v-.816h.864v-3.72h-.9v-.828h1.884v.984a1.824 1.824 0 0 1 .486-.762 1.163 1.163 0 0 1 .826-.306zm6.912 3.864a1.822 1.822 0 0 1-.684 1.2 2.458 2.458 0 0 1-1.632.5 2.6 2.6 0 0 1-1.884-.7 2.676 2.676 0 0 1-.72-2.016 3.139 3.139 0 0 1 .672-2.064 2.278 2.278 0 0 1 1.86-.816 2.183 2.183 0 0 1 1.716.684 2.444 2.444 0 0 1 .624 1.656 3.492 3.492 0 0 1-.072.684h-3.7q.072 1.7 1.572 1.7a1.325 1.325 0 0 0 .942-.3 1.477 1.477 0 0 0 .426-.72zm-1.14-1.572a1.592 1.592 0 0 0-.258-1.014 1.105 1.105 0 0 0-1.014-.486 1.161 1.161 0 0 0-.99.438 2.135 2.135 0 0 0-.4 1.062zM135.264 11h-2.472v-.816h.552V7.868a1.732 1.732 0 0 0-.306-1.158 1.048 1.048 0 0 0-.822-.342 1.169 1.169 0 0 0-1.038.5 1.882 1.882 0 0 0-.354 1.02v2.292h.864V11h-2.472v-.816h.552V7.868a1.729 1.729 0 0 0-.306-1.164 1.043 1.043 0 0 0-.81-.336 1.182 1.182 0 0 0-1.032.492 1.8 1.8 0 0 0-.36 1.008v2.316h1V11h-2.92v-.816h.864v-3.72h-.876v-.828h1.932v.948a2.127 2.127 0 0 1 .684-.762A1.833 1.833 0 0 1 129 5.528a1.929 1.929 0 0 1 1.08.306 1.59 1.59 0 0 1 .648.942 2.185 2.185 0 0 1 .708-.9 2 2 0 0 1 2.424.132 1.933 1.933 0 0 1 .528 1.5v2.676h.876zm1.308-6.624V3.14h1.092v1.236zM138.564 11h-2.8v-.816h.876v-3.72h-.912v-.828h1.972v4.548h.864zm7.068 0h-2.784v-.816h.864V7.868a1.708 1.708 0 0 0-.312-1.158 1.067 1.067 0 0 0-.828-.342 1.359 1.359 0 0 0-1.068.444 1.606 1.606 0 0 0-.42 1.032v2.34h.864V11h-2.784v-.816h.864v-3.72h-.9v-.828h1.956v.912a2.107 2.107 0 0 1 3.144-.54 1.908 1.908 0 0 1 .54 1.5v2.676h.864zm6.612 0h-1.908V9.944a2.522 2.522 0 0 1-.7.828 1.9 1.9 0 0 1-1.194.348 2.1 2.1 0 0 1-1.668-.714 2.88 2.88 0 0 1-.624-1.962 3.7 3.7 0 0 1 .57-2.01 2.012 2.012 0 0 1 1.842-.906 1.878 1.878 0 0 1 1.776.96V3.572H149.1v-.828h2.28v7.44h.864zm-1.908-2.472V7.88a1.494 1.494 0 0 0-.456-1.08 1.466 1.466 0 0 0-1.044-.408 1.349 1.349 0 0 0-1.182.576 2.413 2.413 0 0 0-.4 1.416 2.015 2.015 0 0 0 .432 1.392 1.38 1.38 0 0 0 1.068.48 1.36 1.36 0 0 0 1.122-.564 2.015 2.015 0 0 0 .46-1.164zM160.8 6.464h-.6L158.352 11l-.66 1.716h.852v.84h-2.784v-.84h.948l.624-1.7-1.932-4.552h-.612v-.828h2.556v.828h-.816l1.38 3.264h.072l1.188-3.264h-.756v-.828h2.388zm5.76 1.86a2.763 2.763 0 0 1-.762 2.016 2.683 2.683 0 0 1-2.01.78 2.538 2.538 0 0 1-1.938-.756 2.782 2.782 0 0 1-.714-1.992 3.092 3.092 0 0 1 .684-2.016 2.476 2.476 0 0 1 2.04-.84 2.449 2.449 0 0 1 2.028.834 3.05 3.05 0 0 1 .672 1.974zm-1.1-.036a2.1 2.1 0 0 0-.438-1.4 1.47 1.47 0 0 0-1.182-.516 1.408 1.408 0 0 0-1.194.546 2.25 2.25 0 0 0-.414 1.4 2.343 2.343 0 0 0 .4 1.386 1.366 1.366 0 0 0 1.194.57 1.428 1.428 0 0 0 1.206-.558 2.277 2.277 0 0 0 .424-1.428zM173.58 11h-1.956v-.96a1.885 1.885 0 0 1-1.812 1.08 1.938 1.938 0 0 1-1.326-.48 1.913 1.913 0 0 1-.546-1.512V6.464h-.864v-.828H169V8.78a1.66 1.66 0 0 0 .318 1.152 1.125 1.125 0 0 0 .858.336 1.294 1.294 0 0 0 1.044-.474 1.656 1.656 0 0 0 .408-1.05v-2.28h-1.048v-.828h2.1v4.548h.9zm7.68-1.572a1.416 1.416 0 0 1-.666 1.248 2.978 2.978 0 0 1-1.686.444 3.954 3.954 0 0 1-2.1-.528l.168-1.3.828.084-.024.7a1.857 1.857 0 0 0 .522.168 3.321 3.321 0 0 0 .558.048 2.185 2.185 0 0 0 .93-.192.631.631 0 0 0 .414-.6.57.57 0 0 0-.336-.558 3.131 3.131 0 0 0-.834-.246q-.5-.084-.99-.21a1.909 1.909 0 0 1-.828-.432 1.2 1.2 0 0 1-.336-.93 1.283 1.283 0 0 1 .666-1.248 3.026 3.026 0 0 1 1.422-.348 3.785 3.785 0 0 1 1.038.138 4.274 4.274 0 0 1 .882.354l.12 1.3-.84.1-.12-.84a2.426 2.426 0 0 0-1.032-.228 1.437 1.437 0 0 0-.732.168.589.589 0 0 0-.288.552.541.541 0 0 0 .33.528 3.051 3.051 0 0 0 .816.234 9.373 9.373 0 0 1 .972.21 1.882 1.882 0 0 1 .816.444 1.246 1.246 0 0 1 .33.94zm4.956.06a1.661 1.661 0 0 1-1.8 1.632 1.771 1.771 0 0 1-1.29-.45 1.67 1.67 0 0 1-.462-1.254V6.44h-.828v-.8h.828V3.944h1.044v1.692h2.052v.8h-2.052V9.26q0 .96.828.96a.954.954 0 0 0 .528-.174 1.185 1.185 0 0 0 .372-.81zm5.82-1.164a2.763 2.763 0 0 1-.762 2.016 2.683 2.683 0 0 1-2.01.78 2.538 2.538 0 0 1-1.938-.756 2.782 2.782 0 0 1-.714-1.992 3.092 3.092 0 0 1 .684-2.016 2.476 2.476 0 0 1 2.04-.84 2.449 2.449 0 0 1 2.028.834 3.05 3.05 0 0 1 .672 1.974zm-1.1-.036a2.1 2.1 0 0 0-.438-1.4 1.47 1.47 0 0 0-1.182-.516 1.408 1.408 0 0 0-1.194.546 2.25 2.25 0 0 0-.414 1.4 2.343 2.343 0 0 0 .4 1.386 1.366 1.366 0 0 0 1.194.57 1.428 1.428 0 0 0 1.206-.558 2.277 2.277 0 0 0 .424-1.428zm7.764-.108a3.673 3.673 0 0 1-.588 2.022 2.059 2.059 0 0 1-1.872.918 1.878 1.878 0 0 1-1.728-.876v2.472h1.164v.84h-3.084v-.84h.876V6.464h-.912v-.828h1.956v1.092a2.536 2.536 0 0 1 .684-.84 1.83 1.83 0 0 1 1.188-.36 2.163 2.163 0 0 1 1.674.7 2.782 2.782 0 0 1 .642 1.952zm-1.1.1a2.053 2.053 0 0 0-.426-1.4 1.4 1.4 0 0 0-1.1-.48 1.332 1.332 0 0 0-1.1.54 1.989 1.989 0 0 0-.454 1.16l-.012.624a1.5 1.5 0 0 0 .432 1.1 1.451 1.451 0 0 0 1.068.432 1.347 1.347 0 0 0 1.194-.57 2.439 2.439 0 0 0 .39-1.41zm8.628 1.212a1.661 1.661 0 0 1-1.8 1.632 1.771 1.771 0 0 1-1.29-.45 1.67 1.67 0 0 1-.462-1.254V6.44h-.828v-.8h.828V3.944h1.044v1.692h2.052v.8h-2.052V9.26q0 .96.828.96a.954.954 0 0 0 .528-.174 1.185 1.185 0 0 0 .372-.81zm3.528-3.936a1.588 1.588 0 0 1 .96.288l.216 1.5-.828.1-.2-.924a1.093 1.093 0 0 0-.42-.084.847.847 0 0 0-.684.342 1.38 1.38 0 0 0-.276.894v2.52h1.152V11h-3.072v-.816h.864v-3.72h-.9v-.828h1.884v.984a1.824 1.824 0 0 1 .486-.762 1.163 1.163 0 0 1 .81-.306zm2.532.492a3.574 3.574 0 0 1 .966-.4 4.437 4.437 0 0 1 1.038-.114 2.192 2.192 0 0 1 1.446.444 1.678 1.678 0 0 1 .534 1.368v2.478q0 .528.42.528a.9.9 0 0 0 .324-.06l.012.624a1.473 1.473 0 0 1-.78.2q-.972 0-1.032-1.08v-.012a2.5 2.5 0 0 1-.69.756 1.783 1.783 0 0 1-1.1.336 2.078 2.078 0 0 1-1.1-.336 1.269 1.269 0 0 1-.546-1.176 1.279 1.279 0 0 1 .8-1.326 4.576 4.576 0 0 1 1.71-.318 7.412 7.412 0 0 1 .924.048v-.4a1.847 1.847 0 0 0-.2-.9q-.2-.372-.912-.372a2.1 2.1 0 0 0-.972.2l-.2.876-.852-.1zm2.928 2.892v-.316q-.216-.024-.45-.042t-.474-.018a2.539 2.539 0 0 0-.984.18.722.722 0 0 0-.432.744.712.712 0 0 0 .27.624 1.04 1.04 0 0 0 .618.192 1.5 1.5 0 0 0 .96-.36 1.363 1.363 0 0 0 .484-1.008zm7.248.2a2.628 2.628 0 0 1-.63 1.344 2.1 2.1 0 0 1-1.7.636 2.435 2.435 0 0 1-1.818-.7 2.748 2.748 0 0 1-.69-2.01 3.121 3.121 0 0 1 .684-2.046 2.331 2.331 0 0 1 1.908-.834 3.9 3.9 0 0 1 .972.12 2.655 2.655 0 0 1 .888.42l.216 1.392-.852.1-.192-.9a2.046 2.046 0 0 0-1.044-.264 1.242 1.242 0 0 0-1.116.546 2.517 2.517 0 0 0-.36 1.41 2.271 2.271 0 0 0 .384 1.4 1.33 1.33 0 0 0 1.128.5q1.116 0 1.332-1.3zm6.544 1.86h-2.6v-.816h.72l-1.308-1.608h-.92v1.608h.7V11H223v-.816h.864V3.572h-.9v-.828h1.936v5.064h.948l1.1-1.344h-.78v-.828h2.556v.828h-.744L226.632 8.1l1.7 2.088h.672zm1.332-6.624V3.14h1.092v1.236zM232.332 11h-2.8v-.816h.876v-3.72h-.908v-.828h1.968v4.548h.864zm7.068 0h-2.784v-.816h.864V7.868a1.708 1.708 0 0 0-.312-1.158 1.067 1.067 0 0 0-.828-.342 1.359 1.359 0 0 0-1.068.444 1.606 1.606 0 0 0-.42 1.032v2.34h.864V11h-2.784v-.816h.864v-3.72h-.9v-.828h1.956v.912a2.107 2.107 0 0 1 3.148-.54 1.908 1.908 0 0 1 .54 1.5v2.676h.864zm6.576-4.536h-.828v4.4a2.906 2.906 0 0 1-.7 2.04 2.6 2.6 0 0 1-2.022.768 3.166 3.166 0 0 1-1.536-.378 1.956 1.956 0 0 1-.948-1.218l.816-.42a1.654 1.654 0 0 0 .7.864 1.929 1.929 0 0 0 1 .276 1.551 1.551 0 0 0 1.188-.5 2.058 2.058 0 0 0 .468-1.452v-.9a2.268 2.268 0 0 1-.684.78 1.973 1.973 0 0 1-1.188.324 2.252 2.252 0 0 1-1.638-.666 2.6 2.6 0 0 1-.678-1.938 3.562 3.562 0 0 1 .6-2.01 2.026 2.026 0 0 1 1.812-.906 1.868 1.868 0 0 1 1.776.948v-.84h1.872zM244.1 8.576v-.7a1.416 1.416 0 0 0-.432-1.08 1.466 1.466 0 0 0-1.044-.408 1.32 1.32 0 0 0-1.176.57 2.467 2.467 0 0 0-.384 1.41 1.95 1.95 0 0 0 .414 1.368 1.333 1.333 0 0 0 1.014.444 1.441 1.441 0 0 0 1.152-.5 1.775 1.775 0 0 0 .456-1.104zm9.192.912a1.661 1.661 0 0 1-1.8 1.632 1.771 1.771 0 0 1-1.29-.45 1.67 1.67 0 0 1-.462-1.254V6.44h-.828v-.8h.828V3.944h1.044v1.692h2.052v.8h-2.052V9.26q0 .96.828.96a.954.954 0 0 0 .528-.174 1.185 1.185 0 0 0 .372-.81zm1.212-5.112V3.14h1.096v1.236zM256.5 11h-2.8v-.816h.876v-3.72h-.912v-.828h1.968v4.548h.864zm10.524 0h-2.472v-.816h.552V7.868a1.732 1.732 0 0 0-.304-1.158 1.048 1.048 0 0 0-.822-.342 1.169 1.169 0 0 0-1.038.5 1.882 1.882 0 0 0-.354 1.02v2.292h.864V11h-2.472v-.816h.552V7.868a1.729 1.729 0 0 0-.306-1.164 1.043 1.043 0 0 0-.81-.336 1.182 1.182 0 0 0-1.032.492 1.8 1.8 0 0 0-.36 1.008v2.316h1V11H257.1v-.816h.864v-3.72h-.876v-.828h1.932v.948a2.127 2.127 0 0 1 .684-.762 1.833 1.833 0 0 1 1.056-.294 1.929 1.929 0 0 1 1.08.306 1.59 1.59 0 0 1 .648.942 2.186 2.186 0 0 1 .708-.9 2 2 0 0 1 2.424.132 1.933 1.933 0 0 1 .528 1.5v2.676h.876zm5.424-1.584a1.822 1.822 0 0 1-.684 1.2 2.458 2.458 0 0 1-1.632.5 2.6 2.6 0 0 1-1.884-.7 2.676 2.676 0 0 1-.72-2.016 3.139 3.139 0 0 1 .672-2.064 2.278 2.278 0 0 1 1.86-.816 2.183 2.183 0 0 1 1.716.684 2.444 2.444 0 0 1 .624 1.656 3.491 3.491 0 0 1-.072.684h-3.7q.072 1.7 1.572 1.7a1.325 1.325 0 0 0 .942-.3 1.477 1.477 0 0 0 .426-.72zm-1.14-1.572a1.592 1.592 0 0 0-.258-1.014 1.105 1.105 0 0 0-1.014-.486 1.161 1.161 0 0 0-.99.438 2.135 2.135 0 0 0-.4 1.062zM273.432 11V9.512h1.368V11z" transform="translate(68 180)" fill="#bebebe"/><path id="Path_87" data-name="Path 87" class="cls-16" d="M7.184.809L7.8.191a.375.375 0 0 0 0-.53L2.955-5.187h10.67A.375.375 0 0 0 14-5.562v-.875a.375.375 0 0 0-.375-.375H2.955L7.8-11.66a.375.375 0 0 0 0-.53l-.619-.619a.375.375 0 0 0-.53 0L.11-6.265a.375.375 0 0 0 0 .53L6.654.809a.375.375 0 0 0 .53 0z" transform="translate(48 177)"/></g></svg>