<svg xmlns="http://www.w3.org/2000/svg" width="323.5" height="528.25"><defs><style>.cls-2{fill:#fff}.cls-9{font-weight:500}.cls-5{fill:none}.cls-9{fill:#363636;font-size:11px;font-family:HelveticaNeue-Medium,Helvetica Neue}</style><clipPath id="clip-path"><path id="Rectangle_91" data-name="Rectangle 91" d="M0 0h300v500H0z"/></clipPath><linearGradient id="linear-gradient" x1=".5" x2=".5" y2="1" gradientUnits="objectBoundingBox"><stop offset="0" stop-color="#3976ff"/><stop offset="1" stop-color="#3961e8"/></linearGradient><filter id="Ellipse_10" x="15.833" y="27.333" width="54.667" height="54.667" filterUnits="userSpaceOnUse"><feOffset dy="3"/><feGaussianBlur stdDeviation="3" result="blur"/><feFlood flood-opacity=".059"/><feComposite operator="in" in2="blur"/><feComposite in="SourceGraphic"/></filter><filter id="Rectangle_57" x="15.833" y="112.333" width="291.333" height="419.667" filterUnits="userSpaceOnUse"><feOffset dy="3"/><feGaussianBlur stdDeviation="3" result="blur-2"/><feFlood flood-color="#39d07f" flood-opacity=".059"/><feComposite operator="in" in2="blur-2"/><feComposite in="SourceGraphic"/></filter><filter id="Rectangle_3" x="29.167" y="236.5" width="93" height="43.833" filterUnits="userSpaceOnUse"><feOffset dy="3"/><feGaussianBlur stdDeviation="3" result="blur-3"/><feFlood flood-opacity=".122"/><feComposite operator="in" in2="blur-3"/><feComposite in="SourceGraphic"/></filter><filter id="Rectangle_3-2" x="110.833" y="236.5" width="75.5" height="43.833" filterUnits="userSpaceOnUse"><feOffset dy="3"/><feGaussianBlur stdDeviation="3" result="blur-4"/><feFlood flood-opacity=".122"/><feComposite operator="in" in2="blur-4"/><feComposite in="SourceGraphic"/></filter><filter id="Rectangle_3-3" x="175" y="236.5" width="77.167" height="43.833" filterUnits="userSpaceOnUse"><feOffset dy="3"/><feGaussianBlur stdDeviation="3" result="blur-5"/><feFlood flood-opacity=".122"/><feComposite operator="in" in2="blur-5"/><feComposite in="SourceGraphic"/></filter><filter id="Rectangle_3-4" x="29.167" y="269" width="116.333" height="43.833" filterUnits="userSpaceOnUse"><feOffset dy="3"/><feGaussianBlur stdDeviation="3" result="blur-6"/><feFlood flood-opacity=".122"/><feComposite operator="in" in2="blur-6"/><feComposite in="SourceGraphic"/></filter><filter id="Rectangle_3-5" x="29.167" y="301.5" width="82.167" height="43.833" filterUnits="userSpaceOnUse"><feOffset dy="3"/><feGaussianBlur stdDeviation="3" result="blur-7"/><feFlood flood-opacity=".122"/><feComposite operator="in" in2="blur-7"/><feComposite in="SourceGraphic"/></filter><filter id="Rectangle_3-6" x="100" y="301.5" width="74.667" height="43.833" filterUnits="userSpaceOnUse"><feOffset dy="3"/><feGaussianBlur stdDeviation="3" result="blur-8"/><feFlood flood-opacity=".122"/><feComposite operator="in" in2="blur-8"/><feComposite in="SourceGraphic"/></filter><filter id="Rectangle_3-7" x="163.333" y="301.5" width="71.333" height="43.833" filterUnits="userSpaceOnUse"><feOffset dy="3"/><feGaussianBlur stdDeviation="3" result="blur-9"/><feFlood flood-opacity=".122"/><feComposite operator="in" in2="blur-9"/><feComposite in="SourceGraphic"/></filter><filter id="Rectangle_3-8" x="223.333" y="301.5" width="69.667" height="43.833" filterUnits="userSpaceOnUse"><feOffset dy="3"/><feGaussianBlur stdDeviation="3" result="blur-10"/><feFlood flood-opacity=".122"/><feComposite operator="in" in2="blur-10"/><feComposite in="SourceGraphic"/></filter><filter id="Rectangle_3-9" x="30" y="334" width="73" height="43.833" filterUnits="userSpaceOnUse"><feOffset dy="3"/><feGaussianBlur stdDeviation="3" result="blur-11"/><feFlood flood-opacity=".122"/><feComposite operator="in" in2="blur-11"/><feComposite in="SourceGraphic"/></filter><filter id="Rectangle_3-10" x="91.667" y="334" width="72.167" height="43.833" filterUnits="userSpaceOnUse"><feOffset dy="3"/><feGaussianBlur stdDeviation="3" result="blur-12"/><feFlood flood-opacity=".122"/><feComposite operator="in" in2="blur-12"/><feComposite in="SourceGraphic"/></filter><filter id="Rectangle_3-11" x="134.167" y="269" width="123" height="43.833" filterUnits="userSpaceOnUse"><feOffset dy="3"/><feGaussianBlur stdDeviation="3" result="blur-13"/><feFlood flood-opacity=".122"/><feComposite operator="in" in2="blur-13"/><feComposite in="SourceGraphic"/></filter><filter id="Rectangle_57-2" x="-257.5" y="112.333" width="291.333" height="419.667" filterUnits="userSpaceOnUse"><feOffset dy="3"/><feGaussianBlur stdDeviation="3" result="blur-14"/><feFlood flood-color="#39d07f" flood-opacity=".059"/><feComposite operator="in" in2="blur-14"/><feComposite in="SourceGraphic"/></filter><filter id="Rectangle_3-12" x="-71.667" y="468.167" width="92.167" height="53.833" filterUnits="userSpaceOnUse"><feOffset dy="3"/><feGaussianBlur stdDeviation="3" result="blur-15"/><feFlood flood-color="#39d07f" flood-opacity=".059"/><feComposite operator="in" in2="blur-15"/><feComposite in="SourceGraphic"/></filter></defs><g id="Group_62" data-name="Group 62" transform="translate(-128.5 -2095)"><g id="Settings_Work_Apps" data-name="Settings – Work Apps" transform="translate(140 2115)" clip-path="url(#clip-path)"><path id="Rectangle_90" data-name="Rectangle 90" class="cls-2" d="M0 0h300v500H0z"/><path id="Rectangle_40" data-name="Rectangle 40" fill="url(#linear-gradient)" d="M0 0h300v138.333H0z"/><text id="Settings" transform="translate(101.533 77.333)" font-weight="500" font-family="ZillaSlab-Medium,Zilla Slab Medium" font-size="25" fill="#fff"><tspan x="0" y="0">Settings</tspan></text><g id="Group_67" data-name="Group 67" transform="translate(13.333 13.333)"><g transform="translate(-24.83 -33.33)" filter="url(#Ellipse_10)"><circle id="Ellipse_10-2" data-name="Ellipse 10" class="cls-2" cx="18.333" cy="18.333" r="18.333" transform="translate(24.83 33.33)"/></g><g id="baseline-menu-24px" transform="translate(10 10)"><path id="Path_73" data-name="Path 73" class="cls-5" d="M0 0h16.667v16.667H0z"/><path id="Path_74" data-name="Path 74" d="M3 16h11.667v-1.667H3zm0-4.167h11.667v-1.666H3zM3 6v1.667h11.667V6z" transform="translate(-.5 -2.667)" fill="#242424"/></g></g><g id="work-apps-section" transform="translate(13.333 98.333)"><g transform="translate(-24.83 -118.33)" filter="url(#Rectangle_57)"><rect id="Rectangle_57-3" data-name="Rectangle 57" class="cls-2" width="273.333" height="401.667" rx="2" transform="translate(24.83 118.33)"/></g><path id="Line_9" data-name="Line 9" transform="translate(13.75 97.083)" stroke="#bebebe" fill="none" d="M0 0h246.667"/><text id="Type_app_name_or_keyword" data-name="Type app name or keyword" transform="translate(14.167 92)" opacity=".1" font-family="ZillaSlab-SemiBold,Zilla Slab SemiBold" font-weight="600" font-size="13" fill="#363636"><tspan x="0" y="0">Type app name or keyword</tspan></text><g id="Group_46" data-name="Group 46" transform="translate(13.333 124.167)"><g transform="translate(-38.17 -242.5)" filter="url(#Rectangle_3)"><rect id="Rectangle_3-13" data-name="Rectangle 3" class="cls-2" width="75" height="25.833" rx="12.917" transform="translate(38.17 242.5)"/></g><text id="Adobe_xd" data-name="Adobe xd" class="cls-9" transform="translate(11.667 16.833)"><tspan x="0" y="0">Adobe xd</tspan></text></g><g id="Group_76" data-name="Group 76" transform="translate(95 124.167)"><g transform="translate(-119.83 -242.5)" filter="url(#Rectangle_3-2)"><rect id="Rectangle_3-14" data-name="Rectangle 3" class="cls-2" width="57.5" height="25.833" rx="12.917" transform="translate(119.83 242.5)"/></g><text id="adobe" class="cls-9" transform="translate(11.667 16.833)"><tspan x="0" y="0">adobe</tspan></text></g><g id="Group_77" data-name="Group 77" transform="translate(159.167 124.167)"><g transform="translate(-184 -242.5)" filter="url(#Rectangle_3-3)"><rect id="Rectangle_3-15" data-name="Rectangle 3" class="cls-2" width="59.167" height="25.833" rx="12.917" transform="translate(184 242.5)"/></g><text id="sketch" class="cls-9" transform="translate(11.667 16.833)"><tspan x="0" y="0">sketch</tspan></text></g><g id="Group_78" data-name="Group 78" transform="translate(13.333 156.667)"><g transform="translate(-38.17 -275)" filter="url(#Rectangle_3-4)"><rect id="Rectangle_3-16" data-name="Rectangle 3" class="cls-2" width="98.333" height="25.833" rx="12.917" transform="translate(38.17 275)"/></g><text id="stackoverflow" class="cls-9" transform="translate(11.667 16.833)"><tspan x="0" y="0">stackoverflow</tspan></text></g><g id="Group_80" data-name="Group 80" transform="translate(13.333 189.167)"><g transform="translate(-38.17 -307.5)" filter="url(#Rectangle_3-5)"><rect id="Rectangle_3-17" data-name="Rectangle 3" class="cls-2" width="64.167" height="25.833" rx="12.917" transform="translate(38.17 307.5)"/></g><text id="chrome" class="cls-9" transform="translate(11.667 16.833)"><tspan x="0" y="0">chrome</tspan></text></g><g id="Group_81" data-name="Group 81" transform="translate(84.167 189.167)"><g transform="translate(-109 -307.5)" filter="url(#Rectangle_3-6)"><rect id="Rectangle_3-18" data-name="Rectangle 3" class="cls-2" width="56.667" height="25.833" rx="12.917" transform="translate(109 307.5)"/></g><text id="firefox" class="cls-9" transform="translate(11.667 16.833)"><tspan x="0" y="0">firefox</tspan></text></g><g id="Group_82" data-name="Group 82" transform="translate(147.5 189.167)"><g transform="translate(-172.33 -307.5)" filter="url(#Rectangle_3-7)"><rect id="Rectangle_3-19" data-name="Rectangle 3" class="cls-2" width="53.333" height="25.833" rx="12.917" transform="translate(172.33 307.5)"/></g><text id="safari" class="cls-9" transform="translate(11.667 16.833)"><tspan x="0" y="0">safari</tspan></text></g><g id="Group_83" data-name="Group 83" transform="translate(207.5 189.167)"><g transform="translate(-232.33 -307.5)" filter="url(#Rectangle_3-8)"><rect id="Rectangle_3-20" data-name="Rectangle 3" class="cls-2" width="51.667" height="25.833" rx="12.917" transform="translate(232.33 307.5)"/></g><text id="slack" class="cls-9" transform="translate(11.667 16.833)"><tspan x="0" y="0">slack</tspan></text></g><g id="Group_84" data-name="Group 84" transform="translate(14.167 221.667)"><g transform="translate(-39 -340)" filter="url(#Rectangle_3-9)"><rect id="Rectangle_3-21" data-name="Rectangle 3" class="cls-2" width="55" height="25.833" rx="12.917" transform="translate(39 340)"/></g><text id="skype" class="cls-9" transform="translate(11.667 16.833)"><tspan x="0" y="0">skype</tspan></text></g><g id="Group_85" data-name="Group 85" transform="translate(75.833 221.667)"><g transform="translate(-100.67 -340)" filter="url(#Rectangle_3-10)"><rect id="Rectangle_3-22" data-name="Rectangle 3" class="cls-2" width="54.167" height="25.833" rx="12.917" transform="translate(100.67 340)"/></g><text id="opera" class="cls-9" transform="translate(11.667 16.833)"><tspan x="0" y="0">opera</tspan></text></g><g id="Group_79" data-name="Group 79" transform="translate(118.333 156.667)"><g transform="translate(-143.17 -275)" filter="url(#Rectangle_3-11)"><rect id="Rectangle_3-23" data-name="Rectangle 3" class="cls-2" width="105" height="25.833" rx="12.917" transform="translate(143.17 275)"/></g><text id="stackexchange" class="cls-9" transform="translate(11.667 16.833)"><tspan x="0" y="0">stackexchange</tspan></text></g><g id="Group_89" data-name="Group 89" transform="translate(13.333 13.333)"><text id="Work_Apps_Keywords" data-name="Work Apps Keywords" transform="translate(16.667 12)" font-size="13" fill="#363636" font-weight="500" font-family="ZillaSlab-Medium,Zilla Slab Medium"><tspan x="0" y="0">Work Apps Keywords</tspan></text><text id="List_of_project_apps_so_we_can_notify_you_to_stop_tracking_your_project_after_you_stop_working_in_your_favorite_tool." data-name="List of project apps so we can notify you to stop tracking your project after you stop working in your favorite tool." transform="translate(16.667 23.833)" fill="#bebebe" font-size="9" font-weight="500" font-family="ZillaSlab-Medium,Zilla Slab Medium"><tspan x="0" y="0">List of project apps so we can notify you to stop </tspan><tspan x="0" y="11">tracking your project after you stop working in your </tspan><tspan x="0" y="22">favorite tool.</tspan></text><text id="_" data-name="" transform="translate(0 12.667)" font-family="FontAwesome5Pro-Regular,&quot;Font Awesome 5 Pro&quot;" font-size="13" fill="#363636"><tspan x="0" y="0"></tspan></text></g></g></g><g id="Rectangle" stroke="#f2f2f2" stroke-miterlimit="10" stroke-width="12" fill="none"><path d="M140.5 2115.12h299.478v488.13a8 8 0 0 1-8 8H148.5a8 8 0 0 1-8-8v-488.13z" stroke="none"/><path class="cls-5" d="M140.5 2109.12h299.478a6 6 0 0 1 6 6v488.13a14 14 0 0 1-14 14H148.5a14 14 0 0 1-14-14v-488.13a6 6 0 0 1 6-6z"/></g><g id="tab" transform="translate(129 2095)"><path id="Rectangle_1" data-name="Rectangle 1" d="M8 0h307a8 8 0 0 1 8 8v12.38H0V8a8 8 0 0 1 8-8z" fill="#f2f2f2"/><circle id="Ellipse_1" data-name="Ellipse 1" cx="4.891" cy="4.891" r="4.891" transform="translate(6.522 5.707)" fill="#ff223d"/><circle id="Ellipse_2" data-name="Ellipse 2" cx="4.891" cy="4.891" r="4.891" transform="translate(21.196 5.707)" fill="#ffb222"/><circle id="Ellipse_3" data-name="Ellipse 3" cx="4.891" cy="4.891" r="4.891" transform="translate(35.87 5.707)" fill="#7ed321"/></g></g></svg>