<svg xmlns="http://www.w3.org/2000/svg" width="64" height="64"><path d="M32 0a32 32 0 1 0 32 32A32 32 0 0 0 32 0zm1.835 12.977a9.011 9.011 0 0 1 5.931-3.049 8.876 8.876 0 0 1-2.1 6.429 7.473 7.473 0 0 1-5.975 2.85 8.443 8.443 0 0 1 2.144-6.23zm11.522 32.226c-1.68 2.455-3.422 4.9-6.165 4.95-2.7.051-3.566-1.6-6.647-1.6s-4.048 1.55-6.6 1.65c-2.647.1-4.664-2.647-6.357-5.094-3.463-5-6.105-14.132-2.552-20.3a9.854 9.854 0 0 1 8.331-5.051c2.6-.048 5.059 1.754 6.647 1.754s4.576-2.165 7.714-1.845a9.4 9.4 0 0 1 7.366 3.991 9.108 9.108 0 0 0-4.351 7.67 8.906 8.906 0 0 0 5.406 8.148 22.381 22.381 0 0 1-2.792 5.727z" fill="#50e3c2"/></svg>