<svg xmlns="http://www.w3.org/2000/svg" width="64" height="64"><path d="M32 63.999a31.8 31.8 0 0 1-12.457-2.515 31.891 31.891 0 0 1-10.171-6.858 31.889 31.889 0 0 1-6.858-10.172A31.806 31.806 0 0 1 0 31.999a31.8 31.8 0 0 1 2.515-12.456A31.891 31.891 0 0 1 9.373 9.372a31.894 31.894 0 0 1 10.171-6.858A31.807 31.807 0 0 1 32-.001a31.8 31.8 0 0 1 12.456 2.515 31.885 31.885 0 0 1 10.171 6.858 31.877 31.877 0 0 1 6.858 10.171A31.8 31.8 0 0 1 64 31.999a31.806 31.806 0 0 1-2.515 12.456 31.885 31.885 0 0 1-6.858 10.172 31.891 31.891 0 0 1-10.171 6.858A31.8 31.8 0 0 1 32 63.999zm10.819-17.956a4.1 4.1 0 0 0-2.062.56 4.208 4.208 0 0 0-1.512 5.706 4.137 4.137 0 0 0 3.582 2.089 4.1 4.1 0 0 0 2.063-.561 4.2 4.2 0 0 0 1.511-5.706 4.137 4.137 0 0 0-3.582-2.087zm-15.371-3.238l-2.909 5.282a17.417 17.417 0 0 0 7.874 1.858 17.609 17.609 0 0 0 4.662-.626 5.868 5.868 0 0 1 2.839-4.191 5.761 5.761 0 0 1 2.9-.788 5.775 5.775 0 0 1 2.1.4 18 18 0 0 0 5.213-11.589l-5.981-.1a11.924 11.924 0 0 1-3.758 7.711 11.679 11.679 0 0 1-7.981 3.147 11.588 11.588 0 0 1-4.965-1.106zm-4.879-25.742a17.931 17.931 0 0 0-7.324 10.357 5.877 5.877 0 0 1 2.169 4.579 5.881 5.881 0 0 1-2.169 4.58 17.932 17.932 0 0 0 7.324 10.357l3.071-5.188a11.975 11.975 0 0 1-5.011-9.749 11.972 11.972 0 0 1 5.011-9.748l-3.071-5.188zm-10.97 10.758a4.161 4.161 0 0 0-4.134 4.178 4.16 4.16 0 0 0 4.134 4.176 4.159 4.159 0 0 0 4.132-4.176 4.16 4.16 0 0 0-4.131-4.178zm20.814-7.734a11.681 11.681 0 0 1 7.981 3.146 11.92 11.92 0 0 1 3.758 7.71l5.981-.095a17.992 17.992 0 0 0-5.213-11.589 5.775 5.775 0 0 1-2.1.4 5.754 5.754 0 0 1-2.9-.789 5.861 5.861 0 0 1-2.839-4.189 17.667 17.667 0 0 0-4.662-.626 17.415 17.415 0 0 0-7.874 1.858l2.909 5.282a11.587 11.587 0 0 1 4.96-1.108zM42.827 9.599a4.141 4.141 0 0 0-3.583 2.088 4.206 4.206 0 0 0 1.512 5.706 4.1 4.1 0 0 0 2.062.561 4.134 4.134 0 0 0 3.582-2.089 4.2 4.2 0 0 0-1.511-5.706 4.1 4.1 0 0 0-2.061-.56z" fill="#50e3c2"/></svg>