<svg xmlns="http://www.w3.org/2000/svg" width="480" height="155" viewBox="0 0 480 155">
  <defs>
    <style>
      .cls-1 {
        fill: #fff;
      }

      .cls-2 {
        fill: #242424;
      }

      .cls-3 {
        fill: #363636;
      }

      .cls-4 {
        fill: #ff5a5a;
      }
    </style>
  </defs>
  <g id="Group_154" data-name="Group 154" transform="translate(-100 -351)">
    <path id="Path_342" data-name="Path 342" class="cls-1" d="M12,0H468a12,12,0,0,1,12,12V143a12,12,0,0,1-12,12H12A12,12,0,0,1,0,143V12A12,12,0,0,1,12,0Z" transform="translate(100 351)"/>
    <path id="Path_343" data-name="Path 343" class="cls-2" d="M4.848,0H2.28V-17.136h9.648v2.208H4.848v5.592h6.624v2.208H4.848ZM19.68-13.176a5.363,5.363,0,0,1,3.636,1.068A4.239,4.239,0,0,1,24.528-8.76V0h-1.8l-.5-1.8h-.1A5.781,5.781,0,0,1,20.364-.252,5.5,5.5,0,0,1,17.808.24a4.419,4.419,0,0,1-2.9-.948,3.618,3.618,0,0,1-1.152-2.964,3.407,3.407,0,0,1,1.5-3.012A8.714,8.714,0,0,1,19.824-7.8l2.208-.072v-.72a2.609,2.609,0,0,0-.648-2,2.618,2.618,0,0,0-1.824-.588,6.259,6.259,0,0,0-1.9.288,12.884,12.884,0,0,0-1.752.7L15.1-12.048a10.356,10.356,0,0,1,2.1-.8A9.4,9.4,0,0,1,19.68-13.176Zm2.328,6.96-1.728.048a5.7,5.7,0,0,0-3.06.744,2.11,2.11,0,0,0-.852,1.776,1.721,1.721,0,0,0,.6,1.464,2.509,2.509,0,0,0,1.56.456,3.721,3.721,0,0,0,2.484-.84,3.111,3.111,0,0,0,1-2.52ZM33.648.24a5.913,5.913,0,0,1-4.32-1.6Q27.7-2.952,27.7-6.384a8.267,8.267,0,0,1,.792-3.888,5.037,5.037,0,0,1,2.184-2.2,6.89,6.89,0,0,1,3.168-.708,9.113,9.113,0,0,1,2.028.216,7.057,7.057,0,0,1,1.572.528l-.768,2.064q-.672-.24-1.416-.444a5.437,5.437,0,0,0-1.44-.2q-3.5,0-3.5,4.608a5.539,5.539,0,0,0,.864,3.36A2.981,2.981,0,0,0,33.72-1.9a6.9,6.9,0,0,0,1.9-.24,7.345,7.345,0,0,0,1.536-.624V-.552a5.43,5.43,0,0,1-1.512.6A8.839,8.839,0,0,1,33.648.24Zm11.64-13.416A5.209,5.209,0,0,1,49.3-11.6,6.038,6.038,0,0,1,50.76-7.32v1.392H42.072A4.442,4.442,0,0,0,43.116-2.88a3.658,3.658,0,0,0,2.8,1.056,9.766,9.766,0,0,0,2.22-.228,11.429,11.429,0,0,0,2-.684V-.624a9.043,9.043,0,0,1-1.968.66,11.747,11.747,0,0,1-2.352.2A7.114,7.114,0,0,1,42.5-.5,5.285,5.285,0,0,1,40.26-2.712a7.5,7.5,0,0,1-.8-3.648,8.432,8.432,0,0,1,.732-3.7,5.4,5.4,0,0,1,2.04-2.316A5.725,5.725,0,0,1,45.288-13.176Zm0,1.968a2.86,2.86,0,0,0-2.2.888A4.113,4.113,0,0,0,42.12-7.8h6.1a4.119,4.119,0,0,0-.732-2.46A2.562,2.562,0,0,0,45.288-11.208ZM56.472-18.24v4.392q0,.768-.036,1.5t-.084,1.116h.12A4.551,4.551,0,0,1,57.96-12.6a4.728,4.728,0,0,1,2.424-.552,4.689,4.689,0,0,1,3.756,1.68A7.538,7.538,0,0,1,65.568-6.48a7.585,7.585,0,0,1-1.44,5.028A4.71,4.71,0,0,1,60.36.24,4.745,4.745,0,0,1,57.948-.3a4.85,4.85,0,0,1-1.476-1.284H56.28L55.8,0H53.928V-18.24Zm3.312,7.152A2.845,2.845,0,0,0,57.216-10a6.3,6.3,0,0,0-.744,3.348v.192a6.75,6.75,0,0,0,.708,3.42,2.827,2.827,0,0,0,2.652,1.188,2.605,2.605,0,0,0,2.34-1.2,6.353,6.353,0,0,0,.78-3.456Q62.952-11.088,59.784-11.088ZM80.208-6.48a6.953,6.953,0,0,1-1.656,4.968A5.85,5.85,0,0,1,74.088.24,6.121,6.121,0,0,1,70.98-.54a5.46,5.46,0,0,1-2.136-2.28,7.857,7.857,0,0,1-.78-3.66A6.972,6.972,0,0,1,69.7-11.436a5.824,5.824,0,0,1,4.464-1.74,6.169,6.169,0,0,1,3.132.78,5.475,5.475,0,0,1,2.136,2.268A7.783,7.783,0,0,1,80.208-6.48Zm-9.528,0a6.03,6.03,0,0,0,.828,3.408,2.945,2.945,0,0,0,2.628,1.224,2.945,2.945,0,0,0,2.628-1.224,6.03,6.03,0,0,0,.828-3.408,5.9,5.9,0,0,0-.828-3.4,3,3,0,0,0-2.652-1.188A2.947,2.947,0,0,0,71.5-9.876,5.966,5.966,0,0,0,70.68-6.48Zm24.144,0a6.953,6.953,0,0,1-1.656,4.968A5.85,5.85,0,0,1,88.7.24,6.121,6.121,0,0,1,85.6-.54,5.46,5.46,0,0,1,83.46-2.82a7.857,7.857,0,0,1-.78-3.66,6.972,6.972,0,0,1,1.632-4.956,5.824,5.824,0,0,1,4.464-1.74,6.169,6.169,0,0,1,3.132.78,5.475,5.475,0,0,1,2.136,2.268A7.783,7.783,0,0,1,94.824-6.48Zm-9.528,0a6.03,6.03,0,0,0,.828,3.408,2.945,2.945,0,0,0,2.628,1.224A2.945,2.945,0,0,0,91.38-3.072a6.03,6.03,0,0,0,.828-3.408,5.9,5.9,0,0,0-.828-3.4,3,3,0,0,0-2.652-1.188,2.947,2.947,0,0,0-2.616,1.188A5.966,5.966,0,0,0,85.3-6.48ZM100.56-18.24v9.12q0,.48-.048,1.152t-.072,1.2h.072q.264-.36.732-.948t.828-.972l3.96-4.248h2.952l-5.208,5.544L109.32,0h-3l-4.272-5.784L100.56-4.536V0H98.04V-18.24Zm31.3,9.5q0,4.344-2.388,6.54A9.509,9.509,0,0,1,122.784,0h-4.8V-17.136h5.3a10.031,10.031,0,0,1,4.536.96,6.874,6.874,0,0,1,2.976,2.832A9.258,9.258,0,0,1,131.856-8.736Zm-2.712.072a6.408,6.408,0,0,0-1.56-4.764,6.126,6.126,0,0,0-4.464-1.524h-2.544V-2.184h2.088Q129.144-2.184,129.144-8.664Zm7.44-9.192a1.6,1.6,0,0,1,1.008.336,1.344,1.344,0,0,1,.432,1.128,1.349,1.349,0,0,1-.432,1.116,1.559,1.559,0,0,1-1.008.348,1.594,1.594,0,0,1-1.032-.348,1.349,1.349,0,0,1-.432-1.116,1.344,1.344,0,0,1,.432-1.128A1.631,1.631,0,0,1,136.584-17.856Zm1.248,4.92V0h-2.544V-12.936Zm12.576,9.288a3.338,3.338,0,0,1-1.38,2.9,6.6,6.6,0,0,1-3.876.984,12.267,12.267,0,0,1-2.34-.192,7.02,7.02,0,0,1-1.788-.6V-2.784a12.167,12.167,0,0,0,1.98.732,8.1,8.1,0,0,0,2.22.324,3.642,3.642,0,0,0,2.076-.456,1.432,1.432,0,0,0,.636-1.224,1.342,1.342,0,0,0-.24-.78,2.7,2.7,0,0,0-.9-.72,14.762,14.762,0,0,0-1.932-.852,14.117,14.117,0,0,1-2.1-.984,3.893,3.893,0,0,1-1.308-1.2A3.135,3.135,0,0,1,141-9.7a2.912,2.912,0,0,1,1.356-2.58,6.392,6.392,0,0,1,3.588-.9,9.888,9.888,0,0,1,2.22.24,11.372,11.372,0,0,1,2.028.672l-.84,1.944a14.275,14.275,0,0,0-1.728-.612,6.563,6.563,0,0,0-1.8-.252q-2.352,0-2.352,1.368a1.209,1.209,0,0,0,.276.792,2.905,2.905,0,0,0,.96.672q.684.336,1.908.816a14.72,14.72,0,0,1,2.028.948A3.787,3.787,0,0,1,149.952-5.4,3.135,3.135,0,0,1,150.408-3.648Zm7.68,1.824a5.7,5.7,0,0,0,1.944-.312v1.92a4.73,4.73,0,0,1-1.1.324,7.455,7.455,0,0,1-1.392.132A5.036,5.036,0,0,1,155.6-.12a2.9,2.9,0,0,1-1.4-1.248,4.851,4.851,0,0,1-.528-2.472v-7.152h-1.8v-1.152l1.9-.96.888-2.736h1.56v2.9h3.7v1.944h-3.7v7.1a2.1,2.1,0,0,0,.516,1.56A1.858,1.858,0,0,0,158.088-1.824Zm10.92-11.352a7.79,7.79,0,0,1,1.416.12l-.264,2.376a4.963,4.963,0,0,0-1.3-.168,3.614,3.614,0,0,0-1.824.48,3.626,3.626,0,0,0-1.356,1.38,4.3,4.3,0,0,0-.516,2.172V0h-2.544V-12.936h2.016l.336,2.3h.1a5.985,5.985,0,0,1,1.608-1.788A3.775,3.775,0,0,1,169.008-13.176Zm8.352,0A5.363,5.363,0,0,1,181-12.108a4.239,4.239,0,0,1,1.212,3.348V0h-1.8l-.5-1.8h-.1a5.781,5.781,0,0,1-1.764,1.548,5.5,5.5,0,0,1-2.556.492,4.419,4.419,0,0,1-2.9-.948,3.619,3.619,0,0,1-1.152-2.964,3.407,3.407,0,0,1,1.5-3.012A8.714,8.714,0,0,1,177.5-7.8l2.208-.072v-.72a2.609,2.609,0,0,0-.648-2,2.618,2.618,0,0,0-1.824-.588,6.259,6.259,0,0,0-1.9.288,12.884,12.884,0,0,0-1.752.7l-.816-1.848a10.355,10.355,0,0,1,2.1-.8A9.4,9.4,0,0,1,177.36-13.176Zm2.328,6.96-1.728.048a5.7,5.7,0,0,0-3.06.744,2.11,2.11,0,0,0-.852,1.776,1.721,1.721,0,0,0,.6,1.464,2.509,2.509,0,0,0,1.56.456,3.721,3.721,0,0,0,2.484-.84,3.111,3.111,0,0,0,1-2.52ZM191.328.24a5.913,5.913,0,0,1-4.32-1.6q-1.632-1.6-1.632-5.028a8.267,8.267,0,0,1,.792-3.888,5.037,5.037,0,0,1,2.184-2.2,6.89,6.89,0,0,1,3.168-.708,9.113,9.113,0,0,1,2.028.216,7.057,7.057,0,0,1,1.572.528l-.768,2.064q-.672-.24-1.416-.444a5.437,5.437,0,0,0-1.44-.2q-3.5,0-3.5,4.608a5.539,5.539,0,0,0,.864,3.36A2.981,2.981,0,0,0,191.4-1.9a6.9,6.9,0,0,0,1.9-.24,7.345,7.345,0,0,0,1.536-.624V-.552a5.43,5.43,0,0,1-1.512.6A8.839,8.839,0,0,1,191.328.24Zm11.208-2.064a5.7,5.7,0,0,0,1.944-.312v1.92a4.73,4.73,0,0,1-1.1.324,7.455,7.455,0,0,1-1.392.132,5.036,5.036,0,0,1-1.932-.36,2.9,2.9,0,0,1-1.4-1.248,4.851,4.851,0,0,1-.528-2.472v-7.152h-1.8v-1.152l1.9-.96.888-2.736h1.56v2.9h3.7v1.944h-3.7v7.1a2.1,2.1,0,0,0,.516,1.56A1.858,1.858,0,0,0,202.536-1.824Zm5.832-16.032a1.6,1.6,0,0,1,1.008.336,1.344,1.344,0,0,1,.432,1.128,1.349,1.349,0,0,1-.432,1.116,1.559,1.559,0,0,1-1.008.348,1.594,1.594,0,0,1-1.032-.348,1.349,1.349,0,0,1-.432-1.116,1.344,1.344,0,0,1,.432-1.128A1.631,1.631,0,0,1,208.368-17.856Zm1.248,4.92V0h-2.544V-12.936ZM225-6.48a6.953,6.953,0,0,1-1.656,4.968A5.85,5.85,0,0,1,218.88.24a6.121,6.121,0,0,1-3.108-.78,5.46,5.46,0,0,1-2.136-2.28,7.857,7.857,0,0,1-.78-3.66,6.972,6.972,0,0,1,1.632-4.956,5.824,5.824,0,0,1,4.464-1.74,6.169,6.169,0,0,1,3.132.78,5.475,5.475,0,0,1,2.136,2.268A7.783,7.783,0,0,1,225-6.48Zm-9.528,0a6.03,6.03,0,0,0,.828,3.408,2.945,2.945,0,0,0,2.628,1.224,2.945,2.945,0,0,0,2.628-1.224,6.03,6.03,0,0,0,.828-3.408,5.9,5.9,0,0,0-.828-3.4,3,3,0,0,0-2.652-1.188,2.947,2.947,0,0,0-2.616,1.188A5.966,5.966,0,0,0,215.472-6.48Zm19.3-6.7a4.86,4.86,0,0,1,3.456,1.128,4.778,4.778,0,0,1,1.2,3.624V0H236.9V-8.064q0-3.024-2.664-3.024a2.987,2.987,0,0,0-2.724,1.176,6.275,6.275,0,0,0-.756,3.384V0h-2.544V-12.936h2.016l.36,1.728h.144a3.744,3.744,0,0,1,1.716-1.488A5.692,5.692,0,0,1,234.768-13.176Z" transform="translate(124 398)"/>
    <path id="Path_344" data-name="Path 344" class="cls-3" d="M10.432,17H8.7V11.784H3.248V17H1.52V5.576H3.248v4.736H8.7V5.576h1.728Zm6.256-8.784A3.473,3.473,0,0,1,19.36,9.264a4.025,4.025,0,0,1,.976,2.856v.928H14.544a2.961,2.961,0,0,0,.7,2.032,2.438,2.438,0,0,0,1.864.7,6.511,6.511,0,0,0,1.48-.152,7.619,7.619,0,0,0,1.336-.456v1.408a6.029,6.029,0,0,1-1.312.44,7.831,7.831,0,0,1-1.568.136,4.742,4.742,0,0,1-2.208-.5,3.524,3.524,0,0,1-1.5-1.472A5,5,0,0,1,12.8,12.76a5.621,5.621,0,0,1,.488-2.464,3.6,3.6,0,0,1,1.36-1.544A3.817,3.817,0,0,1,16.688,8.216Zm0,1.312a1.907,1.907,0,0,0-1.464.592,2.742,2.742,0,0,0-.648,1.68H18.64a2.746,2.746,0,0,0-.488-1.64A1.708,1.708,0,0,0,16.688,9.528Zm4.128-1.152H22.64l1.792,4.9q.208.56.368,1.072a5.869,5.869,0,0,1,.224,1.024h.064q.08-.416.248-.976t.376-1.136l1.7-4.88h1.824l-3.7,9.792a4.939,4.939,0,0,1-1.24,1.96,2.876,2.876,0,0,1-2.024.712,5.088,5.088,0,0,1-.688-.04q-.288-.04-.5-.088V19.368q.16.032.416.064a4.254,4.254,0,0,0,.528.032,1.652,1.652,0,0,0,1.184-.424,2.886,2.886,0,0,0,.7-1.112L24.272,17ZM31.7,15.144l.112.176a16.328,16.328,0,0,1-.592,1.864q-.384,1.016-.784,1.88H29.2q.224-.928.448-2.008T30,15.144ZM40.352,17H38.64V5.576h6.432V7.048h-4.72v3.728h4.416v1.472H40.352ZM50.24,8.216a3.575,3.575,0,0,1,2.424.712,2.826,2.826,0,0,1,.808,2.232V17h-1.2l-.336-1.2h-.064A3.854,3.854,0,0,1,50.7,16.832a3.664,3.664,0,0,1-1.7.328,2.946,2.946,0,0,1-1.936-.632,2.412,2.412,0,0,1-.768-1.976,2.271,2.271,0,0,1,1-2.008,5.809,5.809,0,0,1,3.048-.744l1.472-.048v-.48a1.739,1.739,0,0,0-.432-1.336,1.745,1.745,0,0,0-1.216-.392,4.172,4.172,0,0,0-1.264.192,8.589,8.589,0,0,0-1.168.464l-.544-1.232a6.9,6.9,0,0,1,1.4-.536A6.266,6.266,0,0,1,50.24,8.216Zm1.552,4.64-1.152.032a3.8,3.8,0,0,0-2.04.5,1.406,1.406,0,0,0-.568,1.184,1.147,1.147,0,0,0,.4.976,1.673,1.673,0,0,0,1.04.3,2.48,2.48,0,0,0,1.656-.56,2.074,2.074,0,0,0,.664-1.68Zm7.76,4.3a3.942,3.942,0,0,1-2.88-1.064,4.516,4.516,0,0,1-1.088-3.352,5.512,5.512,0,0,1,.528-2.592,3.358,3.358,0,0,1,1.456-1.464,4.593,4.593,0,0,1,2.112-.472,6.076,6.076,0,0,1,1.352.144,4.7,4.7,0,0,1,1.048.352l-.512,1.376q-.448-.16-.944-.3a3.625,3.625,0,0,0-.96-.136q-2.336,0-2.336,3.072a3.693,3.693,0,0,0,.576,2.24,1.987,1.987,0,0,0,1.7.768,4.6,4.6,0,0,0,1.264-.16,4.9,4.9,0,0,0,1.024-.416v1.472a3.62,3.62,0,0,1-1.008.4A5.892,5.892,0,0,1,59.552,17.16Zm7.76-8.944a3.473,3.473,0,0,1,2.672,1.048,4.025,4.025,0,0,1,.976,2.856v.928H65.168a2.961,2.961,0,0,0,.7,2.032,2.438,2.438,0,0,0,1.864.7,6.511,6.511,0,0,0,1.48-.152,7.619,7.619,0,0,0,1.336-.456v1.408a6.029,6.029,0,0,1-1.312.44,7.831,7.831,0,0,1-1.568.136,4.742,4.742,0,0,1-2.208-.5,3.524,3.524,0,0,1-1.5-1.472,5,5,0,0,1-.536-2.432,5.621,5.621,0,0,1,.488-2.464,3.6,3.6,0,0,1,1.36-1.544A3.817,3.817,0,0,1,67.312,8.216Zm0,1.312a1.907,1.907,0,0,0-1.464.592A2.742,2.742,0,0,0,65.2,11.8h4.064a2.746,2.746,0,0,0-.488-1.64A1.708,1.708,0,0,0,67.312,9.528ZM74.768,4.84V7.768q0,.512-.024,1t-.056.744h.08A3.034,3.034,0,0,1,75.76,8.6a3.485,3.485,0,0,1,4.12.752,5.025,5.025,0,0,1,.952,3.328,5.057,5.057,0,0,1-.96,3.352,3.5,3.5,0,0,1-4.12.768,3.234,3.234,0,0,1-.984-.856H74.64L74.32,17H73.072V4.84Zm2.208,4.768a1.9,1.9,0,0,0-1.712.728,4.2,4.2,0,0,0-.5,2.232V12.7a4.5,4.5,0,0,0,.472,2.28,1.885,1.885,0,0,0,1.768.792,1.737,1.737,0,0,0,1.56-.8,4.235,4.235,0,0,0,.52-2.3Q79.088,9.608,76.976,9.608ZM90.592,12.68a4.635,4.635,0,0,1-1.1,3.312,3.9,3.9,0,0,1-2.976,1.168,4.08,4.08,0,0,1-2.072-.52,3.64,3.64,0,0,1-1.424-1.52,5.238,5.238,0,0,1-.52-2.44,4.648,4.648,0,0,1,1.088-3.3,3.882,3.882,0,0,1,2.976-1.16,4.113,4.113,0,0,1,2.088.52,3.65,3.65,0,0,1,1.424,1.512A5.189,5.189,0,0,1,90.592,12.68Zm-6.352,0a4.02,4.02,0,0,0,.552,2.272,2.289,2.289,0,0,0,3.5,0,4.02,4.02,0,0,0,.552-2.272,3.933,3.933,0,0,0-.552-2.264,2,2,0,0,0-1.768-.792,1.965,1.965,0,0,0-1.744.792A3.978,3.978,0,0,0,84.24,12.68Zm16.1,0a4.635,4.635,0,0,1-1.1,3.312,3.9,3.9,0,0,1-2.976,1.168,4.08,4.08,0,0,1-2.072-.52,3.64,3.64,0,0,1-1.424-1.52,5.238,5.238,0,0,1-.52-2.44,4.648,4.648,0,0,1,1.088-3.3A3.882,3.882,0,0,1,96.3,8.216a4.113,4.113,0,0,1,2.088.52,3.65,3.65,0,0,1,1.424,1.512A5.189,5.189,0,0,1,100.336,12.68Zm-6.352,0a4.02,4.02,0,0,0,.552,2.272,2.289,2.289,0,0,0,3.5,0,4.02,4.02,0,0,0,.552-2.272,3.933,3.933,0,0,0-.552-2.264,2,2,0,0,0-1.768-.792,1.965,1.965,0,0,0-1.744.792A3.978,3.978,0,0,0,93.984,12.68ZM104.16,4.84v6.08q0,.32-.032.768t-.048.8h.048q.176-.24.488-.632t.552-.648l2.64-2.832h1.968l-3.472,3.7L110,17h-2l-2.848-3.856-.992.832V17h-1.68V4.84Zm12.288.256a1.063,1.063,0,0,1,.672.224.9.9,0,0,1,.288.752.9.9,0,0,1-.288.744,1.04,1.04,0,0,1-.672.232,1.063,1.063,0,0,1-.688-.232.9.9,0,0,1-.288-.744.9.9,0,0,1,.288-.752A1.087,1.087,0,0,1,116.448,5.1Zm.832,3.28V17h-1.7V8.376Zm8.384,6.192a2.225,2.225,0,0,1-.92,1.936,4.4,4.4,0,0,1-2.584.656,8.178,8.178,0,0,1-1.56-.128,4.679,4.679,0,0,1-1.192-.4V15.144a8.111,8.111,0,0,0,1.32.488,5.4,5.4,0,0,0,1.48.216,2.428,2.428,0,0,0,1.384-.3.955.955,0,0,0,.424-.816.9.9,0,0,0-.16-.52,1.8,1.8,0,0,0-.6-.48,9.841,9.841,0,0,0-1.288-.568,9.411,9.411,0,0,1-1.4-.656,2.6,2.6,0,0,1-.872-.8,2.09,2.09,0,0,1-.3-1.168,1.942,1.942,0,0,1,.9-1.72,4.261,4.261,0,0,1,2.392-.6,6.592,6.592,0,0,1,1.48.16,7.582,7.582,0,0,1,1.352.448l-.56,1.3a9.516,9.516,0,0,0-1.152-.408,4.375,4.375,0,0,0-1.2-.168q-1.568,0-1.568.912a.806.806,0,0,0,.184.528,1.937,1.937,0,0,0,.64.448q.456.224,1.272.544a9.814,9.814,0,0,1,1.352.632,2.524,2.524,0,0,1,.872.792A2.09,2.09,0,0,1,125.664,14.568ZM139.44,12.68a4.635,4.635,0,0,1-1.1,3.312,3.9,3.9,0,0,1-2.976,1.168,4.08,4.08,0,0,1-2.072-.52,3.64,3.64,0,0,1-1.424-1.52,5.238,5.238,0,0,1-.52-2.44,4.648,4.648,0,0,1,1.088-3.3,3.882,3.882,0,0,1,2.976-1.16,4.113,4.113,0,0,1,2.088.52,3.65,3.65,0,0,1,1.424,1.512A5.189,5.189,0,0,1,139.44,12.68Zm-6.352,0a4.02,4.02,0,0,0,.552,2.272,2.289,2.289,0,0,0,3.5,0,4.02,4.02,0,0,0,.552-2.272,3.933,3.933,0,0,0-.552-2.264,2,2,0,0,0-1.768-.792,1.965,1.965,0,0,0-1.744.792A3.978,3.978,0,0,0,133.088,12.68Zm12.864-4.464a3.24,3.24,0,0,1,2.3.752,3.185,3.185,0,0,1,.8,2.416V17h-1.68V11.624q0-2.016-1.776-2.016a1.992,1.992,0,0,0-1.816.784,4.184,4.184,0,0,0-.5,2.256V17h-1.7V8.376h1.344l.24,1.152h.1a2.5,2.5,0,0,1,1.144-.992A3.8,3.8,0,0,1,145.952,8.216Zm8.56.16h1.824l1.792,4.9q.208.56.368,1.072a5.868,5.868,0,0,1,.224,1.024h.064q.08-.416.248-.976t.376-1.136l1.7-4.88h1.824l-3.7,9.792a4.939,4.939,0,0,1-1.24,1.96,2.876,2.876,0,0,1-2.024.712,5.088,5.088,0,0,1-.688-.04q-.288-.04-.5-.088V19.368q.16.032.416.064a4.255,4.255,0,0,0,.528.032,1.652,1.652,0,0,0,1.184-.424,2.886,2.886,0,0,0,.7-1.112l.352-.928Zm17.344,4.3a4.635,4.635,0,0,1-1.1,3.312,3.9,3.9,0,0,1-2.976,1.168,4.08,4.08,0,0,1-2.072-.52,3.64,3.64,0,0,1-1.424-1.52,5.238,5.238,0,0,1-.52-2.44,4.648,4.648,0,0,1,1.088-3.3,3.882,3.882,0,0,1,2.976-1.16,4.113,4.113,0,0,1,2.088.52,3.65,3.65,0,0,1,1.424,1.512A5.189,5.189,0,0,1,171.856,12.68Zm-6.352,0a4.02,4.02,0,0,0,.552,2.272,2.289,2.289,0,0,0,3.5,0,4.02,4.02,0,0,0,.552-2.272,3.933,3.933,0,0,0-.552-2.264,2,2,0,0,0-1.768-.792,1.965,1.965,0,0,0-1.744.792A3.978,3.978,0,0,0,165.5,12.68Zm15.92-4.3V17h-1.36l-.24-1.136h-.08a2.443,2.443,0,0,1-1.152.984,3.936,3.936,0,0,1-1.552.312,3.287,3.287,0,0,1-2.32-.744,3.133,3.133,0,0,1-.8-2.392V8.376h1.712v5.392a2.27,2.27,0,0,0,.424,1.5,1.643,1.643,0,0,0,1.32.5,2.039,2.039,0,0,0,1.84-.776,4.089,4.089,0,0,0,.512-2.248V8.376Zm6.912-.16a5.193,5.193,0,0,1,.944.08L189.1,9.88a3.309,3.309,0,0,0-.864-.112,2.4,2.4,0,0,0-2.12,1.24,2.866,2.866,0,0,0-.344,1.448V17h-1.7V8.376h1.344l.224,1.536h.064a3.99,3.99,0,0,1,1.072-1.192A2.517,2.517,0,0,1,188.336,8.216ZM198,17.16a3.12,3.12,0,0,1-2.512-1.12,5.055,5.055,0,0,1-.944-3.328,5.09,5.09,0,0,1,.96-3.36,3.148,3.148,0,0,1,2.528-1.136,3.116,3.116,0,0,1,1.6.368,3.292,3.292,0,0,1,1.008.9h.1q-.032-.224-.08-.656a6.929,6.929,0,0,1-.048-.752V4.84h1.7V17h-1.328l-.288-1.152h-.08a3.2,3.2,0,0,1-.992.928A3.046,3.046,0,0,1,198,17.16Zm.4-1.392a2.032,2.032,0,0,0,1.752-.688,3.622,3.622,0,0,0,.52-2.1v-.256a4.5,4.5,0,0,0-.488-2.32,1.935,1.935,0,0,0-1.8-.8,1.737,1.737,0,0,0-1.568.832,4.283,4.283,0,0,0-.528,2.3,4,4,0,0,0,.528,2.24A1.782,1.782,0,0,0,198.4,15.768ZM205.824,5.1a1.063,1.063,0,0,1,.672.224.9.9,0,0,1,.288.752.9.9,0,0,1-.288.744,1.04,1.04,0,0,1-.672.232,1.063,1.063,0,0,1-.688-.232.9.9,0,0,1-.288-.744.9.9,0,0,1,.288-.752A1.087,1.087,0,0,1,205.824,5.1Zm.832,3.28V17h-1.7V8.376Zm8.384,6.192a2.225,2.225,0,0,1-.92,1.936,4.4,4.4,0,0,1-2.584.656,8.178,8.178,0,0,1-1.56-.128,4.679,4.679,0,0,1-1.192-.4V15.144a8.111,8.111,0,0,0,1.32.488,5.4,5.4,0,0,0,1.48.216,2.428,2.428,0,0,0,1.384-.3.955.955,0,0,0,.424-.816.9.9,0,0,0-.16-.52,1.8,1.8,0,0,0-.6-.48,9.842,9.842,0,0,0-1.288-.568,9.41,9.41,0,0,1-1.4-.656,2.6,2.6,0,0,1-.872-.8,2.09,2.09,0,0,1-.3-1.168,1.942,1.942,0,0,1,.9-1.72,4.261,4.261,0,0,1,2.392-.6,6.592,6.592,0,0,1,1.48.16,7.581,7.581,0,0,1,1.352.448l-.56,1.3a9.517,9.517,0,0,0-1.152-.408,4.375,4.375,0,0,0-1.2-.168q-1.568,0-1.568.912a.806.806,0,0,0,.184.528,1.937,1.937,0,0,0,.64.448q.456.224,1.272.544a9.814,9.814,0,0,1,1.352.632,2.524,2.524,0,0,1,.872.792A2.09,2.09,0,0,1,215.04,14.568Zm5.12,1.216a3.8,3.8,0,0,0,1.3-.208v1.28a3.154,3.154,0,0,1-.736.216,4.97,4.97,0,0,1-.928.088,3.357,3.357,0,0,1-1.288-.24,1.931,1.931,0,0,1-.936-.832,3.234,3.234,0,0,1-.352-1.648V9.672h-1.2V8.9l1.264-.64.592-1.824h1.04V8.376h2.464v1.3h-2.464v4.736a1.4,1.4,0,0,0,.344,1.04A1.238,1.238,0,0,0,220.16,15.784Zm7.28-7.568a5.193,5.193,0,0,1,.944.08l-.176,1.584a3.309,3.309,0,0,0-.864-.112,2.4,2.4,0,0,0-2.12,1.24,2.866,2.866,0,0,0-.344,1.448V17h-1.7V8.376h1.344l.224,1.536h.064a3.99,3.99,0,0,1,1.072-1.192A2.517,2.517,0,0,1,227.44,8.216Zm5.568,0a3.575,3.575,0,0,1,2.424.712,2.826,2.826,0,0,1,.808,2.232V17h-1.2l-.336-1.2h-.064a3.854,3.854,0,0,1-1.176,1.032,3.664,3.664,0,0,1-1.7.328,2.946,2.946,0,0,1-1.936-.632,2.412,2.412,0,0,1-.768-1.976,2.271,2.271,0,0,1,1-2.008A5.809,5.809,0,0,1,233.1,11.8l1.472-.048v-.48a1.739,1.739,0,0,0-.432-1.336,1.745,1.745,0,0,0-1.216-.392,4.172,4.172,0,0,0-1.264.192,8.589,8.589,0,0,0-1.168.464l-.544-1.232a6.9,6.9,0,0,1,1.4-.536A6.266,6.266,0,0,1,233.008,8.216Zm1.552,4.64-1.152.032a3.8,3.8,0,0,0-2.04.5,1.406,1.406,0,0,0-.568,1.184,1.147,1.147,0,0,0,.4.976,1.673,1.673,0,0,0,1.04.3,2.48,2.48,0,0,0,1.656-.56,2.074,2.074,0,0,0,.664-1.68Zm7.76,4.3a3.942,3.942,0,0,1-2.88-1.064,4.516,4.516,0,0,1-1.088-3.352,5.512,5.512,0,0,1,.528-2.592,3.358,3.358,0,0,1,1.456-1.464,4.593,4.593,0,0,1,2.112-.472,6.076,6.076,0,0,1,1.352.144,4.7,4.7,0,0,1,1.048.352l-.512,1.376q-.448-.16-.944-.3a3.625,3.625,0,0,0-.96-.136q-2.336,0-2.336,3.072a3.693,3.693,0,0,0,.576,2.24,1.987,1.987,0,0,0,1.7.768,4.6,4.6,0,0,0,1.264-.16,4.9,4.9,0,0,0,1.024-.416v1.472a3.62,3.62,0,0,1-1.008.4A5.893,5.893,0,0,1,242.32,17.16Zm7.472-1.376a3.8,3.8,0,0,0,1.3-.208v1.28a3.154,3.154,0,0,1-.736.216,4.97,4.97,0,0,1-.928.088,3.357,3.357,0,0,1-1.288-.24,1.931,1.931,0,0,1-.936-.832,3.234,3.234,0,0,1-.352-1.648V9.672h-1.2V8.9l1.264-.64L247.5,6.44h1.04V8.376h2.464v1.3h-2.464v4.736a1.4,1.4,0,0,0,.344,1.04A1.238,1.238,0,0,0,249.792,15.784ZM253.68,5.1a1.063,1.063,0,0,1,.672.224.9.9,0,0,1,.288.752.9.9,0,0,1-.288.744,1.04,1.04,0,0,1-.672.232,1.063,1.063,0,0,1-.688-.232.9.9,0,0,1-.288-.744.9.9,0,0,1,.288-.752A1.087,1.087,0,0,1,253.68,5.1Zm.832,3.28V17h-1.7V8.376Zm10.256,4.3a4.635,4.635,0,0,1-1.1,3.312,3.9,3.9,0,0,1-2.976,1.168,4.08,4.08,0,0,1-2.072-.52,3.64,3.64,0,0,1-1.424-1.52,5.238,5.238,0,0,1-.52-2.44,4.648,4.648,0,0,1,1.088-3.3,3.882,3.882,0,0,1,2.976-1.16,4.113,4.113,0,0,1,2.088.52,3.65,3.65,0,0,1,1.424,1.512A5.189,5.189,0,0,1,264.768,12.68Zm-6.352,0a4.02,4.02,0,0,0,.552,2.272,2.289,2.289,0,0,0,3.5,0,4.02,4.02,0,0,0,.552-2.272,3.932,3.932,0,0,0-.552-2.264,2,2,0,0,0-1.768-.792,1.965,1.965,0,0,0-1.744.792A3.978,3.978,0,0,0,258.416,12.68ZM271.28,8.216a3.24,3.24,0,0,1,2.3.752,3.185,3.185,0,0,1,.8,2.416V17H272.7V11.624q0-2.016-1.776-2.016a1.991,1.991,0,0,0-1.816.784,4.183,4.183,0,0,0-.5,2.256V17h-1.7V8.376h1.344l.24,1.152h.1a2.5,2.5,0,0,1,1.144-.992A3.8,3.8,0,0,1,271.28,8.216Zm11.44,6.352a2.225,2.225,0,0,1-.92,1.936,4.4,4.4,0,0,1-2.584.656,8.178,8.178,0,0,1-1.56-.128,4.68,4.68,0,0,1-1.192-.4V15.144a8.111,8.111,0,0,0,1.32.488,5.4,5.4,0,0,0,1.48.216,2.428,2.428,0,0,0,1.384-.3.955.955,0,0,0,.424-.816.9.9,0,0,0-.16-.52,1.8,1.8,0,0,0-.6-.48,9.842,9.842,0,0,0-1.288-.568,9.412,9.412,0,0,1-1.4-.656,2.6,2.6,0,0,1-.872-.8,2.09,2.09,0,0,1-.3-1.168,1.942,1.942,0,0,1,.9-1.72,4.261,4.261,0,0,1,2.392-.6,6.592,6.592,0,0,1,1.48.16,7.58,7.58,0,0,1,1.352.448l-.56,1.3a9.516,9.516,0,0,0-1.152-.408,4.375,4.375,0,0,0-1.2-.168q-1.568,0-1.568.912a.806.806,0,0,0,.184.528,1.937,1.937,0,0,0,.64.448q.456.224,1.272.544a9.813,9.813,0,0,1,1.352.632,2.524,2.524,0,0,1,.872.792A2.09,2.09,0,0,1,282.72,14.568ZM290.592,17h-1.7V4.84h1.7Zm3.52-11.9a1.063,1.063,0,0,1,.672.224.9.9,0,0,1,.288.752.9.9,0,0,1-.288.744,1.04,1.04,0,0,1-.672.232,1.063,1.063,0,0,1-.688-.232.9.9,0,0,1-.288-.744.9.9,0,0,1,.288-.752A1.087,1.087,0,0,1,294.112,5.1Zm.832,3.28V17h-1.7V8.376Zm8.384,6.192a2.225,2.225,0,0,1-.92,1.936,4.4,4.4,0,0,1-2.584.656,8.178,8.178,0,0,1-1.56-.128,4.68,4.68,0,0,1-1.192-.4V15.144a8.111,8.111,0,0,0,1.32.488,5.4,5.4,0,0,0,1.48.216,2.428,2.428,0,0,0,1.384-.3.955.955,0,0,0,.424-.816.9.9,0,0,0-.16-.52,1.8,1.8,0,0,0-.6-.48,9.842,9.842,0,0,0-1.288-.568,9.412,9.412,0,0,1-1.4-.656,2.6,2.6,0,0,1-.872-.8,2.09,2.09,0,0,1-.3-1.168,1.942,1.942,0,0,1,.9-1.72,4.261,4.261,0,0,1,2.392-.6,6.592,6.592,0,0,1,1.48.16,7.58,7.58,0,0,1,1.352.448l-.56,1.3a9.516,9.516,0,0,0-1.152-.408,4.375,4.375,0,0,0-1.2-.168q-1.568,0-1.568.912a.806.806,0,0,0,.184.528,1.937,1.937,0,0,0,.64.448q.456.224,1.272.544a9.813,9.813,0,0,1,1.352.632,2.524,2.524,0,0,1,.872.792A2.09,2.09,0,0,1,303.328,14.568Zm5.12,1.216a3.8,3.8,0,0,0,1.3-.208v1.28a3.154,3.154,0,0,1-.736.216,4.97,4.97,0,0,1-.928.088,3.357,3.357,0,0,1-1.288-.24,1.93,1.93,0,0,1-.936-.832,3.234,3.234,0,0,1-.352-1.648V9.672h-1.2V8.9l1.264-.64.592-1.824h1.04V8.376h2.464v1.3H307.2v4.736a1.4,1.4,0,0,0,.344,1.04A1.238,1.238,0,0,0,308.448,15.784Zm2.784.272a1.067,1.067,0,0,1,.32-.88,1.191,1.191,0,0,1,.768-.256,1.224,1.224,0,0,1,.776.256,1.053,1.053,0,0,1,.328.88,1.1,1.1,0,0,1-.328.9,1.177,1.177,0,0,1-.776.272,1.147,1.147,0,0,1-.768-.272A1.117,1.117,0,0,1,311.232,16.056Z" transform="translate(124 409)"/>
    <path id="Path_345" data-name="Path 345" class="cls-2" d="M6.352-9.856A2.885,2.885,0,0,0,3.936-8.744,4.85,4.85,0,0,0,3.072-5.7a5.049,5.049,0,0,0,.8,3.04A2.856,2.856,0,0,0,6.336-1.568,6.617,6.617,0,0,0,7.752-1.72a12.452,12.452,0,0,0,1.432-.408V-.384A7.01,7.01,0,0,1,7.768.032,9.35,9.35,0,0,1,6.128.16,5.359,5.359,0,0,1,3.216-.568,4.376,4.376,0,0,1,1.5-2.616a7.884,7.884,0,0,1-.56-3.1A7.056,7.056,0,0,1,1.568-8.76,4.8,4.8,0,0,1,3.4-10.832a5.481,5.481,0,0,1,2.952-.752,7.623,7.623,0,0,1,1.7.192,6.994,6.994,0,0,1,1.576.56l-.7,1.68Q8.32-9.424,7.672-9.64A4.149,4.149,0,0,0,6.352-9.856ZM13.472,0H11.456V-12.16h2.016Zm10.32-4.352a4.647,4.647,0,0,1-1.12,3.336A4,4,0,0,1,19.632.16,4.2,4.2,0,0,1,17.52-.368,3.686,3.686,0,0,1,16.064-1.9a5.221,5.221,0,0,1-.528-2.448,4.609,4.609,0,0,1,1.112-3.32,4,4,0,0,1,3.032-1.16,4.279,4.279,0,0,1,2.128.52,3.644,3.644,0,0,1,1.456,1.52A5.172,5.172,0,0,1,23.792-4.352Zm-6.192,0a3.9,3.9,0,0,0,.488,2.128,1.739,1.739,0,0,0,1.576.752,1.742,1.742,0,0,0,1.568-.752,3.852,3.852,0,0,0,.5-2.128,3.769,3.769,0,0,0-.5-2.112A1.772,1.772,0,0,0,19.648-7.2a1.731,1.731,0,0,0-1.568.736A3.869,3.869,0,0,0,17.6-4.352Zm14.176,1.84A2.307,2.307,0,0,1,30.84-.52a4.51,4.51,0,0,1-2.68.68A8.178,8.178,0,0,1,26.6.032a5.836,5.836,0,0,1-1.256-.4V-2.08a8.312,8.312,0,0,0,1.416.512,5.664,5.664,0,0,0,1.464.208,2.156,2.156,0,0,0,1.2-.256.8.8,0,0,0,.368-.688.761.761,0,0,0-.144-.456,1.823,1.823,0,0,0-.56-.44,11.624,11.624,0,0,0-1.264-.592,9.628,9.628,0,0,1-1.384-.672,2.4,2.4,0,0,1-.832-.8,2.3,2.3,0,0,1-.28-1.2,1.971,1.971,0,0,1,.928-1.768,4.449,4.449,0,0,1,2.448-.6,6.882,6.882,0,0,1,1.512.16,7.662,7.662,0,0,1,1.432.48L31.008-6.7a12.376,12.376,0,0,0-1.184-.432,4.029,4.029,0,0,0-1.184-.176q-1.328,0-1.328.752a.68.68,0,0,0,.168.464,2.026,2.026,0,0,0,.592.408q.424.216,1.208.52a9.717,9.717,0,0,1,1.328.632,2.511,2.511,0,0,1,.864.8A2.226,2.226,0,0,1,31.776-2.512ZM37.2-8.832a3.681,3.681,0,0,1,2.76,1.04,3.968,3.968,0,0,1,1.016,2.9v1.024H35.248A2.643,2.643,0,0,0,35.9-2.04a2.286,2.286,0,0,0,1.728.648,6.209,6.209,0,0,0,1.5-.168,8.05,8.05,0,0,0,1.376-.488V-.432a5.9,5.9,0,0,1-1.328.448A8.158,8.158,0,0,1,37.536.16,4.981,4.981,0,0,1,35.28-.328,3.537,3.537,0,0,1,33.752-1.8,5,5,0,0,1,33.2-4.272a4.779,4.779,0,0,1,1.1-3.392A3.8,3.8,0,0,1,37.2-8.832Zm0,1.488a1.755,1.755,0,0,0-1.32.52A2.421,2.421,0,0,0,35.3-5.28h3.728a2.467,2.467,0,0,0-.456-1.48A1.6,1.6,0,0,0,37.2-7.344Z" transform="translate(124 479)"/>
    <path id="Path_346" data-name="Path 346" class="cls-4" d="M-97.9-3.12a2.9,2.9,0,0,1-1.1,2.4,4.78,4.78,0,0,1-3.056.88,7.251,7.251,0,0,1-3.2-.64V-2.4a13.7,13.7,0,0,0,1.592.584,6.018,6.018,0,0,0,1.752.264,2.288,2.288,0,0,0,1.512-.408,1.322,1.322,0,0,0,.472-1.048,1.312,1.312,0,0,0-.608-1.128,10.173,10.173,0,0,0-1.776-.92,7.991,7.991,0,0,1-1.352-.712,3.491,3.491,0,0,1-1.056-1.072,3,3,0,0,1-.408-1.624,2.779,2.779,0,0,1,1.032-2.288,4.269,4.269,0,0,1,2.76-.832,7.35,7.35,0,0,1,1.7.192,8.911,8.911,0,0,1,1.592.544L-98.7-9.2a10.837,10.837,0,0,0-1.368-.48,5.074,5.074,0,0,0-1.336-.176,1.9,1.9,0,0,0-1.264.368,1.218,1.218,0,0,0-.432.976,1.3,1.3,0,0,0,.24.792,2.191,2.191,0,0,0,.744.6q.5.272,1.3.624a9.531,9.531,0,0,1,1.576.84,3.164,3.164,0,0,1,.992,1.04A2.971,2.971,0,0,1-97.9-3.12Zm5.328,1.664a3.7,3.7,0,0,0,.728-.072,6.335,6.335,0,0,0,.664-.168v1.5a3.207,3.207,0,0,1-.832.256,5.808,5.808,0,0,1-1.072.1A3.614,3.614,0,0,1-94.44-.08a1.9,1.9,0,0,1-.952-.848,3.444,3.444,0,0,1-.352-1.712V-7.152h-1.168v-.88l1.28-.7.64-1.84h1.264v1.9h2.464v1.52h-2.464v4.5a1.158,1.158,0,0,0,.328.9A1.184,1.184,0,0,0-92.576-1.456Zm10.88-2.9a4.647,4.647,0,0,1-1.12,3.336A4,4,0,0,1-85.856.16a4.2,4.2,0,0,1-2.112-.528A3.686,3.686,0,0,1-89.424-1.9a5.221,5.221,0,0,1-.528-2.448,4.609,4.609,0,0,1,1.112-3.32,4,4,0,0,1,3.032-1.16,4.279,4.279,0,0,1,2.128.52,3.644,3.644,0,0,1,1.456,1.52A5.172,5.172,0,0,1-81.7-4.352Zm-6.192,0A3.9,3.9,0,0,0-87.4-2.224a1.739,1.739,0,0,0,1.576.752,1.742,1.742,0,0,0,1.568-.752,3.852,3.852,0,0,0,.5-2.128,3.769,3.769,0,0,0-.5-2.112A1.772,1.772,0,0,0-85.84-7.2a1.731,1.731,0,0,0-1.568.736A3.869,3.869,0,0,0-87.888-4.352Zm12.832-4.48A3.014,3.014,0,0,1-72.608-7.7a5.18,5.18,0,0,1,.928,3.352,5.154,5.154,0,0,1-.952,3.368A3.065,3.065,0,0,1-75.1.16a3.012,3.012,0,0,1-1.552-.352,3.246,3.246,0,0,1-.944-.816h-.128q.048.3.088.656A5.96,5.96,0,0,1-77.6.32V3.84h-2.016V-8.672h1.632L-77.7-7.52h.1a3.325,3.325,0,0,1,.96-.928A2.877,2.877,0,0,1-75.056-8.832ZM-75.632-7.2a1.7,1.7,0,0,0-1.512.64A3.521,3.521,0,0,0-77.6-4.624v.256a4.374,4.374,0,0,0,.424,2.136,1.654,1.654,0,0,0,1.576.744,1.514,1.514,0,0,0,1.4-.776,4.185,4.185,0,0,0,.456-2.12,3.959,3.959,0,0,0-.456-2.08A1.562,1.562,0,0,0-75.632-7.2ZM-61.152,0H-63.2V-9.7h-3.28v-1.728h8.608V-9.7h-3.28Zm8.576-8.832q.208,0,.464.024t.416.056l-.176,1.872q-.16-.032-.392-.056a3.912,3.912,0,0,0-.392-.024,2.779,2.779,0,0,0-1.2.264,2.128,2.128,0,0,0-.9.808A2.564,2.564,0,0,0-55.1-4.5V0H-57.12V-8.672h1.552l.288,1.5h.1a3.633,3.633,0,0,1,1.056-1.176A2.572,2.572,0,0,1-52.576-8.832Zm5.616,0a3.863,3.863,0,0,1,2.552.736,2.808,2.808,0,0,1,.872,2.272V0H-44.96l-.4-1.2h-.064A3.815,3.815,0,0,1-46.608-.168,3.673,3.673,0,0,1-48.3.16,2.876,2.876,0,0,1-50.24-.5a2.528,2.528,0,0,1-.768-2.032,2.279,2.279,0,0,1,.984-2.016A5.757,5.757,0,0,1-47.04-5.3l1.5-.048v-.432a1.51,1.51,0,0,0-.4-1.184,1.639,1.639,0,0,0-1.12-.352,4.26,4.26,0,0,0-1.256.184,9.585,9.585,0,0,0-1.192.456l-.64-1.408a6.638,6.638,0,0,1,1.464-.544A7,7,0,0,1-46.96-8.832ZM-45.536-4.1l-1.056.032a3.252,3.252,0,0,0-1.84.456,1.329,1.329,0,0,0-.512,1.1,1.028,1.028,0,0,0,.36.888,1.573,1.573,0,0,0,.952.264,2.254,2.254,0,0,0,1.488-.5,1.831,1.831,0,0,0,.608-1.5ZM-37.5.16A3.984,3.984,0,0,1-40.44-.912a4.591,4.591,0,0,1-1.08-3.376,5.491,5.491,0,0,1,.536-2.6A3.372,3.372,0,0,1-39.5-8.36a4.766,4.766,0,0,1,2.16-.472,6.048,6.048,0,0,1,1.448.16,5.318,5.318,0,0,1,1.1.384L-35.392-6.7Q-35.9-6.9-36.4-7.032a3.571,3.571,0,0,0-.944-.136q-2.112,0-2.112,2.864a3.43,3.43,0,0,0,.536,2.1,1.824,1.824,0,0,0,1.544.7,4.348,4.348,0,0,0,1.288-.176,4.675,4.675,0,0,0,1.064-.48V-.416A3.637,3.637,0,0,1-36.1.024,6.228,6.228,0,0,1-37.5.16Zm6.512-12.32v5.776q0,.4-.032.872t-.064.888h.048q.208-.288.48-.656a7.108,7.108,0,0,1,.544-.656l2.56-2.736h2.288L-28.64-4.928-24.944,0H-27.3l-2.688-3.712-1.008.832V0h-2V-12.16Zm8.416.144a1.346,1.346,0,0,1,.784.232.931.931,0,0,1,.336.824.953.953,0,0,1-.336.832,1.314,1.314,0,0,1-.784.24,1.3,1.3,0,0,1-.792-.24.964.964,0,0,1-.328-.832.941.941,0,0,1,.328-.824A1.336,1.336,0,0,1-22.576-12.016Zm1.008,3.344V0h-2.016V-8.672Zm7.216-.16a3.257,3.257,0,0,1,2.28.752,3.152,3.152,0,0,1,.824,2.432V0h-2.016V-5.248a2.341,2.341,0,0,0-.384-1.464A1.453,1.453,0,0,0-14.864-7.2a1.76,1.76,0,0,0-1.664.768,4.4,4.4,0,0,0-.448,2.192V0h-2.016V-8.672h1.552l.288,1.136h.112A2.449,2.449,0,0,1-15.9-8.52,3.878,3.878,0,0,1-14.352-8.832Zm8.544,0a2.953,2.953,0,0,1,2.576,1.28h.08l.192-1.12h1.68V.064A3.644,3.644,0,0,1-2.32,2.88a4.486,4.486,0,0,1-3.136.96,11.347,11.347,0,0,1-1.712-.12,6.52,6.52,0,0,1-1.488-.408V1.648a8.115,8.115,0,0,0,1.576.5,8.524,8.524,0,0,0,1.752.176,1.983,1.983,0,0,0,1.5-.552A2.239,2.239,0,0,0-3.3.16V-.064q0-.24.016-.56a4.675,4.675,0,0,1,.048-.512H-3.3a2.749,2.749,0,0,1-1.1.984A3.332,3.332,0,0,1-5.856.16a2.936,2.936,0,0,1-2.48-1.184,5.356,5.356,0,0,1-.9-3.3,5.394,5.394,0,0,1,.9-3.312A2.976,2.976,0,0,1-5.808-8.832Zm.528,1.648q-1.888,0-1.888,2.9,0,2.848,1.92,2.848a1.951,1.951,0,0,0,1.56-.584A3.034,3.034,0,0,0-3.184-4v-.3a3.744,3.744,0,0,0-.5-2.208A1.86,1.86,0,0,0-5.28-7.184Z" transform="translate(556 479)"/>
  </g>
</svg>
