<svg xmlns="http://www.w3.org/2000/svg" xmlns:xlink="http://www.w3.org/1999/xlink" width="392" height="643" viewBox="0 0 392 643">
  <defs>
    <style>
      .cls-1 {
        clip-path: url(#clip-settings-tools_1);
      }

      .cls-2 {
        fill: #fff;
      }

      .cls-3 {
        fill: #f4f4f4;
      }

      .cls-4 {
        fill: #ffc12f;
      }

      .cls-5 {
        fill: #995700;
      }

      .cls-6 {
        fill: #ff625a;
      }

      .cls-7 {
        fill: #4d0000;
      }

      .cls-8 {
        fill: #2acf42;
      }

      .cls-9 {
        fill: #026400;
      }

      .cls-10 {
        fill: #4d4c4d;
      }

      .cls-11 {
        fill: url(#linear-gradient);
      }

      .cls-12, .cls-14 {
        fill: none;
      }

      .cls-13 {
        fill: #242424;
      }

      .cls-14 {
        stroke: #bebebe;
      }

      .cls-15, .cls-16 {
        fill: #363636;
      }

      .cls-15 {
        opacity: 0.1;
      }

      .cls-17 {
        fill: #bebebe;
      }

      .cls-18, .cls-19, .cls-20, .cls-21 {
        stroke: none;
      }

      .cls-19 {
        fill: #e19f1b;
      }

      .cls-20 {
        fill: #e2483f;
      }

      .cls-21 {
        fill: #1eaa26;
      }

      .cls-22 {
        filter: url(#Path_291);
      }

      .cls-23 {
        filter: url(#Path_305);
      }

      .cls-24 {
        filter: url(#Path_303);
      }

      .cls-25 {
        filter: url(#Path_301);
      }

      .cls-26 {
        filter: url(#Path_299);
      }

      .cls-27 {
        filter: url(#Path_289);
      }

      .cls-28 {
        filter: url(#Path_287);
      }

      .cls-29 {
        filter: url(#Path_285);
      }

      .cls-30 {
        filter: url(#Path_297);
      }

      .cls-31 {
        filter: url(#Path_283);
      }

      .cls-32 {
        filter: url(#Path_281);
      }

      .cls-33 {
        filter: url(#Path_278);
      }

      .cls-34 {
        filter: url(#Path_275);
      }
    </style>
    <linearGradient id="linear-gradient" x1="0.5" x2="0.5" y2="1" gradientUnits="objectBoundingBox">
      <stop offset="0" stop-color="#3976ff"/>
      <stop offset="1" stop-color="#3961e8"/>
    </linearGradient>
    <filter id="Path_275" x="23" y="37" width="62" height="62" filterUnits="userSpaceOnUse">
      <feOffset dy="3" input="SourceAlpha"/>
      <feGaussianBlur stdDeviation="3" result="blur"/>
      <feFlood flood-opacity="0.059"/>
      <feComposite operator="in" in2="blur"/>
      <feComposite in="SourceGraphic"/>
    </filter>
    <filter id="Path_278" x="23" y="139" width="346" height="353" filterUnits="userSpaceOnUse">
      <feOffset dy="3" input="SourceAlpha"/>
      <feGaussianBlur stdDeviation="3" result="blur-2"/>
      <feFlood flood-opacity="0.059"/>
      <feComposite operator="in" in2="blur-2"/>
      <feComposite in="SourceGraphic"/>
    </filter>
    <filter id="Path_281" x="39" y="288" width="109" height="49" filterUnits="userSpaceOnUse">
      <feOffset dy="3" input="SourceAlpha"/>
      <feGaussianBlur stdDeviation="3" result="blur-3"/>
      <feFlood flood-opacity="0.122"/>
      <feComposite operator="in" in2="blur-3"/>
      <feComposite in="SourceGraphic"/>
    </filter>
    <filter id="Path_283" x="138" y="288" width="88" height="49" filterUnits="userSpaceOnUse">
      <feOffset dy="3" input="SourceAlpha"/>
      <feGaussianBlur stdDeviation="3" result="blur-4"/>
      <feFlood flood-opacity="0.122"/>
      <feComposite operator="in" in2="blur-4"/>
      <feComposite in="SourceGraphic"/>
    </filter>
    <filter id="Path_297" x="216" y="288" width="90" height="49" filterUnits="userSpaceOnUse">
      <feOffset dy="3" input="SourceAlpha"/>
      <feGaussianBlur stdDeviation="3" result="blur-5"/>
      <feFlood flood-opacity="0.122"/>
      <feComposite operator="in" in2="blur-5"/>
      <feComposite in="SourceGraphic"/>
    </filter>
    <filter id="Path_285" x="39" y="327" width="137" height="49" filterUnits="userSpaceOnUse">
      <feOffset dy="3" input="SourceAlpha"/>
      <feGaussianBlur stdDeviation="3" result="blur-6"/>
      <feFlood flood-opacity="0.122"/>
      <feComposite operator="in" in2="blur-6"/>
      <feComposite in="SourceGraphic"/>
    </filter>
    <filter id="Path_287" x="39" y="366" width="96" height="49" filterUnits="userSpaceOnUse">
      <feOffset dy="3" input="SourceAlpha"/>
      <feGaussianBlur stdDeviation="3" result="blur-7"/>
      <feFlood flood-opacity="0.122"/>
      <feComposite operator="in" in2="blur-7"/>
      <feComposite in="SourceGraphic"/>
    </filter>
    <filter id="Path_289" x="125" y="366" width="87" height="49" filterUnits="userSpaceOnUse">
      <feOffset dy="3" input="SourceAlpha"/>
      <feGaussianBlur stdDeviation="3" result="blur-8"/>
      <feFlood flood-opacity="0.122"/>
      <feComposite operator="in" in2="blur-8"/>
      <feComposite in="SourceGraphic"/>
    </filter>
    <filter id="Path_299" x="202" y="366" width="83" height="49" filterUnits="userSpaceOnUse">
      <feOffset dy="3" input="SourceAlpha"/>
      <feGaussianBlur stdDeviation="3" result="blur-9"/>
      <feFlood flood-opacity="0.122"/>
      <feComposite operator="in" in2="blur-9"/>
      <feComposite in="SourceGraphic"/>
    </filter>
    <filter id="Path_301" x="275" y="366" width="81" height="49" filterUnits="userSpaceOnUse">
      <feOffset dy="3" input="SourceAlpha"/>
      <feGaussianBlur stdDeviation="3" result="blur-10"/>
      <feFlood flood-opacity="0.122"/>
      <feComposite operator="in" in2="blur-10"/>
      <feComposite in="SourceGraphic"/>
    </filter>
    <filter id="Path_303" x="40" y="405" width="85" height="49" filterUnits="userSpaceOnUse">
      <feOffset dy="3" input="SourceAlpha"/>
      <feGaussianBlur stdDeviation="3" result="blur-11"/>
      <feFlood flood-opacity="0.122"/>
      <feComposite operator="in" in2="blur-11"/>
      <feComposite in="SourceGraphic"/>
    </filter>
    <filter id="Path_305" x="115" y="405" width="84" height="49" filterUnits="userSpaceOnUse">
      <feOffset dy="3" input="SourceAlpha"/>
      <feGaussianBlur stdDeviation="3" result="blur-12"/>
      <feFlood flood-opacity="0.122"/>
      <feComposite operator="in" in2="blur-12"/>
      <feComposite in="SourceGraphic"/>
    </filter>
    <filter id="Path_291" x="166" y="327" width="145" height="49" filterUnits="userSpaceOnUse">
      <feOffset dy="3" input="SourceAlpha"/>
      <feGaussianBlur stdDeviation="3" result="blur-13"/>
      <feFlood flood-opacity="0.122"/>
      <feComposite operator="in" in2="blur-13"/>
      <feComposite in="SourceGraphic"/>
    </filter>
    <clipPath id="clip-settings-tools_1">
      <rect width="392" height="643"/>
    </clipPath>
  </defs>
  <g id="settings-tools_1" data-name="settings-tools – 1" class="cls-1">
    <path id="background" class="cls-2" d="M4,0H388a4,4,0,0,1,4,4V1278a4,4,0,0,1-4,4H4a4,4,0,0,1-4-4V4A4,4,0,0,1,4,0Z"/>
    <path id="Path_295" data-name="Path 295" class="cls-3" d="M4,0h8a4,4,0,0,1,4,4V639a4,4,0,0,1-4,4H4a4,4,0,0,1-4-4V4A4,4,0,0,1,4,0Z" transform="translate(376)"/>
    <path id="Path_265" data-name="Path 265" class="cls-3" d="M4,0h8a4,4,0,0,1,4,4V639a4,4,0,0,1-4,4H4a4,4,0,0,1-4-4V4A4,4,0,0,1,4,0Z"/>
    <path id="Path_296" data-name="Path 296" class="cls-3" d="M4,0H388a4,4,0,0,1,4,4v8a4,4,0,0,1-4,4H4a4,4,0,0,1-4-4V4A4,4,0,0,1,4,0Z" transform="translate(0 627)"/>
    <path id="tab" class="cls-3" d="M4,0H388a4,4,0,0,1,4,4V27H0V4A4,4,0,0,1,4,0Z"/>
    <g id="Path_267" data-name="Path 267" class="cls-4" transform="translate(37 7)">
      <path class="cls-18" d="M 6.5 12.5 C 3.191590070724487 12.5 0.5 9.808409690856934 0.5 6.5 C 0.5 3.191590070724487 3.191590070724487 0.5 6.5 0.5 C 9.808409690856934 0.5 12.5 3.191590070724487 12.5 6.5 C 12.5 9.808409690856934 9.808409690856934 12.5 6.5 12.5 Z"/>
      <path class="cls-19" d="M 6.5 1 C 3.467289924621582 1 1 3.467289924621582 1 6.5 C 1 9.532710075378418 3.467289924621582 12 6.5 12 C 9.532710075378418 12 12 9.532710075378418 12 6.5 C 12 3.467289924621582 9.532710075378418 1 6.5 1 M 6.5 0 C 10.0898494720459 0 13 2.910149574279785 13 6.5 C 13 10.0898494720459 10.0898494720459 13 6.5 13 C 2.910149574279785 13 0 10.0898494720459 0 6.5 C 0 2.910149574279785 2.910149574279785 0 6.5 0 Z"/>
    </g>
    <path id="Path_268" data-name="Path 268" class="cls-5" d="M0,0H7V1H0Z" transform="translate(40 13)"/>
    <g id="Path_266" data-name="Path 266" class="cls-6" transform="translate(16 7)">
      <path class="cls-18" d="M 6.5 12.5 C 3.191590070724487 12.5 0.5 9.808409690856934 0.5 6.5 C 0.5 3.191590070724487 3.191590070724487 0.5 6.5 0.5 C 9.808409690856934 0.5 12.5 3.191590070724487 12.5 6.5 C 12.5 9.808409690856934 9.808409690856934 12.5 6.5 12.5 Z"/>
      <path class="cls-20" d="M 6.5 1 C 3.467289924621582 1 1 3.467289924621582 1 6.5 C 1 9.532710075378418 3.467289924621582 12 6.5 12 C 9.532710075378418 12 12 9.532710075378418 12 6.5 C 12 3.467289924621582 9.532710075378418 1 6.5 1 M 6.5 0 C 10.0898494720459 0 13 2.910149574279785 13 6.5 C 13 10.0898494720459 10.0898494720459 13 6.5 13 C 2.910149574279785 13 0 10.0898494720459 0 6.5 C 0 2.910149574279785 2.910149574279785 0 6.5 0 Z"/>
    </g>
    <path id="Path_269" data-name="Path 269" class="cls-7" d="M0,0H7V1H0Z" transform="translate(20.379 10.672) rotate(45)"/>
    <path id="Path_270" data-name="Path 270" class="cls-7" d="M0,0H7V1H0Z" transform="translate(19.672 15.621) rotate(-45)"/>
    <g id="Path_271" data-name="Path 271" class="cls-8" transform="translate(58 7)">
      <path class="cls-18" d="M 6.5 12.5 C 3.191590070724487 12.5 0.5 9.808409690856934 0.5 6.5 C 0.5 3.191590070724487 3.191590070724487 0.5 6.5 0.5 C 9.808409690856934 0.5 12.5 3.191590070724487 12.5 6.5 C 12.5 9.808409690856934 9.808409690856934 12.5 6.5 12.5 Z"/>
      <path class="cls-21" d="M 6.5 1 C 3.467289924621582 1 1 3.467289924621582 1 6.5 C 1 9.532710075378418 3.467289924621582 12 6.5 12 C 9.532710075378418 12 12 9.532710075378418 12 6.5 C 12 3.467289924621582 9.532710075378418 1 6.5 1 M 6.5 0 C 10.0898494720459 0 13 2.910149574279785 13 6.5 C 13 10.0898494720459 10.0898494720459 13 6.5 13 C 2.910149574279785 13 0 10.0898494720459 0 6.5 C 0 2.910149574279785 2.910149574279785 0 6.5 0 Z"/>
    </g>
    <path id="Path_272" data-name="Path 272" class="cls-9" d="M0,0H7V1H0Z" transform="translate(65 10) rotate(90)"/>
    <path id="Path_273" data-name="Path 273" class="cls-9" d="M0,0H7V1H0Z" transform="translate(61 13)"/>
    <path id="Path_276" data-name="Path 276" class="cls-10" d="M-25.324,0h-1.4V-8.073H-29.51V-9.282h6.968v1.209h-2.782ZM-19.9-9.88v2.639q0,.325-.026.65t-.052.533h.091a2.121,2.121,0,0,1,.9-.8,2.845,2.845,0,0,1,1.229-.266,2.677,2.677,0,0,1,1.892.611,2.553,2.553,0,0,1,.656,1.95V0h-1.365V-4.368q0-1.638-1.443-1.638a1.6,1.6,0,0,0-1.482.65,3.485,3.485,0,0,0-.4,1.833V0h-1.378V-9.88Zm9.568,2.743a2.822,2.822,0,0,1,2.171.852,3.27,3.27,0,0,1,.793,2.32v.754h-4.706a2.406,2.406,0,0,0,.566,1.651A1.981,1.981,0,0,0-10-.988a5.29,5.29,0,0,0,1.2-.124,6.191,6.191,0,0,0,1.085-.37V-.338A4.9,4.9,0,0,1-8.775.02a6.363,6.363,0,0,1-1.274.11,3.853,3.853,0,0,1-1.794-.4,2.863,2.863,0,0,1-1.216-1.2,4.064,4.064,0,0,1-.436-1.976,4.567,4.567,0,0,1,.4-2,2.925,2.925,0,0,1,1.1-1.254A3.1,3.1,0,0,1-10.335-7.137Zm0,1.066a1.549,1.549,0,0,0-1.189.481,2.228,2.228,0,0,0-.526,1.365h3.3a2.231,2.231,0,0,0-.4-1.332A1.388,1.388,0,0,0-10.335-6.071ZM1,0H-.4V-8.073H-3.185V-9.282H3.783v1.209H1ZM7.852-7.137a4.219,4.219,0,0,1,.767.065L8.476-5.785a2.689,2.689,0,0,0-.7-.091,1.958,1.958,0,0,0-.988.26,1.964,1.964,0,0,0-.734.747,2.329,2.329,0,0,0-.28,1.177V0H4.394V-7.007H5.486l.182,1.248H5.72a3.242,3.242,0,0,1,.871-.969A2.045,2.045,0,0,1,7.852-7.137Zm4.524,0a2.9,2.9,0,0,1,1.97.579A2.3,2.3,0,0,1,15-4.745V0h-.975l-.273-.975H13.7a3.131,3.131,0,0,1-.955.839A2.977,2.977,0,0,1,11.362.13,2.393,2.393,0,0,1,9.789-.384a1.96,1.96,0,0,1-.624-1.605A1.845,1.845,0,0,1,9.977-3.62a4.72,4.72,0,0,1,2.477-.6l1.2-.039v-.39A1.413,1.413,0,0,0,13.3-5.74a1.418,1.418,0,0,0-.988-.319,3.39,3.39,0,0,0-1.027.156,6.979,6.979,0,0,0-.949.377l-.442-1a5.609,5.609,0,0,1,1.138-.436A5.091,5.091,0,0,1,12.376-7.137Zm1.261,3.77-.936.026a3.086,3.086,0,0,0-1.658.4,1.143,1.143,0,0,0-.462.962.932.932,0,0,0,.325.793,1.359,1.359,0,0,0,.845.247A2.015,2.015,0,0,0,13.1-1.391a1.685,1.685,0,0,0,.54-1.365ZM19.942.13A3.2,3.2,0,0,1,17.6-.734a3.669,3.669,0,0,1-.884-2.723,4.478,4.478,0,0,1,.429-2.106A2.728,2.728,0,0,1,18.33-6.753a3.732,3.732,0,0,1,1.716-.384,4.936,4.936,0,0,1,1.1.117A3.823,3.823,0,0,1,22-6.734L21.58-5.616q-.364-.13-.767-.24a2.945,2.945,0,0,0-.78-.11q-1.9,0-1.9,2.5a3,3,0,0,0,.468,1.82,1.615,1.615,0,0,0,1.378.624,3.739,3.739,0,0,0,1.027-.13A3.978,3.978,0,0,0,21.84-1.5V-.3a2.941,2.941,0,0,1-.819.325A4.788,4.788,0,0,1,19.942.13ZM24.856-9.88v4.94q0,.26-.026.624t-.039.65h.039q.143-.195.4-.513t.448-.526l2.145-2.3h1.6L26.6-4l3,4H27.976L25.662-3.133l-.806.676V0H23.491V-9.88Z" transform="translate(196 19)"/>
    <path id="Path_274" data-name="Path 274" class="cls-11" d="M0,0H360V166H0Z" transform="translate(16 27)"/>
    <path id="Path_277" data-name="Path 277" class="cls-2" d="M-42.16-5.952A5.493,5.493,0,0,1-44.288-1.3,8.881,8.881,0,0,1-49.808.32a15.188,15.188,0,0,1-3.936-.5A8.4,8.4,0,0,1-56.688-1.5l.48-4.416,2.336.224L-53.936-3.1a7.283,7.283,0,0,0,2.032.72,10.891,10.891,0,0,0,1.936.176,6.829,6.829,0,0,0,3.344-.752,2.818,2.818,0,0,0,1.36-2.7,2.813,2.813,0,0,0-1.52-2.864A15.967,15.967,0,0,0-50.192-9.6a28.173,28.173,0,0,1-2.96-.8,5.464,5.464,0,0,1-2.432-1.584A4.713,4.713,0,0,1-56.56-15.2a5.055,5.055,0,0,1,2.08-4.512,8.358,8.358,0,0,1,4.8-1.408,12.733,12.733,0,0,1,3.616.528,7.7,7.7,0,0,1,2.784,1.36l.192,4.256-2.336.224-.352-2.912a6.563,6.563,0,0,0-1.888-.7,9.311,9.311,0,0,0-1.824-.192,4.911,4.911,0,0,0-2.864.768,2.588,2.588,0,0,0-1.1,2.272,2.376,2.376,0,0,0,1.344,2.384,15.465,15.465,0,0,0,2.976,1.008q1.344.288,2.976.784a6.51,6.51,0,0,1,2.816,1.712A5.087,5.087,0,0,1-42.16-5.952ZM-26.7-4.224a4.858,4.858,0,0,1-1.824,3.2A6.554,6.554,0,0,1-32.88.32,6.924,6.924,0,0,1-37.9-1.536a7.136,7.136,0,0,1-1.92-5.376,8.371,8.371,0,0,1,1.792-5.5,6.074,6.074,0,0,1,4.96-2.176A5.823,5.823,0,0,1-28.5-12.768a6.517,6.517,0,0,1,1.664,4.416,9.311,9.311,0,0,1-.192,1.824H-36.88q.192,4.544,4.192,4.544a3.534,3.534,0,0,0,2.512-.8A3.939,3.939,0,0,0-29.04-4.7Zm-3.04-4.192a4.246,4.246,0,0,0-.688-2.7,2.948,2.948,0,0,0-2.7-1.3,3.1,3.1,0,0,0-2.64,1.168,5.693,5.693,0,0,0-1.072,2.832Zm16.128,4.384Q-14.224.32-18.416.32a4.723,4.723,0,0,1-3.44-1.2,4.453,4.453,0,0,1-1.232-3.344V-12.16H-25.3V-14.3h2.208v-4.512H-20.3V-14.3h5.472v2.144H-20.3v7.52q0,2.56,2.208,2.56a2.543,2.543,0,0,0,1.408-.464A3.161,3.161,0,0,0-15.7-4.7Zm12.128,0Q-2.1.32-6.288.32a4.723,4.723,0,0,1-3.44-1.2A4.453,4.453,0,0,1-10.96-4.224V-12.16h-2.208V-14.3h2.208v-4.512h2.784V-14.3H-2.7v2.144H-8.176v7.52q0,2.56,2.208,2.56A2.543,2.543,0,0,0-4.56-2.544,3.161,3.161,0,0,0-3.568-4.7ZM1.744-17.664v-3.3H4.656v3.3ZM7.056,0H-.4V-2.176H1.936V-12.1H-.5V-14.3H4.752V-2.176h2.3ZM25.9,0H18.48V-2.176h2.3V-8.352a4.554,4.554,0,0,0-.832-3.088,2.845,2.845,0,0,0-2.208-.912A3.625,3.625,0,0,0,14.9-11.168a4.283,4.283,0,0,0-1.12,2.752v6.24h2.3V0H8.656V-2.176h2.3V-12.1H8.56V-14.3h5.216v2.432a5.142,5.142,0,0,1,4.864-2.72,5.109,5.109,0,0,1,3.52,1.28,5.088,5.088,0,0,1,1.44,4v7.136h2.3ZM43.44-12.1H41.232V-.352a7.75,7.75,0,0,1-1.872,5.44,6.937,6.937,0,0,1-5.392,2.048,8.442,8.442,0,0,1-4.1-1.008A5.216,5.216,0,0,1,27.344,2.88L29.52,1.76a4.41,4.41,0,0,0,1.856,2.3,5.144,5.144,0,0,0,2.656.736A4.135,4.135,0,0,0,37.2,3.456,5.488,5.488,0,0,0,38.448-.416v-2.4a6.047,6.047,0,0,1-1.824,2.08,5.261,5.261,0,0,1-3.168.864,6.006,6.006,0,0,1-4.368-1.776A6.927,6.927,0,0,1,27.28-6.816a9.5,9.5,0,0,1,1.6-5.36,5.4,5.4,0,0,1,4.832-2.416,4.981,4.981,0,0,1,4.736,2.528V-14.3H43.44ZM38.448-6.464V-8.32A3.776,3.776,0,0,0,37.3-11.2a3.908,3.908,0,0,0-2.784-1.088,3.52,3.52,0,0,0-3.136,1.52,6.579,6.579,0,0,0-1.024,3.76,5.2,5.2,0,0,0,1.1,3.648,3.555,3.555,0,0,0,2.7,1.184A3.843,3.843,0,0,0,37.232-3.52,4.732,4.732,0,0,0,38.448-6.464ZM57.04-4.192A3.777,3.777,0,0,1,55.264-.864,7.942,7.942,0,0,1,50.768.32a10.544,10.544,0,0,1-5.6-1.408l.448-3.456,2.208.224L47.76-2.464a4.951,4.951,0,0,0,1.392.448,8.855,8.855,0,0,0,1.488.128A5.826,5.826,0,0,0,53.12-2.4a1.681,1.681,0,0,0,1.1-1.6,1.52,1.52,0,0,0-.9-1.488A8.347,8.347,0,0,0,51.1-6.144q-1.328-.224-2.64-.56a5.091,5.091,0,0,1-2.208-1.152,3.191,3.191,0,0,1-.9-2.48,3.421,3.421,0,0,1,1.776-3.328,8.07,8.07,0,0,1,3.792-.928,10.092,10.092,0,0,1,2.768.368,11.4,11.4,0,0,1,2.352.944l.32,3.456-2.24.256-.32-2.24a6.47,6.47,0,0,0-2.752-.608,3.831,3.831,0,0,0-1.952.448,1.571,1.571,0,0,0-.768,1.472,1.442,1.442,0,0,0,.88,1.408,8.137,8.137,0,0,0,2.176.624,25,25,0,0,1,2.592.56A5.019,5.019,0,0,1,56.16-6.72,3.324,3.324,0,0,1,57.04-4.192Z" transform="translate(196 121)"/>
    <g class="cls-34" transform="matrix(1, 0, 0, 1, 0, 0)">
      <path id="Path_275-2" data-name="Path 275" class="cls-2" d="M22,0A22,22,0,1,1,0,22,22,22,0,0,1,22,0Z" transform="translate(32 43)"/>
    </g>
    <path id="Path_73" data-name="Path 73" class="cls-12" d="M0,0H20V20H0Z" transform="translate(44 55)"/>
    <path id="Path_74" data-name="Path 74" class="cls-13" d="M3,18H17V16H3Zm0-5H17V11H3ZM3,6V8H17V6Z" transform="translate(44 53)"/>
    <g class="cls-33" transform="matrix(1, 0, 0, 1, 0, 0)">
      <path id="Path_278-2" data-name="Path 278" class="cls-2" d="M2,0H326a2,2,0,0,1,2,2V333a2,2,0,0,1-2,2H2a2,2,0,0,1-2-2V2A2,2,0,0,1,2,0Z" transform="translate(32 145)"/>
    </g>
    <path id="Path_279" data-name="Path 279" class="cls-14" d="M0,0H296" transform="translate(48.5 261.5)"/>
    <path id="Path_280" data-name="Path 280" class="cls-15" d="M9.888-7.008,8.352-6.88l-.32-2H6v7.36H7.744V0h-5.2V-1.52h1.68V-8.88H2.176l-.32,2L.336-7.008.656-10.4H9.568Zm8.464,1.136H17.6L15.2,0l-.8,2.064h1.056V3.408h-3.84V2.064h1.216l.7-2L10.992-5.872h-.784V-7.184h3.536v1.312h-.912L14.5-1.984h.1l1.344-3.888H15.12V-7.184h3.232Zm8.688,2.1a4.784,4.784,0,0,1-.808,2.736A2.791,2.791,0,0,1,23.744.16,2.465,2.465,0,0,1,21.488-.96V2.064h1.424V3.408H18.7V2.064h1.072V-5.872h-1.12V-7.184h2.832V-5.76a3.1,3.1,0,0,1,.888-1.1,2.464,2.464,0,0,1,1.576-.464,2.884,2.884,0,0,1,2.232.936A3.734,3.734,0,0,1,27.04-3.776ZM25.264-3.6a2.576,2.576,0,0,0-.528-1.752,1.711,1.711,0,0,0-1.344-.6,1.612,1.612,0,0,0-1.36.656A2.641,2.641,0,0,0,21.5-3.76l-.016.56a2,2,0,0,0,.52,1.44,1.767,1.767,0,0,0,1.336.544,1.7,1.7,0,0,0,1.416-.64A2.747,2.747,0,0,0,25.264-3.6ZM34.72-2.192a2.448,2.448,0,0,1-.928,1.648A3.432,3.432,0,0,1,31.5.16a3.674,3.674,0,0,1-2.576-.92A3.488,3.488,0,0,1,27.92-3.472a4.154,4.154,0,0,1,.92-2.752,3.159,3.159,0,0,1,2.568-1.1,3.157,3.157,0,0,1,2.36.888,3.132,3.132,0,0,1,.888,2.248,5.224,5.224,0,0,1-.1.96H29.712q.144,2.016,1.92,2.016a1.537,1.537,0,0,0,1.192-.4,1.989,1.989,0,0,0,.472-.848ZM32.9-4.288A1.856,1.856,0,0,0,32.6-5.5a1.319,1.319,0,0,0-1.208-.568,1.393,1.393,0,0,0-1.168.512,2.529,2.529,0,0,0-.5,1.264Zm6.64-2.368a7.013,7.013,0,0,1,1.424-.528,6.445,6.445,0,0,1,1.44-.144,3.108,3.108,0,0,1,1.976.608A2.175,2.175,0,0,1,45.152-4.9v3.232q0,.64.528.64a1.4,1.4,0,0,0,.368-.064l.016.944a2.269,2.269,0,0,1-1.152.3A1.345,1.345,0,0,1,43.44-1.264V-1.3a3.409,3.409,0,0,1-.9,1.008A2.309,2.309,0,0,1,41.088.16,2.76,2.76,0,0,1,39.608-.3a1.728,1.728,0,0,1-.728-1.592A1.694,1.694,0,0,1,39.936-3.64a6.084,6.084,0,0,1,2.288-.424q.3,0,.624.016T43.44-4v-.4a2.846,2.846,0,0,0-.224-1.152q-.224-.512-1.12-.512a3.95,3.95,0,0,0-.632.048,1.835,1.835,0,0,0-.568.192l-.288,1.1-1.376-.144Zm3.9,3.808V-3.1l-.56-.064a5.359,5.359,0,0,0-.592-.032,2.789,2.789,0,0,0-1.144.224.881.881,0,0,0-.5.9q0,.976,1.04.976a1.8,1.8,0,0,0,1.152-.44A1.756,1.756,0,0,0,43.44-2.848Zm11.44-.928a4.784,4.784,0,0,1-.808,2.736A2.791,2.791,0,0,1,51.584.16,2.465,2.465,0,0,1,49.328-.96V2.064h1.424V3.408H46.544V2.064h1.072V-5.872H46.5V-7.184h2.832V-5.76a3.1,3.1,0,0,1,.888-1.1,2.464,2.464,0,0,1,1.576-.464,2.884,2.884,0,0,1,2.232.936A3.734,3.734,0,0,1,54.88-3.776ZM53.1-3.6a2.576,2.576,0,0,0-.528-1.752,1.711,1.711,0,0,0-1.344-.6,1.612,1.612,0,0,0-1.36.656,2.641,2.641,0,0,0-.528,1.536l-.016.56a2,2,0,0,0,.52,1.44,1.767,1.767,0,0,0,1.336.544,1.7,1.7,0,0,0,1.416-.64A2.747,2.747,0,0,0,53.1-3.6Zm10.784-.176A4.784,4.784,0,0,1,63.08-1.04,2.791,2.791,0,0,1,60.592.16,2.465,2.465,0,0,1,58.336-.96V2.064H59.76V3.408H55.552V2.064h1.072V-5.872H55.5V-7.184h2.832V-5.76a3.1,3.1,0,0,1,.888-1.1A2.464,2.464,0,0,1,60.8-7.328a2.884,2.884,0,0,1,2.232.936A3.734,3.734,0,0,1,63.888-3.776ZM62.112-3.6a2.576,2.576,0,0,0-.528-1.752,1.711,1.711,0,0,0-1.344-.6,1.612,1.612,0,0,0-1.36.656,2.641,2.641,0,0,0-.528,1.536l-.016.56a2,2,0,0,0,.52,1.44,1.767,1.767,0,0,0,1.336.544,1.7,1.7,0,0,0,1.416-.64A2.747,2.747,0,0,0,62.112-3.6ZM76.768,0h-3.84V-1.312h1.056V-4.128a2.219,2.219,0,0,0-.368-1.448A1.284,1.284,0,0,0,72.592-6a1.64,1.64,0,0,0-1.288.528,1.938,1.938,0,0,0-.488,1.3v2.864h1.072V0H68.032V-1.312H69.1V-5.856h-1.12V-7.184h2.832v1.168A2.548,2.548,0,0,1,73.2-7.328a2.632,2.632,0,0,1,1.76.624A2.42,2.42,0,0,1,75.7-4.752v3.44h1.072Zm1.344-6.656a7.013,7.013,0,0,1,1.424-.528,6.445,6.445,0,0,1,1.44-.144,3.108,3.108,0,0,1,1.976.608A2.175,2.175,0,0,1,83.728-4.9v3.232q0,.64.528.64a1.4,1.4,0,0,0,.368-.064l.016.944a2.269,2.269,0,0,1-1.152.3,1.345,1.345,0,0,1-1.472-1.424V-1.3a3.408,3.408,0,0,1-.9,1.008A2.309,2.309,0,0,1,79.664.16,2.76,2.76,0,0,1,78.184-.3a1.728,1.728,0,0,1-.728-1.592A1.694,1.694,0,0,1,78.512-3.64,6.084,6.084,0,0,1,80.8-4.064q.3,0,.624.016T82.016-4v-.4a2.846,2.846,0,0,0-.224-1.152q-.224-.512-1.12-.512a3.95,3.95,0,0,0-.632.048,1.835,1.835,0,0,0-.568.192l-.288,1.1-1.376-.144Zm3.9,3.808V-3.1l-.56-.064a5.359,5.359,0,0,0-.592-.032,2.789,2.789,0,0,0-1.144.224.881.881,0,0,0-.5.9q0,.976,1.04.976a1.8,1.8,0,0,0,1.152-.44A1.756,1.756,0,0,0,82.016-2.848ZM98.656,0H95.488V-1.312h.4V-4.128a2.256,2.256,0,0,0-.36-1.448A1.26,1.26,0,0,0,94.512-6a1.393,1.393,0,0,0-1.24.576,2.372,2.372,0,0,0-.408,1.312v2.8h1.072V0H90.768V-1.312h.384V-4.128a2.256,2.256,0,0,0-.36-1.448,1.241,1.241,0,0,0-1-.424,1.4,1.4,0,0,0-1.232.568,2.3,2.3,0,0,0-.416,1.3v2.816h1.344V0H85.36V-1.312h1.072V-5.856H85.376V-7.184h2.768V-6a2.763,2.763,0,0,1,.9-.96,2.422,2.422,0,0,1,1.36-.368,2.7,2.7,0,0,1,1.44.392,2.087,2.087,0,0,1,.9,1.224,2.791,2.791,0,0,1,.928-1.176,2.47,2.47,0,0,1,1.488-.44,2.567,2.567,0,0,1,1.712.624A2.42,2.42,0,0,1,97.6-4.752v3.44h1.056Zm7.408-2.192a2.448,2.448,0,0,1-.928,1.648,3.432,3.432,0,0,1-2.288.7,3.673,3.673,0,0,1-2.576-.92,3.488,3.488,0,0,1-1.008-2.712,4.154,4.154,0,0,1,.92-2.752,3.159,3.159,0,0,1,2.568-1.1,3.157,3.157,0,0,1,2.36.888A3.132,3.132,0,0,1,106-4.192a5.224,5.224,0,0,1-.1.96h-4.848q.144,2.016,1.92,2.016a1.537,1.537,0,0,0,1.192-.4,1.989,1.989,0,0,0,.472-.848Zm-1.824-2.1a1.856,1.856,0,0,0-.3-1.208,1.319,1.319,0,0,0-1.208-.568,1.393,1.393,0,0,0-1.168.512,2.529,2.529,0,0,0-.5,1.264Zm13.36.7a3.607,3.607,0,0,1-1.064,2.712A3.8,3.8,0,0,1,113.776.16a3.6,3.6,0,0,1-2.648-.992,3.616,3.616,0,0,1-1-2.688,4.065,4.065,0,0,1,.944-2.7,3.444,3.444,0,0,1,2.8-1.128,3.427,3.427,0,0,1,2.8,1.12A4.009,4.009,0,0,1,117.6-3.584Zm-1.776-.048a2.532,2.532,0,0,0-.552-1.76A1.845,1.845,0,0,0,113.84-6a1.713,1.713,0,0,0-1.424.648,2.723,2.723,0,0,0-.512,1.736,2.959,2.959,0,0,0,.488,1.728,1.647,1.647,0,0,0,1.448.7,1.741,1.741,0,0,0,1.456-.68A2.8,2.8,0,0,0,115.824-3.632Zm7.04-3.664a2.445,2.445,0,0,1,1.344.4l.3,2.24-1.328.16-.272-1.232a1.269,1.269,0,0,0-.544-.16,1.008,1.008,0,0,0-.776.368,1.486,1.486,0,0,0-.328,1.024v3.184h1.424V0H118.48V-1.312h1.072V-5.856h-1.12V-7.184h2.7V-5.84a2.5,2.5,0,0,1,.616-1.032A1.5,1.5,0,0,1,122.864-7.3Zm13.5,7.3h-3.584V-1.312h.832l-1.5-1.792H130.96v1.792h.8V0h-3.584V-1.312h1.072V-9.7h-1.136v-1.312h2.848v6.672h1.232l1.264-1.52h-.944V-7.184h3.5v1.328h-.9l-1.7,1.984,2.176,2.56h.768Zm7.28-2.192a2.448,2.448,0,0,1-.928,1.648,3.432,3.432,0,0,1-2.288.7,3.674,3.674,0,0,1-2.576-.92,3.488,3.488,0,0,1-1.008-2.712,4.154,4.154,0,0,1,.92-2.752,3.159,3.159,0,0,1,2.568-1.1,3.157,3.157,0,0,1,2.36.888,3.132,3.132,0,0,1,.888,2.248,5.224,5.224,0,0,1-.1.96H138.64q.144,2.016,1.92,2.016a1.537,1.537,0,0,0,1.192-.4,1.989,1.989,0,0,0,.472-.848Zm-1.824-2.1a1.856,1.856,0,0,0-.3-1.208,1.319,1.319,0,0,0-1.208-.568,1.393,1.393,0,0,0-1.168.512,2.529,2.529,0,0,0-.5,1.264Zm10.208-1.584h-.752L148.88,0l-.8,2.064h1.056V3.408H145.3V2.064h1.216l.7-2-2.544-5.936h-.784V-7.184h3.536v1.312h-.912l1.664,3.888h.1l1.344-3.888H148.8V-7.184h3.232Zm12.192,0h-.72L161.488,0h-1.28l-1.984-4.736h-.08L156.272,0h-1.216l-2.064-5.872h-.7V-7.184h3.648v1.312h-1.12l1.1,3.456h.1l1.84-4.768h1.056l2.064,4.72h.1l.864-3.408h-1.072V-7.184h3.36Zm7.824,2.288a3.607,3.607,0,0,1-1.064,2.712A3.8,3.8,0,0,1,168.224.16a3.6,3.6,0,0,1-2.648-.992,3.616,3.616,0,0,1-1-2.688,4.065,4.065,0,0,1,.944-2.7,3.444,3.444,0,0,1,2.8-1.128,3.427,3.427,0,0,1,2.8,1.12A4.009,4.009,0,0,1,172.048-3.584Zm-1.776-.048a2.532,2.532,0,0,0-.552-1.76A1.845,1.845,0,0,0,168.288-6a1.713,1.713,0,0,0-1.424.648,2.723,2.723,0,0,0-.512,1.736,2.959,2.959,0,0,0,.488,1.728,1.647,1.647,0,0,0,1.448.7,1.741,1.741,0,0,0,1.456-.68A2.8,2.8,0,0,0,170.272-3.632Zm7.04-3.664a2.445,2.445,0,0,1,1.344.4l.3,2.24-1.328.16-.272-1.232a1.269,1.269,0,0,0-.544-.16,1.008,1.008,0,0,0-.776.368,1.486,1.486,0,0,0-.328,1.024v3.184h1.424V0h-4.208V-1.312H174V-5.856h-1.12V-7.184h2.7V-5.84a2.5,2.5,0,0,1,.616-1.032A1.5,1.5,0,0,1,177.312-7.3ZM188.16,0h-2.768V-1.376a3.164,3.164,0,0,1-.92,1.08A2.537,2.537,0,0,1,182.9.16a2.789,2.789,0,0,1-2.232-.96,3.922,3.922,0,0,1-.824-2.64,4.811,4.811,0,0,1,.776-2.712,2.713,2.713,0,0,1,2.44-1.176,2.778,2.778,0,0,1,1.432.344,2.414,2.414,0,0,1,.9.92V-9.7H183.84v-1.312H187.1v9.7h1.056Zm-2.768-3.456V-4a1.977,1.977,0,0,0-.544-1.424,1.762,1.762,0,0,0-1.3-.528,1.73,1.73,0,0,0-1.4.648,2.691,2.691,0,0,0-.536,1.768,2.493,2.493,0,0,0,.536,1.728,1.678,1.678,0,0,0,1.288.592,1.661,1.661,0,0,0,1.408-.72A2.622,2.622,0,0,0,185.392-3.456Z" transform="translate(49 256)"/>
    <g class="cls-32" transform="matrix(1, 0, 0, 1, 0, 0)">
      <path id="Path_281-2" data-name="Path 281" class="cls-2" d="M15.5,0h60a15.5,15.5,0,0,1,0,31h-60a15.5,15.5,0,0,1,0-31Z" transform="translate(48 294)"/>
    </g>
    <path id="Path_282" data-name="Path 282" class="cls-16" d="M7.56,0,6.5-2.884H2.632L1.568,0H0L3.794-10.038H5.362L9.142,0ZM6.076-4.2,5.068-7.014q-.056-.154-.154-.462t-.2-.644q-.1-.336-.154-.546-.112.434-.252.924t-.224.728L3.08-4.2ZM12.908.14a2.73,2.73,0,0,1-2.2-.98,4.423,4.423,0,0,1-.826-2.912,4.454,4.454,0,0,1,.84-2.94,2.754,2.754,0,0,1,2.212-.994,2.727,2.727,0,0,1,1.4.322,2.88,2.88,0,0,1,.882.784H15.3q-.028-.2-.07-.574a6.063,6.063,0,0,1-.042-.658V-10.64h1.484V0H15.512L15.26-1.008h-.07a2.8,2.8,0,0,1-.868.812A2.665,2.665,0,0,1,12.908.14Zm.35-1.218a1.778,1.778,0,0,0,1.533-.6,3.17,3.17,0,0,0,.455-1.834v-.224a3.936,3.936,0,0,0-.427-2.03,1.693,1.693,0,0,0-1.575-.7,1.52,1.52,0,0,0-1.372.728,3.748,3.748,0,0,0-.462,2.016,3.5,3.5,0,0,0,.462,1.96A1.56,1.56,0,0,0,13.258-1.078Zm12.39-2.7a4.056,4.056,0,0,1-.966,2.9A3.413,3.413,0,0,1,22.078.14a3.57,3.57,0,0,1-1.813-.455,3.185,3.185,0,0,1-1.246-1.33,4.583,4.583,0,0,1-.455-2.135,4.067,4.067,0,0,1,.952-2.891,3.4,3.4,0,0,1,2.6-1.015,3.6,3.6,0,0,1,1.827.455,3.194,3.194,0,0,1,1.246,1.323A4.54,4.54,0,0,1,25.648-3.78Zm-5.558,0a3.517,3.517,0,0,0,.483,1.988,1.718,1.718,0,0,0,1.533.714,1.718,1.718,0,0,0,1.533-.714,3.517,3.517,0,0,0,.483-1.988,3.441,3.441,0,0,0-.483-1.981,1.753,1.753,0,0,0-1.547-.693,1.719,1.719,0,0,0-1.526.693A3.48,3.48,0,0,0,20.09-3.78Zm8.918-6.86v2.562q0,.448-.021.875t-.049.651h.07a2.655,2.655,0,0,1,.868-.8,2.758,2.758,0,0,1,1.414-.322,2.735,2.735,0,0,1,2.191.98,4.4,4.4,0,0,1,.833,2.912,4.425,4.425,0,0,1-.84,2.933,2.748,2.748,0,0,1-2.2.987,2.768,2.768,0,0,1-1.407-.315,2.829,2.829,0,0,1-.861-.749H28.9L28.616,0H27.524V-10.64ZM30.94-6.468a1.659,1.659,0,0,0-1.5.637,3.676,3.676,0,0,0-.434,1.953v.112a3.937,3.937,0,0,0,.413,1.995,1.649,1.649,0,0,0,1.547.693,1.52,1.52,0,0,0,1.365-.7,3.706,3.706,0,0,0,.455-2.016Q32.788-6.468,30.94-6.468Zm8.232-1.218a3.039,3.039,0,0,1,2.338.917,3.522,3.522,0,0,1,.854,2.5v.812H37.3A2.591,2.591,0,0,0,37.9-1.68a2.134,2.134,0,0,0,1.631.616,5.7,5.7,0,0,0,1.3-.133A6.667,6.667,0,0,0,42-1.6V-.364a5.275,5.275,0,0,1-1.148.385A6.852,6.852,0,0,1,39.48.14a4.15,4.15,0,0,1-1.932-.434,3.083,3.083,0,0,1-1.309-1.288A4.377,4.377,0,0,1,35.77-3.71,4.919,4.919,0,0,1,36.2-5.866a3.15,3.15,0,0,1,1.19-1.351A3.34,3.34,0,0,1,39.172-7.686Zm0,1.148a1.669,1.669,0,0,0-1.281.518,2.4,2.4,0,0,0-.567,1.47H40.88a2.4,2.4,0,0,0-.427-1.435A1.494,1.494,0,0,0,39.172-6.538Zm10.4,2.688-2.562-3.7h1.694L50.5-4.83,52.29-7.546h1.68l-2.562,3.7L54.1,0h-1.68L50.5-2.884,48.566,0h-1.68ZM57.764.14a2.73,2.73,0,0,1-2.2-.98,4.423,4.423,0,0,1-.826-2.912,4.454,4.454,0,0,1,.84-2.94,2.754,2.754,0,0,1,2.212-.994,2.727,2.727,0,0,1,1.4.322,2.88,2.88,0,0,1,.882.784h.084q-.028-.2-.07-.574a6.063,6.063,0,0,1-.042-.658V-10.64H61.53V0H60.368l-.252-1.008h-.07a2.8,2.8,0,0,1-.868.812A2.665,2.665,0,0,1,57.764.14Zm.35-1.218a1.778,1.778,0,0,0,1.533-.6A3.17,3.17,0,0,0,60.1-3.514v-.224a3.937,3.937,0,0,0-.427-2.03,1.693,1.693,0,0,0-1.575-.7,1.52,1.52,0,0,0-1.372.728,3.748,3.748,0,0,0-.462,2.016,3.5,3.5,0,0,0,.462,1.96A1.56,1.56,0,0,0,58.114-1.078Z" transform="translate(62 315)"/>
    <g class="cls-31" transform="matrix(1, 0, 0, 1, 0, 0)">
      <path id="Path_283-2" data-name="Path 283" class="cls-2" d="M15.5,0h39a15.5,15.5,0,0,1,0,31h-39a15.5,15.5,0,0,1,0-31Z" transform="translate(147 294)"/>
    </g>
    <path id="Path_284" data-name="Path 284" class="cls-16" d="M4.088-7.686a3.128,3.128,0,0,1,2.121.623A2.473,2.473,0,0,1,6.916-5.11V0H5.866L5.572-1.05H5.516a3.372,3.372,0,0,1-1.029.9A3.206,3.206,0,0,1,3,.14,2.578,2.578,0,0,1,1.3-.413,2.111,2.111,0,0,1,.63-2.142,1.987,1.987,0,0,1,1.5-3.9,5.083,5.083,0,0,1,4.172-4.55L5.46-4.592v-.42a1.522,1.522,0,0,0-.378-1.169,1.527,1.527,0,0,0-1.064-.343,3.651,3.651,0,0,0-1.106.168A7.515,7.515,0,0,0,1.89-5.95L1.414-7.028A6.041,6.041,0,0,1,2.639-7.5,5.483,5.483,0,0,1,4.088-7.686Zm1.358,4.06L4.438-3.6a3.323,3.323,0,0,0-1.785.434,1.231,1.231,0,0,0-.5,1.036,1,1,0,0,0,.35.854,1.463,1.463,0,0,0,.91.266A2.17,2.17,0,0,0,4.865-1.5a1.815,1.815,0,0,0,.581-1.47ZM11.788.14a2.73,2.73,0,0,1-2.2-.98,4.423,4.423,0,0,1-.826-2.912,4.454,4.454,0,0,1,.84-2.94,2.754,2.754,0,0,1,2.212-.994,2.727,2.727,0,0,1,1.4.322,2.88,2.88,0,0,1,.882.784h.084q-.028-.2-.07-.574a6.063,6.063,0,0,1-.042-.658V-10.64h1.484V0H14.392L14.14-1.008h-.07A2.8,2.8,0,0,1,13.2-.2,2.665,2.665,0,0,1,11.788.14Zm.35-1.218a1.778,1.778,0,0,0,1.533-.6,3.17,3.17,0,0,0,.455-1.834v-.224a3.936,3.936,0,0,0-.427-2.03,1.693,1.693,0,0,0-1.575-.7,1.52,1.52,0,0,0-1.372.728,3.748,3.748,0,0,0-.462,2.016,3.5,3.5,0,0,0,.462,1.96A1.56,1.56,0,0,0,12.138-1.078Zm12.39-2.7a4.056,4.056,0,0,1-.966,2.9A3.413,3.413,0,0,1,20.958.14a3.57,3.57,0,0,1-1.813-.455A3.185,3.185,0,0,1,17.9-1.645a4.583,4.583,0,0,1-.455-2.135A4.067,4.067,0,0,1,18.4-6.671,3.4,3.4,0,0,1,21-7.686a3.6,3.6,0,0,1,1.827.455,3.194,3.194,0,0,1,1.246,1.323A4.54,4.54,0,0,1,24.528-3.78Zm-5.558,0a3.517,3.517,0,0,0,.483,1.988,1.718,1.718,0,0,0,1.533.714,1.718,1.718,0,0,0,1.533-.714A3.517,3.517,0,0,0,23-3.78a3.441,3.441,0,0,0-.483-1.981,1.753,1.753,0,0,0-1.547-.693,1.719,1.719,0,0,0-1.526.693A3.48,3.48,0,0,0,18.97-3.78Zm8.918-6.86v2.562q0,.448-.021.875t-.049.651h.07a2.655,2.655,0,0,1,.868-.8,2.758,2.758,0,0,1,1.414-.322,2.735,2.735,0,0,1,2.191.98,4.4,4.4,0,0,1,.833,2.912,4.425,4.425,0,0,1-.84,2.933,2.748,2.748,0,0,1-2.2.987,2.768,2.768,0,0,1-1.407-.315,2.829,2.829,0,0,1-.861-.749h-.112L27.5,0H26.4V-10.64ZM29.82-6.468a1.659,1.659,0,0,0-1.5.637,3.676,3.676,0,0,0-.434,1.953v.112A3.937,3.937,0,0,0,28.3-1.771a1.649,1.649,0,0,0,1.547.693,1.52,1.52,0,0,0,1.365-.7,3.706,3.706,0,0,0,.455-2.016Q31.668-6.468,29.82-6.468Zm8.232-1.218a3.039,3.039,0,0,1,2.338.917,3.522,3.522,0,0,1,.854,2.5v.812H36.176a2.591,2.591,0,0,0,.609,1.778,2.134,2.134,0,0,0,1.631.616,5.7,5.7,0,0,0,1.3-.133,6.667,6.667,0,0,0,1.169-.4V-.364a5.275,5.275,0,0,1-1.148.385A6.852,6.852,0,0,1,38.36.14a4.15,4.15,0,0,1-1.932-.434,3.083,3.083,0,0,1-1.309-1.288A4.377,4.377,0,0,1,34.65-3.71a4.919,4.919,0,0,1,.427-2.156,3.15,3.15,0,0,1,1.19-1.351A3.34,3.34,0,0,1,38.052-7.686Zm0,1.148a1.669,1.669,0,0,0-1.281.518A2.4,2.4,0,0,0,36.2-4.55H39.76a2.4,2.4,0,0,0-.427-1.435A1.494,1.494,0,0,0,38.052-6.538Z" transform="translate(161 315)"/>
    <g class="cls-30" transform="matrix(1, 0, 0, 1, 0, 0)">
      <path id="Path_297-2" data-name="Path 297" class="cls-2" d="M15.5,0h41a15.5,15.5,0,0,1,0,31h-41a15.5,15.5,0,0,1,0-31Z" transform="translate(225 294)"/>
    </g>
    <path id="Path_298" data-name="Path 298" class="cls-16" d="M6.174-2.128A1.947,1.947,0,0,1,5.369-.434,3.847,3.847,0,0,1,3.108.14,7.156,7.156,0,0,1,1.743.028,4.1,4.1,0,0,1,.7-.322v-1.3A7.1,7.1,0,0,0,1.855-1.2a4.726,4.726,0,0,0,1.295.189,2.124,2.124,0,0,0,1.211-.266.835.835,0,0,0,.371-.714.783.783,0,0,0-.14-.455,1.574,1.574,0,0,0-.525-.42,8.611,8.611,0,0,0-1.127-.5,8.234,8.234,0,0,1-1.225-.574,2.271,2.271,0,0,1-.763-.7A1.829,1.829,0,0,1,.686-5.656a1.7,1.7,0,0,1,.791-1.505A3.728,3.728,0,0,1,3.57-7.686a5.768,5.768,0,0,1,1.295.14,6.634,6.634,0,0,1,1.183.392L5.558-6.02A8.327,8.327,0,0,0,4.55-6.377,3.828,3.828,0,0,0,3.5-6.524q-1.372,0-1.372.8a.705.705,0,0,0,.161.462,1.7,1.7,0,0,0,.56.392q.4.2,1.113.476a8.587,8.587,0,0,1,1.183.553,2.209,2.209,0,0,1,.763.693A1.829,1.829,0,0,1,6.174-2.128ZM9.408-10.64v5.32q0,.28-.028.672t-.042.7H9.38q.154-.21.427-.553t.483-.567L12.6-7.546h1.722L11.284-4.312,14.518,0h-1.75L10.276-3.374l-.868.728V0H7.938V-10.64Zm9.324,2.954a3.039,3.039,0,0,1,2.338.917,3.522,3.522,0,0,1,.854,2.5v.812H16.856a2.591,2.591,0,0,0,.609,1.778,2.134,2.134,0,0,0,1.631.616,5.7,5.7,0,0,0,1.3-.133,6.667,6.667,0,0,0,1.169-.4V-.364a5.275,5.275,0,0,1-1.148.385A6.852,6.852,0,0,1,19.04.14a4.15,4.15,0,0,1-1.932-.434A3.083,3.083,0,0,1,15.8-1.582,4.377,4.377,0,0,1,15.33-3.71a4.919,4.919,0,0,1,.427-2.156,3.15,3.15,0,0,1,1.19-1.351A3.34,3.34,0,0,1,18.732-7.686Zm0,1.148a1.669,1.669,0,0,0-1.281.518,2.4,2.4,0,0,0-.567,1.47H20.44a2.4,2.4,0,0,0-.427-1.435A1.494,1.494,0,0,0,18.732-6.538Zm7.756,5.474a3.323,3.323,0,0,0,1.134-.182v1.12a2.759,2.759,0,0,1-.644.189,4.349,4.349,0,0,1-.812.077,2.938,2.938,0,0,1-1.127-.21A1.689,1.689,0,0,1,24.22-.8a2.83,2.83,0,0,1-.308-1.442V-6.412h-1.05v-.672l1.106-.56.518-1.6h.91v1.694h2.156v1.134H25.4v4.144a1.222,1.222,0,0,0,.3.91A1.084,1.084,0,0,0,26.488-1.064ZM32.172.14a3.449,3.449,0,0,1-2.52-.931A3.952,3.952,0,0,1,28.7-3.724a4.823,4.823,0,0,1,.462-2.268,2.938,2.938,0,0,1,1.274-1.281,4.019,4.019,0,0,1,1.848-.413,5.316,5.316,0,0,1,1.183.126,4.116,4.116,0,0,1,.917.308l-.448,1.2q-.392-.14-.826-.259a3.172,3.172,0,0,0-.84-.119q-2.044,0-2.044,2.688a3.231,3.231,0,0,0,.5,1.96,1.739,1.739,0,0,0,1.484.672,4.027,4.027,0,0,0,1.106-.14,4.284,4.284,0,0,0,.9-.364V-.322a3.167,3.167,0,0,1-.882.35A5.156,5.156,0,0,1,32.172.14Zm5.306-10.78V-7.8q0,.35-.028.7t-.056.574h.1a2.284,2.284,0,0,1,.973-.861,3.064,3.064,0,0,1,1.323-.287,2.883,2.883,0,0,1,2.037.658,2.75,2.75,0,0,1,.707,2.1V0h-1.47V-4.7q0-1.764-1.554-1.764a1.726,1.726,0,0,0-1.6.7,3.753,3.753,0,0,0-.434,1.974V0H35.994V-10.64Z" transform="translate(239 315)"/>
    <g class="cls-29" transform="matrix(1, 0, 0, 1, 0, 0)">
      <path id="Path_285-2" data-name="Path 285" class="cls-2" d="M15.5,0h88a15.5,15.5,0,0,1,0,31h-88a15.5,15.5,0,0,1,0-31Z" transform="translate(48 333)"/>
    </g>
    <path id="Path_286" data-name="Path 286" class="cls-16" d="M6.174-2.128A1.947,1.947,0,0,1,5.369-.434,3.847,3.847,0,0,1,3.108.14,7.156,7.156,0,0,1,1.743.028,4.1,4.1,0,0,1,.7-.322v-1.3A7.1,7.1,0,0,0,1.855-1.2a4.726,4.726,0,0,0,1.295.189,2.124,2.124,0,0,0,1.211-.266.835.835,0,0,0,.371-.714.783.783,0,0,0-.14-.455,1.574,1.574,0,0,0-.525-.42,8.611,8.611,0,0,0-1.127-.5,8.234,8.234,0,0,1-1.225-.574,2.271,2.271,0,0,1-.763-.7A1.829,1.829,0,0,1,.686-5.656a1.7,1.7,0,0,1,.791-1.505A3.728,3.728,0,0,1,3.57-7.686a5.768,5.768,0,0,1,1.295.14,6.634,6.634,0,0,1,1.183.392L5.558-6.02A8.327,8.327,0,0,0,4.55-6.377,3.828,3.828,0,0,0,3.5-6.524q-1.372,0-1.372.8a.705.705,0,0,0,.161.462,1.7,1.7,0,0,0,.56.392q.4.2,1.113.476a8.587,8.587,0,0,1,1.183.553,2.209,2.209,0,0,1,.763.693A1.829,1.829,0,0,1,6.174-2.128Zm4.48,1.064a3.323,3.323,0,0,0,1.134-.182v1.12a2.759,2.759,0,0,1-.644.189,4.349,4.349,0,0,1-.812.077A2.938,2.938,0,0,1,9.2-.07,1.689,1.689,0,0,1,8.386-.8,2.83,2.83,0,0,1,8.078-2.24V-6.412H7.028v-.672l1.106-.56.518-1.6h.91v1.694h2.156v1.134H9.562v4.144a1.222,1.222,0,0,0,.3.91A1.084,1.084,0,0,0,10.654-1.064Zm5.572-6.622a3.128,3.128,0,0,1,2.121.623,2.473,2.473,0,0,1,.707,1.953V0H18L17.71-1.05h-.056a3.372,3.372,0,0,1-1.029.9A3.206,3.206,0,0,1,15.134.14,2.578,2.578,0,0,1,13.44-.413a2.111,2.111,0,0,1-.672-1.729A1.987,1.987,0,0,1,13.643-3.9,5.083,5.083,0,0,1,16.31-4.55L17.6-4.592v-.42a1.522,1.522,0,0,0-.378-1.169,1.527,1.527,0,0,0-1.064-.343,3.651,3.651,0,0,0-1.106.168,7.515,7.515,0,0,0-1.022.406l-.476-1.078A6.041,6.041,0,0,1,14.777-7.5,5.483,5.483,0,0,1,16.226-7.686Zm1.358,4.06L16.576-3.6a3.323,3.323,0,0,0-1.785.434,1.231,1.231,0,0,0-.5,1.036,1,1,0,0,0,.35.854,1.463,1.463,0,0,0,.91.266A2.17,2.17,0,0,0,17-1.5a1.815,1.815,0,0,0,.581-1.47ZM24.374.14a3.449,3.449,0,0,1-2.52-.931A3.952,3.952,0,0,1,20.9-3.724a4.823,4.823,0,0,1,.462-2.268,2.938,2.938,0,0,1,1.274-1.281,4.019,4.019,0,0,1,1.848-.413,5.316,5.316,0,0,1,1.183.126,4.117,4.117,0,0,1,.917.308l-.448,1.2q-.392-.14-.826-.259a3.172,3.172,0,0,0-.84-.119q-2.044,0-2.044,2.688a3.231,3.231,0,0,0,.5,1.96,1.739,1.739,0,0,0,1.484.672,4.027,4.027,0,0,0,1.106-.14,4.284,4.284,0,0,0,.9-.364V-.322a3.167,3.167,0,0,1-.882.35A5.156,5.156,0,0,1,24.374.14Zm5.292-10.78v5.32q0,.28-.028.672t-.042.7h.042q.154-.21.427-.553t.483-.567l2.31-2.478H34.58L31.542-4.312,34.776,0h-1.75L30.534-3.374l-.868.728V0H28.2V-10.64ZM42.672-3.78a4.056,4.056,0,0,1-.966,2.9A3.413,3.413,0,0,1,39.1.14a3.57,3.57,0,0,1-1.813-.455,3.185,3.185,0,0,1-1.246-1.33,4.583,4.583,0,0,1-.455-2.135,4.067,4.067,0,0,1,.952-2.891,3.4,3.4,0,0,1,2.6-1.015,3.6,3.6,0,0,1,1.827.455,3.194,3.194,0,0,1,1.246,1.323A4.54,4.54,0,0,1,42.672-3.78Zm-5.558,0A3.517,3.517,0,0,0,37.6-1.792a1.718,1.718,0,0,0,1.533.714,1.718,1.718,0,0,0,1.533-.714,3.517,3.517,0,0,0,.483-1.988,3.441,3.441,0,0,0-.483-1.981,1.753,1.753,0,0,0-1.547-.693,1.719,1.719,0,0,0-1.526.693A3.48,3.48,0,0,0,37.114-3.78ZM45.962,0,43.106-7.546h1.568l1.568,4.41q.14.448.294.98a7.642,7.642,0,0,1,.21.882H46.8a6.651,6.651,0,0,1,.224-.889q.168-.539.308-.973L48.9-7.546H50.47L47.6,0ZM54.6-7.686a3.039,3.039,0,0,1,2.338.917,3.522,3.522,0,0,1,.854,2.5v.812H52.724a2.591,2.591,0,0,0,.609,1.778,2.134,2.134,0,0,0,1.631.616,5.7,5.7,0,0,0,1.3-.133,6.667,6.667,0,0,0,1.169-.4V-.364A5.275,5.275,0,0,1,56.28.021,6.852,6.852,0,0,1,54.908.14a4.15,4.15,0,0,1-1.932-.434,3.083,3.083,0,0,1-1.309-1.288A4.377,4.377,0,0,1,51.2-3.71a4.919,4.919,0,0,1,.427-2.156,3.15,3.15,0,0,1,1.19-1.351A3.34,3.34,0,0,1,54.6-7.686Zm0,1.148a1.669,1.669,0,0,0-1.281.518,2.4,2.4,0,0,0-.567,1.47h3.556a2.4,2.4,0,0,0-.427-1.435A1.494,1.494,0,0,0,54.6-6.538Zm8.764-1.148a4.544,4.544,0,0,1,.826.07L64.036-6.23a2.9,2.9,0,0,0-.756-.1,2.108,2.108,0,0,0-1.064.28,2.115,2.115,0,0,0-.791.805,2.508,2.508,0,0,0-.3,1.267V0H59.64V-7.546h1.176l.2,1.344h.056a3.492,3.492,0,0,1,.938-1.043A2.2,2.2,0,0,1,63.364-7.686Zm5.908,1.274H67.41V0H65.926V-6.412H64.652v-.7l1.274-.462V-8.05a2.68,2.68,0,0,1,.665-2.051,2.645,2.645,0,0,1,1.855-.609,4.43,4.43,0,0,1,.9.084,5.462,5.462,0,0,1,.686.182L69.65-9.31q-.238-.07-.532-.133a2.865,2.865,0,0,0-.6-.063q-1.106,0-1.106,1.47v.49h1.862ZM72.072,0H70.588V-10.64h1.484Zm8.974-3.78a4.056,4.056,0,0,1-.966,2.9A3.413,3.413,0,0,1,77.476.14a3.57,3.57,0,0,1-1.813-.455,3.185,3.185,0,0,1-1.246-1.33,4.583,4.583,0,0,1-.455-2.135,4.067,4.067,0,0,1,.952-2.891,3.4,3.4,0,0,1,2.6-1.015,3.6,3.6,0,0,1,1.827.455,3.194,3.194,0,0,1,1.246,1.323A4.54,4.54,0,0,1,81.046-3.78Zm-5.558,0a3.517,3.517,0,0,0,.483,1.988,1.718,1.718,0,0,0,1.533.714,1.718,1.718,0,0,0,1.533-.714A3.517,3.517,0,0,0,79.52-3.78a3.441,3.441,0,0,0-.483-1.981,1.753,1.753,0,0,0-1.547-.693,1.719,1.719,0,0,0-1.526.693A3.48,3.48,0,0,0,75.488-3.78ZM88.816-.014,87.738-3.78l-.224-.833q-.126-.469-.224-.9t-.154-.665H87.08q-.042.238-.14.665t-.217.9q-.119.469-.231.847L85.372-.014H83.72L81.634-7.56h1.512l.98,3.822q.154.588.287,1.253T84.6-1.414h.056q.042-.238.119-.637t.168-.791q.091-.392.175-.644l1.2-4.074h1.624l1.176,4.074q.084.28.182.665t.175.763q.077.378.105.63h.056q.028-.224.1-.616t.175-.84q.1-.448.2-.854L91.126-7.56h1.5L90.51-.014Z" transform="translate(62 354)"/>
    <g class="cls-28" transform="matrix(1, 0, 0, 1, 0, 0)">
      <path id="Path_287-2" data-name="Path 287" class="cls-2" d="M15.5,0h47a15.5,15.5,0,0,1,0,31h-47a15.5,15.5,0,0,1,0-31Z" transform="translate(48 372)"/>
    </g>
    <path id="Path_288" data-name="Path 288" class="cls-16" d="M4.2.14A3.449,3.449,0,0,1,1.68-.791,3.952,3.952,0,0,1,.728-3.724,4.823,4.823,0,0,1,1.19-5.992,2.938,2.938,0,0,1,2.464-7.273a4.019,4.019,0,0,1,1.848-.413A5.316,5.316,0,0,1,5.5-7.56a4.117,4.117,0,0,1,.917.308l-.448,1.2q-.392-.14-.826-.259a3.172,3.172,0,0,0-.84-.119q-2.044,0-2.044,2.688a3.231,3.231,0,0,0,.5,1.96,1.739,1.739,0,0,0,1.484.672,4.027,4.027,0,0,0,1.106-.14,4.284,4.284,0,0,0,.9-.364V-.322a3.167,3.167,0,0,1-.882.35A5.156,5.156,0,0,1,4.2.14ZM9.506-10.64V-7.8q0,.35-.028.7t-.056.574h.1a2.284,2.284,0,0,1,.973-.861,3.064,3.064,0,0,1,1.323-.287,2.883,2.883,0,0,1,2.037.658,2.75,2.75,0,0,1,.707,2.1V0H13.09V-4.7q0-1.764-1.554-1.764a1.726,1.726,0,0,0-1.6.7,3.753,3.753,0,0,0-.434,1.974V0H8.022V-10.64Zm11.06,2.954a4.544,4.544,0,0,1,.826.07L21.238-6.23a2.9,2.9,0,0,0-.756-.1,2.108,2.108,0,0,0-1.064.28,2.115,2.115,0,0,0-.791.805,2.508,2.508,0,0,0-.3,1.267V0H16.842V-7.546h1.176l.2,1.344h.056a3.492,3.492,0,0,1,.938-1.043A2.2,2.2,0,0,1,20.566-7.686Zm8.6,3.906a4.056,4.056,0,0,1-.966,2.9A3.413,3.413,0,0,1,25.592.14a3.57,3.57,0,0,1-1.813-.455,3.185,3.185,0,0,1-1.246-1.33,4.583,4.583,0,0,1-.455-2.135,4.067,4.067,0,0,1,.952-2.891,3.4,3.4,0,0,1,2.6-1.015,3.6,3.6,0,0,1,1.827.455,3.194,3.194,0,0,1,1.246,1.323A4.54,4.54,0,0,1,29.162-3.78Zm-5.558,0a3.517,3.517,0,0,0,.483,1.988,1.718,1.718,0,0,0,1.533.714,1.718,1.718,0,0,0,1.533-.714,3.517,3.517,0,0,0,.483-1.988,3.441,3.441,0,0,0-.483-1.981,1.753,1.753,0,0,0-1.547-.693,1.719,1.719,0,0,0-1.526.693A3.48,3.48,0,0,0,23.6-3.78Zm15.89-3.906a2.569,2.569,0,0,1,1.918.658,2.938,2.938,0,0,1,.644,2.114V0H40.572V-4.718q0-1.75-1.414-1.75a1.632,1.632,0,0,0-1.442.623,3.1,3.1,0,0,0-.434,1.785V0h-1.47V-4.718q0-1.75-1.428-1.75a1.547,1.547,0,0,0-1.463.686,3.975,3.975,0,0,0-.4,1.974V0H31.038V-7.546h1.176l.21,1.008h.084a2.146,2.146,0,0,1,.945-.868,2.939,2.939,0,0,1,1.267-.28,2.265,2.265,0,0,1,2.3,1.218h.112a2.256,2.256,0,0,1,1.008-.917A3.169,3.169,0,0,1,39.494-7.686Zm7.8,0a3.039,3.039,0,0,1,2.338.917,3.522,3.522,0,0,1,.854,2.5v.812H45.416a2.591,2.591,0,0,0,.609,1.778,2.134,2.134,0,0,0,1.631.616,5.7,5.7,0,0,0,1.3-.133,6.667,6.667,0,0,0,1.169-.4V-.364a5.275,5.275,0,0,1-1.148.385A6.852,6.852,0,0,1,47.6.14a4.15,4.15,0,0,1-1.932-.434,3.083,3.083,0,0,1-1.309-1.288A4.377,4.377,0,0,1,43.89-3.71a4.919,4.919,0,0,1,.427-2.156,3.15,3.15,0,0,1,1.19-1.351A3.34,3.34,0,0,1,47.292-7.686Zm0,1.148a1.669,1.669,0,0,0-1.281.518,2.4,2.4,0,0,0-.567,1.47H49a2.4,2.4,0,0,0-.427-1.435A1.494,1.494,0,0,0,47.292-6.538Z" transform="translate(62 393)"/>
    <g class="cls-27" transform="matrix(1, 0, 0, 1, 0, 0)">
      <path id="Path_289-2" data-name="Path 289" class="cls-2" d="M15.5,0h38a15.5,15.5,0,0,1,0,31h-38a15.5,15.5,0,0,1,0-31Z" transform="translate(134 372)"/>
    </g>
    <path id="Path_290" data-name="Path 290" class="cls-16" d="M4.844-6.412H2.982V0H1.5V-6.412H.224v-.7L1.5-7.574V-8.05A2.68,2.68,0,0,1,2.163-10.1a2.645,2.645,0,0,1,1.855-.609,4.43,4.43,0,0,1,.9.084,5.462,5.462,0,0,1,.686.182L5.222-9.31q-.238-.07-.532-.133a2.865,2.865,0,0,0-.6-.063q-1.106,0-1.106,1.47v.49H4.844Zm2.072-4a.93.93,0,0,1,.588.2.784.784,0,0,1,.252.658.787.787,0,0,1-.252.651.91.91,0,0,1-.588.2.93.93,0,0,1-.6-.2.787.787,0,0,1-.252-.651.784.784,0,0,1,.252-.658A.951.951,0,0,1,6.916-10.416Zm.728,2.87V0H6.16V-7.546Zm6.048-.14a4.544,4.544,0,0,1,.826.07L14.364-6.23a2.9,2.9,0,0,0-.756-.1,2.108,2.108,0,0,0-1.064.28,2.115,2.115,0,0,0-.791.805,2.508,2.508,0,0,0-.3,1.267V0H9.968V-7.546h1.176l.2,1.344H11.4a3.492,3.492,0,0,1,.938-1.043A2.2,2.2,0,0,1,13.692-7.686Zm4.914,0a3.039,3.039,0,0,1,2.338.917,3.522,3.522,0,0,1,.854,2.5v.812H16.73a2.591,2.591,0,0,0,.609,1.778,2.134,2.134,0,0,0,1.631.616,5.7,5.7,0,0,0,1.3-.133,6.667,6.667,0,0,0,1.169-.4V-.364a5.275,5.275,0,0,1-1.148.385A6.852,6.852,0,0,1,18.914.14a4.15,4.15,0,0,1-1.932-.434,3.083,3.083,0,0,1-1.309-1.288A4.377,4.377,0,0,1,15.2-3.71a4.919,4.919,0,0,1,.427-2.156,3.15,3.15,0,0,1,1.19-1.351A3.34,3.34,0,0,1,18.606-7.686Zm0,1.148a1.669,1.669,0,0,0-1.281.518,2.4,2.4,0,0,0-.567,1.47h3.556a2.4,2.4,0,0,0-.427-1.435A1.494,1.494,0,0,0,18.606-6.538Zm8.722.126H25.466V0H23.982V-6.412H22.708v-.7l1.274-.462V-8.05a2.68,2.68,0,0,1,.665-2.051A2.645,2.645,0,0,1,26.5-10.71a4.43,4.43,0,0,1,.9.084,5.462,5.462,0,0,1,.686.182L27.706-9.31q-.238-.07-.532-.133a2.865,2.865,0,0,0-.6-.063q-1.106,0-1.106,1.47v.49h1.862ZM35.294-3.78a4.056,4.056,0,0,1-.966,2.9A3.413,3.413,0,0,1,31.724.14a3.57,3.57,0,0,1-1.813-.455,3.185,3.185,0,0,1-1.246-1.33A4.583,4.583,0,0,1,28.21-3.78a4.067,4.067,0,0,1,.952-2.891,3.4,3.4,0,0,1,2.6-1.015,3.6,3.6,0,0,1,1.827.455,3.194,3.194,0,0,1,1.246,1.323A4.54,4.54,0,0,1,35.294-3.78Zm-5.558,0a3.517,3.517,0,0,0,.483,1.988,1.718,1.718,0,0,0,1.533.714,1.718,1.718,0,0,0,1.533-.714,3.517,3.517,0,0,0,.483-1.988,3.441,3.441,0,0,0-.483-1.981,1.753,1.753,0,0,0-1.547-.693,1.719,1.719,0,0,0-1.526.693A3.48,3.48,0,0,0,29.736-3.78Zm8.876-.07-2.562-3.7h1.694L39.536-4.83l1.792-2.716h1.68l-2.562,3.7L43.134,0h-1.68L39.536-2.884,37.6,0h-1.68Z" transform="translate(148 393)"/>
    <g class="cls-26" transform="matrix(1, 0, 0, 1, 0, 0)">
      <path id="Path_299-2" data-name="Path 299" class="cls-2" d="M15.5,0h34a15.5,15.5,0,0,1,0,31h-34a15.5,15.5,0,0,1,0-31Z" transform="translate(211 372)"/>
    </g>
    <path id="Path_300" data-name="Path 300" class="cls-16" d="M6.174-2.128A1.947,1.947,0,0,1,5.369-.434,3.847,3.847,0,0,1,3.108.14,7.156,7.156,0,0,1,1.743.028,4.1,4.1,0,0,1,.7-.322v-1.3A7.1,7.1,0,0,0,1.855-1.2a4.726,4.726,0,0,0,1.295.189,2.124,2.124,0,0,0,1.211-.266.835.835,0,0,0,.371-.714.783.783,0,0,0-.14-.455,1.574,1.574,0,0,0-.525-.42,8.611,8.611,0,0,0-1.127-.5,8.234,8.234,0,0,1-1.225-.574,2.271,2.271,0,0,1-.763-.7A1.829,1.829,0,0,1,.686-5.656a1.7,1.7,0,0,1,.791-1.505A3.728,3.728,0,0,1,3.57-7.686a5.768,5.768,0,0,1,1.295.14,6.634,6.634,0,0,1,1.183.392L5.558-6.02A8.327,8.327,0,0,0,4.55-6.377,3.828,3.828,0,0,0,3.5-6.524q-1.372,0-1.372.8a.705.705,0,0,0,.161.462,1.7,1.7,0,0,0,.56.392q.4.2,1.113.476a8.587,8.587,0,0,1,1.183.553,2.209,2.209,0,0,1,.763.693A1.829,1.829,0,0,1,6.174-2.128Zm4.69-5.558a3.128,3.128,0,0,1,2.121.623,2.473,2.473,0,0,1,.707,1.953V0h-1.05l-.294-1.05h-.056a3.372,3.372,0,0,1-1.029.9A3.206,3.206,0,0,1,9.772.14,2.578,2.578,0,0,1,8.078-.413a2.111,2.111,0,0,1-.672-1.729A1.987,1.987,0,0,1,8.281-3.9a5.083,5.083,0,0,1,2.667-.651l1.288-.042v-.42a1.522,1.522,0,0,0-.378-1.169,1.527,1.527,0,0,0-1.064-.343,3.651,3.651,0,0,0-1.106.168,7.515,7.515,0,0,0-1.022.406L8.19-7.028A6.041,6.041,0,0,1,9.415-7.5,5.483,5.483,0,0,1,10.864-7.686Zm1.358,4.06L11.214-3.6a3.323,3.323,0,0,0-1.785.434,1.231,1.231,0,0,0-.5,1.036,1,1,0,0,0,.35.854,1.463,1.463,0,0,0,.91.266,2.17,2.17,0,0,0,1.449-.49,1.815,1.815,0,0,0,.581-1.47Zm7.434-2.786H17.794V0H16.31V-6.412H15.036v-.7l1.274-.462V-8.05a2.68,2.68,0,0,1,.665-2.051,2.645,2.645,0,0,1,1.855-.609,4.43,4.43,0,0,1,.9.084,5.462,5.462,0,0,1,.686.182L20.034-9.31q-.238-.07-.532-.133a2.865,2.865,0,0,0-.6-.063q-1.106,0-1.106,1.47v.49h1.862ZM23.9-7.686a3.128,3.128,0,0,1,2.121.623,2.473,2.473,0,0,1,.707,1.953V0h-1.05l-.294-1.05h-.056a3.372,3.372,0,0,1-1.029.9A3.206,3.206,0,0,1,22.806.14a2.578,2.578,0,0,1-1.694-.553,2.111,2.111,0,0,1-.672-1.729A1.987,1.987,0,0,1,21.315-3.9a5.083,5.083,0,0,1,2.667-.651l1.288-.042v-.42a1.522,1.522,0,0,0-.378-1.169,1.527,1.527,0,0,0-1.064-.343,3.651,3.651,0,0,0-1.106.168A7.515,7.515,0,0,0,21.7-5.95l-.476-1.078A6.041,6.041,0,0,1,22.449-7.5,5.483,5.483,0,0,1,23.9-7.686Zm1.358,4.06L24.248-3.6a3.323,3.323,0,0,0-1.785.434,1.231,1.231,0,0,0-.5,1.036,1,1,0,0,0,.35.854,1.463,1.463,0,0,0,.91.266,2.17,2.17,0,0,0,1.449-.49,1.815,1.815,0,0,0,.581-1.47Zm7.476-4.06a4.544,4.544,0,0,1,.826.07L33.4-6.23a2.9,2.9,0,0,0-.756-.1,2.108,2.108,0,0,0-1.064.28,2.115,2.115,0,0,0-.791.805,2.508,2.508,0,0,0-.3,1.267V0H29.008V-7.546h1.176l.2,1.344h.056a3.492,3.492,0,0,1,.938-1.043A2.2,2.2,0,0,1,32.732-7.686Zm2.982-2.73a.93.93,0,0,1,.588.2.784.784,0,0,1,.252.658.787.787,0,0,1-.252.651.91.91,0,0,1-.588.2.93.93,0,0,1-.6-.2.787.787,0,0,1-.252-.651.784.784,0,0,1,.252-.658A.951.951,0,0,1,35.714-10.416Zm.728,2.87V0H34.958V-7.546Z" transform="translate(225 393)"/>
    <g class="cls-25" transform="matrix(1, 0, 0, 1, 0, 0)">
      <path id="Path_301-2" data-name="Path 301" class="cls-2" d="M15.5,0h32a15.5,15.5,0,0,1,0,31h-32a15.5,15.5,0,0,1,0-31Z" transform="translate(284 372)"/>
    </g>
    <path id="Path_302" data-name="Path 302" class="cls-16" d="M6.174-2.128A1.947,1.947,0,0,1,5.369-.434,3.847,3.847,0,0,1,3.108.14,7.156,7.156,0,0,1,1.743.028,4.1,4.1,0,0,1,.7-.322v-1.3A7.1,7.1,0,0,0,1.855-1.2a4.726,4.726,0,0,0,1.295.189,2.124,2.124,0,0,0,1.211-.266.835.835,0,0,0,.371-.714.783.783,0,0,0-.14-.455,1.574,1.574,0,0,0-.525-.42,8.611,8.611,0,0,0-1.127-.5,8.234,8.234,0,0,1-1.225-.574,2.271,2.271,0,0,1-.763-.7A1.829,1.829,0,0,1,.686-5.656a1.7,1.7,0,0,1,.791-1.505A3.728,3.728,0,0,1,3.57-7.686a5.768,5.768,0,0,1,1.295.14,6.634,6.634,0,0,1,1.183.392L5.558-6.02A8.327,8.327,0,0,0,4.55-6.377,3.828,3.828,0,0,0,3.5-6.524q-1.372,0-1.372.8a.705.705,0,0,0,.161.462,1.7,1.7,0,0,0,.56.392q.4.2,1.113.476a8.587,8.587,0,0,1,1.183.553,2.209,2.209,0,0,1,.763.693A1.829,1.829,0,0,1,6.174-2.128ZM9.422,0H7.938V-10.64H9.422Zm5.25-7.686a3.128,3.128,0,0,1,2.121.623A2.473,2.473,0,0,1,17.5-5.11V0H16.45l-.294-1.05H16.1a3.372,3.372,0,0,1-1.029.9A3.206,3.206,0,0,1,13.58.14a2.578,2.578,0,0,1-1.694-.553,2.111,2.111,0,0,1-.672-1.729A1.987,1.987,0,0,1,12.089-3.9a5.083,5.083,0,0,1,2.667-.651l1.288-.042v-.42a1.522,1.522,0,0,0-.378-1.169A1.527,1.527,0,0,0,14.6-6.524a3.651,3.651,0,0,0-1.106.168,7.515,7.515,0,0,0-1.022.406L12-7.028A6.041,6.041,0,0,1,13.223-7.5,5.483,5.483,0,0,1,14.672-7.686Zm1.358,4.06L15.022-3.6a3.323,3.323,0,0,0-1.785.434,1.231,1.231,0,0,0-.5,1.036,1,1,0,0,0,.35.854,1.463,1.463,0,0,0,.91.266,2.17,2.17,0,0,0,1.449-.49,1.815,1.815,0,0,0,.581-1.47ZM22.82.14A3.449,3.449,0,0,1,20.3-.791a3.952,3.952,0,0,1-.952-2.933,4.823,4.823,0,0,1,.462-2.268,2.938,2.938,0,0,1,1.274-1.281,4.019,4.019,0,0,1,1.848-.413,5.316,5.316,0,0,1,1.183.126,4.117,4.117,0,0,1,.917.308l-.448,1.2q-.392-.14-.826-.259a3.172,3.172,0,0,0-.84-.119q-2.044,0-2.044,2.688a3.231,3.231,0,0,0,.5,1.96,1.739,1.739,0,0,0,1.484.672,4.027,4.027,0,0,0,1.106-.14,4.284,4.284,0,0,0,.9-.364V-.322a3.167,3.167,0,0,1-.882.35A5.156,5.156,0,0,1,22.82.14Zm5.292-10.78v5.32q0,.28-.028.672t-.042.7h.042q.154-.21.427-.553t.483-.567L31.3-7.546h1.722L29.988-4.312,33.222,0h-1.75L28.98-3.374l-.868.728V0h-1.47V-10.64Z" transform="translate(298 393)"/>
    <g class="cls-24" transform="matrix(1, 0, 0, 1, 0, 0)">
      <path id="Path_303-2" data-name="Path 303" class="cls-2" d="M15.5,0h36a15.5,15.5,0,0,1,0,31h-36a15.5,15.5,0,0,1,0-31Z" transform="translate(49 411)"/>
    </g>
    <path id="Path_304" data-name="Path 304" class="cls-16" d="M6.174-2.128A1.947,1.947,0,0,1,5.369-.434,3.847,3.847,0,0,1,3.108.14,7.156,7.156,0,0,1,1.743.028,4.1,4.1,0,0,1,.7-.322v-1.3A7.1,7.1,0,0,0,1.855-1.2a4.726,4.726,0,0,0,1.295.189,2.124,2.124,0,0,0,1.211-.266.835.835,0,0,0,.371-.714.783.783,0,0,0-.14-.455,1.574,1.574,0,0,0-.525-.42,8.611,8.611,0,0,0-1.127-.5,8.234,8.234,0,0,1-1.225-.574,2.271,2.271,0,0,1-.763-.7A1.829,1.829,0,0,1,.686-5.656a1.7,1.7,0,0,1,.791-1.505A3.728,3.728,0,0,1,3.57-7.686a5.768,5.768,0,0,1,1.295.14,6.634,6.634,0,0,1,1.183.392L5.558-6.02A8.327,8.327,0,0,0,4.55-6.377,3.828,3.828,0,0,0,3.5-6.524q-1.372,0-1.372.8a.705.705,0,0,0,.161.462,1.7,1.7,0,0,0,.56.392q.4.2,1.113.476a8.587,8.587,0,0,1,1.183.553,2.209,2.209,0,0,1,.763.693A1.829,1.829,0,0,1,6.174-2.128ZM9.408-10.64v5.32q0,.28-.028.672t-.042.7H9.38q.154-.21.427-.553t.483-.567L12.6-7.546h1.722L11.284-4.312,14.518,0h-1.75L10.276-3.374l-.868.728V0H7.938V-10.64Zm5.208,3.094h1.6L17.78-3.262q.182.49.322.938a5.136,5.136,0,0,1,.2.9h.056q.07-.364.217-.854t.329-.994l1.484-4.27h1.6L18.746,1.022a4.321,4.321,0,0,1-1.085,1.715,2.517,2.517,0,0,1-1.771.623,4.452,4.452,0,0,1-.6-.035q-.252-.035-.434-.077V2.072q.14.028.364.056a3.723,3.723,0,0,0,.462.028,1.445,1.445,0,0,0,1.036-.371,2.526,2.526,0,0,0,.616-.973L17.64,0Zm12.292-.14a2.73,2.73,0,0,1,2.2.98,4.448,4.448,0,0,1,.826,2.926,4.434,4.434,0,0,1-.84,2.919,2.731,2.731,0,0,1-2.2,1,2.776,2.776,0,0,1-1.4-.315,2.8,2.8,0,0,1-.868-.749h-.1q.028.252.063.6a6.074,6.074,0,0,1,.035.609V3.36H23.142V-7.546h1.2l.21,1.008h.07a2.823,2.823,0,0,1,.861-.812A2.658,2.658,0,0,1,26.908-7.686Zm-.35,1.218a1.706,1.706,0,0,0-1.484.6,3.24,3.24,0,0,0-.448,1.848v.224a3.957,3.957,0,0,0,.42,2.016,1.645,1.645,0,0,0,1.54.7,1.487,1.487,0,0,0,1.372-.756,3.84,3.84,0,0,0,.448-1.974,3.6,3.6,0,0,0-.455-1.946A1.537,1.537,0,0,0,26.558-6.468ZM34.79-7.686a3.039,3.039,0,0,1,2.338.917,3.522,3.522,0,0,1,.854,2.5v.812H32.914a2.591,2.591,0,0,0,.609,1.778,2.134,2.134,0,0,0,1.631.616,5.7,5.7,0,0,0,1.3-.133,6.667,6.667,0,0,0,1.169-.4V-.364A5.275,5.275,0,0,1,36.47.021,6.852,6.852,0,0,1,35.1.14a4.15,4.15,0,0,1-1.932-.434,3.083,3.083,0,0,1-1.309-1.288,4.377,4.377,0,0,1-.469-2.128,4.919,4.919,0,0,1,.427-2.156,3.15,3.15,0,0,1,1.19-1.351A3.34,3.34,0,0,1,34.79-7.686Zm0,1.148a1.669,1.669,0,0,0-1.281.518,2.4,2.4,0,0,0-.567,1.47H36.5a2.4,2.4,0,0,0-.427-1.435A1.494,1.494,0,0,0,34.79-6.538Z" transform="translate(63 432)"/>
    <g class="cls-23" transform="matrix(1, 0, 0, 1, 0, 0)">
      <path id="Path_305-2" data-name="Path 305" class="cls-2" d="M15.5,0h35a15.5,15.5,0,0,1,0,31h-35a15.5,15.5,0,0,1,0-31Z" transform="translate(124 411)"/>
    </g>
    <path id="Path_306" data-name="Path 306" class="cls-16" d="M7.812-3.78a4.056,4.056,0,0,1-.966,2.9A3.413,3.413,0,0,1,4.242.14,3.57,3.57,0,0,1,2.429-.315a3.185,3.185,0,0,1-1.246-1.33A4.583,4.583,0,0,1,.728-3.78,4.067,4.067,0,0,1,1.68-6.671a3.4,3.4,0,0,1,2.6-1.015,3.6,3.6,0,0,1,1.827.455A3.194,3.194,0,0,1,7.357-5.908,4.54,4.54,0,0,1,7.812-3.78Zm-5.558,0a3.517,3.517,0,0,0,.483,1.988,1.718,1.718,0,0,0,1.533.714A1.718,1.718,0,0,0,5.8-1.792,3.517,3.517,0,0,0,6.286-3.78,3.441,3.441,0,0,0,5.8-5.761a1.753,1.753,0,0,0-1.547-.693,1.719,1.719,0,0,0-1.526.693A3.48,3.48,0,0,0,2.254-3.78Zm11.2-3.906a2.73,2.73,0,0,1,2.2.98,4.448,4.448,0,0,1,.826,2.926,4.434,4.434,0,0,1-.84,2.919,2.731,2.731,0,0,1-2.2,1,2.776,2.776,0,0,1-1.4-.315,2.8,2.8,0,0,1-.868-.749h-.1q.028.252.063.6a6.074,6.074,0,0,1,.035.609V3.36H9.688V-7.546h1.2l.21,1.008h.07a2.823,2.823,0,0,1,.861-.812A2.658,2.658,0,0,1,13.454-7.686ZM13.1-6.468a1.706,1.706,0,0,0-1.484.6,3.24,3.24,0,0,0-.448,1.848v.224a3.957,3.957,0,0,0,.42,2.016,1.645,1.645,0,0,0,1.54.7A1.487,1.487,0,0,0,14.5-1.834a3.84,3.84,0,0,0,.448-1.974A3.6,3.6,0,0,0,14.5-5.754,1.537,1.537,0,0,0,13.1-6.468Zm8.232-1.218a3.039,3.039,0,0,1,2.338.917,3.522,3.522,0,0,1,.854,2.5v.812H19.46a2.591,2.591,0,0,0,.609,1.778,2.134,2.134,0,0,0,1.631.616,5.7,5.7,0,0,0,1.3-.133,6.667,6.667,0,0,0,1.169-.4V-.364a5.275,5.275,0,0,1-1.148.385A6.852,6.852,0,0,1,21.644.14a4.15,4.15,0,0,1-1.932-.434A3.083,3.083,0,0,1,18.4-1.582a4.377,4.377,0,0,1-.469-2.128,4.919,4.919,0,0,1,.427-2.156,3.15,3.15,0,0,1,1.19-1.351A3.34,3.34,0,0,1,21.336-7.686Zm0,1.148a1.669,1.669,0,0,0-1.281.518,2.4,2.4,0,0,0-.567,1.47h3.556a2.4,2.4,0,0,0-.427-1.435A1.494,1.494,0,0,0,21.336-6.538ZM30.1-7.686a4.544,4.544,0,0,1,.826.07L30.772-6.23a2.9,2.9,0,0,0-.756-.1,2.108,2.108,0,0,0-1.064.28,2.115,2.115,0,0,0-.791.805,2.508,2.508,0,0,0-.3,1.267V0H26.376V-7.546h1.176l.2,1.344H27.8a3.492,3.492,0,0,1,.938-1.043A2.2,2.2,0,0,1,30.1-7.686Zm4.872,0a3.128,3.128,0,0,1,2.121.623A2.473,2.473,0,0,1,37.8-5.11V0H36.75l-.294-1.05H36.4a3.372,3.372,0,0,1-1.029.9A3.206,3.206,0,0,1,33.88.14a2.578,2.578,0,0,1-1.694-.553,2.111,2.111,0,0,1-.672-1.729A1.987,1.987,0,0,1,32.389-3.9a5.083,5.083,0,0,1,2.667-.651l1.288-.042v-.42a1.522,1.522,0,0,0-.378-1.169A1.527,1.527,0,0,0,34.9-6.524a3.651,3.651,0,0,0-1.106.168,7.515,7.515,0,0,0-1.022.406L32.3-7.028A6.041,6.041,0,0,1,33.523-7.5,5.483,5.483,0,0,1,34.972-7.686Zm1.358,4.06L35.322-3.6a3.323,3.323,0,0,0-1.785.434,1.231,1.231,0,0,0-.5,1.036,1,1,0,0,0,.35.854,1.463,1.463,0,0,0,.91.266,2.17,2.17,0,0,0,1.449-.49,1.815,1.815,0,0,0,.581-1.47Z" transform="translate(138 432)"/>
    <g class="cls-22" transform="matrix(1, 0, 0, 1, 0, 0)">
      <path id="Path_291-2" data-name="Path 291" class="cls-2" d="M15.5,0h96a15.5,15.5,0,0,1,0,31h-96a15.5,15.5,0,0,1,0-31Z" transform="translate(175 333)"/>
    </g>
    <path id="Path_292" data-name="Path 292" class="cls-16" d="M6.174-2.128A1.947,1.947,0,0,1,5.369-.434,3.847,3.847,0,0,1,3.108.14,7.156,7.156,0,0,1,1.743.028,4.1,4.1,0,0,1,.7-.322v-1.3A7.1,7.1,0,0,0,1.855-1.2a4.726,4.726,0,0,0,1.295.189,2.124,2.124,0,0,0,1.211-.266.835.835,0,0,0,.371-.714.783.783,0,0,0-.14-.455,1.574,1.574,0,0,0-.525-.42,8.611,8.611,0,0,0-1.127-.5,8.234,8.234,0,0,1-1.225-.574,2.271,2.271,0,0,1-.763-.7A1.829,1.829,0,0,1,.686-5.656a1.7,1.7,0,0,1,.791-1.505A3.728,3.728,0,0,1,3.57-7.686a5.768,5.768,0,0,1,1.295.14,6.634,6.634,0,0,1,1.183.392L5.558-6.02A8.327,8.327,0,0,0,4.55-6.377,3.828,3.828,0,0,0,3.5-6.524q-1.372,0-1.372.8a.705.705,0,0,0,.161.462,1.7,1.7,0,0,0,.56.392q.4.2,1.113.476a8.587,8.587,0,0,1,1.183.553,2.209,2.209,0,0,1,.763.693A1.829,1.829,0,0,1,6.174-2.128Zm4.48,1.064a3.323,3.323,0,0,0,1.134-.182v1.12a2.759,2.759,0,0,1-.644.189,4.349,4.349,0,0,1-.812.077A2.938,2.938,0,0,1,9.2-.07,1.689,1.689,0,0,1,8.386-.8,2.83,2.83,0,0,1,8.078-2.24V-6.412H7.028v-.672l1.106-.56.518-1.6h.91v1.694h2.156v1.134H9.562v4.144a1.222,1.222,0,0,0,.3.91A1.084,1.084,0,0,0,10.654-1.064Zm5.572-6.622a3.128,3.128,0,0,1,2.121.623,2.473,2.473,0,0,1,.707,1.953V0H18L17.71-1.05h-.056a3.372,3.372,0,0,1-1.029.9A3.206,3.206,0,0,1,15.134.14,2.578,2.578,0,0,1,13.44-.413a2.111,2.111,0,0,1-.672-1.729A1.987,1.987,0,0,1,13.643-3.9,5.083,5.083,0,0,1,16.31-4.55L17.6-4.592v-.42a1.522,1.522,0,0,0-.378-1.169,1.527,1.527,0,0,0-1.064-.343,3.651,3.651,0,0,0-1.106.168,7.515,7.515,0,0,0-1.022.406l-.476-1.078A6.041,6.041,0,0,1,14.777-7.5,5.483,5.483,0,0,1,16.226-7.686Zm1.358,4.06L16.576-3.6a3.323,3.323,0,0,0-1.785.434,1.231,1.231,0,0,0-.5,1.036,1,1,0,0,0,.35.854,1.463,1.463,0,0,0,.91.266A2.17,2.17,0,0,0,17-1.5a1.815,1.815,0,0,0,.581-1.47ZM24.374.14a3.449,3.449,0,0,1-2.52-.931A3.952,3.952,0,0,1,20.9-3.724a4.823,4.823,0,0,1,.462-2.268,2.938,2.938,0,0,1,1.274-1.281,4.019,4.019,0,0,1,1.848-.413,5.316,5.316,0,0,1,1.183.126,4.117,4.117,0,0,1,.917.308l-.448,1.2q-.392-.14-.826-.259a3.172,3.172,0,0,0-.84-.119q-2.044,0-2.044,2.688a3.231,3.231,0,0,0,.5,1.96,1.739,1.739,0,0,0,1.484.672,4.027,4.027,0,0,0,1.106-.14,4.284,4.284,0,0,0,.9-.364V-.322a3.167,3.167,0,0,1-.882.35A5.156,5.156,0,0,1,24.374.14Zm5.292-10.78v5.32q0,.28-.028.672t-.042.7h.042q.154-.21.427-.553t.483-.567l2.31-2.478H34.58L31.542-4.312,34.776,0h-1.75L30.534-3.374l-.868.728V0H28.2V-10.64ZM38.99-7.686a3.039,3.039,0,0,1,2.338.917,3.522,3.522,0,0,1,.854,2.5v.812H37.114a2.591,2.591,0,0,0,.609,1.778,2.134,2.134,0,0,0,1.631.616,5.7,5.7,0,0,0,1.3-.133,6.667,6.667,0,0,0,1.169-.4V-.364A5.275,5.275,0,0,1,40.67.021,6.852,6.852,0,0,1,39.3.14a4.15,4.15,0,0,1-1.932-.434,3.083,3.083,0,0,1-1.309-1.288,4.377,4.377,0,0,1-.469-2.128,4.919,4.919,0,0,1,.427-2.156,3.15,3.15,0,0,1,1.19-1.351A3.34,3.34,0,0,1,38.99-7.686Zm0,1.148a1.669,1.669,0,0,0-1.281.518,2.4,2.4,0,0,0-.567,1.47H40.7a2.4,2.4,0,0,0-.427-1.435A1.494,1.494,0,0,0,38.99-6.538ZM45.472-3.85l-2.562-3.7H44.6L46.4-4.83l1.792-2.716h1.68l-2.562,3.7L49.994,0h-1.68L46.4-2.884,44.464,0h-1.68ZM54.11.14a3.449,3.449,0,0,1-2.52-.931,3.952,3.952,0,0,1-.952-2.933A4.823,4.823,0,0,1,51.1-5.992a2.938,2.938,0,0,1,1.274-1.281,4.019,4.019,0,0,1,1.848-.413A5.316,5.316,0,0,1,55.4-7.56a4.116,4.116,0,0,1,.917.308l-.448,1.2q-.392-.14-.826-.259a3.172,3.172,0,0,0-.84-.119q-2.044,0-2.044,2.688a3.231,3.231,0,0,0,.5,1.96,1.739,1.739,0,0,0,1.484.672,4.027,4.027,0,0,0,1.106-.14,4.284,4.284,0,0,0,.9-.364V-.322a3.167,3.167,0,0,1-.882.35A5.156,5.156,0,0,1,54.11.14Zm5.306-10.78V-7.8q0,.35-.028.7t-.056.574h.1a2.284,2.284,0,0,1,.973-.861,3.064,3.064,0,0,1,1.323-.287,2.883,2.883,0,0,1,2.037.658,2.75,2.75,0,0,1,.707,2.1V0H63V-4.7q0-1.764-1.554-1.764a1.726,1.726,0,0,0-1.6.7,3.753,3.753,0,0,0-.434,1.974V0H57.932V-10.64ZM69.678-7.686a3.128,3.128,0,0,1,2.121.623,2.473,2.473,0,0,1,.707,1.953V0h-1.05l-.294-1.05h-.056a3.372,3.372,0,0,1-1.029.9A3.206,3.206,0,0,1,68.586.14a2.578,2.578,0,0,1-1.694-.553,2.111,2.111,0,0,1-.672-1.729A1.987,1.987,0,0,1,67.095-3.9a5.083,5.083,0,0,1,2.667-.651l1.288-.042v-.42a1.522,1.522,0,0,0-.378-1.169,1.527,1.527,0,0,0-1.064-.343,3.651,3.651,0,0,0-1.106.168,7.515,7.515,0,0,0-1.022.406L67-7.028A6.041,6.041,0,0,1,68.229-7.5,5.483,5.483,0,0,1,69.678-7.686Zm1.358,4.06L70.028-3.6a3.323,3.323,0,0,0-1.785.434,1.231,1.231,0,0,0-.5,1.036,1,1,0,0,0,.35.854,1.463,1.463,0,0,0,.91.266,2.17,2.17,0,0,0,1.449-.49,1.815,1.815,0,0,0,.581-1.47Zm7.574-4.06a2.835,2.835,0,0,1,2.016.658,2.787,2.787,0,0,1,.7,2.114V0h-1.47V-4.7q0-1.764-1.554-1.764a1.743,1.743,0,0,0-1.589.686,3.661,3.661,0,0,0-.441,1.974V0H74.788V-7.546h1.176l.21,1.008h.084a2.184,2.184,0,0,1,1-.868A3.32,3.32,0,0,1,78.61-7.686Zm7.6,0a3.023,3.023,0,0,1,1.316.28,2.555,2.555,0,0,1,.994.854h.07l.168-.994h1.2V.1q0,3.262-3.486,3.262a9.319,9.319,0,0,1-1.5-.112,5.663,5.663,0,0,1-1.26-.35V1.6a5.267,5.267,0,0,0,1.309.441,7.665,7.665,0,0,0,1.533.147,1.891,1.891,0,0,0,1.421-.525A2.029,2.029,0,0,0,88.494.182V-.07q0-.182.014-.476t.028-.448H88.48a2.406,2.406,0,0,1-.959.861A2.983,2.983,0,0,1,86.212.14,2.676,2.676,0,0,1,83.979-.889a4.541,4.541,0,0,1-.805-2.863,4.64,4.64,0,0,1,.805-2.877A2.649,2.649,0,0,1,86.212-7.686Zm.308,1.232a1.532,1.532,0,0,0-1.351.693A3.612,3.612,0,0,0,84.7-3.738a3.545,3.545,0,0,0,.469,2,1.563,1.563,0,0,0,1.379.686,1.889,1.889,0,0,0,1.519-.567,2.851,2.851,0,0,0,.483-1.855v-.28a3.411,3.411,0,0,0-.49-2.079A1.839,1.839,0,0,0,86.52-6.454Zm8.736-1.232a3.039,3.039,0,0,1,2.338.917,3.522,3.522,0,0,1,.854,2.5v.812H93.38a2.591,2.591,0,0,0,.609,1.778,2.134,2.134,0,0,0,1.631.616A5.7,5.7,0,0,0,96.915-1.2a6.667,6.667,0,0,0,1.169-.4V-.364a5.275,5.275,0,0,1-1.148.385A6.852,6.852,0,0,1,95.564.14a4.15,4.15,0,0,1-1.932-.434,3.083,3.083,0,0,1-1.309-1.288,4.377,4.377,0,0,1-.469-2.128,4.919,4.919,0,0,1,.427-2.156,3.15,3.15,0,0,1,1.19-1.351A3.34,3.34,0,0,1,95.256-7.686Zm0,1.148a1.669,1.669,0,0,0-1.281.518,2.4,2.4,0,0,0-.567,1.47h3.556a2.4,2.4,0,0,0-.427-1.435A1.494,1.494,0,0,0,95.256-6.538Z" transform="translate(189 354)"/>
    <path id="Path_293" data-name="Path 293" class="cls-16" d="M9.728-7.136l-1.28.112-.32-2.112H5.76v7.872H7.552V0H2.56V-1.264H4.3V-9.136H1.92L1.6-7.024.336-7.136.64-10.4H9.408Zm7.28,3.568A3.684,3.684,0,0,1,15.992-.88,3.577,3.577,0,0,1,13.312.16,3.384,3.384,0,0,1,10.728-.848,3.71,3.71,0,0,1,9.776-3.5a4.122,4.122,0,0,1,.912-2.688,3.3,3.3,0,0,1,2.72-1.12,3.265,3.265,0,0,1,2.7,1.112A4.067,4.067,0,0,1,17.008-3.568Zm-1.472-.048a2.8,2.8,0,0,0-.584-1.872,1.961,1.961,0,0,0-1.576-.688,1.877,1.877,0,0,0-1.592.728,3,3,0,0,0-.552,1.864,3.124,3.124,0,0,0,.536,1.848,1.821,1.821,0,0,0,1.592.76,1.9,1.9,0,0,0,1.608-.744A3.036,3.036,0,0,0,15.536-3.616Zm9.728.048A3.684,3.684,0,0,1,24.248-.88,3.577,3.577,0,0,1,21.568.16,3.384,3.384,0,0,1,18.984-.848,3.71,3.71,0,0,1,18.032-3.5a4.122,4.122,0,0,1,.912-2.688,3.3,3.3,0,0,1,2.72-1.12,3.265,3.265,0,0,1,2.7,1.112A4.067,4.067,0,0,1,25.264-3.568Zm-1.472-.048a2.8,2.8,0,0,0-.584-1.872,1.961,1.961,0,0,0-1.576-.688,1.877,1.877,0,0,0-1.592.728,3,3,0,0,0-.552,1.864,3.124,3.124,0,0,0,.536,1.848,1.821,1.821,0,0,0,1.592.76,1.9,1.9,0,0,0,1.608-.744A3.036,3.036,0,0,0,23.792-3.616ZM29.808,0H26.1V-1.088h1.152V-9.9h-1.2v-1.1h2.608v9.92h1.152Zm6.864-2.1a1.888,1.888,0,0,1-.888,1.664A3.971,3.971,0,0,1,33.536.16a5.272,5.272,0,0,1-2.8-.7l.224-1.728,1.1.112-.032.928a2.476,2.476,0,0,0,.7.224,4.428,4.428,0,0,0,.744.064,2.913,2.913,0,0,0,1.24-.256.841.841,0,0,0,.552-.8.76.76,0,0,0-.448-.744A4.174,4.174,0,0,0,33.7-3.072q-.664-.112-1.32-.28a2.546,2.546,0,0,1-1.1-.576,1.6,1.6,0,0,1-.448-1.24,1.71,1.71,0,0,1,.888-1.664,4.035,4.035,0,0,1,1.9-.464A5.046,5.046,0,0,1,35-7.112a5.7,5.7,0,0,1,1.176.472l.16,1.728-1.12.128-.16-1.12a3.235,3.235,0,0,0-1.376-.3,1.916,1.916,0,0,0-.976.224.785.785,0,0,0-.384.736.721.721,0,0,0,.44.7,4.068,4.068,0,0,0,1.088.312,12.5,12.5,0,0,1,1.3.28,2.51,2.51,0,0,1,1.088.592A1.662,1.662,0,0,1,36.672-2.1Z" transform="translate(68 176)"/>
    <path id="Path_294" data-name="Path 294" class="cls-17" d="M6,8.768a2.06,2.06,0,0,1-.8,1.746,3.33,3.33,0,0,1-2.07.606,5.7,5.7,0,0,1-1.476-.186,3.15,3.15,0,0,1-1.1-.5L.732,8.78l.876.084-.024.972a2.731,2.731,0,0,0,.762.27,4.084,4.084,0,0,0,.726.066A2.561,2.561,0,0,0,4.326,9.89a1.057,1.057,0,0,0,.51-1.014A1.055,1.055,0,0,0,4.266,7.8a5.988,5.988,0,0,0-1.278-.4,10.565,10.565,0,0,1-1.11-.3,2.049,2.049,0,0,1-.912-.594A1.767,1.767,0,0,1,.6,5.3a1.9,1.9,0,0,1,.78-1.692,3.134,3.134,0,0,1,1.8-.528,4.775,4.775,0,0,1,1.356.2,2.887,2.887,0,0,1,1.044.51l.072,1.6-.876.084L4.644,4.376a2.461,2.461,0,0,0-.708-.264,3.492,3.492,0,0,0-.684-.072,1.842,1.842,0,0,0-1.074.288.971.971,0,0,0-.414.852.891.891,0,0,0,.5.894,5.8,5.8,0,0,0,1.116.378q.5.108,1.116.294a2.441,2.441,0,0,1,1.056.642A1.908,1.908,0,0,1,6,8.768ZM7.416,6.044a3.574,3.574,0,0,1,.966-.4A4.437,4.437,0,0,1,9.42,5.528a2.192,2.192,0,0,1,1.446.444A1.678,1.678,0,0,1,11.4,7.34V9.824q0,.528.42.528a.9.9,0,0,0,.324-.06l.012.624a1.473,1.473,0,0,1-.78.2q-.972,0-1.032-1.08v-.012a2.5,2.5,0,0,1-.69.756,1.783,1.783,0,0,1-1.1.336,2.078,2.078,0,0,1-1.1-.336,1.269,1.269,0,0,1-.546-1.176,1.279,1.279,0,0,1,.8-1.326,4.576,4.576,0,0,1,1.71-.318,7.412,7.412,0,0,1,.924.048v-.4a1.847,1.847,0,0,0-.2-.9q-.2-.372-.912-.372a2.1,2.1,0,0,0-.972.2l-.2.876-.852-.1Zm2.928,2.892V8.624q-.216-.024-.45-.042T9.42,8.564a2.539,2.539,0,0,0-.984.18A.722.722,0,0,0,8,9.488a.712.712,0,0,0,.27.624,1.04,1.04,0,0,0,.618.192,1.5,1.5,0,0,0,.96-.36A1.363,1.363,0,0,0,10.344,8.936Zm7.848-2.472h-.624L15.624,11h-.78L12.8,6.464H12.18V5.636h2.556v.828h-.8l1.356,3.144h.072l1.176-3.144H15.8V5.636h2.388Zm5.22,2.952a1.822,1.822,0,0,1-.684,1.2,2.458,2.458,0,0,1-1.632.5,2.6,2.6,0,0,1-1.884-.7,2.676,2.676,0,0,1-.72-2.016,3.139,3.139,0,0,1,.672-2.064,2.278,2.278,0,0,1,1.86-.816,2.183,2.183,0,0,1,1.716.684,2.444,2.444,0,0,1,.624,1.656,3.492,3.492,0,0,1-.072.684H19.6q.072,1.7,1.572,1.7a1.325,1.325,0,0,0,.942-.3,1.477,1.477,0,0,0,.426-.72Zm-1.14-1.572a1.592,1.592,0,0,0-.258-1.014A1.105,1.105,0,0,0,21,6.344a1.161,1.161,0,0,0-.99.438,2.135,2.135,0,0,0-.4,1.062Zm5.04-1.8a3.574,3.574,0,0,1,.966-.4,4.437,4.437,0,0,1,1.038-.114,2.192,2.192,0,0,1,1.446.444A1.678,1.678,0,0,1,31.3,7.34V9.824q0,.528.42.528a.9.9,0,0,0,.324-.06l.012.624a1.473,1.473,0,0,1-.78.2q-.972,0-1.032-1.08v-.012a2.5,2.5,0,0,1-.69.756,1.783,1.783,0,0,1-1.1.336,2.078,2.078,0,0,1-1.1-.336,1.269,1.269,0,0,1-.546-1.176,1.279,1.279,0,0,1,.8-1.326,4.576,4.576,0,0,1,1.71-.318,7.412,7.412,0,0,1,.924.048v-.4a1.847,1.847,0,0,0-.2-.9q-.2-.372-.912-.372a2.1,2.1,0,0,0-.972.2l-.2.876-.852-.1ZM30.24,8.936V8.624q-.216-.024-.45-.042t-.474-.018a2.539,2.539,0,0,0-.984.18.722.722,0,0,0-.432.744.712.712,0,0,0,.27.624,1.04,1.04,0,0,0,.618.192,1.5,1.5,0,0,0,.96-.36A1.363,1.363,0,0,0,30.24,8.936Zm8.292-.756a3.673,3.673,0,0,1-.588,2.022,2.059,2.059,0,0,1-1.872.918,1.878,1.878,0,0,1-1.728-.876v2.472h1.164v.84H32.424v-.84H33.3V6.464h-.912V5.636h1.956V6.728a2.536,2.536,0,0,1,.684-.84,1.83,1.83,0,0,1,1.188-.36,2.163,2.163,0,0,1,1.674.7A2.782,2.782,0,0,1,38.532,8.18Zm-1.1.1A2.053,2.053,0,0,0,37,6.872a1.4,1.4,0,0,0-1.1-.48,1.332,1.332,0,0,0-1.1.54A1.989,1.989,0,0,0,34.356,8.1l-.012.624a1.5,1.5,0,0,0,.432,1.1,1.451,1.451,0,0,0,1.068.432,1.347,1.347,0,0,0,1.194-.57A2.439,2.439,0,0,0,37.428,8.276Zm7.776-.1a3.673,3.673,0,0,1-.588,2.022,2.059,2.059,0,0,1-1.872.918,1.878,1.878,0,0,1-1.728-.876v2.472H42.18v.84H39.1v-.84h.876V6.464H39.06V5.636h1.956V6.728a2.536,2.536,0,0,1,.684-.84,1.83,1.83,0,0,1,1.188-.36,2.163,2.163,0,0,1,1.674.7A2.782,2.782,0,0,1,45.2,8.18Zm-1.1.1a2.053,2.053,0,0,0-.426-1.4,1.4,1.4,0,0,0-1.1-.48,1.332,1.332,0,0,0-1.1.54A1.989,1.989,0,0,0,41.028,8.1l-.012.624a1.5,1.5,0,0,0,.432,1.1,1.451,1.451,0,0,0,1.068.432,1.347,1.347,0,0,0,1.194-.57A2.439,2.439,0,0,0,44.1,8.276Zm6.408,1.152a1.416,1.416,0,0,1-.666,1.248,2.978,2.978,0,0,1-1.686.444,3.954,3.954,0,0,1-2.1-.528l.168-1.3.828.084-.024.7a1.857,1.857,0,0,0,.522.168,3.321,3.321,0,0,0,.558.048,2.185,2.185,0,0,0,.93-.192.631.631,0,0,0,.414-.6.57.57,0,0,0-.336-.558,3.13,3.13,0,0,0-.834-.246q-.5-.084-.99-.21a1.909,1.909,0,0,1-.828-.432,1.2,1.2,0,0,1-.336-.93,1.283,1.283,0,0,1,.666-1.248,3.026,3.026,0,0,1,1.422-.348,3.784,3.784,0,0,1,1.038.138,4.274,4.274,0,0,1,.882.354l.12,1.3-.84.1-.12-.84a2.426,2.426,0,0,0-1.032-.228,1.437,1.437,0,0,0-.732.168.589.589,0,0,0-.288.552.541.541,0,0,0,.33.528,3.051,3.051,0,0,0,.816.234,9.374,9.374,0,0,1,.972.21,1.882,1.882,0,0,1,.816.444A1.246,1.246,0,0,1,50.508,9.428Zm8.808-2.964h-.6L56.868,11l-.66,1.716h.852v.84H54.276v-.84h.948l.624-1.7L53.916,6.464H53.3V5.636H55.86v.828h-.816l1.38,3.264H56.5l1.188-3.264h-.756V5.636h2.388Zm5.76,1.86a2.763,2.763,0,0,1-.762,2.016,2.683,2.683,0,0,1-2.01.78,2.538,2.538,0,0,1-1.938-.756,2.782,2.782,0,0,1-.714-1.992,3.092,3.092,0,0,1,.684-2.016,2.476,2.476,0,0,1,2.04-.84A2.449,2.449,0,0,1,64.4,6.35,3.05,3.05,0,0,1,65.076,8.324Zm-1.1-.036a2.1,2.1,0,0,0-.438-1.4,1.47,1.47,0,0,0-1.182-.516,1.408,1.408,0,0,0-1.194.546,2.25,2.25,0,0,0-.414,1.4,2.343,2.343,0,0,0,.4,1.386,1.366,1.366,0,0,0,1.194.57,1.428,1.428,0,0,0,1.206-.558A2.277,2.277,0,0,0,63.972,8.288ZM72.1,11H70.14v-.96a1.885,1.885,0,0,1-1.812,1.08A1.938,1.938,0,0,1,67,10.64a1.913,1.913,0,0,1-.546-1.512V6.464h-.864V5.636h1.92V8.78a1.66,1.66,0,0,0,.318,1.152,1.125,1.125,0,0,0,.858.336,1.294,1.294,0,0,0,1.044-.474,1.656,1.656,0,0,0,.408-1.05V6.464H69.1V5.636h2.1v4.548h.9ZM75.8,6.044a3.574,3.574,0,0,1,.966-.4,4.437,4.437,0,0,1,1.038-.114,2.192,2.192,0,0,1,1.446.444,1.678,1.678,0,0,1,.534,1.368V9.824q0,.528.42.528a.9.9,0,0,0,.324-.06l.012.624a1.473,1.473,0,0,1-.78.2q-.972,0-1.032-1.08v-.012a2.5,2.5,0,0,1-.69.756,1.783,1.783,0,0,1-1.1.336,2.078,2.078,0,0,1-1.1-.336A1.269,1.269,0,0,1,75.3,9.608a1.279,1.279,0,0,1,.8-1.326,4.576,4.576,0,0,1,1.71-.318,7.412,7.412,0,0,1,.924.048v-.4a1.847,1.847,0,0,0-.2-.9q-.2-.372-.912-.372a2.1,2.1,0,0,0-.972.2l-.2.876-.852-.1Zm2.928,2.892V8.624q-.216-.024-.45-.042t-.474-.018a2.539,2.539,0,0,0-.984.18.722.722,0,0,0-.432.744.712.712,0,0,0,.27.624,1.04,1.04,0,0,0,.618.192,1.5,1.5,0,0,0,.96-.36A1.363,1.363,0,0,0,78.732,8.936Zm5.532-3.384a1.588,1.588,0,0,1,.96.288l.216,1.5-.828.1-.2-.924a1.093,1.093,0,0,0-.42-.084.847.847,0,0,0-.684.342,1.38,1.38,0,0,0-.276.894v2.52H84.18V11H81.108v-.816h.864V6.464h-.9V5.636h1.884V6.62a1.824,1.824,0,0,1,.486-.762A1.163,1.163,0,0,1,84.264,5.552Zm6.912,3.864a1.822,1.822,0,0,1-.684,1.2,2.458,2.458,0,0,1-1.632.5,2.6,2.6,0,0,1-1.884-.7,2.676,2.676,0,0,1-.72-2.016,3.139,3.139,0,0,1,.672-2.064,2.278,2.278,0,0,1,1.86-.816,2.183,2.183,0,0,1,1.716.684,2.444,2.444,0,0,1,.624,1.656,3.492,3.492,0,0,1-.072.684h-3.7q.072,1.7,1.572,1.7a1.325,1.325,0,0,0,.942-.3,1.477,1.477,0,0,0,.426-.72Zm-1.14-1.572a1.592,1.592,0,0,0-.258-1.014,1.105,1.105,0,0,0-1.014-.486,1.161,1.161,0,0,0-.99.438,2.135,2.135,0,0,0-.4,1.062ZM100.776,11H98.82v-.96a1.885,1.885,0,0,1-1.812,1.08,1.938,1.938,0,0,1-1.326-.48,1.913,1.913,0,0,1-.546-1.512V6.464h-.864V5.636h1.92V8.78a1.66,1.66,0,0,0,.318,1.152,1.125,1.125,0,0,0,.858.336,1.294,1.294,0,0,0,1.044-.474,1.656,1.656,0,0,0,.408-1.05V6.464H97.776V5.636h2.1v4.548h.9Zm5.088-1.572a1.416,1.416,0,0,1-.666,1.248,2.978,2.978,0,0,1-1.686.444,3.954,3.954,0,0,1-2.1-.528l.168-1.3.828.084-.024.7a1.857,1.857,0,0,0,.522.168,3.321,3.321,0,0,0,.558.048,2.185,2.185,0,0,0,.93-.192.631.631,0,0,0,.414-.6.57.57,0,0,0-.336-.558,3.13,3.13,0,0,0-.834-.246q-.5-.084-.99-.21a1.909,1.909,0,0,1-.828-.432,1.2,1.2,0,0,1-.336-.93,1.283,1.283,0,0,1,.666-1.248,3.026,3.026,0,0,1,1.422-.348,3.784,3.784,0,0,1,1.038.138,4.274,4.274,0,0,1,.882.354l.12,1.3-.84.1-.12-.84a2.426,2.426,0,0,0-1.032-.228,1.437,1.437,0,0,0-.732.168.589.589,0,0,0-.288.552.541.541,0,0,0,.33.528,3.051,3.051,0,0,0,.816.234,9.374,9.374,0,0,1,.972.21,1.882,1.882,0,0,1,.816.444A1.246,1.246,0,0,1,105.864,9.428Zm1.62-5.052V3.14h1.092V4.376ZM109.476,11h-2.8v-.816h.876V6.464h-.912V5.636h1.968v4.548h.864Zm7.068,0H113.76v-.816h.864V7.868a1.708,1.708,0,0,0-.312-1.158,1.067,1.067,0,0,0-.828-.342,1.359,1.359,0,0,0-1.068.444A1.606,1.606,0,0,0,112,7.844v2.34h.864V11h-2.784v-.816h.864V6.464h-.9V5.636H112v.912a2.107,2.107,0,0,1,3.144-.54,1.908,1.908,0,0,1,.54,1.5v2.676h.864Zm6.576-4.536h-.828v4.4a2.906,2.906,0,0,1-.7,2.04,2.6,2.6,0,0,1-2.022.768,3.166,3.166,0,0,1-1.536-.378,1.956,1.956,0,0,1-.948-1.218l.816-.42a1.654,1.654,0,0,0,.7.864,1.929,1.929,0,0,0,1,.276,1.551,1.551,0,0,0,1.188-.5,2.058,2.058,0,0,0,.468-1.452v-.9a2.268,2.268,0,0,1-.684.78,1.973,1.973,0,0,1-1.188.324,2.252,2.252,0,0,1-1.638-.666,2.6,2.6,0,0,1-.678-1.938,3.562,3.562,0,0,1,.6-2.01,2.026,2.026,0,0,1,1.812-.906,1.868,1.868,0,0,1,1.776.948v-.84h1.872Zm-1.872,2.112v-.7a1.416,1.416,0,0,0-.432-1.08,1.466,1.466,0,0,0-1.044-.408,1.32,1.32,0,0,0-1.176.57,2.467,2.467,0,0,0-.384,1.41,1.95,1.95,0,0,0,.414,1.368,1.333,1.333,0,0,0,1.014.444,1.441,1.441,0,0,0,1.152-.5A1.775,1.775,0,0,0,121.248,8.576Zm5.592-2.532a3.574,3.574,0,0,1,.966-.4,4.437,4.437,0,0,1,1.038-.114,2.192,2.192,0,0,1,1.446.444,1.678,1.678,0,0,1,.534,1.368V9.824q0,.528.42.528a.9.9,0,0,0,.324-.06l.012.624a1.473,1.473,0,0,1-.78.2q-.972,0-1.032-1.08v-.012a2.5,2.5,0,0,1-.69.756,1.783,1.783,0,0,1-1.1.336,2.078,2.078,0,0,1-1.1-.336,1.269,1.269,0,0,1-.546-1.176,1.279,1.279,0,0,1,.8-1.326,4.576,4.576,0,0,1,1.71-.318,7.413,7.413,0,0,1,.924.048v-.4a1.847,1.847,0,0,0-.2-.9q-.2-.372-.912-.372a2.1,2.1,0,0,0-.972.2l-.2.876-.852-.1Zm2.928,2.892V8.624q-.216-.024-.45-.042t-.474-.018a2.539,2.539,0,0,0-.984.18.722.722,0,0,0-.432.744.712.712,0,0,0,.27.624,1.04,1.04,0,0,0,.618.192,1.5,1.5,0,0,0,.96-.36A1.363,1.363,0,0,0,129.768,8.936Zm6.924.492a1.416,1.416,0,0,1-.666,1.248,2.978,2.978,0,0,1-1.686.444,3.954,3.954,0,0,1-2.1-.528l.168-1.3.828.084-.024.7a1.857,1.857,0,0,0,.522.168,3.321,3.321,0,0,0,.558.048,2.185,2.185,0,0,0,.93-.192.631.631,0,0,0,.414-.6.57.57,0,0,0-.336-.558,3.131,3.131,0,0,0-.834-.246q-.5-.084-.99-.21a1.909,1.909,0,0,1-.828-.432,1.2,1.2,0,0,1-.336-.93,1.283,1.283,0,0,1,.666-1.248,3.026,3.026,0,0,1,1.422-.348,3.785,3.785,0,0,1,1.038.138,4.274,4.274,0,0,1,.882.354l.12,1.3-.84.1-.12-.84a2.426,2.426,0,0,0-1.032-.228,1.437,1.437,0,0,0-.732.168.589.589,0,0,0-.288.552.541.541,0,0,0,.33.528,3.051,3.051,0,0,0,.816.234,9.373,9.373,0,0,1,.972.21,1.882,1.882,0,0,1,.816.444A1.246,1.246,0,0,1,136.692,9.428Zm7.548.06a1.661,1.661,0,0,1-1.8,1.632,1.771,1.771,0,0,1-1.29-.45,1.67,1.67,0,0,1-.462-1.254V6.44h-.828v-.8h.828V3.944h1.044V5.636h2.052v.8h-2.052V9.26q0,.96.828.96a.954.954,0,0,0,.528-.174,1.185,1.185,0,0,0,.372-.81Zm5.82-1.164a2.763,2.763,0,0,1-.762,2.016,2.683,2.683,0,0,1-2.01.78,2.538,2.538,0,0,1-1.938-.756,2.782,2.782,0,0,1-.714-1.992,3.092,3.092,0,0,1,.684-2.016,2.476,2.476,0,0,1,2.04-.84,2.449,2.449,0,0,1,2.028.834A3.05,3.05,0,0,1,150.06,8.324Zm-1.1-.036a2.1,2.1,0,0,0-.438-1.4,1.47,1.47,0,0,0-1.182-.516,1.408,1.408,0,0,0-1.194.546,2.25,2.25,0,0,0-.414,1.4,2.343,2.343,0,0,0,.4,1.386,1.366,1.366,0,0,0,1.194.57,1.428,1.428,0,0,0,1.206-.558A2.277,2.277,0,0,0,148.956,8.288Zm7.3.036a2.763,2.763,0,0,1-.762,2.016,2.683,2.683,0,0,1-2.01.78,2.538,2.538,0,0,1-1.938-.756,2.782,2.782,0,0,1-.714-1.992,3.092,3.092,0,0,1,.684-2.016,2.476,2.476,0,0,1,2.04-.84,2.449,2.449,0,0,1,2.028.834A3.05,3.05,0,0,1,156.252,8.324Zm-1.1-.036a2.1,2.1,0,0,0-.438-1.4,1.47,1.47,0,0,0-1.182-.516,1.408,1.408,0,0,0-1.194.546,2.25,2.25,0,0,0-.414,1.4,2.343,2.343,0,0,0,.4,1.386,1.366,1.366,0,0,0,1.194.57,1.428,1.428,0,0,0,1.206-.558A2.277,2.277,0,0,0,155.148,8.288ZM159.66,11h-2.784v-.816h.864V3.572h-.9V2.744H158.8v7.44h.864Zm5.148-1.572a1.416,1.416,0,0,1-.666,1.248,2.978,2.978,0,0,1-1.686.444,3.954,3.954,0,0,1-2.1-.528l.168-1.3.828.084-.024.7a1.857,1.857,0,0,0,.522.168,3.321,3.321,0,0,0,.558.048,2.185,2.185,0,0,0,.93-.192.631.631,0,0,0,.414-.6.57.57,0,0,0-.336-.558,3.131,3.131,0,0,0-.834-.246q-.5-.084-.99-.21a1.909,1.909,0,0,1-.828-.432,1.2,1.2,0,0,1-.336-.93,1.283,1.283,0,0,1,.666-1.248,3.026,3.026,0,0,1,1.422-.348,3.785,3.785,0,0,1,1.038.138,4.274,4.274,0,0,1,.882.354l.12,1.3-.84.1-.12-.84a2.426,2.426,0,0,0-1.032-.228,1.437,1.437,0,0,0-.732.168.589.589,0,0,0-.288.552.541.541,0,0,0,.33.528,3.051,3.051,0,0,0,.816.234,9.373,9.373,0,0,1,.972.21,1.882,1.882,0,0,1,.816.444A1.246,1.246,0,0,1,164.808,9.428Zm6.156-6.8a2.983,2.983,0,0,1,.714.084,1.653,1.653,0,0,1,.642.324l.216,1.308-.84.108-.228-.9a1.777,1.777,0,0,0-.564-.084q-.852,0-.852,1.1V5.636h1.38v.8h-1.38v3.744h1.128V11h-3.048v-.816h.876V6.44h-.744v-.8h.744V4.688A2.062,2.062,0,0,1,169.56,3.2,1.861,1.861,0,0,1,170.964,2.624Zm6.5,5.7a2.763,2.763,0,0,1-.762,2.016,2.683,2.683,0,0,1-2.01.78,2.538,2.538,0,0,1-1.938-.756,2.782,2.782,0,0,1-.714-1.992,3.092,3.092,0,0,1,.684-2.016,2.476,2.476,0,0,1,2.04-.84,2.449,2.449,0,0,1,2.028.834A3.05,3.05,0,0,1,177.468,8.324Zm-1.1-.036a2.1,2.1,0,0,0-.438-1.4,1.47,1.47,0,0,0-1.182-.516,1.408,1.408,0,0,0-1.194.546,2.25,2.25,0,0,0-.414,1.4,2.343,2.343,0,0,0,.4,1.386,1.366,1.366,0,0,0,1.194.57,1.428,1.428,0,0,0,1.206-.558A2.277,2.277,0,0,0,176.364,8.288Zm5-2.736a1.588,1.588,0,0,1,.96.288l.216,1.5-.828.1-.2-.924a1.093,1.093,0,0,0-.42-.084.847.847,0,0,0-.684.342,1.38,1.38,0,0,0-.276.894v2.52h1.152V11h-3.072v-.816h.864V6.464h-.9V5.636h1.884V6.62a1.824,1.824,0,0,1,.486-.762A1.163,1.163,0,0,1,181.368,5.552Zm9.792.912h-.6L188.712,11l-.66,1.716h.852v.84H186.12v-.84h.948l.624-1.7L185.76,6.464h-.612V5.636H187.7v.828h-.816l1.38,3.264h.072l1.188-3.264h-.756V5.636h2.388Zm5.76,1.86a2.763,2.763,0,0,1-.762,2.016,2.683,2.683,0,0,1-2.01.78,2.538,2.538,0,0,1-1.938-.756,2.782,2.782,0,0,1-.714-1.992,3.092,3.092,0,0,1,.684-2.016,2.476,2.476,0,0,1,2.04-.84,2.449,2.449,0,0,1,2.028.834A3.05,3.05,0,0,1,196.92,8.324Zm-1.1-.036a2.1,2.1,0,0,0-.438-1.4,1.47,1.47,0,0,0-1.182-.516A1.408,1.408,0,0,0,193,6.914a2.25,2.25,0,0,0-.414,1.4,2.343,2.343,0,0,0,.4,1.386,1.366,1.366,0,0,0,1.194.57,1.428,1.428,0,0,0,1.206-.558A2.277,2.277,0,0,0,195.816,8.288ZM203.94,11h-1.956v-.96a1.885,1.885,0,0,1-1.812,1.08,1.938,1.938,0,0,1-1.326-.48,1.913,1.913,0,0,1-.546-1.512V6.464h-.864V5.636h1.92V8.78a1.66,1.66,0,0,0,.318,1.152,1.125,1.125,0,0,0,.858.336,1.294,1.294,0,0,0,1.044-.474,1.656,1.656,0,0,0,.408-1.05V6.464H200.94V5.636h2.1v4.548h.9Zm3.7-5.448a1.588,1.588,0,0,1,.96.288l.216,1.5-.828.1-.2-.924a1.093,1.093,0,0,0-.42-.084.847.847,0,0,0-.684.342,1.38,1.38,0,0,0-.276.894v2.52h1.152V11H204.48v-.816h.864V6.464h-.9V5.636h1.884V6.62a1.824,1.824,0,0,1,.486-.762A1.163,1.163,0,0,1,207.636,5.552ZM217.908,8.18a3.673,3.673,0,0,1-.588,2.022,2.059,2.059,0,0,1-1.872.918,1.878,1.878,0,0,1-1.728-.876v2.472h1.164v.84H211.8v-.84h.876V6.464h-.912V5.636h1.956V6.728a2.536,2.536,0,0,1,.684-.84,1.83,1.83,0,0,1,1.188-.36,2.163,2.163,0,0,1,1.674.7A2.782,2.782,0,0,1,217.908,8.18Zm-1.1.1a2.053,2.053,0,0,0-.426-1.4,1.4,1.4,0,0,0-1.1-.48,1.332,1.332,0,0,0-1.1.54,1.989,1.989,0,0,0-.444,1.164l-.012.624a1.5,1.5,0,0,0,.432,1.1,1.451,1.451,0,0,0,1.068.432,1.347,1.347,0,0,0,1.194-.57A2.439,2.439,0,0,0,216.8,8.276Zm5.016-2.724a1.588,1.588,0,0,1,.96.288L223,7.34l-.828.1-.2-.924a1.093,1.093,0,0,0-.42-.084.847.847,0,0,0-.684.342,1.38,1.38,0,0,0-.276.894v2.52h1.152V11h-3.072v-.816h.864V6.464h-.9V5.636h1.884V6.62A1.824,1.824,0,0,1,221,5.858,1.163,1.163,0,0,1,221.82,5.552Zm7.4,2.772a2.763,2.763,0,0,1-.762,2.016,2.683,2.683,0,0,1-2.01.78,2.538,2.538,0,0,1-1.938-.756,2.782,2.782,0,0,1-.714-1.992,3.092,3.092,0,0,1,.684-2.016,2.476,2.476,0,0,1,2.04-.84,2.449,2.449,0,0,1,2.028.834A3.05,3.05,0,0,1,229.224,8.324Zm-1.1-.036a2.1,2.1,0,0,0-.438-1.4,1.47,1.47,0,0,0-1.182-.516,1.408,1.408,0,0,0-1.194.546,2.25,2.25,0,0,0-.414,1.4,2.343,2.343,0,0,0,.4,1.386,1.366,1.366,0,0,0,1.194.57,1.428,1.428,0,0,0,1.206-.558A2.277,2.277,0,0,0,228.12,8.288Zm2.628-3.912V3.14h1.1V4.376Zm1.1,6.684a2.891,2.891,0,0,1-.624,2.124,2.17,2.17,0,0,1-1.788.492l-.036-.744a2.039,2.039,0,0,0,.648-.108.968.968,0,0,0,.534-.5,2.829,2.829,0,0,0,.21-1.26v-4.6h-1.08V5.636h2.136Zm6.132-1.644a1.822,1.822,0,0,1-.684,1.2,2.458,2.458,0,0,1-1.632.5,2.6,2.6,0,0,1-1.884-.7,2.676,2.676,0,0,1-.72-2.016,3.139,3.139,0,0,1,.672-2.064,2.278,2.278,0,0,1,1.86-.816,2.183,2.183,0,0,1,1.716.684,2.444,2.444,0,0,1,.624,1.656,3.491,3.491,0,0,1-.072.684h-3.7q.072,1.7,1.572,1.7a1.325,1.325,0,0,0,.942-.3,1.477,1.477,0,0,0,.426-.72Zm-1.14-1.572a1.592,1.592,0,0,0-.258-1.014,1.105,1.105,0,0,0-1.014-.486,1.161,1.161,0,0,0-.99.438,2.135,2.135,0,0,0-.4,1.062Zm6.744,1.3a2.628,2.628,0,0,1-.63,1.344,2.1,2.1,0,0,1-1.7.636,2.435,2.435,0,0,1-1.818-.7,2.748,2.748,0,0,1-.69-2.01,3.121,3.121,0,0,1,.684-2.046,2.331,2.331,0,0,1,1.908-.834,3.9,3.9,0,0,1,.972.12,2.655,2.655,0,0,1,.888.42l.216,1.392-.852.1-.192-.9a2.046,2.046,0,0,0-1.044-.264,1.242,1.242,0,0,0-1.116.546,2.517,2.517,0,0,0-.36,1.41,2.271,2.271,0,0,0,.384,1.4,1.33,1.33,0,0,0,1.128.5q1.116,0,1.332-1.3Zm4.872.348a1.661,1.661,0,0,1-1.8,1.632,1.771,1.771,0,0,1-1.29-.45,1.67,1.67,0,0,1-.462-1.254V6.44h-.828v-.8h.828V3.944h1.044V5.636H248v.8h-2.052V9.26q0,.96.828.96a.954.954,0,0,0,.528-.174,1.185,1.185,0,0,0,.372-.81Zm4.92-.06a1.416,1.416,0,0,1-.666,1.248,2.978,2.978,0,0,1-1.686.444,3.954,3.954,0,0,1-2.1-.528l.168-1.3.828.084-.024.7a1.857,1.857,0,0,0,.522.168,3.321,3.321,0,0,0,.558.048,2.185,2.185,0,0,0,.93-.192.631.631,0,0,0,.414-.6.57.57,0,0,0-.336-.558,3.131,3.131,0,0,0-.834-.246q-.5-.084-.99-.21a1.909,1.909,0,0,1-.828-.432,1.2,1.2,0,0,1-.336-.93,1.283,1.283,0,0,1,.666-1.248,3.026,3.026,0,0,1,1.422-.348,3.785,3.785,0,0,1,1.038.138,4.274,4.274,0,0,1,.882.354l.12,1.3-.84.1-.12-.84a2.426,2.426,0,0,0-1.032-.228,1.437,1.437,0,0,0-.732.168.589.589,0,0,0-.288.552.541.541,0,0,0,.33.528,3.051,3.051,0,0,0,.816.234,9.373,9.373,0,0,1,.972.21,1.882,1.882,0,0,1,.816.444A1.246,1.246,0,0,1,253.38,9.428Zm7.92,0a1.416,1.416,0,0,1-.666,1.248,2.978,2.978,0,0,1-1.686.444,3.954,3.954,0,0,1-2.1-.528l.168-1.3.828.084-.024.7a1.857,1.857,0,0,0,.522.168,3.32,3.32,0,0,0,.558.048,2.185,2.185,0,0,0,.93-.192.631.631,0,0,0,.414-.6.57.57,0,0,0-.336-.558,3.13,3.13,0,0,0-.834-.246q-.5-.084-.99-.21a1.909,1.909,0,0,1-.828-.432,1.2,1.2,0,0,1-.336-.93,1.283,1.283,0,0,1,.666-1.248,3.026,3.026,0,0,1,1.422-.348,3.784,3.784,0,0,1,1.038.138,4.274,4.274,0,0,1,.882.354l.12,1.3-.84.1-.12-.84a2.426,2.426,0,0,0-1.032-.228,1.437,1.437,0,0,0-.732.168.589.589,0,0,0-.288.552.541.541,0,0,0,.33.528,3.051,3.051,0,0,0,.816.234,9.374,9.374,0,0,1,.972.21,1.882,1.882,0,0,1,.816.444A1.246,1.246,0,0,1,261.3,9.428Zm6.228-1.1a2.763,2.763,0,0,1-.762,2.016,2.683,2.683,0,0,1-2.01.78,2.538,2.538,0,0,1-1.938-.756,2.782,2.782,0,0,1-.714-1.992,3.092,3.092,0,0,1,.684-2.016,2.476,2.476,0,0,1,2.04-.84,2.449,2.449,0,0,1,2.028.834A3.05,3.05,0,0,1,267.528,8.324Zm-1.1-.036a2.1,2.1,0,0,0-.438-1.4,1.47,1.47,0,0,0-1.182-.516,1.408,1.408,0,0,0-1.194.546,2.25,2.25,0,0,0-.414,1.4,2.343,2.343,0,0,0,.4,1.386,1.366,1.366,0,0,0,1.194.57A1.428,1.428,0,0,0,266,9.71,2.277,2.277,0,0,0,266.424,8.288ZM273.972,11H271v-.948h.948v-5.9H271V3.2h2.976v.948h-.936v5.9h.936ZM5.232,23.14a2.628,2.628,0,0,1-.63,1.344,2.1,2.1,0,0,1-1.7.636,2.435,2.435,0,0,1-1.818-.7,2.748,2.748,0,0,1-.69-2.01,3.121,3.121,0,0,1,.684-2.046,2.331,2.331,0,0,1,1.908-.834,3.9,3.9,0,0,1,.972.12,2.655,2.655,0,0,1,.888.42l.216,1.392-.852.1-.192-.9a2.045,2.045,0,0,0-1.044-.264,1.242,1.242,0,0,0-1.116.546,2.517,2.517,0,0,0-.36,1.41,2.271,2.271,0,0,0,.384,1.4,1.33,1.33,0,0,0,1.128.5q1.116,0,1.332-1.3Zm1.272-3.1a3.574,3.574,0,0,1,.966-.4,4.437,4.437,0,0,1,1.038-.114,2.192,2.192,0,0,1,1.446.444,1.678,1.678,0,0,1,.534,1.368v2.484q0,.528.42.528a.9.9,0,0,0,.324-.06l.012.624a1.473,1.473,0,0,1-.78.2q-.972,0-1.032-1.08v-.012a2.5,2.5,0,0,1-.69.756,1.783,1.783,0,0,1-1.1.336,2.078,2.078,0,0,1-1.1-.336A1.269,1.269,0,0,1,6,23.608a1.279,1.279,0,0,1,.8-1.326,4.576,4.576,0,0,1,1.71-.318,7.412,7.412,0,0,1,.924.048v-.4a1.847,1.847,0,0,0-.2-.9q-.2-.372-.912-.372a2.1,2.1,0,0,0-.972.2l-.2.876-.852-.1Zm2.928,2.892v-.312q-.216-.024-.45-.042t-.474-.018a2.539,2.539,0,0,0-.984.18.722.722,0,0,0-.432.744.712.712,0,0,0,.27.624,1.04,1.04,0,0,0,.618.192,1.5,1.5,0,0,0,.96-.36A1.363,1.363,0,0,0,9.432,22.936ZM18.276,25H15.492v-.816h.864V21.868a1.708,1.708,0,0,0-.312-1.158,1.067,1.067,0,0,0-.828-.342,1.359,1.359,0,0,0-1.068.444,1.606,1.606,0,0,0-.42,1.032v2.34h.864V25H11.808v-.816h.864v-3.72h-.9v-.828h1.956v.912a1.928,1.928,0,0,1,1.824-1.02,1.768,1.768,0,0,1,1.86,1.98v2.676h.864ZM24.5,19.552a1.588,1.588,0,0,1,.96.288l.216,1.5-.828.1-.2-.924a1.093,1.093,0,0,0-.42-.084.847.847,0,0,0-.684.342,1.38,1.38,0,0,0-.276.894v2.52H24.42V25H21.348v-.816h.864v-3.72h-.9v-.828H23.2v.984a1.824,1.824,0,0,1,.486-.762A1.163,1.163,0,0,1,24.5,19.552Zm6.912,3.864a1.822,1.822,0,0,1-.684,1.2,2.458,2.458,0,0,1-1.632.5,2.6,2.6,0,0,1-1.884-.7,2.676,2.676,0,0,1-.72-2.016,3.139,3.139,0,0,1,.672-2.064,2.278,2.278,0,0,1,1.86-.816,2.183,2.183,0,0,1,1.716.684,2.444,2.444,0,0,1,.624,1.656,3.492,3.492,0,0,1-.072.684H27.6q.072,1.7,1.572,1.7a1.325,1.325,0,0,0,.942-.3,1.477,1.477,0,0,0,.426-.72Zm-1.14-1.572a1.592,1.592,0,0,0-.258-1.014A1.105,1.105,0,0,0,29,20.344a1.161,1.161,0,0,0-.99.438,2.135,2.135,0,0,0-.4,1.062ZM42.072,25H39.6v-.816h.552V21.868a1.732,1.732,0,0,0-.306-1.158,1.048,1.048,0,0,0-.822-.342,1.169,1.169,0,0,0-1.038.5,1.882,1.882,0,0,0-.354,1.02v2.292H38.5V25H36.024v-.816h.552V21.868A1.729,1.729,0,0,0,36.27,20.7a1.043,1.043,0,0,0-.81-.336,1.182,1.182,0,0,0-1.032.492,1.8,1.8,0,0,0-.36,1.008v2.316h1V25H32.148v-.816h.864v-3.72h-.876v-.828h1.932v.948a2.127,2.127,0,0,1,.684-.762,1.833,1.833,0,0,1,1.056-.294,1.929,1.929,0,0,1,1.08.306,1.59,1.59,0,0,1,.648.942,2.185,2.185,0,0,1,.708-.9,2,2,0,0,1,2.424.132,1.933,1.933,0,0,1,.528,1.5v2.676h.876Zm1.308-6.624V17.14h1.092v1.236ZM45.372,25h-2.8v-.816h.876v-3.72H42.54v-.828h1.968v4.548h.864Zm7.068,0H49.656v-.816h.864V21.868a1.708,1.708,0,0,0-.312-1.158,1.067,1.067,0,0,0-.828-.342,1.359,1.359,0,0,0-1.068.444,1.606,1.606,0,0,0-.42,1.032v2.34h.864V25H45.972v-.816h.864v-3.72h-.9v-.828h1.956v.912a2.107,2.107,0,0,1,3.144-.54,1.908,1.908,0,0,1,.54,1.5v2.676h.864Zm6.612,0H57.144V23.944a2.522,2.522,0,0,1-.7.828,1.9,1.9,0,0,1-1.194.348,2.1,2.1,0,0,1-1.668-.714,2.88,2.88,0,0,1-.624-1.962,3.7,3.7,0,0,1,.57-2.01,2.012,2.012,0,0,1,1.842-.906,1.878,1.878,0,0,1,1.776.96V17.572H55.908v-.828h2.28v7.44h.864Zm-1.908-2.472V21.88a1.494,1.494,0,0,0-.456-1.08,1.466,1.466,0,0,0-1.044-.408,1.349,1.349,0,0,0-1.182.576,2.413,2.413,0,0,0-.4,1.416,2.015,2.015,0,0,0,.432,1.392,1.38,1.38,0,0,0,1.068.48,1.36,1.36,0,0,0,1.122-.564A2.015,2.015,0,0,0,57.144,22.528Zm10.464-2.064h-.6L65.16,25l-.66,1.716h.852v.84H62.568v-.84h.948l.624-1.7-1.932-4.548H61.6v-.828h2.556v.828h-.816l1.38,3.264h.072l1.188-3.264H65.22v-.828h2.388Zm5.76,1.86a2.763,2.763,0,0,1-.762,2.016,2.683,2.683,0,0,1-2.01.78,2.538,2.538,0,0,1-1.938-.756,2.782,2.782,0,0,1-.714-1.992,3.092,3.092,0,0,1,.684-2.016,2.476,2.476,0,0,1,2.04-.84,2.449,2.449,0,0,1,2.028.834A3.05,3.05,0,0,1,73.368,22.324Zm-1.1-.036a2.1,2.1,0,0,0-.438-1.4,1.47,1.47,0,0,0-1.182-.516,1.408,1.408,0,0,0-1.194.546,2.25,2.25,0,0,0-.414,1.4,2.343,2.343,0,0,0,.4,1.386,1.366,1.366,0,0,0,1.194.57,1.428,1.428,0,0,0,1.206-.558A2.277,2.277,0,0,0,72.264,22.288ZM80.388,25H78.432v-.96a1.885,1.885,0,0,1-1.812,1.08,1.938,1.938,0,0,1-1.326-.48,1.913,1.913,0,0,1-.546-1.512V20.464h-.864v-.828H75.8V22.78a1.66,1.66,0,0,0,.318,1.152,1.125,1.125,0,0,0,.858.336,1.294,1.294,0,0,0,1.044-.474,1.656,1.656,0,0,0,.408-1.05v-2.28H77.388v-.828h2.1v4.548h.9ZM87.7,23.488a1.661,1.661,0,0,1-1.8,1.632,1.771,1.771,0,0,1-1.29-.45,1.67,1.67,0,0,1-.462-1.254V20.44h-.828v-.8h.828V17.944h1.044v1.692H87.24v.8H85.188v2.82q0,.96.828.96a.954.954,0,0,0,.528-.174,1.185,1.185,0,0,0,.372-.81Zm5.82-1.164a2.763,2.763,0,0,1-.762,2.016,2.683,2.683,0,0,1-2.01.78,2.538,2.538,0,0,1-1.938-.756,2.782,2.782,0,0,1-.714-1.992,3.092,3.092,0,0,1,.684-2.016,2.476,2.476,0,0,1,2.04-.84,2.449,2.449,0,0,1,2.028.834A3.05,3.05,0,0,1,93.516,22.324Zm-1.1-.036a2.1,2.1,0,0,0-.438-1.4,1.47,1.47,0,0,0-1.182-.516,1.408,1.408,0,0,0-1.194.546,2.25,2.25,0,0,0-.414,1.4,2.343,2.343,0,0,0,.4,1.386,1.366,1.366,0,0,0,1.194.57,1.428,1.428,0,0,0,1.206-.558A2.277,2.277,0,0,0,92.412,22.288Zm8.988,1.14a1.416,1.416,0,0,1-.666,1.248,2.978,2.978,0,0,1-1.686.444,3.954,3.954,0,0,1-2.1-.528l.168-1.3.828.084-.024.7a1.857,1.857,0,0,0,.522.168,3.321,3.321,0,0,0,.558.048,2.185,2.185,0,0,0,.93-.192.631.631,0,0,0,.414-.6.57.57,0,0,0-.336-.558,3.13,3.13,0,0,0-.834-.246q-.5-.084-.99-.21a1.909,1.909,0,0,1-.828-.432,1.2,1.2,0,0,1-.336-.93,1.283,1.283,0,0,1,.666-1.248,3.026,3.026,0,0,1,1.422-.348,3.784,3.784,0,0,1,1.038.138,4.274,4.274,0,0,1,.882.354l.12,1.3-.84.1-.12-.84a2.426,2.426,0,0,0-1.032-.228,1.437,1.437,0,0,0-.732.168.589.589,0,0,0-.288.552.541.541,0,0,0,.33.528,3.051,3.051,0,0,0,.816.234,9.374,9.374,0,0,1,.972.21,1.882,1.882,0,0,1,.816.444A1.246,1.246,0,0,1,101.4,23.428Zm4.956.06a1.661,1.661,0,0,1-1.8,1.632,1.771,1.771,0,0,1-1.29-.45,1.67,1.67,0,0,1-.462-1.254V20.44h-.828v-.8h.828V17.944h1.044v1.692H105.9v.8h-2.052v2.82q0,.96.828.96a.954.954,0,0,0,.528-.174,1.185,1.185,0,0,0,.372-.81Zm.948-3.444a3.574,3.574,0,0,1,.966-.4,4.437,4.437,0,0,1,1.038-.114,2.192,2.192,0,0,1,1.446.444,1.678,1.678,0,0,1,.534,1.368v2.484q0,.528.42.528a.9.9,0,0,0,.324-.06l.012.624a1.473,1.473,0,0,1-.78.2q-.972,0-1.032-1.08v-.012a2.5,2.5,0,0,1-.69.756,1.783,1.783,0,0,1-1.1.336,2.078,2.078,0,0,1-1.1-.336,1.269,1.269,0,0,1-.546-1.176,1.279,1.279,0,0,1,.8-1.326,4.576,4.576,0,0,1,1.71-.318,7.412,7.412,0,0,1,.924.048v-.4a1.847,1.847,0,0,0-.2-.9q-.2-.372-.912-.372a2.1,2.1,0,0,0-.972.2l-.2.876-.852-.1Zm2.928,2.892v-.312q-.216-.024-.45-.042t-.474-.018a2.539,2.539,0,0,0-.984.18.722.722,0,0,0-.432.744.712.712,0,0,0,.27.624,1.04,1.04,0,0,0,.618.192,1.5,1.5,0,0,0,.96-.36A1.363,1.363,0,0,0,110.232,22.936Zm5.532-3.384a1.588,1.588,0,0,1,.96.288l.216,1.5-.828.1-.2-.924a1.093,1.093,0,0,0-.42-.084.847.847,0,0,0-.684.342,1.38,1.38,0,0,0-.276.894v2.52h1.152V25h-3.072v-.816h.864v-3.72h-.9v-.828h1.884v.984a1.824,1.824,0,0,1,.486-.762A1.163,1.163,0,0,1,115.764,19.552Zm6.132,3.936a1.661,1.661,0,0,1-1.8,1.632,1.771,1.771,0,0,1-1.29-.45,1.67,1.67,0,0,1-.462-1.254V20.44h-.828v-.8h.828V17.944h1.044v1.692h2.052v.8h-2.052v2.82q0,.96.828.96a.954.954,0,0,0,.528-.174,1.185,1.185,0,0,0,.372-.81Zm7.14,0a1.661,1.661,0,0,1-1.8,1.632,1.771,1.771,0,0,1-1.29-.45,1.67,1.67,0,0,1-.462-1.254V20.44h-.828v-.8h.828V17.944h1.044v1.692h2.052v.8h-2.052v2.82q0,.96.828.96a.954.954,0,0,0,.528-.174,1.185,1.185,0,0,0,.372-.81Zm3.528-3.936a1.588,1.588,0,0,1,.96.288l.216,1.5-.828.1-.2-.924a1.093,1.093,0,0,0-.42-.084.847.847,0,0,0-.684.342,1.38,1.38,0,0,0-.276.894v2.52h1.152V25h-3.072v-.816h.864v-3.72h-.9v-.828h1.884v.984a1.824,1.824,0,0,1,.486-.762A1.163,1.163,0,0,1,132.564,19.552Zm2.532.492a3.574,3.574,0,0,1,.966-.4,4.437,4.437,0,0,1,1.038-.114,2.192,2.192,0,0,1,1.446.444,1.678,1.678,0,0,1,.534,1.368v2.484q0,.528.42.528a.9.9,0,0,0,.324-.06l.012.624a1.473,1.473,0,0,1-.78.2q-.972,0-1.032-1.08v-.012a2.5,2.5,0,0,1-.69.756,1.783,1.783,0,0,1-1.1.336,2.078,2.078,0,0,1-1.1-.336,1.269,1.269,0,0,1-.546-1.176,1.279,1.279,0,0,1,.8-1.326,4.576,4.576,0,0,1,1.71-.318,7.412,7.412,0,0,1,.924.048v-.4a1.847,1.847,0,0,0-.2-.9q-.2-.372-.912-.372a2.1,2.1,0,0,0-.972.2l-.2.876-.852-.1Zm2.928,2.892v-.312q-.216-.024-.45-.042t-.474-.018a2.539,2.539,0,0,0-.984.18.722.722,0,0,0-.432.744.712.712,0,0,0,.27.624,1.04,1.04,0,0,0,.618.192,1.5,1.5,0,0,0,.96-.36A1.363,1.363,0,0,0,138.024,22.936Zm7.248.2a2.628,2.628,0,0,1-.63,1.344,2.1,2.1,0,0,1-1.7.636,2.435,2.435,0,0,1-1.818-.7,2.748,2.748,0,0,1-.69-2.01,3.121,3.121,0,0,1,.684-2.046,2.331,2.331,0,0,1,1.908-.834,3.9,3.9,0,0,1,.972.12,2.655,2.655,0,0,1,.888.42l.216,1.392-.852.1-.192-.9a2.046,2.046,0,0,0-1.044-.264,1.242,1.242,0,0,0-1.116.546,2.517,2.517,0,0,0-.36,1.41,2.271,2.271,0,0,0,.384,1.4,1.33,1.33,0,0,0,1.128.5q1.116,0,1.332-1.3ZM151.824,25h-2.6v-.816h.72l-1.308-1.608h-.912v1.608h.7V25h-2.6v-.816h.864V17.572h-.9v-.828h1.944v5.064h.948l1.1-1.344h-.78v-.828h2.556v.828H150.8L149.448,22.1l1.7,2.088h.672Zm1.332-6.624V17.14h1.092v1.236ZM155.148,25h-2.8v-.816h.876v-3.72h-.912v-.828h1.968v4.548h.864Zm7.068,0h-2.784v-.816h.864V21.868a1.708,1.708,0,0,0-.312-1.158,1.067,1.067,0,0,0-.828-.342,1.359,1.359,0,0,0-1.068.444,1.606,1.606,0,0,0-.42,1.032v2.34h.864V25h-2.784v-.816h.864v-3.72h-.9v-.828h1.956v.912a2.107,2.107,0,0,1,3.144-.54,1.908,1.908,0,0,1,.54,1.5v2.676h.864Zm6.576-4.536h-.828v4.4a2.906,2.906,0,0,1-.7,2.04,2.6,2.6,0,0,1-2.022.768A3.166,3.166,0,0,1,163.7,27.3a1.956,1.956,0,0,1-.948-1.218l.816-.42a1.654,1.654,0,0,0,.7.864,1.929,1.929,0,0,0,1,.276,1.551,1.551,0,0,0,1.188-.5,2.058,2.058,0,0,0,.468-1.452v-.9a2.268,2.268,0,0,1-.684.78,1.973,1.973,0,0,1-1.188.324,2.252,2.252,0,0,1-1.638-.666,2.6,2.6,0,0,1-.678-1.938,3.562,3.562,0,0,1,.6-2.01,2.026,2.026,0,0,1,1.812-.906,1.868,1.868,0,0,1,1.776.948v-.84h1.872Zm-1.872,2.112v-.7a1.416,1.416,0,0,0-.432-1.08,1.466,1.466,0,0,0-1.044-.408,1.32,1.32,0,0,0-1.176.57,2.467,2.467,0,0,0-.384,1.41,1.95,1.95,0,0,0,.414,1.368,1.333,1.333,0,0,0,1.014.444,1.441,1.441,0,0,0,1.152-.5A1.775,1.775,0,0,0,166.92,22.576Zm10.452-2.112h-.6L174.924,25l-.66,1.716h.852v.84h-2.784v-.84h.948l.624-1.7-1.932-4.548h-.612v-.828h2.556v.828H173.1l1.38,3.264h.072l1.188-3.264h-.756v-.828h2.388Zm5.76,1.86a2.763,2.763,0,0,1-.762,2.016,2.683,2.683,0,0,1-2.01.78,2.538,2.538,0,0,1-1.938-.756,2.782,2.782,0,0,1-.714-1.992,3.092,3.092,0,0,1,.684-2.016,2.476,2.476,0,0,1,2.04-.84,2.449,2.449,0,0,1,2.028.834A3.05,3.05,0,0,1,183.132,22.324Zm-1.1-.036a2.1,2.1,0,0,0-.438-1.4,1.47,1.47,0,0,0-1.182-.516,1.408,1.408,0,0,0-1.194.546,2.25,2.25,0,0,0-.414,1.4,2.343,2.343,0,0,0,.4,1.386,1.366,1.366,0,0,0,1.194.57,1.428,1.428,0,0,0,1.206-.558A2.277,2.277,0,0,0,182.028,22.288ZM190.152,25H188.2v-.96a1.885,1.885,0,0,1-1.812,1.08,1.938,1.938,0,0,1-1.326-.48,1.913,1.913,0,0,1-.546-1.512V20.464h-.864v-.828h1.92V22.78a1.66,1.66,0,0,0,.318,1.152,1.125,1.125,0,0,0,.858.336,1.294,1.294,0,0,0,1.044-.474,1.656,1.656,0,0,0,.408-1.05v-2.28h-1.044v-.828h2.1v4.548h.9Zm3.7-5.448a1.588,1.588,0,0,1,.96.288l.216,1.5-.828.1-.2-.924a1.093,1.093,0,0,0-.42-.084.847.847,0,0,0-.684.342,1.38,1.38,0,0,0-.276.894v2.52h1.152V25h-3.072v-.816h.864v-3.72h-.9v-.828h1.884v.984a1.824,1.824,0,0,1,.486-.762A1.163,1.163,0,0,1,193.848,19.552Zm8.532,3.936a1.661,1.661,0,0,1-1.8,1.632,1.771,1.771,0,0,1-1.29-.45,1.67,1.67,0,0,1-.462-1.254V20.44H198v-.8h.828V17.944h1.044v1.692h2.052v.8h-2.052v2.82q0,.96.828.96a.954.954,0,0,0,.528-.174,1.185,1.185,0,0,0,.372-.81Zm1.212-5.112V17.14h1.092v1.236ZM205.584,25h-2.8v-.816h.876v-3.72h-.912v-.828h1.968v4.548h.864Zm10.524,0h-2.472v-.816h.552V21.868a1.732,1.732,0,0,0-.306-1.158,1.048,1.048,0,0,0-.822-.342,1.169,1.169,0,0,0-1.038.5,1.882,1.882,0,0,0-.354,1.02v2.292h.864V25H210.06v-.816h.552V21.868a1.729,1.729,0,0,0-.306-1.164,1.043,1.043,0,0,0-.81-.336,1.182,1.182,0,0,0-1.032.492,1.8,1.8,0,0,0-.36,1.008v2.316h1V25h-2.916v-.816h.864v-3.72h-.876v-.828H208.1v.948a2.127,2.127,0,0,1,.684-.762,1.833,1.833,0,0,1,1.056-.294,1.929,1.929,0,0,1,1.08.306,1.59,1.59,0,0,1,.648.942,2.185,2.185,0,0,1,.708-.9,2,2,0,0,1,2.424.132,1.933,1.933,0,0,1,.528,1.5v2.676h.876Zm5.424-1.584a1.822,1.822,0,0,1-.684,1.2,2.458,2.458,0,0,1-1.632.5,2.6,2.6,0,0,1-1.884-.7,2.676,2.676,0,0,1-.72-2.016,3.139,3.139,0,0,1,.672-2.064,2.278,2.278,0,0,1,1.86-.816,2.183,2.183,0,0,1,1.716.684,2.444,2.444,0,0,1,.624,1.656,3.491,3.491,0,0,1-.072.684h-3.7q.072,1.7,1.572,1.7a1.325,1.325,0,0,0,.942-.3,1.477,1.477,0,0,0,.426-.72Zm-1.14-1.572a1.592,1.592,0,0,0-.258-1.014,1.105,1.105,0,0,0-1.014-.486,1.161,1.161,0,0,0-.99.438,2.135,2.135,0,0,0-.4,1.062ZM222.516,25V23.512h1.368V25Z" transform="translate(68 180)"/>
    <path id="Path_86" data-name="Path 86" class="cls-16" d="M7.184.809,7.8.191a.375.375,0,0,0,0-.53L2.955-5.187h10.67A.375.375,0,0,0,14-5.562v-.875a.375.375,0,0,0-.375-.375H2.955L7.8-11.66a.375.375,0,0,0,0-.53l-.619-.619a.375.375,0,0,0-.53,0L.11-6.265a.375.375,0,0,0,0,.53L6.654.809A.375.375,0,0,0,7.184.809Z" transform="translate(48 177)"/>
  </g>
</svg>
