<svg xmlns="http://www.w3.org/2000/svg" xmlns:xlink="http://www.w3.org/1999/xlink" width="392" height="643" viewBox="0 0 392 643">
  <defs>
    <filter id="Ellipse_10" x="23" y="37" width="62" height="62" filterUnits="userSpaceOnUse">
      <feOffset dy="3" input="SourceAlpha"/>
      <feGaussianBlur stdDeviation="3" result="blur"/>
      <feFlood flood-opacity="0.059"/>
      <feComposite operator="in" in2="blur"/>
      <feComposite in="SourceGraphic"/>
    </filter>
    <filter id="Rectangle_57" x="23" y="139" width="346" height="500" filterUnits="userSpaceOnUse">
      <feOffset dy="3" input="SourceAlpha"/>
      <feGaussianBlur stdDeviation="3" result="blur-2"/>
      <feFlood flood-color="#39d07f" flood-opacity="0.059"/>
      <feComposite operator="in" in2="blur-2"/>
      <feComposite in="SourceGraphic"/>
    </filter>
    <clipPath id="clip-feature01img-3">
      <rect width="392" height="643"/>
    </clipPath>
  </defs>
  <g id="feature01img-3" clip-path="url(#clip-feature01img-3)">
    <rect id="background" width="392" height="643" rx="4" fill="#fff"/>
    <rect id="Rectangle_40" data-name="Rectangle 40" width="360" height="166" transform="translate(16 27)" fill="#f039a1"/>
    <text id="Settings" transform="translate(196 121)" fill="#fff" font-size="32" font-family="ZillaSlab-Medium, Zilla Slab" font-weight="500"><tspan x="-58.16" y="0">Settings</tspan></text>
    <g id="Group_67" data-name="Group 67" transform="translate(-121 -123)">
      <g transform="matrix(1, 0, 0, 1, 121, 123)" filter="url(#Ellipse_10)">
        <circle id="Ellipse_10-2" data-name="Ellipse 10" cx="22" cy="22" r="22" transform="translate(32 43)" fill="#fff"/>
      </g>
      <g id="baseline-menu-24px" transform="translate(165 178)">
        <path id="Path_73" data-name="Path 73" d="M0,0H20V20H0Z" fill="none"/>
        <path id="Path_74" data-name="Path 74" d="M3,18H17V16H3Zm0-5H17V11H3ZM3,6V8H17V6Z" transform="translate(0 -2)" fill="#242424"/>
      </g>
    </g>
    <g id="customize_section" data-name="customize section" transform="translate(16 27)">
      <g transform="matrix(1, 0, 0, 1, -16, -27)" filter="url(#Rectangle_57)">
        <rect id="Rectangle_57-2" data-name="Rectangle 57" width="328" height="482" rx="2" transform="translate(32 145)" fill="#fff"/>
      </g>
      <text id="Hero_Background" data-name="Hero Background" transform="translate(32 216)" fill="#363636" font-size="14" font-family="ZillaSlab-Medium, Zilla Slab" font-weight="500"><tspan x="0" y="0">Hero Background</tspan></text>
      <text id="Title_Color" data-name="Title Color" transform="translate(32 255)" fill="#363636" font-size="14" font-family="ZillaSlab-Medium, Zilla Slab" font-weight="500"><tspan x="0" y="0">Title Color</tspan></text>
      <text id="Title_on_Hero" data-name="Title on Hero" transform="translate(32 294)" fill="#363636" font-size="14" font-family="ZillaSlab-Medium, Zilla Slab" font-weight="500"><tspan x="0" y="0">Title on Hero</tspan></text>
      <text id="Paragraph_Text" data-name="Paragraph Text" transform="translate(32 333)" fill="#363636" font-size="14" font-family="ZillaSlab-Medium, Zilla Slab" font-weight="500"><tspan x="0" y="0">Paragraph Text</tspan></text>
      <text id="Accent" transform="translate(32 372)" fill="#363636" font-size="14" font-family="ZillaSlab-Medium, Zilla Slab" font-weight="500"><tspan x="0" y="0">Accent</tspan></text>
      <text id="Success" transform="translate(32 411)" fill="#363636" font-size="14" font-family="ZillaSlab-Medium, Zilla Slab" font-weight="500"><tspan x="0" y="0">Success</tspan></text>
      <text id="Danger" transform="translate(32 450)" fill="#363636" font-size="14" font-family="ZillaSlab-Medium, Zilla Slab" font-weight="500"><tspan x="0" y="0">Danger</tspan></text>
      <text id="Primary_Button_Background" data-name="Primary Button Background" transform="translate(32 489)" fill="#363636" font-size="14" font-family="ZillaSlab-Medium, Zilla Slab" font-weight="500"><tspan x="0" y="0">Primary Button Background</tspan></text>
      <text id="Secondary_Button_Background" data-name="Secondary  Button Background" transform="translate(32 567)" fill="#363636" font-size="14" font-family="ZillaSlab-Medium, Zilla Slab" font-weight="500"><tspan x="0" y="0" xml:space="preserve">Secondary  Button Background</tspan></text>
      <text id="Strong_Color" data-name="Strong Color" transform="translate(32 606)" fill="#363636" font-size="14" font-family="ZillaSlab-Medium, Zilla Slab" font-weight="500"><tspan x="0" y="0">Strong Color</tspan></text>
      <text id="Primary_Button_Color" data-name="Primary Button Color" transform="translate(32 528)" fill="#363636" font-size="14" font-family="ZillaSlab-Medium, Zilla Slab" font-weight="500"><tspan x="0" y="0">Primary Button Color</tspan></text>
      <text id="_F039A1" data-name="#F039A1" transform="translate(328 217)" fill="#f039a1" font-size="16" font-family="ZillaSlab-Medium, Zilla Slab" font-weight="500"><tspan x="-60.928" y="0">#F039A1</tspan></text>
      <text id="_363636" data-name="#363636" transform="translate(328 256)" fill="#363636" font-size="16" font-family="ZillaSlab-Medium, Zilla Slab" font-weight="500"><tspan x="-59.056" y="0">#363636</tspan></text>
      <text id="_FFFFFF" data-name="#FFFFFF" transform="translate(328 295)" fill="#363636" font-size="16" font-family="ZillaSlab-Medium, Zilla Slab" font-weight="500"><tspan x="-63.232" y="0">#FFFFFF</tspan></text>
      <text id="_BEBEBE" data-name="#BEBEBE" transform="translate(328 334)" fill="#bebebe" font-size="16" font-family="ZillaSlab-Medium, Zilla Slab" font-weight="500"><tspan x="-66.928" y="0">#BEBEBE</tspan></text>
      <text id="_39D0C4" data-name="#39D0C4" transform="translate(328 373)" fill="#39d0c4" font-size="16" font-family="ZillaSlab-Medium, Zilla Slab" font-weight="500"><tspan x="-65.488" y="0">#39D0C4</tspan></text>
      <text id="_39D07F" data-name="#39D07F" transform="translate(328 412)" fill="#39d07f" font-size="16" font-family="ZillaSlab-Medium, Zilla Slab" font-weight="500"><tspan x="-63.008" y="0">#39D07F</tspan></text>
      <text id="_FF5A5A" data-name="#FF5A5A" transform="translate(328 451)" fill="#ff5a5a" font-size="16" font-family="ZillaSlab-Medium, Zilla Slab" font-weight="500"><tspan x="-64.928" y="0">#FF5A5A</tspan></text>
      <text id="primary-btn" transform="translate(328 490)" fill="#3961e8" font-size="16" font-family="ZillaSlab-Medium, Zilla Slab" font-weight="500"><tspan x="-58.752" y="0">#3961E8</tspan></text>
      <text id="secondary-btn" transform="translate(328 568)" fill="#3961e8" font-size="16" font-family="ZillaSlab-Medium, Zilla Slab" font-weight="500"><tspan x="-58.752" y="0">#3961E8</tspan></text>
      <text id="_39D0C4-2" data-name="#39D0C4" transform="translate(328 607)" fill="#39d0c4" font-size="16" font-family="ZillaSlab-Medium, Zilla Slab" font-weight="500"><tspan x="-65.488" y="0">#39D0C4</tspan></text>
      <text id="_FFFFFF-2" data-name="#FFFFFF" transform="translate(328 529)" font-size="16" font-family="ZillaSlab-Medium, Zilla Slab" font-weight="500"><tspan x="-63.232" y="0">#FFFFFF</tspan></text>
      <g id="Group_88" data-name="Group 88">
        <text id="Customize_your_app" data-name="Customize your app" transform="translate(52 149)" fill="#363636" font-size="16" font-family="ZillaSlab-Medium, Zilla Slab" font-weight="500"><tspan x="0" y="0">Customize your app</tspan></text>
        <path id="Path_88" data-name="Path 88" d="M7.184.809,7.8.191a.375.375,0,0,0,0-.53L2.955-5.187h10.67A.375.375,0,0,0,14-5.562v-.875a.375.375,0,0,0-.375-.375H2.955L7.8-11.66a.375.375,0,0,0,0-.53l-.619-.619a.375.375,0,0,0-.53,0L.11-6.265a.375.375,0,0,0,0,.53L6.654.809A.375.375,0,0,0,7.184.809Z" transform="translate(32 150)" fill="#363636"/>
        <text id="Change_theme_colors_of_your_app_to_suit_your_style." data-name="Change theme colors of your app to suit your style." transform="translate(52 153)" fill="#bebebe" font-size="12" font-family="ZillaSlab-Medium, Zilla Slab" font-weight="500"><tspan x="0" y="11">Change theme colors of your app to suit your style.</tspan></text>
      </g>
    </g>
    <g id="frame">
      <g id="frame-2" data-name="frame">
        <rect id="Rectangle_123" data-name="Rectangle 123" width="16" height="643" rx="4" transform="translate(376)" fill="#f4f4f4"/>
        <rect id="Rectangle_122" data-name="Rectangle 122" width="16" height="643" rx="4" fill="#f4f4f4"/>
        <rect id="Rectangle_124" data-name="Rectangle 124" width="392" height="16" rx="4" transform="translate(0 627)" fill="#f4f4f4"/>
      </g>
      <g id="app-bar">
        <path id="tab" d="M4,0H388a4,4,0,0,1,4,4V27a0,0,0,0,1,0,0H0a0,0,0,0,1,0,0V4A4,4,0,0,1,4,0Z" fill="#f4f4f4"/>
        <g id="minimise_" data-name="minimise " transform="translate(37 7)">
          <g id="Ellipse_24" data-name="Ellipse 24" fill="#ffc12f" stroke="#e19f1b" stroke-width="1">
            <circle cx="6.5" cy="6.5" r="6.5" stroke="none"/>
            <circle cx="6.5" cy="6.5" r="6" fill="none"/>
          </g>
          <rect id="Rectangle_116" data-name="Rectangle 116" width="7" height="1" transform="translate(3 6)" fill="#995700"/>
        </g>
        <g id="close" transform="translate(16 7)">
          <g id="Ellipse_23" data-name="Ellipse 23" fill="#ff625a" stroke="#e2483f" stroke-width="1">
            <circle cx="6.5" cy="6.5" r="6.5" stroke="none"/>
            <circle cx="6.5" cy="6.5" r="6" fill="none"/>
          </g>
          <rect id="Rectangle_117" data-name="Rectangle 117" width="7" height="1" transform="translate(4.379 3.672) rotate(45)" fill="#4d0000"/>
          <rect id="Rectangle_118" data-name="Rectangle 118" width="7" height="1" transform="translate(3.672 8.621) rotate(-45)" fill="#4d0000"/>
        </g>
        <g id="fullscreen" transform="translate(58 7)">
          <g id="Ellipse_25" data-name="Ellipse 25" fill="#2acf42" stroke="#1eaa26" stroke-width="1">
            <circle cx="6.5" cy="6.5" r="6.5" stroke="none"/>
            <circle cx="6.5" cy="6.5" r="6" fill="none"/>
          </g>
          <rect id="Rectangle_120" data-name="Rectangle 120" width="7" height="1" transform="translate(7 3) rotate(90)" fill="#026400"/>
          <rect id="Rectangle_119" data-name="Rectangle 119" width="7" height="1" transform="translate(3 6)" fill="#026400"/>
        </g>
        <text id="The_Track" data-name="The Track" transform="translate(196 19)" fill="#4d4c4d" font-size="13" font-family="NotoSans-Medium, Noto Sans" font-weight="500"><tspan x="-29.679" y="0">The Track</tspan></text>
      </g>
    </g>
  </g>
</svg>
