<svg xmlns="http://www.w3.org/2000/svg" xmlns:xlink="http://www.w3.org/1999/xlink" width="392" height="643" viewBox="0 0 392 643">
  <defs>
    <style>
      .cls-1 {
        clip-path: url(#clip-feature01img-2);
      }

      .cls-2, .cls-4 {
        fill: #fff;
      }

      .cls-3 {
        fill: url(#linear-gradient);
      }

      .cls-4 {
        font-size: 32px;
      }

      .cls-10, .cls-11, .cls-12, .cls-13, .cls-14, .cls-16, .cls-4, .cls-7, .cls-8, .cls-9 {
        font-family: ZillaSlab-Medium, Zilla Slab;
      }

      .cls-10, .cls-11, .cls-12, .cls-13, .cls-14, .cls-16, .cls-24, .cls-4, .cls-7, .cls-8, .cls-9 {
        font-weight: 500;
      }

      .cls-5 {
        fill: none;
      }

      .cls-6 {
        fill: #242424;
      }

      .cls-15, .cls-7, .cls-9 {
        fill: #363636;
      }

      .cls-7 {
        font-size: 14px;
      }

      .cls-10, .cls-11, .cls-12, .cls-13, .cls-14, .cls-8, .cls-9 {
        font-size: 16px;
      }

      .cls-10, .cls-16 {
        fill: #bebebe;
      }

      .cls-11 {
        fill: #39d0c4;
      }

      .cls-12 {
        fill: #39d07f;
      }

      .cls-13 {
        fill: #ff5a5a;
      }

      .cls-14 {
        fill: #3961e8;
      }

      .cls-16 {
        font-size: 12px;
      }

      .cls-17 {
        fill: #f4f4f4;
      }

      .cls-18 {
        fill: #ffc12f;
        stroke: #e19f1b;
      }

      .cls-19 {
        fill: #995700;
      }

      .cls-20 {
        fill: #ff625a;
        stroke: #e2483f;
      }

      .cls-21 {
        fill: #4d0000;
      }

      .cls-22 {
        fill: #2acf42;
        stroke: #1eaa26;
      }

      .cls-23 {
        fill: #026400;
      }

      .cls-24 {
        fill: #4d4c4d;
        font-size: 13px;
        font-family: NotoSans-Medium, Noto Sans;
      }

      .cls-25 {
        stroke: none;
      }

      .cls-26 {
        filter: url(#Rectangle_57);
      }

      .cls-27 {
        filter: url(#Ellipse_10);
      }
    </style>
    <linearGradient id="linear-gradient" x1="0.5" x2="0.5" y2="1" gradientUnits="objectBoundingBox">
      <stop offset="0" stop-color="#fa709a"/>
      <stop offset="1" stop-color="#fee140"/>
    </linearGradient>
    <filter id="Ellipse_10" x="23" y="37" width="62" height="62" filterUnits="userSpaceOnUse">
      <feOffset dy="3" input="SourceAlpha"/>
      <feGaussianBlur stdDeviation="3" result="blur"/>
      <feFlood flood-opacity="0.059"/>
      <feComposite operator="in" in2="blur"/>
      <feComposite in="SourceGraphic"/>
    </filter>
    <filter id="Rectangle_57" x="23" y="139" width="346" height="500" filterUnits="userSpaceOnUse">
      <feOffset dy="3" input="SourceAlpha"/>
      <feGaussianBlur stdDeviation="3" result="blur-2"/>
      <feFlood flood-color="#39d07f" flood-opacity="0.059"/>
      <feComposite operator="in" in2="blur-2"/>
      <feComposite in="SourceGraphic"/>
    </filter>
    <clipPath id="clip-feature01img-2">
      <rect width="392" height="643"/>
    </clipPath>
  </defs>
  <g id="feature01img-2" class="cls-1">
    <rect id="background" class="cls-2" width="392" height="643" rx="4"/>
    <rect id="Rectangle_40" data-name="Rectangle 40" class="cls-3" width="360" height="166" transform="translate(16 27)"/>
    <text id="Settings" class="cls-4" transform="translate(196 121)"><tspan x="-58.16" y="0">Settings</tspan></text>
    <g id="Group_67" data-name="Group 67" transform="translate(-121 -123)">
      <g class="cls-27" transform="matrix(1, 0, 0, 1, 121, 123)">
        <circle id="Ellipse_10-2" data-name="Ellipse 10" class="cls-2" cx="22" cy="22" r="22" transform="translate(32 43)"/>
      </g>
      <g id="baseline-menu-24px" transform="translate(165 178)">
        <path id="Path_73" data-name="Path 73" class="cls-5" d="M0,0H20V20H0Z"/>
        <path id="Path_74" data-name="Path 74" class="cls-6" d="M3,18H17V16H3Zm0-5H17V11H3ZM3,6V8H17V6Z" transform="translate(0 -2)"/>
      </g>
    </g>
    <g id="customize_section" data-name="customize section" transform="translate(16 27)">
      <g class="cls-26" transform="matrix(1, 0, 0, 1, -16, -27)">
        <rect id="Rectangle_57-2" data-name="Rectangle 57" class="cls-2" width="328" height="482" rx="2" transform="translate(32 145)"/>
      </g>
      <text id="Hero_Background" data-name="Hero Background" class="cls-7" transform="translate(32 216)"><tspan x="0" y="0">Hero Background</tspan></text>
      <text id="Title_Color" data-name="Title Color" class="cls-7" transform="translate(32 255)"><tspan x="0" y="0">Title Color</tspan></text>
      <text id="Title_on_Hero" data-name="Title on Hero" class="cls-7" transform="translate(32 294)"><tspan x="0" y="0">Title on Hero</tspan></text>
      <text id="Paragraph_Text" data-name="Paragraph Text" class="cls-7" transform="translate(32 333)"><tspan x="0" y="0">Paragraph Text</tspan></text>
      <text id="Accent" class="cls-7" transform="translate(32 372)"><tspan x="0" y="0">Accent</tspan></text>
      <text id="Success" class="cls-7" transform="translate(32 411)"><tspan x="0" y="0">Success</tspan></text>
      <text id="Danger" class="cls-7" transform="translate(32 450)"><tspan x="0" y="0">Danger</tspan></text>
      <text id="Primary_Button_Background" data-name="Primary Button Background" class="cls-7" transform="translate(32 489)"><tspan x="0" y="0">Primary Button Background</tspan></text>
      <text id="Secondary_Button_Background" data-name="Secondary  Button Background" class="cls-7" transform="translate(32 567)"><tspan x="0" y="0" xml:space="preserve">Secondary  Button Background</tspan></text>
      <text id="Strong_Color" data-name="Strong Color" class="cls-7" transform="translate(32 606)"><tspan x="0" y="0">Strong Color</tspan></text>
      <text id="Primary_Button_Color" data-name="Primary Button Color" class="cls-7" transform="translate(32 528)"><tspan x="0" y="0">Primary Button Color</tspan></text>
      <text id="linear-grad_" data-name="linear-grad(…" class="cls-8" transform="translate(328 217)"><tspan x="-92.432" y="0">linear-grad(…</tspan></text>
      <text id="_363636" data-name="#363636" class="cls-9" transform="translate(328 256)"><tspan x="-59.056" y="0">#363636</tspan></text>
      <text id="_FFFFFF" data-name="#FFFFFF" class="cls-9" transform="translate(328 295)"><tspan x="-63.232" y="0">#FFFFFF</tspan></text>
      <text id="_BEBEBE" data-name="#BEBEBE" class="cls-10" transform="translate(328 334)"><tspan x="-66.928" y="0">#BEBEBE</tspan></text>
      <text id="_39D0C4" data-name="#39D0C4" class="cls-11" transform="translate(328 373)"><tspan x="-65.488" y="0">#39D0C4</tspan></text>
      <text id="_39D07F" data-name="#39D07F" class="cls-12" transform="translate(328 412)"><tspan x="-63.008" y="0">#39D07F</tspan></text>
      <text id="_FF5A5A" data-name="#FF5A5A" class="cls-13" transform="translate(328 451)"><tspan x="-64.928" y="0">#FF5A5A</tspan></text>
      <text id="primary-btn" class="cls-14" transform="translate(328 490)"><tspan x="-58.752" y="0">#3961E8</tspan></text>
      <text id="secondary-btn" class="cls-14" transform="translate(328 568)"><tspan x="-58.752" y="0">#3961E8</tspan></text>
      <text id="_39D0C4-2" data-name="#39D0C4" class="cls-11" transform="translate(328 607)"><tspan x="-65.488" y="0">#39D0C4</tspan></text>
      <text id="_FFFFFF-2" data-name="#FFFFFF" class="cls-8" transform="translate(328 529)"><tspan x="-63.232" y="0">#FFFFFF</tspan></text>
      <g id="Group_88" data-name="Group 88">
        <text id="Customize_your_app" data-name="Customize your app" class="cls-9" transform="translate(52 149)"><tspan x="0" y="0">Customize your app</tspan></text>
        <path id="Path_89" data-name="Path 89" class="cls-15" d="M7.184.809,7.8.191a.375.375,0,0,0,0-.53L2.955-5.187h10.67A.375.375,0,0,0,14-5.562v-.875a.375.375,0,0,0-.375-.375H2.955L7.8-11.66a.375.375,0,0,0,0-.53l-.619-.619a.375.375,0,0,0-.53,0L.11-6.265a.375.375,0,0,0,0,.53L6.654.809A.375.375,0,0,0,7.184.809Z" transform="translate(32 150)"/>
        <text id="Change_theme_colors_of_your_app_to_suit_your_style." data-name="Change theme colors of your app to suit your style." class="cls-16" transform="translate(52 153)"><tspan x="0" y="11">Change theme colors of your app to suit your style.</tspan></text>
      </g>
    </g>
    <g id="frame">
      <g id="frame-2" data-name="frame">
        <rect id="Rectangle_123" data-name="Rectangle 123" class="cls-17" width="16" height="643" rx="4" transform="translate(376)"/>
        <rect id="Rectangle_122" data-name="Rectangle 122" class="cls-17" width="16" height="643" rx="4"/>
        <rect id="Rectangle_124" data-name="Rectangle 124" class="cls-17" width="392" height="16" rx="4" transform="translate(0 627)"/>
      </g>
      <g id="app-bar">
        <path id="tab" class="cls-17" d="M4,0H388a4,4,0,0,1,4,4V27a0,0,0,0,1,0,0H0a0,0,0,0,1,0,0V4A4,4,0,0,1,4,0Z"/>
        <g id="minimise_" data-name="minimise " transform="translate(37 7)">
          <g id="Ellipse_24" data-name="Ellipse 24" class="cls-18">
            <circle class="cls-25" cx="6.5" cy="6.5" r="6.5"/>
            <circle class="cls-5" cx="6.5" cy="6.5" r="6"/>
          </g>
          <rect id="Rectangle_116" data-name="Rectangle 116" class="cls-19" width="7" height="1" transform="translate(3 6)"/>
        </g>
        <g id="close" transform="translate(16 7)">
          <g id="Ellipse_23" data-name="Ellipse 23" class="cls-20">
            <circle class="cls-25" cx="6.5" cy="6.5" r="6.5"/>
            <circle class="cls-5" cx="6.5" cy="6.5" r="6"/>
          </g>
          <rect id="Rectangle_117" data-name="Rectangle 117" class="cls-21" width="7" height="1" transform="translate(4.379 3.672) rotate(45)"/>
          <rect id="Rectangle_118" data-name="Rectangle 118" class="cls-21" width="7" height="1" transform="translate(3.672 8.621) rotate(-45)"/>
        </g>
        <g id="fullscreen" transform="translate(58 7)">
          <g id="Ellipse_25" data-name="Ellipse 25" class="cls-22">
            <circle class="cls-25" cx="6.5" cy="6.5" r="6.5"/>
            <circle class="cls-5" cx="6.5" cy="6.5" r="6"/>
          </g>
          <rect id="Rectangle_120" data-name="Rectangle 120" class="cls-23" width="7" height="1" transform="translate(7 3) rotate(90)"/>
          <rect id="Rectangle_119" data-name="Rectangle 119" class="cls-23" width="7" height="1" transform="translate(3 6)"/>
        </g>
        <text id="The_Track" data-name="The Track" class="cls-24" transform="translate(196 19)"><tspan x="-29.679" y="0">The Track</tspan></text>
      </g>
    </g>
  </g>
</svg>
