<svg xmlns="http://www.w3.org/2000/svg" xmlns:xlink="http://www.w3.org/1999/xlink" width="392" height="643" viewBox="0 0 392 643">
  <defs>
    <style>
      .cls-1 {
        clip-path: url(#clip-feature03img-0);
      }

      .cls-2 {
        fill: #fff;
      }

      .cls-3 {
        fill: url(#linear-gradient);
      }

      .cls-4 {
        fill: #39d07f;
      }

      .cls-5 {
        fill: none;
      }

      .cls-6 {
        fill: #363636;
      }

      .cls-7 {
        fill: #39d0c4;
      }

      .cls-8 {
        fill: #242424;
      }

      .cls-9 {
        fill: #f4f4f4;
      }

      .cls-10 {
        fill: #ffc12f;
      }

      .cls-11 {
        fill: #995700;
      }

      .cls-12 {
        fill: #ff625a;
      }

      .cls-13 {
        fill: #4d0000;
      }

      .cls-14 {
        fill: #2acf42;
      }

      .cls-15 {
        fill: #026400;
      }

      .cls-16 {
        fill: #4d4c4d;
      }

      .cls-17, .cls-18, .cls-19, .cls-20 {
        stroke: none;
      }

      .cls-18 {
        fill: #e19f1b;
      }

      .cls-19 {
        fill: #e2483f;
      }

      .cls-20 {
        fill: #1eaa26;
      }

      .cls-21 {
        filter: url(#Path_488);
      }

      .cls-22 {
        filter: url(#Path_448);
      }

      .cls-23 {
        filter: url(#Path_447);
      }

      .cls-24 {
        filter: url(#Path_446);
      }
    </style>
    <linearGradient id="linear-gradient" x1="0.5" x2="0.5" y2="1" gradientUnits="objectBoundingBox">
      <stop offset="0" stop-color="#3976ff"/>
      <stop offset="1" stop-color="#3961e8"/>
    </linearGradient>
    <filter id="Path_446" x="155" y="155" width="82" height="82" filterUnits="userSpaceOnUse">
      <feOffset dy="3" input="SourceAlpha"/>
      <feGaussianBlur stdDeviation="3" result="blur"/>
      <feFlood flood-opacity="0.059"/>
      <feComposite operator="in" in2="blur"/>
      <feComposite in="SourceGraphic"/>
    </filter>
    <filter id="Path_447" x="23" y="248" width="346" height="69" filterUnits="userSpaceOnUse">
      <feOffset input="SourceAlpha"/>
      <feGaussianBlur stdDeviation="3" result="blur-2"/>
      <feFlood flood-opacity="0.059"/>
      <feComposite operator="in" in2="blur-2"/>
      <feComposite in="SourceGraphic"/>
    </filter>
    <filter id="Path_448" x="23" y="359" width="346" height="332" filterUnits="userSpaceOnUse">
      <feOffset dy="3" input="SourceAlpha"/>
      <feGaussianBlur stdDeviation="3" result="blur-3"/>
      <feFlood flood-opacity="0.059"/>
      <feComposite operator="in" in2="blur-3"/>
      <feComposite in="SourceGraphic"/>
    </filter>
    <filter id="Path_488" x="23" y="37" width="62" height="62" filterUnits="userSpaceOnUse">
      <feOffset dy="3" input="SourceAlpha"/>
      <feGaussianBlur stdDeviation="3" result="blur-4"/>
      <feFlood flood-opacity="0.059"/>
      <feComposite operator="in" in2="blur-4"/>
      <feComposite in="SourceGraphic"/>
    </filter>
    <clipPath id="clip-feature03img-0">
      <rect width="392" height="643"/>
    </clipPath>
  </defs>
  <g id="feature03img-0" class="cls-1">
    <path id="background" class="cls-2" d="M4,0H388a4,4,0,0,1,4,4V1278a4,4,0,0,1-4,4H4a4,4,0,0,1-4-4V4A4,4,0,0,1,4,0Z"/>
    <path id="Path_444" data-name="Path 444" class="cls-3" d="M0,0H360V166H0Z" transform="translate(16 27)"/>
    <path id="Path_445" data-name="Path 445" class="cls-2" d="M-122.556,0h-11.4V-1.9h1.9V-13.7h-1.9v-1.9h6.552v1.9h-2.472V-1.9h5.424l.48-3.408,1.9.168Zm2.64-9.912a7.149,7.149,0,0,1,1.932-.8,8.874,8.874,0,0,1,2.076-.228,4.384,4.384,0,0,1,2.892.888,3.356,3.356,0,0,1,1.068,2.736v4.968q0,1.056.84,1.056a1.79,1.79,0,0,0,.648-.12l.024,1.248A2.946,2.946,0,0,1-112,.24q-1.944,0-2.064-2.16v-.024a4.993,4.993,0,0,1-1.38,1.512,3.566,3.566,0,0,1-2.2.672,4.156,4.156,0,0,1-2.2-.672,2.537,2.537,0,0,1-1.092-2.352,2.558,2.558,0,0,1,1.6-2.652,9.153,9.153,0,0,1,3.42-.636,14.825,14.825,0,0,1,1.848.1v-.792a3.7,3.7,0,0,0-.408-1.8q-.408-.744-1.824-.744a4.209,4.209,0,0,0-1.944.408l-.408,1.752-1.7-.192Zm5.856,5.784v-.624q-.432-.048-.9-.084t-.948-.036a5.078,5.078,0,0,0-1.968.36,1.444,1.444,0,0,0-.864,1.488,1.425,1.425,0,0,0,.54,1.248,2.079,2.079,0,0,0,1.236.384,2.989,2.989,0,0,0,1.92-.72A2.726,2.726,0,0,0-114.06-4.128ZM-96.372,0h-5.568V-1.632h1.728V-6.264a3.416,3.416,0,0,0-.624-2.316,2.134,2.134,0,0,0-1.656-.684,2.719,2.719,0,0,0-2.136.888,3.212,3.212,0,0,0-.84,2.064v4.68h1.728V0h-5.568V-1.632h1.728v-7.44h-1.8v-1.656h3.912V-8.9a3.856,3.856,0,0,1,3.648-2.04,3.832,3.832,0,0,1,2.64.96,3.816,3.816,0,0,1,1.08,3v5.352h1.728Zm13.224,0h-3.816V-2.112a5.043,5.043,0,0,1-1.4,1.656,3.8,3.8,0,0,1-2.388.7,4.209,4.209,0,0,1-3.336-1.428A5.761,5.761,0,0,1-95.34-5.112a7.4,7.4,0,0,1,1.14-4.02,4.023,4.023,0,0,1,3.684-1.812,3.757,3.757,0,0,1,3.552,1.92v-5.832h-2.472v-1.656h4.56v14.88h1.728Zm-3.816-4.944v-1.3a2.988,2.988,0,0,0-.912-2.16,2.931,2.931,0,0,0-2.088-.816,2.7,2.7,0,0,0-2.364,1.152,4.826,4.826,0,0,0-.8,2.832,4.03,4.03,0,0,0,.864,2.784,2.76,2.76,0,0,0,2.136.96,2.72,2.72,0,0,0,2.244-1.128A4.031,4.031,0,0,0-86.964-4.944Zm6.552-8.3V-15.72h2.184v2.472ZM-76.428,0H-82.02V-1.632h1.752v-7.44h-1.824v-1.656h3.936v9.1h1.728Zm14.136,0H-67.86V-1.632h1.728V-6.264a3.416,3.416,0,0,0-.624-2.316,2.134,2.134,0,0,0-1.656-.684,2.719,2.719,0,0,0-2.136.888,3.212,3.212,0,0,0-.84,2.064v4.68h1.728V0h-5.568V-1.632H-73.5v-7.44h-1.8v-1.656h3.912V-8.9a3.856,3.856,0,0,1,3.648-2.04,3.832,3.832,0,0,1,2.64.96,3.816,3.816,0,0,1,1.08,3v5.352h1.728ZM-49.14-9.072H-50.8V-.264a5.812,5.812,0,0,1-1.4,4.08,5.2,5.2,0,0,1-4.044,1.536A6.332,6.332,0,0,1-59.316,4.6a3.912,3.912,0,0,1-1.9-2.436l1.632-.84a3.307,3.307,0,0,0,1.392,1.728A3.858,3.858,0,0,0-56.2,3.6,3.1,3.1,0,0,0-53.82,2.592a4.116,4.116,0,0,0,.936-2.9v-1.8a4.536,4.536,0,0,1-1.368,1.56A3.945,3.945,0,0,1-56.628.1,4.5,4.5,0,0,1-59.9-1.236,5.2,5.2,0,0,1-61.26-5.112a7.125,7.125,0,0,1,1.2-4.02,4.053,4.053,0,0,1,3.624-1.812,3.736,3.736,0,0,1,3.552,1.9v-1.68h3.744Zm-3.744,4.224V-6.24a2.832,2.832,0,0,0-.864-2.16,2.931,2.931,0,0,0-2.088-.816,2.64,2.64,0,0,0-2.352,1.14,4.934,4.934,0,0,0-.768,2.82,3.9,3.9,0,0,0,.828,2.736,2.666,2.666,0,0,0,2.028.888A2.882,2.882,0,0,0-53.8-2.64,3.549,3.549,0,0,0-52.884-4.848Zm22.632-5.9A4.694,4.694,0,0,1-31.8-6.936a5.8,5.8,0,0,1-3.852,1.3h-2.856V-1.9h2.592V0h-6.672V-1.9h1.9V-13.7h-1.9v-1.9H-35.8a5.566,5.566,0,0,1,4.224,1.4A4.84,4.84,0,0,1-30.252-10.752Zm-2.328.048a2.943,2.943,0,0,0-.816-2.2,3.658,3.658,0,0,0-2.64-.8h-2.472v6.192h2.52Q-32.58-7.512-32.58-10.7Zm4.68.792a7.149,7.149,0,0,1,1.932-.8,8.874,8.874,0,0,1,2.076-.228A4.384,4.384,0,0,1-21-10.056,3.356,3.356,0,0,1-19.932-7.32v4.968q0,1.056.84,1.056a1.79,1.79,0,0,0,.648-.12l.024,1.248A2.946,2.946,0,0,1-19.98.24q-1.944,0-2.064-2.16v-.024a4.993,4.993,0,0,1-1.38,1.512,3.566,3.566,0,0,1-2.2.672,4.156,4.156,0,0,1-2.2-.672,2.537,2.537,0,0,1-1.092-2.352,2.558,2.558,0,0,1,1.6-2.652,9.153,9.153,0,0,1,3.42-.636,14.825,14.825,0,0,1,1.848.1v-.792a3.7,3.7,0,0,0-.408-1.8q-.408-.744-1.824-.744A4.209,4.209,0,0,0-26.22-8.9l-.408,1.752-1.7-.192Zm5.856,5.784v-.624q-.432-.048-.9-.084t-.948-.036a5.078,5.078,0,0,0-1.968.36,1.444,1.444,0,0,0-.864,1.488,1.425,1.425,0,0,0,.54,1.248,2.079,2.079,0,0,0,1.236.384,2.989,2.989,0,0,0,1.92-.72A2.726,2.726,0,0,0-22.044-4.128ZM-5.1-9.072H-6.756V-.264a5.812,5.812,0,0,1-1.4,4.08A5.2,5.2,0,0,1-12.2,5.352,6.332,6.332,0,0,1-15.276,4.6a3.912,3.912,0,0,1-1.9-2.436l1.632-.84a3.307,3.307,0,0,0,1.392,1.728,3.858,3.858,0,0,0,1.992.552A3.1,3.1,0,0,0-9.78,2.592a4.116,4.116,0,0,0,.936-2.9v-1.8a4.536,4.536,0,0,1-1.368,1.56A3.945,3.945,0,0,1-12.588.1a4.5,4.5,0,0,1-3.276-1.332A5.2,5.2,0,0,1-17.22-5.112a7.125,7.125,0,0,1,1.2-4.02A4.053,4.053,0,0,1-12.4-10.944a3.736,3.736,0,0,1,3.552,1.9v-1.68H-5.1ZM-8.844-4.848V-6.24A2.832,2.832,0,0,0-9.708-8.4,2.931,2.931,0,0,0-11.8-9.216a2.64,2.64,0,0,0-2.352,1.14,4.934,4.934,0,0,0-.768,2.82,3.9,3.9,0,0,0,.828,2.736,2.666,2.666,0,0,0,2.028.888,2.882,2.882,0,0,0,2.3-1.008A3.549,3.549,0,0,0-8.844-4.848Zm14.76,1.68a3.644,3.644,0,0,1-1.368,2.4A4.916,4.916,0,0,1,1.284.24,5.193,5.193,0,0,1-2.484-1.152a5.352,5.352,0,0,1-1.44-4.032A6.278,6.278,0,0,1-2.58-9.312a4.556,4.556,0,0,1,3.72-1.632A4.367,4.367,0,0,1,4.572-9.576,4.888,4.888,0,0,1,5.82-6.264,6.983,6.983,0,0,1,5.676-4.9H-1.716q.144,3.408,3.144,3.408a2.651,2.651,0,0,0,1.884-.6,2.954,2.954,0,0,0,.852-1.44ZM3.636-6.312A3.184,3.184,0,0,0,3.12-8.34a2.211,2.211,0,0,0-2.028-.972,2.321,2.321,0,0,0-1.98.876,4.27,4.27,0,0,0-.8,2.124ZM33.66-13.7h-1.3L28.164,0h-1.68L22.5-11.784h-.1L18.564,0h-1.7L12.4-13.7H11.052v-1.9h5.64v1.9H14.724l3,10.128h.12L21.2-13.7H19.74v-1.9h5.616v1.9H23.94L27.3-3.48h.12L30.18-13.7H28.068v-1.9H33.66ZM43.116-3.168a3.644,3.644,0,0,1-1.368,2.4A4.916,4.916,0,0,1,38.484.24a5.193,5.193,0,0,1-3.768-1.392,5.352,5.352,0,0,1-1.44-4.032A6.278,6.278,0,0,1,34.62-9.312a4.556,4.556,0,0,1,3.72-1.632,4.367,4.367,0,0,1,3.432,1.368A4.888,4.888,0,0,1,43.02-6.264,6.983,6.983,0,0,1,42.876-4.9H35.484q.144,3.408,3.144,3.408a2.651,2.651,0,0,0,1.884-.6,2.954,2.954,0,0,0,.852-1.44Zm-2.28-3.144A3.184,3.184,0,0,0,40.32-8.34a2.211,2.211,0,0,0-2.028-.972,2.321,2.321,0,0,0-1.98.876,4.27,4.27,0,0,0-.8,2.124ZM56-5.616A7.417,7.417,0,0,1,54.852-1.6,4.013,4.013,0,0,1,51.18.24a3.812,3.812,0,0,1-3.672-1.968L47.4-.864,47.292,0H45.18q.12-.744.24-1.56a11.042,11.042,0,0,0,.12-1.608V-14.856H43.812v-1.656h3.84v7.944a5.013,5.013,0,0,1,1.356-1.668,3.734,3.734,0,0,1,2.412-.708,4.3,4.3,0,0,1,3.288,1.392A5.56,5.56,0,0,1,56-5.616ZM53.8-5.448a4.107,4.107,0,0,0-.852-2.808,2.724,2.724,0,0,0-2.124-.96,2.759,2.759,0,0,0-2.3,1.08,3.758,3.758,0,0,0-.864,2.256v1.2a3.2,3.2,0,0,0,.864,2.268,2.862,2.862,0,0,0,2.184.924A2.608,2.608,0,0,0,53.028-2.64,4.948,4.948,0,0,0,53.8-5.448ZM77.988-7.824A7.816,7.816,0,0,1,75.9-2.172,7.645,7.645,0,0,1,70.116,0H62.964V-1.872h1.9V-13.728h-1.9V-15.6H70a7.766,7.766,0,0,1,5.928,2.184A7.813,7.813,0,0,1,77.988-7.824ZM75.66-7.8A6.153,6.153,0,0,0,74.2-12.144a5.5,5.5,0,0,0-4.248-1.584h-2.9V-1.872h2.9A5.569,5.569,0,0,0,74.2-3.42,6.127,6.127,0,0,0,75.66-7.8ZM89.484-3.168a3.644,3.644,0,0,1-1.368,2.4A4.916,4.916,0,0,1,84.852.24a5.193,5.193,0,0,1-3.768-1.392,5.352,5.352,0,0,1-1.44-4.032,6.278,6.278,0,0,1,1.344-4.128,4.556,4.556,0,0,1,3.72-1.632A4.367,4.367,0,0,1,88.14-9.576a4.888,4.888,0,0,1,1.248,3.312A6.983,6.983,0,0,1,89.244-4.9H81.852Q82-1.488,85-1.488a2.651,2.651,0,0,0,1.884-.6,2.954,2.954,0,0,0,.852-1.44ZM87.2-6.312a3.184,3.184,0,0,0-.516-2.028,2.211,2.211,0,0,0-2.028-.972,2.321,2.321,0,0,0-1.98.876,4.27,4.27,0,0,0-.8,2.124Zm12.84,3.168a2.832,2.832,0,0,1-1.332,2.5A5.957,5.957,0,0,1,95.34.24a7.908,7.908,0,0,1-4.2-1.056l.336-2.592,1.656.168-.048,1.392a3.713,3.713,0,0,0,1.044.336,6.641,6.641,0,0,0,1.116.1A4.37,4.37,0,0,0,97.1-1.8,1.261,1.261,0,0,0,97.932-3a1.14,1.14,0,0,0-.672-1.116,6.261,6.261,0,0,0-1.668-.492q-1-.168-1.98-.42a3.818,3.818,0,0,1-1.656-.864,2.393,2.393,0,0,1-.672-1.86,2.566,2.566,0,0,1,1.332-2.5,6.053,6.053,0,0,1,2.844-.7,7.569,7.569,0,0,1,2.076.276A8.548,8.548,0,0,1,99.3-9.96l.24,2.592-1.68.192-.24-1.68a4.853,4.853,0,0,0-2.064-.456,2.873,2.873,0,0,0-1.464.336,1.178,1.178,0,0,0-.576,1.1,1.082,1.082,0,0,0,.66,1.056,6.1,6.1,0,0,0,1.632.468,18.748,18.748,0,0,1,1.944.42,3.764,3.764,0,0,1,1.632.888A2.493,2.493,0,0,1,100.044-3.144Zm3.24-10.1V-15.72h2.184v2.472ZM107.268,0h-5.592V-1.632h1.752v-7.44H101.6v-1.656h3.936v9.1h1.728ZM120.66-9.072H119V-.264a5.812,5.812,0,0,1-1.4,4.08,5.2,5.2,0,0,1-4.044,1.536,6.332,6.332,0,0,1-3.072-.756,3.912,3.912,0,0,1-1.9-2.436l1.632-.84a3.307,3.307,0,0,0,1.392,1.728A3.858,3.858,0,0,0,113.6,3.6a3.1,3.1,0,0,0,2.376-1.008,4.116,4.116,0,0,0,.936-2.9v-1.8a4.536,4.536,0,0,1-1.368,1.56A3.946,3.946,0,0,1,113.172.1,4.5,4.5,0,0,1,109.9-1.236a5.2,5.2,0,0,1-1.356-3.876,7.125,7.125,0,0,1,1.2-4.02,4.053,4.053,0,0,1,3.624-1.812,3.736,3.736,0,0,1,3.552,1.9v-1.68h3.744Zm-3.744,4.224V-6.24a2.832,2.832,0,0,0-.864-2.16,2.931,2.931,0,0,0-2.088-.816,2.64,2.64,0,0,0-2.352,1.14,4.934,4.934,0,0,0-.768,2.82,3.9,3.9,0,0,0,.828,2.736,2.666,2.666,0,0,0,2.028.888A2.882,2.882,0,0,0,116-2.64,3.549,3.549,0,0,0,116.916-4.848ZM134.7,0h-5.568V-1.632h1.728V-6.264a3.416,3.416,0,0,0-.624-2.316,2.134,2.134,0,0,0-1.656-.684,2.719,2.719,0,0,0-2.136.888,3.212,3.212,0,0,0-.84,2.064v4.68h1.728V0h-5.568V-1.632h1.728v-7.44h-1.8v-1.656H125.6V-8.9a3.856,3.856,0,0,1,3.648-2.04,3.832,3.832,0,0,1,2.64.96,3.816,3.816,0,0,1,1.08,3v5.352H134.7Z" transform="translate(196 119)"/>
    <g class="cls-24" transform="matrix(1, 0, 0, 1, 0, 0)">
      <path id="Path_446-2" data-name="Path 446" class="cls-2" d="M32,0A32,32,0,1,1,0,32,32,32,0,0,1,32,0Z" transform="translate(164 161)"/>
    </g>
    <path id="Path_67" data-name="Path 67" class="cls-4" d="M8,5V19l11-7Z" transform="translate(184 181)"/>
    <path id="Path_68" data-name="Path 68" class="cls-5" d="M0,0H24V24H0Z" transform="translate(184 181)"/>
    <g class="cls-23" transform="matrix(1, 0, 0, 1, 0, 0)">
      <path id="Path_447-2" data-name="Path 447" class="cls-2" d="M2,0H326a2,2,0,0,1,2,2V49a2,2,0,0,1-2,2H2a2,2,0,0,1-2-2V2A2,2,0,0,1,2,0Z" transform="translate(32 257)"/>
    </g>
    <g class="cls-22" transform="matrix(1, 0, 0, 1, 0, 0)">
      <path id="Path_448-2" data-name="Path 448" class="cls-2" d="M2,0H326a2,2,0,0,1,2,2V312a2,2,0,0,1-2,2H2a2,2,0,0,1-2-2V2A2,2,0,0,1,2,0Z" transform="translate(32 365)"/>
    </g>
    <path id="Path_449" data-name="Path 449" class="cls-6" d="M8.88-7.168A3.129,3.129,0,0,1,7.848-4.624,3.865,3.865,0,0,1,5.28-3.76h-1.9v2.5H5.1V0H.656V-1.264H1.92V-9.136H.656V-10.4H5.184A3.711,3.711,0,0,1,8-9.464,3.226,3.226,0,0,1,8.88-7.168Zm-1.552.032A1.962,1.962,0,0,0,6.784-8.6a2.439,2.439,0,0,0-1.76-.536H3.376v4.128h1.68Q7.328-5.008,7.328-7.136Zm6.656-.128a2.117,2.117,0,0,1,1.28.384l.288,2-1.1.128-.272-1.232a1.458,1.458,0,0,0-.56-.112,1.129,1.129,0,0,0-.912.456,1.839,1.839,0,0,0-.368,1.192v3.36h1.536V0h-4.1V-1.088h1.152v-4.96h-1.2v-1.1H12.24V-5.84a2.432,2.432,0,0,1,.648-1.016A1.55,1.55,0,0,1,13.984-7.264Zm9.872,3.7A3.684,3.684,0,0,1,22.84-.88,3.577,3.577,0,0,1,20.16.16,3.384,3.384,0,0,1,17.576-.848,3.71,3.71,0,0,1,16.624-3.5a4.122,4.122,0,0,1,.912-2.688,3.3,3.3,0,0,1,2.72-1.12A3.265,3.265,0,0,1,22.96-6.2,4.067,4.067,0,0,1,23.856-3.568Zm-1.472-.048A2.8,2.8,0,0,0,21.8-5.488a1.961,1.961,0,0,0-1.576-.688,1.877,1.877,0,0,0-1.592.728,3,3,0,0,0-.552,1.864,3.124,3.124,0,0,0,.536,1.848,1.821,1.821,0,0,0,1.592.76,1.9,1.9,0,0,0,1.608-.744A3.036,3.036,0,0,0,22.384-3.616Zm3.5-5.216V-10.48H27.36v1.648ZM27.36.08a3.855,3.855,0,0,1-.832,2.832,2.893,2.893,0,0,1-2.384.656L24.1,2.576a2.718,2.718,0,0,0,.864-.144,1.29,1.29,0,0,0,.712-.672,3.772,3.772,0,0,0,.28-1.68V-6.048h-1.44v-1.1H27.36Zm8.176-2.192a2.429,2.429,0,0,1-.912,1.6A3.277,3.277,0,0,1,32.448.16a3.462,3.462,0,0,1-2.512-.928,3.568,3.568,0,0,1-.96-2.688,4.185,4.185,0,0,1,.9-2.752A3.037,3.037,0,0,1,32.352-7.3a2.911,2.911,0,0,1,2.288.912,3.259,3.259,0,0,1,.832,2.208,4.656,4.656,0,0,1-.1.912H30.448q.1,2.272,2.1,2.272a1.767,1.767,0,0,0,1.256-.4,1.97,1.97,0,0,0,.568-.96Zm-1.52-2.1a2.123,2.123,0,0,0-.344-1.352,1.474,1.474,0,0,0-1.352-.648A1.548,1.548,0,0,0,31-5.624a2.846,2.846,0,0,0-.536,1.416ZM43.008-2.48a3.5,3.5,0,0,1-.84,1.792A2.8,2.8,0,0,1,39.9.16,3.247,3.247,0,0,1,37.48-.776a3.664,3.664,0,0,1-.92-2.68,4.161,4.161,0,0,1,.912-2.728A3.108,3.108,0,0,1,40.016-7.3a5.2,5.2,0,0,1,1.3.16,3.54,3.54,0,0,1,1.184.56l.288,1.856-1.136.128-.256-1.2A2.727,2.727,0,0,0,40-6.144a1.656,1.656,0,0,0-1.488.728,3.356,3.356,0,0,0-.48,1.88,3.027,3.027,0,0,0,.512,1.872,1.774,1.774,0,0,0,1.5.672q1.488,0,1.776-1.728Zm6.5.464A2.215,2.215,0,0,1,47.1.16a2.361,2.361,0,0,1-1.72-.6,2.226,2.226,0,0,1-.616-1.672V-6.08h-1.1V-7.152h1.1V-9.408H46.16v2.256H48.9V-6.08H46.16v3.76q0,1.28,1.1,1.28a1.271,1.271,0,0,0,.7-.232,1.581,1.581,0,0,0,.5-1.08Zm9.52,0A2.215,2.215,0,0,1,56.624.16a2.361,2.361,0,0,1-1.72-.6,2.226,2.226,0,0,1-.616-1.672V-6.08h-1.1V-7.152h1.1V-9.408H55.68v2.256h2.736V-6.08H55.68v3.76q0,1.28,1.1,1.28a1.271,1.271,0,0,0,.7-.232,1.581,1.581,0,0,0,.5-1.08ZM60.64-8.832V-10.48H62.1v1.648ZM63.3,0H59.568V-1.088h1.168v-4.96H59.52v-1.1h2.624v6.064H63.3ZM77.328,0h-3.3V-1.088h.736V-4.176A2.309,2.309,0,0,0,74.36-5.72a1.4,1.4,0,0,0-1.1-.456A1.559,1.559,0,0,0,71.88-5.5a2.51,2.51,0,0,0-.472,1.36v3.056H72.56V0h-3.3V-1.088H70V-4.176a2.3,2.3,0,0,0-.408-1.552,1.391,1.391,0,0,0-1.08-.448,1.576,1.576,0,0,0-1.376.656,2.4,2.4,0,0,0-.48,1.344v3.088h1.328V0H64.1V-1.088h1.152v-4.96H64.08v-1.1h2.576v1.264A2.836,2.836,0,0,1,67.568-6.9,2.444,2.444,0,0,1,68.976-7.3a2.572,2.572,0,0,1,1.44.408,2.12,2.12,0,0,1,.864,1.256,2.914,2.914,0,0,1,.944-1.2,2.476,2.476,0,0,1,1.52-.464,2.454,2.454,0,0,1,1.712.64,2.577,2.577,0,0,1,.7,2v3.568h1.168ZM84.56-2.112a2.429,2.429,0,0,1-.912,1.6A3.277,3.277,0,0,1,81.472.16,3.462,3.462,0,0,1,78.96-.768,3.568,3.568,0,0,1,78-3.456a4.185,4.185,0,0,1,.9-2.752A3.037,3.037,0,0,1,81.376-7.3a2.911,2.911,0,0,1,2.288.912A3.259,3.259,0,0,1,84.5-4.176a4.655,4.655,0,0,1-.1.912H79.472q.1,2.272,2.1,2.272a1.767,1.767,0,0,0,1.256-.4,1.97,1.97,0,0,0,.568-.96Zm-1.52-2.1A2.123,2.123,0,0,0,82.7-5.56a1.474,1.474,0,0,0-1.352-.648,1.548,1.548,0,0,0-1.32.584,2.846,2.846,0,0,0-.536,1.416Z" transform="translate(48 288)"/>
    <path id="Path_450" data-name="Path 450" class="cls-6" d="M11.44,0H7.488V-1.264H8.736V-4.672H3.376v3.408H4.624V0H.656V-1.264H1.92V-9.136H.656V-10.4H4.624v1.264H3.376V-5.9h5.36V-9.136H7.488V-10.4H11.44v1.264H10.192v7.872H11.44Zm7.44-2.112a2.429,2.429,0,0,1-.912,1.6A3.277,3.277,0,0,1,15.792.16,3.462,3.462,0,0,1,13.28-.768a3.568,3.568,0,0,1-.96-2.688,4.185,4.185,0,0,1,.9-2.752A3.037,3.037,0,0,1,15.7-7.3a2.911,2.911,0,0,1,2.288.912,3.259,3.259,0,0,1,.832,2.208,4.656,4.656,0,0,1-.1.912H13.792q.1,2.272,2.1,2.272a1.767,1.767,0,0,0,1.256-.4,1.97,1.97,0,0,0,.568-.96Zm-1.52-2.1a2.123,2.123,0,0,0-.344-1.352,1.474,1.474,0,0,0-1.352-.648,1.548,1.548,0,0,0-1.32.584,2.846,2.846,0,0,0-.536,1.416Zm6.7-3.056a2.117,2.117,0,0,1,1.28.384l.288,2-1.1.128-.272-1.232A1.458,1.458,0,0,0,23.7-6.1a1.129,1.129,0,0,0-.912.456,1.839,1.839,0,0,0-.368,1.192v3.36h1.536V0h-4.1V-1.088h1.152v-4.96h-1.2v-1.1H22.32V-5.84a2.432,2.432,0,0,1,.648-1.016A1.55,1.55,0,0,1,24.064-7.264Zm9.872,3.7A3.684,3.684,0,0,1,32.92-.88,3.577,3.577,0,0,1,30.24.16,3.384,3.384,0,0,1,27.656-.848,3.71,3.71,0,0,1,26.7-3.5a4.122,4.122,0,0,1,.912-2.688,3.3,3.3,0,0,1,2.72-1.12A3.265,3.265,0,0,1,33.04-6.2,4.067,4.067,0,0,1,33.936-3.568Zm-1.472-.048a2.8,2.8,0,0,0-.584-1.872A1.961,1.961,0,0,0,30.3-6.176a1.877,1.877,0,0,0-1.592.728,3,3,0,0,0-.552,1.864A3.124,3.124,0,0,0,28.7-1.736a1.821,1.821,0,0,0,1.592.76A1.9,1.9,0,0,0,31.9-1.72,3.036,3.036,0,0,0,32.464-3.616Zm13.44.64A2.747,2.747,0,0,1,44.84-.648,4.44,4.44,0,0,1,42.08.16a7.594,7.594,0,0,1-1.968-.248A4.2,4.2,0,0,1,38.64-.752l.24-2.208,1.168.112-.032,1.3a3.642,3.642,0,0,0,1.016.36A5.446,5.446,0,0,0,42-1.1a3.414,3.414,0,0,0,1.672-.376,1.409,1.409,0,0,0,.68-1.352,1.407,1.407,0,0,0-.76-1.432,7.984,7.984,0,0,0-1.7-.536,14.086,14.086,0,0,1-1.48-.4,2.732,2.732,0,0,1-1.216-.792A2.357,2.357,0,0,1,38.7-7.6a2.527,2.527,0,0,1,1.04-2.256,4.179,4.179,0,0,1,2.4-.7,6.367,6.367,0,0,1,1.808.264,3.85,3.85,0,0,1,1.392.68l.1,2.128-1.168.112L44.1-8.832a3.282,3.282,0,0,0-.944-.352,4.656,4.656,0,0,0-.912-.1,2.456,2.456,0,0,0-1.432.384,1.294,1.294,0,0,0-.552,1.136,1.188,1.188,0,0,0,.672,1.192,7.733,7.733,0,0,0,1.488.5q.672.144,1.488.392a3.255,3.255,0,0,1,1.408.856A2.544,2.544,0,0,1,45.9-2.976Zm7.728.864a2.429,2.429,0,0,1-.912,1.6A3.277,3.277,0,0,1,50.544.16a3.462,3.462,0,0,1-2.512-.928,3.568,3.568,0,0,1-.96-2.688,4.185,4.185,0,0,1,.9-2.752A3.037,3.037,0,0,1,50.448-7.3a2.911,2.911,0,0,1,2.288.912,3.259,3.259,0,0,1,.832,2.208,4.656,4.656,0,0,1-.1.912H48.544q.1,2.272,2.1,2.272a1.767,1.767,0,0,0,1.256-.4,1.97,1.97,0,0,0,.568-.96Zm-1.52-2.1a2.123,2.123,0,0,0-.344-1.352,1.474,1.474,0,0,0-1.352-.648,1.548,1.548,0,0,0-1.32.584,2.846,2.846,0,0,0-.536,1.416ZM61.1-2.48a3.5,3.5,0,0,1-.84,1.792A2.8,2.8,0,0,1,58,.16a3.247,3.247,0,0,1-2.424-.936,3.664,3.664,0,0,1-.92-2.68,4.161,4.161,0,0,1,.912-2.728A3.108,3.108,0,0,1,58.112-7.3a5.2,5.2,0,0,1,1.3.16,3.54,3.54,0,0,1,1.184.56L60.88-4.72l-1.136.128-.256-1.2A2.727,2.727,0,0,0,58.1-6.144a1.656,1.656,0,0,0-1.488.728,3.356,3.356,0,0,0-.48,1.88,3.027,3.027,0,0,0,.512,1.872,1.774,1.774,0,0,0,1.5.672q1.488,0,1.776-1.728Zm6.5.464A2.215,2.215,0,0,1,65.2.16a2.361,2.361,0,0,1-1.72-.6,2.226,2.226,0,0,1-.616-1.672V-6.08h-1.1V-7.152h1.1V-9.408h1.392v2.256h2.736V-6.08H64.256v3.76q0,1.28,1.1,1.28a1.271,1.271,0,0,0,.7-.232,1.581,1.581,0,0,0,.5-1.08Zm1.616-6.816V-10.48h1.456v1.648ZM71.872,0H68.144V-1.088h1.168v-4.96H68.1v-1.1H70.72v6.064h1.152Zm8.064-3.568A3.684,3.684,0,0,1,78.92-.88,3.577,3.577,0,0,1,76.24.16,3.384,3.384,0,0,1,73.656-.848,3.71,3.71,0,0,1,72.7-3.5a4.122,4.122,0,0,1,.912-2.688,3.3,3.3,0,0,1,2.72-1.12A3.265,3.265,0,0,1,79.04-6.2,4.067,4.067,0,0,1,79.936-3.568Zm-1.472-.048a2.8,2.8,0,0,0-.584-1.872A1.961,1.961,0,0,0,76.3-6.176a1.877,1.877,0,0,0-1.592.728,3,3,0,0,0-.552,1.864A3.124,3.124,0,0,0,74.7-1.736a1.821,1.821,0,0,0,1.592.76A1.9,1.9,0,0,0,77.9-1.72,3.036,3.036,0,0,0,78.464-3.616ZM89.552,0H85.84V-1.088h1.152V-4.176a2.277,2.277,0,0,0-.416-1.544,1.422,1.422,0,0,0-1.1-.456,1.813,1.813,0,0,0-1.424.592,2.142,2.142,0,0,0-.56,1.376v3.12H84.64V0H80.928V-1.088H82.08v-4.96h-1.2v-1.1h2.608v1.216A2.571,2.571,0,0,1,85.92-7.3a2.555,2.555,0,0,1,1.76.64,2.544,2.544,0,0,1,.72,2v3.568h1.152Z" transform="translate(48 396)"/>
    <path id="Path_451" data-name="Path 451" class="cls-7" d="M-9.68,0h-7.984V-1.68l2.864-2.9q.864-.9,1.392-1.5A5.168,5.168,0,0,0-12.64-7.16a2.343,2.343,0,0,0,.24-1.048,1.3,1.3,0,0,0-.376-1.024,1.469,1.469,0,0,0-1.016-.336,2.892,2.892,0,0,0-1.28.3,6.9,6.9,0,0,0-1.312.864L-17.7-9.952a10.649,10.649,0,0,1,1.04-.792,5.043,5.043,0,0,1,1.288-.608,5.811,5.811,0,0,1,1.752-.232,4.232,4.232,0,0,1,1.928.408,3.076,3.076,0,0,1,1.248,1.1A2.887,2.887,0,0,1-10-8.5a3.944,3.944,0,0,1-.376,1.728,6.339,6.339,0,0,1-1.088,1.552q-.712.768-1.72,1.7l-1.472,1.376v.112H-9.68Zm2.3,0,4.288-9.392H-8.72v-2.032H-.528V-9.9L-4.848,0Z" transform="translate(268 289)"/>
    <path id="Path_452" data-name="Path 452" class="cls-7" d="M-9.68,0h-7.984V-1.68l2.864-2.9q.864-.9,1.392-1.5A5.168,5.168,0,0,0-12.64-7.16a2.343,2.343,0,0,0,.24-1.048,1.3,1.3,0,0,0-.376-1.024,1.469,1.469,0,0,0-1.016-.336,2.892,2.892,0,0,0-1.28.3,6.9,6.9,0,0,0-1.312.864L-17.7-9.952a10.649,10.649,0,0,1,1.04-.792,5.043,5.043,0,0,1,1.288-.608,5.811,5.811,0,0,1,1.752-.232,4.232,4.232,0,0,1,1.928.408,3.076,3.076,0,0,1,1.248,1.1A2.887,2.887,0,0,1-10-8.5a3.944,3.944,0,0,1-.376,1.728,6.339,6.339,0,0,1-1.088,1.552q-.712.768-1.72,1.7l-1.472,1.376v.112H-9.68Zm5.328-7.3A4.163,4.163,0,0,1-2.5-6.9,3.064,3.064,0,0,1-1.208-5.728a3.575,3.575,0,0,1,.472,1.9A3.779,3.779,0,0,1-1.888-.9,4.861,4.861,0,0,1-5.3.16,8.516,8.516,0,0,1-6.984,0,5.336,5.336,0,0,1-8.368-.464v-2.08a6.957,6.957,0,0,0,1.424.52,6.251,6.251,0,0,0,1.568.216,2.635,2.635,0,0,0,1.64-.44,1.622,1.622,0,0,0,.568-1.368q0-1.728-2.288-1.728a5.145,5.145,0,0,0-.928.088q-.48.088-.8.168l-.96-.512.432-5.824H-1.52v2.048H-5.6l-.208,2.24.584-.1A5.224,5.224,0,0,1-4.352-7.3Z" transform="translate(317 289)"/>
    <path id="Path_453" data-name="Path 453" class="cls-6" d="M8.816,0H5.2V-.912H6.448V-4.224a2.255,2.255,0,0,0-.472-1.624A1.636,1.636,0,0,0,4.768-6.32a1.965,1.965,0,0,0-1.512.632A2.173,2.173,0,0,0,2.64-4.272v3.36H3.872V0H.272V-.912H1.5V-10.1H.272v-.912H2.64V-5.84a2.645,2.645,0,0,1,2.5-1.424,2.5,2.5,0,0,1,1.744.64,2.668,2.668,0,0,1,.7,2.064V-.912H8.816ZM13.5-7.248a1.859,1.859,0,0,1,1.216.368l.272,1.792-.912.112-.272-1.216a1.625,1.625,0,0,0-.544-.1,1.281,1.281,0,0,0-1.04.52,2.1,2.1,0,0,0-.416,1.352v3.5h1.648V0H9.44V-.912h1.248v-5.3H9.408V-7.12h2.336v1.28a2.313,2.313,0,0,1,.68-1A1.6,1.6,0,0,1,13.5-7.248Zm8.56,5.184a1.869,1.869,0,0,1-.872,1.632A3.743,3.743,0,0,1,19.04.16a5.74,5.74,0,0,1-1.5-.2,4.2,4.2,0,0,1-1.208-.5L16.56-2.16l.9.1-.048.944a3.624,3.624,0,0,0,1.584.352,2.915,2.915,0,0,0,1.336-.3.96.96,0,0,0,.584-.9.864.864,0,0,0-.448-.832,3.638,3.638,0,0,0-1.112-.352q-.664-.112-1.336-.272a2.573,2.573,0,0,1-1.12-.552A1.543,1.543,0,0,1,16.448-5.2a1.678,1.678,0,0,1,.832-1.6,3.651,3.651,0,0,1,1.808-.464,4.849,4.849,0,0,1,1.384.192,4.67,4.67,0,0,1,1.1.464l.176,1.664-.928.112L20.64-5.984a3.091,3.091,0,0,0-1.456-.352,2.141,2.141,0,0,0-1.1.256.864.864,0,0,0-.432.8.819.819,0,0,0,.448.792,3.643,3.643,0,0,0,1.1.336q.656.1,1.312.264a2.479,2.479,0,0,1,1.1.568A1.618,1.618,0,0,1,22.064-2.064Z" transform="translate(268 288)"/>
    <path id="Path_454" data-name="Path 454" class="cls-6" d="M13.664,0H10.256V-.912H11.3V-4.224a2.309,2.309,0,0,0-.456-1.624A1.544,1.544,0,0,0,9.68-6.32a1.74,1.74,0,0,0-1.5.736,2.547,2.547,0,0,0-.544,1.408V-.912H8.864V0H5.472V-.912H6.5V-4.224a2.334,2.334,0,0,0-.448-1.632A1.512,1.512,0,0,0,4.912-6.32,1.756,1.756,0,0,0,3.4-5.608a2.588,2.588,0,0,0-.552,1.4v3.3H4.16V0H.48V-.912H1.728v-5.3H.464V-7.12H2.848v1.328a3.1,3.1,0,0,1,.944-1.056,2.441,2.441,0,0,1,1.44-.416,2.525,2.525,0,0,1,1.448.416,2.118,2.118,0,0,1,.84,1.3,2.985,2.985,0,0,1,.952-1.232,2.5,2.5,0,0,1,1.56-.48,2.389,2.389,0,0,1,1.7.64,2.725,2.725,0,0,1,.68,2.064V-.912h1.248Zm1.824-8.96v-1.456H16.7V-8.96ZM17.968,0H14.352V-.912H15.6v-5.3H14.32V-7.12h2.4V-.912h1.248Zm9.344,0h-3.6V-.912h1.232V-4.224a2.282,2.282,0,0,0-.464-1.624A1.589,1.589,0,0,0,23.3-6.32a2,2,0,0,0-1.544.632,2.207,2.207,0,0,0-.616,1.448V-.912h1.248V0H18.768V-.912h1.248v-5.3h-1.28V-7.12h2.4v1.264a2.629,2.629,0,0,1,2.5-1.408,2.5,2.5,0,0,1,1.744.64,2.668,2.668,0,0,1,.7,2.064V-.912h1.232Z" transform="translate(317 288)"/>
    <path id="Path_455" data-name="Path 455" class="cls-7" d="M-9.744-5.712a11.1,11.1,0,0,1-.392,3.152A3.936,3.936,0,0,1-11.408-.544a3.63,3.63,0,0,1-2.336.7,3.3,3.3,0,0,1-3.024-1.552,8.208,8.208,0,0,1-.96-4.32,11.407,11.407,0,0,1,.384-3.16A3.894,3.894,0,0,1-16.08-10.9a3.63,3.63,0,0,1,2.336-.7,3.319,3.319,0,0,1,3.024,1.552A8.135,8.135,0,0,1-9.744-5.712Zm-5.584,0a9.655,9.655,0,0,0,.336,2.936,1.257,1.257,0,0,0,1.248.984A1.272,1.272,0,0,0-12.5-2.768a9.23,9.23,0,0,0,.352-2.944A9.32,9.32,0,0,0-12.5-8.656a1.276,1.276,0,0,0-1.248-.992,1.259,1.259,0,0,0-1.248.992A9.738,9.738,0,0,0-15.328-5.712ZM-.528,0H-8.512V-1.68l2.864-2.9q.864-.9,1.392-1.5A5.168,5.168,0,0,0-3.488-7.16a2.343,2.343,0,0,0,.24-1.048,1.3,1.3,0,0,0-.376-1.024A1.469,1.469,0,0,0-4.64-9.568a2.892,2.892,0,0,0-1.28.3A6.9,6.9,0,0,0-7.232-8.4L-8.544-9.952a10.649,10.649,0,0,1,1.04-.792,5.043,5.043,0,0,1,1.288-.608,5.811,5.811,0,0,1,1.752-.232,4.232,4.232,0,0,1,1.928.408,3.076,3.076,0,0,1,1.248,1.1A2.887,2.887,0,0,1-.848-8.5a3.944,3.944,0,0,1-.376,1.728A6.339,6.339,0,0,1-2.312-5.216q-.712.768-1.72,1.7L-5.5-2.144v.112H-.528Z" transform="translate(268 397)"/>
    <path id="Path_456" data-name="Path 456" class="cls-7" d="M-10.128-8.864a2.535,2.535,0,0,1-.712,1.888,3.693,3.693,0,0,1-1.752.96v.048a3.659,3.659,0,0,1,2.08.848,2.334,2.334,0,0,1,.72,1.792,3.332,3.332,0,0,1-.488,1.784A3.273,3.273,0,0,1-11.784-.3,6.43,6.43,0,0,1-14.4.16a8.22,8.22,0,0,1-3.3-.624V-2.512a7.16,7.16,0,0,0,1.536.56,6.459,6.459,0,0,0,1.5.192,2.816,2.816,0,0,0,1.816-.448,1.578,1.578,0,0,0,.52-1.264,1.34,1.34,0,0,0-.24-.8,1.481,1.481,0,0,0-.84-.5,6.5,6.5,0,0,0-1.672-.168h-.864V-6.8h.88A4.962,4.962,0,0,0-13.448-7a1.359,1.359,0,0,0,.752-.544,1.547,1.547,0,0,0,.2-.792,1.226,1.226,0,0,0-.376-.952,1.843,1.843,0,0,0-1.256-.344,3.294,3.294,0,0,0-1.424.288A9.228,9.228,0,0,0-16.56-8.8l-1.12-1.664a6.328,6.328,0,0,1,1.576-.8,6.464,6.464,0,0,1,2.152-.32,4.843,4.843,0,0,1,2.792.712A2.3,2.3,0,0,1-10.128-8.864ZM-.592-5.712A11.1,11.1,0,0,1-.984-2.56,3.936,3.936,0,0,1-2.256-.544a3.63,3.63,0,0,1-2.336.7A3.3,3.3,0,0,1-7.616-1.392a8.208,8.208,0,0,1-.96-4.32,11.407,11.407,0,0,1,.384-3.16A3.894,3.894,0,0,1-6.928-10.9a3.63,3.63,0,0,1,2.336-.7,3.319,3.319,0,0,1,3.024,1.552A8.135,8.135,0,0,1-.592-5.712Zm-5.584,0A9.655,9.655,0,0,0-5.84-2.776a1.257,1.257,0,0,0,1.248.984,1.272,1.272,0,0,0,1.248-.976,9.23,9.23,0,0,0,.352-2.944,9.32,9.32,0,0,0-.352-2.944,1.276,1.276,0,0,0-1.248-.992,1.259,1.259,0,0,0-1.248.992A9.738,9.738,0,0,0-6.176-5.712Z" transform="translate(317 397)"/>
    <path id="Path_457" data-name="Path 457" class="cls-6" d="M8.816,0H5.2V-.912H6.448V-4.224a2.255,2.255,0,0,0-.472-1.624A1.636,1.636,0,0,0,4.768-6.32a1.965,1.965,0,0,0-1.512.632A2.173,2.173,0,0,0,2.64-4.272v3.36H3.872V0H.272V-.912H1.5V-10.1H.272v-.912H2.64V-5.84a2.645,2.645,0,0,1,2.5-1.424,2.5,2.5,0,0,1,1.744.64,2.668,2.668,0,0,1,.7,2.064V-.912H8.816ZM13.5-7.248a1.859,1.859,0,0,1,1.216.368l.272,1.792-.912.112-.272-1.216a1.625,1.625,0,0,0-.544-.1,1.281,1.281,0,0,0-1.04.52,2.1,2.1,0,0,0-.416,1.352v3.5h1.648V0H9.44V-.912h1.248v-5.3H9.408V-7.12h2.336v1.28a2.313,2.313,0,0,1,.68-1A1.6,1.6,0,0,1,13.5-7.248Zm8.56,5.184a1.869,1.869,0,0,1-.872,1.632A3.743,3.743,0,0,1,19.04.16a5.74,5.74,0,0,1-1.5-.2,4.2,4.2,0,0,1-1.208-.5L16.56-2.16l.9.1-.048.944a3.624,3.624,0,0,0,1.584.352,2.915,2.915,0,0,0,1.336-.3.96.96,0,0,0,.584-.9.864.864,0,0,0-.448-.832,3.638,3.638,0,0,0-1.112-.352q-.664-.112-1.336-.272a2.573,2.573,0,0,1-1.12-.552A1.543,1.543,0,0,1,16.448-5.2a1.678,1.678,0,0,1,.832-1.6,3.651,3.651,0,0,1,1.808-.464,4.849,4.849,0,0,1,1.384.192,4.67,4.67,0,0,1,1.1.464l.176,1.664-.928.112L20.64-5.984a3.091,3.091,0,0,0-1.456-.352,2.141,2.141,0,0,0-1.1.256.864.864,0,0,0-.432.8.819.819,0,0,0,.448.792,3.643,3.643,0,0,0,1.1.336q.656.1,1.312.264a2.479,2.479,0,0,1,1.1.568A1.618,1.618,0,0,1,22.064-2.064Z" transform="translate(268 396)"/>
    <path id="Path_458" data-name="Path 458" class="cls-6" d="M13.664,0H10.256V-.912H11.3V-4.224a2.309,2.309,0,0,0-.456-1.624A1.544,1.544,0,0,0,9.68-6.32a1.74,1.74,0,0,0-1.5.736,2.547,2.547,0,0,0-.544,1.408V-.912H8.864V0H5.472V-.912H6.5V-4.224a2.334,2.334,0,0,0-.448-1.632A1.512,1.512,0,0,0,4.912-6.32,1.756,1.756,0,0,0,3.4-5.608a2.588,2.588,0,0,0-.552,1.4v3.3H4.16V0H.48V-.912H1.728v-5.3H.464V-7.12H2.848v1.328a3.1,3.1,0,0,1,.944-1.056,2.441,2.441,0,0,1,1.44-.416,2.525,2.525,0,0,1,1.448.416,2.118,2.118,0,0,1,.84,1.3,2.985,2.985,0,0,1,.952-1.232,2.5,2.5,0,0,1,1.56-.48,2.389,2.389,0,0,1,1.7.64,2.725,2.725,0,0,1,.68,2.064V-.912h1.248Zm1.824-8.96v-1.456H16.7V-8.96ZM17.968,0H14.352V-.912H15.6v-5.3H14.32V-7.12h2.4V-.912h1.248Zm9.344,0h-3.6V-.912h1.232V-4.224a2.282,2.282,0,0,0-.464-1.624A1.589,1.589,0,0,0,23.3-6.32a2,2,0,0,0-1.544.632,2.207,2.207,0,0,0-.616,1.448V-.912h1.248V0H18.768V-.912h1.248v-5.3h-1.28V-7.12h2.4v1.264a2.629,2.629,0,0,1,2.5-1.408,2.5,2.5,0,0,1,1.744.64,2.668,2.668,0,0,1,.7,2.064V-.912h1.232Z" transform="translate(317 396)"/>
    <path id="Path_459" data-name="Path 459" class="cls-2" d="M2,0H326a2,2,0,0,1,2,2V49a2,2,0,0,1-2,2H2a2,2,0,0,1-2-2V2A2,2,0,0,1,2,0Z" transform="translate(32 416)"/>
    <path id="Path_460" data-name="Path 460" class="cls-6" d="M5.936,0H.8V-1.264H2.688V-7.072H.8V-8.336H4.144v7.072H5.936Zm7.056,2.1H11.536V-.512H6.7l-.16-1.232,3.568-6.592h2.88v6.592H14.64L14.5-.512h-1.5Zm-1.456-3.84V-7.088h-.72L7.936-1.744ZM15.84,0V-1.984h1.824V0ZM27.024-4.112A4.437,4.437,0,0,1,25.976-.96,3.824,3.824,0,0,1,23.04.16,3.67,3.67,0,0,1,20.152-.96a4.522,4.522,0,0,1-1-3.12A4.881,4.881,0,0,1,20.16-7.248,3.562,3.562,0,0,1,23.1-8.5a3.475,3.475,0,0,1,2.968,1.264A5.037,5.037,0,0,1,27.024-4.112Zm-1.552-.08q0-3.024-2.368-3.024-2.384,0-2.384,3.04,0,3.056,2.368,3.056a2.186,2.186,0,0,0,1.752-.736A3.545,3.545,0,0,0,25.472-4.192Zm3.312-3.536a6.532,6.532,0,0,1,1.344-.544,5.356,5.356,0,0,1,1.5-.224,3.526,3.526,0,0,1,2.176.648,2.24,2.24,0,0,1,.864,1.912A2.527,2.527,0,0,1,34.24-4.5a2.843,2.843,0,0,1-1.52,1.016v.064a2.694,2.694,0,0,1,1.856.952,2.783,2.783,0,0,1,.512,1.64,2.784,2.784,0,0,1-.984,2.28,3.917,3.917,0,0,1-2.568.808,3.484,3.484,0,0,1-2.344-.688,2.722,2.722,0,0,1-.936-1.744L29.408-.56a2.583,2.583,0,0,0,.64,1.088,1.947,1.947,0,0,0,1.456.48A1.837,1.837,0,0,0,33.112.4a2.3,2.3,0,0,0,.424-1.344,1.57,1.57,0,0,0-.664-1.376,4.193,4.193,0,0,0-2.2-.512V-3.856a2.515,2.515,0,0,0,1.968-.672,1.992,1.992,0,0,0,.48-1.2q0-1.52-1.728-1.52a3.721,3.721,0,0,0-.744.088,2.9,2.9,0,0,0-.76.264l-.256,1.264L28.48-5.76ZM36.544,0V-1.984h1.824V0Zm3.824-7.824a6.35,6.35,0,0,1,1.488-.5A7.2,7.2,0,0,1,43.328-8.5,2.984,2.984,0,0,1,45.68-7.7a2.519,2.519,0,0,1,.688,1.672,2.886,2.886,0,0,1-.784,1.968A8.85,8.85,0,0,1,43.7-2.488q-1.1.7-2.024,1.224h3.952l.128-1.168,1.184.1L46.752,0h-6.72L39.9-1.136q2.16-1.44,3.536-2.5a2.9,2.9,0,0,0,1.376-2.2q0-1.408-1.76-1.408a4.078,4.078,0,0,0-.768.088,3.954,3.954,0,0,0-.816.248l-.256,1.184L40.08-5.856Zm15.7,3.712A4.437,4.437,0,0,1,55.016-.96,3.824,3.824,0,0,1,52.08.16,3.67,3.67,0,0,1,49.192-.96a4.522,4.522,0,0,1-1-3.12A4.881,4.881,0,0,1,49.2-7.248,3.562,3.562,0,0,1,52.144-8.5a3.475,3.475,0,0,1,2.968,1.264A5.037,5.037,0,0,1,56.064-4.112Zm-1.552-.08q0-3.024-2.368-3.024-2.384,0-2.384,3.04,0,3.056,2.368,3.056a2.186,2.186,0,0,0,1.752-.736A3.545,3.545,0,0,0,54.512-4.192ZM62.672,0H57.536V-1.264h1.888V-7.072H57.536V-8.336H60.88v7.072h1.792ZM63.68-5.008a3.708,3.708,0,0,1,.856-2.472A3.229,3.229,0,0,1,67.152-8.5a2.989,2.989,0,0,1,2.864,1.44,7.448,7.448,0,0,1,.8,3.648A8.421,8.421,0,0,1,69.944.576,3.167,3.167,0,0,1,66.88,2.224,3.617,3.617,0,0,1,63.872.816l.848-.864A2.674,2.674,0,0,0,66.928.976,1.825,1.825,0,0,0,68.736-.056a7.629,7.629,0,0,0,.544-3.016v-.352a2.884,2.884,0,0,1-.88,1.112,2.791,2.791,0,0,1-1.792.5,2.547,2.547,0,0,1-2.264-.968A3.85,3.85,0,0,1,63.68-5.008Zm1.488-.064a2.384,2.384,0,0,0,.424,1.512,1.722,1.722,0,0,0,1.432.536,1.912,1.912,0,0,0,1.64-.656,2.669,2.669,0,0,0,.552-1.36,3.032,3.032,0,0,0-.576-1.576A1.827,1.827,0,0,0,67.12-7.2a1.8,1.8,0,0,0-1.5.568A2.456,2.456,0,0,0,65.168-5.072ZM72.32,0V-1.984h1.824V0Z" transform="translate(48 447)"/>
    <path id="Path_461" data-name="Path 461" class="cls-7" d="M5.936,0H.8V-1.264H2.688V-7.072H.8V-8.336H4.144v7.072H5.936ZM13.9-1.056a3.054,3.054,0,0,1-.976,2.472,3.884,3.884,0,0,1-2.592.824,3.524,3.524,0,0,1-2.328-.68A2.731,2.731,0,0,1,7.04-.176L8.208-.56A2.18,2.18,0,0,0,8.864.552a1.981,1.981,0,0,0,1.392.456A2,2,0,0,0,11.84.44a2.145,2.145,0,0,0,.5-1.464,1.662,1.662,0,0,0-.912-1.736A5.555,5.555,0,0,0,9.3-3.136q-.32,0-.68.016t-.7.048l-.48-.464v-4.8h5.968l.176,2.416-1.216.112-.192-1.28H8.784v2.752q.176-.016.368-.016H9.52a8.52,8.52,0,0,1,2.12.256,3.175,3.175,0,0,1,1.632.968A3.028,3.028,0,0,1,13.9-1.056Zm1.6-4.112V-7.152h1.7v1.984ZM15.5,0V-1.984h1.7V0ZM19.28-7.728a6.532,6.532,0,0,1,1.344-.544,5.356,5.356,0,0,1,1.5-.224,3.526,3.526,0,0,1,2.176.648,2.24,2.24,0,0,1,.864,1.912A2.527,2.527,0,0,1,24.736-4.5a2.843,2.843,0,0,1-1.52,1.016v.064a2.694,2.694,0,0,1,1.856.952,2.783,2.783,0,0,1,.512,1.64,2.784,2.784,0,0,1-.984,2.28,3.917,3.917,0,0,1-2.568.808,3.484,3.484,0,0,1-2.344-.688,2.722,2.722,0,0,1-.936-1.744L19.9-.56a2.583,2.583,0,0,0,.64,1.088A1.947,1.947,0,0,0,22,1.008,1.837,1.837,0,0,0,23.608.4a2.3,2.3,0,0,0,.424-1.344,1.57,1.57,0,0,0-.664-1.376,4.193,4.193,0,0,0-2.2-.512V-3.856a2.515,2.515,0,0,0,1.968-.672,1.992,1.992,0,0,0,.48-1.2q0-1.52-1.728-1.52a3.721,3.721,0,0,0-.744.088,2.9,2.9,0,0,0-.76.264l-.256,1.264L18.976-5.76ZM34.768-4.112A4.437,4.437,0,0,1,33.72-.96,3.824,3.824,0,0,1,30.784.16,3.67,3.67,0,0,1,27.9-.96a4.522,4.522,0,0,1-1-3.12A4.881,4.881,0,0,1,27.9-7.248,3.562,3.562,0,0,1,30.848-8.5a3.475,3.475,0,0,1,2.968,1.264A5.037,5.037,0,0,1,34.768-4.112Zm-1.552-.08q0-3.024-2.368-3.024-2.384,0-2.384,3.04,0,3.056,2.368,3.056a2.186,2.186,0,0,0,1.752-.736A3.545,3.545,0,0,0,33.216-4.192ZM36.288-4.3h3.744v1.2H36.288ZM46.592,0H41.456V-1.264h1.888V-7.072H41.456V-8.336H44.8v7.072h1.792Zm7.056,2.1H52.192V-.512H47.36L47.2-1.744l3.568-6.592h2.88v6.592H55.3L55.152-.512h-1.5Zm-1.456-3.84V-7.088h-.72l-2.88,5.344Zm4.5-3.424V-7.152h1.7v1.984Zm0,5.168V-1.984h1.7V0ZM67.92-4.112A4.437,4.437,0,0,1,66.872-.96,3.824,3.824,0,0,1,63.936.16,3.67,3.67,0,0,1,61.048-.96a4.522,4.522,0,0,1-1-3.12,4.881,4.881,0,0,1,1.008-3.168A3.562,3.562,0,0,1,64-8.5a3.475,3.475,0,0,1,2.968,1.264A5.037,5.037,0,0,1,67.92-4.112Zm-1.552-.08q0-3.024-2.368-3.024-2.384,0-2.384,3.04,0,3.056,2.368,3.056a2.186,2.186,0,0,0,1.752-.736A3.545,3.545,0,0,0,66.368-4.192Zm10.768.08A4.437,4.437,0,0,1,76.088-.96,3.824,3.824,0,0,1,73.152.16,3.67,3.67,0,0,1,70.264-.96a4.522,4.522,0,0,1-1-3.12,4.881,4.881,0,0,1,1.008-3.168A3.562,3.562,0,0,1,73.216-8.5a3.475,3.475,0,0,1,2.968,1.264A5.037,5.037,0,0,1,77.136-4.112Zm-1.552-.08q0-3.024-2.368-3.024-2.384,0-2.384,3.04,0,3.056,2.368,3.056a2.186,2.186,0,0,0,1.752-.736A3.545,3.545,0,0,0,75.584-4.192Z" transform="translate(133 447)"/>
    <path id="Path_462" data-name="Path 462" class="cls-7" d="M-.592-5.712A11.1,11.1,0,0,1-.984-2.56,3.936,3.936,0,0,1-2.256-.544a3.63,3.63,0,0,1-2.336.7A3.3,3.3,0,0,1-7.616-1.392a8.208,8.208,0,0,1-.96-4.32,11.407,11.407,0,0,1,.384-3.16A3.894,3.894,0,0,1-6.928-10.9a3.63,3.63,0,0,1,2.336-.7,3.319,3.319,0,0,1,3.024,1.552A8.135,8.135,0,0,1-.592-5.712Zm-5.584,0A9.655,9.655,0,0,0-5.84-2.776a1.257,1.257,0,0,0,1.248.984,1.272,1.272,0,0,0,1.248-.976,9.23,9.23,0,0,0,.352-2.944,9.32,9.32,0,0,0-.352-2.944,1.276,1.276,0,0,0-1.248-.992,1.259,1.259,0,0,0-1.248.992A9.738,9.738,0,0,0-6.176-5.712Z" transform="translate(268 448)"/>
    <path id="Path_463" data-name="Path 463" class="cls-7" d="M-10.128-8.864a2.535,2.535,0,0,1-.712,1.888,3.693,3.693,0,0,1-1.752.96v.048a3.659,3.659,0,0,1,2.08.848,2.334,2.334,0,0,1,.72,1.792,3.332,3.332,0,0,1-.488,1.784A3.273,3.273,0,0,1-11.784-.3,6.43,6.43,0,0,1-14.4.16a8.22,8.22,0,0,1-3.3-.624V-2.512a7.16,7.16,0,0,0,1.536.56,6.459,6.459,0,0,0,1.5.192,2.816,2.816,0,0,0,1.816-.448,1.578,1.578,0,0,0,.52-1.264,1.34,1.34,0,0,0-.24-.8,1.481,1.481,0,0,0-.84-.5,6.5,6.5,0,0,0-1.672-.168h-.864V-6.8h.88A4.962,4.962,0,0,0-13.448-7a1.359,1.359,0,0,0,.752-.544,1.547,1.547,0,0,0,.2-.792,1.226,1.226,0,0,0-.376-.952,1.843,1.843,0,0,0-1.256-.344,3.294,3.294,0,0,0-1.424.288A9.228,9.228,0,0,0-16.56-8.8l-1.12-1.664a6.328,6.328,0,0,1,1.576-.8,6.464,6.464,0,0,1,2.152-.32,4.843,4.843,0,0,1,2.792.712A2.3,2.3,0,0,1-10.128-8.864ZM-.592-5.712A11.1,11.1,0,0,1-.984-2.56,3.936,3.936,0,0,1-2.256-.544a3.63,3.63,0,0,1-2.336.7A3.3,3.3,0,0,1-7.616-1.392a8.208,8.208,0,0,1-.96-4.32,11.407,11.407,0,0,1,.384-3.16A3.894,3.894,0,0,1-6.928-10.9a3.63,3.63,0,0,1,2.336-.7,3.319,3.319,0,0,1,3.024,1.552A8.135,8.135,0,0,1-.592-5.712Zm-5.584,0A9.655,9.655,0,0,0-5.84-2.776a1.257,1.257,0,0,0,1.248.984,1.272,1.272,0,0,0,1.248-.976,9.23,9.23,0,0,0,.352-2.944,9.32,9.32,0,0,0-.352-2.944,1.276,1.276,0,0,0-1.248-.992,1.259,1.259,0,0,0-1.248.992A9.738,9.738,0,0,0-6.176-5.712Z" transform="translate(317 448)"/>
    <path id="Path_464" data-name="Path 464" class="cls-6" d="M8.816,0H5.2V-.912H6.448V-4.224a2.255,2.255,0,0,0-.472-1.624A1.636,1.636,0,0,0,4.768-6.32a1.965,1.965,0,0,0-1.512.632A2.173,2.173,0,0,0,2.64-4.272v3.36H3.872V0H.272V-.912H1.5V-10.1H.272v-.912H2.64V-5.84a2.645,2.645,0,0,1,2.5-1.424,2.5,2.5,0,0,1,1.744.64,2.668,2.668,0,0,1,.7,2.064V-.912H8.816ZM13.5-7.248a1.859,1.859,0,0,1,1.216.368l.272,1.792-.912.112-.272-1.216a1.625,1.625,0,0,0-.544-.1,1.281,1.281,0,0,0-1.04.52,2.1,2.1,0,0,0-.416,1.352v3.5h1.648V0H9.44V-.912h1.248v-5.3H9.408V-7.12h2.336v1.28a2.313,2.313,0,0,1,.68-1A1.6,1.6,0,0,1,13.5-7.248Zm8.56,5.184a1.869,1.869,0,0,1-.872,1.632A3.743,3.743,0,0,1,19.04.16a5.74,5.74,0,0,1-1.5-.2,4.2,4.2,0,0,1-1.208-.5L16.56-2.16l.9.1-.048.944a3.624,3.624,0,0,0,1.584.352,2.915,2.915,0,0,0,1.336-.3.96.96,0,0,0,.584-.9.864.864,0,0,0-.448-.832,3.638,3.638,0,0,0-1.112-.352q-.664-.112-1.336-.272a2.573,2.573,0,0,1-1.12-.552A1.543,1.543,0,0,1,16.448-5.2a1.678,1.678,0,0,1,.832-1.6,3.651,3.651,0,0,1,1.808-.464,4.849,4.849,0,0,1,1.384.192,4.67,4.67,0,0,1,1.1.464l.176,1.664-.928.112L20.64-5.984a3.091,3.091,0,0,0-1.456-.352,2.141,2.141,0,0,0-1.1.256.864.864,0,0,0-.432.8.819.819,0,0,0,.448.792,3.643,3.643,0,0,0,1.1.336q.656.1,1.312.264a2.479,2.479,0,0,1,1.1.568A1.618,1.618,0,0,1,22.064-2.064Z" transform="translate(268 447)"/>
    <path id="Path_465" data-name="Path 465" class="cls-6" d="M13.664,0H10.256V-.912H11.3V-4.224a2.309,2.309,0,0,0-.456-1.624A1.544,1.544,0,0,0,9.68-6.32a1.74,1.74,0,0,0-1.5.736,2.547,2.547,0,0,0-.544,1.408V-.912H8.864V0H5.472V-.912H6.5V-4.224a2.334,2.334,0,0,0-.448-1.632A1.512,1.512,0,0,0,4.912-6.32,1.756,1.756,0,0,0,3.4-5.608a2.588,2.588,0,0,0-.552,1.4v3.3H4.16V0H.48V-.912H1.728v-5.3H.464V-7.12H2.848v1.328a3.1,3.1,0,0,1,.944-1.056,2.441,2.441,0,0,1,1.44-.416,2.525,2.525,0,0,1,1.448.416,2.118,2.118,0,0,1,.84,1.3,2.985,2.985,0,0,1,.952-1.232,2.5,2.5,0,0,1,1.56-.48,2.389,2.389,0,0,1,1.7.64,2.725,2.725,0,0,1,.68,2.064V-.912h1.248Zm1.824-8.96v-1.456H16.7V-8.96ZM17.968,0H14.352V-.912H15.6v-5.3H14.32V-7.12h2.4V-.912h1.248Zm9.344,0h-3.6V-.912h1.232V-4.224a2.282,2.282,0,0,0-.464-1.624A1.589,1.589,0,0,0,23.3-6.32a2,2,0,0,0-1.544.632,2.207,2.207,0,0,0-.616,1.448V-.912h1.248V0H18.768V-.912h1.248v-5.3h-1.28V-7.12h2.4v1.264a2.629,2.629,0,0,1,2.5-1.408,2.5,2.5,0,0,1,1.744.64,2.668,2.668,0,0,1,.7,2.064V-.912h1.232Z" transform="translate(317 447)"/>
    <path id="Path_466" data-name="Path 466" class="cls-2" d="M2,0H326a2,2,0,0,1,2,2V49a2,2,0,0,1-2,2H2a2,2,0,0,1-2-2V2A2,2,0,0,1,2,0Z" transform="translate(32 467)"/>
    <path id="Path_467" data-name="Path 467" class="cls-6" d="M5.936,0H.8V-1.264H2.688V-7.072H.8V-8.336H4.144v7.072H5.936Zm7.056,2.1H11.536V-.512H6.7l-.16-1.232,3.568-6.592h2.88v6.592H14.64L14.5-.512h-1.5Zm-1.456-3.84V-7.088h-.72L7.936-1.744ZM15.84,0V-1.984h1.824V0ZM27.024-4.112A4.437,4.437,0,0,1,25.976-.96,3.824,3.824,0,0,1,23.04.16,3.67,3.67,0,0,1,20.152-.96a4.522,4.522,0,0,1-1-3.12A4.881,4.881,0,0,1,20.16-7.248,3.562,3.562,0,0,1,23.1-8.5a3.475,3.475,0,0,1,2.968,1.264A5.037,5.037,0,0,1,27.024-4.112Zm-1.552-.08q0-3.024-2.368-3.024-2.384,0-2.384,3.04,0,3.056,2.368,3.056a2.186,2.186,0,0,0,1.752-.736A3.545,3.545,0,0,0,25.472-4.192Zm3.312-3.536a6.532,6.532,0,0,1,1.344-.544,5.356,5.356,0,0,1,1.5-.224,3.526,3.526,0,0,1,2.176.648,2.24,2.24,0,0,1,.864,1.912A2.527,2.527,0,0,1,34.24-4.5a2.843,2.843,0,0,1-1.52,1.016v.064a2.694,2.694,0,0,1,1.856.952,2.783,2.783,0,0,1,.512,1.64,2.784,2.784,0,0,1-.984,2.28,3.917,3.917,0,0,1-2.568.808,3.484,3.484,0,0,1-2.344-.688,2.722,2.722,0,0,1-.936-1.744L29.408-.56a2.583,2.583,0,0,0,.64,1.088,1.947,1.947,0,0,0,1.456.48A1.837,1.837,0,0,0,33.112.4a2.3,2.3,0,0,0,.424-1.344,1.57,1.57,0,0,0-.664-1.376,4.193,4.193,0,0,0-2.2-.512V-3.856a2.515,2.515,0,0,0,1.968-.672,1.992,1.992,0,0,0,.48-1.2q0-1.52-1.728-1.52a3.721,3.721,0,0,0-.744.088,2.9,2.9,0,0,0-.76.264l-.256,1.264L28.48-5.76ZM36.544,0V-1.984h1.824V0Zm3.824-7.824a6.35,6.35,0,0,1,1.488-.5A7.2,7.2,0,0,1,43.328-8.5,2.984,2.984,0,0,1,45.68-7.7a2.519,2.519,0,0,1,.688,1.672,2.886,2.886,0,0,1-.784,1.968A8.85,8.85,0,0,1,43.7-2.488q-1.1.7-2.024,1.224h3.952l.128-1.168,1.184.1L46.752,0h-6.72L39.9-1.136q2.16-1.44,3.536-2.5a2.9,2.9,0,0,0,1.376-2.2q0-1.408-1.76-1.408a4.078,4.078,0,0,0-.768.088,3.954,3.954,0,0,0-.816.248l-.256,1.184L40.08-5.856Zm15.7,3.712A4.437,4.437,0,0,1,55.016-.96,3.824,3.824,0,0,1,52.08.16,3.67,3.67,0,0,1,49.192-.96a4.522,4.522,0,0,1-1-3.12A4.881,4.881,0,0,1,49.2-7.248,3.562,3.562,0,0,1,52.144-8.5a3.475,3.475,0,0,1,2.968,1.264A5.037,5.037,0,0,1,56.064-4.112Zm-1.552-.08q0-3.024-2.368-3.024-2.384,0-2.384,3.04,0,3.056,2.368,3.056a2.186,2.186,0,0,0,1.752-.736A3.545,3.545,0,0,0,54.512-4.192ZM62.672,0H57.536V-1.264h1.888V-7.072H57.536V-8.336H60.88v7.072h1.792ZM63.68-5.008a3.708,3.708,0,0,1,.856-2.472A3.229,3.229,0,0,1,67.152-8.5a2.989,2.989,0,0,1,2.864,1.44,7.448,7.448,0,0,1,.8,3.648A8.421,8.421,0,0,1,69.944.576,3.167,3.167,0,0,1,66.88,2.224,3.617,3.617,0,0,1,63.872.816l.848-.864A2.674,2.674,0,0,0,66.928.976,1.825,1.825,0,0,0,68.736-.056a7.629,7.629,0,0,0,.544-3.016v-.352a2.884,2.884,0,0,1-.88,1.112,2.791,2.791,0,0,1-1.792.5,2.547,2.547,0,0,1-2.264-.968A3.85,3.85,0,0,1,63.68-5.008Zm1.488-.064a2.384,2.384,0,0,0,.424,1.512,1.722,1.722,0,0,0,1.432.536,1.912,1.912,0,0,0,1.64-.656,2.669,2.669,0,0,0,.552-1.36,3.032,3.032,0,0,0-.576-1.576A1.827,1.827,0,0,0,67.12-7.2a1.8,1.8,0,0,0-1.5.568A2.456,2.456,0,0,0,65.168-5.072ZM72.32,0V-1.984h1.824V0Z" transform="translate(48 498)"/>
    <path id="Path_468" data-name="Path 468" class="cls-7" d="M5.936,0H.8V-1.264H2.688V-7.072H.8V-8.336H4.144v7.072H5.936Zm1.5-7.824a6.35,6.35,0,0,1,1.488-.5A7.2,7.2,0,0,1,10.4-8.5a2.984,2.984,0,0,1,2.352.792,2.519,2.519,0,0,1,.688,1.672,2.886,2.886,0,0,1-.784,1.968,8.85,8.85,0,0,1-1.88,1.576q-1.1.7-2.024,1.224H12.7l.128-1.168,1.184.1L13.824,0H7.1L6.976-1.136q2.16-1.44,3.536-2.5a2.9,2.9,0,0,0,1.376-2.2q0-1.408-1.76-1.408a4.078,4.078,0,0,0-.768.088,3.954,3.954,0,0,0-.816.248L8.288-5.728,7.152-5.856ZM15.6-5.168V-7.152h1.7v1.984ZM15.6,0V-1.984h1.7V0Zm3.776-7.728a6.532,6.532,0,0,1,1.344-.544,5.356,5.356,0,0,1,1.5-.224,3.526,3.526,0,0,1,2.176.648,2.24,2.24,0,0,1,.864,1.912A2.527,2.527,0,0,1,24.832-4.5a2.843,2.843,0,0,1-1.52,1.016v.064a2.694,2.694,0,0,1,1.856.952,2.783,2.783,0,0,1,.512,1.64,2.784,2.784,0,0,1-.984,2.28,3.917,3.917,0,0,1-2.568.808,3.484,3.484,0,0,1-2.344-.688,2.722,2.722,0,0,1-.936-1.744L20-.56A2.583,2.583,0,0,0,20.64.528a1.947,1.947,0,0,0,1.456.48A1.837,1.837,0,0,0,23.7.4a2.3,2.3,0,0,0,.424-1.344,1.57,1.57,0,0,0-.664-1.376,4.193,4.193,0,0,0-2.2-.512V-3.856a2.515,2.515,0,0,0,1.968-.672,1.992,1.992,0,0,0,.48-1.2q0-1.52-1.728-1.52a3.721,3.721,0,0,0-.744.088,2.9,2.9,0,0,0-.76.264l-.256,1.264L19.072-5.76ZM34.864-4.112A4.437,4.437,0,0,1,33.816-.96,3.824,3.824,0,0,1,30.88.16,3.67,3.67,0,0,1,27.992-.96a4.522,4.522,0,0,1-1-3.12A4.881,4.881,0,0,1,28-7.248,3.562,3.562,0,0,1,30.944-8.5a3.475,3.475,0,0,1,2.968,1.264A5.037,5.037,0,0,1,34.864-4.112Zm-1.552-.08q0-3.024-2.368-3.024-2.384,0-2.384,3.04,0,3.056,2.368,3.056a2.186,2.186,0,0,0,1.752-.736A3.545,3.545,0,0,0,33.312-4.192ZM36.384-4.3h3.744v1.2H36.384ZM46.688,0H41.552V-1.264H43.44V-7.072H41.552V-8.336H44.9v7.072h1.792ZM48.1-7.728a6.532,6.532,0,0,1,1.344-.544,5.356,5.356,0,0,1,1.5-.224,3.526,3.526,0,0,1,2.176.648,2.24,2.24,0,0,1,.864,1.912A2.527,2.527,0,0,1,53.552-4.5a2.843,2.843,0,0,1-1.52,1.016v.064a2.694,2.694,0,0,1,1.856.952A2.783,2.783,0,0,1,54.4-.832a2.784,2.784,0,0,1-.984,2.28,3.917,3.917,0,0,1-2.568.808A3.484,3.484,0,0,1,48.5,1.568a2.722,2.722,0,0,1-.936-1.744L48.72-.56A2.583,2.583,0,0,0,49.36.528a1.947,1.947,0,0,0,1.456.48A1.837,1.837,0,0,0,52.424.4a2.3,2.3,0,0,0,.424-1.344,1.57,1.57,0,0,0-.664-1.376,4.193,4.193,0,0,0-2.2-.512V-3.856a2.515,2.515,0,0,0,1.968-.672,1.992,1.992,0,0,0,.48-1.2q0-1.52-1.728-1.52a3.721,3.721,0,0,0-.744.088,2.9,2.9,0,0,0-.76.264l-.256,1.264L47.792-5.76Zm7.952,2.56V-7.152h1.7v1.984Zm0,5.168V-1.984h1.7V0ZM67.28-4.112A4.437,4.437,0,0,1,66.232-.96,3.824,3.824,0,0,1,63.3.16,3.67,3.67,0,0,1,60.408-.96a4.522,4.522,0,0,1-1-3.12,4.881,4.881,0,0,1,1.008-3.168A3.562,3.562,0,0,1,63.36-8.5a3.475,3.475,0,0,1,2.968,1.264A5.037,5.037,0,0,1,67.28-4.112Zm-1.552-.08q0-3.024-2.368-3.024-2.384,0-2.384,3.04,0,3.056,2.368,3.056A2.186,2.186,0,0,0,65.1-1.856,3.545,3.545,0,0,0,65.728-4.192Zm10.768.08A4.437,4.437,0,0,1,75.448-.96,3.824,3.824,0,0,1,72.512.16,3.67,3.67,0,0,1,69.624-.96a4.522,4.522,0,0,1-1-3.12,4.881,4.881,0,0,1,1.008-3.168A3.562,3.562,0,0,1,72.576-8.5a3.475,3.475,0,0,1,2.968,1.264A5.037,5.037,0,0,1,76.5-4.112Zm-1.552-.08q0-3.024-2.368-3.024-2.384,0-2.384,3.04,0,3.056,2.368,3.056a2.186,2.186,0,0,0,1.752-.736A3.545,3.545,0,0,0,74.944-4.192Z" transform="translate(133 498)"/>
    <path id="Path_469" data-name="Path 469" class="cls-7" d="M-.592-5.712A11.1,11.1,0,0,1-.984-2.56,3.936,3.936,0,0,1-2.256-.544a3.63,3.63,0,0,1-2.336.7A3.3,3.3,0,0,1-7.616-1.392a8.208,8.208,0,0,1-.96-4.32,11.407,11.407,0,0,1,.384-3.16A3.894,3.894,0,0,1-6.928-10.9a3.63,3.63,0,0,1,2.336-.7,3.319,3.319,0,0,1,3.024,1.552A8.135,8.135,0,0,1-.592-5.712Zm-5.584,0A9.655,9.655,0,0,0-5.84-2.776a1.257,1.257,0,0,0,1.248.984,1.272,1.272,0,0,0,1.248-.976,9.23,9.23,0,0,0,.352-2.944,9.32,9.32,0,0,0-.352-2.944,1.276,1.276,0,0,0-1.248-.992,1.259,1.259,0,0,0-1.248.992A9.738,9.738,0,0,0-6.176-5.712Z" transform="translate(268 499)"/>
    <path id="Path_470" data-name="Path 470" class="cls-7" d="M-10.128-8.864a2.535,2.535,0,0,1-.712,1.888,3.693,3.693,0,0,1-1.752.96v.048a3.659,3.659,0,0,1,2.08.848,2.334,2.334,0,0,1,.72,1.792,3.332,3.332,0,0,1-.488,1.784A3.273,3.273,0,0,1-11.784-.3,6.43,6.43,0,0,1-14.4.16a8.22,8.22,0,0,1-3.3-.624V-2.512a7.16,7.16,0,0,0,1.536.56,6.459,6.459,0,0,0,1.5.192,2.816,2.816,0,0,0,1.816-.448,1.578,1.578,0,0,0,.52-1.264,1.34,1.34,0,0,0-.24-.8,1.481,1.481,0,0,0-.84-.5,6.5,6.5,0,0,0-1.672-.168h-.864V-6.8h.88A4.962,4.962,0,0,0-13.448-7a1.359,1.359,0,0,0,.752-.544,1.547,1.547,0,0,0,.2-.792,1.226,1.226,0,0,0-.376-.952,1.843,1.843,0,0,0-1.256-.344,3.294,3.294,0,0,0-1.424.288A9.228,9.228,0,0,0-16.56-8.8l-1.12-1.664a6.328,6.328,0,0,1,1.576-.8,6.464,6.464,0,0,1,2.152-.32,4.843,4.843,0,0,1,2.792.712A2.3,2.3,0,0,1-10.128-8.864ZM-.592-5.712A11.1,11.1,0,0,1-.984-2.56,3.936,3.936,0,0,1-2.256-.544a3.63,3.63,0,0,1-2.336.7A3.3,3.3,0,0,1-7.616-1.392a8.208,8.208,0,0,1-.96-4.32,11.407,11.407,0,0,1,.384-3.16A3.894,3.894,0,0,1-6.928-10.9a3.63,3.63,0,0,1,2.336-.7,3.319,3.319,0,0,1,3.024,1.552A8.135,8.135,0,0,1-.592-5.712Zm-5.584,0A9.655,9.655,0,0,0-5.84-2.776a1.257,1.257,0,0,0,1.248.984,1.272,1.272,0,0,0,1.248-.976,9.23,9.23,0,0,0,.352-2.944,9.32,9.32,0,0,0-.352-2.944,1.276,1.276,0,0,0-1.248-.992,1.259,1.259,0,0,0-1.248.992A9.738,9.738,0,0,0-6.176-5.712Z" transform="translate(317 499)"/>
    <path id="Path_471" data-name="Path 471" class="cls-6" d="M8.816,0H5.2V-.912H6.448V-4.224a2.255,2.255,0,0,0-.472-1.624A1.636,1.636,0,0,0,4.768-6.32a1.965,1.965,0,0,0-1.512.632A2.173,2.173,0,0,0,2.64-4.272v3.36H3.872V0H.272V-.912H1.5V-10.1H.272v-.912H2.64V-5.84a2.645,2.645,0,0,1,2.5-1.424,2.5,2.5,0,0,1,1.744.64,2.668,2.668,0,0,1,.7,2.064V-.912H8.816ZM13.5-7.248a1.859,1.859,0,0,1,1.216.368l.272,1.792-.912.112-.272-1.216a1.625,1.625,0,0,0-.544-.1,1.281,1.281,0,0,0-1.04.52,2.1,2.1,0,0,0-.416,1.352v3.5h1.648V0H9.44V-.912h1.248v-5.3H9.408V-7.12h2.336v1.28a2.313,2.313,0,0,1,.68-1A1.6,1.6,0,0,1,13.5-7.248Zm8.56,5.184a1.869,1.869,0,0,1-.872,1.632A3.743,3.743,0,0,1,19.04.16a5.74,5.74,0,0,1-1.5-.2,4.2,4.2,0,0,1-1.208-.5L16.56-2.16l.9.1-.048.944a3.624,3.624,0,0,0,1.584.352,2.915,2.915,0,0,0,1.336-.3.96.96,0,0,0,.584-.9.864.864,0,0,0-.448-.832,3.638,3.638,0,0,0-1.112-.352q-.664-.112-1.336-.272a2.573,2.573,0,0,1-1.12-.552A1.543,1.543,0,0,1,16.448-5.2a1.678,1.678,0,0,1,.832-1.6,3.651,3.651,0,0,1,1.808-.464,4.849,4.849,0,0,1,1.384.192,4.67,4.67,0,0,1,1.1.464l.176,1.664-.928.112L20.64-5.984a3.091,3.091,0,0,0-1.456-.352,2.141,2.141,0,0,0-1.1.256.864.864,0,0,0-.432.8.819.819,0,0,0,.448.792,3.643,3.643,0,0,0,1.1.336q.656.1,1.312.264a2.479,2.479,0,0,1,1.1.568A1.618,1.618,0,0,1,22.064-2.064Z" transform="translate(268 498)"/>
    <path id="Path_472" data-name="Path 472" class="cls-6" d="M13.664,0H10.256V-.912H11.3V-4.224a2.309,2.309,0,0,0-.456-1.624A1.544,1.544,0,0,0,9.68-6.32a1.74,1.74,0,0,0-1.5.736,2.547,2.547,0,0,0-.544,1.408V-.912H8.864V0H5.472V-.912H6.5V-4.224a2.334,2.334,0,0,0-.448-1.632A1.512,1.512,0,0,0,4.912-6.32,1.756,1.756,0,0,0,3.4-5.608a2.588,2.588,0,0,0-.552,1.4v3.3H4.16V0H.48V-.912H1.728v-5.3H.464V-7.12H2.848v1.328a3.1,3.1,0,0,1,.944-1.056,2.441,2.441,0,0,1,1.44-.416,2.525,2.525,0,0,1,1.448.416,2.118,2.118,0,0,1,.84,1.3,2.985,2.985,0,0,1,.952-1.232,2.5,2.5,0,0,1,1.56-.48,2.389,2.389,0,0,1,1.7.64,2.725,2.725,0,0,1,.68,2.064V-.912h1.248Zm1.824-8.96v-1.456H16.7V-8.96ZM17.968,0H14.352V-.912H15.6v-5.3H14.32V-7.12h2.4V-.912h1.248Zm9.344,0h-3.6V-.912h1.232V-4.224a2.282,2.282,0,0,0-.464-1.624A1.589,1.589,0,0,0,23.3-6.32a2,2,0,0,0-1.544.632,2.207,2.207,0,0,0-.616,1.448V-.912h1.248V0H18.768V-.912h1.248v-5.3h-1.28V-7.12h2.4v1.264a2.629,2.629,0,0,1,2.5-1.408,2.5,2.5,0,0,1,1.744.64,2.668,2.668,0,0,1,.7,2.064V-.912h1.232Z" transform="translate(317 498)"/>
    <path id="Path_473" data-name="Path 473" class="cls-2" d="M2,0H326a2,2,0,0,1,2,2V49a2,2,0,0,1-2,2H2a2,2,0,0,1-2-2V2A2,2,0,0,1,2,0Z" transform="translate(32 518)"/>
    <path id="Path_474" data-name="Path 474" class="cls-6" d="M5.936,0H.8V-1.264H2.688V-7.072H.8V-8.336H4.144v7.072H5.936Zm7.056,2.1H11.536V-.512H6.7l-.16-1.232,3.568-6.592h2.88v6.592H14.64L14.5-.512h-1.5Zm-1.456-3.84V-7.088h-.72L7.936-1.744ZM15.84,0V-1.984h1.824V0ZM27.024-4.112A4.437,4.437,0,0,1,25.976-.96,3.824,3.824,0,0,1,23.04.16,3.67,3.67,0,0,1,20.152-.96a4.522,4.522,0,0,1-1-3.12A4.881,4.881,0,0,1,20.16-7.248,3.562,3.562,0,0,1,23.1-8.5a3.475,3.475,0,0,1,2.968,1.264A5.037,5.037,0,0,1,27.024-4.112Zm-1.552-.08q0-3.024-2.368-3.024-2.384,0-2.384,3.04,0,3.056,2.368,3.056a2.186,2.186,0,0,0,1.752-.736A3.545,3.545,0,0,0,25.472-4.192Zm3.312-3.536a6.532,6.532,0,0,1,1.344-.544,5.356,5.356,0,0,1,1.5-.224,3.526,3.526,0,0,1,2.176.648,2.24,2.24,0,0,1,.864,1.912A2.527,2.527,0,0,1,34.24-4.5a2.843,2.843,0,0,1-1.52,1.016v.064a2.694,2.694,0,0,1,1.856.952,2.783,2.783,0,0,1,.512,1.64,2.784,2.784,0,0,1-.984,2.28,3.917,3.917,0,0,1-2.568.808,3.484,3.484,0,0,1-2.344-.688,2.722,2.722,0,0,1-.936-1.744L29.408-.56a2.583,2.583,0,0,0,.64,1.088,1.947,1.947,0,0,0,1.456.48A1.837,1.837,0,0,0,33.112.4a2.3,2.3,0,0,0,.424-1.344,1.57,1.57,0,0,0-.664-1.376,4.193,4.193,0,0,0-2.2-.512V-3.856a2.515,2.515,0,0,0,1.968-.672,1.992,1.992,0,0,0,.48-1.2q0-1.52-1.728-1.52a3.721,3.721,0,0,0-.744.088,2.9,2.9,0,0,0-.76.264l-.256,1.264L28.48-5.76ZM36.544,0V-1.984h1.824V0Zm3.824-7.824a6.35,6.35,0,0,1,1.488-.5A7.2,7.2,0,0,1,43.328-8.5,2.984,2.984,0,0,1,45.68-7.7a2.519,2.519,0,0,1,.688,1.672,2.886,2.886,0,0,1-.784,1.968A8.85,8.85,0,0,1,43.7-2.488q-1.1.7-2.024,1.224h3.952l.128-1.168,1.184.1L46.752,0h-6.72L39.9-1.136q2.16-1.44,3.536-2.5a2.9,2.9,0,0,0,1.376-2.2q0-1.408-1.76-1.408a4.078,4.078,0,0,0-.768.088,3.954,3.954,0,0,0-.816.248l-.256,1.184L40.08-5.856Zm15.7,3.712A4.437,4.437,0,0,1,55.016-.96,3.824,3.824,0,0,1,52.08.16,3.67,3.67,0,0,1,49.192-.96a4.522,4.522,0,0,1-1-3.12A4.881,4.881,0,0,1,49.2-7.248,3.562,3.562,0,0,1,52.144-8.5a3.475,3.475,0,0,1,2.968,1.264A5.037,5.037,0,0,1,56.064-4.112Zm-1.552-.08q0-3.024-2.368-3.024-2.384,0-2.384,3.04,0,3.056,2.368,3.056a2.186,2.186,0,0,0,1.752-.736A3.545,3.545,0,0,0,54.512-4.192ZM62.672,0H57.536V-1.264h1.888V-7.072H57.536V-8.336H60.88v7.072h1.792ZM63.68-5.008a3.708,3.708,0,0,1,.856-2.472A3.229,3.229,0,0,1,67.152-8.5a2.989,2.989,0,0,1,2.864,1.44,7.448,7.448,0,0,1,.8,3.648A8.421,8.421,0,0,1,69.944.576,3.167,3.167,0,0,1,66.88,2.224,3.617,3.617,0,0,1,63.872.816l.848-.864A2.674,2.674,0,0,0,66.928.976,1.825,1.825,0,0,0,68.736-.056a7.629,7.629,0,0,0,.544-3.016v-.352a2.884,2.884,0,0,1-.88,1.112,2.791,2.791,0,0,1-1.792.5,2.547,2.547,0,0,1-2.264-.968A3.85,3.85,0,0,1,63.68-5.008Zm1.488-.064a2.384,2.384,0,0,0,.424,1.512,1.722,1.722,0,0,0,1.432.536,1.912,1.912,0,0,0,1.64-.656,2.669,2.669,0,0,0,.552-1.36,3.032,3.032,0,0,0-.576-1.576A1.827,1.827,0,0,0,67.12-7.2a1.8,1.8,0,0,0-1.5.568A2.456,2.456,0,0,0,65.168-5.072ZM72.32,0V-1.984h1.824V0Z" transform="translate(48 549)"/>
    <path id="Path_475" data-name="Path 475" class="cls-7" d="M5.936,0H.8V-1.264H2.688V-7.072H.8V-8.336H4.144v7.072H5.936Zm6.256,0H7.056V-1.264H8.944V-7.072H7.056V-8.336H10.4v7.072h1.792ZM13.52-5.168V-7.152h1.7v1.984ZM13.52,0V-1.984h1.7V0ZM17.3-7.728a6.532,6.532,0,0,1,1.344-.544,5.356,5.356,0,0,1,1.5-.224,3.526,3.526,0,0,1,2.176.648,2.24,2.24,0,0,1,.864,1.912A2.527,2.527,0,0,1,22.752-4.5a2.843,2.843,0,0,1-1.52,1.016v.064a2.694,2.694,0,0,1,1.856.952A2.783,2.783,0,0,1,23.6-.832a2.784,2.784,0,0,1-.984,2.28,3.917,3.917,0,0,1-2.568.808A3.484,3.484,0,0,1,17.7,1.568a2.722,2.722,0,0,1-.936-1.744L17.92-.56A2.583,2.583,0,0,0,18.56.528a1.947,1.947,0,0,0,1.456.48A1.837,1.837,0,0,0,21.624.4a2.3,2.3,0,0,0,.424-1.344,1.57,1.57,0,0,0-.664-1.376,4.193,4.193,0,0,0-2.2-.512V-3.856a2.515,2.515,0,0,0,1.968-.672,1.992,1.992,0,0,0,.48-1.2q0-1.52-1.728-1.52a3.721,3.721,0,0,0-.744.088,2.9,2.9,0,0,0-.76.264l-.256,1.264L16.992-5.76ZM32.784-4.112A4.437,4.437,0,0,1,31.736-.96,3.824,3.824,0,0,1,28.8.16,3.67,3.67,0,0,1,25.912-.96a4.522,4.522,0,0,1-1-3.12A4.881,4.881,0,0,1,25.92-7.248,3.562,3.562,0,0,1,28.864-8.5a3.475,3.475,0,0,1,2.968,1.264A5.037,5.037,0,0,1,32.784-4.112Zm-1.552-.08q0-3.024-2.368-3.024-2.384,0-2.384,3.04,0,3.056,2.368,3.056A2.186,2.186,0,0,0,30.6-1.856,3.545,3.545,0,0,0,31.232-4.192ZM34.3-4.3h3.744v1.2H34.3ZM44.608,0H39.472V-1.264H41.36V-7.072H39.472V-8.336h3.344v7.072h1.792Zm1.408-7.728a6.532,6.532,0,0,1,1.344-.544,5.356,5.356,0,0,1,1.5-.224,3.526,3.526,0,0,1,2.176.648A2.24,2.24,0,0,1,51.9-5.936,2.527,2.527,0,0,1,51.472-4.5a2.843,2.843,0,0,1-1.52,1.016v.064a2.694,2.694,0,0,1,1.856.952,2.783,2.783,0,0,1,.512,1.64,2.784,2.784,0,0,1-.984,2.28,3.917,3.917,0,0,1-2.568.808,3.484,3.484,0,0,1-2.344-.688,2.722,2.722,0,0,1-.936-1.744L46.64-.56A2.583,2.583,0,0,0,47.28.528a1.947,1.947,0,0,0,1.456.48A1.837,1.837,0,0,0,50.344.4a2.3,2.3,0,0,0,.424-1.344A1.57,1.57,0,0,0,50.1-2.32a4.193,4.193,0,0,0-2.2-.512V-3.856a2.515,2.515,0,0,0,1.968-.672,1.992,1.992,0,0,0,.48-1.2q0-1.52-1.728-1.52a3.721,3.721,0,0,0-.744.088,2.9,2.9,0,0,0-.76.264l-.256,1.264L45.712-5.76Zm7.952,2.56V-7.152h1.7v1.984Zm0,5.168V-1.984h1.7V0ZM65.2-4.112A4.437,4.437,0,0,1,64.152-.96,3.824,3.824,0,0,1,61.216.16,3.67,3.67,0,0,1,58.328-.96a4.522,4.522,0,0,1-1-3.12,4.881,4.881,0,0,1,1.008-3.168A3.562,3.562,0,0,1,61.28-8.5a3.475,3.475,0,0,1,2.968,1.264A5.037,5.037,0,0,1,65.2-4.112Zm-1.552-.08q0-3.024-2.368-3.024-2.384,0-2.384,3.04,0,3.056,2.368,3.056a2.186,2.186,0,0,0,1.752-.736A3.545,3.545,0,0,0,63.648-4.192Zm10.768.08A4.437,4.437,0,0,1,73.368-.96,3.824,3.824,0,0,1,70.432.16,3.67,3.67,0,0,1,67.544-.96a4.522,4.522,0,0,1-1-3.12,4.881,4.881,0,0,1,1.008-3.168A3.562,3.562,0,0,1,70.5-8.5a3.475,3.475,0,0,1,2.968,1.264A5.037,5.037,0,0,1,74.416-4.112Zm-1.552-.08q0-3.024-2.368-3.024-2.384,0-2.384,3.04,0,3.056,2.368,3.056a2.186,2.186,0,0,0,1.752-.736A3.545,3.545,0,0,0,72.864-4.192Z" transform="translate(133 549)"/>
    <path id="Path_476" data-name="Path 476" class="cls-7" d="M-.592-5.712A11.1,11.1,0,0,1-.984-2.56,3.936,3.936,0,0,1-2.256-.544a3.63,3.63,0,0,1-2.336.7A3.3,3.3,0,0,1-7.616-1.392a8.208,8.208,0,0,1-.96-4.32,11.407,11.407,0,0,1,.384-3.16A3.894,3.894,0,0,1-6.928-10.9a3.63,3.63,0,0,1,2.336-.7,3.319,3.319,0,0,1,3.024,1.552A8.135,8.135,0,0,1-.592-5.712Zm-5.584,0A9.655,9.655,0,0,0-5.84-2.776a1.257,1.257,0,0,0,1.248.984,1.272,1.272,0,0,0,1.248-.976,9.23,9.23,0,0,0,.352-2.944,9.32,9.32,0,0,0-.352-2.944,1.276,1.276,0,0,0-1.248-.992,1.259,1.259,0,0,0-1.248.992A9.738,9.738,0,0,0-6.176-5.712Z" transform="translate(268 550)"/>
    <path id="Path_477" data-name="Path 477" class="cls-7" d="M-10.128-8.864a2.535,2.535,0,0,1-.712,1.888,3.693,3.693,0,0,1-1.752.96v.048a3.659,3.659,0,0,1,2.08.848,2.334,2.334,0,0,1,.72,1.792,3.332,3.332,0,0,1-.488,1.784A3.273,3.273,0,0,1-11.784-.3,6.43,6.43,0,0,1-14.4.16a8.22,8.22,0,0,1-3.3-.624V-2.512a7.16,7.16,0,0,0,1.536.56,6.459,6.459,0,0,0,1.5.192,2.816,2.816,0,0,0,1.816-.448,1.578,1.578,0,0,0,.52-1.264,1.34,1.34,0,0,0-.24-.8,1.481,1.481,0,0,0-.84-.5,6.5,6.5,0,0,0-1.672-.168h-.864V-6.8h.88A4.962,4.962,0,0,0-13.448-7a1.359,1.359,0,0,0,.752-.544,1.547,1.547,0,0,0,.2-.792,1.226,1.226,0,0,0-.376-.952,1.843,1.843,0,0,0-1.256-.344,3.294,3.294,0,0,0-1.424.288A9.228,9.228,0,0,0-16.56-8.8l-1.12-1.664a6.328,6.328,0,0,1,1.576-.8,6.464,6.464,0,0,1,2.152-.32,4.843,4.843,0,0,1,2.792.712A2.3,2.3,0,0,1-10.128-8.864ZM-.592-5.712A11.1,11.1,0,0,1-.984-2.56,3.936,3.936,0,0,1-2.256-.544a3.63,3.63,0,0,1-2.336.7A3.3,3.3,0,0,1-7.616-1.392a8.208,8.208,0,0,1-.96-4.32,11.407,11.407,0,0,1,.384-3.16A3.894,3.894,0,0,1-6.928-10.9a3.63,3.63,0,0,1,2.336-.7,3.319,3.319,0,0,1,3.024,1.552A8.135,8.135,0,0,1-.592-5.712Zm-5.584,0A9.655,9.655,0,0,0-5.84-2.776a1.257,1.257,0,0,0,1.248.984,1.272,1.272,0,0,0,1.248-.976,9.23,9.23,0,0,0,.352-2.944,9.32,9.32,0,0,0-.352-2.944,1.276,1.276,0,0,0-1.248-.992,1.259,1.259,0,0,0-1.248.992A9.738,9.738,0,0,0-6.176-5.712Z" transform="translate(317 550)"/>
    <path id="Path_478" data-name="Path 478" class="cls-6" d="M8.816,0H5.2V-.912H6.448V-4.224a2.255,2.255,0,0,0-.472-1.624A1.636,1.636,0,0,0,4.768-6.32a1.965,1.965,0,0,0-1.512.632A2.173,2.173,0,0,0,2.64-4.272v3.36H3.872V0H.272V-.912H1.5V-10.1H.272v-.912H2.64V-5.84a2.645,2.645,0,0,1,2.5-1.424,2.5,2.5,0,0,1,1.744.64,2.668,2.668,0,0,1,.7,2.064V-.912H8.816ZM13.5-7.248a1.859,1.859,0,0,1,1.216.368l.272,1.792-.912.112-.272-1.216a1.625,1.625,0,0,0-.544-.1,1.281,1.281,0,0,0-1.04.52,2.1,2.1,0,0,0-.416,1.352v3.5h1.648V0H9.44V-.912h1.248v-5.3H9.408V-7.12h2.336v1.28a2.313,2.313,0,0,1,.68-1A1.6,1.6,0,0,1,13.5-7.248Zm8.56,5.184a1.869,1.869,0,0,1-.872,1.632A3.743,3.743,0,0,1,19.04.16a5.74,5.74,0,0,1-1.5-.2,4.2,4.2,0,0,1-1.208-.5L16.56-2.16l.9.1-.048.944a3.624,3.624,0,0,0,1.584.352,2.915,2.915,0,0,0,1.336-.3.96.96,0,0,0,.584-.9.864.864,0,0,0-.448-.832,3.638,3.638,0,0,0-1.112-.352q-.664-.112-1.336-.272a2.573,2.573,0,0,1-1.12-.552A1.543,1.543,0,0,1,16.448-5.2a1.678,1.678,0,0,1,.832-1.6,3.651,3.651,0,0,1,1.808-.464,4.849,4.849,0,0,1,1.384.192,4.67,4.67,0,0,1,1.1.464l.176,1.664-.928.112L20.64-5.984a3.091,3.091,0,0,0-1.456-.352,2.141,2.141,0,0,0-1.1.256.864.864,0,0,0-.432.8.819.819,0,0,0,.448.792,3.643,3.643,0,0,0,1.1.336q.656.1,1.312.264a2.479,2.479,0,0,1,1.1.568A1.618,1.618,0,0,1,22.064-2.064Z" transform="translate(268 549)"/>
    <path id="Path_479" data-name="Path 479" class="cls-6" d="M13.664,0H10.256V-.912H11.3V-4.224a2.309,2.309,0,0,0-.456-1.624A1.544,1.544,0,0,0,9.68-6.32a1.74,1.74,0,0,0-1.5.736,2.547,2.547,0,0,0-.544,1.408V-.912H8.864V0H5.472V-.912H6.5V-4.224a2.334,2.334,0,0,0-.448-1.632A1.512,1.512,0,0,0,4.912-6.32,1.756,1.756,0,0,0,3.4-5.608a2.588,2.588,0,0,0-.552,1.4v3.3H4.16V0H.48V-.912H1.728v-5.3H.464V-7.12H2.848v1.328a3.1,3.1,0,0,1,.944-1.056,2.441,2.441,0,0,1,1.44-.416,2.525,2.525,0,0,1,1.448.416,2.118,2.118,0,0,1,.84,1.3,2.985,2.985,0,0,1,.952-1.232,2.5,2.5,0,0,1,1.56-.48,2.389,2.389,0,0,1,1.7.64,2.725,2.725,0,0,1,.68,2.064V-.912h1.248Zm1.824-8.96v-1.456H16.7V-8.96ZM17.968,0H14.352V-.912H15.6v-5.3H14.32V-7.12h2.4V-.912h1.248Zm9.344,0h-3.6V-.912h1.232V-4.224a2.282,2.282,0,0,0-.464-1.624A1.589,1.589,0,0,0,23.3-6.32a2,2,0,0,0-1.544.632,2.207,2.207,0,0,0-.616,1.448V-.912h1.248V0H18.768V-.912h1.248v-5.3h-1.28V-7.12h2.4v1.264a2.629,2.629,0,0,1,2.5-1.408,2.5,2.5,0,0,1,1.744.64,2.668,2.668,0,0,1,.7,2.064V-.912h1.232Z" transform="translate(317 549)"/>
    <path id="Path_480" data-name="Path 480" class="cls-2" d="M2,0H326a2,2,0,0,1,2,2V49a2,2,0,0,1-2,2H2a2,2,0,0,1-2-2V2A2,2,0,0,1,2,0Z" transform="translate(32 569)"/>
    <path id="Path_481" data-name="Path 481" class="cls-6" d="M5.936,0H.8V-1.264H2.688V-7.072H.8V-8.336H4.144v7.072H5.936Zm7.056,2.1H11.536V-.512H6.7l-.16-1.232,3.568-6.592h2.88v6.592H14.64L14.5-.512h-1.5Zm-1.456-3.84V-7.088h-.72L7.936-1.744ZM15.84,0V-1.984h1.824V0ZM27.024-4.112A4.437,4.437,0,0,1,25.976-.96,3.824,3.824,0,0,1,23.04.16,3.67,3.67,0,0,1,20.152-.96a4.522,4.522,0,0,1-1-3.12A4.881,4.881,0,0,1,20.16-7.248,3.562,3.562,0,0,1,23.1-8.5a3.475,3.475,0,0,1,2.968,1.264A5.037,5.037,0,0,1,27.024-4.112Zm-1.552-.08q0-3.024-2.368-3.024-2.384,0-2.384,3.04,0,3.056,2.368,3.056a2.186,2.186,0,0,0,1.752-.736A3.545,3.545,0,0,0,25.472-4.192Zm3.312-3.536a6.532,6.532,0,0,1,1.344-.544,5.356,5.356,0,0,1,1.5-.224,3.526,3.526,0,0,1,2.176.648,2.24,2.24,0,0,1,.864,1.912A2.527,2.527,0,0,1,34.24-4.5a2.843,2.843,0,0,1-1.52,1.016v.064a2.694,2.694,0,0,1,1.856.952,2.783,2.783,0,0,1,.512,1.64,2.784,2.784,0,0,1-.984,2.28,3.917,3.917,0,0,1-2.568.808,3.484,3.484,0,0,1-2.344-.688,2.722,2.722,0,0,1-.936-1.744L29.408-.56a2.583,2.583,0,0,0,.64,1.088,1.947,1.947,0,0,0,1.456.48A1.837,1.837,0,0,0,33.112.4a2.3,2.3,0,0,0,.424-1.344,1.57,1.57,0,0,0-.664-1.376,4.193,4.193,0,0,0-2.2-.512V-3.856a2.515,2.515,0,0,0,1.968-.672,1.992,1.992,0,0,0,.48-1.2q0-1.52-1.728-1.52a3.721,3.721,0,0,0-.744.088,2.9,2.9,0,0,0-.76.264l-.256,1.264L28.48-5.76ZM36.544,0V-1.984h1.824V0Zm3.824-7.824a6.35,6.35,0,0,1,1.488-.5A7.2,7.2,0,0,1,43.328-8.5,2.984,2.984,0,0,1,45.68-7.7a2.519,2.519,0,0,1,.688,1.672,2.886,2.886,0,0,1-.784,1.968A8.85,8.85,0,0,1,43.7-2.488q-1.1.7-2.024,1.224h3.952l.128-1.168,1.184.1L46.752,0h-6.72L39.9-1.136q2.16-1.44,3.536-2.5a2.9,2.9,0,0,0,1.376-2.2q0-1.408-1.76-1.408a4.078,4.078,0,0,0-.768.088,3.954,3.954,0,0,0-.816.248l-.256,1.184L40.08-5.856Zm15.7,3.712A4.437,4.437,0,0,1,55.016-.96,3.824,3.824,0,0,1,52.08.16,3.67,3.67,0,0,1,49.192-.96a4.522,4.522,0,0,1-1-3.12A4.881,4.881,0,0,1,49.2-7.248,3.562,3.562,0,0,1,52.144-8.5a3.475,3.475,0,0,1,2.968,1.264A5.037,5.037,0,0,1,56.064-4.112Zm-1.552-.08q0-3.024-2.368-3.024-2.384,0-2.384,3.04,0,3.056,2.368,3.056a2.186,2.186,0,0,0,1.752-.736A3.545,3.545,0,0,0,54.512-4.192ZM62.672,0H57.536V-1.264h1.888V-7.072H57.536V-8.336H60.88v7.072h1.792ZM63.68-5.008a3.708,3.708,0,0,1,.856-2.472A3.229,3.229,0,0,1,67.152-8.5a2.989,2.989,0,0,1,2.864,1.44,7.448,7.448,0,0,1,.8,3.648A8.421,8.421,0,0,1,69.944.576,3.167,3.167,0,0,1,66.88,2.224,3.617,3.617,0,0,1,63.872.816l.848-.864A2.674,2.674,0,0,0,66.928.976,1.825,1.825,0,0,0,68.736-.056a7.629,7.629,0,0,0,.544-3.016v-.352a2.884,2.884,0,0,1-.88,1.112,2.791,2.791,0,0,1-1.792.5,2.547,2.547,0,0,1-2.264-.968A3.85,3.85,0,0,1,63.68-5.008Zm1.488-.064a2.384,2.384,0,0,0,.424,1.512,1.722,1.722,0,0,0,1.432.536,1.912,1.912,0,0,0,1.64-.656,2.669,2.669,0,0,0,.552-1.36,3.032,3.032,0,0,0-.576-1.576A1.827,1.827,0,0,0,67.12-7.2a1.8,1.8,0,0,0-1.5.568A2.456,2.456,0,0,0,65.168-5.072ZM72.32,0V-1.984h1.824V0Z" transform="translate(48 600)"/>
    <path id="Path_482" data-name="Path 482" class="cls-7" d="M5.936,0H.8V-1.264H2.688V-7.072H.8V-8.336H4.144v7.072H5.936ZM14.8-4.112A4.437,4.437,0,0,1,13.752-.96,3.824,3.824,0,0,1,10.816.16,3.67,3.67,0,0,1,7.928-.96a4.522,4.522,0,0,1-1-3.12A4.881,4.881,0,0,1,7.936-7.248,3.562,3.562,0,0,1,10.88-8.5a3.475,3.475,0,0,1,2.968,1.264A5.037,5.037,0,0,1,14.8-4.112Zm-1.552-.08q0-3.024-2.368-3.024Q8.5-7.216,8.5-4.176q0,3.056,2.368,3.056a2.186,2.186,0,0,0,1.752-.736A3.545,3.545,0,0,0,13.248-4.192Zm3.232-.976V-7.152h1.7v1.984ZM16.48,0V-1.984h1.7V0ZM27.712-4.112A4.437,4.437,0,0,1,26.664-.96,3.824,3.824,0,0,1,23.728.16,3.67,3.67,0,0,1,20.84-.96a4.522,4.522,0,0,1-1-3.12,4.881,4.881,0,0,1,1.008-3.168A3.562,3.562,0,0,1,23.792-8.5,3.475,3.475,0,0,1,26.76-7.232,5.037,5.037,0,0,1,27.712-4.112Zm-1.552-.08q0-3.024-2.368-3.024-2.384,0-2.384,3.04,0,3.056,2.368,3.056a2.186,2.186,0,0,0,1.752-.736A3.545,3.545,0,0,0,26.16-4.192Zm10.768.08A4.437,4.437,0,0,1,35.88-.96,3.824,3.824,0,0,1,32.944.16,3.67,3.67,0,0,1,30.056-.96a4.522,4.522,0,0,1-1-3.12,4.881,4.881,0,0,1,1.008-3.168A3.562,3.562,0,0,1,33.008-8.5a3.475,3.475,0,0,1,2.968,1.264A5.037,5.037,0,0,1,36.928-4.112Zm-1.552-.08q0-3.024-2.368-3.024-2.384,0-2.384,3.04,0,3.056,2.368,3.056a2.186,2.186,0,0,0,1.752-.736A3.545,3.545,0,0,0,35.376-4.192ZM38.448-4.3h3.744v1.2H38.448ZM48.752,0H43.616V-1.264H45.5V-7.072H43.616V-8.336H46.96v7.072h1.792Zm8.864-4.112A4.437,4.437,0,0,1,56.568-.96,3.824,3.824,0,0,1,53.632.16,3.67,3.67,0,0,1,50.744-.96a4.522,4.522,0,0,1-1-3.12,4.881,4.881,0,0,1,1.008-3.168A3.562,3.562,0,0,1,53.7-8.5a3.475,3.475,0,0,1,2.968,1.264A5.037,5.037,0,0,1,57.616-4.112Zm-1.552-.08q0-3.024-2.368-3.024-2.384,0-2.384,3.04,0,3.056,2.368,3.056a2.186,2.186,0,0,0,1.752-.736A3.545,3.545,0,0,0,56.064-4.192ZM59.3-5.168V-7.152h1.7v1.984ZM59.3,0V-1.984h1.7V0Zm3.776-7.728a6.532,6.532,0,0,1,1.344-.544,5.356,5.356,0,0,1,1.5-.224,3.526,3.526,0,0,1,2.176.648,2.24,2.24,0,0,1,.864,1.912A2.527,2.527,0,0,1,68.528-4.5a2.843,2.843,0,0,1-1.52,1.016v.064a2.694,2.694,0,0,1,1.856.952,2.783,2.783,0,0,1,.512,1.64,2.784,2.784,0,0,1-.984,2.28,3.917,3.917,0,0,1-2.568.808,3.484,3.484,0,0,1-2.344-.688,2.722,2.722,0,0,1-.936-1.744L63.7-.56a2.583,2.583,0,0,0,.64,1.088,1.947,1.947,0,0,0,1.456.48A1.837,1.837,0,0,0,67.4.4a2.3,2.3,0,0,0,.424-1.344A1.57,1.57,0,0,0,67.16-2.32a4.193,4.193,0,0,0-2.2-.512V-3.856a2.515,2.515,0,0,0,1.968-.672,1.992,1.992,0,0,0,.48-1.2q0-1.52-1.728-1.52a3.721,3.721,0,0,0-.744.088,2.9,2.9,0,0,0-.76.264L63.92-5.632,62.768-5.76ZM78.56-4.112A4.437,4.437,0,0,1,77.512-.96,3.824,3.824,0,0,1,74.576.16,3.67,3.67,0,0,1,71.688-.96a4.522,4.522,0,0,1-1-3.12A4.881,4.881,0,0,1,71.7-7.248,3.562,3.562,0,0,1,74.64-8.5a3.475,3.475,0,0,1,2.968,1.264A5.037,5.037,0,0,1,78.56-4.112Zm-1.552-.08q0-3.024-2.368-3.024-2.384,0-2.384,3.04,0,3.056,2.368,3.056a2.186,2.186,0,0,0,1.752-.736A3.545,3.545,0,0,0,77.008-4.192Z" transform="translate(133 600)"/>
    <path id="Path_483" data-name="Path 483" class="cls-7" d="M-.592-5.712A11.1,11.1,0,0,1-.984-2.56,3.936,3.936,0,0,1-2.256-.544a3.63,3.63,0,0,1-2.336.7A3.3,3.3,0,0,1-7.616-1.392a8.208,8.208,0,0,1-.96-4.32,11.407,11.407,0,0,1,.384-3.16A3.894,3.894,0,0,1-6.928-10.9a3.63,3.63,0,0,1,2.336-.7,3.319,3.319,0,0,1,3.024,1.552A8.135,8.135,0,0,1-.592-5.712Zm-5.584,0A9.655,9.655,0,0,0-5.84-2.776a1.257,1.257,0,0,0,1.248.984,1.272,1.272,0,0,0,1.248-.976,9.23,9.23,0,0,0,.352-2.944,9.32,9.32,0,0,0-.352-2.944,1.276,1.276,0,0,0-1.248-.992,1.259,1.259,0,0,0-1.248.992A9.738,9.738,0,0,0-6.176-5.712Z" transform="translate(268 601)"/>
    <path id="Path_484" data-name="Path 484" class="cls-7" d="M-10.128-8.864a2.535,2.535,0,0,1-.712,1.888,3.693,3.693,0,0,1-1.752.96v.048a3.659,3.659,0,0,1,2.08.848,2.334,2.334,0,0,1,.72,1.792,3.332,3.332,0,0,1-.488,1.784A3.273,3.273,0,0,1-11.784-.3,6.43,6.43,0,0,1-14.4.16a8.22,8.22,0,0,1-3.3-.624V-2.512a7.16,7.16,0,0,0,1.536.56,6.459,6.459,0,0,0,1.5.192,2.816,2.816,0,0,0,1.816-.448,1.578,1.578,0,0,0,.52-1.264,1.34,1.34,0,0,0-.24-.8,1.481,1.481,0,0,0-.84-.5,6.5,6.5,0,0,0-1.672-.168h-.864V-6.8h.88A4.962,4.962,0,0,0-13.448-7a1.359,1.359,0,0,0,.752-.544,1.547,1.547,0,0,0,.2-.792,1.226,1.226,0,0,0-.376-.952,1.843,1.843,0,0,0-1.256-.344,3.294,3.294,0,0,0-1.424.288A9.228,9.228,0,0,0-16.56-8.8l-1.12-1.664a6.328,6.328,0,0,1,1.576-.8,6.464,6.464,0,0,1,2.152-.32,4.843,4.843,0,0,1,2.792.712A2.3,2.3,0,0,1-10.128-8.864ZM-.592-5.712A11.1,11.1,0,0,1-.984-2.56,3.936,3.936,0,0,1-2.256-.544a3.63,3.63,0,0,1-2.336.7A3.3,3.3,0,0,1-7.616-1.392a8.208,8.208,0,0,1-.96-4.32,11.407,11.407,0,0,1,.384-3.16A3.894,3.894,0,0,1-6.928-10.9a3.63,3.63,0,0,1,2.336-.7,3.319,3.319,0,0,1,3.024,1.552A8.135,8.135,0,0,1-.592-5.712Zm-5.584,0A9.655,9.655,0,0,0-5.84-2.776a1.257,1.257,0,0,0,1.248.984,1.272,1.272,0,0,0,1.248-.976,9.23,9.23,0,0,0,.352-2.944,9.32,9.32,0,0,0-.352-2.944,1.276,1.276,0,0,0-1.248-.992,1.259,1.259,0,0,0-1.248.992A9.738,9.738,0,0,0-6.176-5.712Z" transform="translate(317 601)"/>
    <path id="Path_485" data-name="Path 485" class="cls-6" d="M8.816,0H5.2V-.912H6.448V-4.224a2.255,2.255,0,0,0-.472-1.624A1.636,1.636,0,0,0,4.768-6.32a1.965,1.965,0,0,0-1.512.632A2.173,2.173,0,0,0,2.64-4.272v3.36H3.872V0H.272V-.912H1.5V-10.1H.272v-.912H2.64V-5.84a2.645,2.645,0,0,1,2.5-1.424,2.5,2.5,0,0,1,1.744.64,2.668,2.668,0,0,1,.7,2.064V-.912H8.816ZM13.5-7.248a1.859,1.859,0,0,1,1.216.368l.272,1.792-.912.112-.272-1.216a1.625,1.625,0,0,0-.544-.1,1.281,1.281,0,0,0-1.04.52,2.1,2.1,0,0,0-.416,1.352v3.5h1.648V0H9.44V-.912h1.248v-5.3H9.408V-7.12h2.336v1.28a2.313,2.313,0,0,1,.68-1A1.6,1.6,0,0,1,13.5-7.248Zm8.56,5.184a1.869,1.869,0,0,1-.872,1.632A3.743,3.743,0,0,1,19.04.16a5.74,5.74,0,0,1-1.5-.2,4.2,4.2,0,0,1-1.208-.5L16.56-2.16l.9.1-.048.944a3.624,3.624,0,0,0,1.584.352,2.915,2.915,0,0,0,1.336-.3.96.96,0,0,0,.584-.9.864.864,0,0,0-.448-.832,3.638,3.638,0,0,0-1.112-.352q-.664-.112-1.336-.272a2.573,2.573,0,0,1-1.12-.552A1.543,1.543,0,0,1,16.448-5.2a1.678,1.678,0,0,1,.832-1.6,3.651,3.651,0,0,1,1.808-.464,4.849,4.849,0,0,1,1.384.192,4.67,4.67,0,0,1,1.1.464l.176,1.664-.928.112L20.64-5.984a3.091,3.091,0,0,0-1.456-.352,2.141,2.141,0,0,0-1.1.256.864.864,0,0,0-.432.8.819.819,0,0,0,.448.792,3.643,3.643,0,0,0,1.1.336q.656.1,1.312.264a2.479,2.479,0,0,1,1.1.568A1.618,1.618,0,0,1,22.064-2.064Z" transform="translate(268 600)"/>
    <path id="Path_486" data-name="Path 486" class="cls-6" d="M13.664,0H10.256V-.912H11.3V-4.224a2.309,2.309,0,0,0-.456-1.624A1.544,1.544,0,0,0,9.68-6.32a1.74,1.74,0,0,0-1.5.736,2.547,2.547,0,0,0-.544,1.408V-.912H8.864V0H5.472V-.912H6.5V-4.224a2.334,2.334,0,0,0-.448-1.632A1.512,1.512,0,0,0,4.912-6.32,1.756,1.756,0,0,0,3.4-5.608a2.588,2.588,0,0,0-.552,1.4v3.3H4.16V0H.48V-.912H1.728v-5.3H.464V-7.12H2.848v1.328a3.1,3.1,0,0,1,.944-1.056,2.441,2.441,0,0,1,1.44-.416,2.525,2.525,0,0,1,1.448.416,2.118,2.118,0,0,1,.84,1.3,2.985,2.985,0,0,1,.952-1.232,2.5,2.5,0,0,1,1.56-.48,2.389,2.389,0,0,1,1.7.64,2.725,2.725,0,0,1,.68,2.064V-.912h1.248Zm1.824-8.96v-1.456H16.7V-8.96ZM17.968,0H14.352V-.912H15.6v-5.3H14.32V-7.12h2.4V-.912h1.248Zm9.344,0h-3.6V-.912h1.232V-4.224a2.282,2.282,0,0,0-.464-1.624A1.589,1.589,0,0,0,23.3-6.32a2,2,0,0,0-1.544.632,2.207,2.207,0,0,0-.616,1.448V-.912h1.248V0H18.768V-.912h1.248v-5.3h-1.28V-7.12h2.4v1.264a2.629,2.629,0,0,1,2.5-1.408,2.5,2.5,0,0,1,1.744.64,2.668,2.668,0,0,1,.7,2.064V-.912h1.232Z" transform="translate(317 600)"/>
    <path id="Path_487" data-name="Path 487" class="cls-7" d="M6-2.232A2.06,2.06,0,0,1,5.2-.486,3.33,3.33,0,0,1,3.132.12,5.7,5.7,0,0,1,1.656-.066a3.15,3.15,0,0,1-1.1-.5L.732-2.22l.876.084-.024.972a2.731,2.731,0,0,0,.762.27,4.084,4.084,0,0,0,.726.066A2.561,2.561,0,0,0,4.326-1.11a1.057,1.057,0,0,0,.51-1.014A1.055,1.055,0,0,0,4.266-3.2a5.988,5.988,0,0,0-1.278-.4,10.565,10.565,0,0,1-1.11-.3,2.049,2.049,0,0,1-.912-.594A1.767,1.767,0,0,1,.6-5.7a1.9,1.9,0,0,1,.78-1.692,3.134,3.134,0,0,1,1.8-.528,4.775,4.775,0,0,1,1.356.2,2.887,2.887,0,0,1,1.044.51l.072,1.6-.876.084L4.644-6.624a2.461,2.461,0,0,0-.708-.264,3.492,3.492,0,0,0-.684-.072,1.842,1.842,0,0,0-1.074.288.971.971,0,0,0-.414.852.891.891,0,0,0,.5.894,5.8,5.8,0,0,0,1.116.378q.5.108,1.116.294a2.441,2.441,0,0,1,1.056.642A1.908,1.908,0,0,1,6-2.232ZM13.152,0h-2.8V-.816h.876V-3.132a1.663,1.663,0,0,0-.324-1.158,1.119,1.119,0,0,0-.852-.342,1.34,1.34,0,0,0-1.044.438,1.555,1.555,0,0,0-.42,1V-.816h.876V0H6.684V-.816h.864V-7.428H6.684v-.828H8.592V-4.44a1.966,1.966,0,0,1,1.836-1.032,1.916,1.916,0,0,1,1.32.48,1.908,1.908,0,0,1,.54,1.5V-.816h.864ZM19.08-2.676A2.763,2.763,0,0,1,18.318-.66a2.683,2.683,0,0,1-2.01.78A2.538,2.538,0,0,1,14.37-.636a2.782,2.782,0,0,1-.714-1.992,3.092,3.092,0,0,1,.684-2.016,2.476,2.476,0,0,1,2.04-.84,2.449,2.449,0,0,1,2.028.834A3.05,3.05,0,0,1,19.08-2.676Zm-1.1-.036a2.1,2.1,0,0,0-.438-1.4,1.47,1.47,0,0,0-1.182-.516,1.408,1.408,0,0,0-1.194.546,2.25,2.25,0,0,0-.414,1.4,2.343,2.343,0,0,0,.4,1.386,1.366,1.366,0,0,0,1.194.57A1.428,1.428,0,0,0,17.55-1.29,2.277,2.277,0,0,0,17.976-2.712ZM28.392-4.536h-.576L26.268,0h-.792l-1.56-3.828h-.06L22.344,0h-.756l-1.6-4.536H19.44v-.828h2.616v.828H21.12l.984,3h.06l1.488-3.828h.672l1.608,3.816H26l.828-2.988h-.9v-.828h2.46Zm9.072-.84a2.347,2.347,0,0,1-.774,1.908,2.9,2.9,0,0,1-1.926.648H33.336V-.948h1.3V0H31.3V-.948h.948v-5.9H31.3V-7.8h3.4a2.783,2.783,0,0,1,2.112.7A2.42,2.42,0,0,1,37.464-5.376ZM36.3-5.352a1.471,1.471,0,0,0-.408-1.1,1.829,1.829,0,0,0-1.32-.4H33.336v3.1H34.6Q36.3-3.756,36.3-5.352Zm4.992-.1a1.588,1.588,0,0,1,.96.288l.216,1.5-.828.1-.2-.924a1.093,1.093,0,0,0-.42-.084.847.847,0,0,0-.684.342,1.38,1.38,0,0,0-.276.894v2.52h1.152V0H38.136V-.816H39v-3.72h-.9v-.828h1.884v.984a1.824,1.824,0,0,1,.486-.762A1.163,1.163,0,0,1,41.292-5.448Zm7.4,2.772A2.763,2.763,0,0,1,47.934-.66a2.683,2.683,0,0,1-2.01.78,2.538,2.538,0,0,1-1.938-.756,2.782,2.782,0,0,1-.714-1.992,3.092,3.092,0,0,1,.684-2.016A2.476,2.476,0,0,1,46-5.484a2.449,2.449,0,0,1,2.028.834A3.05,3.05,0,0,1,48.7-2.676Zm-1.1-.036a2.1,2.1,0,0,0-.438-1.4,1.47,1.47,0,0,0-1.182-.516,1.408,1.408,0,0,0-1.194.546,2.25,2.25,0,0,0-.414,1.4,2.343,2.343,0,0,0,.4,1.386,1.366,1.366,0,0,0,1.194.57,1.428,1.428,0,0,0,1.206-.558A2.277,2.277,0,0,0,47.592-2.712ZM50.22-6.624V-7.86h1.1v1.236ZM51.324.06A2.891,2.891,0,0,1,50.7,2.184a2.17,2.17,0,0,1-1.788.492l-.036-.744a2.039,2.039,0,0,0,.648-.108.968.968,0,0,0,.534-.5,2.829,2.829,0,0,0,.21-1.26v-4.6h-1.08v-.828h2.136Zm6.132-1.644a1.822,1.822,0,0,1-.684,1.2,2.458,2.458,0,0,1-1.632.5,2.6,2.6,0,0,1-1.884-.7,2.676,2.676,0,0,1-.72-2.016,3.139,3.139,0,0,1,.672-2.064,2.278,2.278,0,0,1,1.86-.816,2.183,2.183,0,0,1,1.716.684,2.444,2.444,0,0,1,.624,1.656,3.492,3.492,0,0,1-.072.684h-3.7q.072,1.7,1.572,1.7a1.325,1.325,0,0,0,.942-.3,1.477,1.477,0,0,0,.426-.72Zm-1.14-1.572a1.592,1.592,0,0,0-.258-1.014,1.105,1.105,0,0,0-1.014-.486,1.161,1.161,0,0,0-.99.438,2.135,2.135,0,0,0-.4,1.062Zm6.744,1.3a2.628,2.628,0,0,1-.63,1.344,2.1,2.1,0,0,1-1.7.636,2.435,2.435,0,0,1-1.818-.7,2.748,2.748,0,0,1-.69-2.01,3.121,3.121,0,0,1,.684-2.046,2.331,2.331,0,0,1,1.908-.834,3.9,3.9,0,0,1,.972.12,2.655,2.655,0,0,1,.888.42l.216,1.392-.852.1-.192-.9A2.045,2.045,0,0,0,60.8-4.608a1.242,1.242,0,0,0-1.116.546,2.517,2.517,0,0,0-.36,1.41,2.271,2.271,0,0,0,.384,1.4,1.33,1.33,0,0,0,1.128.5q1.116,0,1.332-1.3Zm4.872.348A1.661,1.661,0,0,1,66.132.12a1.771,1.771,0,0,1-1.29-.45,1.67,1.67,0,0,1-.462-1.254V-4.56h-.828v-.8h.828V-7.056h1.044v1.692h2.052v.8H65.424v2.82q0,.96.828.96a.954.954,0,0,0,.528-.174,1.185,1.185,0,0,0,.372-.81ZM79.08-6.852h-.936V0h-.66L73.056-5.8h-.048V-.948H74.2V0H71.088V-.948h.888v-5.9H70.968V-7.8h1.8l4.3,5.616h.048V-6.852H75.948V-7.8H79.08Zm5.9,4.176A2.763,2.763,0,0,1,84.222-.66a2.683,2.683,0,0,1-2.01.78,2.538,2.538,0,0,1-1.938-.756,2.782,2.782,0,0,1-.714-1.992,3.092,3.092,0,0,1,.684-2.016,2.476,2.476,0,0,1,2.04-.84,2.449,2.449,0,0,1,2.028.834A3.05,3.05,0,0,1,84.984-2.676Zm-1.1-.036a2.1,2.1,0,0,0-.438-1.4,1.47,1.47,0,0,0-1.182-.516,1.408,1.408,0,0,0-1.194.546,2.25,2.25,0,0,0-.414,1.4,2.343,2.343,0,0,0,.4,1.386,1.366,1.366,0,0,0,1.194.57,1.428,1.428,0,0,0,1.206-.558A2.277,2.277,0,0,0,83.88-2.712Zm6.024,1.2A1.661,1.661,0,0,1,88.1.12a1.771,1.771,0,0,1-1.29-.45,1.67,1.67,0,0,1-.462-1.254V-4.56h-.828v-.8h.828V-7.056H87.4v1.692h2.052v.8H87.4v2.82q0,.96.828.96a.954.954,0,0,0,.528-.174,1.185,1.185,0,0,0,.372-.81Zm5.328-.072a1.822,1.822,0,0,1-.684,1.2,2.458,2.458,0,0,1-1.632.5,2.6,2.6,0,0,1-1.884-.7,2.676,2.676,0,0,1-.72-2.016,3.139,3.139,0,0,1,.672-2.064,2.278,2.278,0,0,1,1.86-.816,2.183,2.183,0,0,1,1.716.684,2.444,2.444,0,0,1,.624,1.656,3.492,3.492,0,0,1-.072.684h-3.7q.072,1.7,1.572,1.7a1.325,1.325,0,0,0,.942-.3,1.477,1.477,0,0,0,.426-.72Zm-1.14-1.572a1.592,1.592,0,0,0-.258-1.014,1.105,1.105,0,0,0-1.014-.486,1.161,1.161,0,0,0-.99.438,2.135,2.135,0,0,0-.4,1.062ZM0,1H47.876V2H0ZM52.324,1H95.6V2H52.324Z" transform="translate(32 330)"/>
    <g class="cls-21" transform="matrix(1, 0, 0, 1, 0, 0)">
      <path id="Path_488-2" data-name="Path 488" class="cls-2" d="M22,0A22,22,0,1,1,0,22,22,22,0,0,1,22,0Z" transform="translate(32 43)"/>
    </g>
    <path id="Path_73" data-name="Path 73" class="cls-5" d="M0,0H20V20H0Z" transform="translate(44 55)"/>
    <path id="Path_74" data-name="Path 74" class="cls-8" d="M3,18H17V16H3Zm0-5H17V11H3ZM3,6V8H17V6Z" transform="translate(44 53)"/>
    <path id="Path_489" data-name="Path 489" class="cls-2" d="M2,0H326a2,2,0,0,1,2,2V49a2,2,0,0,1-2,2H2a2,2,0,0,1-2-2V2A2,2,0,0,1,2,0Z" transform="translate(32 620)"/>
    <path id="Path_492" data-name="Path 492" class="cls-7" d="M-.592-5.712A11.1,11.1,0,0,1-.984-2.56,3.936,3.936,0,0,1-2.256-.544a3.63,3.63,0,0,1-2.336.7A3.3,3.3,0,0,1-7.616-1.392a8.208,8.208,0,0,1-.96-4.32,11.407,11.407,0,0,1,.384-3.16A3.894,3.894,0,0,1-6.928-10.9a3.63,3.63,0,0,1,2.336-.7,3.319,3.319,0,0,1,3.024,1.552A8.135,8.135,0,0,1-.592-5.712Zm-5.584,0A9.655,9.655,0,0,0-5.84-2.776a1.257,1.257,0,0,0,1.248.984,1.272,1.272,0,0,0,1.248-.976,9.23,9.23,0,0,0,.352-2.944,9.32,9.32,0,0,0-.352-2.944,1.276,1.276,0,0,0-1.248-.992,1.259,1.259,0,0,0-1.248.992A9.738,9.738,0,0,0-6.176-5.712Z" transform="translate(268 652)"/>
    <path id="Path_493" data-name="Path 493" class="cls-7" d="M-10.128-8.864a2.535,2.535,0,0,1-.712,1.888,3.693,3.693,0,0,1-1.752.96v.048a3.659,3.659,0,0,1,2.08.848,2.334,2.334,0,0,1,.72,1.792,3.332,3.332,0,0,1-.488,1.784A3.273,3.273,0,0,1-11.784-.3,6.43,6.43,0,0,1-14.4.16a8.22,8.22,0,0,1-3.3-.624V-2.512a7.16,7.16,0,0,0,1.536.56,6.459,6.459,0,0,0,1.5.192,2.816,2.816,0,0,0,1.816-.448,1.578,1.578,0,0,0,.52-1.264,1.34,1.34,0,0,0-.24-.8,1.481,1.481,0,0,0-.84-.5,6.5,6.5,0,0,0-1.672-.168h-.864V-6.8h.88A4.962,4.962,0,0,0-13.448-7a1.359,1.359,0,0,0,.752-.544,1.547,1.547,0,0,0,.2-.792,1.226,1.226,0,0,0-.376-.952,1.843,1.843,0,0,0-1.256-.344,3.294,3.294,0,0,0-1.424.288A9.228,9.228,0,0,0-16.56-8.8l-1.12-1.664a6.328,6.328,0,0,1,1.576-.8,6.464,6.464,0,0,1,2.152-.32,4.843,4.843,0,0,1,2.792.712A2.3,2.3,0,0,1-10.128-8.864ZM-.592-5.712A11.1,11.1,0,0,1-.984-2.56,3.936,3.936,0,0,1-2.256-.544a3.63,3.63,0,0,1-2.336.7A3.3,3.3,0,0,1-7.616-1.392a8.208,8.208,0,0,1-.96-4.32,11.407,11.407,0,0,1,.384-3.16A3.894,3.894,0,0,1-6.928-10.9a3.63,3.63,0,0,1,2.336-.7,3.319,3.319,0,0,1,3.024,1.552A8.135,8.135,0,0,1-.592-5.712Zm-5.584,0A9.655,9.655,0,0,0-5.84-2.776a1.257,1.257,0,0,0,1.248.984,1.272,1.272,0,0,0,1.248-.976,9.23,9.23,0,0,0,.352-2.944,9.32,9.32,0,0,0-.352-2.944,1.276,1.276,0,0,0-1.248-.992,1.259,1.259,0,0,0-1.248.992A9.738,9.738,0,0,0-6.176-5.712Z" transform="translate(317 652)"/>
    <path id="Path_494" data-name="Path 494" class="cls-6" d="M8.816,0H5.2V-.912H6.448V-4.224a2.255,2.255,0,0,0-.472-1.624A1.636,1.636,0,0,0,4.768-6.32a1.965,1.965,0,0,0-1.512.632A2.173,2.173,0,0,0,2.64-4.272v3.36H3.872V0H.272V-.912H1.5V-10.1H.272v-.912H2.64V-5.84a2.645,2.645,0,0,1,2.5-1.424,2.5,2.5,0,0,1,1.744.64,2.668,2.668,0,0,1,.7,2.064V-.912H8.816ZM13.5-7.248a1.859,1.859,0,0,1,1.216.368l.272,1.792-.912.112-.272-1.216a1.625,1.625,0,0,0-.544-.1,1.281,1.281,0,0,0-1.04.52,2.1,2.1,0,0,0-.416,1.352v3.5h1.648V0H9.44V-.912h1.248v-5.3H9.408V-7.12h2.336v1.28a2.313,2.313,0,0,1,.68-1A1.6,1.6,0,0,1,13.5-7.248Zm8.56,5.184a1.869,1.869,0,0,1-.872,1.632A3.743,3.743,0,0,1,19.04.16a5.74,5.74,0,0,1-1.5-.2,4.2,4.2,0,0,1-1.208-.5L16.56-2.16l.9.1-.048.944a3.624,3.624,0,0,0,1.584.352,2.915,2.915,0,0,0,1.336-.3.96.96,0,0,0,.584-.9.864.864,0,0,0-.448-.832,3.638,3.638,0,0,0-1.112-.352q-.664-.112-1.336-.272a2.573,2.573,0,0,1-1.12-.552A1.543,1.543,0,0,1,16.448-5.2a1.678,1.678,0,0,1,.832-1.6,3.651,3.651,0,0,1,1.808-.464,4.849,4.849,0,0,1,1.384.192,4.67,4.67,0,0,1,1.1.464l.176,1.664-.928.112L20.64-5.984a3.091,3.091,0,0,0-1.456-.352,2.141,2.141,0,0,0-1.1.256.864.864,0,0,0-.432.8.819.819,0,0,0,.448.792,3.643,3.643,0,0,0,1.1.336q.656.1,1.312.264a2.479,2.479,0,0,1,1.1.568A1.618,1.618,0,0,1,22.064-2.064Z" transform="translate(268 651)"/>
    <path id="Path_495" data-name="Path 495" class="cls-6" d="M13.664,0H10.256V-.912H11.3V-4.224a2.309,2.309,0,0,0-.456-1.624A1.544,1.544,0,0,0,9.68-6.32a1.74,1.74,0,0,0-1.5.736,2.547,2.547,0,0,0-.544,1.408V-.912H8.864V0H5.472V-.912H6.5V-4.224a2.334,2.334,0,0,0-.448-1.632A1.512,1.512,0,0,0,4.912-6.32,1.756,1.756,0,0,0,3.4-5.608a2.588,2.588,0,0,0-.552,1.4v3.3H4.16V0H.48V-.912H1.728v-5.3H.464V-7.12H2.848v1.328a3.1,3.1,0,0,1,.944-1.056,2.441,2.441,0,0,1,1.44-.416,2.525,2.525,0,0,1,1.448.416,2.118,2.118,0,0,1,.84,1.3,2.985,2.985,0,0,1,.952-1.232,2.5,2.5,0,0,1,1.56-.48,2.389,2.389,0,0,1,1.7.64,2.725,2.725,0,0,1,.68,2.064V-.912h1.248Zm1.824-8.96v-1.456H16.7V-8.96ZM17.968,0H14.352V-.912H15.6v-5.3H14.32V-7.12h2.4V-.912h1.248Zm9.344,0h-3.6V-.912h1.232V-4.224a2.282,2.282,0,0,0-.464-1.624A1.589,1.589,0,0,0,23.3-6.32a2,2,0,0,0-1.544.632,2.207,2.207,0,0,0-.616,1.448V-.912h1.248V0H18.768V-.912h1.248v-5.3h-1.28V-7.12h2.4v1.264a2.629,2.629,0,0,1,2.5-1.408,2.5,2.5,0,0,1,1.744.64,2.668,2.668,0,0,1,.7,2.064V-.912h1.232Z" transform="translate(317 651)"/>
    <path id="Path_496" data-name="Path 496" class="cls-9" d="M4,0h8a4,4,0,0,1,4,4V639a4,4,0,0,1-4,4H4a4,4,0,0,1-4-4V4A4,4,0,0,1,4,0Z" transform="translate(376)"/>
    <path id="Path_633" data-name="Path 633" class="cls-9" d="M4,0h8a4,4,0,0,1,4,4V639a4,4,0,0,1-4,4H4a4,4,0,0,1-4-4V4A4,4,0,0,1,4,0Z"/>
    <path id="Path_497" data-name="Path 497" class="cls-9" d="M4,0H388a4,4,0,0,1,4,4v8a4,4,0,0,1-4,4H4a4,4,0,0,1-4-4V4A4,4,0,0,1,4,0Z" transform="translate(0 627)"/>
    <path id="tab" class="cls-9" d="M4,0H388a4,4,0,0,1,4,4V27H0V4A4,4,0,0,1,4,0Z"/>
    <g id="Path_498" data-name="Path 498" class="cls-10" transform="translate(37 7)">
      <path class="cls-17" d="M 6.5 12.5 C 3.191590070724487 12.5 0.5 9.808409690856934 0.5 6.5 C 0.5 3.191590070724487 3.191590070724487 0.5 6.5 0.5 C 9.808409690856934 0.5 12.5 3.191590070724487 12.5 6.5 C 12.5 9.808409690856934 9.808409690856934 12.5 6.5 12.5 Z"/>
      <path class="cls-18" d="M 6.5 1 C 3.467289924621582 1 1 3.467289924621582 1 6.5 C 1 9.532710075378418 3.467289924621582 12 6.5 12 C 9.532710075378418 12 12 9.532710075378418 12 6.5 C 12 3.467289924621582 9.532710075378418 1 6.5 1 M 6.5 0 C 10.0898494720459 0 13 2.910149574279785 13 6.5 C 13 10.0898494720459 10.0898494720459 13 6.5 13 C 2.910149574279785 13 0 10.0898494720459 0 6.5 C 0 2.910149574279785 2.910149574279785 0 6.5 0 Z"/>
    </g>
    <path id="Path_499" data-name="Path 499" class="cls-11" d="M0,0H7V1H0Z" transform="translate(40 13)"/>
    <g id="Path_500" data-name="Path 500" class="cls-12" transform="translate(16 7)">
      <path class="cls-17" d="M 6.5 12.5 C 3.191590070724487 12.5 0.5 9.808409690856934 0.5 6.5 C 0.5 3.191590070724487 3.191590070724487 0.5 6.5 0.5 C 9.808409690856934 0.5 12.5 3.191590070724487 12.5 6.5 C 12.5 9.808409690856934 9.808409690856934 12.5 6.5 12.5 Z"/>
      <path class="cls-19" d="M 6.5 1 C 3.467289924621582 1 1 3.467289924621582 1 6.5 C 1 9.532710075378418 3.467289924621582 12 6.5 12 C 9.532710075378418 12 12 9.532710075378418 12 6.5 C 12 3.467289924621582 9.532710075378418 1 6.5 1 M 6.5 0 C 10.0898494720459 0 13 2.910149574279785 13 6.5 C 13 10.0898494720459 10.0898494720459 13 6.5 13 C 2.910149574279785 13 0 10.0898494720459 0 6.5 C 0 2.910149574279785 2.910149574279785 0 6.5 0 Z"/>
    </g>
    <path id="Path_627" data-name="Path 627" class="cls-13" d="M0,0H7V1H0Z" transform="translate(20.379 10.672) rotate(45)"/>
    <path id="Path_628" data-name="Path 628" class="cls-13" d="M0,0H7V1H0Z" transform="translate(19.672 15.621) rotate(-45)"/>
    <g id="Path_501" data-name="Path 501" class="cls-14" transform="translate(58 7)">
      <path class="cls-17" d="M 6.5 12.5 C 3.191590070724487 12.5 0.5 9.808409690856934 0.5 6.5 C 0.5 3.191590070724487 3.191590070724487 0.5 6.5 0.5 C 9.808409690856934 0.5 12.5 3.191590070724487 12.5 6.5 C 12.5 9.808409690856934 9.808409690856934 12.5 6.5 12.5 Z"/>
      <path class="cls-20" d="M 6.5 1 C 3.467289924621582 1 1 3.467289924621582 1 6.5 C 1 9.532710075378418 3.467289924621582 12 6.5 12 C 9.532710075378418 12 12 9.532710075378418 12 6.5 C 12 3.467289924621582 9.532710075378418 1 6.5 1 M 6.5 0 C 10.0898494720459 0 13 2.910149574279785 13 6.5 C 13 10.0898494720459 10.0898494720459 13 6.5 13 C 2.910149574279785 13 0 10.0898494720459 0 6.5 C 0 2.910149574279785 2.910149574279785 0 6.5 0 Z"/>
    </g>
    <path id="Path_502" data-name="Path 502" class="cls-15" d="M0,0H7V1H0Z" transform="translate(65 10) rotate(90)"/>
    <path id="Path_503" data-name="Path 503" class="cls-15" d="M0,0H7V1H0Z" transform="translate(61 13)"/>
    <path id="Path_504" data-name="Path 504" class="cls-16" d="M-25.324,0h-1.4V-8.073H-29.51V-9.282h6.968v1.209h-2.782ZM-19.9-9.88v2.639q0,.325-.026.65t-.052.533h.091a2.121,2.121,0,0,1,.9-.8,2.845,2.845,0,0,1,1.229-.266,2.677,2.677,0,0,1,1.892.611,2.553,2.553,0,0,1,.656,1.95V0h-1.365V-4.368q0-1.638-1.443-1.638a1.6,1.6,0,0,0-1.482.65,3.485,3.485,0,0,0-.4,1.833V0h-1.378V-9.88Zm9.568,2.743a2.822,2.822,0,0,1,2.171.852,3.27,3.27,0,0,1,.793,2.32v.754h-4.706a2.406,2.406,0,0,0,.566,1.651A1.981,1.981,0,0,0-10-.988a5.29,5.29,0,0,0,1.2-.124,6.191,6.191,0,0,0,1.085-.37V-.338A4.9,4.9,0,0,1-8.775.02a6.363,6.363,0,0,1-1.274.11,3.853,3.853,0,0,1-1.794-.4,2.863,2.863,0,0,1-1.216-1.2,4.064,4.064,0,0,1-.436-1.976,4.567,4.567,0,0,1,.4-2,2.925,2.925,0,0,1,1.1-1.254A3.1,3.1,0,0,1-10.335-7.137Zm0,1.066a1.549,1.549,0,0,0-1.189.481,2.228,2.228,0,0,0-.526,1.365h3.3a2.231,2.231,0,0,0-.4-1.332A1.388,1.388,0,0,0-10.335-6.071ZM1,0H-.4V-8.073H-3.185V-9.282H3.783v1.209H1ZM7.852-7.137a4.219,4.219,0,0,1,.767.065L8.476-5.785a2.689,2.689,0,0,0-.7-.091,1.958,1.958,0,0,0-.988.26,1.964,1.964,0,0,0-.734.747,2.329,2.329,0,0,0-.28,1.177V0H4.394V-7.007H5.486l.182,1.248H5.72a3.242,3.242,0,0,1,.871-.969A2.045,2.045,0,0,1,7.852-7.137Zm4.524,0a2.9,2.9,0,0,1,1.97.579A2.3,2.3,0,0,1,15-4.745V0h-.975l-.273-.975H13.7a3.131,3.131,0,0,1-.955.839A2.977,2.977,0,0,1,11.362.13,2.393,2.393,0,0,1,9.789-.384a1.96,1.96,0,0,1-.624-1.605A1.845,1.845,0,0,1,9.977-3.62a4.72,4.72,0,0,1,2.477-.6l1.2-.039v-.39A1.413,1.413,0,0,0,13.3-5.74a1.418,1.418,0,0,0-.988-.319,3.39,3.39,0,0,0-1.027.156,6.979,6.979,0,0,0-.949.377l-.442-1a5.609,5.609,0,0,1,1.138-.436A5.091,5.091,0,0,1,12.376-7.137Zm1.261,3.77-.936.026a3.086,3.086,0,0,0-1.658.4,1.143,1.143,0,0,0-.462.962.932.932,0,0,0,.325.793,1.359,1.359,0,0,0,.845.247A2.015,2.015,0,0,0,13.1-1.391a1.685,1.685,0,0,0,.54-1.365ZM19.942.13A3.2,3.2,0,0,1,17.6-.734a3.669,3.669,0,0,1-.884-2.723,4.478,4.478,0,0,1,.429-2.106A2.728,2.728,0,0,1,18.33-6.753a3.732,3.732,0,0,1,1.716-.384,4.936,4.936,0,0,1,1.1.117A3.823,3.823,0,0,1,22-6.734L21.58-5.616q-.364-.13-.767-.24a2.945,2.945,0,0,0-.78-.11q-1.9,0-1.9,2.5a3,3,0,0,0,.468,1.82,1.615,1.615,0,0,0,1.378.624,3.739,3.739,0,0,0,1.027-.13A3.978,3.978,0,0,0,21.84-1.5V-.3a2.941,2.941,0,0,1-.819.325A4.788,4.788,0,0,1,19.942.13ZM24.856-9.88v4.94q0,.26-.026.624t-.039.65h.039q.143-.195.4-.513t.448-.526l2.145-2.3h1.6L26.6-4l3,4H27.976L25.662-3.133l-.806.676V0H23.491V-9.88Z" transform="translate(196 19)"/>
  </g>
</svg>
